<?xml version="1.0" standalone="no"?>
<!DOCTYPE svg PUBLIC "-//W3C//DTD SVG 20010904//EN"
 "http://www.w3.org/TR/2001/REC-SVG-20010904/DTD/svg10.dtd">
<svg version="1.0" xmlns="http://www.w3.org/2000/svg"
 width="1619.000000pt" height="1619.000000pt" viewBox="0 0 1619.000000 1619.000000"
 preserveAspectRatio="xMidYMid meet">
<metadata>
Created by potrace 1.14, written by Peter Selinger 2001-2017
</metadata>
<g transform="translate(0.000000,1619.000000) scale(0.100000,-0.100000)"
fill="#000000" stroke="none">
<path d="M12060 16125 c-435 -89 -885 -506 -1174 -1085 -134 -270 -234 -578
-262 -805 -3 -22 -7 -47 -9 -55 -8 -31 -18 -180 -19 -290 -4 -496 190 -884
511 -1026 147 -65 345 -76 512 -27 231 66 439 197 646 407 160 162 236 260
378 488 121 195 274 579 323 811 14 65 34 177 38 212 3 22 8 64 12 94 22 180
6 446 -37 615 -59 232 -171 418 -317 529 -79 60 -121 83 -210 114 -65 23 -96
27 -202 29 -74 1 -152 -3 -190 -11z"/>
<path d="M9295 15494 c-170 -35 -282 -78 -417 -161 -48 -30 -93 -59 -100 -66
-7 -7 -35 -30 -62 -51 -278 -224 -532 -642 -640 -1055 -30 -111 -30 -111 -41
-181 -4 -25 -9 -54 -11 -65 -23 -122 -26 -455 -5 -585 64 -397 261 -706 532
-837 135 -66 325 -96 452 -73 23 5 58 11 77 14 109 17 294 104 430 202 93 66
249 218 316 306 26 35 51 65 54 68 3 3 33 48 67 100 140 218 260 508 307 743
3 15 8 37 11 50 67 331 45 710 -57 977 -123 324 -353 543 -635 606 -34 7 -250
13 -278 8z"/>
<path d="M14237 14594 c-1 -1 -27 -5 -57 -8 -74 -9 -109 -15 -150 -28 -225
-69 -403 -161 -595 -307 -94 -71 -122 -96 -250 -226 -375 -377 -649 -907 -710
-1374 -4 -25 -8 -62 -11 -81 -7 -52 -7 -236 1 -305 53 -466 356 -760 780 -758
316 2 669 160 988 443 283 251 502 551 672 923 35 78 113 300 121 347 3 14 9
39 14 55 5 17 14 58 20 92 5 35 13 75 16 90 3 16 7 102 9 193 4 225 -22 364
-100 527 -107 221 -315 375 -553 409 -44 7 -190 12 -195 8z"/>
<path d="M10887 12514 c-1 -1 -38 -4 -82 -7 -44 -4 -91 -9 -105 -12 -14 -2
-49 -10 -78 -16 -153 -31 -328 -102 -662 -268 -372 -184 -486 -231 -690 -281
-147 -36 -269 -56 -530 -85 -30 -3 -71 -8 -90 -10 -19 -3 -57 -7 -85 -10 -123
-14 -341 -43 -377 -51 -13 -3 -34 -7 -48 -9 -46 -7 -234 -56 -295 -77 -385
-134 -626 -353 -770 -702 -38 -93 -92 -275 -101 -345 -3 -25 -7 -48 -9 -51 -2
-3 -6 -34 -10 -70 -4 -36 -9 -74 -11 -85 -12 -54 -11 -329 2 -420 18 -132 21
-147 50 -235 118 -352 385 -583 854 -740 139 -46 379 -108 660 -170 733 -162
1002 -270 1312 -527 135 -112 372 -352 599 -608 24 -27 53 -59 64 -70 11 -12
56 -62 100 -111 123 -138 400 -412 501 -496 236 -195 446 -313 662 -369 177
-47 380 -46 562 2 395 104 854 460 1050 815 35 64 86 194 104 269 59 236 29
516 -88 817 -24 63 -49 124 -55 134 -6 11 -35 70 -66 132 -46 95 -97 188 -245
447 -10 17 -41 71 -69 120 -89 153 -169 324 -211 453 -22 67 -40 132 -40 143
0 11 -4 28 -9 37 -5 9 -11 35 -15 57 -3 22 -7 49 -10 60 -3 19 -15 100 -22
155 -6 44 -14 133 -19 210 -6 71 -8 99 -20 285 -3 44 -7 96 -9 115 -3 19 -8
64 -12 100 -3 36 -8 74 -10 85 -2 11 -9 47 -14 80 -31 192 -113 398 -221 556
-248 365 -792 690 -1249 745 -53 6 -188 12 -193 8z"/>
<path d="M15007 11934 c-1 -1 -29 -4 -62 -8 -69 -7 -100 -13 -172 -30 -183
-44 -402 -155 -603 -305 -64 -47 -281 -255 -346 -331 -100 -117 -231 -321
-307 -477 -38 -78 -117 -285 -132 -349 -89 -363 -77 -642 36 -893 43 -95 95
-168 174 -246 112 -109 253 -182 405 -209 84 -15 269 -17 339 -4 45 8 59 11
110 22 126 28 350 128 486 217 256 169 506 429 669 697 134 219 245 495 271
674 4 24 8 45 10 48 16 27 24 294 12 412 -13 132 -73 310 -136 402 -17 26 -31
49 -31 52 0 2 -15 21 -32 41 -164 184 -359 276 -606 285 -46 2 -84 3 -85 2z"/>
<path d="M4560 9188 c-121 -13 -225 -55 -336 -134 -202 -143 -349 -435 -390
-774 -15 -125 -10 -445 10 -545 2 -11 7 -42 11 -70 25 -175 113 -463 196 -643
22 -46 39 -86 39 -88 0 -19 187 -330 237 -394 195 -250 380 -416 583 -524 82
-43 203 -89 265 -100 17 -3 41 -8 55 -11 61 -14 227 -6 301 13 74 20 181 69
243 111 113 76 236 243 304 412 35 86 77 252 88 349 3 25 7 61 9 80 7 53 7
287 0 350 -15 138 -18 160 -41 280 -110 564 -421 1107 -813 1422 -252 202
-515 294 -761 266z"/>
<path d="M2078 8348 c-154 -20 -277 -78 -406 -193 -75 -66 -161 -210 -205
-345 -78 -233 -73 -591 12 -905 6 -22 11 -44 12 -50 4 -28 92 -262 132 -351
66 -146 198 -383 220 -392 4 -2 7 -8 7 -14 0 -6 45 -70 100 -144 95 -127 318
-363 404 -429 112 -86 185 -138 216 -156 19 -10 44 -25 55 -32 55 -35 98 -57
175 -89 236 -101 457 -125 650 -72 60 17 177 70 198 91 7 7 17 13 21 13 17 0
143 132 178 188 34 52 79 142 99 197 43 120 56 207 59 405 4 235 -10 337 -83
595 -26 93 -117 333 -133 350 -5 5 -9 14 -9 20 0 31 -262 473 -299 505 -3 3
-33 39 -66 80 -128 161 -267 296 -430 419 -311 235 -634 345 -907 309z"/>
<path d="M7209 8315 c-3 -2 -20 -7 -39 -10 -196 -33 -401 -174 -524 -359 -155
-234 -226 -514 -220 -869 2 -89 5 -171 7 -182 3 -12 9 -48 13 -80 4 -33 9 -62
9 -65 1 -3 5 -23 9 -45 5 -22 21 -87 36 -145 149 -554 493 -1019 907 -1223
163 -81 283 -108 458 -102 236 7 427 108 598 315 127 153 221 411 253 695 18
151 1 469 -31 585 -1 3 -5 23 -9 45 -10 52 -60 225 -85 295 -166 466 -485 861
-839 1039 -61 31 -207 84 -267 96 -37 8 -270 17 -276 10z"/>
<path d="M977 5690 c-166 -36 -331 -134 -440 -262 -292 -343 -284 -953 20
-1518 136 -253 340 -505 555 -683 213 -177 485 -313 723 -362 91 -19 267 -26
341 -15 86 14 99 17 173 43 268 94 462 329 527 642 19 92 26 348 11 440 -3 22
-9 58 -12 80 -11 71 -64 258 -95 339 -254 655 -806 1166 -1400 1296 -96 22
-303 21 -403 0z"/>
<path d="M5061 5613 c-374 -42 -828 -260 -1091 -523 -118 -118 -173 -190 -242
-320 -87 -163 -160 -403 -193 -630 -6 -43 -27 -178 -40 -265 -4 -22 -8 -53
-10 -70 -11 -81 -29 -180 -51 -275 -14 -58 -27 -114 -29 -124 -36 -158 -143
-392 -343 -756 -252 -459 -355 -715 -390 -970 -11 -84 -7 -318 7 -380 48 -215
135 -394 278 -570 64 -79 188 -206 263 -270 36 -30 67 -58 70 -61 3 -3 50 -37
105 -77 86 -61 216 -133 320 -178 135 -58 361 -85 512 -62 261 39 560 202 878
479 83 72 322 287 345 309 21 22 96 89 255 230 17 15 73 60 125 101 52 41 97
76 100 79 3 3 46 32 95 65 50 32 102 66 116 76 14 9 72 40 130 68 144 70 311
123 522 166 10 2 26 6 35 9 9 3 34 7 55 10 46 7 104 17 126 21 47 8 173 25
451 60 70 9 206 26 230 30 14 2 52 7 85 11 33 4 62 8 65 9 3 0 31 5 64 9 66 9
83 12 186 32 41 9 89 18 105 20 128 23 391 105 513 160 41 19 75 34 77 34 3 0
39 21 82 47 202 121 346 267 447 455 44 80 112 283 121 358 4 30 9 58 11 61
22 37 22 492 -1 579 -2 8 -7 35 -10 60 -11 78 -46 212 -78 295 -186 487 -615
748 -1347 820 -30 3 -66 8 -80 10 -14 3 -59 7 -100 10 -41 3 -90 8 -110 10
-19 2 -75 7 -125 11 -49 3 -101 8 -115 9 -14 2 -54 6 -90 10 -36 3 -78 9 -95
11 -16 3 -44 7 -61 9 -109 15 -307 76 -455 140 -143 63 -267 130 -524 285
-494 298 -679 367 -1030 384 -27 1 -101 -4 -164 -11z"/>
</g>
</svg>
