<?xml version="1.0" encoding="UTF-8"?><svg id="Layer_2" xmlns="http://www.w3.org/2000/svg" viewBox="0 0 968.29 931.88"><defs><style>.cls-1{fill:none;stroke:#000;stroke-linecap:round;stroke-linejoin:round;stroke-width:0px;}</style></defs><g id="Layer_2-2"><g><g><path d="M872.32,372.46h0s0,.01,0,.02v-.02Z"/><g><g><path d="M846.58,857.61c.03,.17,.02,.06-.08-.59,.03,.2,.06,.39,.08,.59Z"/><path d="M837.39,866.96c.03-.23,.06-.46,.08-.7-.06,.25-.12,.54-.08,.7Z"/><path d="M875.52,906.07c-2.15-3.35-3.86-6.88-4.97-10.47-7.93-3.88-14.05-10.11-18.53-16.83-4.05-4.47-5.07-8.53-5.53-15.13,1.19-2.03,.08-4.45,0-6.67v.04c-.14-1.46-1.41-2.67-2.84-2.87-1.58,.95-3.58,.92-5.17-.04,.09,.03,.15,.06,.23,.09h-.01c-2.57-.28-5.8-8.43-1.15-12.14,.84-4.92-.6-13.79-.67-17.62,.16-2.63,.55-6-1.93-7.67-2.52-21.37-12.07-39.54-13.91-62.06-4.52-22.98-6.11-45.62-8.53-68.36-.39-18.35-3.32-36.39-1.41-54.61-4.85-1.02-8.18-6.24-10.76-10.18-1.77,26.75-2.08,53.48-1.7,80.29,1.89,28.94,7.3,51.89,15.6,78.65,2.63,13.39,7.18,29.31,12.08,41.01-4.82,7.25-1.68,16.77,1.87,23.92-.25,2.01,.74,3.88,1.29,5.82,.16,.45,1.09,2.47,.44,1.53,1.09,1.11,1.66,2.15,2.57,3.22,.46,.81,1.48,1.06,2.19,1.55,1.24,0,2.37,.62,3,1.71,.15,.02,.31,.04,.46,.06,.17,.17,.36,.32,.56,.46-1,3-.83,4.08-1.22,6.51v-.03c-1.95,18.22,20.83,40.75,38.5,41.96-.16-.7-.32-1.41-.45-2.12Z"/></g><path d="M954.08,886.99c-1.1-8.21-4.53-19.17-11.01-23.7-4-7.96-12.02-11.14-17.32-18-6.66-12.55-8.06-27.95-9.38-41.96-.75-24.77,.18-49.58,.07-74.37-1.27-18.66-3.08-37.16-2.84-55.68-1.46-45.36,6.91-92.9-7.71-136.24,0-1.44-.18-2.87-.94-4.1-.31-3.76-2.24-7.02-3.92-10.32,1.5-.84,3.42,.45,5.17,.44,16.24,2.22,11.95-21.37,6.94-30.16-.87-6.78-1.72-13.8-4.31-20.4-1.27-5.78-1.42-11.69-3.04-17.35-1.85-4.21-3.36-8.47-4.7-12.83-1.7-12.05-2.82-24.34-5.78-36.05-2.56-14.11-8.97-27.14-13.65-40.55v.04c-4.13-10.73-4.91-22.27-7.76-33.31-4.1-.25-8.19-.66-12.27-1.17,4.07,12.34,4.21,25.57,9.19,37.62,4.67,14.06,11.2,27.43,14.22,42,2.3,11.89,3.01,24.04,5.87,35.72,.67,4.39,3.08,8.29,4.42,12.44,.93,4.38,.82,9.08,2.3,13.36,.74,4.86,2.72,9.43,3.5,14.3,.64,4.11-.06,8.56,2.82,12.1,2.12,4.59,2.47,7.22,2.25,11.95-3.71-1.21-7.73-.29-11.14,1.36-9.32-.39-8.86,11.3-3.51,15.81,3.35,6.74,3.66,14.51,7.16,21.27,10.1,54.14-.44,111.08,5.63,165.44,3.41,37.86-5.78,76.57,2.33,114.25,4.54,15.22,11.33,28.04,23.68,38.76,2.92,2.91,4.22,1.89,4.35,4.61,1.04,.58,2.03,1.23,3,1.91-3.57,7.22,4.9,23.43-7.61,24.7-6.82,.84-5.35-4.16-9.96-6.75-4.43-2.53-8.76,1.44-9.34,5.88-7.43,.78-14.82,2.07-19.16-5.76,.01,.02,.04,.06,.07,.09-1.67-2.92-6.67-4.61-8.12-.68-.42,2.78,.88,5.84,1.71,8.27-2.12,4.46-7.01,2.09-9.93,.03,.79,.85,1.62,1.67,2.5,2.43-3.47-.13-7.6-4.31-9.83-4.71,4.43,4.53,9.55,9.95,16.64,8.61,2.41,.99,4.55-.59,4.78-3.08,.14-.13,.29-.27,.43-.4,.42,.52,.75,1,.05,.07,5.9,8.2,20.61,16.35,29.01,7.36,16.13,2.08,38.84-2.08,35.17-23.26Z"/></g></g><g><g><g><path d="M889.73,225.7c1.41-3.77,2.79-7.59,2.78-11.66,.22,.16,.44,.31,.66,.47,1.53-6.28,4.12-12.76,1.52-19.01,.56-10.28-1.36-20.19-1.34-30.38-1.33-7.51-.61-19.29-2.34-28.12-2.53-16.78-3.85-33.2-6.52-49.8h-.02c0-6.4-9.86-6.35-9.76,0h-.05c1.08,13.16,2.7,26.3,4.08,39.48,1.42,7.76,2.29,11.81,2.74,20.26,2.16,23.92,1.88,47.09-.13,71.31-.86,9.53-3.79,16.55-6.95,25.03-2.72,3.9-5.98,7.56-6.39,12.62-.73,1.36-1.77,2.55-2.22,3.9-.38,.42-.91,1.57-1.15,2.22-.07-.1-.83,2.07-1.37,2.87l.22-.29c-.88,2.25-2.76,4.02-3.47,6.4,.14-.33,.28-.65,.41-.98-2.88,4.89-6.47,9.33-9.73,13.96,.29-.38,.58-.75,.87-1.13-10.65,17.87-28.35,32.28-49.59,34.32-3.36,.06-9.21,.64-11.32-.04-5.49-.62-11.15,1.6-16.34-.92-9.19-6.97-5.97-20.72-6.76-30.87-2.32,11.21-5.44,22.62-.71,32.21-6.59,3.94-10.85,7.53-19.11,7.2-8.03-.99-19.64-2.95-27.7-6.39,5.11,4.13,11.11,6.92,17.18,9.33-8.07,.64-20.1-4.72-23.62-9.85,4.36,10.22,17.82,16.43,28.08,16.31,11.96,.35,25.33-2.04,35.11-9.05l.09-.03c13.71,1.33,28.78,4.97,41.72-.67,8.06-1.84,20.15-9.59,25.47-15.24,9.59-7.74,16.68-20.25,23.17-29.37,3.56-4.84,6.09-10.37,8.71-15.76-.12,.28-.24,.56-.36,.84,2.34-3.35,3.85-6.92,4.78-10.89,5.28-5.92,6.28-14.13,9.21-21.29-.68-2.29-.73-4.72,.14-6.99Z"/><path d="M717.17,34.59c14.35-.22,28.14-2.56,41.68-5.78,4.91-1.17,16.16-.63,25.42-.79,12.67-3.13,25.45-2.16,38.27-3.37,12.46-.88,24.28,.58,36.4,3.18l-.22-.09c10.49,7.29,16.87-7.56,23.67-11.87-3.21,11.73,5.45,13.17,14.22,8.77-8.75,8.21-12.02,13.6,.99,19.19,5.9,3.51,9.9,11.11,16.34,15.24,6.31,5.69,11.54,11.17,13.6,18.29,1.46-.39,2.85-.87,4.23-1.47,16.72,16.56,22.53,18.52,25.98,43.06,2.92-2.37,6.67-3.7,10.52-3.79-2.99-18.52-12.52-46.75-34.39-50.19-.51-.74-1.02-1.48-1.57-2.19-3.93-6.75-10.57-11.14-16.16-16.42-4.55-4.5-7.91-9.31-13.4-12.57,5.26-5.87,13.81-10.44,15.31-18.7-1.17-12.21-16.69-2.71-23.68-1.4,5.83-28.38-22.67-5.38-30.01,4.32-.69-.29-1.44-.48-2.15-.76,.44,.19,.88,.37,1.33,.56-21.75-6.53-48.78-4.42-71.11-2.43-14.68,3.27-30.13-.39-44.65,4.53,.49-.07,.98-.13,1.47-.2-15.33,4.4-28.54,1.68-44.01,6.78-5.63,.97-12.59,2.18-17.6,5.54-.75-.01-1.49-.03-2.23,.04-4.09-2.55-6.85-6.75-10.77-9.54-13.8-7.68-20.75,.85-14.63,14.48-24.95-7.88-33.72,7.8-6.76,17.61-6.03,7.59-14.18,12.82-20.8,19.84-7.2,8.69-10.94,16.21-20.36,22.36-.09,2.58-.29,5.15-.61,7.7,9.09-3.58,21.14-15.08,25.1-21.95,5.42-7.8,33.97-25.38,27.98-34.97,12.08-.15,3.54-12.82,2.51-18.63,8.12,3.07,10.21,12.53,18,12.76,3.09,.21,6.39,.5,8.76-1.86,2.31-1.1,4.94-1.26,7.23-2.33,5.35-.16,10.86-2.4,16.07-2.96Zm-58.86,12.74c-3.17-.58-3.37-1.17-6.5-2.76,1.59-.25,5.33,1.24,7.66,2.2-.41,.13-.8,.31-1.16,.56Z"/><path d="M889.05,35.13h0c0-.25-3.48,25.89,0,0Z"/></g><g><path d="M620.84,329.03s.06-.04,.1-.07c-.03,.02-.07,.04-.1,.07Z"/><g><path d="M765.2,273.78s.06-.02,.08-.03c.06-.04,.02-.02-.08,.03Z"/><path d="M794.9,269.09c.23-.15,.49-.33,.59-.44-.19,.15-.4,.29-.59,.44Z"/><path d="M795.76,240.51c-8.77-3.69-16.71-4.75-25.06-4.29-8.08-3.74-20.27-4.68-28.28-3.18-13.31,3.43-23.58,22.56-13.77,34.56-.56-.73-.71-.9-.64-.79,2.13,2.81,4.48,5.55,6.37,8.33,2.55,4.44,8.57,5.81,12,9.2-8.18,11.9-24.44,17.55-36.29,22.09-8.44,4.18-15.89,4.47-26,3.83-6.75-1.56-6.98-2.25-11.74-6.4-14.87-18.22-.66-37.61-1.23-57.28,1.04-9.34,1.14-15.61,3.39-23.94,.38-6.49-.83-11.58,.72-18.17,1.3-25.76-.55-50.1-3.06-75.43v.03c3.47-9.1-6.03-14.04-9.09-5.84-.94,1.64-1.2,3.6-1.21,5.49,0,.75,.12-.63,.18-1.01-.9,13.91,.53,28.94,1.22,42.66-.14,24.83,1.45,49.52-3.87,73.94,1.63,3.4,1.79,7.55,.74,11.32,.25-.16,.51-.32,.76-.49-.37,4.84-1.82,8.95-3.01,13.65-1.93,6.48-.9,14.19-6.7,18.96-5.36,7.62-7.48,14.12-15.46,20.53-7.87,5.72-17.67,11.11-26.65,15.08,.24-.1,.48-.2,.72-.31-8.9,1.79-17.58-2.12-26.01-4.68-.67-18.48,10.32-34.43,13.73-52.88,1.95-14.17,2.02-28.35,.07-42.45-2.51-14.85-9.2-31.31-13.76-44.96-2.67-6.16-1.35-13.15-1.55-19.76,1.04-4.47,1.07-8.84,3.43-12.93l-.02,.03c.52-.66,.72-1.4,.89-1.99l-.02,.02c1.39-2.29,2.06-4.75,3.51-7l-.06,.08c2.71-5.37,6.92-9.56,9.29-15.11,3.51-10.65,10.37-15.69,19.73-22.25-18.45,7.4-18.26,10.55-29.61,24.86-6.63,6.44-11.86,14.47-15.48,22.93-2.87,9.85-3.85,25.82-.59,33.46,4.87,15.95,11.37,31.58,14.06,48.15,.27,1.89,.26,11.68,.23,20.1,1.09,2.97,.96,6.21-.02,8.62-1.33,9.2-3.14,14.32-5.91,22.52l.04-.09c-4.05,15.31-21.57,46.74,4.43,51.08,6.01,1.73,11.88,4.25,18.25,3.69,2.44-.07,4.95,.23,7.34-.37,1.1-.43,5.57-2.46,2.64-1.19,3.77-1.76,3.12-.8,6.58-3.5-.75,.52,.49-.35,.71-.56-.12,.13-.38,.33-.61,.49,22.53-13.27,27-22.93,34.86-47.44-.82,9.11,2.15,18.04,7.14,25.61-.05-.13-.11-.26-.16-.39,8.96,16.14,33.45,16.99,48.52,9.66,13.98-6.53,30.84-15.73,36.89-30.94,.55,.34,1.15,.59,1.74,.84-.09-.04-.18-.09-.27-.13,.25,.1,.5,.2,.75,.3-.02,0-.05,0-.07-.01,2.88,.95,6.01,1.19,9,.62-.09,0-.18,.01-.26,.02,8.97-1.96,17.93-5.24,25.17-10.89-.37,.29-.75,.58-1.12,.87,3.7-3.35,8.01-4.86,11.77-7.98l-.04,.03c.23-.17,.45-.36,.68-.54,0,.02-.03,.04-.05,.07,6.64-6.28,11.91-21.75,.11-28.52Zm-2.5,13.88c-1.87,7-8.85,8.04-14.86,12.5-4.36,3.38-7.47,4.62-13.33,6.94l.13-.06c-3.46,.96-6.78,3.12-11.21,2.21-3.07-2.92-6.85-4.79-10.4-7.03-2.2-3.34-4.89-5.87-7.69-8.77-1.89-2.65-2.62-6.15-1.53-9.27,2.34-4.44,3.71-8.27,8.57-11.23,4.99-2.37,14.19-3,20.36-3.77-.19,.09-.37,.2-.54,.31,7.38,1.01,17.23,3.81,23.19,6.61,4.07,1.9,10.68,4.61,7.31,11.56Z"/><path d="M759.34,287.08c.33-.02,.71-.06,.84-.13-.28,.03-.56,.08-.84,.13Z"/><path d="M750.09,286.38c-.06-.02-.11-.05-.17-.08,.06,.03,.12,.05,.17,.08Z"/></g></g></g><path d="M733.41,127.6c-.69-1.63-2.96-2.44-5.58-1.58-.22-.46-.52-.93-.87-1.29,.36-.04,.72-.07,1.07-.11-11.43-2.29-28.72-6.96-36.05,5.49,.03-.04,.05-.07,.08-.11-.39,.54-.95,1.36-1.08,1.8-.25,.32-.06,.1,.15-.18-.77,.84-1.69,2.96-2.14,3.71-12.91,32.26,22.05,27.86,37.27,11.01,1.82-3.39,15.9-15.75,7.13-18.73Zm-29.26,.86c.32-.1,.99-.32,1.53-.47-1.73,1.01-3.43,2.08-4.9,3.44,2.05-2.16,1.91-2.13,3.37-2.96Z"/><path d="M846.44,144.03c.79-3.71,.1-7.64-2.66-10.36,.02,.03,.06,.07,.09,.12-4.04-5.36-10.59-7.65-16.79-9.53-5.76-5.93-14.83-2.59-21.86-1.35-.84,.29,.91-.05,1.17,.07,.62,.1,1.27,.19,1.93,.28-4.81,3.96-8.67,11.53-6.22,17.74-5.44-4.88,.22-12.41,3.49-17.32-10.71,7.77-13.83,17.91-2.58,26.83,2.67,3.87,20.31,5.18,25.27,4.76,3.51,.01,18.15-3.45,18.17-11.23Z"/><g><path d="M964.64,254.45c-.6-8.01-2.29-15.81-4.11-23.61-.16-1.11,.06,.54,.12,.98-2.95-13.18-.6-26.21-.76-39.22,1.37-17.52,4.82-33.52,5.55-50.9v.03c1.68-8.51-1.93-16.57-2.52-24.78-.18,.44-.35,.89-.51,1.34-.15-.45-.29-.89-.45-1.34,.04,.69,.09,1.38,.14,2.07-1.31-4.26,.37-11.77-3.6-14.3,.78,.28,1.06,1.4,1.12,2.15-1.34,10.51-2.55,18.7-4.34,28.12-.53,11.22-7,23.43-2.31,32.44-3.28,12.07-4.62,24.49-4.28,37.02-1.92,10.61-.63,21.86,1.88,32.2,2.59,13.56,4.64,27.15,3.92,41.15-1.15,5.04-2.74,6.68-4.75,10.95-3.46,5.05-10.69,15.23-17.44,10.94-8.67-7.81-18.58-14.29-27.86-20.83-4.57-5.52-8.51-11.54-10.87-17.34-2.4-5.88-3.75-12.63-6.91-18.13,2.17,12.69,1.82,27.23,9.62,38.06,2.07,4.92,6.43,7.69,9.85,10.33,5.72,5,11.42,10.04,17.29,14.87,12.8,13.83,31.27-1.78,37.21-14.87,6.98-10.95,5.62-25.03,4.01-37.33Z"/><path d="M965.11,141.7c0-.07,.02-.13,.02-.17,0,.06-.01,.11-.02,.17Z"/></g><g><path d="M620.84,329.03s.06-.04,.1-.07c-.03,.02-.07,.04-.1,.07Z"/><g><path d="M765.2,273.78s.06-.02,.08-.03c.06-.04,.02-.02-.08,.03Z"/><path d="M794.9,269.09c.23-.15,.49-.33,.59-.44-.19,.15-.4,.29-.59,.44Z"/><g><path d="M795.76,240.51c-8.77-3.69-16.71-4.75-25.06-4.29-8.08-3.74-20.27-4.68-28.28-3.18-13.31,3.43-23.58,22.56-13.77,34.56-.56-.73-.71-.9-.64-.79,2.13,2.81,4.48,5.55,6.37,8.33,2.55,4.44,8.57,5.81,12,9.2-8.18,11.9-24.44,17.55-36.29,22.09-8.44,4.18-15.89,4.47-26,3.83-6.75-1.56-6.98-2.25-11.74-6.4-14.87-18.22-.66-37.61-1.23-57.28,1.04-9.34,1.14-15.61,3.39-23.94,.38-6.49-.83-11.58,.72-18.17,1.3-25.76-.55-50.1-3.06-75.43v.03c3.47-9.1-6.03-14.04-9.09-5.84-.94,1.64-1.2,3.6-1.21,5.49,0,.75,.12-.63,.18-1.01-.9,13.91,.53,28.94,1.22,42.66-.14,24.83,1.45,49.52-3.87,73.94,1.63,3.4,1.79,7.55,.74,11.32,.25-.16,.51-.32,.76-.49-.37,4.84-1.82,8.95-3.01,13.65-1.93,6.48-.9,14.19-6.7,18.96-5.36,7.62-7.48,14.12-15.46,20.53-7.87,5.72-17.67,11.11-26.65,15.08,.24-.1,.48-.2,.72-.31-8.9,1.79-17.58-2.12-26.01-4.68-.67-18.48,10.32-34.43,13.73-52.88,1.95-14.17,2.02-28.35,.07-42.45-2.51-14.85-9.2-31.31-13.76-44.96-2.67-6.16-1.35-13.15-1.55-19.76,1.04-4.47,1.07-8.84,3.43-12.93l-.02,.03c.52-.66,.72-1.4,.89-1.99l-.02,.02c1.39-2.29,2.06-4.75,3.51-7l-.06,.08c2.71-5.37,6.92-9.56,9.29-15.11,3.51-10.65,10.37-15.69,19.73-22.25-18.45,7.4-18.26,10.55-29.61,24.86-6.63,6.44-11.86,14.47-15.48,22.93-2.87,9.85-3.85,25.82-.59,33.46,4.24,13.44,9.17,26.71,12.62,40.43h-.02c.12,.45,.2,.9,.23,1.37,.04,0,.08,0,.11-.01,1.74,8.31,1.33,12.97,1.34,26.47,1.09,2.98,.96,6.2-.02,8.62-1.33,9.18-3.13,14.33-5.91,22.52l.04-.09c-4.05,15.31-21.57,46.74,4.43,51.08,6.01,1.73,11.88,4.25,18.25,3.69,2.44-.07,4.95,.23,7.34-.37,1.1-.43,5.57-2.46,2.64-1.19,3.77-1.76,3.12-.8,6.58-3.5-.75,.52,.49-.35,.71-.56-.12,.13-.38,.33-.61,.49,22.53-13.27,27-22.93,34.86-47.44-.82,9.11,2.15,18.04,7.14,25.61-.05-.13-.11-.26-.16-.39,8.96,16.14,33.45,16.99,48.52,9.66,13.98-6.53,30.84-15.73,36.89-30.94,.55,.34,1.15,.59,1.74,.84-.09-.04-.18-.09-.27-.13,.25,.1,.5,.2,.75,.3-.02,0-.05,0-.07-.01,2.88,.95,6.01,1.19,9,.62-.09,0-.18,.01-.26,.02,8.97-1.96,17.93-5.24,25.17-10.89-.37,.29-.75,.58-1.12,.87,3.7-3.35,8.01-4.86,11.77-7.98l-.04,.03c.23-.17,.45-.36,.68-.54,0,.02-.03,.04-.05,.07,6.64-6.28,11.91-21.75,.11-28.52Zm-2.5,13.88c-1.87,7-8.85,8.04-14.86,12.5-4.36,3.38-7.47,4.62-13.33,6.94l.13-.06c-3.46,.96-6.78,3.12-11.21,2.21-3.07-2.92-6.85-4.79-10.4-7.03-2.2-3.34-4.89-5.87-7.69-8.77-1.89-2.65-2.62-6.15-1.53-9.27,2.34-4.44,3.71-8.27,8.57-11.23,4.99-2.37,14.19-3,20.36-3.77-.19,.09-.37,.2-.54,.31,7.38,1.01,17.23,3.81,23.19,6.61,4.07,1.9,10.68,4.61,7.31,11.56Z"/><path d="M750.5,286.85c-.08-.03-.17-.05-.25-.08,.1,.04,.18,.07,.25,.08Z"/></g><path d="M759.34,287.08c.33-.02,.71-.06,.84-.13-.28,.03-.56,.08-.84,.13Z"/><path d="M750.09,286.38c-.06-.02-.11-.05-.17-.08,.06,.03,.12,.05,.17,.08Z"/></g></g></g><g><path d="M872.32,372.46h0s0,.01,0,.02v-.02Z"/><g><g><path d="M846.58,857.61c.03,.17,.02,.06-.08-.59,.03,.2,.06,.39,.08,.59Z"/><path d="M837.39,866.96c.03-.23,.06-.46,.08-.7-.06,.25-.12,.54-.08,.7Z"/><path d="M875.52,906.07c-2.15-3.35-3.86-6.88-4.97-10.47-7.93-3.88-14.05-10.11-18.53-16.83-4.05-4.47-5.07-8.53-5.53-15.13,1.19-2.03,.08-4.45,0-6.67v.04c-.14-1.46-1.41-2.67-2.84-2.87-1.58,.95-3.58,.92-5.17-.04,.09,.03,.15,.06,.23,.09h-.01c-2.57-.28-5.8-8.43-1.15-12.14,.84-4.92-.6-13.79-.67-17.62,.16-2.63,.55-6-1.93-7.67-2.52-21.37-12.07-39.54-13.91-62.06-4.52-22.98-6.11-45.62-8.53-68.36-.39-18.35-3.32-36.39-1.41-54.61-4.85-1.02-8.18-6.24-10.76-10.18-1.77,26.75-2.08,53.48-1.7,80.29,1.89,28.94,7.3,51.89,15.6,78.65,2.63,13.39,7.18,29.31,12.08,41.01-4.82,7.25-1.68,16.77,1.87,23.92-.25,2.01,.74,3.88,1.29,5.82,.16,.45,1.09,2.47,.44,1.53,1.09,1.11,1.66,2.15,2.57,3.22,.46,.81,1.48,1.06,2.19,1.55,1.24,0,2.37,.62,3,1.71,.15,.02,.31,.04,.46,.06,.17,.17,.36,.32,.56,.46-1,3-.83,4.08-1.22,6.51v-.03c-1.95,18.22,20.83,40.75,38.5,41.96-.16-.7-.32-1.41-.45-2.12Z"/></g><path d="M954.08,886.99c-1.1-8.21-4.53-19.17-11.01-23.7-4-7.96-12.02-11.14-17.32-18-6.66-12.55-8.06-27.95-9.38-41.96-.75-24.77,.18-49.58,.07-74.37-1.27-18.66-3.08-37.16-2.84-55.68-1.46-45.36,6.91-92.9-7.71-136.24,0-1.44-.18-2.87-.94-4.1-.31-3.76-2.24-7.02-3.92-10.32,1.5-.84,3.42,.45,5.17,.44,16.24,2.22,11.95-21.37,6.94-30.16-.87-6.78-1.72-13.8-4.31-20.4-1.27-5.78-1.42-11.69-3.04-17.35-1.85-4.21-3.36-8.47-4.7-12.83-1.7-12.05-2.82-24.34-5.78-36.05-2.56-14.11-8.97-27.14-13.65-40.55v.04c-4.13-10.73-4.91-22.27-7.76-33.31-4.1-.25-8.19-.66-12.27-1.17,4.07,12.34,4.21,25.57,9.19,37.62,4.67,14.06,11.2,27.43,14.22,42,2.3,11.89,3.01,24.04,5.87,35.72,.67,4.39,3.08,8.29,4.42,12.44,.93,4.38,.82,9.08,2.3,13.36,.74,4.86,2.72,9.43,3.5,14.3,.64,4.11-.06,8.56,2.82,12.1,2.12,4.59,2.47,7.22,2.25,11.95-3.71-1.21-7.73-.29-11.14,1.36-9.32-.39-8.86,11.3-3.51,15.81,3.35,6.74,3.66,14.51,7.16,21.27,10.1,54.14-.44,111.08,5.63,165.44,3.41,37.86-5.78,76.57,2.33,114.25,4.54,15.22,11.33,28.04,23.68,38.76,2.92,2.91,4.22,1.89,4.35,4.61,1.04,.58,2.03,1.23,3,1.91-3.57,7.22,4.9,23.43-7.61,24.7-6.82,.84-5.35-4.16-9.96-6.75-4.43-2.53-8.76,1.44-9.34,5.88-7.43,.78-14.82,2.07-19.16-5.76,.01,.02,.04,.06,.07,.09-1.67-2.92-6.67-4.61-8.12-.68-.42,2.78,.88,5.84,1.71,8.27-2.12,4.46-7.01,2.09-9.93,.03,.79,.85,1.62,1.67,2.5,2.43-3.47-.13-7.6-4.31-9.83-4.71,4.43,4.53,9.55,9.95,16.64,8.61,2.41,.99,4.55-.59,4.78-3.08,.14-.13,.29-.27,.43-.4,.42,.52,.75,1,.05,.07,5.9,8.2,20.61,16.35,29.01,7.36,16.13,2.08,38.84-2.08,35.17-23.26Z"/></g></g><g><path d="M872.32,372.46h0s0,.01,0,.02v-.02Z"/><g><g><path d="M846.58,857.61c.03,.17,.02,.06-.08-.59,.03,.2,.06,.39,.08,.59Z"/><path d="M837.39,866.96c.03-.23,.06-.46,.08-.7-.06,.25-.12,.54-.08,.7Z"/><path d="M875.52,906.07c-2.15-3.35-3.86-6.88-4.97-10.47-7.93-3.88-14.05-10.11-18.53-16.83-4.05-4.47-5.07-8.53-5.53-15.13,1.19-2.03,.08-4.45,0-6.67v.04c-.14-1.46-1.41-2.67-2.84-2.87-1.58,.95-3.58,.92-5.17-.04,.09,.03,.15,.06,.23,.09h-.01c-2.57-.28-5.8-8.43-1.15-12.14,.84-4.92-.6-13.79-.67-17.62,.16-2.63,.55-6-1.93-7.67-2.52-21.37-12.07-39.54-13.91-62.06-4.52-22.98-6.11-45.62-8.53-68.36-.39-18.35-3.32-36.39-1.41-54.61-4.85-1.02-8.18-6.24-10.76-10.18-1.77,26.75-2.08,53.48-1.7,80.29,1.89,28.94,7.3,51.89,15.6,78.65,2.63,13.39,7.18,29.31,12.08,41.01-4.82,7.25-1.68,16.77,1.87,23.92-.25,2.01,.74,3.88,1.29,5.82,.16,.45,1.09,2.47,.44,1.53,1.09,1.11,1.66,2.15,2.57,3.22,.46,.81,1.48,1.06,2.19,1.55,1.24,0,2.37,.62,3,1.71,.15,.02,.31,.04,.46,.06,.17,.17,.36,.32,.56,.46-1,3-.83,4.08-1.22,6.51v-.03c-1.95,18.22,20.83,40.75,38.5,41.96-.16-.7-.32-1.41-.45-2.12Z"/></g><path d="M954.08,886.99c-1.1-8.21-4.53-19.17-11.01-23.7-4-7.96-12.02-11.14-17.32-18-6.66-12.55-8.06-27.95-9.38-41.96-.75-24.77,.18-49.58,.07-74.37-1.27-18.66-3.08-37.16-2.84-55.68-1.46-45.36,6.91-92.9-7.71-136.24,0-1.44-.18-2.87-.94-4.1-.31-3.76-2.24-7.02-3.92-10.32,1.5-.84,3.42,.45,5.17,.44,16.24,2.22,11.95-21.37,6.94-30.16-.87-6.78-1.72-13.8-4.31-20.4-1.27-5.78-1.42-11.69-3.04-17.35-1.85-4.21-3.36-8.47-4.7-12.83-1.7-12.05-2.82-24.34-5.78-36.05-2.56-14.11-8.97-27.14-13.65-40.55v.04c-4.13-10.73-4.91-22.27-7.76-33.31-4.1-.25-8.19-.66-12.27-1.17,4.07,12.34,4.21,25.57,9.19,37.62,4.67,14.06,11.2,27.43,14.22,42,2.3,11.89,3.01,24.04,5.87,35.72,.67,4.39,3.08,8.29,4.42,12.44,.93,4.38,.82,9.08,2.3,13.36,.74,4.86,2.72,9.43,3.5,14.3,.64,4.11-.06,8.56,2.82,12.1,2.12,4.59,2.47,7.22,2.25,11.95-3.71-1.21-7.73-.29-11.14,1.36-9.32-.39-8.86,11.3-3.51,15.81,3.35,6.74,3.66,14.51,7.16,21.27,10.1,54.14-.44,111.08,5.63,165.44,3.41,37.86-5.78,76.57,2.33,114.25,4.54,15.22,11.33,28.04,23.68,38.76,2.92,2.91,4.22,1.89,4.35,4.61,1.04,.58,2.03,1.23,3,1.91-3.57,7.22,4.9,23.43-7.61,24.7-6.82,.84-5.35-4.16-9.96-6.75-4.43-2.53-8.76,1.44-9.34,5.88-7.43,.78-14.82,2.07-19.16-5.76,.01,.02,.04,.06,.07,.09-1.67-2.92-6.67-4.61-8.12-.68-.42,2.78,.88,5.84,1.71,8.27-2.12,4.46-7.01,2.09-9.93,.03,.79,.85,1.62,1.67,2.5,2.43-3.47-.13-7.6-4.31-9.83-4.71,4.43,4.53,9.55,9.95,16.64,8.61,2.41,.99,4.55-.59,4.78-3.08,.14-.13,.29-.27,.43-.4,.42,.52,.75,1,.05,.07,5.9,8.2,20.61,16.35,29.01,7.36,16.13,2.08,38.84-2.08,35.17-23.26Z"/></g></g><path d="M819.11,898.25c-.25-13.88-9.73-24.61-19.62-33.27v.02c-6.28-7.41-15.37-14.52-19.1-23.34-4.06-7.2-4.41-11.91-8.44-19.82-3.1-7.28-5.15-13.33-6.78-20.78,.07,.49,.13,.99,.2,1.48-8.3-46.68-10.24-95.35-6.89-143.09,.06-14.38-.6-28.73,1.41-42.94,2.9-12.21,5.69-22.71,8.44-34.75,5.32-19.17,9.8-39.87,23.56-54.88-.19,13.4-1.11,27.2,.9,40.64,.56,6.88,1.95,13.91,2.73,20.76,.14,.75-.1-.84-.13-1.14,2.27,11.31,2.57,23.51,4.96,34.66,.87,6.16-2.64,20.74,7.3,19.57,3.6-.71,4.57-4.91,3.7-8.13,.64-9.34-.68-18.54-2.41-27.61-.68-16.78-5.93-33.11-9.86-49.16-1.07-5.26-1.32-10.55-3.47-16.32-.23-2.17-.94-7.71-2.14-10.5-.21-.87-.05-2.75-.91-3.66,5.33-7.18,10.35-14.59,15.06-22.2-12.13,13.49-28.85,23.25-37.44,39.59-6.21,8.77-8.22,19.65-10.69,29.89-4.05,12.9-6.67,25.02-9.66,38.05-4.79,19.26-.75,39.46-3.57,58.99-.61,37.39-.84,75.63,4.71,112.32,2.3,16.31,4.53,30.66,11.43,44.97,4.32,9.31,6.93,21.01,14.28,28.83,4.58,5.93,11,11.94,16.07,17.69,5.81,4.9,11.21,10.37,13.99,17.59,.71,4.27,1.61,5.11,1.22,9.7-7.37,.94-14.74-2.52-21.97-.61-5.07,2.13-5.19,9.09-1.28,12.44-8.58,1.96-28.81-7.96-27.85,7.21-13.45,.06-26.8-2.73-40.04-4.37-5.67-3.3-11.35-7.34-15.31-12.81-1.05-2.11-1.45-2.42-2.71-7.07-1.25-4.03-4.05-7.46-4.61-11.72-2.97-6.52,2.43-8.07,2.39-16.54,1.43-6.97-4.27-13.46-9.49-16.39-3.38-2.45-4.05-1.56-6.87-4.13-3.28-2.85-2.12-6.41-4.23-10.38-.91-2.31-.53-2.5-.85-7.45-.35-2.45-1.27-4.96-1.11-7.38-.03,.05-.07,.09-.11,.13-1.71-12.84-2.55-28.42-2.24-41.98-.89-14.97-4.04-29.63-4.11-44.66-1.32-21.68,.92-43.4,.45-65.13,1.86-19.07,.22-38.5,3.59-57.5-.03,.02-.05,.03-.08,.05,.99-6.17,1.95-13.25-.18-19.18v.07c-.07-.35-.17-.69-.29-1.03l.06,.14c-1.73-4.81-1.76-10.36-2.64-14.82-.71-4.69-2.13-4.6-3.56-7.76l.03,.06c-.41-.86-.89-1.68-1.38-2.5,.02,.06,.06,.17,.11,.29-4.43-9.85-7.74-20.81-10.83-31.07,2.45-5.49,5.19-10.95,8.91-15.69,2.44-2.92,8.53-7.88,11.64-11.67,6.82-8.68,8.71-18.8,16.81-26.11-.13,.17-.25,.33-.31,.4,8.26-7.57,13-17.5,18.9-26.92,4.49-4.93,9.38-9.99,13.47-15.08-5.38,3.81-11.61,7.79-17.04,11.76-5.3,5.23-7.2,8.31-11.46,12.89-8.48,9.71-15.67,12.49-21.78,23.05l.07-.1c-2.37,4.18-6.11,7.42-7.95,12.02-1.79,4.62-4.59,6.26-7.43,10.08-.39,.03-.77,.04-1.16,.02-5.57,5.62-9.89,13.97-12.77,20.75l.04-.1c-3.63,3.91-.75,8.24,.82,12.25,2.65,10.66,6.63,21.21,11.64,31.03l-.56-1.33c.88,2.06,1.36,2.95,1.75,3.54-18.92,4.79-38.56,2.66-57.83,5.58-18.52,3.29-36.88,7.27-55.85,5.98-29.8-.19-59.66,.96-89.33-2-15.41-2.87-31.05-5.01-45.59-11.04-11.83-2.98-25.12-6.39-35.36-11.84-14.54-4.94-29.51-8.02-42.39-16.87-2.15,3.06-4.33,6.1-6.53,9.13,8.13,4.11,15.57,9.6,24.52,11.92,6.78,1.99,17.12,4.3,22.16,7.04,40.45,16.39,83.9,26.02,127.72,24.76,32.69-.78,66,3.18,97.84-5.98,20.83-4.07,42-6.11,61.58-15.43,.17,.06,.36,.96,.3,.7,.98,7.04,1.68,13.82,1.53,20.76-.4,7.85-.63,15.67-1.86,23.34,1.9,5.4,.7,11.42,.97,17.15-1.58,29.14-2.04,57.79-2.22,87,.4,16.16,1.52,32.17,4.47,48.04-.11,17.06,.53,33.76,2.66,50.84h0c.6,3.49-.88,7.9,1.57,10.78,2.78,10.74,4.59,17.93,15.92,22.53l-.03-.03c1.95,1.04,3.18,2.79,4.78,4.26-.29-.38-.58-.75-.87-1.13,.31,.4,.62,.79,.93,1.19-2.09,16.9-7.34,14.25,2.29,33.48,1.84,10.22,10.57,19.43,18.68,24.29,3.05,2.81,7.11,4.31,11.08,5.24,11.22-1.06,51.43,12.41,50.48-4.6,9.18,1.07,33.11,5,29.21-10.97,11.08,1.44,24.14,.82,21.88-14Z"/><g><path d="M439.59,888.47c.15-.11,.3-.23,.45-.33-.09,.05-.27,.19-.45,.33Z"/><path d="M325.99,860.55c0-.05-.01-.1-.02-.16,.01,.18,.02,.27,.02,.16Z"/><path d="M371.5,911.16s.09,.04,.13,.05c-.04-.02-.09-.04-.13-.05Z"/><path d="M331.16,886.15c-.11-.25-.21-.5-.31-.75,.1,.27,.22,.59,.31,.75Z"/><path d="M467,588.9c-6.22,9.64-11.19,20.05-12.72,31.53-.46,5.88-.97,6.4-1.85,11.67-1.41,8.13,.05,13.19-3.92,21.72-3.48,13.16-4.09,20.49-13.25,31.91-3.46,6.39-6.05,12.18-10.89,16.77-3.92,4.49-6.42,10.03-10.08,14.7-6.17,6.3-11.68,12.93-16.24,20.5,.29-.37,.58-.75,.87-1.12-2.14,2.78-4.16,5.14-7.31,8.63-2.6,4.1-3.73,8.76-5.79,13.12-6.61,15.08-11.95,31.93-9.3,48.52-.07-.49-.13-.99-.2-1.48-.14,10.21,3.61,19.73,6.74,29.19,.16,2.52,.45,3.04,1.32,4.32,1.85,6.06,1.89,11.36,7.57,15.63,3.85,3.24,6.89,5.49,14.24,9.37,4.94,1.51,10.51,.48,15.12,3.18,7.89,2.95,8.29,2.37,13.86,9.78,3.36,2.71,5.72,5.62,6.25,10.08-.64,.62-1.31,1.19-2.02,1.72,.07-.05,.13-.11,.2-.16-.51,.39-1.03,.78-1.57,1.13-6.87,.04-20.03-2.08-21.81,6.55-4.53,1.48-9.52-3.9-13.67,.55-3.91,2.62-7.18,6.33-1.28,9.39,0,.08,0,.16,0,.25-5.87,1.21-11.18-2.86-16.96-3.43-2.3-.75-4.94-1.94-7.3-2.86-1.31-2.11-4.82-2.76-7.03-1.27-7.95-4.06-16.56-6.19-23.32-12.08l.19,.15c-3.79-3.59-3.81-1.99-5.67-5.48-.4-1.21-1.14-3.66-1.69-5.22-.38-4.9-1.27-10.86-2.2-15.29-.96-17.72-3.76-36.77-4.6-53.87-1.03-15.89-3.98-30.33-4.15-46.67-.08-12.86-4.31-21.88-.6-35.93,1.77-2.78,4.19-4.94,5.33-8.02,2.28-4.95,7.7-7.02,9.87-11.34h0c1.17-1.77,2.33-3.66,2.85-5.76,1.48-1.73,1.17-4.43,1.54-6.6-.1-.17-.21-.33-.3-.5,.33-4.23-1.1-8.25-2.01-12.29,.07,.49,.13,.99,.2,1.48-2.51-11.78-6.39-23.23-8.68-35.08-1.98-4.81-5.17-8.67-5.3-14.09-.1-5.58,.29-11.21-.33-16.73-.3-3.51-2.01-6.54-.88-10.13,1.73-6.23,2.92-10.96,4.52-15.66-.18,.44-.37,.87-.55,1.31,2.97-7.35,6.39-17.3,10.77-24.02,4.51-7.32-5.78-13.23-9.9-5.37-5.21,13.2-17.67,26.21-15.18,41.08-.5,3.26-.2,2.96-1.11,6.11-2.42,11.72,2.3,19.68,2.51,30.41,2.11,5.86,1.29,10.55,2.46,16.8,1.02,7.28,2.47,14.56,5.07,21.44,1.57,2.91,2.76,6.97,4.61,9.97,2.5,2.89,3.08,5.18,1.85,8.92-.18,.66-.63,1.13-.92,1.74-.67,1.21-1.82,2.82-2.82,3.64-.47,.36-.92,.74-1.38,1.11l.12-.09c-.78,.68-1.48,1.43-2.28,2.08,.38-.29,.75-.58,1.13-.87-.62,.47-1.23,.95-1.84,1.43,.38-.29,.75-.58,1.13-.87-3.44,2.68-2.69,2.29-4.37,3.64,.02,0,.05-.02,.09-.04-7.88,6.33-7.25,17.95-10.54,26.72-.03-.19-.05-.35-.08-.5,.37,2.79,.38,5.53,1.3,8.16,2.27,2.22,2.59,5.49,2.83,8.48,1.92,5.14,1.37,11.63,1.51,16.84,1.51,12.8,1.84,25.13,2.48,39.68,1.02,18.43,3.04,35.9,4.33,52.94,0-.06,0-.13-.02-.21,1.71,7.77,1.68,17.48,4.9,25.22-.04-.11-.07-.21-.1-.29,.15,.38,.3,.76,.47,1.13-.02-.01-.04-.05-.07-.09,1.36,3.59,3.97,6.13,7.2,8.05,5.29,5.15,11.81,8.27,17.43,10.09,5.1,2.68,9.95,5.74,15.71,6.87-.14-.06-.28-.13-.4-.19,.57,.28,1.97,.73,.53,.25,7.13,2.57,13.83,2.69,20.96,5.77h-.02c10.2,2.51,18.64,3.4,20.24-9.35,2.36,.43,4.63-.17,6.84-.9l-.05,.02c3.57,.19,6.69-2.19,7.57-5.64,7.82-2.02,10.77,1.62,19.07-2.87-.06,.02-.11,.04-.14,.05,7.22-1.21,7.65-11.24,6.87-17.06-1.37-5.99-6.57-9.06-10.64-12.99-3.53-6.06-9.69-9.39-16.18-11.13-1.88-1.34-9.47-3.39-12.13-3.18-6.02-.22-10.48-4.68-15.23-8.06l.08,.06c-.5-.25-1.48-1.6-1.5-1.8-1.87-7.25-5.68-19.62-8.52-27.31-.27-10.65-1.55-22.3,2.33-32.28,2.72-6.35,.65-13.9,3.89-20,2.72-5.66,1.46-4.19,5.25-11.77,3.32-5.42,5.27-6.13,9.23-12.18,2.96-5.77,7.68-10.02,11.91-14.79,7.54-7.56,11.41-17.42,19.23-24.76,5.03-6.86,5.16-11.41,10.19-18.43,10.17-20.72,10.21-43.03,12.14-65.29l-.15,.89c1.15-11.09,2.67-19.35,6.21-29.26-.7,.05-1.4,.03-2.09-.07Z"/></g><g><path d="M59.96,694.72c.17,.06,.35,.13,.52,.2-.1-.05-.3-.12-.52-.2Z"/><path d="M22.54,583.88s.08-.07,.12-.1c-.15,.11-.22,.16-.12,.1Z"/><path d="M4.27,649.44s.02,.09,.03,.14c0-.05-.01-.09-.03-.14Z"/><path d="M3.72,601.99c.15-.22,.31-.44,.47-.66-.18,.23-.38,.5-.47,.66Z"/><path d="M328.81,557.44c5.42,.06,6.88-8.05,.75-8.14-2.41,.7-5.03,.21-7.32,1.36-8.79,6.73-18.22,8.88-28.25,12.59-7.66,4.03-14.31,5.2-21.16,10.35-5.65,1.93-15.98,3.74-22.15,6.9-5.38,1.52-3.72,.63-10.36,2.08-3.88,.37-7.8-.47-11.64-.33-7.23,.51-13.53,1.43-20-.19-14.8,.2-29.07-3.34-43.82-3.32l1.42,.13c-3.5-.31-6.57-.75-11.21-1.54-4.85,0-9.39,1.56-14.18,2.16-16.27,2.51-33.36,7.05-45.93,18.19,.38-.32,.76-.64,1.14-.96-8.69,5.36-14.71,13.64-21.01,21.36-2.04,1.48-2.32,2.01-2.94,3.43-4.12,4.81-8.57,7.69-9.12,14.78-.65,5.02-.95,8.73-.26,17.04,1.38,4.98,5.23,9.12,5.44,14.46,1.74,8.24,2.45,8.27-.81,16.95-.49,4.29-1.67,7.85-5.15,10.68-.86-.21-1.71-.46-2.53-.79,.08,.03,.16,.05,.24,.08-.6-.22-1.21-.45-1.79-.72-3.62-5.67-9.16-18.14-17.24-14.89-3.68-3.02-1.82-10.12-7.8-11.24-4.31-1.9-9.19-2.66-8.61,3.96-.07,.04-.14,.09-.21,.13-4.17-4.31-3.59-10.97-6.21-16.15-.67-2.82-.98-6.1-2.54-8.75,.55,1.43,.79,2.17-.61-1.46,.01,.03,.02,.06,.04,.09-.16-.35-.5-1.37-.72-1.45l-.11-.57c.19,.44,.35,.88,.55,1.31-1.25-3.25-2.33-6.5-1.68-10.05-.49-6.56-2.98-12.97-1.45-19.59l-.02,.24c.99-5.13-.37-4.28,1.58-7.73,.81-.99,2.47-2.92,3.5-4.22,3.93-2.95,8.48-6.9,11.72-10.06,14.44-10.32,29.01-22.91,42.98-32.79,12.85-9.4,23.45-19.64,37.15-28.55,10.81-6.97,16.15-15.38,29.99-19.79,3.3,0,6.42,.89,9.63,.2,5.4-.73,10.06,2.73,14.87,2.24h-.01c2.13,.03,4.34,0,6.4-.69,.11,.02,.21,.04,.32,.06,1.99-1.07,4.01-2.17,6.23-2.63,.03-.07,.07-.14,.1-.2,3.74-1.99,6.37-5.35,9.29-8.29-.38,.32-.76,.64-1.14,.96,8.6-8.44,16.17-17.86,24.94-26.16,3-4.25,4.54-9.02,9.04-12.03,4.65-3.08,9.61-5.77,13.94-9.25,2.8-2.14,4.44-5.2,8.08-6.18,6.18-1.88,10.81-3.41,15.64-4.59-.47,.08-.93,.16-1.4,.24,7.8-1.44,18.02-3.89,26.05-3.8,8.6-.13,8.06-11.98-.78-11.24-13.93,2.69-31.6-.84-42.81,9.24-3.02,1.33-2.6,1.42-5.74,2.34-11.18,4.25-15.37,12.51-24.31,18.44-3.81,4.93-8.21,6.75-12.85,11.09-5.6,4.77-10.96,9.89-15.37,15.79-1.61,2.89-4.4,6.07-5.94,9.24-1.1,3.66-2.72,5.38-6.53,6.35-.66,.2-1.29,.07-1.96,.16-1.39,.08-3.36-.02-4.59-.42-.55-.2-1.12-.38-1.68-.57l.14,.05c-.99-.29-2-.48-2.98-.81,.45,.16,.89,.32,1.34,.48-.73-.27-1.46-.53-2.19-.79,.45,.16,.89,.32,1.34,.48-4.11-1.47-3.37-1.04-5.41-1.73,.01,.01,.05,.03,.08,.05-8.53-3.17-17.09,2.4-25.04,4.99,.18-.06,.38-.12,.6-.2-.61,.22-1.36,.79-1.85,1.22,.48-.37,.5-.4-.66,.53,.1-.08,.34-.28,.66-.53-2.73,2.42-5.46,3.08-7.04,6.36h0c-.08,.15-.16,.28-.28,.41,.04-.06,.09-.11,.13-.17-.06,.08-.14,.16-.18,.25l.02-.05c-.08,.34-.32,.6-.53,.85,.03,.21-1.09,1.06-.58,.68-.08,.07-.18,.17-.28,.24,.01,0-.05,.05-.2,.17,.07-.05,.13-.11,.2-.17-.09,.09-1.09,.83-.64,.47-.31,.2-.52,.56-.84,.76,.05-.02,.21-.17,.12-.06-.19,.15-.46,.38-.64,.61,.02-.03,.03-.05,.04-.07-.16,.24-.4,.41-.62,.59,.08-.06,.08-.06-.01,.02v-.02c-.14,.13-.35,.43-.44,.44-.1,.18-.93,.97-.54,.5-.53,.64-.48,.58-1.32,1.27l.2-.14c-.2,.15-.39,.31-.61,.43-15.54,10.37-28.32,20.58-44.89,31.86-15,10.75-28.66,21.84-42.35,32.07,.05-.04,.11-.08,.17-.13-5.64,5.61-13.85,10.81-18.65,17.67,.07-.09,.14-.18,.19-.24-.24,.33-.48,.66-.7,1.01,0-.02,.02-.06,.04-.11-2.29,3.07-3.04,6.64-2.93,10.39-1.51,7.23-.64,14.4,.85,20.12,.48,5.75,.5,11.48,2.63,16.94-.03-.15-.05-.31-.05-.44,.07,.63,.44,2.05,.08,.58,1.66,7.4,5.16,13.12,6.38,20.78h0c3.35,9.94,7.13,17.54,18.75,12.05,.91,2.22,2.63,3.81,4.43,5.28l-.05-.03c1.76,3.12,5.44,4.47,8.82,3.36,5.9,5.52,4.41,9.96,12.66,14.55-.05-.04-.09-.07-.12-.09,4.9,5.44,13.59,.42,18.08-3.36,4.32-4.38,4.12-10.41,5.25-15.95,3.21-6.23,2.72-13.22,.71-19.63,.12-2.3-2.22-9.81-3.83-11.94-3.04-5.2-1.67-11.35-1.37-17.18v.1c-.07-.55,.55-2.1,.71-2.23,5.11-5.47,13.51-15.32,18.47-21.84,8.84-5.95,17.98-13.27,28.49-15.36,6.81-1.11,12.08-6.91,18.96-7.46,6.24-.74,4.32-1.02,12.75-1.88,6.35-.11,8,1.15,15.23,1.25,6.46-.6,12.57,1.1,18.87,2.11,10.43,2.31,20.82,.28,31.22,2.93,8.49,.56,12.4-1.77,21.01-1.3,22.94-2.54,41.79-14.48,61.6-24.8l-.83,.35c7.05-2.64,13.55-6.48,20.9-8.35,2.21-.34,4.02-1.7,6.2-2.09,1.88-.1,3.9,.54,5.72-.23,.04-.07,.09-.13,.14-.19-1.6,.03-3.12-.37-4.62-1.02Z"/></g><g><path d="M155.23,385.47s.04,.08,.05,.12c-.02-.04-.03-.09-.05-.12Z"/><path d="M155.37,385.79c-.03-.06-.06-.12-.09-.19,.03,.07,.06,.13,.09,.19Z"/><path d="M176.44,355.88c-.09,.06-.17,.12-.24,.18,.08-.06,.16-.11,.24-.18Z"/><path d="M155.48,386.01c-.04-.07-.07-.15-.11-.22,.05,.11,.09,.19,.11,.22Z"/><path d="M675.87,323.42c-11.06,5.22-20.78,18.25-30.44,24.84-16.68,6.07-30.64,13.46-46.65,16.77-15.03,5.58-36.23,4.63-53.21,4.86-24.53-.52-51.23,1.8-75.07-2.84-22.29-3.89-44.2-10.35-67.09-8.76-31.87-.44-62.38,14.27-88.64,31.24-16.49-2.94-31.27-12.92-44.3-22.67-10.9-7.21-17.79-14.94-24.24-25.92-8.04-9.97-13.21-17.53-16.49-30.72-6.04-19.2-11.44-38.68-13.8-58.73-2.01-23.3-.04-46.7,2.31-69.91,.2-10.09,5.82-29.99-8.96-31.34-3.13,.15-5.57,2.31-7.67,4.45-6.33,6.82-13.45,12.83-20.34,19.06-6.11,8.39-13.52,15.38-21.19,22.33-3.48,3.56-8.44,10.76-9.39,11.76-4.69,5.13-10.24,9.54-13.82,15.61-6.32,11.58,.54,16.62,10.89,9.32-16.78,14.4-40.14,94.16,5.45,72.17-6.89,11.29-14.27,23.17-13.38,36.9-4.32,33.62,10.83,21.99,24.1,2.67-3.47,8.14-4.65,16.94-7.12,25.24-.75,5.12-4.48,10.7-1.63,15.72-.03-.07-.06-.13-.08-.2,.08,.17,.43,.94,.33,.74,7.53,11.3,19.59-10.02,24.06-15.56,.74,1.41,2.87,3.62,3.95,5.16,1.13,2.84,1.32,3.86,5.41,7.33,3.35,3.73,7.01,6.95,11.94,8.44l-.43-.18c8.8,6.51,16.55,8.12,26.26,11.75,7.21,2.4,13.72,6.16,22.48,6.55,9.17,2.39,18.28,4.68,28.16,3.2,10.71-1.12,23.19-5.15,31.38-12-18.01,7.13-36.28,6.44-55.15-.94-4.31-1.49-2.38-.4-7.46-1.6-8.86-2.84-11.41-4.51-18.29-6.52-3.79-1.54-9.85-3.69-14.44-5.41-6.72-3.93-3.25-2.25-7.58-4.8l.09,.04c-4.87-1.34-7.7-5.36-11.32-8.47-1.54-2.57-.4-2.51-3.95-6.33-1.83-2.17-1.32-1.77-3.25-5.68-.69-5.06-6.53-8.55-10.89-5.09l.04-.03c-.18,.13-.34,.28-.5,.43,.02-.04,.06-.07,.1-.1-.02,.02-.04,.03-.06,.05,.04-.05,.09-.11,.18-.17-.43,.32-.85,.65-1.25,1l.31-.24c-5.09,4.31-4.25,8.14-8.52,11.82-.14-.51-.37-.98-.7-1.43-.26-12.05,14.39-33.1,9.29-41.35-7.56-5.69-14.27,11.58-18.67,16.01-1.81,2.53-6.66,8.4-9.82,11.85,.37-7.2,.05-15.15,1.45-21.75,3.27-10.71,9.53-19.11,15.12-28.61,2.55-2.56,5.9-12.08-2.64-10.54-3.66,1.42-20.78,11.92-25,6.16-1.31-11.4-.54-19.09,2.61-31.6,3.83-13.74,9.12-23.14,19.82-34.19,2.44-4.35,9.55-9.35,6.49-14.7-5.43-5-12.01,3.49-17.38,5.13,8.02-7.67,11.92-13.18,20.16-22.44,4.3-4.2,9.17-7.84,13.1-12.4,8.63-12.33,19.25-18.94,28.9-29.26,1.46,30.76-7.99,68.59-1.9,100.42,4.94,26.05,9.87,57.04,25.27,78.96,4.34,5.57,5.27,6.47,8.69,11.46,10.46,19.55,51.18,39.43,72.99,39.36-1.11,.8-2.21,1.61-3.3,2.44,22.65-9.02,46.48-14.3,69.92-20.62,16.44-3.48,33.4-2.51,50.11-.95,18.15,3.78,42.53,9.32,62.09,10.38,21.38,.21,42.76,.02,64.14,.08,33.83,.33,69.52-8.4,96.46-29.39,7.63-9.15,13.44-20.31,22.12-28.33-.09,0-.05,0-.19,.07Z"/></g><path d="M286.98,604.1c-11.17,9.2-18.55,12.54-30.76,21.99-10.41,11.11-23.12,19.92-31.89,32.91-3.38,4.66-10.22,10.09-14.76,14.61-5.78,6.55-9.51,11.61-14.43,18.45-1.77,2.26-4.48,5.75-7.75,10.17-5.23,4.69-11.06,8.85-13.36,15.79,.18-.44,.37-.87,.55-1.31-4.15,7.97-5.25,11.24-9.88,17.5-15.05,14.59-19.77,40-32.76,56.58-4.02,7.55-10.71,15.1-11.1,23.91,.56,5.01,7.85,6.49,10.26,2h0c2.9-6.38,5.41-11.27,9-17.92l-.02,.04c.89-1.8,2.23-3.26,3.44-4.84,.58-.75-.36,.46-.61,.78,4.04-5.18,7.19-10.93,9.77-16.96-.04,.1-.08,.19-.11,.25,4.49-9.54,8.54-20,15.15-28.78,4.25-4.88,11.58-14.87,14.04-21.35,2.27-4.6,1.1-3.04,3.11-6.36,3.1-5.43,8.1-9.16,12.12-13.97,4.69-6.64,7.87-10.42,12.85-17.28,5.89-9.33,20.3-20.19,23.62-25.62,6.26-9.62,17.61-17.81,25.86-26.66,7.35-9.37,16.41-14.85,24.49-23.3,5.97-8.05,13.78-14.63,21.09-21.54-5.97,3.62-12.19,6.89-17.91,10.91Z"/><path class="cls-1" d="M429.1,138.54c-.07,.1-.16,.19-.25,.28"/></g></g></svg>