<svg xmlns="http://www.w3.org/2000/svg" width="109.047" height="259.744" viewBox="0 0 109.047 259.744"><defs><style>.a,.b{fill:none;}.a{stroke:#000;stroke-width:10px;}.b{stroke:#ff0202;stroke-width:5px;}</style></defs><g transform="matrix(0.966, 0.259, -0.259, 0.966, -143.275, -4535.324)"><line class="a" x2="1" y2="257.078" transform="translate(1414.5 4326.5)"/><path class="a" d="M0,0,1,257.078" transform="translate(1403.5 4326.5)"/><line class="a" x2="1" y2="257.078" transform="translate(1392.5 4326.5)"/><line class="a" x2="1" y2="257.078" transform="translate(1381.5 4326.5)"/><g transform="translate(1374.95 4451.699)"><path class="b" d="M1375.509,4450.523c-4.087,9.535,15.509,11.275,17.807,16.7s-5.88,1.4-8.84,4.681-5.152,5.526-3,8.457c1.023,1.392.143,4.437,3,5.549,2.568,1,8.84,0,8.84,0l5.326-10.484v-8.2" transform="translate(-1374.95 -4450.523)"/><path class="b" d="M1398.083,4450.523c4.087,9.535-15.509,11.275-17.807,16.7s5.88,1.4,8.84,4.681,5.152,5.526,3,8.457c-1.023,1.392-.143,4.437-3,5.549-2.568,1-8.84,0-8.84,0l-5.326-10.484v-8.2" transform="translate(-1351.258 -4450.523)"/><line class="b" x2="10" transform="translate(18.55 17.915)"/></g></g></svg>