<svg xmlns="http://www.w3.org/2000/svg" width="120.979" height="80.907" viewBox="0 0 120.979 80.907"><defs><style>.a,.e{fill:none;}.a,.b,.c{stroke:#000;}.a,.b{stroke-width:10px;}.c{fill:#fff;}.d{stroke:none;}</style></defs><g transform="translate(4.826 2.031)"><line class="a" x1="14" y1="34.569" transform="translate(21)"/><line class="a" y1="77.569" x2="21"/><g transform="translate(-53.571 -7)"><line class="a" y1="54.285" x2="11.858" transform="translate(89 30.285)"/></g><g class="b" transform="translate(13.358 17.069)"><ellipse class="d" cx="43.5" cy="15" rx="43.5" ry="15"/><ellipse class="e" cx="43.5" cy="15" rx="38.5" ry="10"/></g><g transform="translate(-1445.142 -3843.215)"><line class="a" y1="27" x2="12" transform="translate(1523.5 3847.5)"/><line class="a" x1="21" y1="71" transform="translate(1535.5 3847.5)"/></g><g transform="translate(-1467.142 -3847.5)"><line class="a" y1="27" x2="12" transform="translate(1523.5 3847.5)"/><line class="a" x1="21" y1="77.569" transform="translate(1535.5 3847.5)"/></g><g transform="translate(-1490.642 -3847.5)"><line class="a" y1="34.569" x2="14" transform="translate(1521.5 3847.5)"/><line class="a" x1="21" y1="77.569" transform="translate(1535.5 3847.5)"/></g><g class="c" transform="translate(21.358 25.069)"><circle class="d" cx="4" cy="4" r="4"/><circle class="e" cx="4" cy="4" r="3.5"/></g></g></svg>