<svg xmlns="http://www.w3.org/2000/svg" width="120.979" height="80.907" viewBox="0 0 120.979 80.907"><defs><style>.a,.c,.e{fill:none;}.a,.b{stroke:#000;stroke-width:10px;}.c{stroke:#fff;stroke-width:2px;}.d{stroke:none;}</style></defs><g transform="translate(-1217.816 -3977.624)"><g transform="translate(1222.642 3978.931)"><line class="a" x1="14" y2="34.569" transform="translate(21 43)"/><line class="a" x2="21" y2="77.569"/><g transform="translate(35.429)"><line class="a" x2="11.858" y2="54.285"/></g><g class="b" transform="translate(13.358 30.5)"><ellipse class="d" cx="43.5" cy="15" rx="43.5" ry="15"/><ellipse class="e" cx="43.5" cy="15" rx="38.5" ry="10"/></g><g transform="translate(78.358 2.285)"><line class="a" x2="12" y2="27" transform="translate(0 44)"/><line class="a" x1="21" y2="71" transform="translate(12)"/></g><g transform="translate(56.358)"><line class="a" x2="12" y2="27" transform="translate(0 50.569)"/><line class="a" x1="21" y2="77.569" transform="translate(12)"/></g><g transform="translate(30.858)"><line class="a" x2="14" y2="34.569" transform="translate(0 43)"/><line class="a" x1="21" y2="77.569" transform="translate(14)"/></g></g><g transform="translate(1246.542 4023.789)"><line class="c" x1="0.072" y1="8.356" transform="translate(0.284 0) rotate(-45)"/><line class="c" y1="8.356" x2="0.072" transform="translate(6.193 -0.051) rotate(45)"/></g></g></svg>