<?xml version="1.0" encoding="UTF-8" standalone="no"?>
<!DOCTYPE svg PUBLIC "-//W3C//DTD SVG 1.1//EN" "http://www.w3.org/Graphics/SVG/1.1/DTD/svg11.dtd">
<svg xmlns="http://www.w3.org/2000/svg" xmlns:xlink="http://www.w3.org/1999/xlink" version="1.1" width="612pt" height="792pt" viewBox="0 0 612 792">
<g enable-background="new">
<clipPath id="cp274">
<path transform="matrix(1,0,0,-1,0,792)" d="M 0 0 L 612 0 L 612 792 L 0 792 Z "/>
</clipPath>
<g clip-path="url(#cp274)">
<path transform="matrix(1,0,0,-1,0,792)" d="M 0 792 L 612 792 L 612 0 L 0 0 Z " fill="#ffffff"/>
</g>
<clipPath id="cp275">
<path transform="matrix(1,0,0,-1,0,792)" d="M 68.67773 72 L 543.3222 72 L 543.3222 723.3223 L 68.67773 723.3223 Z "/>
</clipPath>
<g clip-path="url(#cp275)">
<path transform="matrix(1,0,0,-1,0,792)" d="M 72 189.1758 L 495.6211 189.1758 L 495.6211 159.6855 L 72 159.6855 Z " fill="#ffffff"/>
<path transform="matrix(1,0,0,-1,0,792)" d="M 108 159.6855 L 514.9336 159.6855 L 514.9336 130.1953 L 108 130.1953 Z " fill="#ffffff"/>
<path transform="matrix(1,0,0,-1,0,792)" d="M 108 130.1953 L 292.9805 130.1953 L 292.9805 100.7051 L 108 100.7051 Z " fill="#ffffff"/>
<g id="Layer-1" data-name="P">
<text fill="#0e101a" xml:space="preserve" transform="matrix(1 0 -0 1 72 83.89447)" font-size="12" font-family="TimesNewRomanPSMT"><tspan y="0" x="0 8.666401 12.000001 16.6704 22.6704 25.6704 28.6704 32.004 38.004 44.004 48.6744 54 57 65.666408 70.992008 74.3256 77.659198 81.6552 86.3256 92.3256 95.659198 98.99279 104.31839 110.31839 113.31839 116.651988 122.651988 125.651988 130.32239 135.648 138.9816 142.9776 146.9736 151.644 154.9776 160.9776 166.9776 172.9776 175.9776 185.3112 190.63681 193.97042 199.97042 205.97042 211.97042 216.64081 219.64081 225.64081 230.96642 236.96642 242.29203 245.29203 251.29203 257.29203 260.6256 263.6256 267.6216 273.6216 279.6216 285.6216 291.6216 294.6216 299.9472 305.9472 311.9472 314.9472 320.2728 326.2728 331.5984 337.5984 343.5984 348.92399 351.92399 355.25758 361.25758 364.25758 368.92799 372.26158 376.25758 381.58317 386.25358 390.92399 393.92399 397.25758 402.58317 408.58317 413.90876 417.24235 421.91276 424.91276 430.91276 436.91276 442.23835 445.23835 448.57194 454.57194">Also, those well-suited to self-study methods have not found any change in stress levels due to </tspan></text>
<text fill="#0e101a" xml:space="preserve" transform="matrix(1 0 -0 1 72 113.38483)" font-size="12" font-family="TimesNewRomanPSMT"><tspan y="0" x="0 3.3336006 9.333601 14.659202 17.659203 20.992804 26.992804 32.318407 38.318407 44.318407 50.318407 58.984807 64.9848 67.9848 70.9848 79.65121 85.65121 89.64721 95.64721 99.64321 102.97681 108.97681 114.97681 120.30241 123.636 128.96161 132.29521 137.51642 140.51642 143.51642 148.84203 151.84203 155.17563 160.50124 164.28005 170.28005 175.60565 178.60565 184.60565 188.60166 194.60166 200.60166 206.60166 210.59766 213.93126 217.26486 223.26486 229.26486 232.26486 238.26486 242.26087 245.26087 249.25687 255.25687 261.25688 264.59046 269.91606 275.91606 278.91606 283.58647 286.92005 292.92005 298.92005 304.24565 310.24565 313.57923 318.24964 321.24964 327.24964 333.24964 336.24964 342.24964 348.24964 351.58323 354.58323 360.58323 365.9088 371.9088 377.2344 380.2344 385.56 390.8856 396.21119 401.53678 406.20719 410.8776 413.8776 417.21119 423.21119 426.21119 432.21119 438.21119 441.54478 444.87837 450.87837 456.20396">the lockdown. Unfortunately, a large proportion of Indian students do not have access to online </tspan></text>
<text fill="#0e101a" xml:space="preserve" transform="matrix(1 0 -0 1 72 142.875)" font-size="12" font-family="TimesNewRomanPSMT"><tspan y="0" x="0 9.3336 14.6592 19.9848 25.9848 30.655201 33.6552 39.6552 43.6512 46.6512 49.9848 55.3104 60.635999 64.631999 70.631999 73.96559 79.96559 85.96559 88.96559 91.74839 102.593997 105.92759 109.261188 115.261188 118.261188 122.93159 128.25719 134.25719 140.25719 146.25719 149.59079 154.26119 157.26119 162.58679 165.9204 171.9204 176.59079 181.9164 187.9164 190.9164 194.9124 200.9124 204.9084 207.9084 213.23401 219.23401 222.23401 227.55962 230.89322 236.89322 242.89322 248.89322 254.21883 257.55244 262.87803 268.87803 271.87803 277.87803 283.2036 287.19963 290.5332 296.5332 302.5332 305.5332 311.5332 315.5292 318.5292 321.8628 325.19639 334.52998 339.85557 342.85557 345.85557 351.18116 357.18116 362.50675 368.50675 371.50675 376.83235 380.82835 384.16194 389.48753 393.48353 396.48353 399.8171 405.8171 411.1427 414.1427 418.1387 423.4643 426.79789 432.12348 438.12348 443.44908 446.78266 450.11625 456.11625 462.11625">means of learning. With schools closed for an elongated period of time, even after the relaxation </tspan></text>
<text fill="#0e101a" xml:space="preserve" transform="matrix(1 0 -0 1 72 172.36518)" font-size="12" font-family="TimesNewRomanPSMT"><tspan y="0" x="0 6 9.996 12.996 16.329602 22.329602 27.655203 30.655203 33.988805 39.988805 45.314405 51.314405 57.314405 63.314405 71.980808 77.980808 80.980808 83.980808 87.3144 93.3144 98.64 101.64 107.64 113.64 118.9656 124.2912 128.2872 131.6208 136.94641 140.28002 146.28002 149.61362 155.61362 158.61362 162.60962 167.93523 173.93523 179.26084 183.25684 189.25684 192.59044 198.59044 204.59044 207.59044 212.26084 217.58644 223.58644 229.58644 235.58644 238.92005 241.92005 247.24565 253.24565 258.57124 267.90483 271.2384 277.2384 282.564 285.89759 289.23118 295.23118 301.23118 305.90159 308.90159 314.22718 320.22718 326.22718 329.22718 335.22718 341.22718 344.56077 350.56077 355.88636 359.88236 364.55278 367.88636 371.21995 377.21995 380.21995 385.54554 391.54554 394.87913 398.87513 404.2007 410.2007 415.5263 420.8519">of the lockdown, the uncertainty regarding school examinations and university entrance </tspan></text>
<text fill="#0e101a" xml:space="preserve" transform="matrix(1 0 -0 1 72 201.85553)" font-size="12" font-family="TimesNewRomanPSMT"><tspan y="0" x="0 5.3256008 11.325601 16.651202 25.984803 29.318404 35.318407 40.644006 43.977605 47.311208 53.311208 59.311208 63.981607 66.981609 69.981609 75.981609 81.307209 85.97761 88.97761 92.3112 97.6368 101.632808 104.9664 107.9664 111.299999 117.299999 122.625598 125.625598 130.29599 133.6296 139.6296 145.6296 150.9552 156.9552 160.2888 163.2888 169.2888 175.2888 181.2888 187.2888 190.2888 196.2888 202.2888 207.61441 212.94002 217.61042 223.61042 226.61042 235.27681 238.61042 241.94402 247.94402 250.94402 256.2696 262.2696 268.2696 273.59519 279.59519 282.59519 287.92079 293.24638 298.57197 304.57197 309.89756 319.23115 322.56474 327.89033 330.89033 336.89033 340.88633 346.2119 350.88233 355.55274 361.55274 365.54875 370.87434">examinations, has left the student body uneasy with added academic pressure.</tspan></text>
<g id="Layer-2" data-name="Span">
<text fill="#0e101a" xml:space="preserve" transform="matrix(1 0 -0 1 72 201.85553)" font-size="12" font-family="TimesNewRomanPSMT"><tspan y="0" x="373.8867"> </tspan></text>
</g>
</g>
<g id="Layer-1" data-name="P">
<text xml:space="preserve" transform="matrix(1 0 -0 1 278.127 260.83589)" font-size="12" font-family="TimesNewRomanPS" font-weight="bold"><tspan y="0" x="0 8.666401 13.992002 17.988 23.313603 28.423203 33.748804 40.423204 45.748804 51.0744">References</tspan></text>
<g id="Layer-2" data-name="Span">
<text xml:space="preserve" transform="matrix(1 0 -0 1 278.127 260.83589)" font-size="12" font-family="TimesNewRomanPS" font-weight="bold"><tspan y="0" x="55.74609"> </tspan></text>
</g>
</g>
<g id="Layer-1" data-name="P">
<g id="Layer-2" data-name="P">
<text xml:space="preserve" transform="matrix(1 0 -0 1 72 290.3262)" font-size="12" font-family="TimesNewRomanPSMT"><tspan y="0" x="0 8.666401 12.662401 18.662402 24.662402 27.662402 30.662402 36.006006 39.006006 42.006006 45.006006 54.339605 57.339605 65.343608 71.343608 76.669208 82.669208 87.994808 93.994808 96.994808 99.994808 107.9988 110.9988 113.9988 120.67321 123.67321 126.67321 130.6692 136.6692 142.6692 148.6692 154.6692 158.6652 161.6652 164.6652 171.3396 174.6732 178.6692 183.99481 188.6652 193.3356 196.3356 201.66121 207.66121 213.66121 216.66121 221.3316 227.3316 230.6652 235.99082 239.32442 245.32442 250.65003 253.98363 256.98365 260.31724 266.31724 271.64283 276.9684 281.63883 284.63883 287.9724 293.9724 296.9724 302.298 308.298 314.298 317.6316 322.95719 327.6276 332.9532 338.27879 344.27879 347.61238 350.61238 355.28279 358.61637 364.61637 370.61637 375.94197 381.94197 385.27555 389.94596 392.94596 396.27955 402.27955">Arun, P., &#x0026; Chavan, B. S. (2009). Stress and suicidal ideas in adolescent students in </tspan></text>
</g>
<g id="Layer-2" data-name="P">
<text xml:space="preserve" transform="matrix(1 0 -0 1 108 319.8164)" font-size="12" font-family="TimesNewRomanPSMT"><tspan y="0" x="0 8.004001 14.004001 19.329602 25.329602 31.329602 34.663206 40.663206 45.988805 49.984804 55.984804 58.984804">Chandigarh. </tspan></text>
</g>
<g id="Layer-2" data-name="P">
<text xml:space="preserve" transform="matrix(1 0 -0 1 108 319.8164)" font-size="12" font-family="TimesNewRomanPS" font-style="italic"><tspan y="0" x="61.98633 65.98233 71.98233 77.98233 81.315929 87.315929 93.315929 96.315929 101.641529 107.641529 113.641529 118.31193 124.31193 130.31192 133.64553 136.64553 142.64553 145.97913 148.97913 158.97513 164.30074 170.30074 173.63434 178.95995 184.95995 188.29355 191.29355 197.29355 202.61916 205.95276 211.27837 217.27837 222.60398 227.92958 232.59998 235.59998 238.59998 244.59998">Indian Journal of Medical Sciences, 63</tspan></text>
</g>
<g id="Layer-2" data-name="P">
<text xml:space="preserve" transform="matrix(1 0 -0 1 108 319.8164)" font-size="12" font-family="TimesNewRomanPSMT"><tspan y="0" x="250.6055 254.6015 260.6015 264.5975 267.5975 270.5975 276.5975 282.5975 288.5975 294.5975 300.5975 306.5975 312.5975">(7), 281&#x2013;287.</tspan></text>
</g>
<g id="Layer-2" data-name="P">
<text fill="#0e101a" xml:space="preserve" transform="matrix(1 0 -0 1 108 319.8164)" font-size="12" font-family="TimesNewRomanPSMT"><tspan y="0" x="315.5977"> </tspan></text>
</g>
<g id="Layer-2" data-name="P">
<text fill="#4a6ee0" xml:space="preserve" transform="matrix(1 0 -0 1 108 319.8164)" font-size="12" font-family="TimesNewRomanPSMT"><tspan y="0" x="318.5977 324.5977 327.93128 331.26487 337.26487 341.93528 345.26887 348.60246 351.93605 357.93605 363.93605 367.26963 370.26963 376.26963 380.04844 386.04844">https://doi.org/</tspan></text>
</g>
<g id="Layer-2" data-name="P">
<text fill="#4a6ee0" xml:space="preserve" transform="matrix(1 0 -0 1 108 349.3066)" font-size="12" font-family="TimesNewRomanPSMT"><tspan y="0" x="0 6 12 15 21 27 33 39 42.3336 48.3336 54.3336 60.3336 66.3336 70.329608 76.329608 82.329608 88.329608 94.329608 97.329608 103.329608 109.329608 114.88441 120.88441">10.4103/0019-5359.55112</tspan></text>
</g>
<g id="Layer-2" data-name="P">
<g id="Layer-3" data-name="Span">
<text fill="#0e101a" xml:space="preserve" transform="matrix(1 0 -0 1 108 349.3066)" font-size="12" font-family="TimesNewRomanPSMT"><tspan y="0" x="126.8848"> </tspan></text>
</g>
</g>
</g>
<g id="Layer-1" data-name="P">
<g id="Layer-2" data-name="P">
<text xml:space="preserve" transform="matrix(1 0 -0 1 72 378.7969)" font-size="12" font-family="TimesNewRomanPSMT"><tspan y="0" x="0 8.666401 15.340802 22.015202 30.681603 38.685606 47.352006 56.018407 66.68881 69.68881 72.68881 76.684818 82.684818 88.684818 94.684818 100.684818 103.684818 106.684818 111.35522 116.68082 122.68082 128.68082 134.00643 138.00243 144.00243 147.00243 153.00243 159.00243 162.99843 165.99843">ASSOCHAM. (2014, January 22). </tspan></text>
</g>
<g id="Layer-2" data-name="P">
<text xml:space="preserve" transform="matrix(1 0 -0 1 72 378.7969)" font-size="12" font-family="TimesNewRomanPS" font-style="italic"><tspan y="0" x="168.9961 174.9961 178.3297 182.5549 187.88051 192.5509 197.2213 200.2213 203.5549 209.5549 212.5549 218.5549 224.5549 230.5549 233.8885 239.21411 243.8845 249.21012 254.53572 260.5357 263.8693 268.5397 271.5397 277.5397 283.5397 286.5397 289.8733 295.8733 301.19889 304.19889 308.8693 312.20289 316.8733 322.19889 325.19889 328.19889 334.19889 340.19889 343.53248 346.53248 351.85807 357.85807 363.85807 369.85807 374.52848 379.85408 383.18766 386.52125 392.52125 397.19166 401.86207 404.86207 408.85807 417.52449 420.85807 425.52848 430.19889 433.53248 439.53248 445.53248 448.19889 451.19889 454.53248 460.53248">Stress in adolescents on the rise, but counsellors &#x2018;missing&#x2019; in </tspan></text>
</g>
<g id="Layer-2" data-name="P">
<text xml:space="preserve" transform="matrix(1 0 -0 1 108 408.2871)" font-size="12" font-family="TimesNewRomanPS" font-style="italic"><tspan y="0" x="0 4.6704 9.996 15.996 21.996 27.996 31.329602 36">schools!</tspan></text>
</g>
<g id="Layer-2" data-name="P">
<text fill="#4a6ee0" xml:space="preserve" transform="matrix(1 0 -0 1 108 408.2871)" font-size="12" font-family="TimesNewRomanPSMT"><tspan y="0" x="39.99609 42.99609 48.99609 52.329694 55.663297 61.663297 66.3337 69.6673 73.00089 76.33449 85.00089 93.6673 101.553699 104.553699 109.879299 114.5497 119.2201 125.2201 130.5457 136.5457 141.8713 151.20491 154.20491 160.20491 163.98372 169.98372 173.31732 179.31732 184.64293 193.30933 197.97972 203.97972 209.30533 212.63893 217.96454 221.29814 224.63175 228.62775 234.62775 238.62375 241.95735 247.95735 251.29096 254.29096 260.29096 266.29096 272.29096 277.61656 280.95014 286.95014 293.71815 299.71815 305.71815 311.71815"> https://www.assocham.org/newsdetail-print.php?id=4362</tspan></text>
</g>
<g id="Layer-2" data-name="P">
<g id="Layer-3" data-name="Span">
<text fill="#0e101a" xml:space="preserve" transform="matrix(1 0 -0 1 108 408.2871)" font-size="12" font-family="TimesNewRomanPSMT"><tspan y="0" x="317.7246"> </tspan></text>
</g>
</g>
</g>
<g id="Layer-1" data-name="P">
<g id="Layer-2" data-name="P">
<text xml:space="preserve" transform="matrix(1 0 -0 1 72 437.7773)" font-size="12" font-family="TimesNewRomanPSMT"><tspan y="0" x="0 8.004001 13.3296 19.329602 24.655203 28.651204 31.984805 35.318407 40.644006 43.644006 46.644006 57.314405 60.314405 63.314405 67.3104 73.3104 79.3104 85.3104 91.3104 94.3104 97.3104 101.980808 107.980808 113.980808 119.306407 122.306407 128.3064 134.3064 138.3024 141.3024">Banerjie, M. (2020, June 20). </tspan></text>
</g>
<g id="Layer-2" data-name="P">
<text xml:space="preserve" transform="matrix(1 0 -0 1 72 437.7773)" font-size="12" font-family="TimesNewRomanPS" font-style="italic"><tspan y="0" x="144.3047 152.3087 158.3087 161.3087 167.3087 175.9751 181.9751 186.6455 189.9791 195.9791 201.9791 207.9791 213.9791 219.3047 222.3047 229.63431 235.63431 240.3047 243.3047 251.9711 257.9711 261.3047 264.63829 270.63829 275.96388 278.96388 286.96788 290.30146 296.30146 300.97187 305.64228 310.96788 315.63829 318.63829 328.63429 334.63429 339.95988 342.95988 351.62629 357.62629 362.95188 368.27748 371.27748 378.60707 384.60707 389.27748 395.27748 400.60307 406.60307 409.60307 416.93266 422.25825 428.25825 434.25825 440.25825 443.59184">No Smartphone For Online Classes May Have Pushed Bengal </tspan></text>
</g>
<g id="Layer-2" data-name="P">
<text xml:space="preserve" transform="matrix(1 0 -0 1 108 467.2676)" font-size="12" font-family="TimesNewRomanPS" font-style="italic"><tspan y="0" x="0 6 9.3336 15.3336 21.3336 26.6592 32.659204 35.9928 38.9928 44.5656 50.5656 53.5656 62.232004 67.5576 73.5576 76.8912">Student To Death</tspan></text>
</g>
<g id="Layer-2" data-name="P">
<text xml:space="preserve" transform="matrix(1 0 -0 1 108 467.2676)" font-size="12" font-family="TimesNewRomanPSMT"><tspan y="0" x="82.89258 85.89258 88.89258 97.55898 106.22539 113.554988 120.67458">. NDTV.</tspan></text>
</g>
<g id="Layer-2" data-name="P">
<text xml:space="preserve" transform="matrix(1 0 -0 1 108 467.2676)" font-size="12" font-family="TimesNewRomanPSMT"><tspan y="0" x="123.6738"> </tspan></text>
</g>
<g id="Layer-2" data-name="P">
<text fill="#4a6ee0" xml:space="preserve" transform="matrix(1 0 -0 1 108 467.2676)" font-size="12" font-family="TimesNewRomanPSMT"><tspan y="0" x="126.6738 132.6738 136.0074 139.341 145.341 150.0114 153.345 156.6786 160.0122 168.6786 177.345 185.2314 188.2314 194.2314 200.2314 203.565 208.78621 211.78621 217.11182 223.11182 232.44542 235.77902 239.11263 245.11263 251.11263 254.44623 259.77183 263.76783 269.76783 275.0934 283.75984 288.43025 291.76383 300.43025 305.75584 310.42625 313.75984 317.75584 323.75584 329.08143 335.08143 341.08143 346.407 349.7406 353.7366 359.7366 365.0622 368.39579 371.72938 377.72938 381.72538 387.72538 393.72538">https://www.ndtv.com/india-news/west-bengal-bally-no-</tspan></text>
</g>
<g id="Layer-2" data-name="P">
<text fill="#4a6ee0" xml:space="preserve" transform="matrix(1 0 -0 1 108 496.7578)" font-size="12" font-family="TimesNewRomanPSMT"><tspan y="0" x="0 4.6704 14.004001 19.329602 23.325602 26.659203 32.659204 38.659204 44.659204 50.659204 55.984804 59.9808 63.9768 69.9768 73.7328 77.728809 83.728809 89.728809 93.0624 96.395999 102.395999 107.721599 111.7176 117.0432 120.37679 125.70239 130.37279 135.04319 140.36879 145.03919 149.03519 158.36879 163.6944 169.6944 173.6904 179.6904 185.016 191.016 196.34162 200.33762 206.33762 212.33762 217.00801 223.00801 228.33362 234.33362 238.32962 244.32962 249.65523 255.65523 261.6552 266.9808 270.3144 274.3104 278.9808 282.3144 288.3144 294.3144 299.63999 305.63999 308.97358 312.96958 316.30317 322.30317 326.29917 332.29917 337.62477 342.95036 346.28395 352.28395 356.27995 362.27995 368.27995 374.27995 380.27995 386.27995 392.27995">smartphone-for-online-classes-may-have-pushed-bengal-student-to-death-2249500</tspan></text>
</g>
<g id="Layer-2" data-name="P">
<g id="Layer-3" data-name="Span">
<text fill="#0e101a" xml:space="preserve" transform="matrix(1 0 -0 1 108 496.7578)" font-size="12" font-family="TimesNewRomanPSMT"><tspan y="0" x="398.291"> </tspan></text>
</g>
</g>
</g>
<g id="Layer-1" data-name="P">
<g id="Layer-2" data-name="P">
<text xml:space="preserve" transform="matrix(1 0 -0 1 72 526.248)" font-size="12" font-family="TimesNewRomanPSMT"><tspan y="0" x="0 8.004001 14.004001 19.329602 23.108403 29.108403 34.434003 40.434003 45.7596 48.7596 51.7596 60.426004 63.426004 66.426 69.426 78.7596 81.5424 88.4508 91.78439 100.4508 105.7764 109.7724 113.105998 116.105998 119.105998 125.7804 128.7804 131.7804 135.7764 141.7764 147.7764 153.7764 159.7764 163.7724 166.7724 169.7724 177.7764 183.7764 187.11 192.43561 195.43561 201.43561 205.43161 208.43161 213.102 219.102 224.42761 227.76122 233.08683 236.42043 239.42043 244.09082 250.09082 256.09083 262.09083 268.09083 272.08683 275.4204 278.4204 283.09083 289.09083 293.76124 297.09483 302.4204 311.754 314.754 318.0876 324.0876 327.0876 331.0836 336.40919 342.40919 348.40919 353.73478 357.06837 363.06837 369.06837 372.06837 377.39396 382.71955 388.04515 394.04515 399.37074 408.7043 412.0379 417.3635">Bhargava, N., &#x0026; Tiwari, S. (2019). Role of social support system in reducing academic </tspan></text>
</g>
<g id="Layer-2" data-name="P">
<text xml:space="preserve" transform="matrix(1 0 -0 1 108 555.7383)" font-size="12" font-family="TimesNewRomanPSMT"><tspan y="0" x="0 4.6704 8.004001 12.000001 17.325602 21.996003 26.6664 29.6664">stress. </tspan></text>
</g>
<g id="Layer-2" data-name="P">
<text xml:space="preserve" transform="matrix(1 0 -0 1 108 555.7383)" font-size="12" font-family="TimesNewRomanPS" font-style="italic"><tspan y="0" x="32.66602 38.66602 44.66602 49.33642 55.33642 58.670019 61.670019 68.99961 74.99961 80.99961 84.333209 87.333209 92.658809 98.658809 104.658809 109.32921 115.32921 121.32921 124.6628 127.6628 134.9924 140.9924 145.6628 148.6628 158.6588 164.6588 167.9924 171.326 174.6596 180.6596 183.99321 188.6636 193.98921 197.32282 203.32282 206.65642 209.99002 215.99002 221.99002 226.66042 231.98603 234.98603 242.31563 247.64124 252.31163 257.6372 263.6372 267.8624 273.188 279.188 282.188 285.188">Suraj Punj Journal For Multidisciplinary Research, 9</tspan></text>
</g>
<g id="Layer-2" data-name="P">
<text xml:space="preserve" transform="matrix(1 0 -0 1 108 555.7383)" font-size="12" font-family="TimesNewRomanPSMT"><tspan y="0" x="291.1934 295.1894 301.1894 305.1854 308.1854 311.1854 317.1854 323.1854 327.1814 333.1814 339.1814 342.1814">(4), 79-85. </tspan></text>
</g>
<g id="Layer-2" data-name="P">
<text fill="#4a6ee0" xml:space="preserve" transform="matrix(1 0 -0 1 108 585.2285)" font-size="12" font-family="TimesNewRomanPSMT"><tspan y="0" x="0 6 12 15 21 27 33 39 45 48 54.6744 61.3488 66.0192 76.689609 84.6936 87.6936 93.6936 99.6936 105.6936 111.6936 114.6936 123.36001 129.36002 133.35602 139.35602 142.35602 148.35602 154.35602 157.35602 163.35602 169.35602 175.35602">16.10089.SPJMR.2018.V9I4.16.3235</tspan></text>
</g>
<g id="Layer-2" data-name="P">
<g id="Layer-3" data-name="Span">
<text xml:space="preserve" transform="matrix(1 0 -0 1 108 585.2285)" font-size="12" font-family="TimesNewRomanPSMT"><tspan y="0" x="181.3535"> </tspan></text>
</g>
</g>
</g>
<g id="Layer-1" data-name="P">
<g id="Layer-2" data-name="P">
<text xml:space="preserve" transform="matrix(1 0 -0 1 72 614.7188)" font-size="12" font-family="TimesNewRomanPSMT"><tspan y="0" x="0 8.004001 14.004001 19.329602 24 27.333601 33.333604 36.333604 39.333604 46.008005 49.008005 52.008005 60.674406 63.674406 66.67441 69.67441 76.34881 82.34881 87.67441 91.67041 101.004009 106.329608 109.329608 112.329608 120.3336 123.3336 126.3336 129.3336 138.6672 141.6672 148.3416 153.6672 157.00081 163.00081 166.33441 169.33441 172.33441 181.00081 184.00081 187.00081 195.6672 198.6672 201.6672 205.66321 211.66321 217.66321 223.66321 229.66321 233.65921 236.65921 239.65921 248.3256 253.65122 259.6512 263.64723 268.9728 273.64323 278.31364 281.64723 287.64723 293.64723 296.64723 299.64723 304.9728 310.9728 316.9728 320.3064 325.632 328.96559 334.96559 337.96559 343.29118 349.29118 355.29118 358.29118 362.96159 366.29518 370.29118 375.61677 380.28718 384.95759 387.95759 393.28318 402.61677 408.61677 414.61677 420.61677">Bhasin, S. K., Sharma, R., &#x0026; Saini, N. K. (2010). Depression, anxiety and stress among </tspan></text>
</g>
<g id="Layer-2" data-name="P">
<text xml:space="preserve" transform="matrix(1 0 -0 1 108 644.209)" font-size="12" font-family="TimesNewRomanPSMT"><tspan y="0" x="0 5.3256008 11.325601 17.3256 20.6592 25.984803 30.655201 35.9808 41.3064 47.3064 50.640005 53.640005 58.310403 61.644 67.644 73.644 78.9696 84.9696 88.30319 92.973598 95.973598 101.973598 107.299198 110.63279 116.63279 122.63279 128.63278 131.96639 137.96639 143.96639 146.96639 150.29999 156.29999 159.29999 164.6256 168.4044 172.4004 175.73401 181.73401 187.05962 193.05962 196.39322 199.39322 203.38922 208.71483 218.04843 221.38204 224.71564 228.04924 233.37485 238.04524 241.37885 243.71645 251.72045 254.72045 259.39088 264.71647 270.71647 276.71647 282.71647 286.05006 290.04606 296.04606 301.37165 306.04206 311.36766 317.36766 320.36766 325.03807 328.37165 334.37165 340.37165 345.59284 348.59284">adolescent students belonging to affluent families: A school-based study. </tspan></text>
</g>
<g id="Layer-2" data-name="P">
<text xml:space="preserve" transform="matrix(1 0 -0 1 108 644.209)" font-size="12" font-family="TimesNewRomanPS" font-style="italic"><tspan y="0" x="351.6035 358.2779 364.2779 369.6035 372.6035 376.5995 382.5995 388.5995 391.93309 397.93309 403.93309">The Indian </tspan></text>
</g>
<g id="Layer-2" data-name="P">
<text xml:space="preserve" transform="matrix(1 0 -0 1 108 673.6992)" font-size="12" font-family="TimesNewRomanPS" font-style="italic"><tspan y="0" x="0 5.3256008 11.325601 17.3256 21.995999 27.995999 33.996 37.3296 40.3296 46.3296 49.663206 52.663206 59.992807 65.318408 71.318408 74.652 80.652 83.985599 88.656 91.98959 97.31519 101.985599 104.985599 110.985599">Journal of Pediatrics 77</tspan></text>
</g>
<g id="Layer-2" data-name="P">
<text xml:space="preserve" transform="matrix(1 0 -0 1 108 673.6992)" font-size="12" font-family="TimesNewRomanPSMT"><tspan y="0" x="116.9883 120.9843 126.9843 130.9803 133.9803 136.9803 142.9803 148.9803 154.9803 160.9803 166.9803 172.9803 178.9803">(2), 161&#x2013;165.</tspan></text>
</g>
<g id="Layer-2" data-name="P">
<text fill="#222222" xml:space="preserve" transform="matrix(1 0 -0 1 108 673.6992)" font-size="12" font-family="TimesNewRomanPSMT"><tspan y="0" x="181.9805"> </tspan></text>
</g>
<g id="Layer-2" data-name="P">
<text fill="#4a6ee0" xml:space="preserve" transform="matrix(1 0 -0 1 108 673.6992)" font-size="12" font-family="TimesNewRomanPSMT"><tspan y="0" x="184.9805 190.9805 194.3141 197.6477 203.6477 208.3181 211.6517 214.9853 218.31891 224.31891 230.31891 233.65251 236.65251 242.65251 246.43132 252.43132 255.76493 261.76493 267.76493 270.76493 276.76493 282.76493 288.76493 294.76493 298.0985 302.76893 308.76893 314.76893 320.76893 326.76893 332.76893 336.76493 342.76493 348.76493 354.76493 358.76094 364.76094 370.76094 376.76094 382.76094 386.75694">https://doi.org/10.1007/s12098-009-0260-5</tspan></text>
</g>
<g id="Layer-2" data-name="P">
<g id="Layer-3" data-name="Span">
<text fill="#222222" xml:space="preserve" transform="matrix(1 0 -0 1 108 673.6992)" font-size="12" font-family="TimesNewRomanPSMT"><tspan y="0" x="392.7598"> </tspan></text>
</g>
</g>
</g>
<path transform="matrix(1,0,0,1,72,72)" stroke-width=".5859375" stroke-linecap="butt" stroke-miterlimit="10" stroke-linejoin="miter" fill="none" stroke="#4a6ee0" d="M 354.5977 249.123 L 425.3848 249.123 "/>
<path transform="matrix(1,0,0,1,72,72)" stroke-width=".5859375" stroke-linecap="butt" stroke-miterlimit="10" stroke-linejoin="miter" fill="none" stroke="#4a6ee0" d="M 36 278.6133 L 162.8848 278.6133 "/>
<path transform="matrix(1,0,0,1,72,72)" stroke-width=".5859375" stroke-linecap="butt" stroke-miterlimit="10" stroke-linejoin="miter" fill="none" stroke="#4a6ee0" d="M 75.99609 337.5938 L 353.7246 337.5938 "/>
<path transform="matrix(1,0,0,1,72,72)" stroke-width=".5859375" stroke-linecap="butt" stroke-miterlimit="10" stroke-linejoin="miter" fill="none" stroke="#4a6ee0" d="M 162.6738 396.5742 L 433.7285 396.5742 "/>
<path transform="matrix(1,0,0,1,72,72)" stroke-width=".5859375" stroke-linecap="butt" stroke-miterlimit="10" stroke-linejoin="miter" fill="none" stroke="#4a6ee0" d="M 36 426.0645 L 434.291 426.0645 "/>
<path transform="matrix(1,0,0,1,72,72)" stroke-width=".5859375" stroke-linecap="butt" stroke-miterlimit="10" stroke-linejoin="miter" fill="none" stroke="#4a6ee0" d="M 36 514.5352 L 217.3535 514.5352 "/>
<path transform="matrix(1,0,0,1,72,72)" stroke-width=".5859375" stroke-linecap="butt" stroke-miterlimit="10" stroke-linejoin="miter" fill="none" stroke="#4a6ee0" d="M 220.9805 603.0059 L 428.7598 603.0059 "/>
</g>
</g>
</svg>
