<?xml version="1.0" encoding="UTF-8" standalone="no"?>
<!DOCTYPE svg PUBLIC "-//W3C//DTD SVG 1.1//EN" "http://www.w3.org/Graphics/SVG/1.1/DTD/svg11.dtd">
<svg xmlns="http://www.w3.org/2000/svg" xmlns:xlink="http://www.w3.org/1999/xlink" version="1.1" width="612pt" height="792pt" viewBox="0 0 612 792">
<g enable-background="new">
<clipPath id="cp242">
<path transform="matrix(1,0,0,-1,0,792)" d="M 0 0 L 612 0 L 612 792 L 0 792 Z "/>
</clipPath>
<g clip-path="url(#cp242)">
<path transform="matrix(1,0,0,-1,0,792)" d="M 0 792 L 612 792 L 612 0 L 0 0 Z " fill="#ffffff"/>
<g id="Layer-1" data-name="P">
</g>
<clipPath id="cp243">
<path transform="matrix(1,0,0,-1,0,792)" d="M 68.67773 67.2085 L 543.3222 67.2085 L 543.3222 723.32229 L 68.67773 723.32229 Z "/>
</clipPath>
<g clip-path="url(#cp243)">
<text fill="#0e101a" xml:space="preserve" transform="matrix(1 0 -0 1 72 83.89447)" font-size="12" font-family="TimesNewRomanPSMT"><tspan y="0" x="0 4.6704 8.004001 14.004001 20.004002 23.337603 27.333603 30.667204 35.992807 41.318407 47.318407 50.652006 53.652006 59.652006 65.65201 74.9856 80.9856 86.3112 90.307209 93.307209 99.307209 103.30321 106.30321 110.97361 114.307209 120.307209 126.307209 131.63282 137.63282 140.96642 145.63681 148.63681 153.96242 157.29602 161.96642 167.96642 170.96642 175.63681 181.63681 187.63681 193.63681 199.63681 202.97042 205.97042 210.64081 216.64081 222.64081 228.64081 234.64081 238.63681 241.97042 244.97042 248.96642 252.96242 258.9624 268.296 271.296 275.292 279.288 282.62159 287.94718 293.94718 299.94718 304.61759 307.61759 312.94319 318.94319 324.94319 327.94319 333.26878 339.26878 345.26878 350.59437 356.59437 361.91996 367.91996 370.91996 374.25355 380.25355 383.25355 387.92396 393.24955 396.58314 400.57914 404.57514 409.24555 415.24555 421.24555 424.57914 430.57914 433.91273 439.91273 445.91273">significant number of students also sought support from friends and engaged in self-soothing </tspan></text>
<text fill="#0e101a" xml:space="preserve" transform="matrix(1 0 -0 1 72 113.38483)" font-size="12" font-family="TimesNewRomanPSMT"><tspan y="0" x="0 6 9.996 15.321601 20.647202 23.980803 27.314404 32.640005 37.965604 42.636 45.636 48.9696 52.303205 58.303205 63.628805 66.6288 72.6288 78.6288 84.6288 89.9544 92.9544 95.9544 101.9544 105.287998 110.613597 114.6096 120.6096 123.6096 132.27599 136.27199 139.60559 142.9392 146.2728 152.2728 158.2728 161.2728 164.2728 170.2728 174.2688 177.2688 186.6024 191.92801 197.92801 201.26161 204.59522 209.92082 213.25443 216.58803 222.58803 228.58803 231.58803 235.58403 242.07604 247.40164 253.40164 256.73524 262.06083 265.06083 271.06083 277.06083 281.05683 284.05683 287.05683 295.72325 301.72325 310.38966 315.71525 321.71525 327.04084 330.55683 333.55683 336.55683 341.88243 347.88243 357.216 363.216 368.5416 372.5376 377.8632 381.19679 384.53038 390.53038 395.85597 399.18955 405.18955 408.18955 412.18556 417.51115 426.17756 431.50315 435.49916">practices like yoga, diary writing, or meditation (Table 10). However, comparatively fewer </tspan></text>
<text fill="#0e101a" xml:space="preserve" transform="matrix(1 0 -0 1 72 142.875)" font-size="12" font-family="TimesNewRomanPSMT"><tspan y="0" x="0 4.6704 10.670401 16.6704 22.6704 28.6704 32.004 35.004 39.6744 45.6744 51.6744 57.6744 63.6744 67.6704 71.004 74.004 78 81.996 87.996 97.3296 100.3296 105.6552 111.6552 117.6552 120.98879 124.32239 128.99279 131.99279 134.99279 143.65918 149.65918 154.98479 157.98479 161.31839 167.31839 170.31839 173.652 179.652 184.9776 187.9776 191.3112 197.3112 202.63681 208.63681 214.63681 220.63681 229.3032 235.3032 238.3032 241.3032 245.9736 251.29921 257.2992 262.6248 266.6208 271.94639 275.27998 278.27998 282.95039 286.28398 292.28398 298.28398 303.60957 309.60957 312.94316 317.61357 320.61357 325.93916 331.93916 337.93916 341.93516 347.26075 351.93116 356.60157 361.92716 367.92716 370.92716 374.26075 380.26075 385.58634 388.91993 391.91993 395.2535 401.2535 406.5791 412.5791 415.5791 420.9047 426.9047 432.9047 436.23829 442.23829 445.23829 451.23829 457.23829 460.57188">sought support from adults. Due to the lockdown, several students expressed that they could not </tspan></text>
<text fill="#0e101a" xml:space="preserve" transform="matrix(1 0 -0 1 72 172.36518)" font-size="12" font-family="TimesNewRomanPSMT"><tspan y="0" x="0 6 9.3336 14.6592 20.659199 23.659199 29.659199 35.6592 38.9928 44.9928 50.9928 56.9928 60.9888 63.9888 68.6592 74.6592 80.6592 84.655208 87.9888 92.6592 95.6592 101.6592 105.655208 108.655208 114.655208 119.980808 125.980808 131.9808 134.9808 140.9808 146.9808 150.3144 153.3144 161.9808 165.3144 168.64801 174.64801 177.64801 181.64402 185.64002 188.97362 194.29923 200.29923 206.29923 210.96962 213.96962 216.96962 222.96962 226.96562 232.29123 238.29123 243.61684 249.61684 252.95044 256.28404 262.28404 268.28404 271.28404 274.6176 280.6176 285.9432 295.2768 298.2768 302.2728 306.2688 312.2688 321.6024 324.6024 329.92799 335.92799 341.92799 347.25358 353.25358 356.58717 362.58717 368.58717 371.58717 374.92076 380.92076 383.92076 389.24635 395.24635 401.24635 404.57994 410.57994 416.57994 419.57994 424.90553 430.2311 433.5647 436.8983 442.8983 446.23188 449.56547 452.89906 458.22465 462.89506 465.89506">play outdoor sports or hang out with friends, preventing them from engaging in coping activities. </tspan></text>
<text fill="#0e101a" xml:space="preserve" transform="matrix(1 0 -0 1 72 201.85553)" font-size="12" font-family="TimesNewRomanPSMT"><tspan y="0" x="0 7.3296 13.329599 18.655201 24.655201 27.655201 32.9808 36.314405 40.984804 46.984804 49.984804 55.310403 61.310403 67.3104 71.306407 76.632 81.30241 85.97281 91.29841 97.29841 100.29841 104.96881 108.30241 114.30241 120.30241 124.97281 127.97281 133.97281 137.96881 140.96881 146.29442 152.29442 158.29442 161.62802 166.95363 170.28723 176.28723 179.28723 185.28723 191.28723 196.61284 199.61284 202.94644 208.94644 211.94644 217.27205 220.27205 226.27205 230.26805 235.59366 240.26406 243.59766 246.93126 252.25687 255.25687 260.58247 266.58247 271.90806 277.90806 283.90806 289.23365 292.23365 295.56724 301.56724 304.56724 307.90083 313.90083 319.2264 322.56 326.556 329.556 335.556 340.8816 344.21519 347.54878 353.54878 356.54878 360.54478 366.54478 372.54478 375.87837 379.21195 385.21195 390.53755 395.20796 398.20796 401.20796 409.87437 415.87437 424.54078 429.86637 435.86637 441.19197 444.70796 447.70796">They also expressed signs of anxiety due to a drastic change in their daily routines. However, </tspan></text>
<text fill="#0e101a" xml:space="preserve" transform="matrix(1 0 -0 1 72 231.3457)" font-size="12" font-family="TimesNewRomanPSMT"><tspan y="0" x="0 8.666401 14.666401 18.000002 21.333603 26.659205 29.659205 34.329607 40.329607 49.663206 54.988805 57.988805 62.659204 65.9928 71.9928 77.9928 83.3184 89.3184 92.65199 97.322399 100.322399 104.3184 109.644 115.644 121.644 125.64 128.9736 134.29921 140.29921 143.29921 146.63282 152.63282 157.95842 161.95442 167.28003 172.60564 177.27603 182.60164 188.60164 191.60164 197.60164 203.60164 208.92725 212.26085 215.59445 218.92806 224.92806 227.92806 231.26166 234.59526 243.92887 249.25447 252.25447 260.92088 264.25447 267.58805 273.58805 276.58805 280.58406 285.90965 295.24324 298.5768 301.9104 307.9104 310.9104 320.244 325.56959 334.90318 340.90318 346.22877 350.22477 354.89518 357.89518 363.22077 367.89118 370.89118 376.21678 379.21678 383.88719 387.22077 391.21678 396.54237 401.21278 405.88319 408.88319 414.88319 420.88319 425.5536 428.88719 434.21278 437.72877 440.72877">while some students reported increased quality time with family members as a stress buster, </tspan></text>
<text fill="#0e101a" xml:space="preserve" transform="matrix(1 0 -0 1 72 260.83589)" font-size="12" font-family="TimesNewRomanPSMT"><tspan y="0" x="0 6 9.3336 15.3336 20.6592 24.655201 29.3256 32.3256 37.6512 43.6512 49.6512 53.647199 58.972799 63.643198 68.3136 73.6392 79.6392 82.6392 87.537609 93.537609 99.537609 105.537609 110.863208 116.188808 121.514408 126.18481 130.85521 136.18082 140.17682 146.17682 149.17682 152.51042 158.51042 161.84403 167.16963 171.16564 176.49124 181.81685 185.15045 188.48406 194.48406 200.48406 203.48406 212.15045 215.48406 218.81766 224.81766 227.81766 231.81366 237.13927 246.47287 249.80648 253.14008 259.14009 262.14009 271.47367 276.79927 286.13285 292.13285 297.45845 301.45445 306.12486 311.02326 314.02326 317.35685 323.35685 326.35685 331.68244 337.00804 343.00804 347.67845 353.00404 356.00404 365.33763 371.33763 375.33363 380.6592 383.6592 388.32963 391.6632 395.6592 400.9848 405.6552 410.32563 413.32563 415.6632 423.6672 426.6672 431.33763 434.6712 440.6712 446.6712 451.9968 457.9968 461.33039">others expressed "unnecessary interaction with family members" to cause more stress. A student </tspan></text>
<text fill="#0e101a" xml:space="preserve" transform="matrix(1 0 -0 1 72 290.3262)" font-size="12" font-family="TimesNewRomanPSMT"><tspan y="0" x="0 8.666401 12.662401 18.662402 21.996003 27.321604 30.321604 33.3216 38.22 42.216 45.216 51.216 55.8864 61.211999 67.212 70.212 73.54559 79.54559 82.54559 85.87919 91.20479 94.53838 100.53838 103.53838 112.20479 115.53838 118.87198 124.87198 127.87198 137.20558 143.20558 146.20558 149.53919 154.86479 160.1904 165.516 171.516 176.84162 180.83762 185.50801 188.50801 191.84162 197.84162 200.84162 204.17522 210.17522 215.50083 218.50083 223.82643 229.82643 235.15204 240.47765 246.47765 249.81125 255.81125 261.81126 264.81126 270.13685 273.47044 278.79603 283.46644 288.13685 293.46244 298.13285 301.13285 305.12886 310.45445 315.78004 321.10563 324.10563 327.4392 333.4392 336.4392 340.4352 345.7608 351.0864 356.412 359.412 364.73759 370.73759 376.73759 379.73759 384.408 390.408 395.73359 399.72959 405.05519 408.05519 417.38877 423.38877 426.38877 432.38877 436.38478 439.71836 445.04396 449.03996 452.03996">wrote, "I used to talk with my teachers in the coaching classes face to face and share my grief. </tspan></text>
<text fill="#0e101a" xml:space="preserve" transform="matrix(1 0 -0 1 72 319.8164)" font-size="12" font-family="TimesNewRomanPSMT"><tspan y="0" x="0 8.004001 14.004001 17.3376 20.3376 26.3376 32.3376 40.224004 43.224004 46.224004 51.549604 56.22 59.22 67.886409 73.212009 76.212009 81.537609 86.863208 92.863208 95.02561 98.35921 101.35921 104.6928 110.0184 115.344 121.344 126.6696 129.6696 135.6696 141.6696 145.6656 148.6656 154.6656 160.6656 169.9992 175.32482 179.99521 182.99521 185.99521 189.32881 195.32881 200.65442 203.98802 206.98802 210.32163 214.99202 217.99202 223.99202 229.99202 233.32563 236.32563 242.32563 248.32563 252.99602 257.66645 261.00004 267.00004 270.33363 275.6592 280.55763 283.55763 287.55363 294.22804 299.55363 303.54963 306.8832 310.2168 315.5424 318.87599 324.87599 330.20158 336.20158 339.53517 342.53517 348.53517 354.53517 358.53117 361.53117 364.31398 371.64356 377.64356 380.97715 385.64756 388.64756 393.31797 396.65156 401.97715 405.31074 410.63633 419.9699 425.2955 431.2955 434.6291 437.6291 443.6291 449.6291 452.96269 458.96269 462.29627 466.96669">But now, as we can't leave our homes, that is not possible" (Participant 62). This statement points </tspan></text>
<text fill="#0e101a" xml:space="preserve" transform="matrix(1 0 -0 1 72 349.3066)" font-size="12" font-family="TimesNewRomanPSMT"><tspan y="0" x="0 3.3336006 9.333601 12.333601 15.667201 21.667202 26.992804 29.992804 33.988805 39.314405 44.640005 47.973608 50.973608 54.30721 60.30721 65.632808 68.9664 71.9664 77.292 80.625598 83.95919 89.95919 95.95919 101.95919 107.95919 113.95919 116.95919 120.292789 126.292789 129.62639 132.95999 136.2936 142.2936 148.2936 151.2936 156.6192 159.9528 165.27841 169.9488 174.6192 179.94481 184.6152 187.6152 190.9488 196.9488 202.27442 211.60802 216.27841 221.60402 224.93762 230.93762 236.26323 240.93363 243.93363 249.93363 253.26723 258.5928 263.9184 269.244 272.244 277.56959 283.56959 289.56959 292.90318 296.23677 299.57035 305.57035 311.57035 316.89595 320.22953 323.22953 327.89994 331.23353 335.22953 340.5551 345.22554 349.89595 352.89595 358.89595 364.89595 367.89595 372.56636 375.89994 381.89994 387.89994 393.22554 399.22554 402.5591 407.22953 410.22953 413.22953 416.5631 422.5631 427.8887 430.8887 434.2223 440.2223 443.55589 449.55589 453.55189 458.2223">to the fact that although tuition classes themselves place additional stress on students, the tutors </tspan></text>
<text fill="#0e101a" xml:space="preserve" transform="matrix(1 0 -0 1 72 378.7969)" font-size="12" font-family="TimesNewRomanPSMT"><tspan y="0" x="0 9.3336 14.6592 20.659199 23.659199 29.659199 34.9848 37.9848 47.3184 53.3184 57.3144 62.64 65.64 69.636 73.632 76.9656 82.2912 88.2912 94.2912 97.624797 103.624797 106.624797 111.95039 117.95039 123.95039 126.95039 132.9504 138.9504 144.9504 150.276 154.272 158.9424 162.276 167.60161 173.60161 179.60161 182.93521 188.93521 194.93521 197.93521 201.26882 207.26882 212.59442 218.59442 221.59442 226.26482 231.59043 237.59043 243.59043 249.59043 252.92403 255.92403 259.25764 264.58323 269.9088 275.2344 281.2344 286.56 290.556 295.2264">may be more friendly and understanding than school teachers.</tspan></text>
<g id="Layer-2" data-name="Span">
<text fill="#0e101a" xml:space="preserve" transform="matrix(1 0 -0 1 72 378.7969)" font-size="12" font-family="TimesNewRomanPSMT"><tspan y="0" x="298.2363"> </tspan></text>
</g>
</g>
<g id="Layer-1" data-name="P">
<g id="Layer-2" data-name="Span">
<text fill="#0e101a" xml:space="preserve" transform="matrix(1 0 -0 1 72 408.2871)" font-size="12" font-family="TimesNewRomanPSMT"><tspan y="0" x="0"> </tspan></text>
</g>
<text fill="#0e101a" xml:space="preserve" transform="matrix(1 0 -0 1 72 437.7773)" font-size="12" font-family="TimesNewRomanPS" font-weight="bold"><tspan y="0" x="0 6.9024007 12.902401 19.576802 22.910403 28.236004 31.236004 37.236005">Table 10</tspan></text>
<g id="Layer-2" data-name="Span">
<text fill="#0e101a" xml:space="preserve" transform="matrix(1 0 -0 1 72 437.7773)" font-size="12" font-family="TimesNewRomanPS" font-weight="bold"><tspan y="0" x="43.23633"> </tspan></text>
</g>
</g>
<g id="Layer-1" data-name="P">
<text xml:space="preserve" transform="matrix(1 0 -0 1 72 467.2676)" font-size="12" font-family="TimesNewRomanPS" font-style="italic"><tspan y="0" x="0 8.004001 14.004001 20.004002 23.337603 29.337603 35.3376 38.3376 44.3376 47.6712 52.3416 58.3416 61.675199 67.00079 73.00079 76.33439 81.65999">Coping Strategies</tspan></text>
<g id="Layer-2" data-name="Span">
<text xml:space="preserve" transform="matrix(1 0 -0 1 72 467.2676)" font-size="12" font-family="TimesNewRomanPSMT"><tspan y="0" x="86.33203"> </tspan></text>
</g>
</g>
<g id="Layer-1" data-name="P">
</g>
<g id="Layer-1" data-name="P">
</g>
<clipPath id="cp244">
<path transform="matrix(1,0,0,-1,0,792)" d="M 71 82.63672 L 505 82.63672 L 505 307.63673 L 71 307.63673 Z "/>
</clipPath>
<g clip-path="url(#cp244)">
<path transform="matrix(1,0,0,-1,0,792)" d="M 72 305.6367 L 320.35 305.6367 L 320.35 281.6367 L 72 281.6367 Z " fill="#ffffff"/>
<path transform="matrix(1,0,0,-1,0,792)" d="M 320.35 305.6367 L 398.85 305.6367 L 398.85 281.6367 L 320.35 281.6367 Z " fill="#ffffff"/>
<path transform="matrix(1,0,0,-1,0,792)" d="M 398.85 305.6367 L 503 305.6367 L 503 281.6367 L 398.85 281.6367 Z " fill="#ffffff"/>
<path transform="matrix(1,0,0,-1,0,792)" d="M 72 281.6367 L 320.35 281.6367 L 320.35 242.6677 L 72 242.6677 Z " fill="#ffffff"/>
<path transform="matrix(1,0,0,-1,0,792)" d="M 320.35 281.6367 L 398.85 281.6367 L 398.85 242.6677 L 320.35 242.6677 Z " fill="#ffffff"/>
<path transform="matrix(1,0,0,-1,0,792)" d="M 398.85 281.6367 L 503 281.6367 L 503 242.6677 L 398.85 242.6677 Z " fill="#ffffff"/>
<path transform="matrix(1,0,0,-1,0,792)" d="M 72 242.6677 L 320.35 242.6677 L 320.35 218.6677 L 72 218.6677 Z " fill="#ffffff"/>
<path transform="matrix(1,0,0,-1,0,792)" d="M 320.35 242.6677 L 398.85 242.6677 L 398.85 218.6677 L 320.35 218.6677 Z " fill="#ffffff"/>
<path transform="matrix(1,0,0,-1,0,792)" d="M 398.85 242.6677 L 503 242.6677 L 503 218.6677 L 398.85 218.6677 Z " fill="#ffffff"/>
<path transform="matrix(1,0,0,-1,0,792)" d="M 72 218.6677 L 320.35 218.6677 L 320.35 180.1987 L 72 180.1987 Z " fill="#ffffff"/>
<path transform="matrix(1,0,0,-1,0,792)" d="M 320.35 218.6677 L 398.85 218.6677 L 398.85 180.1987 L 320.35 180.1987 Z " fill="#ffffff"/>
<path transform="matrix(1,0,0,-1,0,792)" d="M 398.85 218.6677 L 503 218.6677 L 503 180.1987 L 398.85 180.1987 Z " fill="#ffffff"/>
<path transform="matrix(1,0,0,-1,0,792)" d="M 72 180.1987 L 320.35 180.1987 L 320.35 156.1987 L 72 156.1987 Z " fill="#ffffff"/>
<path transform="matrix(1,0,0,-1,0,792)" d="M 320.35 180.1987 L 398.85 180.1987 L 398.85 156.1987 L 320.35 156.1987 Z " fill="#ffffff"/>
<path transform="matrix(1,0,0,-1,0,792)" d="M 398.85 180.1987 L 503 180.1987 L 503 156.1987 L 398.85 156.1987 Z " fill="#ffffff"/>
<path transform="matrix(1,0,0,-1,0,792)" d="M 72 156.1987 L 320.35 156.1987 L 320.35 132.1987 L 72 132.1987 Z " fill="#ffffff"/>
<path transform="matrix(1,0,0,-1,0,792)" d="M 320.35 156.1987 L 398.85 156.1987 L 398.85 132.1987 L 320.35 132.1987 Z " fill="#ffffff"/>
<path transform="matrix(1,0,0,-1,0,792)" d="M 398.85 156.1987 L 503 156.1987 L 503 132.1987 L 398.85 132.1987 Z " fill="#ffffff"/>
<path transform="matrix(1,0,0,-1,0,792)" d="M 72 132.1987 L 320.35 132.1987 L 320.35 108.1987 L 72 108.1987 Z " fill="#ffffff"/>
<path transform="matrix(1,0,0,-1,0,792)" d="M 320.35 132.1987 L 398.85 132.1987 L 398.85 108.1987 L 320.35 108.1987 Z " fill="#ffffff"/>
<path transform="matrix(1,0,0,-1,0,792)" d="M 398.85 132.1987 L 503 132.1987 L 503 108.1987 L 398.85 108.1987 Z " fill="#ffffff"/>
<path transform="matrix(1,0,0,-1,0,792)" d="M 72 108.1987 L 320.35 108.1987 L 320.35 84.19873 L 72 84.19873 Z " fill="#ffffff"/>
<path transform="matrix(1,0,0,-1,0,792)" d="M 320.35 108.1987 L 398.85 108.1987 L 398.85 84.19873 L 320.35 84.19873 Z " fill="#ffffff"/>
<path transform="matrix(1,0,0,-1,0,792)" d="M 398.85 108.1987 L 503 108.1987 L 503 84.19873 L 398.85 84.19873 Z " fill="#ffffff"/>
<g id="Layer-2" data-name="P">
<g id="Layer-3" data-name="P">
<g id="Layer-4" data-name="P">
<g id="Layer-5" data-name="P">
</g>
<clipPath id="cp245">
<path transform="matrix(1,0,0,-1,0,792)" d="M 72 282.1367 L 320.35 282.1367 L 320.35 305.1367 L 72 305.1367 Z "/>
</clipPath>
<g clip-path="url(#cp245)">
<text fill="#010204" xml:space="preserve" transform="matrix(1 0 -0 1 156.5791 502.6284)" font-size="12.5" font-family="TimesNewRomanPSMT"><tspan y="0" x="0 8.337501 14.587501 20.837502 24.310002 30.560002 36.81 39.935 46.8875 50.360006 54.522504 60.070005 63.542509 69.090007 75.340007">Coping Strategy</tspan></text>
</g>
</g>
<g id="Layer-4" data-name="P">
<g id="Layer-5" data-name="P">
</g>
<clipPath id="cp246">
<path transform="matrix(1,0,0,-1,0,792)" d="M 320.35 282.1367 L 398.85 282.1367 L 398.85 305.1367 L 320.35 305.1367 Z "/>
</clipPath>
<g clip-path="url(#cp246)">
<text fill="#010204" xml:space="preserve" transform="matrix(1 0 -0 1 334.4206 502.6284)" font-size="12.5" font-family="TimesNewRomanPSMT"><tspan y="0" x="0 6.952501 11.115001 16.6625 22.9125 29.1625 34.710004 40.960004 46.507505">Frequency</tspan></text>
</g>
</g>
<g id="Layer-4" data-name="P">
<g id="Layer-5" data-name="P">
</g>
<clipPath id="cp247">
<path transform="matrix(1,0,0,-1,0,792)" d="M 398.85 282.1367 L 503 282.1367 L 503 305.1367 L 398.85 305.1367 Z "/>
</clipPath>
<g clip-path="url(#cp247)">
<text fill="#010204" xml:space="preserve" transform="matrix(1 0 -0 1 433.3842 502.6284)" font-size="12.5" font-family="TimesNewRomanPSMT"><tspan y="0" x="0 6.952501 12.500002 16.662503 22.210003 27.757504 34.007505">Percent</tspan></text>
</g>
</g>
</g>
</g>
<g id="Layer-2" data-name="P">
<g id="Layer-3" data-name="P">
<g id="Layer-4" data-name="P">
<g id="Layer-5" data-name="P">
</g>
<clipPath id="cp248">
<path transform="matrix(1,0,0,-1,0,792)" d="M 72 242.6677 L 320.35 242.6677 L 320.35 281.1367 L 72 281.1367 Z "/>
</clipPath>
<g clip-path="url(#cp248)">
<text fill="#010204" xml:space="preserve" transform="matrix(1 0 -0 1 79 526.6284)" font-size="12.5" font-family="TimesNewRomanPSMT"><tspan y="0" x="0 7.6349999 13.885 20.135 25.6825 31.9325 37.480005 40.605005 44.077505 50.327505 53.452505 57.615 63.162504 68.71 72.8725 78.42 83.9675 87.439998 90.91249 97.16249 103.41249 108.95999 112.43249 115.55749 121.80749 125.27998 130.14499 133.6175 137.78 143.3275 148.875 152.3475 155.82 162.07 168.32 173.18502 176.31002 180.47252 188.10752 191.23252 197.48252 200.60752 203.73252 206.85752 215.88501 221.43251 224.90502 230.45252 236.70252">Engage in recreational distractions (E.g., watch </tspan></text>
<text fill="#010204" xml:space="preserve" transform="matrix(1 0 -0 1 79 542.6284)" font-size="12.5" font-family="TimesNewRomanPSMT"><tspan y="0" x="0 7.6349999 15.0512499 18.17625 21.30125 27.55125 31.02375 36.57125 42.82125 45.94625 52.19625 55.66875 61.91875 67.46625 73.71625 76.84125 83.09125 88.63875 98.361248 103.908748 108.77375 111.89875 115.02375 120.57125 124.04375 129.59125 132.71625">TV, play video games, etc.)</tspan></text>
</g>
</g>
<g id="Layer-4" data-name="P">
<g id="Layer-5" data-name="P">
</g>
<clipPath id="cp249">
<path transform="matrix(1,0,0,-1,0,792)" d="M 320.35 242.6677 L 398.85 242.6677 L 398.85 281.1367 L 320.35 281.1367 Z "/>
</clipPath>
<g clip-path="url(#cp249)">
<text fill="#010204" xml:space="preserve" transform="matrix(1 0 -0 1 351.425 534.6284)" font-size="12.5" font-family="TimesNewRomanPSMT"><tspan y="0" x="0 6.25 12.5">141</tspan></text>
</g>
</g>
<g id="Layer-4" data-name="P">
<g id="Layer-5" data-name="P">
</g>
<clipPath id="cp250">
<path transform="matrix(1,0,0,-1,0,792)" d="M 398.85 242.6677 L 503 242.6677 L 503 281.1367 L 398.85 281.1367 Z "/>
</clipPath>
<g clip-path="url(#cp250)">
<text fill="#010204" xml:space="preserve" transform="matrix(1 0 -0 1 435.9812 534.6284)" font-size="12.5" font-family="TimesNewRomanPSMT"><tspan y="0" x="0 6.25 12.5 15.625 21.875">64.1%</tspan></text>
</g>
</g>
</g>
<g id="Layer-3" data-name="P">
<g id="Layer-4" data-name="P">
<g id="Layer-5" data-name="P">
</g>
<clipPath id="cp251">
<path transform="matrix(1,0,0,-1,0,792)" d="M 72 218.6677 L 320.35 218.6677 L 320.35 242.6677 L 72 242.6677 Z "/>
</clipPath>
<g clip-path="url(#cp251)">
<text fill="#010204" xml:space="preserve" transform="matrix(1 0 -0 1 79 566.0974)" font-size="12.5" font-family="TimesNewRomanPSMT"><tspan y="0" x="0 6.952501 12.500002 18.047503 24.297503 27.422503 32.287504 38.537504 44.787504 51.037504 57.287504 61.45 64.9225 68.0475 72.21 76.3725 82.6225 92.34499 95.46999 99.63249 103.79499 107.26749 112.81499 119.06499 125.31499">Seek support from friends</tspan></text>
</g>
</g>
<g id="Layer-4" data-name="P">
<g id="Layer-5" data-name="P">
</g>
<clipPath id="cp252">
<path transform="matrix(1,0,0,-1,0,792)" d="M 320.35 218.6677 L 398.85 218.6677 L 398.85 242.6677 L 320.35 242.6677 Z "/>
</clipPath>
<g clip-path="url(#cp252)">
<text fill="#010204" xml:space="preserve" transform="matrix(1 0 -0 1 354.55 566.0974)" font-size="12.5" font-family="TimesNewRomanPSMT"><tspan y="0" x="0 6.25">78</tspan></text>
</g>
</g>
<g id="Layer-4" data-name="P">
<g id="Layer-5" data-name="P">
</g>
<clipPath id="cp253">
<path transform="matrix(1,0,0,-1,0,792)" d="M 398.85 218.6677 L 503 218.6677 L 503 242.6677 L 398.85 242.6677 Z "/>
</clipPath>
<g clip-path="url(#cp253)">
<text fill="#010204" xml:space="preserve" transform="matrix(1 0 -0 1 435.9812 566.0974)" font-size="12.5" font-family="TimesNewRomanPSMT"><tspan y="0" x="0 6.25 12.5 15.625 21.875">35.5%</tspan></text>
</g>
</g>
</g>
<g id="Layer-3" data-name="P">
<g id="Layer-4" data-name="P">
<g id="Layer-5" data-name="P">
</g>
<clipPath id="cp254">
<path transform="matrix(1,0,0,-1,0,792)" d="M 72 180.1987 L 320.35 180.1987 L 320.35 218.6677 L 72 218.6677 Z "/>
</clipPath>
<g clip-path="url(#cp254)">
<text fill="#010204" xml:space="preserve" transform="matrix(1 0 -0 1 79 589.0974)" font-size="12.5" font-family="TimesNewRomanPSMT"><tspan y="0" x="0 6.952501 12.500002 15.972503 20.135003 24.297503 29.162505 35.412508 41.662508 45.135007 51.385007 54.85751 61.10751 67.35751 70.48251 76.73251 80.89501 86.44251 91.99001 95.46251 98.935009 104.482509 110.03001 114.89501 118.02001 122.18251 129.8175 132.9425 139.1925 142.3175 145.4425 148.5675 154.8175 158.29001 163.83751 168.00002 174.25002 177.37502 182.92252 189.17252 192.64502 196.80753 202.24628 205.37128">Self-soothing practices (E.g., diary entry, </tspan></text>
<text fill="#010204" xml:space="preserve" transform="matrix(1 0 -0 1 79 605.0974)" font-size="12.5" font-family="TimesNewRomanPSMT"><tspan y="0" x="0 9.722501 15.270001 21.52 24.9925 28.465 34.0125 37.485006 40.957509 47.207509 53.457509 56.582509 59.707509 65.957508 72.207508 78.457508 84.005008 87.130008 90.255008 95.802509 99.965007 106.215007 109.6875 115.9375 122.1875 125.3125 128.4375 133.985 137.4575 143.005 146.13">meditation, yoga, crying, etc.)</tspan></text>
</g>
</g>
<g id="Layer-4" data-name="P">
<g id="Layer-5" data-name="P">
</g>
<clipPath id="cp255">
<path transform="matrix(1,0,0,-1,0,792)" d="M 320.35 180.1987 L 398.85 180.1987 L 398.85 218.6677 L 320.35 218.6677 Z "/>
</clipPath>
<g clip-path="url(#cp255)">
<text fill="#010204" xml:space="preserve" transform="matrix(1 0 -0 1 354.55 597.0974)" font-size="12.5" font-family="TimesNewRomanPSMT"><tspan y="0" x="0 6.25">78</tspan></text>
</g>
</g>
<g id="Layer-4" data-name="P">
<g id="Layer-5" data-name="P">
</g>
<clipPath id="cp256">
<path transform="matrix(1,0,0,-1,0,792)" d="M 398.85 180.1987 L 503 180.1987 L 503 218.6677 L 398.85 218.6677 Z "/>
</clipPath>
<g clip-path="url(#cp256)">
<text fill="#010204" xml:space="preserve" transform="matrix(1 0 -0 1 435.9812 597.0974)" font-size="12.5" font-family="TimesNewRomanPSMT"><tspan y="0" x="0 6.25 12.5 15.625 21.875">35.5%</tspan></text>
</g>
</g>
</g>
<g id="Layer-3" data-name="P">
<g id="Layer-4" data-name="P">
<g id="Layer-5" data-name="P">
</g>
<clipPath id="cp257">
<path transform="matrix(1,0,0,-1,0,792)" d="M 72 156.1987 L 320.35 156.1987 L 320.35 180.1987 L 72 180.1987 Z "/>
</clipPath>
<g clip-path="url(#cp257)">
<text fill="#010204" xml:space="preserve" transform="matrix(1 0 -0 1 79 628.5664)" font-size="12.5" font-family="TimesNewRomanPSMT"><tspan y="0" x="0 6.952501 11.115001 17.365002 23.615002 27.087502 32.635004 42.357503 46.52 51.385 57.635 61.107503 67.3575 70.829998 77.079998 83.329998 86.454998 90.61749 98.25249 101.37749 107.62749 110.75249 113.87749 117.00249 120.47498 123.94748 133.66999 139.21749 142.34249 148.59249 152.06499 157.61249 163.86249 170.11249 173.58499 179.83499 186.08499 189.20999 192.33499 197.88249 201.355 206.9025 210.0275">Problem-solving (E.g., time planning, etc.)</tspan></text>
</g>
</g>
<g id="Layer-4" data-name="P">
<g id="Layer-5" data-name="P">
</g>
<clipPath id="cp258">
<path transform="matrix(1,0,0,-1,0,792)" d="M 320.35 156.1987 L 398.85 156.1987 L 398.85 180.1987 L 320.35 180.1987 Z "/>
</clipPath>
<g clip-path="url(#cp258)">
<text fill="#010204" xml:space="preserve" transform="matrix(1 0 -0 1 354.55 628.5664)" font-size="12.5" font-family="TimesNewRomanPSMT"><tspan y="0" x="0 6.25">65</tspan></text>
</g>
</g>
<g id="Layer-4" data-name="P">
<g id="Layer-5" data-name="P">
</g>
<clipPath id="cp259">
<path transform="matrix(1,0,0,-1,0,792)" d="M 398.85 156.1987 L 503 156.1987 L 503 180.1987 L 398.85 180.1987 Z "/>
</clipPath>
<g clip-path="url(#cp259)">
<text fill="#010204" xml:space="preserve" transform="matrix(1 0 -0 1 435.9812 628.5664)" font-size="12.5" font-family="TimesNewRomanPSMT"><tspan y="0" x="0 6.25 12.5 15.625 21.875">29.5%</tspan></text>
</g>
</g>
</g>
<g id="Layer-3" data-name="P">
<g id="Layer-4" data-name="P">
<g id="Layer-5" data-name="P">
</g>
<clipPath id="cp260">
<path transform="matrix(1,0,0,-1,0,792)" d="M 72 132.1987 L 320.35 132.1987 L 320.35 156.1987 L 72 156.1987 Z "/>
</clipPath>
<g clip-path="url(#cp260)">
<text fill="#010204" xml:space="preserve" transform="matrix(1 0 -0 1 79 652.5664)" font-size="12.5" font-family="TimesNewRomanPSMT"><tspan y="0" x="0 6.952501 12.500002 18.047503 24.297503 27.422503 32.287504 38.537504 44.787504 51.037504 57.287504 61.45 64.9225 68.0475 72.21 76.3725 82.6225 92.34499 95.46999 101.017498 107.267498 113.517498 116.98999 120.46249">Seek support from adults</tspan></text>
</g>
</g>
<g id="Layer-4" data-name="P">
<g id="Layer-5" data-name="P">
</g>
<clipPath id="cp261">
<path transform="matrix(1,0,0,-1,0,792)" d="M 320.35 132.1987 L 398.85 132.1987 L 398.85 156.1987 L 320.35 156.1987 Z "/>
</clipPath>
<g clip-path="url(#cp261)">
<text fill="#010204" xml:space="preserve" transform="matrix(1 0 -0 1 354.55 652.5664)" font-size="12.5" font-family="TimesNewRomanPSMT"><tspan y="0" x="0 6.25">42</tspan></text>
</g>
</g>
<g id="Layer-4" data-name="P">
<g id="Layer-5" data-name="P">
</g>
<clipPath id="cp262">
<path transform="matrix(1,0,0,-1,0,792)" d="M 398.85 132.1987 L 503 132.1987 L 503 156.1987 L 398.85 156.1987 Z "/>
</clipPath>
<g clip-path="url(#cp262)">
<text fill="#010204" xml:space="preserve" transform="matrix(1 0 -0 1 435.9812 652.5664)" font-size="12.5" font-family="TimesNewRomanPSMT"><tspan y="0" x="0 6.25 12.5 15.625 21.875">19.1%</tspan></text>
</g>
</g>
</g>
<g id="Layer-3" data-name="P">
<g id="Layer-4" data-name="P">
<g id="Layer-5" data-name="P">
</g>
<clipPath id="cp263">
<path transform="matrix(1,0,0,-1,0,792)" d="M 72 108.1987 L 320.35 108.1987 L 320.35 132.1987 L 72 132.1987 Z "/>
</clipPath>
<g clip-path="url(#cp263)">
<text fill="#010204" xml:space="preserve" transform="matrix(1 0 -0 1 79 676.5664)" font-size="12.5" font-family="TimesNewRomanPSMT"><tspan y="0" x="0 9.0275 12.500001 20.837502 23.962502 28.125002 37.1525 43.4025 46.5275 52.7775 59.0275 62.500005 65.625 69.7875 75.335 80.8825 84.354999 87.479999 92.345 95.8175 99.979999 105.5275 110.3925 115.25751">N/A (Do not feel stress)</tspan></text>
</g>
</g>
<g id="Layer-4" data-name="P">
<g id="Layer-5" data-name="P">
</g>
<clipPath id="cp264">
<path transform="matrix(1,0,0,-1,0,792)" d="M 320.35 108.1987 L 398.85 108.1987 L 398.85 132.1987 L 320.35 132.1987 Z "/>
</clipPath>
<g clip-path="url(#cp264)">
<text fill="#010204" xml:space="preserve" transform="matrix(1 0 -0 1 354.55 676.5664)" font-size="12.5" font-family="TimesNewRomanPSMT"><tspan y="0" x="0 6.25">28</tspan></text>
</g>
</g>
<g id="Layer-4" data-name="P">
<g id="Layer-5" data-name="P">
</g>
<clipPath id="cp265">
<path transform="matrix(1,0,0,-1,0,792)" d="M 398.85 108.1987 L 503 108.1987 L 503 132.1987 L 398.85 132.1987 Z "/>
</clipPath>
<g clip-path="url(#cp265)">
<text fill="#010204" xml:space="preserve" transform="matrix(1 0 -0 1 435.9812 676.5664)" font-size="12.5" font-family="TimesNewRomanPSMT"><tspan y="0" x="0 6.25 12.5 15.625 21.875">12.7%</tspan></text>
</g>
</g>
</g>
<g id="Layer-3" data-name="P">
<g id="Layer-4" data-name="P">
<g id="Layer-5" data-name="P">
</g>
<clipPath id="cp266">
<path transform="matrix(1,0,0,-1,0,792)" d="M 72 84.69873 L 320.35 84.69873 L 320.35 108.19873 L 72 108.19873 Z "/>
</clipPath>
<g clip-path="url(#cp266)">
<text fill="#010204" xml:space="preserve" transform="matrix(1 0 -0 1 79 700.5664)" font-size="12.5" font-family="TimesNewRomanPSMT"><tspan y="0" x="0 9.0275 15.2775 18.4025 24.6525 30.9025 34.375005 37.500005 43.047506 49.297506 55.547506 61.095006 67.345 72.8925 76.0175 79.49 85.74 88.865 94.4125 100.6625 106.9125 110.0375 115.585 121.835 128.08499 131.5575 137.8075 144.0575 147.1825 152.73 158.2775 161.75 165.2225 171.4725 174.945 178.41751 181.89002 187.43752">Do not engage in any coping activities</tspan></text>
</g>
</g>
<g id="Layer-4" data-name="P">
<g id="Layer-5" data-name="P">
</g>
<clipPath id="cp267">
<path transform="matrix(1,0,0,-1,0,792)" d="M 320.35 84.69873 L 398.85 84.69873 L 398.85 108.19873 L 320.35 108.19873 Z "/>
</clipPath>
<g clip-path="url(#cp267)">
<text fill="#010204" xml:space="preserve" transform="matrix(1 0 -0 1 354.7819 700.5664)" font-size="12.5" font-family="TimesNewRomanPSMT"><tspan y="0" x="0 5.78625">11</tspan></text>
</g>
</g>
<g id="Layer-4" data-name="P">
<g id="Layer-5" data-name="P">
</g>
<clipPath id="cp268">
<path transform="matrix(1,0,0,-1,0,792)" d="M 398.85 84.69873 L 503 84.69873 L 503 108.19873 L 398.85 108.19873 Z "/>
</clipPath>
<g clip-path="url(#cp268)">
<text fill="#010204" xml:space="preserve" transform="matrix(1 0 -0 1 439.1062 700.5664)" font-size="12.5" font-family="TimesNewRomanPSMT"><tspan y="0" x="0 6.25 9.375 15.625">5.0%</tspan></text>
</g>
</g>
</g>
</g>
<clipPath id="cp269">
<path transform="matrix(1,0,0,-1,0,792)" d="M 71 82.63672 L 505 82.63672 L 505 307.63673 L 71 307.63673 Z "/>
</clipPath>
<g clip-path="url(#cp269)">
<path transform="matrix(1,0,0,1,71,484.3633)" stroke-width="1" stroke-linecap="butt" stroke-miterlimit="4" stroke-linejoin="miter" fill="none" stroke="#000000" d="M 1 26 L 432 26 "/>
<path transform="matrix(1,0,0,1,71,484.3633)" stroke-width="1" stroke-linecap="butt" stroke-miterlimit="4" stroke-linejoin="miter" fill="none" stroke="#000000" d="M 1 2 L 432 2 "/>
<path transform="matrix(1,0,0,1,71,484.3633)" stroke-width="1" stroke-linecap="butt" stroke-miterlimit="4" stroke-linejoin="miter" fill="none" stroke="#000000" d="M 1 223.438 L 432 223.438 "/>
</g>
</g>
</g>
</g>
</svg>
