<?xml version="1.0" encoding="UTF-8" standalone="no"?>
<!DOCTYPE svg PUBLIC "-//W3C//DTD SVG 1.1//EN" "http://www.w3.org/Graphics/SVG/1.1/DTD/svg11.dtd">
<svg xmlns="http://www.w3.org/2000/svg" xmlns:xlink="http://www.w3.org/1999/xlink" version="1.1" width="612pt" height="792pt" viewBox="0 0 612 792">
<g enable-background="new">
<clipPath id="cp14">
<path transform="matrix(1,0,0,-1,0,792)" d="M 0 0 L 612 0 L 612 792 L 0 792 Z "/>
</clipPath>
<g clip-path="url(#cp14)">
<path transform="matrix(1,0,0,-1,0,792)" d="M 0 792 L 612 792 L 612 0 L 0 0 Z " fill="#ffffff"/>
<g id="Layer-1" data-name="P">
</g>
<clipPath id="cp15">
<path transform="matrix(1,0,0,-1,0,792)" d="M 68.67773 72 L 543.3222 72 L 543.3222 723.3223 L 68.67773 723.3223 Z "/>
</clipPath>
<g clip-path="url(#cp15)">
<text fill="#0e101a" xml:space="preserve" transform="matrix(1 0 -0 1 108 83.89447)" font-size="12" font-family="TimesNewRomanPSMT"><tspan y="0" x="0 7.3296 13.329599 18.655201 22.651202 27.976803 30.976803 36.302404 40.2984 45.624 48.624 57.9576 63.2832 69.2832 75.2832 78.2832 83.6088 89.6088 98.9424 104.9424 108.27599 113.60159 116.93519 122.93519 126.26878 130.93918 133.93918 139.26479 145.26479 151.26479 157.26479 160.59839 163.59839 166.93199 172.93199 178.2576 181.2576 186.5832 192.5832 198.5832 203.90882 209.23442 212.56803 215.90163 221.90163 227.90163 230.90163 235.57202 241.57202 246.24242 249.57602 254.90163 264.23524 267.23524 270.56883 276.56883 279.56883 283.56483 289.56483 295.56483 298.8984 304.224 307.224 313.224 318.5496 321.88319 327.88319 333.88319 336.88319 340.21678 346.21678 351.54237 354.87596 358.20954 364.20954 369.53514 375.53514 378.53514 381.8687 387.8687 396.53514 401.86073 405.85673 411.85673 416.52714">There are many complaints about the education system in India being inclined towards </tspan></text>
<text fill="#0e101a" xml:space="preserve" transform="matrix(1 0 -0 1 72 113.38483)" font-size="12" font-family="TimesNewRomanPSMT"><tspan y="0" x="0 3.996 9.996 13.3296 18.655201 21.655201 30.988802 36.314405 45.648008 51.648008 55.644006 58.977605 64.3032 69.6288 72.962398 76.29599 82.29599 88.29599 91.29599 96.62159 102.62159 108.62159 111.62159 115.61759 120.94319 126.94319 132.94319 136.2768 140.2728 143.6064 149.6064 155.6064 158.6064 161.94 167.94 173.94 179.94 182.94 187.6104 190.944 194.94 200.26561 203.59922 208.92482 214.92482 220.25043 224.92082 227.92082 233.92082 237.91683 240.91683 244.91283 250.23844 256.23844 262.23844 265.57203 270.8976 274.89363 277.89363 282.56404 285.8976 291.8976 297.8976 303.8976 306.8976 312.8976 318.8976 324.8976 328.89363 333.56404 336.56404 339.8976 345.8976 348.8976 354.8976 358.89363 364.89363 370.2192 374.2152 377.2152 380.5488 386.5488 389.5488 394.8744 400.19999 406.19999 409.53358 414.85917 420.85917 426.18476">rote memorization and requiring long stretches of regular study hours in order to achieve </tspan></text>
<text fill="#0e101a" xml:space="preserve" transform="matrix(1 0 -0 1 72 142.875)" font-size="12" font-family="TimesNewRomanPSMT"><tspan y="0" x="0 5.3256008 10.6512 15.9768 21.976799 27.3024 36.636 39.9696 45.2952 48.2952 52.9656 58.9656 64.2912 69.6168 74.9424 79.6128 84.2832 87.2832 91.279209 99.2832 105.2832 110.6088 114.3876 120.3876 125.7132 131.7132 137.0388 140.0388 149.3724 152.15522 159.06362 162.39722 171.06362 176.38922 180.38523 183.71883 186.71883 189.71883 195.71883 201.71883 207.71883 213.71883 217.71483 220.71483 223.49764 230.82724 236.82724 240.16085 244.83124 247.83124 251.82724 257.15284 263.15284 269.15284 274.47843 279.80403 284.47444 287.47444 290.808 296.808 302.1336 305.1336 308.4672 311.80079 321.13438 326.45997 329.45997 333.45597 339.45597 343.45198 346.45198 351.77757 357.77757 361.11116 366.43675 370.43275 373.76634 379.09193 382.4255 388.4255 397.7591 403.0847 409.0847 412.41828 415.41828">academic success (Bhargava &#x0026; Tiwari, 2019). This reduces the time for entertainment, </tspan></text>
<text fill="#0e101a" xml:space="preserve" transform="matrix(1 0 -0 1 72 172.36518)" font-size="12" font-family="TimesNewRomanPSMT"><tspan y="0" x="0 3.996 9.3216 14.647201 18.6432 23.968802 29.294404 32.628004 35.961606 41.961606 47.961606 53.287206 56.620809 59.620809 64.9464 70.272 73.6056 76.93919 82.93919 86.27279 89.606388 92.93998 98.26558 102.93598 105.93598 108.93598 114.26158 120.26158 126.26158 129.26158 133.93198 139.93198 145.25759 148.59119 153.9168 157.2504 160.584 165.2544 174.588 177.588 180.588 185.9136 191.9136 194.9136 200.23921 204.9096 209.58 214.90561 220.90561 224.23921 227.57282 232.89842 236.23203 239.23203 245.23203 250.55764 254.55364 257.88725 260.88725 266.88725 270.88325 273.88325 279.20884 282.20884 287.53443 293.53443 296.868 300.2016 306.2016 308.364 313.03443 316.03443 322.03443 327.36003 333.36003 338.6856 342.0192 348.0192 354.0192 363.35279 368.67839 374.67839 378.01197 381.01197 383.79478 390.28678 395.61238 400.93797 406.26356 412.26356 417.58915 421.58515 426.25556 429.25556 435.25556 439.25157 442.58515 447.91075 453.91075">recreational activities, and socialism, an essential part of a child's development. Teachers often </tspan></text>
<text fill="#0e101a" xml:space="preserve" transform="matrix(1 0 -0 1 72 201.85553)" font-size="12" font-family="TimesNewRomanPSMT"><tspan y="0" x="0 5.3256008 9.996001 14.666402 18.000004 24.000004 30.000004 33.000005 38.325605 44.325605 49.651205 54.976804 59.6472 64.317607 67.6512 73.6512 78.9768 81.9768 87.9768 93.9768 103.310398 108.635997 117.3024 123.3024 127.2984 133.2984 136.2984 139.2984 143.2944 148.62001 153.2904 159.2904 163.2864 166.62001 169.62001 172.95362 178.95362 181.95362 186.62401 192.62401 198.62401 204.62401 207.95761 211.29122 217.29122 223.29122 226.29122 231.61682 237.61682 243.61682 246.61682 252.61682 257.9424 263.268 266.6016 269.93519 275.93519 281.93519 284.93519 290.26078 294.93119 297.93119 303.93119 309.93119 315.93119 319.26478 323.93519 329.93519 339.26878 344.59437 350.59437 353.92796 358.59837 361.59837 364.59837 369.92396 375.92396 381.92396 384.92396 388.91996 394.24555 398.91596 402.24955 406.24555 409.57914 414.90473 418.2383 421.2383 426.5639 432.5639 435.8975 439.8935 445.2191">assign excessive homework, resort to shouting and beating as punishments, and restrict extra-</tspan></text>
<text fill="#0e101a" xml:space="preserve" transform="matrix(1 0 -0 1 72 231.3457)" font-size="12" font-family="TimesNewRomanPSMT"><tspan y="0" x="0 5.3256008 11.325601 15.321601 19.3176 22.651202 27.976803 33.976804 37.310407 42.636007 46.632005 49.632005 54.957605 60.957605 66.9576 69.9576 73.953609 79.279209 84.604808 88.60081 93.92641 99.25201 102.5856 105.9192 111.9192 117.9192 123.2448 126.57839 129.5784 134.904 140.22962 143.56322 146.89682 152.89682 156.23043 159.56403 162.89763 168.22324 172.89363 175.89363 179.22724 185.22724 188.22724 193.55284 199.55284 202.55284 207.87845 211.21205 214.54566 219.87126 229.20487 235.20487 238.53847 241.53847 244.87207 250.87207 253.87207 257.20567 266.53926 272.53926 276.53526 282.53526 288.53526 293.86085 296.86085 301.53126 304.86485 310.86485 316.86485 322.19044 328.19044 331.52403 336.19444 338.35685 341.35685 345.35285 351.35285 356.67845 362.67845 367.34886 370.34886 376.34886 382.34886 385.34886 388.68244 394.68244 400.00804 403.3416 407.33763 410.33763 415.6632 420.9888 426.3144 432.3144 437.63999 446.97358 450.30717 455.63276">curricular and recreational activities in an attempt to improve students' focus on their academic </tspan></text>
<text fill="#0e101a" xml:space="preserve" transform="matrix(1 0 -0 1 72 260.83589)" font-size="12" font-family="TimesNewRomanPSMT"><tspan y="0" x="0 6 11.325601 15.321601 19.3176 25.3176 29.3136 38.6472 43.9728 49.9728 55.2984 60.624 63.624 67.62 74.29441 79.62001 83.61601 86.94961 92.94961 98.94961 101.94961 107.27521 110.6088 113.6088 118.9344 122.268 125.268 128.268 131.268 137.268 143.268 149.268 155.268 159.264 162.264 165.264 173.9304 179.9304 188.5968 193.92241 199.92241 205.24802 208.76403 211.76403 214.76403 218.09763 224.09763 229.42324 234.09363 239.41924 242.41924 251.75284 257.07844 260.41203 266.41203 272.41203 278.41203 283.08244 286.08244 291.40803 295.40403 300.7296 303.7296 309.7296 313.72563 319.72563 325.72563 331.0512 337.0512 340.0512 343.3848 349.3848 352.3848 358.3848 363.7104 366.7104 372.03599 378.03599 384.03599 390.03599 393.36958 398.69517 402.69117 408.69117 412.68717 418.68717 424.68717 430.68717 436.01277 439.34635 442.67994 448.67994 454.00553 457.00553">performance (Parikh et al., 2019). However, these methods are proven to be counterproductive, </tspan></text>
<text fill="#0e101a" xml:space="preserve" transform="matrix(1 0 -0 1 72 290.3262)" font-size="12" font-family="TimesNewRomanPSMT"><tspan y="0" x="0 5.3256008 9.996001 13.329601 18.655203 24.655203 27.988804 31.322405 35.992807 41.992807 45.326406 51.326406 57.326406 60.326406 65.652 68.652 74.652 77.985599 83.311199 86.64479 92.64479 98.64479 103.31519 106.31519 111.64079 117.64079 122.96639 126.29999 131.6256 134.6256 140.6256 144.6216 147.6216 153.6216 159.6216 162.9552 166.2888 169.6224 172.6224 175.6224 178.95601 184.95601 193.6224 196.6224 201.2928 206.61841 209.95201 213.94802 217.94402 223.26963 229.26963 235.26963 239.26563 242.59923 248.59923 253.92484 259.92485 265.25044 270.57603 273.57603 276.57603 279.9096 285.2352 290.5608 296.5608 299.5608 305.5608 309.5568 312.5568 318.5568 322.5528 328.5528 334.5528 340.5528 345.8784 349.21199 352.54557 358.54557 361.87916 365.21275 370.43394 373.43394 376.43394 381.75953 387.75953 393.75953 396.75953 402.75953 408.75953 414.75953 418.75553">establishing a vicious cycle of guilt, low self-confidence, lack of productivity, and poor </tspan></text>
<text fill="#0e101a" xml:space="preserve" transform="matrix(1 0 -0 1 72 319.8164)" font-size="12" font-family="TimesNewRomanPSMT"><tspan y="0" x="0 6 11.325601 15.321601 19.3176 25.3176 29.3136 38.6472 43.9728 49.9728 55.2984 60.624 63.624 66.957599 72.957599 75.957599 80.628 83.96159 89.96159 95.96159 101.28719 107.28719 110.62079 115.29119 118.29119 121.29119 129.95758 135.95758 139.29119 144.61679 150.61679 153.61679 157.6128 163.6128 167.6088 170.9424 176.9424 182.268 186.264 189.264 193.26001 198.58562 203.25601 209.25601 212.58962 215.92322 220.59362 223.59362 226.92722 232.92722 235.92722 241.92722 247.25283 253.25283 258.5784 261.912 265.24559 271.24559 276.57118 279.57118 284.24159 287.57518 291.57118 296.89677 301.56718 306.23759 309.23759 314.56318 318.34199 322.33799 327.66358 332.98918 336.32276 339.65635 345.65635 351.65635 354.65635 357.98994 363.98994 369.31553 372.6491 376.6451 379.6451 388.9787 394.3043 400.3043 403.63789 408.96348 412.29707 415.29707 421.29707 426.62266 431.94825 435.28184 438.61543 444.61543">performance in students, which further results in negative stress affecting their mental health </tspan></text>
<text fill="#0e101a" xml:space="preserve" transform="matrix(1 0 -0 1 72 349.3066)" font-size="12" font-family="TimesNewRomanPSMT"><tspan y="0" x="0 3.996 10.670402 15.996001 19.992 23.325602 29.325602 35.3256 38.3256 43.6512 46.9848 49.9848 55.3104 58.644 61.644 64.644 67.644 73.644 79.644 85.644 91.644 95.64 98.64 101.64 110.306407 116.306407 125.64 130.9656 139.632 145.632 149.628 155.628 158.628 161.96161 166.632 169.632 172.9656 178.9656 184.29122 187.29122 196.62482 202.62482 207.29521 210.62882 213.62882 219.62882 224.95442 230.95442 236.28003 239.61363 242.94724 248.94724 254.27285 257.27284 262.59843 267.26884 273.26884 278.59443 283.92 287.2536 290.2536 296.2536 300.2496 303.2496 307.92 313.2456 319.2456 325.2456 331.2456 334.5792 343.2456 349.2456 353.2416 359.2416 362.2416 367.5672 376.9008 382.9008 388.9008 394.9008 397.9008 402.5712 405.9048 411.9048 417.9048 423.23039 429.23039 432.56398 437.23439 440.23439 446.23439 452.23439 457.55998">(Parikh et al., 2019). Homework is the most negative aspect of schoolwork among students due </tspan></text>
<text fill="#0e101a" xml:space="preserve" transform="matrix(1 0 -0 1 72 378.7969)" font-size="12" font-family="TimesNewRomanPSMT"><tspan y="0" x="0 3.3336006 9.333601 12.333601 15.667201 19.000802 23.6712 26.6712 31.341599 34.675199 40.675199 46.675199 50.0088 54.0048 57.338399 62.663999 67.98959 73.98959 77.32319 80.32319 85.64879 90.31919 94.98959 100.98959 106.31519 109.64879 114.97439 118.30798 121.64158 127.64158 133.64157 136.64157 145.30797 148.64157 151.97518 157.97518 160.97518 164.97118 168.96718 174.29279 180.29279 186.29279 191.6184 197.6184 200.952 203.952 209.2776 215.2776 218.6112 223.2816 229.2816 235.2816 240.60721 245.2776 248.2776 254.2776 258.2736 261.2736 266.59919 272.59919 278.59919 283.92478 287.44078 290.44078 293.44078 296.77436 300.77037 304.76637 308.09996 311.43354 316.75914 322.75914 326.0927 329.4263 332.7599 336.09349 341.31468 344.31468 347.31468 351.98509 355.31867 359.31468 364.64027 369.31068 373.98109 376.98109 379.98109 385.30668 391.30668 397.30668 400.30668 406.30668 412.30668 416.30268 421.62828 427.62828 433.62828 442.96186">to its significant association with frequent episodes of anger, irritability, stress, and boredom </tspan></text>
<text fill="#0e101a" xml:space="preserve" transform="matrix(1 0 -0 1 72 408.2871)" font-size="12" font-family="TimesNewRomanPSMT"><tspan y="0" x="0 3.996 11.331601 16.657202 20.653203 29.986804 35.312406 38.312406 43.638006 46.971609 49.971609 55.297208 58.63081 61.63081 64.63081 67.63081 73.63081 79.63081 85.63081 91.63081 95.626819 98.626819 100.96442 109.63082 112.96442 116.29801 122.29801 128.298 134.298 140.298 146.298 149.298 155.298 158.6316 163.302 168.62761 171.96121 177.96121 181.29482 184.62842 190.62842 195.95403 199.95003 205.95003 208.95003 218.28363 223.60924 228.93485 233.60524 239.60524 243.60124 248.92685 253.59725 256.59724 259.93083 265.93083 268.93083 273.60124 278.92683 284.92683 290.92683 296.92683 300.2604 304.93083 307.93083 313.93083 319.2564 323.2524 329.2524 332.2524 336.2484 340.24443 346.24443 355.578 358.578 361.9116 367.9116 372.582 375.9156 379.24919 382.58277 388.58277 391.91636 395.24995 401.24995 407.24995 410.24995 413.58354 419.58354">(Verma et al., 2002). Although disciplinary measures in schools vary from institution to </tspan></text>
<text fill="#0e101a" xml:space="preserve" transform="matrix(1 0 -0 1 72 437.7773)" font-size="12" font-family="TimesNewRomanPSMT"><tspan y="0" x="0 3.3336006 9.333601 14.004002 17.337603 20.671204 24.004805 30.004805 33.338407 36.67201 42.67201 48.67201 51.67201 54.67201 59.99761 65.997608 69.99361 75.99361 81.99361 85.98961 91.31521 94.6488 97.6488 103.6488 109.6488 115.6488 118.9824 123.6528 129.6528 138.9864 144.31201 150.31201 153.64562 156.64562 159.97922 164.64962 167.64962 173.64962 177.64562 182.97122 188.29683 191.63043 194.96404 200.28964 205.61525 211.61525 214.61525 217.94886 223.94886 226.94886 236.28246 242.28246 246.95285 250.28646 253.28646 259.28645 263.28245 266.28245 269.61604 275.61604 280.94163 283.94163 288.61204 293.93763 299.93763 305.93763 311.93763 315.2712 319.94163 322.94163 326.2752 332.2752 335.2752 339.2712 345.2712 351.2712 354.6048 359.9304 362.9304 366.9264 375.5928 380.9184 386.9184 389.9184 395.244 398.57759 401.57759 406.90318 410.23677 413.23677 416.23677 419.23677 425.23677 431.23677 437.23677 443.23677 447.23277">institution, corporal punishment is practiced in most of the schools in India (Deb et al., 2015).</tspan></text>
<g id="Layer-2" data-name="Span">
<text fill="#0e101a" xml:space="preserve" transform="matrix(1 0 -0 1 72 437.7773)" font-size="12" font-family="TimesNewRomanPSMT"><tspan y="0" x="450.2461"> </tspan></text>
</g>
</g>
<g id="Layer-1" data-name="P">
<text fill="#0e101a" xml:space="preserve" transform="matrix(1 0 -0 1 108 467.2676)" font-size="12" font-family="TimesNewRomanPSMT"><tspan y="0" x="0 7.3296 13.329599 18.655201 21.655201 30.988802 36.314405 39.648008 45.648008 49.644006 52.977605 56.311208 62.311208 65.3112 71.3112 75.307209 78.307209 82.97761 86.3112 92.3112 98.3112 103.6368 109.6368 112.9704 117.6408 120.6408 125.9664 129.3 133.9704 139.9704 142.9704 148.296 154.296 160.296 163.62961 169.62961 172.96321 176.29682 179.29682 184.62242 190.62242 196.62242 199.95603 205.28163 208.61524 211.94884 217.27445 221.94484 224.94484 228.94084 234.26645 237.60005 242.92566 246.25926 251.58487 257.58488 260.58488 263.91847 269.91847 272.91847 278.24406 284.24406 289.56965 298.90324 302.23683 308.23683 313.5624 316.896 320.22959 326.22959 332.22959 336.9 339.9 343.896 352.5624 357.888 363.888 366.888 372.2136 375.54719 378.54719 383.87278 387.20637 390.20637 393.20637 396.20637 402.20637 408.20637 414.20637 420.20637 424.20237 427.20237">The majority of students also exhibit anxieties related to examinations (Deb et al., 2015). </tspan></text>
<text fill="#0e101a" xml:space="preserve" transform="matrix(1 0 -0 1 72 496.7578)" font-size="12" font-family="TimesNewRomanPSMT"><tspan y="0" x="0 6.674401 10.008 14.004001 19.329602 24 28.670399 31.670399 35.004 40.3296 46.3296 51.6552 54.988805 59.659204 62.659204 67.9848 77.3184 83.3184 89.3184 95.3184 98.3184 104.3184 107.65199 113.65199 119.65199 122.65199 127.322399 132.648 138.648 144.648 150.648 153.9816 156.9816 161.652 164.9856 170.9856 176.9856 182.3112 188.3112 191.6448 196.3152 199.3152 204.64081 208.63681 213.96242 216.96242 221.63282 224.96642 230.96642 236.96642 240.30002 244.29602 247.62963 252.95523 258.28083 264.28083 267.6144 270.948 276.948 279.948 285.948 289.2816 295.2816 301.2816 306.60719 310.60319 313.60319 319.60319 325.60319 329.59919 332.93278 338.93278 344.93278 347.93278 351.26637 357.26637 362.59196 365.59196 370.49037 376.49037 382.49037 387.81596 391.81196 397.81196 400.81196 406.13755 409.47114 414.79673 419.46714 424.13755 429.46315 434.13356 437.13356 442.03196 445.03196 448.36555 451.36555 456.69114 459.69114 462.69114">Stress levels among high school students are significantly higher during the "board classes," i.e., </tspan></text>
<text fill="#0e101a" xml:space="preserve" transform="matrix(1 0 -0 1 72 526.248)" font-size="12" font-family="TimesNewRomanPSMT"><tspan y="0" x="0 6 12 15.3336 21.3336 24.3336 29.6592 35.659204 41.659204 44.659204 50.659204 56.659204 59.9928 65.9928 69.9888 75.9888 79.9848 85.3104 91.3104 96.636 99.636 102.636 107.9616 112.632 115.632 120.9576 126.9576 136.29122 142.29122 147.61682 151.61283 156.93843 162.93843 165.93843 169.27204 175.27204 178.27204 184.27204 187.60564 193.60564 196.60564 201.93125 207.93125 213.93125 216.93125 222.48604 228.48604 231.81964 237.81964 241.81565 247.81565 251.81165 257.13725 263.13725 268.46284 271.46284 275.45884 283.46284 289.46284 294.78843 299.45884 302.79243 308.79243 311.79243 317.118 320.4516 323.4516 328.7772 332.11079 335.11079 338.11079 341.11079 347.11079 353.11079 359.11079 365.11079 369.10679 372.10679 375.10679 381.7812 387.10679 396.44038 401.76597 405.09956 410.42515 413.42515 418.09556 421.42915 427.42915 433.42915 438.75474 444.75474 448.08833 452.75874">10th and 12th-grade, as compared to 9th and 11th-grade (Bhasin et al., 2010). Female students </tspan></text>
<text fill="#0e101a" xml:space="preserve" transform="matrix(1 0 -0 1 72 555.7383)" font-size="12" font-family="TimesNewRomanPSMT"><tspan y="0" x="0 5.3256008 11.325601 17.3256 22.651202 26.647202 29.980803 35.306406 41.306406 46.632005 51.957605 54.957605 64.2912 70.2912 74.2872 79.6128 82.6128 87.9384 93.9384 99.264 108.597599 111.93119 117.93119 123.25679 126.590389 129.924 135.924 141.924 145.92 149.916 155.24161 158.57521 163.90082 167.23442 172.56003 178.56003 181.56003 186.88564 192.88564 198.88564 202.21924 207.54485 210.87845 216.87845 219.87845 223.21205 229.21205 234.53766 240.53766 243.53766 246.87126 252.87126 258.19685 261.53044 265.52644 268.52644 277.86003 283.1856 286.5192 291.8448 294.8448 300.17039 306.17039 312.17039 318.17039 321.50398 326.82957 330.82557 336.82557 342.15116 346.14717 349.48075 354.15116 357.15116 361.14717 369.81358 375.13917 381.13917 384.13917 389.46476 392.79835 395.79835 401.12394 404.45753 407.45753 410.45753 413.45753 419.45753 425.45753 431.45753 437.45753 441.45353 444.45353 447.45353 451.44953 457.44953">experience more examination-related anxiety than their male counterparts (Deb et al., 2015). In </tspan></text>
<text fill="#0e101a" xml:space="preserve" transform="matrix(1 0 -0 1 72 585.2285)" font-size="12" font-family="TimesNewRomanPSMT"><tspan y="0" x="0 6 12 17.5548 23.5548 26.5548 31.880402 35.214 41.214 47.214 52.5396 55.5396 58.5396 64.5396 67.5396 73.5396 79.5396 85.5396 88.5396 93.8652 99.8652 103.19879 106.53239 112.53239 116.52839 121.85399 127.85399 130.85399 136.85399 139.85399 149.18759 155.18759 159.1836 164.5092 167.5092 170.8428 176.8428 182.16841 188.16841 191.16841 195.8388 199.17241 205.17241 208.17241 213.49802 219.49802 222.83162 226.16522 232.16522 236.16123 241.48683 247.48683 250.48683 256.48683 261.8124 265.8084 268.8084 274.8084 280.134 286.134 289.134 295.134 298.134 303.4596 309.4596 318.79319 328.12678 331.46037 334.79396 338.12754 343.45314 349.45314 352.45314 357.12355 363.12355 366.45713 371.7827 375.1163 381.1163 386.4419 389.4419 395.4419 400.7675 406.09309 411.41868 417.41868 422.08909 427.41468 430.41468 436.41468 440.41069">2011 alone, 2,381 children &#x2013; more than six children per day &#x2013; committed suicide because of </tspan></text>
<text fill="#0e101a" xml:space="preserve" transform="matrix(1 0 -0 1 72 614.7188)" font-size="12" font-family="TimesNewRomanPSMT"><tspan y="0" x="0 3.996 9.3216 12.6552 15.9888 21.9888 25.9848 31.310402 34.310403 37.644 43.644 46.644 51.9696 57.9696 63.2952 72.6288 75.962398 81.962398 87.287998 90.62159 93.955188 99.955188 105.955188 110.62559 113.62559 117.62159 126.287998 131.6136 134.9472 138.2808 144.2808 150.2808 155.60642 158.94002 161.94002 169.94402 173.94002 177.27362 186.60723 191.93283 194.93283 202.93683 208.26244 213.58805 219.58805 223.58405 229.58405 234.25444 237.25444 245.25844 251.25844 255.25444 260.58003 265.9056 271.9056 274.9056 278.9016 287.56803 295.57203 303.57603 311.58003 315.57603 318.57603 321.57603 327.57603 333.57603 339.13084 345.13084 349.12684 352.12684 354.90965 362.23924 368.23924 373.56483 378.23524 383.56083 386.56083 391.23124 394.56483 399.8904 403.224 406.5576 411.228 414.56159 417.89518 423.22077 427.89118 430.89118 434.88719 440.88719 445.5576 450.88319 453.88319 457.21678 463.21678">failure in examinations (National Crime Records Bureau [NCRB], 2011). These statistics rose to </tspan></text>
<text fill="#0e101a" xml:space="preserve" transform="matrix(1 0 -0 1 72 644.209)" font-size="12" font-family="TimesNewRomanPSMT"><tspan y="0" x="0 5.3256008 11.325601 14.325601 19.651202 22.984803 28.310404 32.306406 41.640005 44.973608 50.973608 56.973608 59.973608 65.9736 71.9736 77.9736 80.9736 86.9736 92.9736 98.9736 101.9736 106.644008 109.9776 115.9776 121.9776 127.3032 133.30319 136.6368 139.6368 144.30719 150.30719 153.6408 158.9664 162.3 168.3 173.62561 178.296 181.296 184.62961 190.62961 193.62961 199.62961 205.62961 211.62961 217.62961 220.62961 224.62561 229.95122 235.95122 241.95122 245.94722 251.94722 257.9472 261.2808 270.61439 275.93998 279.27357 284.59916 287.93275 293.93275 296.93275 302.93275 308.93275 311.93275 316.60316 319.93675 325.93675 331.93675 337.26234 343.26234 346.59593 351.26634 354.26634 360.26634 365.59193 369.58793 372.58793 378.58793 383.9135 389.9135 393.90953 396.90953 400.90553 409.57194 417.57594 425.57994 433.58393 436.58393">an alarming 130,000 student suicides in 2018 (approximately 28 students per day) (NCRB, </tspan></text>
<text fill="#0e101a" xml:space="preserve" transform="matrix(1 0 -0 1 72 673.6992)" font-size="12" font-family="TimesNewRomanPSMT"><tspan y="0" x="0 6 12 18 24 27.996 30.996 33.333604 42.000005 45.333608 48.66721 54.66721 60.66721 66.667209 72.667209 78.667209 81.667209 85.0008 91.0008 96.3264 99.3264 103.3224 108.648 113.9736 118.644008 124.644008 130.64402 135.3144 138.3144 143.64002 147.63602 152.96163 155.96163 159.29523 165.29523 171.29523 177.29523 186.62883 191.95444 195.95044 201.27605 207.27605 210.60965 215.93526 218.93526 221.93526 225.93126 231.25687 234.59047 237.92407 243.92407 247.92008 253.24568 256.24568 259.57926 265.57926 268.57926 273.90486 279.90486 285.23045 294.56404 297.8976 303.8976 309.2232 312.5568 315.89039 321.89039 327.89039 332.5608 335.5608 338.5608 344.5608 350.5608 355.88639 365.21998 371.21998 374.55357 380.55357 386.55357 395.88716 401.21275 407.21275 410.54634 413.54634 416.54634 421.87193 427.87193 433.87193">2018). Although the reasons are innumerable, failure in examinations, unemployment, and </tspan></text>
</g>
</g>
</g>
</svg>
