<?xml version="1.0" encoding="UTF-8" standalone="no"?>
<!DOCTYPE svg PUBLIC "-//W3C//DTD SVG 1.1//EN" "http://www.w3.org/Graphics/SVG/1.1/DTD/svg11.dtd">
<svg xmlns="http://www.w3.org/2000/svg" xmlns:xlink="http://www.w3.org/1999/xlink" version="1.1" width="612pt" height="792pt" viewBox="0 0 612 792">
<g enable-background="new">
<clipPath id="cp26">
<path transform="matrix(1,0,0,-1,0,792)" d="M 0 0 L 612 0 L 612 792 L 0 792 Z "/>
</clipPath>
<g clip-path="url(#cp26)">
<path transform="matrix(1,0,0,-1,0,792)" d="M 0 792 L 612 792 L 612 0 L 0 0 Z " fill="#ffffff"/>
<g id="Layer-1" data-name="P">
<g id="Layer-2" data-name="P">
<g id="Layer-3" data-name="P">
</g>
<clipPath id="cp27">
<path transform="matrix(1,0,0,-1,0,792)" d="M 68.67773 72 L 543.3222 72 L 543.3222 723.3223 L 68.67773 723.3223 Z "/>
</clipPath>
<g clip-path="url(#cp27)">
<text xml:space="preserve" transform="matrix(1 0 -0 1 108 83.89447)" font-size="12" font-family="TimesNewRomanPSMT"><tspan y="0" x="0 6">3.</tspan></text>
</g>
<g id="Layer-3" data-name="P">
<text xml:space="preserve" transform="matrix(1 0 -0 1 120.65 83.89447)" font-size="12" font-family="TimesNewRomanPSMT"><tspan y="0" x="0 6.674401 10.008 14.004001 19.329602 24 28.670399 31.670399 39.6744 45 50.3256 55.6512 58.9848 62.3184 68.318408 74.318408 78.98881 82.3224 85.3224 93.3264 98.652 103.3224 109.3224 115.3224 121.3224 127.3224 132.64801 138.64801 141.98162 146.65201 149.65201 158.3184 163.64402 167.64002 172.96562 175.96562 181.96562 185.96163 191.96163 197.96163 201.29523 207.29523 212.62084 218.62084 221.62084 230.28723 233.62084 236.95444 242.95444 245.95444 255.28804 261.28804 264.6216 267.9552 271.2888 277.2888 280.62239 285.94798 288.94798 294.27357 300.27357 305.59916 310.92475 316.92475 322.92475 328.92475 334.92475 340.25035 344.92076 347.92076 351.25434 354.58793 359.25834 362.59193 365.9255 371.9255 377.9255 380.9255 385.59593 388.9295 392.9255 398.2511 402.9215 407.59193">Stress Reactions: Respondents were provided with multiple checkboxes listing stress </tspan></text>
<text xml:space="preserve" transform="matrix(1 0 -0 1 120.65 113.38483)" font-size="12" font-family="TimesNewRomanPSMT"><tspan y="0" x="0 3.996 9.3216 14.647201 19.972802 23.306403 26.640004 32.640005 38.640005 43.310403 46.310403 50.9808 54.314405 60.314405 66.31441 71.64001 77.64001 80.9736 85.644008 88.644008 97.9776 103.3032 109.3032 112.3032 118.3032 123.6288 129.6288 134.9544 137.9544 143.28002 149.28002 155.28002 160.60562 164.60163 167.93523 173.26084 179.26084 184.58644 189.91205 195.91205 198.91205 204.91205 210.91205 216.23766 219.23766 222.57126 228.57126 231.57126 236.89687 242.22248 247.54808 253.54808 258.87367 268.20726 271.54084 276.86643 279.86643 284.53684 287.87043 291.86643 297.19203 301.86244 306.53285 309.53285 315.53285 321.53285 325.52885 328.86244 334.86244 340.86244 343.86244 347.196 353.196 358.5216 361.5216 364.8552 370.8552 376.1808 382.1808 388.1808 394.1808 402.8472 408.8472 411.8472">reactions students may have experienced due to academic stress during the lockdown. </tspan></text>
<text xml:space="preserve" transform="matrix(1 0 -0 1 120.65 142.875)" font-size="12" font-family="TimesNewRomanPSMT"><tspan y="0" x="0 7.3296 13.329599 18.655201 23.3256 28.651202 31.651202 36.976804 42.976804 48.976804 52.310407 57.636007 62.961606 67.63201 70.63201 79.298419 84.624019 88.62002 93.94562 96.94562 102.94562 108.27122 112.94162 118.26722 124.26722 127.26722 133.26721 139.26721 142.26721 146.26322 151.58882 156.25922 161.58483 166.91043 170.90644 176.23204 182.23204 185.23204 190.55765 196.55765 202.55765 208.55765 214.55765 219.88326 223.21686 228.54247 234.54247 237.54247 243.54247 249.54247 252.54247 261.20887 266.53446 272.53446 275.53446 280.86006 284.19364 287.19364 292.51924 295.8528 298.8528 301.8528 305.84883 311.84883 317.84883 323.84883 329.84883 333.84483 336.84483 339.84483 346.51924 351.84483 355.84083 359.1744 365.1744 371.1744 374.1744 379.5 382.8336 385.8336 391.15919 394.49278 397.49278">These choices were based on research conducted by Deb et al. (2015), Parikh et al. </tspan></text>
<text xml:space="preserve" transform="matrix(1 0 -0 1 120.65 172.36518)" font-size="12" font-family="TimesNewRomanPSMT"><tspan y="0" x="0 3.996 9.996 15.996 21.996 27.996 31.992 34.992 37.992 43.3176 49.3176 55.3176 58.1004 65.436 70.7616 74.7576 84.091197 89.416797 92.416797 97.74239 101.07599 104.07599 109.40159 112.73518 115.73518 118.73518 122.731189 128.73119 134.73119 140.73119 146.73119 150.72719 153.72719 156.06479 164.73119 170.73119 173.73119 179.73119 185.73119 191.0568 197.0568 201.0528 206.3784 212.3784 218.3784 223.70401 229.70401 232.70401 238.02962 244.02962 248.70001 257.36643 262.69203 266.68803 269.68803 278.35444 283.68003 288.35044 291.35044 294.68403 300.68403 306.0096 309.3432 315.3432 321.3432 326.6688 332.6688 335.6688 339.6648 345.6648 349.6608 352.6608 356.6568 361.9824 366.6528 372.6528 378.6528 384.6528 389.3232 394.6488 399.3192 402.3192 408.3192 414.3192 417.6528">(2019), and Verma et al. (2002). An open-ended answer was included for responses not </tspan></text>
<text xml:space="preserve" transform="matrix(1 0 -0 1 120.65 201.85553)" font-size="12" font-family="TimesNewRomanPSMT"><tspan y="0" x="0 3.3336006 9.333601 14.659202 17.992802 23.992802 29.992802 35.3184 41.3184 44.3184 47.652006 53.652006 56.652006 59.985609 65.98561 71.31121 74.31121 79.63681 85.63681 91.63681 94.970409 100.296009 105.621608 110.29201 113.29201 116.07481 123.4044 129.4044 132.738 137.4084 140.4084 145.0788 150.4044 155.73001 159.06362 162.39722 168.39722 174.39722 177.39722 182.72283 186.05643 190.72682 196.72682 199.72682 205.72682 211.72682 216.39722 221.72283 227.72283 230.72283 236.04843 239.04843 245.04843 251.04843 255.04444 261.04444 267.04444 270.37803 276.37803 279.7116 282.7116 290.0412 293.3748 299.3748 304.70039 308.69639 312.02998 315.02998 319.70039 325.02598 330.35157 333.68516 339.01075 342.01075 347.33634 353.33634 358.66194 361.9955 367.9955 372.66593 375.9995 380.66993">included in the choices. This section also posed a 10-point Likert scale analysis </tspan></text>
<text xml:space="preserve" transform="matrix(1 0 -0 1 120.65 231.3457)" font-size="12" font-family="TimesNewRomanPSMT"><tspan y="0" x="0 3.3336006 9.333601 15.333601 21.333601 24.667202 28.663203 31.996804 37.996805 43.996805 46.996805 52.996805 58.996805 67.66321 70.66321 73.9968 79.9968 85.3224 88.3224 92.318408 96.31441 101.64001 107.64001 113.64001 118.96561 124.96561 130.29122 136.29122 139.29122 145.29122 149.28722 152.28722 156.95761 162.95761 168.28322 174.28322 177.28322 182.60883 188.60883 193.93444 199.93444 203.26804 207.93843 210.93843 216.93843 222.26404 226.93444 229.93444 235.26004 241.26004 246.58565 252.58565 258.58564 263.91123 269.91123 272.91123 278.23683 284.23683 293.5704 299.5704 304.896 308.892 314.2176 320.2176 323.2176 326.55119 332.55119 335.55119 341.55119 345.54719 350.87278 354.86878 358.20237 364.20237 369.52796 375.52796 381.52796 387.52796 396.19438 402.19438">inquiring how the frequency of such events has changed compared to pre-lockdown </tspan></text>
<text xml:space="preserve" transform="matrix(1 0 -0 1 120.65 260.83589)" font-size="12" font-family="TimesNewRomanPSMT"><tspan y="0" x="0 5.3256008 11.325601 17.3256 23.3256 26.6592 29.992802 33.326406 39.326406 45.326406">conditions</tspan></text>
<g id="Layer-4" data-name="Span">
<text xml:space="preserve" transform="matrix(1 0 -0 1 120.65 260.83589)" font-size="12" font-family="TimesNewRomanPSMT"><tspan y="0" x="49.99805"> </tspan></text>
</g>
</g>
</g>
<g id="Layer-2" data-name="P">
<g id="Layer-3" data-name="P">
<text xml:space="preserve" transform="matrix(1 0 -0 1 108 290.3262)" font-size="12" font-family="TimesNewRomanPSMT"><tspan y="0" x="0 6">4.</tspan></text>
</g>
<g id="Layer-3" data-name="P">
<text xml:space="preserve" transform="matrix(1 0 -0 1 120.65 290.3262)" font-size="12" font-family="TimesNewRomanPSMT"><tspan y="0" x="0 8.004001 14.004001 20.004002 23.337603 29.337603 35.3376 38.3376 45.012 48.3456 52.3416 57.6672 61.000799 66.32639 72.32639 75.65999 80.98559 85.65599 88.989589 91.989589 98.663997 101.99759 111.331188 114.66478 117.998378 123.323978 127.31998 130.31998 133.65358 139.65358 142.65358 145.98719 151.98719 157.31279 160.31279 164.98319 170.30879 175.6344 178.968 182.3016 188.3016 194.3016 197.3016 201.2976 207.2976 211.29361 214.29361 218.964 222.2976 226.29361 231.61922 236.28961 240.96 243.96 247.95601 253.28162 258.6072 263.9328 267.2664 270.59999 276.59999 282.59999 287.2704 290.2704 293.2704 297.2664 302.59199 307.2624 313.2624 319.2624 325.2624 331.2624 336.58799 342.58799 345.92158 350.59199 353.59199 362.2584 367.58399 371.58 376.90559 379.90559 385.90559 389.23918 395.23918 400.56477 406.56477">Coping Strategies: Similar to the section for stress reactions, respondents were given </tspan></text>
<text xml:space="preserve" transform="matrix(1 0 -0 1 120.65 319.8164)" font-size="12" font-family="TimesNewRomanPSMT"><tspan y="0" x="0 9.3336 15.3336 18.667202 22.000803 25.334404 31.334404 34.668004 39.993604 42.993604 48.319204 54.319204 59.644804 64.9704 70.9704 76.9704 82.9704 88.9704 94.296 98.9664 101.9664 105.9624 111.9624 115.958408 118.958408 124.284008 130.284 136.284 139.6176 145.6176 151.6176 154.6176 159.288 162.6216 166.6176 171.9432 175.27681 180.60242 186.60242 189.93602 195.26163 199.93202 202.93202 206.26563 212.26563 217.59123 223.59123 226.59123 235.92484 239.25844 245.25844 251.25844 254.59204 257.59205 263.59205 268.91764 274.91764 280.24324 283.24324 288.56883 294.56883 300.56883 305.8944 311.8944 317.22 323.22 326.22 329.5536 335.5536 338.5536 341.88719 347.88719 350.88719 356.88719 362.21278 365.54637 371.54637 374.54637 379.87196 383.20555 386.53913 391.86473 397.86473 401.1983 406.5239 409.85749 415.18309">multiple checkboxes for coping strategies they might have engaged in to help alleviate </tspan></text>
<text xml:space="preserve" transform="matrix(1 0 -0 1 120.65 349.3066)" font-size="12" font-family="TimesNewRomanPSMT"><tspan y="0" x="0 4.6704 8.004001 12.000001 17.325602 21.996003 26.6664 29.6664 32.4492 39.7788 45.7788 51.1044 55.7748 61.1004 64.1004 69.426 75.426 81.426 84.7596 90.0852 95.4108 100.0812 103.0812 111.747608 117.073207 121.06921 126.394809 129.3948 135.3948 140.72042 145.39081 150.71642 156.71642 159.71642 165.71642 171.71642 174.71642 178.71242 184.03803 188.70842 194.03403 199.35964 203.35564 208.68125 214.68125 217.68125 223.00685 229.00685 235.00685 241.00685 247.00685 252.33246 255.66606 260.99165 266.99165 269.99165 275.99165 281.99165 284.99165 292.99565 298.99565 304.32124 308.10005 314.10005 319.42564 325.42564 330.75123 333.75123 339.0768 345.0768 351.0768 353.85963 360.768 364.1016 372.768 378.0936 382.0896 385.4232">stress. These choices were based on research conducted by Bhargava and Tiwari </tspan></text>
<text xml:space="preserve" transform="matrix(1 0 -0 1 120.65 378.7969)" font-size="12" font-family="TimesNewRomanPSMT"><tspan y="0" x="0 3.996 9.996 15.996 21.996 27.996 31.992 34.992 40.3176 46.3176 52.3176 55.3176 61.992 67.3176 71.3136 74.647197 80.647197 86.647197 89.647197 94.97279 98.30639 101.30639 106.63199 109.96558 112.96558 115.96558 119.961589 125.961589 131.96158 137.96158 143.96158 147.95758 150.95758 153.29518 161.96158 167.96158 170.96158 176.96158 182.96158 188.28719 194.28719 198.28319 203.6088 209.6088 215.6088 220.9344 226.9344 229.9344 235.26001 241.26001 245.9304 254.5968 259.9224 263.9184 266.9184 275.5848 280.9104 285.5808 288.5808 291.9144 297.9144 303.24 306.57359 312.57359 318.57359 323.89918 329.89918 332.89918 336.89518 342.89518 346.89118 349.89118 353.88719 359.21278 363.88319 369.88319 375.88319 381.88319 386.5536 391.87919 396.5496 399.5496 405.5496 411.5496 414.88319">(2019) and Parikh et al. (2019). An open-ended answer was included for responses not </tspan></text>
<text xml:space="preserve" transform="matrix(1 0 -0 1 120.65 408.2871)" font-size="12" font-family="TimesNewRomanPSMT"><tspan y="0" x="0 3.3336006 9.333601 14.659202 17.992802 23.992802 29.992802 35.3184 41.3184 44.3184 47.652006 53.652006 56.652006 59.985609 65.98561 71.31121 74.31121 79.63681 85.63681 91.63681 94.970409 100.296009 105.621608 110.29201 113.29201 116.29201 123.621608 128.9472 133.6176 136.9512 140.2848 145.50601 148.50601 151.50601 155.50202 160.82762 165.49802 171.49802 177.49802 183.49802 189.49802 194.82363 200.82363 204.15723 208.82762 211.82762 220.49402 225.81963 229.81563 235.14124 238.14124 243.46685 248.13724 254.13724 259.46284 265.46284 268.46284 274.46284 280.46284 289.12925 292.12925 295.46284 301.46284 306.78843 309.78843 317.79243 326.45884 335.12525 339.12126 347.78767 351.78367 357.78367 363.78367 366.78367 370.11726 376.11726 381.44285 387.44285 393.44285 399.44285 408.10926 414.10926">included in the choices. Lastly, respondents were asked how the COVID-19 lockdown </tspan></text>
<text xml:space="preserve" transform="matrix(1 0 -0 1 120.65 437.7773)" font-size="12" font-family="TimesNewRomanPSMT"><tspan y="0" x="0 6 11.325601 15.996001 18.996003 24.321604 28.100405 32.096406 37.422006 42.747606 46.081205 51.406805 57.406805 60.406805 63.740407 69.7404 75.066 78.3996 82.3956 85.3956 90.7212 96.7212 102.7212 106.054798 112.054798 118.054798 121.054798 125.7252 129.0588 133.05481 138.38042 141.71402 147.03963 153.03963 156.37323 161.69884 166.36923 169.36923 174.69484 179.36524 182.36524 187.69084 193.69084 203.02445 209.02445 214.35005 218.34606 223.67166 229.67166 232.67166 236.00527 242.00527 245.00527 251.00527 255.00127 260.32685 264.32286 267.65644 273.65644 278.98204 284.98204 290.98204 296.98204 305.64845 311.64845 314.64845 319.97404 325.97404 331.97404 337.97404 341.30763 344.6412 347.9748 353.9748 359.9748 364.6452">has affected their coping strategies as compared to pre-lockdown conditions.</tspan></text>
<g id="Layer-4" data-name="Span">
<text xml:space="preserve" transform="matrix(1 0 -0 1 120.65 437.7773)" font-size="12" font-family="TimesNewRomanPSMT"><tspan y="0" x="367.6582"> </tspan></text>
</g>
</g>
</g>
</g>
<g id="Layer-1" data-name="P">
<text fill="#0e101a" xml:space="preserve" transform="matrix(1 0 -0 1 108 467.2676)" font-size="12" font-family="TimesNewRomanPSMT"><tspan y="0" x="0 7.3296 13.329599 18.655201 21.655201 27.655201 33.6552 36.988805 40.322408 46.322408 51.648008 54.648008 59.318407 65.318408 69.31441 75.31441 80.64001 86.64001 89.64001 92.9736 98.9736 104.9736 110.9736 113.9736 119.9736 123.969608 129.9696 135.9696 138.9696 148.3032 151.63681 157.63681 163.63681 166.97042 172.29602 176.96642 179.96642 183.30002 189.30002 192.30002 197.62563 203.62563 212.95923 218.95923 222.29283 227.61844 230.95204 236.27765 239.27765 242.06046 249.39006 255.39006 260.71565 263.71565 268.38606 274.38606 278.38206 284.38206 289.70765 295.70765 298.70765 307.37406 312.69966 317.37007 320.37007 324.36607 330.36607 334.36207 343.02848 348.35408 352.35008 358.35008 363.67567 369.67567 372.67567 376.00926 382.00926">The online survey took 5-10 minutes to complete. The survey was forwarded to </tspan></text>
<text fill="#0e101a" xml:space="preserve" transform="matrix(1 0 -0 1 72 496.7578)" font-size="12" font-family="TimesNewRomanPSMT"><tspan y="0" x="0 5.3256008 11.325601 17.3256 21.3216 27.3216 33.3216 36.6552 45.988805 51.314405 54.648008 59.973608 63.30721 69.307209 72.307209 78.307209 84.307209 90.307209 93.307209 97.97761 101.3112 107.3112 113.3112 118.6368 124.6368 127.9704 132.6408 135.6408 140.9664 146.9664 152.9664 155.9664 159.9624 165.28801 170.61362 175.93923 179.27283 185.27283 190.59844 196.59844 199.59844 203.59444 208.92005 213.59044 219.59044 225.59044 231.59044 236.26084 241.58644 246.25684 249.25684 253.25284 257.24885 263.24885 272.58244 275.58244 281.58244 287.58244 293.58244 296.58244 301.25285 304.58644 310.58644 316.58644 321.91203 327.91203 331.2456 335.91603 338.91603 341.91603 347.2416 352.5672 358.5672 361.9008 367.22639 373.22639 376.55998 382.55998 388.55998 391.55998 396.88557 399.88557 403.88157 409.20716 413.87757 419.87757 425.87757 431.87757 436.54798 441.87358 444.87358 448.86958 454.19517 457.52876 462.85435">approximately 650 students and received responses from 220 students, achieving a response rate </tspan></text>
<text fill="#0e101a" xml:space="preserve" transform="matrix(1 0 -0 1 72 526.248)" font-size="12" font-family="TimesNewRomanPSMT"><tspan y="0" x="0 6 9.996 12.996 18.996 24.996 27.996 33.996004 43.992006 46.992006">of 33.8%. </tspan></text>
<g id="Layer-2" data-name="Span">
<text fill="#0e101a" xml:space="preserve" transform="matrix(1 0 -0 1 72 526.248)" font-size="12" font-family="TimesNewRomanPSMT"><tspan y="0" x="49.99219"> </tspan></text>
</g>
</g>
<g id="Layer-1" data-name="P">
<text fill="#0e101a" xml:space="preserve" transform="matrix(1 0 -0 1 108 555.7383)" font-size="12" font-family="TimesNewRomanPSMT"><tspan y="0" x="0 7.3296 13.329599 18.655201 21.655201 25.651202 30.976803 35.6472 40.9728 46.2984 50.2944 55.62 61.62 66.945598 70.9416 73.9416 79.2672 84.5928 90.5928 96.5928 102.5928 111.2592 114.5928 119.918399 125.918399 131.9184 137.244 141.9144 144.9144 148.248 154.248 159.57361 162.90721 165.90721 171.90721 177.90721 180.90721 186.90721 196.90322 199.90322 203.89922 209.89922 215.89922 221.89922 225.89522 228.89522 234.89522 238.89122 241.89122 245.22483 251.22483 256.5504 259.5504 263.54643 268.872 273.54243 279.54243 285.54243 291.54243 297.54243 302.868 308.868 312.2016 316.872 319.872 325.1976 329.1936 334.5192 337.5192 342.1896 345.5232 351.5232 357.5232 362.8488 368.8488 372.18238 376.85279 379.85279 383.8488 387.8448 393.8448 403.17839 406.17839 411.50398">The researcher acknowledges that 86.8% (191) of the respondents are students from a </tspan></text>
<text fill="#0e101a" xml:space="preserve" transform="matrix(1 0 -0 1 72 585.2285)" font-size="12" font-family="TimesNewRomanPSMT"><tspan y="0" x="0 4.6704 9.996 13.3296 18.655201 23.980803 27.314404 30.314404 36.314405 40.310403 43.644 49.644 54.9696 58.303205 63.628805 66.6288 72.6288 77.9544 83.9544 87.9504 93.276 99.276 108.6096 112.6056 118.6056 124.6056 129.9312 133.9272 139.9272 143.2608 149.2608 155.2608 158.2608 163.58641 169.58641 173.58242 178.90802 184.90802 187.90802 193.90802 197.24163 203.24163 209.24163 212.24163 216.91202 222.23763 228.23763 234.23763 240.23763 243.57123 246.57123 249.90483 255.90483 258.90486 262.90086 268.90086 274.90086 280.90086 284.89686 290.22245 293.22245 296.22245 301.54804 305.32685 309.32286 312.65644 315.99003 319.3236 324.6492 327.9828 333.30839 339.30839 342.30839 350.9748 354.30839 357.64198 363.64198 366.64198 369.97557 375.97557 381.30116 384.30116 392.30516 397.63075 403.63075 406.96434 410.96034 416.28593 419.6195 422.6195 430.6235 436.6235 441.9491 445.9451 451.9451 454.9451 460.9451 464.9411">select private day-cum-boarding co-ed high school in Indore, affiliated with the Central Board of </tspan></text>
<text fill="#0e101a" xml:space="preserve" transform="matrix(1 0 -0 1 72 614.7188)" font-size="12" font-family="TimesNewRomanPSMT"><tspan y="0" x="0 6.674401 12.000001 17.325602 23.325602 29.325602 35.3256 40.6512 44.647199 50.647199 53.647199 60.9768 66.9768 72.9768 78.3024 83.628 86.96159 90.29519 96.29519 102.29519 105.29519 109.29119 117.29519 125.29919 131.97359 139.30319 143.2992 146.2992 149.082 156.4116 162.4116 168.4116 173.082 176.082 179.082 182.4156 188.4156 193.74121 196.74121 201.4116 206.73722 216.07082 222.07082 225.40442 230.73003 233.73003 238.40042 241.73403 247.05963 252.38524 255.38524 264.71885 270.04444 276.04444 279.04444 285.04444 290.37004 293.37004 299.37004 305.37004 311.37004 315.36604 319.36204 324.68763 330.68763 334.68363 340.00923 344.67964 350.00523 356.00523 359.3388 364.6644 367.998 371.33158 377.33158 382.65718 385.65718 391.65718 395.65318 398.65318 401.98677 407.98677 413.31236 416.31236 422.31236 427.63795 433.63795 438.96354 442.95954 448.28514 451.6187">Secondary Education (CBSE). Thus, the sample size may be non-representative of the general </tspan></text>
<text fill="#0e101a" xml:space="preserve" transform="matrix(1 0 -0 1 72 644.209)" font-size="12" font-family="TimesNewRomanPSMT"><tspan y="0" x="0 6 12 18 24 27.333601 32.659204 35.9928 39.326406 45.326406 51.326406 54.326406 56.664007 65.33041 68.664 73.334407 79.334407 82.334407 85.334407 90.66 95.33041 98.33041 101.664 107.664 112.9896 115.9896 121.9896 127.9896 131.32321 134.65682 140.65682 145.98242 148.98242 153.65282 159.65282 163.64882 169.64882 174.97443 180.97443 183.97443 192.64083 197.96643 202.63683 205.63683 209.63283 215.63283 219.62883 228.29523 233.62084 237.61684 243.61684 248.94245 254.94245 257.94245 263.94245 269.94245 273.27604 279.27604 282.27604 285.60963 291.60963 294.60963 299.9352 305.9352 311.9352 315.2688 320.5944 325.91999 329.25358 333.92399 336.92399 342.92399 346.91999 349.91999 353.25358 359.25358 364.57917 367.57917 371.57518 376.90077 381.57118 386.89677 392.22236 396.21836 401.54396 407.54396 412.86955 416.86555 419.86555 425.19114 431.19114 437.19114 440.19114 443.52473 449.52473 454.8503">population. Also, as the online survey was forwarded only to contacts of the researcher and the </tspan></text>
<text fill="#0e101a" xml:space="preserve" transform="matrix(1 0 -0 1 72 673.6992)" font-size="12" font-family="TimesNewRomanPSMT"><tspan y="0" x="0 3.996 9.3216 13.992001 19.317603 24.643204 28.639204 33.964807 39.964807 45.290407 49.286405 51.448804 56.1192 59.1192 63.7896 69.1152 75.1152 81.1152 87.1152 90.44879 93.44879 96.78239 102.10799 107.433589 112.759189 118.759189 124.084789 128.08078 132.75118 135.75118 138.75118 142.08478 148.08478 153.41039 156.41039 160.40639 165.732 170.40239 176.40239 179.736 183.0696 186.0696 195.4032 200.7288 206.7288 209.7288 215.7288 221.05442 224.05442 230.05442 233.38802 238.71363 243.38402 248.70963 254.70963 257.70964 261.0432 267.0432 275.70964 281.03523 285.03123 291.03123 295.70164 298.70164 304.02723 307.02723 313.02723 318.3528 322.34883 325.6824 329.016 334.34159 340.34159 343.67518 349.00077 352.99678 355.99678 360.66719 365.99278 371.99278 381.32637 386.65196 392.65196 395.98554 398.98554 404.98554 408.98155 411.98155 416.65196 422.65196 427.97755 431.31114 436.63673 439.9703 445.1915">researcher's school teachers, the result may be biased towards a particular segment of society.</tspan></text>
<g id="Layer-2" data-name="Span">
<text fill="#0e101a" xml:space="preserve" transform="matrix(1 0 -0 1 72 673.6992)" font-size="12" font-family="TimesNewRomanPSMT"><tspan y="0" x="448.207"> </tspan></text>
</g>
</g>
</g>
</g>
</svg>
