<?xml version="1.0" encoding="UTF-8" standalone="no"?>
<!DOCTYPE svg PUBLIC "-//W3C//DTD SVG 1.1//EN" "http://www.w3.org/Graphics/SVG/1.1/DTD/svg11.dtd">
<svg xmlns="http://www.w3.org/2000/svg" xmlns:xlink="http://www.w3.org/1999/xlink" version="1.1" width="612pt" height="792pt" viewBox="0 0 612 792">
<g enable-background="new">
<clipPath id="cp0">
<path transform="matrix(1,0,0,-1,0,792)" d="M 0 0 L 612 0 L 612 792 L 0 792 Z "/>
</clipPath>
<g clip-path="url(#cp0)">
<path transform="matrix(1,0,0,-1,0,792)" d="M 0 792 L 612 792 L 612 0 L 0 0 Z " fill="#ffffff"/>
<g id="Layer-1" data-name="P">
</g>
<clipPath id="cp1">
<path transform="matrix(1,0,0,-1,0,792)" d="M 68.67773 67.89258 L 543.3222 67.89258 L 543.3222 723.32229 L 68.67773 723.32229 Z "/>
</clipPath>
<g clip-path="url(#cp1)">
<text fill="#0e101a" xml:space="preserve" transform="matrix(1 0 -0 1 95.07715 83.89447)" font-size="12" font-family="TimesNewRomanPS" font-weight="bold"><tspan y="0" x="0 8.666401 13.992002 19.992 26.6664 31.992003 41.988004 45.321607 50.647207 53.647207 60.321607 64.317607 69.42721 74.75281 79.42321 84.09361 87.09361 90.42721 97.101619 100.101619 104.77202 111.44642 118.12083 121.45442 127.45442 134.12882 137.12882 146.46242 149.79602 155.79602 162.47042 165.47042 172.1448 177.47042 184.1448 190.1448 196.1448 199.47841 202.47841 209.1528 213.1488 219.8232 226.49759 231.8232 238.49759 242.49359 247.16399 250.16399 258.83039 265.5048 270.83039 274.16398 280.83839 286.83839 289.83839 293.83439 300.5088 305.83439 308.83439 317.5008 326.83439 335.5008 340.1712 348.83763 352.83363 358.83363 364.83363 367.83363 375.83763 381.83763 387.1632 393.83763 400.51203 406.51203 415.17845">Academic Stress in Indian High School Students During the COVID-19 Lockdown</tspan></text>
<g id="Layer-2" data-name="Span">
<text fill="#0e101a" xml:space="preserve" transform="matrix(1 0 -0 1 95.07715 83.89447)" font-size="12" font-family="TimesNewRomanPSMT"><tspan y="0" x="421.8457"> </tspan></text>
</g>
</g>
<g id="Layer-1" data-name="P">
<text fill="#0e101a" xml:space="preserve" transform="matrix(1 0 -0 1 108 113.38483)" font-size="12" font-family="TimesNewRomanPSMT"><tspan y="0" x="0 3.996 9.996 12.996 18.996 24.996 30.996 36.996004 39.996004 42.996004 46.3296 52.3296 57.6552 60.6552 67.329608 72.655208 76.65121 79.9848 83.3184 88.644 97.97759 103.30319 109.30319 112.63679 115.63679 121.63679 125.63279 128.63278 132.62879 138.62879 144.62879 147.96239 153.288 156.288 162.288 167.6136 172.284 176.95439 182.28 188.28 191.28 194.6136 200.6136 205.93921 208.93921 216.9432 220.27681 226.27681 232.27681 235.61042 238.61042 241.94402 247.94402 250.94402 258.2736 264.2736 270.2736 275.59919 280.92478 284.25837 287.59196 293.59196 299.59196 301.92955 310.59596 315.92155 319.25514 322.25514 326.25114 333.53395 340.86354 348.1931 352.18913 355.18913 358.18913 361.5227 364.8563 369.5267 372.8603 376.19389 382.19389 388.19389 391.19389 397.19389 403.19389 408.51948 411.85307 415.18666 418.52024 424.52024">In 2009, the Parliament of India passed the Right to Education Act (RTE), listing quality </tspan></text>
<text fill="#0e101a" xml:space="preserve" transform="matrix(1 0 -0 1 72 142.875)" font-size="12" font-family="TimesNewRomanPSMT"><tspan y="0" x="0 5.3256008 11.325601 17.3256 22.651202 27.976803 31.310404 34.644006 40.644006 46.644006 49.644006 54.969606 59.640005 62.640005 67.9656 70.9656 74.9616 80.9616 86.9616 92.9616 98.2872 107.6208 112.946399 118.946399 122.27999 127.60559 130.9392 133.9392 137.9352 141.2688 147.2688 153.2688 156.6024 159.6024 163.5984 169.5984 173.5944 176.5944 181.92002 185.25362 188.58722 191.58722 196.91283 202.91283 206.24643 209.58003 215.58003 219.57604 224.90164 230.90164 233.90164 239.90164 245.22725 248.56085 257.22727 262.55287 267.87846 273.87846 276.87846 280.21205 286.21205 291.53764 294.53764 299.86323 305.86323 311.1888 315.85923 318.85923 324.85923 328.85523 331.85523 337.85523 341.85124 347.85124 353.85124 356.85124 359.63404 366.96363 372.96363 378.2892 381.2892 391.95964 395.2932 401.2932 404.6268 409.2972 412.6308 416.6268 422.6268 425.6268 431.6268 435.6228">education as a fundamental right for all children between the ages of 6-14. The Ministry of </tspan></text>
<text fill="#0e101a" xml:space="preserve" transform="matrix(1 0 -0 1 72 172.36518)" font-size="12" font-family="TimesNewRomanPSMT"><tspan y="0" x="0 8.666401 14.666401 24.000002 29.325604 35.325605 38.325605 46.329607 51.655206 56.325605 62.325605 68.32561 72.32161 77.64721 82.97281 85.97281 94.63921 99.96481 105.96481 111.29041 114.62401 120.62401 126.62401 135.95761 141.28322 147.28322 150.61682 153.61682 156.61682 165.28322 171.28322 177.28322 182.60883 186.60483 192.60483 201.93843 207.26404 213.26404 216.59764 219.59764 225.59764 229.59365 232.59365 236.58965 242.58965 248.58965 251.92325 257.24885 260.24885 263.24885 267.91926 271.25285 276.57844 279.91203 285.2376 289.90803 292.90803 296.2416 302.2416 307.5672 310.9008 313.9008 317.23439 323.23439 328.55998 331.55998 337.55998 343.55998 347.55598 353.55598 359.55598 364.22639 369.55198 372.55198 378.55198 382.54798 385.54798 388.88157 394.88157 400.20716 403.20716 410.48997 417.81956 425.14915 427.48674 436.15315 441.47874 444.81233 447.81233 451.1459 455.8163">Human Resource Development, Government of India, states that the purpose of the RTE Act is </tspan></text>
<text fill="#0e101a" xml:space="preserve" transform="matrix(1 0 -0 1 72 201.85553)" font-size="12" font-family="TimesNewRomanPSMT"><tspan y="0" x="0 3.3336006 9.333601 12.333601 17.232 22.557602 28.557602 33.228 39.228 43.224 48.5496 51.5496 54.883199 60.883199 66.20879 69.20879 74.53439 77.86799 81.201587 85.197589 89.19359 95.19359 101.19359 107.19359 113.19359 116.19359 122.19359 127.51919 133.5192 138.8448 142.1784 148.1784 154.1784 163.51201 168.83762 174.83762 178.17122 181.17122 187.17122 191.16722 194.16722 197.50083 203.50083 208.82643 211.82643 217.15204 223.15204 226.48564 229.81925 235.81925 238.81925 241.81925 247.81925 253.81925 257.15284 260.48643 266.48643 269.82 275.82 281.82 284.82 290.82 296.82 299.82 303.1536 309.1536 314.4792 317.4792 322.80479 328.80479 332.13838 335.47196 341.47196 343.63438 348.30479 351.30479 357.30479 363.30479 369.30479 377.9712 381.30479 386.63038 392.63038 398.63038 403.95597 406.95597 409.95597 415.95597 421.95597 425.28956 430.61515 436.61515 439.94874 443.28233 448.6079 451.9415 455.2751 458.60868 464.60868">to "ensure the all-round development of the child, building on the child's knowledge, potentiality </tspan></text>
<text fill="#0e101a" xml:space="preserve" transform="matrix(1 0 -0 1 72 231.3457)" font-size="12" font-family="TimesNewRomanPSMT"><tspan y="0" x="0 5.3256008 11.325601 17.3256 20.3256 23.6592 28.984803 32.3184 37.644 43.644 46.977605 49.977605 55.303205 61.303205 67.30321 70.30321 79.6368 84.9624 90.9624 94.296 100.296 106.296 109.296 112.62959 118.62959 123.95519 126.95519 132.28079 138.28079 141.6144 144.948 150.948 153.948 157.944 161.94 167.26561 172.59122 175.59122 181.59122 185.58722 188.58722 192.58322 197.90883 203.23444 206.75045 209.75045 212.75045 216.08405 220.08005 225.40566 231.40566 240.73926 246.06487 249.06487 254.39048 260.39048 266.39048 269.39048 274.71607 280.71607 286.71607 290.04966 295.37525 298.70884 304.70884 307.70884 311.04243 317.04243 321.03843 327.03843 333.03843 339.03843 345.03843 348.03843 353.364 356.364 361.03443 367.03443 371.70484 375.03843 380.364 389.6976 392.6976 398.6976 402.6936 405.6936 411.0192 417.0192 420.35279 423.68638 429.68638">and talent and making the child free of fear, trauma and anxiety through a system of child-</tspan></text>
<text fill="#0e101a" xml:space="preserve" transform="matrix(1 0 -0 1 72 260.83589)" font-size="12" font-family="TimesNewRomanPSMT"><tspan y="0" x="0 3.996 7.992 11.325601 16.651202 22.651202 28.651202 31.984803 37.984804 40.984804 46.310403 52.310403 58.310403 61.310403 66.636 72.636 75.9696 79.30319 85.30319 89.299198 94.624797 99.95039 105.95039 109.28399 113.27999 118.60559 124.60559 127.60559 130.9392 136.2648 141.59041 145.58641 151.58641 154.92002 160.92002 166.92002 171.8184 174.8184 178.8144 187.4808 192.80641 198.80641 204.13202 208.12802 211.46163 220.79523 226.12084 232.12084 235.45444 238.45444 244.45444 248.45044 251.45044 258.12486 263.45045 269.45045 275.45045 281.45045 284.78404 287.78404 295.11363 301.11363 307.11363 312.4392 317.7648 321.0984 324.43199 330.43199 336.43199 339.43199 348.76557 351.76557 359.09516 362.42875 365.76234 371.08793 375.08393 380.40953 385.7351 390.9563 393.9563 396.9563 402.9563 408.9563 414.9563 420.9563 424.9523 427.9523">friendly and child-centred learning" (Department of School Education &#x0026; Literacy, 2019). </tspan></text>
<text fill="#0e101a" xml:space="preserve" transform="matrix(1 0 -0 1 72 290.3262)" font-size="12" font-family="TimesNewRomanPSMT"><tspan y="0" x="0 8.666401 14.666401 23.332802 28.658404 34.6584 39.984 43.5 46.5 49.5 53.496 57.491998 63.491998 72.82559 75.82559 79.15919 85.15919 88.49278 93.163188 96.163188 100.15919 105.48479 110.15519 115.48079 120.80639 124.80239 130.12799 136.12799 141.4536 145.4496 147.612 152.2824 155.2824 161.2824 166.608 170.604 175.2744 181.2744 187.2744 192.6 195.93361 198.93361 204.25922 210.25922 216.25922 221.58483 225.58083 228.91443 234.24004 240.24004 245.56565 250.89125 253.89125 256.89125 262.21684 268.21684 274.21684 277.21684 282.54243 287.21284 290.21284 294.20884 299.53443 305.53443 311.53443 315.53044 318.864 324.1896 330.1896 333.1896 336.5232 342.5232 345.5232 351.5232 357.5232 366.85679 372.18238 376.17839 382.17839 388.17839 392.8488 395.8488 399.8448 405.17039 409.8408 415.16639 420.49198 424.48799 429.81358 435.81358">However, from this researcher's personal experience, and as reported in numerous research </tspan></text>
<text fill="#0e101a" xml:space="preserve" transform="matrix(1 0 -0 1 72 319.8164)" font-size="12" font-family="TimesNewRomanPSMT"><tspan y="0" x="0 4.6704 8.004001 14.004001 20.004002 23.337603 28.663205 33.333604 36.333604 39.333604 42.667203 48.667203 53.9928 56.9928 60.9888 66.9888 72.9888 76.322399 81.647998 87.647998 90.647998 95.973598 101.973598 107.973598 113.299198 118.624797 121.95839 125.291988 131.29199 137.29199 140.29199 144.96239 150.96239 155.63278 158.96639 164.29199 173.6256 176.6256 179.9592 189.2928 195.2928 201.2928 205.9632 211.2888 215.9592 218.9592 224.2848 227.2848 236.61841 241.94402 246.61441 251.2848 254.61841 260.6184 265.944 268.944 272.2776 278.2776 283.60319 289.60319 292.60319 298.60319 302.59919 305.59919 311.59919 315.59519 320.92079 325.5912 330.2616 336.2616 340.2576 345.5832 348.5832 353.90879 359.90879 365.90879 368.90879 374.23439 380.23439 386.23439 389.56797 394.89356 398.22715 404.22715 407.22715 413.22715 419.22715 422.22715 426.89756 430.23115 436.23115 442.23115 447.55674 453.55674 456.89033 461.56074">studies, the Indian education system imposes a massive load of pressure and anxiety on students </tspan></text>
<text fill="#0e101a" xml:space="preserve" transform="matrix(1 0 -0 1 72 349.3066)" font-size="12" font-family="TimesNewRomanPSMT"><tspan y="0" x="0 6 12 17.325602 20.325602 23.659203 29.659203 32.659204 38.659204 43.984804 47.9808 51.314405 57.314405 63.314405 67.98481 70.98481 74.98081 80.30641 85.63201 88.96561 94.96561 98.96161 103.63201 106.63201 109.96561 115.96561 118.96561 122.2992 125.6328 130.30319 133.30319 138.6288 144.6288 149.9544 159.28801 162.62162 168.62162 173.94722 177.28083 180.61443 186.61443 192.61443 196.61043 202.61043 206.60643 209.94004 215.26564 221.26564 224.59925 229.92485 235.92485 238.92485 244.25046 250.25046 256.25047 260.24647 266.24647 271.57206 276.89765 282.89765 285.89765 289.23124 295.23124 298.23124 301.56483 306.8904 312.216 316.212 322.212 325.5456 331.5456 337.5456 340.5456 344.5416 353.208 358.5336 364.5336 367.5336 372.8592 376.19279 379.19279 384.51838 387.85197 390.85197 393.85197 396.85197 402.85197 408.85197 414.85197 420.85197 424.18556 427.18556 435.85197 441.85197 451.18556 456.51115 460.50715">due to various factors in its examination-oriented approach to learning (Deb et al., 2015; Kumar </tspan></text>
<text fill="#0e101a" xml:space="preserve" transform="matrix(1 0 -0 1 72 378.7969)" font-size="12" font-family="TimesNewRomanPSMT"><tspan y="0" x="0 9.3336 12.1164 18.608399 23.934 27.267601 35.934003 41.2596 44.7756 47.7756 50.7756 56.7756 62.7756 68.775608 74.775608 78.1092 81.1092 87.78361 93.10921 97.10521 100.438808 106.438808 112.438808 115.438808 120.764408 124.098 127.098 132.4236 135.7572 138.7572 141.7572 144.7572 150.7572 156.7572 162.7572 168.7572 172.0908 174.87361 182.20922 187.53482 191.53083 200.86443 206.19004 209.19004 214.51564 217.84925 220.84925 226.17485 229.50846 232.50846 235.50846 238.50846 244.50846 250.50846 256.50846 262.50846 266.50447">&#x0026; Talwar, 2014; Parikh et al., 2019; Verma et al., 2002).</tspan></text>
<g id="Layer-2" data-name="Span">
<text fill="#0e101a" xml:space="preserve" transform="matrix(1 0 -0 1 72 378.7969)" font-size="12" font-family="TimesNewRomanPSMT"><tspan y="0" x="269.5137"> </tspan></text>
</g>
</g>
<g id="Layer-1" data-name="P">
<text fill="#0e101a" xml:space="preserve" transform="matrix(1 0 -0 1 108 408.2871)" font-size="12" font-family="TimesNewRomanPSMT"><tspan y="0" x="0 7.3296 13.329599 18.655201 21.655201 25.651202 31.651202 37.6512 40.9848 46.3104 52.3104 55.3104 60.635999 66.636 72.636 77.9616 83.2872 86.6208 89.95439 95.95439 101.95439 104.95439 109.624797 115.624797 120.2952 123.62879 128.95439 138.288 141.288 144.6216 149.29199 152.29199 155.6256 160.9512 166.9512 170.2848 176.2848 182.2848 188.2848 194.2848 198.2808 204.2808 208.27681 211.61042 216.93602 222.93602 226.26963 231.59523 237.59523 240.59523 245.92084 251.92084 257.92085 260.92085 264.91685 270.91685 276.24244 282.24244 286.91285 292.23844 296.90885 299.90885 305.90885 311.90885 314.90885 318.90486 324.90486 328.23844 333.56404 336.56404 339.8976 345.2232 350.5488 354.5448 360.5448 363.8784 369.8784 375.8784 378.8784 388.21199 393.53758 396.87117 402.87117 408.87117 414.87117 419.54158 422.54158 425.87516 431.87516">The Indian education system is textbook-oriented and focuses on rote learning methods to </tspan></text>
<text fill="#0e101a" xml:space="preserve" transform="matrix(1 0 -0 1 72 437.7773)" font-size="12" font-family="TimesNewRomanPSMT"><tspan y="0" x="0 5.3256008 11.325601 16.651202 25.984803 29.318404 35.318407 40.644006 43.644006 48.969606 54.969606 60.969606 63.969606 69.295207 75.295207 80.620807 83.9544 89.9544 95.28 98.613597 103.93919 106.93919 111.6096 114.94319 120.94319 126.94319 132.2688 138.2688 141.6024 146.2728 149.2728 153.2688 161.9352 167.2608 173.2608 176.2608 181.58641 184.92002 187.92002 193.24562 196.57923 199.57923 202.57923 205.57923 211.57923 217.57923 223.57923 229.57923 232.91283 235.69564 243.03124 248.35684 252.35285 261.68644 267.01203 270.01203 275.33763 278.6712 281.6712 286.9968 290.33039 293.33039 296.33039 299.33039 305.33039 311.33039 317.33039 323.33039 327.3264 330.3264 333.1092 340.43879 346.43879 351.76438 354.76438 363.4308 368.75639 372.08998 375.42356 381.42356 387.42356 392.74916 396.08274 398.42033 407.08674 413.08674 419.08674 422.42033 427.09074 433.09074 437.08674 443.08674">examine and evaluate students (Deb et al., 2015; Verma et al., 2002). The National Advisory </tspan></text>
<text fill="#0e101a" xml:space="preserve" transform="matrix(1 0 -0 1 72 467.2676)" font-size="12" font-family="TimesNewRomanPSMT"><tspan y="0" x="0 8.004001 14.004001 23.3376 32.6712 36.004804 39.338407 42.67201 47.99761 53.323209 56.323209 60.319208 66.31921 72.31921 78.31921 84.31921 88.31521 91.31521 95.98561 99.31921 104.644809 107.9784 113.304 119.304 122.304 125.637599 131.6376 136.96321 140.29682 143.29682 146.63042 152.63042 157.95603 160.95603 165.62642 168.96002 174.96002 178.29363 183.61923 186.61923 191.94484 197.94484 203.94484 206.94484 212.27045 218.27045 224.27045 227.60405 232.92966 238.92966 242.26326 245.26326 251.26326 255.25926 258.25929 261.59288 267.59288 272.91847 275.91847 280.58888 285.91447 291.91447 297.91447 303.91447 307.24806 310.24806 313.58164 318.90724 324.90724 328.2408 334.2408 340.2408 346.2408 352.2408 356.91123 359.91123 365.23683 371.23683 377.23683 380.23683 384.23283 389.5584 393.5544 398.88 402.876 408.2016 414.2016 419.5272 424.85279 427.85279 433.85279 439.85279 445.85279 451.85279 456.5232">Committee (1993) stated that the style and content of the school textbooks and reference books </tspan></text>
<text fill="#0e101a" xml:space="preserve" transform="matrix(1 0 -0 1 72 496.7578)" font-size="12" font-family="TimesNewRomanPSMT"><tspan y="0" x="0 3.996 9.996 15.321601 21.321602 25.992 28.992 34.3176 40.3176 45.6432 48.976804 54.976804 59.6472 62.9808 68.980808 74.306407 77.64 83.64 86.64 92.64 98.64 101.64 104.973598 110.973598 116.299198 119.299198 123.9696 127.30319 133.30319 139.30319 144.6288 150.6288 153.9624 158.6328 160.7952 163.7952 169.1208 175.1208 178.4544 181.78801 185.12162 188.45522 194.45522 197.45522 200.78882 206.78882 209.78882 213.78482 219.11043 225.11043 229.10643 235.10643 241.10643 247.10643 252.43204 257.75764 260.75764 264.75364 270.07923 275.40483 278.7384 283.4088 286.4088 291.7344 297.7344 303.7344 306.7344 310.068 316.068 320.064 326.064 330.06 339.3936 344.71919 348.05278 351.38636 357.38636 363.38636 366.38636 369.71995 375.71995 378.71995 384.71995 390.04554 393.37913 399.37913 402.37913 407.04954 410.38313 416.38313 422.38313 427.7087 433.7087 437.0423 441.7127">focus exclusively on the students' ability to reproduce facts and information to help students </tspan></text>
<text fill="#0e101a" xml:space="preserve" transform="matrix(1 0 -0 1 72 526.248)" font-size="12" font-family="TimesNewRomanPSMT"><tspan y="0" x="0 5.3256008 11.325601 16.651202 21.976803 25.310404 28.310404 31.644005 37.644006 40.644006 45.969606 51.969606 57.295206 66.6288 69.962398 75.962398 81.287998 84.62159 87.955188 93.955188 99.955188 104.62559 107.62559 110.62559 117.299999 123.299999 127.296 130.62961 136.62961 141.95522 145.95122 155.28482 161.28482 165.28083 170.60643 173.60643 176.60643 179.94004 185.94004 191.26564 194.26564 200.26564 205.59125 210.26165 213.59525 216.59525 221.26564 227.26564 230.59925 233.93285 239.25846 245.25846 251.25846 255.92885 258.92884 262.26243 268.26243 273.588 276.9216 282.9216 288.9216 294.2472 300.2472 303.2472 306.58079 312.58079 315.58079 318.91438 324.91438 330.23997 334.91038 340.23597 343.23597 349.23597 355.23597 361.23597 367.23597 371.90638 374.90638 378.90238 384.90238 388.89839 394.22398 399.54957 404.21998 407.21998 410.55357 415.87916 421.20475 426.53034 432.53034 437.85594 441.85194 446.52235 449.52235 452.85594 458.85594">excel in examinations. Furthermore, the vast syllabus included in these books forces teachers to </tspan></text>
<text fill="#0e101a" xml:space="preserve" transform="matrix(1 0 -0 1 72 555.7383)" font-size="12" font-family="TimesNewRomanPSMT"><tspan y="0" x="0 3.996 9.996 14.666401 20.6664 23.6664 27.000002 33 36.996 42.996 48.996 54.996 60.996 63.996 67.3296 73.3296 78.6552 81.6552 86.3256 92.3256 95.659198 98.99279 104.31839 110.31839 116.31839 120.98879 123.98879 127.32239 133.32239 136.32239 141.648 147.648 156.9816 162.9816 166.3152 171.64081 174.97441 180.30002 183.30002 186.63362 192.63362 197.95923 200.95923 206.28484 212.28484 218.28484 222.28084 226.95124 232.27684 235.27684 238.61045 244.61045 247.61045 250.94405 254.27765 263.61125 268.93684 271.93684 274.93684 280.93684 284.93284 288.26643 293.592 299.592 302.592 308.592 311.9256 316.596 320.592 325.9176 331.9176 337.2432 341.2392 347.2392 350.57279 356.57279 362.57279 365.57279 368.90638 374.90638 380.23197 383.23197 388.55757 394.55757 403.89115 409.89115 413.88716 419.21275 425.21275 430.53834 436.53834 441.20875 444.54234 450.54234 456.54234">rush through the syllabus to complete the course in time, often disregarding the comprehension </tspan></text>
<text fill="#0e101a" xml:space="preserve" transform="matrix(1 0 -0 1 72 585.2285)" font-size="12" font-family="TimesNewRomanPSMT"><tspan y="0" x="0 3.3336006 8.659201 14.659201 19.984803 23.318404 26.318404 32.318407 36.314405 39.314405 43.984804 47.3184 53.3184 59.3184 64.644 70.644 73.97759 78.647998 81.647998 85.644 93.647998 98.973598 108.30719 113.63279 118.30319 124.30319 127.30319 130.30319 136.30319 142.30319 148.30319 154.30319 158.2992 161.2992 164.082 171.4116 177.4116 183.4116 188.082 191.082 194.082 199.40761 205.40761 211.40761 216.73322 222.05883 225.39243 228.72603 234.72603 240.72603 243.72603 247.05963 253.05963 256.05964 260.05564 266.05564 272.05564 275.38923 280.7148 283.7148 289.7148 295.0404 299.71083 302.71083 308.71083 314.0364 319.362 325.362 334.6956 340.02119 343.02119 348.34678 351.34678 360.68037 366.00596 371.33155 377.33155 382.00196 385.00196 388.33555 394.33555 397.33555 403.33555 407.33155 412.65715 418.65715 423.98274 427.97874 433.30433">level of students (Ramesh, 2017). Thus, education in India has become a means to prepare </tspan></text>
<text fill="#0e101a" xml:space="preserve" transform="matrix(1 0 -0 1 72 614.7188)" font-size="12" font-family="TimesNewRomanPSMT"><tspan y="0" x="0 4.6704 8.004001 14.004001 20.004002 25.329604 31.329604 34.663206 39.333604 42.333604 46.3296 52.3296 56.3256 59.3256 64.6512 70.6512 75.9768 85.310398 89.9808 92.9808 96.9768 102.3024 105.635997 111.635997 116.96159 120.957599 123.957599 127.29119 133.2912 138.6168 144.6168 147.6168 150.95041 154.28401 158.28002 163.60562 166.60562 169.93923 173.27283 177.94322 183.26883 186.60243 190.59844 193.59844 196.59844 200.59444 206.59444 209.59444 213.59044 218.91605 224.24166 227.57526 230.57526 233.57526 236.90886 242.90886 248.23447 251.23447 257.90888 261.90489 267.23048 270.56407 276.56407 281.88966 291.22325 294.22325 301.55284 307.55284 313.55284 318.87843 324.204 327.5376 330.8712 336.8712 342.8712 345.8712 352.5456 358.5456 364.5456 370.5456 376.5456 381.8712 385.20478 388.53837 394.53837 400.53837 403.53837 407.53437 413.53437 419.53437 425.53437 431.53437 435.53038">students for exams rather than life itself. In fact, the Pratham Education Foundation (2018) </tspan></text>
<text fill="#0e101a" xml:space="preserve" transform="matrix(1 0 -0 1 72 644.209)" font-size="12" font-family="TimesNewRomanPSMT"><tspan y="0" x="0 3.996 9.3216 15.3216 21.3216 25.3176 28.651202 33.976804 39.976804 42.976804 46.310407 52.310407 57.636007 60.96961 63.96961 69.969608 75.969608 85.96561 88.96561 94.96561 98.96161 101.96161 107.96161 111.295207 117.295207 121.29121 127.29121 131.2872 136.61281 142.61281 147.93842 150.93842 155.60881 158.94242 164.94242 170.94242 176.26802 182.26802 185.60163 190.27202 193.27202 196.60562 202.60562 205.60562 209.60163 215.60163 221.60163 224.93523 230.26084 233.26084 238.58644 244.58644 250.58644 253.92005 259.92005 262.92005 268.92005 274.92005 278.25364 281.25364 287.25364 292.57923 296.57524 300.57124 306.57124 310.56724 319.90083 322.90083 328.90083 334.2264 338.89683 342.2304 347.556 350.556 359.8896 365.21519 368.54878 374.54878 379.21919 382.21919 388.21919 394.21919 399.54478 403.54078 408.86637 412.19996 415.53355 421.53355 427.53355 432.20396 435.20396 439.19996 444.52555 447.52555 453.52555 456.52555 459.52555">reported that 56% of 8th-grade students in India could not perform basic maths operations (e.g., </tspan></text>
<text fill="#0e101a" xml:space="preserve" transform="matrix(1 0 -0 1 72 673.6992)" font-size="12" font-family="TimesNewRomanPSMT"><tspan y="0" x="0 6 9.3336 15.3336 18.667202 24.667202 28.000803 34.0008 40.0008 43.0008 46.3344 52.3344 56.3304 61.656 66.9816 70.9776 76.9776 80.311199 86.311199 89.64479 92.978389 95.978389 101.978389 107.978389 117.31198 123.31198 128.63759 132.63359 137.30399 140.30399 146.30399 152.30399 155.30399 160.6296 163.6296 169.6296 175.6296 180.9552 184.9512 190.9512 194.2848 200.2848 203.61841 206.95201 209.95201 215.95201 221.95201 231.28562 237.28562 242.61122 246.60723 250.60323 253.60323 256.6032 265.26963 271.26963 274.6032 277.9368 283.2624 286.2624 292.2624 298.2624 308.2584 311.2584 317.2584 321.2544 324.2544 330.2544 333.58799 339.58799 343.58399 349.58399 353.58 358.90559 364.90559 370.23118 373.23118 377.90159 381.23518 387.23518 393.23518 398.56077 404.56077 407.89436 412.56477 415.56477 420.89036 426.89036 432.89036 436.22395 442.22395 445.22395 451.22395 457.22395 460.55754">dividing three-digit numbers by a one-digit number), while 27% of 8th-grade students could not </tspan></text>
<text fill="#0e101a" xml:space="preserve" transform="matrix(1 0 -0 1 72 703.18948)" font-size="12" font-family="TimesNewRomanPSMT"><tspan y="0" x="0 3.996 9.3216 14.647201 20.647202">read.</tspan></text>
<g id="Layer-2" data-name="Span">
<text fill="#0e101a" xml:space="preserve" transform="matrix(1 0 -0 1 72 703.18948)" font-size="12" font-family="TimesNewRomanPSMT"><tspan y="0" x="23.64844"> </tspan></text>
</g>
</g>
</g>
</g>
</svg>
