<?xml version="1.0" encoding="UTF-8" standalone="no"?>
<!DOCTYPE svg PUBLIC "-//W3C//DTD SVG 1.1//EN" "http://www.w3.org/Graphics/SVG/1.1/DTD/svg11.dtd">
<svg xmlns="http://www.w3.org/2000/svg" xmlns:xlink="http://www.w3.org/1999/xlink" version="1.1" width="612pt" height="792pt" viewBox="0 0 612 792">
<g enable-background="new">
<clipPath id="cp280">
<path transform="matrix(1,0,0,-1,0,792)" d="M 0 0 L 612 0 L 612 792 L 0 792 Z "/>
</clipPath>
<g clip-path="url(#cp280)">
<path transform="matrix(1,0,0,-1,0,792)" d="M 0 792 L 612 792 L 612 0 L 0 0 Z " fill="#ffffff"/>
<g id="Layer-1" data-name="P">
<g id="Layer-2" data-name="P">
</g>
<clipPath id="cp281">
<path transform="matrix(1,0,0,-1,0,792)" d="M 68.67773 72 L 543.3222 72 L 543.3222 723.3223 L 68.67773 723.3223 Z "/>
</clipPath>
<g clip-path="url(#cp281)">
<text xml:space="preserve" transform="matrix(1 0 -0 1 72 83.89447)" font-size="12" font-family="TimesNewRomanPSMT"><tspan y="0" x="0 6.674401 12.000001 15.996001 19.329602 25.329602 31.329602 34.3296 37.3296 45.333604 48.333604 51.333604 54.333604 61.008005 66.3336 72.3336 76.329608 82.329608 85.329608 88.329608 99.00001 102.00001 105.00001 108.00001 116.66641 120.662418 123.99601 128.66641 134.66641 140.66641 145.99202 148.99202 151.99202 162.66242 165.66242 168.66242 171.66242 179.66641 185.66641 189.00002 192.33362 198.33362 203.65923 207.65523 212.32563 215.32563 218.32563 223.66922 226.66922 229.66922 232.66922 239.34362 244.66922 248.00283 253.32843 256.66203 259.66203 262.44483 269.56443 272.56443 275.56443 278.56443 287.898 290.898 301.56843 304.902 310.2276 316.2276 321.5532 324.88679 329.5572 335.5572 341.5572 344.5572 347.5572 356.2236 359.2236 362.2236 366.2196 372.2196 378.2196 384.2196 390.2196 394.2156 397.2156 400.2156 405.5412 409.5372 412.8708 415.8708 419.20439 423.8748 426.8748 430.20838 433.54197 439.54197 444.86756 447.86756 453.19316">Parikh, R., Sapru, M., Krishna, M., Cuijpers, P., Patel, V., &#x0026; Michelson, D. (2019). &#x201c;It is like a </tspan></text>
</g>
<g id="Layer-2" data-name="P">
<text xml:space="preserve" transform="matrix(1 0 -0 1 108 113.38483)" font-size="12" font-family="TimesNewRomanPSMT"><tspan y="0" x="0 9.3336 12.6672 18.6672 24.6672 27.6672 32.9928 36.326406 39.660009 44.985609 50.311208 56.311208 61.636808 64.970409 67.970409 72.64081 75.9744 79.970409 85.296009 89.96641 94.63681 97.63681 102.96241 108.96241 114.96241 117.96241 123.28801 129.28801 135.28801 138.62162 144.62162 150.62162 153.62162 158.94722 168.28083 174.28083 180.28083 186.28083 189.28083 195.28083 199.27683 205.27683 210.60243 216.60243 219.60243 224.27283 229.59844 235.59844 241.59844 247.59844 250.93204 254.92804 260.92805 266.92805 270.26164 276.26164 282.26164 285.26164 290.58723 296.58723 302.58723 305.9208 311.2464 315.9168 321.2424 326.568 332.568 335.90159 340.572 343.572 346.90559 352.90559 355.90559 359.90159 365.90159 371.90159 375.23518 380.56077 383.56077">mind attack&#x201d;: stress and coping among urban school-going adolescents in India. </tspan></text>
</g>
<g id="Layer-2" data-name="P">
<text xml:space="preserve" transform="matrix(1 0 -0 1 108 113.38483)" font-size="12" font-family="TimesNewRomanPS" font-style="italic"><tspan y="0" x="386.5723 393.9019 403.8979 411.9019">BMC </tspan></text>
</g>
<g id="Layer-2" data-name="P">
<text xml:space="preserve" transform="matrix(1 0 -0 1 108 142.875)" font-size="12" font-family="TimesNewRomanPS" font-style="italic"><tspan y="0" x="0 7.3296 12.000001 17.325602 22.651204 28.651204 34.651205 37.984807 43.984807 49.984807 54.649206 57.649206 60.649206">Psychology, 7</tspan></text>
</g>
<g id="Layer-2" data-name="P">
<text xml:space="preserve" transform="matrix(1 0 -0 1 108 142.875)" font-size="12" font-family="TimesNewRomanPSMT"><tspan y="0" x="66.65039 69.65039 71.98799 80.654399 84.6504 87.98399 91.31759 96.64319 99.97678 105.30238 108.30238 114.30238 120.30238">, Article 31.</tspan></text>
</g>
<g id="Layer-2" data-name="P">
<text fill="#0e101a" xml:space="preserve" transform="matrix(1 0 -0 1 108 142.875)" font-size="12" font-family="TimesNewRomanPSMT"><tspan y="0" x="123.3047"> </tspan></text>
</g>
<g id="Layer-2" data-name="P">
<text fill="#4a6ee0" xml:space="preserve" transform="matrix(1 0 -0 1 108 142.875)" font-size="12" font-family="TimesNewRomanPSMT"><tspan y="0" x="126.3047 132.3047 135.6383 138.97191 144.97191 149.6423 152.9759 156.30951 159.64311 165.64311 171.64311 174.97672 177.97672 183.97672 187.75553 193.75553 197.08913 203.08913 209.08913 212.08913 217.64392 223.64392 229.64392 235.64392 238.97753 243.64792 249.64792 255.64792 261.64793 267.64793 273.64793 277.64393 283.64393 289.64393 295.64393 299.63993 305.63993 311.63993 317.63993 323.63993 327.63594">https://doi.org/10.1186/s40359-019-0306-z</tspan></text>
</g>
<g id="Layer-2" data-name="P">
<g id="Layer-3" data-name="Span">
<text fill="#0e101a" xml:space="preserve" transform="matrix(1 0 -0 1 108 142.875)" font-size="12" font-family="TimesNewRomanPSMT"><tspan y="0" x="332.9648"> </tspan></text>
</g>
</g>
</g>
<g id="Layer-1" data-name="P">
<g id="Layer-2" data-name="P">
<text xml:space="preserve" transform="matrix(1 0 -0 1 72 172.36518)" font-size="12" font-family="TimesNewRomanPSMT"><tspan y="0" x="0 6.674401 10.670401 15.996001 19.329602 25.329602 30.655203 39.988805 42.988805 50.318407 56.318407 62.318407 67.644008 72.969608 76.3032 79.636798 85.636798 91.636798 94.636798 101.311199 107.311199 113.311199 119.311199 125.311199 130.6368 133.9704 137.304 143.304 149.304 152.304 155.304 159.3 165.3 171.3 177.3 183.3 187.296 190.296">Pratham Education Foundation. (2018). </tspan></text>
</g>
<g id="Layer-2" data-name="P">
<text xml:space="preserve" transform="matrix(1 0 -0 1 72 172.36518)" font-size="12" font-family="TimesNewRomanPS" font-style="italic"><tspan y="0" x="193.3008 200.6304 206.6304 212.6304 218.6304 224.6304 227.964 230.964 238.29361 243.61922 249.61922 255.61922 260.28965 263.62324 266.62324 272.62324 278.62324 284.62324 290.62324 294.61924 300.61924">Annual Report 2018-19</tspan></text>
</g>
<g id="Layer-2" data-name="P">
<text xml:space="preserve" transform="matrix(1 0 -0 1 72 172.36518)" font-size="12" font-family="TimesNewRomanPSMT"><tspan y="0" x="306.6211 309.6211">. </tspan></text>
</g>
<g id="Layer-2" data-name="P">
<text fill="#4a6ee0" xml:space="preserve" transform="matrix(1 0 -0 1 72 172.36518)" font-size="12" font-family="TimesNewRomanPSMT"><tspan y="0" x="312.6211 318.6211 321.95469 325.28828 331.28828 335.95869 339.29228 342.62586 345.95945 354.62586 363.29228 371.17869 374.17869 380.17869 384.17469 389.50028 392.83387 398.83387 404.15946 413.49305 416.49305 422.49305 426.27186 432.27186 435.60545 440.93104 444.92704">https://www.pratham.org/ar/</tspan></text>
</g>
<g id="Layer-2" data-name="P">
<text fill="#4a6ee0" xml:space="preserve" transform="matrix(1 0 -0 1 108 201.85553)" font-size="12" font-family="TimesNewRomanPSMT"><tspan y="0" x="0 5.3256008 9.321601 15.321601 21.321602 27.321602 33.3216 36.3216 42.3216 48.3216">ar1819.pdf</tspan></text>
</g>
<g id="Layer-2" data-name="P">
<g id="Layer-3" data-name="Span">
<text fill="#0e101a" xml:space="preserve" transform="matrix(1 0 -0 1 108 201.85553)" font-size="10" font-family="TimesNewRomanPSMT"><tspan y="0" x="52.31836"> </tspan></text>
</g>
</g>
</g>
<g id="Layer-1" data-name="P">
<text xml:space="preserve" transform="matrix(1 0 -0 1 72 231.3457)" font-size="12" font-family="TimesNewRomanPSMT"><tspan y="0" x="0 8.004001 13.3296 22.6632 27.988802 32.659204 38.659204 41.659204 44.659204 50.002805 53.002805 55.785604 62.9052 65.9052 68.9052 75.5796 78.5796 81.5796 85.5756 91.5756 97.5756 103.5756 109.5756 112.5756 115.5756 126.246 131.57161 135.56761 140.89322 146.89322 150.88922 153.88922 156.88922 163.56362 169.56362 172.89722 176.23082 181.55643 187.55643 193.55643 198.22682 201.22682 209.23082 215.23082 224.56443 230.56443 233.89803 239.22364 242.55724 245.89084 251.89084 257.89085 260.89085">Ramesh, P. V. S. (2017, March). Syllabus Completion. </tspan></text>
<text xml:space="preserve" transform="matrix(1 0 -0 1 72 231.3457)" font-size="12" font-family="TimesNewRomanPS" font-style="italic"><tspan y="0" x="263.8945 273.8905 279.2161 285.2161 288.54969 294.54969 298.97889 302.97489 305.7577 312.87129 315.87129 325.86729 331.86729 335.20088 338.53446 343.86006 348.53047 351.53047 357.53047 360.86405 363.86405 371.19364 375.86405 379.19764 385.19764 390.52323 393.8568 399.8568 405.8568 409.1904 412.1904 415.1904 421.1904">Mentor- A Matter of Principal, 10</tspan></text>
<text xml:space="preserve" transform="matrix(1 0 -0 1 72 231.3457)" font-size="12" font-family="TimesNewRomanPSMT"><tspan y="0" x="427.1953 431.1913 437.1913 443.1913 447.18733 450.18733">(10), </tspan></text>
<text xml:space="preserve" transform="matrix(1 0 -0 1 108 260.83589)" font-size="12" font-family="TimesNewRomanPSMT"><tspan y="0" x="0 6 12 15.996 21.996 27.996">14-17.</tspan></text>
<g id="Layer-2" data-name="Span">
<text xml:space="preserve" transform="matrix(1 0 -0 1 108 260.83589)" font-size="12" font-family="TimesNewRomanPSMT"><tspan y="0" x="30.99609"> </tspan></text>
</g>
</g>
<g id="Layer-1" data-name="P">
<g id="Layer-2" data-name="P">
<text xml:space="preserve" transform="matrix(1 0 -0 1 72 290.3262)" font-size="12" font-family="TimesNewRomanPSMT"><tspan y="0" x="0 6.674401 12.6744 18.000002 21.333603 27.333603 33.333604 36.333604 39.333604 47.337606 50.337606 53.337606 56.337606 65.004009 71.004009 77.004009 82.329608 85.329608 88.329608 93.6732 96.6732 99.6732 102.6732 112.0068 115.0068 123.6732 129.6732 133.0068 139.0068 144.33242 150.33242 156.33242 161.65802 165.17403 168.17403 171.17403 175.84442 178.84442 181.84442 185.84043 191.84043 197.84043 203.84043 209.84043 213.83643 216.83643 219.83643 228.50283 233.82843 239.82843 243.82444 249.15004 253.82044 258.49085 261.82444 267.82444 273.82444 276.82444 279.82444 285.15003 291.15003 297.15003 300.4836 305.8092 309.1428 314.36399 317.36399 320.36399 325.0344 328.36799 332.36399 337.68959 342.36 347.0304 350.0304 353.0304 358.356 364.356 370.356 373.356 378.0264 381.36 385.356 390.68159 395.352 400.0224 406.0224 410.0184 414.6888 417.6888 423.0144 432.348 438.348 444.348 450.348">Shaikh, B., Doke, P., &#x0026; Gothankar, J. (2018). Depression, anxiety, stress, and stressors among </tspan></text>
</g>
<g id="Layer-2" data-name="P">
<text xml:space="preserve" transform="matrix(1 0 -0 1 108 319.8164)" font-size="12" font-family="TimesNewRomanPSMT"><tspan y="0" x="0 3.996 9.996 13.992001 19.317603 22.651204 25.651204 30.976805 36.976808 42.976808 46.310407 51.636007 56.306406 61.632005 66.9576 72.9576 76.2912 80.9616 83.9616 88.632 91.9656 97.9656 103.9656 109.9656 113.299198 119.299198 125.299198 128.2992 131.6328 137.6328 140.6328 147.30719 153.30719 159.30719 164.6328 167.6328 172.9584 178.9584 184.9584 187.9584 193.28401 196.28401 200.28002 206.28002 210.27602 215.60163 218.93523 221.93523 227.93523 231.26883 237.26883 242.59444 248.59444 251.59444 257.59443 261.59043 264.59043 273.25685 278.58244 284.58244 290.58244 295.90803 301.90803 304.90803 310.90803 314.2416 318.91203 322.2456 326.2416 329.5752 334.9008 338.23439 341.23439 347.23439 351.23039 354.23039 364.9008 370.22639 376.22639 381.55198 385.54798 390.87358 395.54399 401.54399 404.87757 408.87358 414.19917 417.19917">rural adolescents studying in Pune and a rural block of Nanded district of Maharashtra, </tspan></text>
</g>
<g id="Layer-2" data-name="P">
<text xml:space="preserve" transform="matrix(1 0 -0 1 108 349.3066)" font-size="12" font-family="TimesNewRomanPSMT"><tspan y="0" x="0 3.996 9.996 15.996 19.329602 24.655203 27.655203">India. </tspan></text>
</g>
<g id="Layer-2" data-name="P">
<text xml:space="preserve" transform="matrix(1 0 -0 1 108 349.3066)" font-size="12" font-family="TimesNewRomanPS" font-style="italic"><tspan y="0" x="30.65625 34.65225 40.65225 46.65225 49.98585 55.98585 61.98585 64.985858 70.311458 76.311458 82.311458 86.98186 92.98186 98.98186 102.31545 105.31545 111.31545 114.64905 117.64905 124.978649 130.97864 136.97864 140.31224 143.64585 148.97145 151.97145 160.63785 165.96346 171.96346 175.29706 178.63066 184.63066 187.63066 190.63066 196.63066">Indian Journal of Public Health, 62</tspan></text>
</g>
<g id="Layer-2" data-name="P">
<text xml:space="preserve" transform="matrix(1 0 -0 1 108 349.3066)" font-size="12" font-family="TimesNewRomanPSMT"><tspan y="0" x="202.6348 206.6308 212.6308 216.6268 219.6268 222.6268 228.6268 234.1816 240.1816 244.1776 250.1776 256.1776 262.1776 265.1776">(4), 311-314. </tspan></text>
</g>
<g id="Layer-2" data-name="P">
<text fill="#4a6ee0" xml:space="preserve" transform="matrix(1 0 -0 1 108 349.3066)" font-size="12" font-family="TimesNewRomanPSMT"><tspan y="0" x="268.1777 274.1777 280.1777 283.1777 289.1777 295.1777 301.1777 307.1777 310.5113 313.84489 317.17848 323.17848 329.17848 332.17848 336.17448 340.84489 347.5193 356.1857 362.1857 368.1857 374.1857 380.1857 386.1857 392.1857">10.4103/ijph.IJPH_174_17</tspan></text>
</g>
<g id="Layer-2" data-name="P">
<g id="Layer-3" data-name="Span">
<text xml:space="preserve" transform="matrix(1 0 -0 1 108 349.3066)" font-size="12" font-family="TimesNewRomanPSMT"><tspan y="0" x="398.1855"> </tspan></text>
</g>
</g>
</g>
<g id="Layer-1" data-name="P">
<g id="Layer-2" data-name="P">
<text xml:space="preserve" transform="matrix(1 0 -0 1 72 378.7969)" font-size="12" font-family="TimesNewRomanPSMT"><tspan y="0" x="0 6.674401 12.6744 18.000002 24.000002 30.000002 33.333604 36.667203 42.667203 47.9928 50.9928 53.330404 61.996805 64.9968 67.9968 71.992809 77.992809 83.992809 89.992809 95.992809 98.992809 101.992809 110.65921 116.65921 122.65921 127.98481 137.31842 143.31842 148.64403 152.64003 155.64003 161.64003 167.64003 171.63603 174.63603 177.41884 184.74845 190.74845 196.07405 199.07405 205.07405 211.07405 220.40766 229.74126 235.74126 238.74126 244.06687 250.06687 256.06687 261.39247 266.71806 270.05165 273.38523 279.38523 285.38523 288.38523 293.05564 299.05564 303.72605 307.05964 312.38523 321.7188 324.7188 330.7188 333.7188 342.38523 347.71083 352.38124 355.38124 358.7148 364.7148 370.0404 373.0404 379.0404 384.366 387.6996 391.03318 397.03318 403.03318 406.03318 411.35877 416.68437 422.00996 427.33555 433.33555 436.66914 441.99473 447.99473 450.99473 454.3283 460.3283 465.6539">Shandilya, A. (2019, November 22). The dummy education system &#x2013; Has the nation accepted the </tspan></text>
</g>
<g id="Layer-2" data-name="P">
<text xml:space="preserve" transform="matrix(1 0 -0 1 108 408.2871)" font-size="12" font-family="TimesNewRomanPSMT"><tspan y="0" x="0 3.996 9.3216 15.3216 21.3216 27.3216 33.3216 38.6472 44.6472 47.9808 50.9808 54.314405 60.314405 64.98481 68.318408 71.652 74.985599 80.985599 84.31919 89.64479 94.31519 99.64079">redundant institutes? </tspan></text>
</g>
<g id="Layer-2" data-name="P">
<text xml:space="preserve" transform="matrix(1 0 -0 1 108 408.2871)" font-size="12" font-family="TimesNewRomanPS" font-style="italic"><tspan y="0" x="102.6445 108.656497 111.99009 120.656497 125.98209 130.6525 133.6525 139.6525 142.9861 145.9861 149.9821 155.9821 161.9821 165.3157">Times of India</tspan></text>
</g>
<g id="Layer-2" data-name="P">
<text xml:space="preserve" transform="matrix(1 0 -0 1 108 408.2871)" font-size="12" font-family="TimesNewRomanPSMT"><tspan y="0" x="171.3164 174.3164">. </tspan></text>
</g>
<g id="Layer-2" data-name="P">
<text fill="#4a6ee0" xml:space="preserve" transform="matrix(1 0 -0 1 108 408.2871)" font-size="12" font-family="TimesNewRomanPSMT"><tspan y="0" x="177.3164 183.3164 186.65001 189.98361 195.98361 200.654 203.98761 207.32122 210.65482 213.98842 217.32202 226.65563 231.98123 236.65163 242.65163 246.64763 249.98123 255.98123 261.98124 265.31483 270.6404 273.6404 276.974 282.974 288.974 292.3076 297.63319 300.96678 304.30036 313.63395 318.95954 323.62995 326.62995 331.95555 337.95555 347.28913 350.6227 356.6227 359.9563 365.9563 371.9563 376.6267 379.9603 383.29389 389.29389 394.61949">https://timesofindia.indiatimes.com/blogs/the-</tspan></text>
</g>
<g id="Layer-2" data-name="P">
<text fill="#4a6ee0" xml:space="preserve" transform="matrix(1 0 -0 1 108 437.7773)" font-size="12" font-family="TimesNewRomanPSMT"><tspan y="0" x="0 3.3336006 9.333601 15.333601 21.333601 27.333601 33.333604 36.667203 40.6632 45.9888 51.9888 57.3144 61.9848 65.3184 70.644 74.64 77.973598 81.30719 87.30719 92.63279 96.62879 102.62879 108.62879 117.96239 127.29598 133.29599 137.29199 142.6176 148.6176 154.6176 159.9432 165.26882 168.60242 171.93602 177.93602 183.93602 187.93202 192.60242 198.60242 203.27281 206.60642 211.93202 221.26563 225.26163 231.26163 236.58724 241.25763 245.25363 248.58724 254.58724 259.9128 263.9088 269.9088 275.2344 278.568 281.90159 287.90159 293.90159 297.89759 303.22319 308.54878 313.87437 319.19996 325.19996 328.53355 333.85914 339.85914 343.85514 347.18873 353.18873 358.5143 362.5103 366.50633 371.8319 377.8319 383.8319 389.8319 395.8319 401.1575 407.1575 410.4911">thought-coaster/the-dummy-education-system-has-the-nation-accepted-the-redundant-</tspan></text>
</g>
<g id="Layer-2" data-name="P">
<text fill="#4a6ee0" xml:space="preserve" transform="matrix(1 0 -0 1 108 467.2676)" font-size="12" font-family="TimesNewRomanPSMT"><tspan y="0" x="0 3.3336006 9.333601 14.004002 17.337603 20.671204 24.004805 30.004805 33.338407 38.664007 43.334405">institutes/</tspan></text>
</g>
<g id="Layer-2" data-name="P">
<g id="Layer-3" data-name="Span">
<text fill="#0e101a" xml:space="preserve" transform="matrix(1 0 -0 1 108 467.2676)" font-size="10" font-family="TimesNewRomanPSMT"><tspan y="0" x="46.66992"> </tspan></text>
</g>
</g>
</g>
<g id="Layer-1" data-name="P">
<g id="Layer-2" data-name="P">
<text xml:space="preserve" transform="matrix(1 0 -0 1 72 496.7578)" font-size="12" font-family="TimesNewRomanPSMT"><tspan y="0" x="0 6.674401 12.6744 18.000002 21.996003 31.329604 36.655206 39.655206 42.655206 50.659208 53.659208 56.659208 59.659208 68.32561 72.32161 78.32161 84.32161 89.64721 93.16321 96.16321 98.94601 106.065608 109.065608 112.065608 119.3952 122.3952 125.3952 128.3952 137.7288 140.7288 148.7328 154.7328 160.05841 163.39202 169.39202 173.38802 179.38802 184.71363 190.71363 194.04723 197.04723 200.04723 206.72162 209.72162 212.72162 216.71762 222.71762 228.71762 234.71762 240.71762 244.71363 247.71363 250.71363 257.38804 263.38804 266.72163 272.0472 275.3808 281.3808 286.7064 290.03999 293.03999 299.03999 304.36558 310.36558 315.69117 321.69117 325.02476 331.02476 335.02076 338.02076 343.34635 352.67994 358.67994 364.67994 370.67994 375.35035 378.68394 381.68394 387.00953 393.00953 399.00953 402.3431 407.6687 412.3391 417.6647 422.9903 428.9903 432.32389">Sharma, R., Grover, V. L., &#x0026; Chaturvedi, S. (2008). Suicidal behavior amongst adolescent </tspan></text>
</g>
<g id="Layer-2" data-name="P">
<text xml:space="preserve" transform="matrix(1 0 -0 1 108 526.248)" font-size="12" font-family="TimesNewRomanPSMT"><tspan y="0" x="0 4.6704 8.004001 14.004001 20.004002 25.329604 31.329604 34.663206 39.333604 42.333604 45.667203 51.667203 54.667203 59.3376 65.3376 71.3376 74.671199 80.671199 83.671199 92.3376 97.6632 100.996799 106.996799 110.33039 113.33039">students in south Delhi. </tspan></text>
</g>
<g id="Layer-2" data-name="P">
<text xml:space="preserve" transform="matrix(1 0 -0 1 108 526.248)" font-size="12" font-family="TimesNewRomanPS" font-style="italic"><tspan y="0" x="116.332 120.328 126.328 132.328 135.6616 141.6616 147.6616 150.6616 155.98722 161.98722 167.98722 172.65761 178.65761 184.65761 187.99121 190.99121 196.99121 200.32482 203.32482 210.65442 215.32482 220.65042 225.97603 231.97603 235.30963 241.30963 244.64324 249.31363 253.97803 256.97804 259.97804 265.97804">Indian Journal of Psychiatry, 50</tspan></text>
</g>
<g id="Layer-2" data-name="P">
<text xml:space="preserve" transform="matrix(1 0 -0 1 108 526.248)" font-size="12" font-family="TimesNewRomanPSMT"><tspan y="0" x="271.9805 275.9765 281.9765 285.9725 288.9725 291.9725 297.9725 303.9725 307.9685 313.9685 319.9685 322.9685">(1), 30-33. </tspan></text>
</g>
<g id="Layer-2" data-name="P">
<text fill="#4a6ee0" xml:space="preserve" transform="matrix(1 0 -0 1 108 526.248)" font-size="12" font-family="TimesNewRomanPSMT"><tspan y="0" x="325.9688 331.9688 337.9688 341.3024 344.3024 350.3024 354.0812 360.0812">doi.org/</tspan></text>
</g>
<g id="Layer-2" data-name="P">
<text fill="#4a6ee0" xml:space="preserve" transform="matrix(1 0 -0 1 108 555.7383)" font-size="12" font-family="TimesNewRomanPSMT"><tspan y="0" x="0 6 12 15 21 27 33 39 42.3336 48.3336 54.3336 60.3336 66.3336 70.329608 76.329608 82.329608 88.329608 94.329608 97.329608 103.329608 109.329608 115.329608 121.329608">10.4103/0019-5545.39756</tspan></text>
</g>
<g id="Layer-2" data-name="P">
<g id="Layer-3" data-name="Span">
<text xml:space="preserve" transform="matrix(1 0 -0 1 108 555.7383)" font-size="12" font-family="TimesNewRomanPSMT"><tspan y="0" x="127.3301"> </tspan></text>
</g>
</g>
</g>
<g id="Layer-1" data-name="P">
<g id="Layer-2" data-name="P">
<text xml:space="preserve" transform="matrix(1 0 -0 1 72 585.2285)" font-size="12" font-family="TimesNewRomanPSMT"><tspan y="0" x="0 8.666401 16.670403 24.000004 32.004007 35.004007 43.670408 49.670408 54.996007 58.32961 61.32961 69.99601 73.329608 78.655208 84.655208 90.655208 96.655208 101.32561 104.6592 109.329608 112.329608 119.004009 123.00001 129 135 138.996 144.32161 153.65522 156.65522 160.65122 166.65122 170.64722 176.64722 180.64322 189.97682 195.30243 198.63603 201.96964 207.96964 213.96964 216.96964 222.29524 228.29524 234.29524 236.63285 245.29924 251.29924 260.63285 263.96644 268.63685 273.30726 276.64085 282.64085 288.64085 293.31126 296.31126 299.31126 303.30726 309.30726 312.30726 318.30726 321.30726 325.30326 328.30326">UCLA Dual Diagnosis Program Information and Admissions. (n.d.). </tspan></text>
</g>
<g id="Layer-2" data-name="P">
<text xml:space="preserve" transform="matrix(1 0 -0 1 72 585.2285)" font-size="12" font-family="TimesNewRomanPS" font-style="italic"><tspan y="0" x="331.3066 339.97303 345.97303 353.97703 356.97703 365.64344 371.64344 374.64344 380.21623 386.21623 392.21623 395.21623 403.2202 409.2202 415.2202 420.5458 426.5458">How Do You Cope? </tspan></text>
</g>
<g id="Layer-2" data-name="P">
<text xml:space="preserve" transform="matrix(1 0 -0 1 72 585.2285)" font-size="12" font-family="TimesNewRomanPSMT"><tspan y="0" x="429.5449 436.2193 441.5497 450.88813 456.21855 459.55696">Semel </tspan></text>
</g>
<g id="Layer-2" data-name="P">
<text xml:space="preserve" transform="matrix(1 0 -0 1 108 614.7188)" font-size="12" font-family="TimesNewRomanPSMT"><tspan y="0" x="0 3.996 9.996 14.666401 18.000002 21.333603 24.667204 30.667204 34.000806 39.326406 42.326406 46.322404 52.322404 56.3184 59.3184 67.9848 73.3104 79.3104 83.306407 89.306407 93.97681 99.30241 102.636 107.9616 113.9616 119.2872 124.6128 127.6128 132.9384 138.9384 144.9384 147.9384 156.6048 162.6048 171.9384 177.264 183.264 186.264 194.268 199.59362 205.59362 210.91922 216.91922 220.25283 226.25283 232.25283 235.58643 238.58643">Institute for Neuroscience and Human Behaviour. </tspan></text>
</g>
<g id="Layer-2" data-name="P">
<text fill="#4a6ee0" xml:space="preserve" transform="matrix(1 0 -0 1 108 614.7188)" font-size="12" font-family="TimesNewRomanPSMT"><tspan y="0" x="241.5938 247.5938 250.9274 254.261 260.261 264.9314 268.26499 271.59858 274.93217 283.59858 292.26499 300.1514 303.1514 307.8218 313.1474 322.481 327.80659 331.14018 334.14018 340.14018 345.46577 348.79936 354.12495 357.12495 362.45054 368.45054 374.45054 377.78413 383.78413 389.78413 395.1097 398.4433">https://www.semel.ucla.edu/dual-</tspan></text>
</g>
<g id="Layer-2" data-name="P">
<text fill="#4a6ee0" xml:space="preserve" transform="matrix(1 0 -0 1 108 644.209)" font-size="12" font-family="TimesNewRomanPSMT"><tspan y="0" x="0 6 9.3336 14.6592 20.659199 26.659199 32.6592 37.329599 40.663198 45.333597 49.329595 55.329595 59.325593 65.32559 71.32559 75.321598 80.647197 89.98079 93.314388 101.98079 107.30639 115.97279 120.643199 126.643199 131.9688 137.9688 143.9688 149.9688 157.9728 163.2984 167.9688 173.9688 179.9688 183.9648 189.2904 194.61602 199.2864 202.62001 211.2864 217.2864 225.9528 231.9528 240.6192 246.6192 252.6192 260.0844 266.0844 272.0844 278.0844 286.0884 292.0884 298.0884">diagnosis-program/News_and_Resources/How_Do_You_Cope</tspan></text>
</g>
<g id="Layer-2" data-name="P">
<g id="Layer-3" data-name="Span">
<text xml:space="preserve" transform="matrix(1 0 -0 1 108 644.209)" font-size="10" font-family="TimesNewRomanPSMT"><tspan y="0" x="303.416"> </tspan></text>
</g>
</g>
</g>
<path transform="matrix(1,0,0,1,72,72)" stroke-width=".5859375" stroke-linecap="butt" stroke-miterlimit="10" stroke-linejoin="miter" fill="none" stroke="#4a6ee0" d="M 162.3047 72.18164 L 368.9648 72.18164 "/>
<path transform="matrix(1,0,0,1,72,72)" stroke-width=".5859375" stroke-linecap="butt" stroke-miterlimit="10" stroke-linejoin="miter" fill="none" stroke="#4a6ee0" d="M 312.6211 101.6719 L 448.2656 101.6719 "/>
<path transform="matrix(1,0,0,1,72,72)" stroke-width=".5859375" stroke-linecap="butt" stroke-miterlimit="10" stroke-linejoin="miter" fill="none" stroke="#4a6ee0" d="M 36 131.1621 L 88.31836 131.1621 "/>
<path transform="matrix(1,0,0,1,72,72)" stroke-width=".5859375" stroke-linecap="butt" stroke-miterlimit="10" stroke-linejoin="miter" fill="none" stroke="#4a6ee0" d="M 304.1777 278.6133 L 434.1855 278.6133 "/>
<path transform="matrix(1,0,0,1,72,72)" stroke-width=".5859375" stroke-linecap="butt" stroke-miterlimit="10" stroke-linejoin="miter" fill="none" stroke="#4a6ee0" d="M 213.3164 337.5938 L 434.625 337.5938 "/>
<path transform="matrix(1,0,0,1,72,72)" stroke-width=".5859375" stroke-linecap="butt" stroke-miterlimit="10" stroke-linejoin="miter" fill="none" stroke="#4a6ee0" d="M 36 367.084 L 450.5039 367.084 "/>
<path transform="matrix(1,0,0,1,72,72)" stroke-width=".5859375" stroke-linecap="butt" stroke-miterlimit="10" stroke-linejoin="miter" fill="none" stroke="#4a6ee0" d="M 36 396.5742 L 82.66992 396.5742 "/>
<path transform="matrix(1,0,0,1,72,72)" stroke-width=".5859375" stroke-linecap="butt" stroke-miterlimit="10" stroke-linejoin="miter" fill="none" stroke="#4a6ee0" d="M 361.9688 455.5547 L 399.416 455.5547 "/>
<path transform="matrix(1,0,0,1,72,72)" stroke-width=".5859375" stroke-linecap="butt" stroke-miterlimit="10" stroke-linejoin="miter" fill="none" stroke="#4a6ee0" d="M 36 485.0449 L 163.3301 485.0449 "/>
<path transform="matrix(1,0,0,1,72,72)" stroke-width=".5859375" stroke-linecap="butt" stroke-miterlimit="10" stroke-linejoin="miter" fill="none" stroke="#4a6ee0" d="M 277.5938 544.0254 L 438.4453 544.0254 "/>
<path transform="matrix(1,0,0,1,72,72)" stroke-width=".5859375" stroke-linecap="butt" stroke-miterlimit="10" stroke-linejoin="miter" fill="none" stroke="#4a6ee0" d="M 36 573.5156 L 339.416 573.5156 "/>
</g>
</g>
</svg>
