<?xml version="1.0" encoding="UTF-8" standalone="no"?>
<!DOCTYPE svg PUBLIC "-//W3C//DTD SVG 1.1//EN" "http://www.w3.org/Graphics/SVG/1.1/DTD/svg11.dtd">
<svg xmlns="http://www.w3.org/2000/svg" xmlns:xlink="http://www.w3.org/1999/xlink" version="1.1" width="612pt" height="792pt" viewBox="0 0 612 792">
<g enable-background="new">
<clipPath id="cp191">
<path transform="matrix(1,0,0,-1,0,792)" d="M 0 0 L 612 0 L 612 792 L 0 792 Z "/>
</clipPath>
<g clip-path="url(#cp191)">
<path transform="matrix(1,0,0,-1,0,792)" d="M 0 792 L 612 792 L 612 0 L 0 0 Z " fill="#ffffff"/>
<g id="Layer-1" data-name="P">
</g>
<clipPath id="cp192">
<path transform="matrix(1,0,0,-1,0,792)" d="M 68.67773 72 L 543.3222 72 L 543.3222 723.3223 L 68.67773 723.3223 Z "/>
</clipPath>
<g clip-path="url(#cp192)">
<text xml:space="preserve" transform="matrix(1 0 -0 1 72 83.89447)" font-size="12" font-family="TimesNewRomanPS" font-style="italic"><tspan y="0" x="0 8.004001 14.004001 17.3376 22.663203 25.663203">Note. </tspan></text>
<text xml:space="preserve" transform="matrix(1 0 -0 1 72 83.89447)" font-size="12" font-family="TimesNewRomanPSMT"><tspan y="0" x="28.66406 35.99366 41.99366 47.31926 50.31926 56.31926 60.315259 66.31526 72.31526 75.64886 81.64886 84.98245 87.98245 95.31205 98.645648 104.645648 109.971248 113.96725 117.30084 120.30084 124.971248 130.29685 135.62245 138.95606 144.28166 147.28166 151.27767 156.60327 162.60327 166.59928 171.92488 176.59528 181.92089 187.92089 191.25449 196.5801 202.5801 205.5801 208.9137 214.9137 220.2393 223.2393 227.2353 233.2353 236.56891 239.90251 245.90251 254.56891 257.9025 263.9025 269.9025 272.9025 278.9025 284.2281 288.2241 291.55769 296.88328 302.88328 306.21687 311.54246 316.21287 319.54646 322.54646 327.44486 336.11128 341.43687 346.76246 350.75846 356.08406 361.40965 366.08006 371.40565 377.40565 380.40565 387.08006 390.41365 396.41365 402.41365 405.74723 409.74324 413.0768 418.4024 423.728 429.728 433.06159 436.39518 442.39518 447.29359 451.28959 457.28959 461.28559 464.28559">The 5-point Likert scale represented the following variables: "Decreased Significantly"(1), </tspan></text>
<text xml:space="preserve" transform="matrix(1 0 -0 1 72 113.38483)" font-size="12" font-family="TimesNewRomanPSMT"><tspan y="0" x="0 4.8984005 13.564801 18.890402 24.216004 28.212004 33.537607 38.863206 43.533605 48.859205 54.859205 57.859205 64.53361 67.8672 71.2008 77.2008 83.2008 86.53439 89.86799 95.86799 100.766399 104.7624 110.7624 114.7584 117.7584 120.7584 125.65681 134.3232 140.3232 143.3232 151.3272 157.3272 162.6528 168.6528 174.6528 179.97841 184.8768 188.8728 194.8728 198.8688 201.8688 204.8688 209.7672 213.7632 219.7632 225.0888 229.08481 234.41042 239.73603 244.40642 249.73203 255.73203 258.73204 265.40644 268.74003 272.0736 278.0736 284.0736 287.4072 290.74079 296.74079 301.6392 305.6352 311.6352 315.6312 318.6312 321.6312 326.9568 332.9568 338.9568 341.9568 346.8552 350.8512 356.8512 362.1768 366.1728 371.49839 376.82398 381.4944 386.81999 392.81999">"Decreased Slightly"(2), "No Change"(3), "Increased Slightly"(4), and "Increased </tspan></text>
<text xml:space="preserve" transform="matrix(1 0 -0 1 72 142.875)" font-size="12" font-family="TimesNewRomanPSMT"><tspan y="0" x="0 6.674401 10.008 16.008 22.008 25.3416 29.3376 32.6712 37.9968 43.3224 49.3224 52.656003 55.989606 61.989606 66.88801 70.88401 76.88401 80.88001 83.88001 86.66281 93.99241 99.99241 105.31801 109.98841 115.31401 118.31401 124.31401 129.63962 132.97322 138.97322 144.29883 148.96923 151.96923 157.29483 161.29084 166.61644 169.61644 175.61644 181.61644 184.95005 187.95005 191.94605 197.27165 203.27165 207.26766 212.59326 217.26366 222.58927 228.58927 231.92287 237.24848 240.58208 243.91568 249.91568 255.24129 258.24128 264.24128 268.23728 271.23728 274.57087 280.57087 285.89646 288.89646 295.57087 298.90446 304.23005 310.23005 316.23005 321.55564 325.55165 331.55165 334.55165 343.21806 348.54365 354.54365 357.87724 363.20283 366.5364 369.87 375.87 381.87">Significantly"(5). These values are not representative of the Standard Deviation.</tspan></text>
<g id="Layer-2" data-name="Span">
<text xml:space="preserve" transform="matrix(1 0 -0 1 72 142.875)" font-size="12" font-family="TimesNewRomanPS" font-style="italic"><tspan y="0" x="384.8848"> </tspan></text>
</g>
</g>
<g id="Layer-1" data-name="P">
<text fill="#0e101a" xml:space="preserve" transform="matrix(1 0 -0 1 72 201.85553)" font-size="12" font-family="TimesNewRomanPS" font-weight="bold"><tspan y="0" x="0 6.674401 10.670401 15.780002 21.105603 25.776001 30.4464 33.4464 42.1128 47.4384 53.4384 58.764 62.76 66.0936 72.0936 78.768">Stress Reactions</tspan></text>
<g id="Layer-2" data-name="Span">
<text fill="#0e101a" xml:space="preserve" transform="matrix(1 0 -0 1 72 201.85553)" font-size="12" font-family="TimesNewRomanPSMT"><tspan y="0" x="83.4375"> </tspan></text>
</g>
</g>
<g id="Layer-1" data-name="P">
<text fill="#0e101a" xml:space="preserve" transform="matrix(1 0 -0 1 108 231.3457)" font-size="12" font-family="TimesNewRomanPSMT"><tspan y="0" x="0 8.666401 12.000001 15.333601 21.333601 27.333601 33.333604 39.333604 45.333604 48.333604 53.659204 58.984804 64.3104 70.3104 75.636 84.9696 88.30319 93.62879 96.62879 101.299198 104.63279 108.62879 113.95439 118.624797 123.2952 126.2952 132.2952 138.2952 143.6208 146.6208 149.9544 155.9544 158.9544 162.95041 168.27602 177.60962 180.94322 184.27683 190.27683 193.27683 202.61043 207.93604 217.26964 223.26964 228.59525 232.59125 237.26165 240.26165 246.26165 252.26165 256.25764 259.59123 265.59123 271.59123 274.59123 277.9248 283.9248 289.2504 292.2504 300.2544 308.9208 317.58723 321.58323 330.24964 334.24565 340.24565 346.24565 349.24565 352.57923 358.57923 363.90483 369.90483 375.90483 381.90483 390.57124 396.57124">Although academic stress due to family members during the COVID-19 lockdown </tspan></text>
<text fill="#0e101a" xml:space="preserve" transform="matrix(1 0 -0 1 72 260.83589)" font-size="12" font-family="TimesNewRomanPSMT"><tspan y="0" x="0 5.3256008 9.104401 13.100401 18.426003 23.751605 27.085206 32.410806 38.410806 41.410806 47.410806 53.410806 56.410806 62.410806 72.40681 75.40681 81.40681 85.40281 88.40281 91.736408 97.736408 103.062007 106.062007 110.05801 115.383609 120.05401 126.05401 132.05402 138.05402 144.05402 149.37963 155.37963 158.71323 163.38362 166.38362 169.38362 172.71723 176.71323 180.70923 184.04283 187.37644 192.70204 198.70204 202.03565 205.36925 208.70285 212.03646 217.25766 220.25766 223.25766 228.58327 232.36208 238.36208 244.36208 253.69568 259.02128 265.02128 268.35487 273.02528 276.02528 279.02528 284.35087 290.35087 296.35087 299.35087 303.34687 306.68046 312.68046 318.68046 322.01405 326.68446 329.68446 338.35087 341.68446 345.01805 351.01805 354.01805 358.01405 363.33964 372.67323 376.0068 379.3404 385.3404 388.3404 397.67399 402.99958 412.33317 418.33317 423.65876 427.65476 432.32518 435.32518 443.99159 449.31718 453.31318 458.63877">affected 41.1% of the respondents, irritability, arguments, and fights with family members were </tspan></text>
<text fill="#0e101a" xml:space="preserve" transform="matrix(1 0 -0 1 72 290.3262)" font-size="12" font-family="TimesNewRomanPSMT"><tspan y="0" x="0 6 12 16.670399 21.996 25.992 31.992 37.3176 43.3176 46.3176 51.6432 56.3136 59.3136 62.647199 68.6472 73.9728 76.9728 86.3064 92.3064 96.9768 100.310398 103.310398 108.635997 114.635997 123.96959 133.30319 139.30319 145.30319 148.30319 152.97359 156.30719 160.30319 165.6288 170.2992 174.96959 177.96959 181.96559 187.2912 192.6168 197.94242 201.27602 204.60962 210.60962 216.60962 221.28002 224.28002 230.28002 236.28002 240.95041 246.27602 250.27202 256.27204 261.59764 267.59764 270.59764 273.9312 279.9312 282.9312 288.9312 294.9312 297.9312 303.9312 313.92723 316.92723 322.92723 326.92323 329.92323 333.2568 339.2568 344.5824 347.5824 352.2528 358.2528 362.2488 368.2488 373.5744 379.5744 384.9 390.9 393.9 398.5704 401.904 407.904 413.904 419.22959 425.22959 428.56318 433.23359 436.23359 439.23359 445.908 449.24159 453.23759 458.56318 463.23359 467.904">observed as the most common stress reactions observed in 40.5% of the surveyed students. Stress </tspan></text>
<text fill="#0e101a" xml:space="preserve" transform="matrix(1 0 -0 1 72 319.8164)" font-size="12" font-family="TimesNewRomanPSMT"><tspan y="0" x="0 3.996 9.3216 14.647201 19.972802 23.306403 26.640004 32.640005 38.640005 43.310403 46.310403 49.644 55.644 61.644 67.644 70.97759 76.97759 80.31119 86.31119 92.31119 95.31119 100.63679 106.63679 112.63679 118.63679 121.97038 125.30398 128.63759 134.63759 139.9632 142.9632 148.2888 154.2888 159.61441 165.61441 171.61441 176.94002 181.61042 184.61042 189.93602 195.93602 201.93602 204.93602 209.60642 215.60642 221.60642 227.60642 232.93202 238.93202 241.93202 247.25763 253.25763 259.25764 262.59123 268.59123 273.26164 276.5952 282.5952 287.9208 290.9208 296.2464 302.2464 308.2464 313.572 317.568 320.568 329.2344 334.56 338.556 343.8816 346.8816 352.20719 355.54078 360.21119 366.21119 369.21119 373.20719 378.53279 384.53279 390.53279 394.52879 397.86238 403.18797 409.18797 412.18797 418.18797 424.18797 427.18797 432.51356">reactions involving cognitive changes and sudden explosive anger were also reported by a </tspan></text>
<text fill="#0e101a" xml:space="preserve" transform="matrix(1 0 -0 1 72 349.3066)" font-size="12" font-family="TimesNewRomanPSMT"><tspan y="0" x="0 4.6704 8.004001 14.004001 20.004002 23.337603 27.333603 30.667204 35.992807 41.318407 47.318407 50.652006 53.652006 59.652006 63.648004 69.648 75.648 81.648 85.644008 88.9776 92.311199 98.311199 104.311199 107.311199 113.311199 117.3072 120.3072 124.9776 128.3112 134.3112 140.3112 145.63681 151.63681 154.97042 159.64081 162.64081 166.63681 173.12882 178.45442 184.45442 187.78803 193.11363 196.11363 202.11363 206.10964 209.10964 212.10964 220.77603 226.77603 232.10164 235.10164 239.77204 243.10564 249.10564 255.10564 260.4312 266.4312 269.7648 272.7648 276.7608 282.0864 288.0864 294.0864 298.0824 301.416 306.74159 312.74159 315.74159 321.06718 324.40077 327.73435 333.05995 342.39353 348.39353 351.7271 357.0527 363.0527 366.0527 370.7231 376.7231 380.0567 385.3823 388.71589 394.71589 400.04148 403.04148 406.04148 411.36708 417.36708 423.36708 426.36708 431.69267 437.69267 443.69267 447.02626 453.02626 458.35185 462.34785">significant proportion of students (Table 8). One student reported attempted suicide, and another </tspan></text>
<text fill="#0e101a" xml:space="preserve" transform="matrix(1 0 -0 1 72 378.7969)" font-size="12" font-family="TimesNewRomanPSMT"><tspan y="0" x="0 3.996 9.3216 15.3216 21.3216 25.3176 28.651202 33.976804 39.976804 42.976804 47.6472 53.6472 56.9808 62.3064 65.64 71.64 76.9656 80.299198 83.299198 86.63279 92.63279 98.63279 104.63279 110.63279 116.63279 119.966388 124.63679 127.63679 130.63678 139.30318 145.30318 150.62879 153.62879 158.29918 161.63278 167.63278 173.63278 178.95839 184.95839 188.29199 191.29199 196.6176 199.9512 204.6216 210.6216 213.6216 218.9472 224.9472 230.9472 234.9432 240.26882 244.93921 249.6096 254.93521 260.9352 263.9352 269.9352 275.9352 281.2608 285.2568 288.5904 294.5904 297.92399 303.92399 309.92399 313.25758 319.25758 325.25758 328.25758 333.58317 338.25358 341.25358 346.57917 349.57917 354.24958 357.58317 361.57917 366.90476 371.57518 376.24559 379.24559 383.24159 388.56718 393.89277 399.21836 402.55195 405.88554 411.88554 417.88554 420.88554">reported suicidal thoughts. One student also expressed overthinking as a stress reaction, </tspan></text>
<text fill="#0e101a" xml:space="preserve" transform="matrix(1 0 -0 1 72 408.2871)" font-size="12" font-family="TimesNewRomanPSMT"><tspan y="0" x="0 6 11.325601 15.996001 21.321602 25.317603 28.651204 34.651205 37.984807 43.984807 49.984807 52.984807 56.31841 59.65201 62.65201 67.97761 72.64801 75.64801 80.97361 83.97361 88.87202 94.87202 100.19762 106.19762 112.19762 117.52322 120.52322 123.85681 129.85681 132.85681 142.19042 145.52402 151.52402 157.52402 162.42241 165.42241 169.41841 176.0928 181.41841 185.41442 188.74802 192.08162 197.40723 200.74083 206.74083 212.06644 218.06644 221.40004 224.40004 230.40004 236.40004 240.39604 243.39604 252.06244 255.39604 258.72966 264.72966 270.72966 276.72966 280.06324 283.06324 286.39683 292.39683 297.7224 300.7224 306.048 312.048 315.3816 318.71519 322.04878 325.38236 331.38236 334.38236 337.71595 343.71595 346.71595 352.04154 358.04154 364.04154 367.37513 371.37113 377.37113 380.7047 383.7047 387.0383 393.0383 399.0383 405.0383 411.0383 417.0383 420.3719 425.0423 428.0423 430.8251 438.1547 444.1547 449.4803">describing it as a "havoc in mind" (Participant 90) without the ability to control thoughts. The </tspan></text>
<text fill="#0e101a" xml:space="preserve" transform="matrix(1 0 -0 1 72 437.7773)" font-size="12" font-family="TimesNewRomanPSMT"><tspan y="0" x="0 6 12 15.996 21.996 27.996 31.329602 37.3296 40.663206 43.663206 50.992807 54.326406 60.326406 65.652 69.648 72.9816 75.9816 80.652 85.9776 91.3032 94.636798 99.962398 102.962398 108.287998 114.287998 119.613597 122.94719 128.94719 133.61759 136.95119 141.62158 144.62158 148.61759 155.10959 160.4352 166.4352 169.7688 175.0944 178.0944 184.0944 188.09041 191.09041 195.08641 200.41202 206.41202 211.73763 217.06324 220.39684 225.72245 231.72245 234.72245 238.05605 244.05605 249.38166 252.71526 255.71526 259.04887 265.04887 270.37446 273.37446 277.37046 281.36647 286.69206 292.69206 298.69206 304.01765 310.01765 315.34324 321.34324 324.34324 330.34324 334.33924 337.33924 342.66484 348.66484 351.9984 356.66883 362.66883 368.66883 373.99443 378.66484 381.66484 384.9984 390.9984 396.9984 402.9984 406.332 412.332 415.6656 421.6656 427.6656 430.6656 435.336 438.6696 442.6656 447.99119 452.6616 457.332">10-point Likert scale analysis (Table 9) revealed that the frequency of episodes involving stress </tspan></text>
<text fill="#0e101a" xml:space="preserve" transform="matrix(1 0 -0 1 72 467.2676)" font-size="12" font-family="TimesNewRomanPSMT"><tspan y="0" x="0 3.996 9.3216 14.647201 19.972802 23.306403 26.640004 32.640005 38.640005 43.310403 46.310403 49.644 55.644 60.9696 64.9656 70.2912 75.6168 80.2872 85.6128 91.6128 94.6128 99.2832 102.6168 105.95039 111.95039 117.95039 121.28399 124.617588 130.61759 133.61759 138.94319 148.2768 154.2768 160.2768 166.2768 169.2768 173.94719 177.28079 183.28079 189.28079 194.6064 200.6064 203.94 208.6104 211.6104 216.936 222.936 232.2696 238.2696 243.59522 247.59122 252.91683 258.9168 261.9168 265.2504 271.2504 274.2504 280.2504 284.2464 289.572 293.568 296.90159 302.90159 308.22718 314.22718 320.22718 326.22718 334.8936 340.8936 343.8936 349.21919 355.21919 361.21919 367.21919 370.55278 373.88636 377.21995 383.21995 389.21995 393.89036">reactions increased slightly among students compared to pre-lockdown conditions.</tspan></text>
<g id="Layer-2" data-name="Span">
<text fill="#0e101a" xml:space="preserve" transform="matrix(1 0 -0 1 72 467.2676)" font-size="12" font-family="TimesNewRomanPSMT"><tspan y="0" x="396.9023"> </tspan></text>
</g>
</g>
<g id="Layer-1" data-name="P">
<text xml:space="preserve" transform="matrix(1 0 -0 1 72 526.248)" font-size="12" font-family="TimesNewRomanPS" font-weight="bold"><tspan y="0" x="0 6.9024007 12.902401 19.576802 22.910403 28.236004 31.236004">Table 8</tspan></text>
<g id="Layer-2" data-name="Span">
<text xml:space="preserve" transform="matrix(1 0 -0 1 72 526.248)" font-size="12" font-family="TimesNewRomanPS" font-weight="bold"><tspan y="0" x="37.23633"> </tspan></text>
</g>
</g>
<g id="Layer-1" data-name="P">
<text xml:space="preserve" transform="matrix(1 0 -0 1 72 555.7383)" font-size="12" font-family="TimesNewRomanPS" font-style="italic"><tspan y="0" x="0 6 9.3336 13.5588 18.884402 23.554802 28.2252 31.2252 38.554803 43.8804 49.8804 55.206 58.5396 61.873205 67.8732 73.8732">Stress Reactions</tspan></text>
<g id="Layer-2" data-name="Span">
<text xml:space="preserve" transform="matrix(1 0 -0 1 72 555.7383)" font-size="12" font-family="TimesNewRomanPSMT"><tspan y="0" x="78.54492"> </tspan></text>
</g>
</g>
<g id="Layer-1" data-name="P">
</g>
<clipPath id="cp193">
<path transform="matrix(1,0,0,-1,0,792)" d="M 71 90.16602 L 505 90.16602 L 505 219.16602 L 71 219.16602 Z "/>
</clipPath>
<g clip-path="url(#cp193)">
<path transform="matrix(1,0,0,-1,0,792)" d="M 72 217.166 L 320.35 217.166 L 320.35 193.166 L 72 193.166 Z " fill="#ffffff"/>
<path transform="matrix(1,0,0,-1,0,792)" d="M 320.35 217.166 L 398.85 217.166 L 398.85 193.166 L 320.35 193.166 Z " fill="#ffffff"/>
<path transform="matrix(1,0,0,-1,0,792)" d="M 398.85 217.166 L 503 217.166 L 503 193.166 L 398.85 193.166 Z " fill="#ffffff"/>
<path transform="matrix(1,0,0,-1,0,792)" d="M 72 193.166 L 320.35 193.166 L 320.35 154.197 L 72 154.197 Z " fill="#ffffff"/>
<path transform="matrix(1,0,0,-1,0,792)" d="M 320.35 193.166 L 398.85 193.166 L 398.85 154.197 L 320.35 154.197 Z " fill="#ffffff"/>
<path transform="matrix(1,0,0,-1,0,792)" d="M 398.85 193.166 L 503 193.166 L 503 154.197 L 398.85 154.197 Z " fill="#ffffff"/>
<path transform="matrix(1,0,0,-1,0,792)" d="M 72 154.197 L 320.35 154.197 L 320.35 115.728 L 72 115.728 Z " fill="#ffffff"/>
<path transform="matrix(1,0,0,-1,0,792)" d="M 320.35 154.197 L 398.85 154.197 L 398.85 115.728 L 320.35 115.728 Z " fill="#ffffff"/>
<path transform="matrix(1,0,0,-1,0,792)" d="M 398.85 154.197 L 503 154.197 L 503 115.728 L 398.85 115.728 Z " fill="#ffffff"/>
<path transform="matrix(1,0,0,-1,0,792)" d="M 72 115.728 L 320.35 115.728 L 320.35 91.72803 L 72 91.72803 Z " fill="#ffffff"/>
<path transform="matrix(1,0,0,-1,0,792)" d="M 320.35 115.728 L 398.85 115.728 L 398.85 91.72803 L 320.35 91.72803 Z " fill="#ffffff"/>
<path transform="matrix(1,0,0,-1,0,792)" d="M 398.85 115.728 L 503 115.728 L 503 91.72803 L 398.85 91.72803 Z " fill="#ffffff"/>
<g id="Layer-2" data-name="P">
<g id="Layer-3" data-name="P">
<g id="Layer-4" data-name="P">
<g id="Layer-5" data-name="P">
</g>
<clipPath id="cp194">
<path transform="matrix(1,0,0,-1,0,792)" d="M 72 193.666 L 320.35 193.666 L 320.35 216.666 L 72 216.666 Z "/>
</clipPath>
<g clip-path="url(#cp194)">
<text fill="#010204" xml:space="preserve" transform="matrix(1 0 -0 1 158.6665 591.0991)" font-size="12.5" font-family="TimesNewRomanPSMT"><tspan y="0" x="0 6.952501 10.425002 14.587502 20.135003 25.000002 29.865004 32.990007 41.327508 46.875009 52.42251 57.97001 61.44251 64.91501 71.16501">Stress Reaction</tspan></text>
</g>
</g>
<g id="Layer-4" data-name="P">
<g id="Layer-5" data-name="P">
</g>
<clipPath id="cp195">
<path transform="matrix(1,0,0,-1,0,792)" d="M 320.35 193.666 L 398.85 193.666 L 398.85 216.666 L 320.35 216.666 Z "/>
</clipPath>
<g clip-path="url(#cp195)">
<text fill="#010204" xml:space="preserve" transform="matrix(1 0 -0 1 334.4206 591.0991)" font-size="12.5" font-family="TimesNewRomanPSMT"><tspan y="0" x="0 6.952501 11.115001 16.6625 22.9125 29.1625 34.710004 40.960004 46.507505">Frequency</tspan></text>
</g>
</g>
<g id="Layer-4" data-name="P">
<g id="Layer-5" data-name="P">
</g>
<clipPath id="cp196">
<path transform="matrix(1,0,0,-1,0,792)" d="M 398.85 193.666 L 503 193.666 L 503 216.666 L 398.85 216.666 Z "/>
</clipPath>
<g clip-path="url(#cp196)">
<text fill="#010204" xml:space="preserve" transform="matrix(1 0 -0 1 433.3842 591.0991)" font-size="12.5" font-family="TimesNewRomanPSMT"><tspan y="0" x="0 6.952501 12.500002 16.662503 22.210003 27.757504 34.007505">Percent</tspan></text>
</g>
</g>
</g>
</g>
<g id="Layer-2" data-name="P">
<g id="Layer-3" data-name="P">
<g id="Layer-4" data-name="P">
<g id="Layer-5" data-name="P">
</g>
<clipPath id="cp197">
<path transform="matrix(1,0,0,-1,0,792)" d="M 72 154.197 L 320.35 154.197 L 320.35 192.666 L 72 192.666 Z "/>
</clipPath>
<g clip-path="url(#cp197)">
<text fill="#010204" xml:space="preserve" transform="matrix(1 0 -0 1 79 615.0991)" font-size="12.5" font-family="TimesNewRomanPSMT"><tspan y="0" x="0 4.1625 8.325 12.487499 15.96 19.4325 24.980002 31.230002 34.702505 38.175008 41.64751 45.120016 50.558767 53.683767 56.808767 62.356267 66.29252 72.54252 78.79252 88.515018 94.062519 100.312519 103.78501 108.65002 111.77502 117.32252 123.57252 129.82251 132.94751 137.11002 140.58252 146.83252 153.08252 156.55503 161.42003 164.54503 173.57253 177.04503 180.51753 186.76753 189.89253 194.05504 199.60254 209.32505 212.79755 216.27005 222.52005">Irritability, arguments and fights with family </tspan></text>
<text fill="#010204" xml:space="preserve" transform="matrix(1 0 -0 1 79 631.0991)" font-size="12.5" font-family="TimesNewRomanPSMT"><tspan y="0" x="0 9.722501 15.270001 24.992503 31.242503 36.790006 40.952505">members</tspan></text>
</g>
</g>
<g id="Layer-4" data-name="P">
<g id="Layer-5" data-name="P">
</g>
<clipPath id="cp198">
<path transform="matrix(1,0,0,-1,0,792)" d="M 320.35 154.197 L 398.85 154.197 L 398.85 192.666 L 320.35 192.666 Z "/>
</clipPath>
<g clip-path="url(#cp198)">
<text fill="#010204" xml:space="preserve" transform="matrix(1 0 -0 1 354.55 623.0991)" font-size="12.5" font-family="TimesNewRomanPSMT"><tspan y="0" x="0 6.25">89</tspan></text>
</g>
</g>
<g id="Layer-4" data-name="P">
<g id="Layer-5" data-name="P">
</g>
<clipPath id="cp199">
<path transform="matrix(1,0,0,-1,0,792)" d="M 398.85 154.197 L 503 154.197 L 503 192.666 L 398.85 192.666 Z "/>
</clipPath>
<g clip-path="url(#cp199)">
<text fill="#010204" xml:space="preserve" transform="matrix(1 0 -0 1 435.9812 623.0991)" font-size="12.5" font-family="TimesNewRomanPSMT"><tspan y="0" x="0 6.25 12.5 15.625 21.875">40.5%</tspan></text>
</g>
</g>
</g>
<g id="Layer-3" data-name="P">
<g id="Layer-4" data-name="P">
<g id="Layer-5" data-name="P">
</g>
<clipPath id="cp200">
<path transform="matrix(1,0,0,-1,0,792)" d="M 72 115.728 L 320.35 115.728 L 320.35 154.19699 L 72 154.19699 Z "/>
</clipPath>
<g clip-path="url(#cp200)">
<text fill="#010204" xml:space="preserve" transform="matrix(1 0 -0 1 79 653.5681)" font-size="12.5" font-family="TimesNewRomanPSMT"><tspan y="0" x="0 8.337501 14.587501 20.837502 27.087502 30.560002 34.032506 37.50501 43.75501 49.30251 52.42751 57.97501 64.225009 69.77251 76.02251 82.27251 87.82001 92.68501 95.81001 99.97251 107.607509 110.732509 116.982509 120.107509 123.232509 126.357509 131.905 138.155 144.405 148.5675 154.8175 159.68251 163.15502 169.40502 175.65502 178.78002 181.90502 188.15502 194.40502 200.65502 204.81752">Cognitive changes (E.g., confusion, poor </tspan></text>
<text fill="#010204" xml:space="preserve" transform="matrix(1 0 -0 1 79 669.5681)" font-size="12.5" font-family="TimesNewRomanPSMT"><tspan y="0" x="0 5.5475008 11.797501 18.0475 23.595002 29.142502 35.3925 38.865 43.0275 48.575 52.047506 55.520009 61.770009 68.020008 71.145008 74.270008 78.4325 84.6825 88.61875 94.86875 100.41625 103.88875 108.05125 114.30125 117.77374 124.02374 129.57125 134.43625 139.30126 142.42626 145.55126 151.09876 154.57126 160.11876 163.24376">concentration, forgetfulness, etc.)</tspan></text>
</g>
</g>
<g id="Layer-4" data-name="P">
<g id="Layer-5" data-name="P">
</g>
<clipPath id="cp201">
<path transform="matrix(1,0,0,-1,0,792)" d="M 320.35 115.728 L 398.85 115.728 L 398.85 154.19699 L 320.35 154.19699 Z "/>
</clipPath>
<g clip-path="url(#cp201)">
<text fill="#010204" xml:space="preserve" transform="matrix(1 0 -0 1 354.55 661.5681)" font-size="12.5" font-family="TimesNewRomanPSMT"><tspan y="0" x="0 6.25">83</tspan></text>
</g>
</g>
<g id="Layer-4" data-name="P">
<g id="Layer-5" data-name="P">
</g>
<clipPath id="cp202">
<path transform="matrix(1,0,0,-1,0,792)" d="M 398.85 115.728 L 503 115.728 L 503 154.19699 L 398.85 154.19699 Z "/>
</clipPath>
<g clip-path="url(#cp202)">
<text fill="#010204" xml:space="preserve" transform="matrix(1 0 -0 1 435.9812 661.5681)" font-size="12.5" font-family="TimesNewRomanPSMT"><tspan y="0" x="0 6.25 12.5 15.625 21.875">37.7%</tspan></text>
</g>
</g>
</g>
<g id="Layer-3" data-name="P">
<g id="Layer-4" data-name="P">
<g id="Layer-5" data-name="P">
</g>
<clipPath id="cp203">
<path transform="matrix(1,0,0,-1,0,792)" d="M 72 91.72803 L 320.35 91.72803 L 320.35 115.72803 L 72 115.72803 Z "/>
</clipPath>
<g clip-path="url(#cp203)">
<text fill="#010204" xml:space="preserve" transform="matrix(1 0 -0 1 79 693.0371)" font-size="12.5" font-family="TimesNewRomanPSMT"><tspan y="0" x="0 9.0275 15.2775 18.75 21.875 27.4225 33.6725 39.9225 45.47 49.6325 53.105 58.6525 64.9025 70.45 75.9975 82.2475 85.3725 90.92 97.17 103.42 106.545 111.41 114.8825 119.045 124.5925 129.4575 134.32251 137.44751 141.61002 147.15752 152.70502 158.25252 161.72502 165.19753 171.44753">Not experienced any stress reaction</tspan></text>
</g>
</g>
<g id="Layer-4" data-name="P">
<g id="Layer-5" data-name="P">
</g>
<clipPath id="cp204">
<path transform="matrix(1,0,0,-1,0,792)" d="M 320.35 91.72803 L 398.85 91.72803 L 398.85 115.72803 L 320.35 115.72803 Z "/>
</clipPath>
<g clip-path="url(#cp204)">
<text fill="#010204" xml:space="preserve" transform="matrix(1 0 -0 1 354.55 693.0371)" font-size="12.5" font-family="TimesNewRomanPSMT"><tspan y="0" x="0 6.25">76</tspan></text>
</g>
</g>
<g id="Layer-4" data-name="P">
<g id="Layer-5" data-name="P">
</g>
<clipPath id="cp205">
<path transform="matrix(1,0,0,-1,0,792)" d="M 398.85 91.72803 L 503 91.72803 L 503 115.72803 L 398.85 115.72803 Z "/>
</clipPath>
<g clip-path="url(#cp205)">
<text fill="#010204" xml:space="preserve" transform="matrix(1 0 -0 1 435.9812 693.0371)" font-size="12.5" font-family="TimesNewRomanPSMT"><tspan y="0" x="0 6.25 12.5 15.625 21.875">34.5%</tspan></text>
</g>
</g>
</g>
</g>
<clipPath id="cp206">
<path transform="matrix(1,0,0,-1,0,792)" d="M 71 90.16602 L 505 90.16602 L 505 219.16602 L 71 219.16602 Z "/>
</clipPath>
<g clip-path="url(#cp206)">
<path transform="matrix(1,0,0,1,71,572.834)" stroke-width="1" stroke-linecap="butt" stroke-miterlimit="4" stroke-linejoin="miter" fill="none" stroke="#000000" d="M 1 26 L 432 26 "/>
<path transform="matrix(1,0,0,1,71,572.834)" stroke-width="1" stroke-linecap="butt" stroke-miterlimit="4" stroke-linejoin="miter" fill="none" stroke="#000000" d="M 1 2 L 432 2 "/>
</g>
</g>
</g>
</g>
</svg>
