<?xml version="1.0" encoding="UTF-8" standalone="no"?>
<!DOCTYPE svg PUBLIC "-//W3C//DTD SVG 1.1//EN" "http://www.w3.org/Graphics/SVG/1.1/DTD/svg11.dtd">
<svg xmlns="http://www.w3.org/2000/svg" xmlns:xlink="http://www.w3.org/1999/xlink" version="1.1" width="612pt" height="792pt" viewBox="0 0 612 792">
<g enable-background="new">
<clipPath id="cp2">
<path transform="matrix(1,0,0,-1,0,792)" d="M 0 0 L 612 0 L 612 792 L 0 792 Z "/>
</clipPath>
<g clip-path="url(#cp2)">
<path transform="matrix(1,0,0,-1,0,792)" d="M 0 792 L 612 792 L 612 0 L 0 0 Z " fill="#ffffff"/>
<g id="Layer-1" data-name="P">
</g>
<clipPath id="cp3">
<path transform="matrix(1,0,0,-1,0,792)" d="M 68.67773 72 L 543.3222 72 L 543.3222 723.3223 L 68.67773 723.3223 Z "/>
</clipPath>
<g clip-path="url(#cp3)">
<text fill="#0e101a" xml:space="preserve" transform="matrix(1 0 -0 1 108 83.89447)" font-size="12" font-family="TimesNewRomanPSMT"><tspan y="0" x="0 7.3296 13.329599 18.655201 21.655201 25.651202 31.651202 37.6512 40.9848 46.3104 52.3104 55.3104 60.635999 66.636 72.636 77.9616 83.2872 86.6208 89.95439 95.95439 101.95439 104.95439 109.624797 115.624797 120.2952 123.62879 128.95439 138.288 141.288 144.6216 149.29199 152.29199 155.6256 160.9512 164.73001 170.73001 176.05562 179.38922 185.38922 188.38922 194.38922 200.38922 206.38922 211.71483 215.71083 221.71083 227.03644 233.03644 236.03644 242.03644 248.03644 251.03644 254.37004 260.37007 264.36607 269.69166 275.01725 278.01725 284.01725 289.34284 292.67643 296.01 302.01 308.01 313.3356 316.6692 319.6692 325.6692 331.6692 336.99479 340.99079 346.99079 351.6612 354.99479 357.99479 361.32838 367.32838 372.65397 375.65397 383.65797 388.98356 394.98356 398.31715 402.31315 407.63874 410.97233">The Indian education system is largely governed by three national boards: the Central </tspan></text>
<text fill="#0e101a" xml:space="preserve" transform="matrix(1 0 -0 1 72 113.38483)" font-size="12" font-family="TimesNewRomanPSMT"><tspan y="0" x="0 8.004001 14.004001 19.329602 23.325602 29.325602 32.3256 38.3256 42.321599 45.321599 51.996 57.321599 62.647199 68.6472 74.6472 80.6472 85.9728 89.9688 95.9688 98.9688 106.2984 112.2984 118.2984 123.624 128.9496 132.2832 135.6168 141.6168 147.6168 150.6168 154.61281 162.6168 170.6208 177.2952 184.6248 188.6208 191.6208 194.6208 197.9544 203.9544 209.28002 212.28002 220.28401 226.28401 232.28401 238.28401 243.60962 246.94322 250.27683 253.27683 257.27284 263.27284 267.26884 270.26884 273.60243 279.60243 284.928 287.928 291.924 297.924 303.924 307.2576 312.5832 318.5832 321.5832 328.2576 333.5832 339.5832 345.5832 351.5832 354.91679 357.91679 365.92079 371.24638 375.24238 378.57597 381.90956 385.90556 389.23915 394.56474 399.89033 403.2239 408.5495">Board of Secondary Education (CBSE), the Council for the Indian School Certificate </tspan></text>
<text fill="#0e101a" xml:space="preserve" transform="matrix(1 0 -0 1 72 142.875)" font-size="12" font-family="TimesNewRomanPSMT"><tspan y="0" x="0 7.3296 13.329599 18.655201 27.988802 31.322403 37.322404 42.648004 45.9816 49.315206 55.315206 61.315206 64.3152 68.3112 76.3152 80.3112 86.9856 94.9896 102.3192 106.3152 109.3152 112.3152 117.6408 123.6408 129.64081 132.64081 135.97441 141.97441 147.30002 150.30002 158.96642 164.29203 167.62563 170.95923 176.95923 182.95923 188.28484 191.61844 194.61844 198.61444 204.61444 209.28484 212.61844 215.95204 219.28565 225.28565 228.61925 233.94486 236.94486 242.94486 246.94086 249.94086 258.60728 264.60728 269.93287 275.93287 278.93287 285.60728 290.93287 296.93287 302.93287 308.93287 312.26646 315.60005 321.60005 327.60005 330.60005 334.59605 343.26246 347.25846 355.92488 362.59928 366.59529 369.59529 371.93287 380.59928 386.59928 391.92488 395.92088 399.25447 402.25447 406.25047 410.24647 416.24647 425.58006 428.58006 431.91365 437.91365 443.23924 447.90965 453.23524 456.23524">Examination (CISCE), and the National Institute of Open Schooling (NIOS). Apart from these, </tspan></text>
<text fill="#0e101a" xml:space="preserve" transform="matrix(1 0 -0 1 72 172.36518)" font-size="12" font-family="TimesNewRomanPSMT"><tspan y="0" x="0 3.3336006 9.333601 14.659202 18.655201 23.980803 26.980803 32.306406 35.640005 40.310403 46.310403 49.310403 54.636 60.636 63.9696 68.64001 71.9736 74.9736 81.648 84.9816 90.3072 93.64079 98.96639 101.96639 109.97039 115.97039 121.29599 125.29199 131.29199 135.96239 138.96239 141.96239 150.62879 156.62879 159.96239 165.288 171.288 174.288 180.288 185.6136 191.6136 196.93921 199.93921 204.6096 210.6096 213.9432 217.27681 222.60242 228.60242 231.93602 234.93602 240.93602 246.26163 250.93202 256.2576 262.2576 265.2576 271.2576 277.2576 280.2576 283.5912 289.5912 294.91679 297.91679 301.25038 307.25038 312.57597 317.90156 321.23515 324.56874 330.56874 334.56474 338.56074 343.88633 347.2199 352.5455 358.5455 363.8711 369.8711 373.20469 376.20469 381.53028 387.53028 391.52629 395.52229 398.85588 404.18147 410.18147 413.51506 419.51506 428.84864 431.84864 437.17424 443.17424 449.17424 452.17424 457.49983 461.49583 466.8214">there also exist State Boards, which have syllabi based on the locally-relevant curriculum and are </tspan></text>
<text fill="#0e101a" xml:space="preserve" transform="matrix(1 0 -0 1 72 201.85553)" font-size="12" font-family="TimesNewRomanPSMT"><tspan y="0" x="0 6 12 17.325602 21.321602 26.647204 29.980805 35.306406 41.306406 44.306406 47.640005 53.640005 59.640005 62.973608 68.9736 72.3072 78.3072 84.3072 89.6328 92.96639 96.29999 102.29999 105.29999 111.29999 117.29999 120.29999 123.63358 129.63358 134.95919 137.95919 144.63358 147.96718 153.29279 156.62639 161.952 164.952 173.6184 179.6184 185.6184 190.944 194.94 200.94 210.2736 215.59922 221.59922 224.93282 229.60321 232.60321 234.94081 243.60721 246.94081 250.27442 253.27442 257.94483 261.2784 267.2784 273.2784 278.604 284.604 287.9376 292.608 295.608 301.608 305.604 310.9296 316.9296 322.2552 326.2512 331.57679 334.57679 338.57279 344.57279 348.5688 351.5688 357.5688 363.5688 368.89439 372.89039 378.89039 381.89039 387.21598 393.21598 398.54158 407.87516 411.20875 417.20875 422.53434 425.86793 429.2015 435.2015 441.2015 445.87193 448.87193 452.2055 458.2055">operated individually by the State Governments. All students prepare for board examinations in </tspan></text>
<text fill="#0e101a" xml:space="preserve" transform="matrix(1 0 -0 1 72 231.3457)" font-size="12" font-family="TimesNewRomanPSMT"><tspan y="0" x="0 6 12 15.3336 21.3336 24.3336 29.6592 35.659204 41.659204 44.659204 50.659204 56.659204 59.9928 65.9928 69.9888 75.9888 79.9848 85.3104 91.3104 96.636">10th and 12th-grade.</tspan></text>
<g id="Layer-2" data-name="Span">
<text fill="#0e101a" xml:space="preserve" transform="matrix(1 0 -0 1 72 231.3457)" font-size="12" font-family="TimesNewRomanPSMT"><tspan y="0" x="99.63867"> </tspan></text>
</g>
</g>
<g id="Layer-1" data-name="P">
<text fill="#0e101a" xml:space="preserve" transform="matrix(1 0 -0 1 108 260.83589)" font-size="12" font-family="TimesNewRomanPSMT"><tspan y="0" x="0 7.3296 13.329599 18.655201 21.655201 27.655201 33.6552 36.988805 42.988805 46.984804 52.984804 56.9808 62.3064 68.3064 73.631999 76.631999 81.957599 87.957599 93.957599 98.628 101.628 110.2944 113.628 116.96159 122.96159 125.96159 129.2952 135.2952 140.6208 143.6208 147.6168 150.95041 154.94641 159.6168 162.95041 165.95041 171.95041 177.95041 183.27602 187.27202 193.27202 196.27202 201.59763 207.59763 212.92324 222.25684 225.25684 228.25684 233.58245 236.58245 241.90805 245.90406 251.90406 257.22966 260.56324 265.88883 269.2224 272.2224 276.2184 281.544 286.8696 290.2032 296.2032 300.1992 303.1992 306.53279 312.53279 315.53279 321.53279 326.85838 330.19197 335.51756 339.51356 348.84715 352.18074 358.18074 361.5143 367.5143 373.5143 376.5143 379.8479 385.8479 391.1735 394.1735 398.8439 402.1775 406.1735 411.49909 416.82469 426.15827">The 10th-grade ends with the first board exam, a crucial factor in determining the stream </tspan></text>
<text fill="#0e101a" xml:space="preserve" transform="matrix(1 0 -0 1 72 290.3262)" font-size="12" font-family="TimesNewRomanPSMT"><tspan y="0" x="0 6 9.996 12.996 18.321602 24.321602 30.321602 35.6472 40.9728 44.3064 47.640005 53.640005 59.640005 62.640005 67.31041 70.644008 76.644008 82.644008 87.969608 93.969608 97.3032 101.9736 104.9736 110.9736 116.9736 120.969608 125.64001 131.64002 136.96562 139.96562 143.29923 149.29923 152.29923 156.96962 162.96962 168.29523 173.62084 178.94644 183.61684 188.28723 191.62084 197.62084 202.94644 205.94644 211.94644 215.94245 221.26805 227.26805 232.59366 237.26406 240.26406 243.26406 249.93845 253.27205 257.26805 262.59364 267.91923 277.2528 281.92323 284.92323 290.2488 294.2448 299.5704 302.5704 307.896 313.2216 316.55519 321.88078 327.88078 333.88078 337.87678 341.21037 346.53596 351.86155 357.86155 360.86155 370.19514 375.52073 378.8543 384.8543 388.1879 394.1879 397.1879 400.52149 406.52149 409.85508 415.85508 418.85508 423.52549 428.85108 432.18467 437.51026 443.51026 448.83586 454.16145 457.16145">of education students pursue in successive grades. Streams are categorized mainly into science, </tspan></text>
<text fill="#0e101a" xml:space="preserve" transform="matrix(1 0 -0 1 72 319.8164)" font-size="12" font-family="TimesNewRomanPSMT"><tspan y="0" x="0 6 12 21.333601 26.659203 32.659204 35.9928 39.326406 42.660009 47.985609 52.656007 55.656007 58.656007 63.981607 69.981609 75.981609 78.981609 84.307209 90.307209 99.6408 108.974399 114.299999 118.296 123.6216 128.9472 131.9472 134.9472 138.9432 144.9432 147.9432 153.26882 156.26882 161.59442 167.59442 173.59442 179.59442 182.92803 186.92403 192.92403 195.92403 204.59043 210.59043 215.91603 219.91204 225.23764 228.23764 234.23764 240.23764 243.23764 249.23764 259.23365 262.23365 268.23365 272.22966 275.22966 278.56324 284.56324 289.88883 292.88883 298.88883 302.88484 308.21043 314.21043 320.21043 325.536 328.8696 334.1952 338.8656 341.8656 350.532 356.532 362.532 365.532 371.532 376.8576 382.8576 388.1832 391.1832 396.5088 399.5088 402.84239 408.16798 413.49357 419.49357 425.49357 428.82716 434.15275 439.47834 442.81193">humanities, and commerce. In a country where 37.3% of the graduates who have a technical </tspan></text>
<text fill="#0e101a" xml:space="preserve" transform="matrix(1 0 -0 1 72 349.3066)" font-size="12" font-family="TimesNewRomanPSMT"><tspan y="0" x="0 5.3256008 11.325601 17.3256 22.651202 27.976803 31.310404 34.644006 40.644006 46.644006 49.644006 55.644006 60.969606 66.969608 70.96561 76.29121 81.616809 84.616809 88.61281 93.93841 103.272 108.5976 111.9312 117.9312 120.9312 126.9312 132.9312 138.2568 147.59041 153.59041 156.92401 162.92401 168.92401 174.24962 180.24962 183.24962 187.24562 197.91602 203.24163 209.24163 213.23763 219.23763 222.57123 226.56723 231.89284 234.89284 244.22644 247.22644 253.90084 259.2264 263.2224 266.556 272.556 277.8816 280.8816 283.8816 289.8816 295.8816 301.8816 307.8816 311.8776 314.8776 317.8776 322.548 325.8816 331.8816 337.8816 343.20719 349.20719 352.54078 357.21119 360.21119 365.53678 369.53279 374.85838 377.85838 383.85838 387.85438 393.17997 397.85038 402.52079 408.52079 412.51679 417.84239 423.84239 426.84239 432.84239 438.84239">education degree remain unemployed (Mehrotra &#x0026; Parida, 2019), students are pressured by </tspan></text>
<text fill="#0e101a" xml:space="preserve" transform="matrix(1 0 -0 1 72 378.7969)" font-size="12" font-family="TimesNewRomanPSMT"><tspan y="0" x="0 3.996 9.3216 18.655201 21.988802 25.322403 31.322403 34.322404 43.656003 48.9816 58.315206 64.3152 69.6408 73.6368 78.307209 81.307209 84.6408 90.6408 93.6408 96.974399 102.299999 108.299999 113.625598 116.625598 121.296 126.6216 129.9552 135.2808 141.2808 146.60642 151.93202 154.93202 160.25763 164.92803 167.92803 171.26163 177.26163 182.58724 185.92084 189.91684 192.91684 197.58724 200.92084 204.91684 210.24245 215.56806 224.90166 227.90166 233.90166 239.22727 244.55287 249.87848 255.87848 260.5489 265.87449 268.87449 272.20808 275.54167 278.54167 281.87525 287.20085 292.52644 298.52644 303.19685 306.19685 309.53044 315.53044 318.53044 327.864 333.864 337.86003 343.1856 346.1856 351.5112 357.5112 360.8448 366.17039 372.17039 376.8408 380.17439 386.17439 391.49998 394.49998 397.83357 403.83357 409.83357">family members to take science as their stream because it leads to more extensive job </tspan></text>
<text fill="#0e101a" xml:space="preserve" transform="matrix(1 0 -0 1 72 408.2871)" font-size="12" font-family="TimesNewRomanPSMT"><tspan y="0" x="0 6 12 18 24 27.996 31.329602 37.3296 43.3296 46.663206 49.996809 53.33041 58.65601 63.32641 66.32641 70.32241 78.988819 84.314418 90.314418 93.314418 98.640018 101.97361 104.97361 110.29921 113.632808 116.632808 119.632808 122.632808 128.63282 134.63282 140.63282 146.63282 150.62882 153.62882 156.62882 163.3032 169.3032 173.29921 176.29921 185.63282 191.63282 196.3032 199.63681 202.63681 208.63681 214.63681 219.96242 223.95842 229.95842 234.62882 237.62882 240.62882 243.96242 249.96242 255.28803 258.6216 264.6216 270.6216 273.9552 279.9552 285.9552 288.9552 296.9592 304.9632 311.6376 318.9672 321.9672 327.2928 333.2928 339.2928 342.2928 350.29679 354.2928 360.9672 368.9712 376.30079 379.30079 382.30079 386.9712 390.30479 396.30479 402.30479 407.63038 413.63038 416.96397 421.63438 424.63438 429.95997 435.28556 441.28556 447.28556 453.28556 456.61915">opportunities (Deb et al., 2015). For most boards, including CBSE and CISCE, students cannot </tspan></text>
<text fill="#0e101a" xml:space="preserve" transform="matrix(1 0 -0 1 72 437.7773)" font-size="12" font-family="TimesNewRomanPSMT"><tspan y="0" x="0 5.3256008 11.325601 16.651202 22.651202 28.651202 33.976804 36.976804 40.310407 46.310407 51.636007 54.96961 58.965608 61.965608 66.63601 69.969608 73.96561 79.29121 84.616809 93.9504 96.9504 102.276 106.272 109.6056 114.9312 118.9272 121.9272 125.9232 131.24881 137.24881 140.58242 145.2528 148.58641 152.58242 157.90802 161.24163 164.57523 170.57523 176.57523 179.57523 183.57123 189.57123 193.56723 196.56723 199.90084 205.90084 211.22644 214.22644 220.22644 226.22644 229.56005 235.56005 239.55605 245.55605 249.55205 254.87766 260.87767 266.20326 269.20326 275.20326 281.20326 286.52885 290.52485 296.52485 299.52485 304.85044 310.85044 316.17604 325.5096 328.8432 334.8432 340.1688 343.50239 346.83598 352.83598 358.83598 361.83598 364.83598 373.50239 379.50239 382.83598 388.16157 394.16157 397.16157 400.49516 405.82075 411.82075 417.14634 421.81675 424.81675 430.81675 434.15034 439.47593 444.8015 450.1271">change their stream after registration for the 12th-grade board examination, which takes place </tspan></text>
<text fill="#0e101a" xml:space="preserve" transform="matrix(1 0 -0 1 72 467.2676)" font-size="12" font-family="TimesNewRomanPSMT"><tspan y="0" x="0 6 12 15.996 19.329602 25.329602 31.329602 34.3296 37.663206 43.663206 48.988805 51.988805 61.322408 64.656009 70.656009 76.656009 79.9896 85.3152 88.3152 94.3152 98.3112 101.3112 104.6448 110.6448 115.9704 118.9704 124.5252 130.5252 133.85881 139.85881 143.85482 149.85482 153.85082 159.17642 165.17642 170.50203 173.50203 178.82764 184.15325 189.47885 195.47885 200.80446 210.13806 213.47167 218.79727 221.79727 226.46767 231.79328 236.46367 241.13407 244.46767 250.46767 256.46766 259.46766 262.25047 269.58006 275.58006 281.58006 286.25047 289.25047 292.25047 296.92088 300.25447 306.25447 312.25447 317.58006 323.58006 326.91365 331.58406 334.58406 340.58406 345.90965 351.23524 357.23524 360.23524 363.56883 369.56883 372.56883 378.56883 383.8944 389.22 392.5536 398.5536 403.87919 406.87919 412.87919 418.87919 421.87919 425.21278 431.21278 436.53837 439.87196 443.86796">during the middle of the 11th-grade academic session. Thus, students need to decide on their </tspan></text>
<text fill="#0e101a" xml:space="preserve" transform="matrix(1 0 -0 1 72 496.7578)" font-size="12" font-family="TimesNewRomanPSMT"><tspan y="0" x="0 4.6704 10.670401 16.6704 20.004002 25.329604 30.655205 33.988805 38.659204 41.659204 50.325605 53.659208 56.99281 62.99281 66.32641 72.32641 75.32641 80.65201 83.65201 86.9856 90.3192 99.652797 102.98639 106.319988 111.645587 117.645587 120.645587 123.97918 127.312778 136.64638 141.97199 144.97199 150.29759 156.29759 162.29759 165.29759 173.96399 177.29759 180.6312 186.6312 192.6312 198.6312 201.9648 204.9648 210.2904 216.2904 222.2904 225.2904 229.9608 235.9608 241.9608 246.6312 251.9568 257.9568 263.9568 269.28239 275.28239 278.61598 281.61598 285.61198 288.94557 294.27116 300.27116 303.60475 309.60475 312.93833 316.2719 319.6055 322.9391 328.16029">subjects within a limited time and without any subsequent flexibility.</tspan></text>
<g id="Layer-2" data-name="Span">
<text fill="#0e101a" xml:space="preserve" transform="matrix(1 0 -0 1 72 496.7578)" font-size="12" font-family="TimesNewRomanPSMT"><tspan y="0" x="331.1719"> </tspan></text>
</g>
</g>
<g id="Layer-1" data-name="P">
<text fill="#0e101a" xml:space="preserve" transform="matrix(1 0 -0 1 108 526.248)" font-size="12" font-family="TimesNewRomanPSMT"><tspan y="0" x="0 7.3296 13.329599 18.655201 21.655201 27.655201 33.6552 36.988805 42.988805 46.984804 52.984804 56.9808 62.3064 68.3064 73.631999 76.631999 82.631999 88.631999 93.957599 97.9536 103.9536 106.9536 112.2792 118.2792 123.6048 132.9384 136.272 142.272 147.59761 150.93122 154.26482 160.26482 166.26482 169.26482 175.26482 178.59842 183.92403 189.92403 194.59442 197.59442 202.92003 208.92003 211.92003 217.24564 220.57924 225.90485 235.23845 240.56406 246.56406 249.89766 255.22327 258.55686 261.55686 265.55287 271.55287 274.88645 280.21205 283.21205 287.20805 293.20805 297.20405 300.20405 305.52964 311.52964 320.86323 324.1968 327.5304 330.86399 336.18959 342.18959 347.51518 352.84077 355.84077 359.17436 365.17436 368.50794 374.50794 377.50794 382.83354 385.83354 391.83354 395.82954 401.15513 405.15113 410.4767 414.47273 418.46873 423.7943 429.7943">The 12th-grade board examination plays an elemental role for admittance into a preferred </tspan></text>
<text fill="#0e101a" xml:space="preserve" transform="matrix(1 0 -0 1 72 555.7383)" font-size="12" font-family="TimesNewRomanPSMT"><tspan y="0" x="0 6 12 15.3336 21.3336 26.6592 30.655201 35.3256 38.6592 41.9928 47.9928 50.9928 56.9928 60.9888 63.9888 69.3144 75.3144 78.647998 81.98159 87.30719 93.30719 98.63279 101.63279 104.63279 111.3072 117.3072 121.3032 124.636798 130.6368 135.9624 139.9584 149.292 155.292 159.28801 164.61362 167.61362 170.61362 175.28401 180.60962 183.94322 189.26883 195.26883 200.59444 205.92005 208.92005 213.59044 216.92404 222.92404 228.92404 234.24965 240.24965 243.58325 248.25365 251.25365 256.57923 262.57923 268.57923 273.90483 277.90083 281.2344 286.56 292.56 297.8856 303.21119 306.21119 311.53678 317.53678 323.53678 328.86238 334.86238 337.86238 343.86238 347.85838 353.18397 357.85438 362.52479 368.52479 372.52079 377.84638 380.84638 384.17997 390.17997 393.17997 397.85038 403.17597 409.17597 413.17198 418.49757 421.49757 427.49757 430.83116 436.83116 442.83116">university or college. Furthermore, science students experience added pressure to score high </tspan></text>
<text fill="#0e101a" xml:space="preserve" transform="matrix(1 0 -0 1 72 585.2285)" font-size="12" font-family="TimesNewRomanPSMT"><tspan y="0" x="0 9.3336 14.6592 18.6552 24.6552 29.3256 32.3256 35.6592 41.6592 44.6592 47.9928 53.9928 59.3184 62.3184 68.318408 74.318408 77.652 83.652 88.9776 92.9736 97.644008 100.9776 104.311199 110.311199 113.311199 118.636798 124.636798 127.97039 131.96639 137.29199 143.29199 148.6176 153.9432 156.9432 162.26882 168.26882 173.59442 182.92803 187.59842 190.59842 194.59442 199.92003 205.92003 211.92003 215.25363 219.24964 224.57524 230.57524 233.57524 237.57125 243.57125 247.56725 250.56725 256.56727 262.56727 266.56327 271.23368 277.23368 280.56727 286.56727 292.56727 295.56727 300.23768 306.23768 311.56327 316.88887 320.22245 325.54804 328.88163 332.2152 337.5408 342.8664 348.8664 351.8664 357.192 363.192 369.192 373.188 377.8584 383.184 387.8544 390.8544 395.5248 401.5248 406.8504 412.8504 415.8504 421.176 425.8464 428.8464 432.18 438.18 444.18 448.8504 454.176">marks in the university entrance exams required for pursuing specialized courses such as those </tspan></text>
<text fill="#0e101a" xml:space="preserve" transform="matrix(1 0 -0 1 72 614.7188)" font-size="12" font-family="TimesNewRomanPSMT"><tspan y="0" x="0 3.996 9.996 13.992001 16.992 22.317603 28.317603 34.317605 37.651205 43.651205 48.976804 54.302404 58.2984 61.632 67.632 73.632 76.632 81.9576 87.9576 93.9576 96.9576 106.2912 111.6168 117.6168 120.95039 126.27599 131.6016 134.9352 137.9352 143.9352 149.2608 155.2608 159.2568 164.58242 169.90802 174.57842 177.57842 180.57842 189.24481 195.24481 198.57842 204.57842 209.90402 213.90003 218.57042 221.90402 225.23763 231.23763 234.23763 239.56324 245.56324 248.89684 252.89284 258.2184 264.2184 269.544 274.8696 277.8696 283.1952 289.1952 294.52079 303.85438 306.85438 312.17997 318.17997 321.51356 325.50956 331.50956 335.28837 339.28437 343.95478 346.95478 350.95079 360.28437 363.61796 369.61796 372.95155 382.28514 388.28514 397.6187 400.6187 409.9523 415.2779 419.2739 425.2739 429.9443 432.9443 436.9403 442.9403 446.9363">for engineering and medical degrees. University entrance exam cut-offs (minimum marks for </tspan></text>
<text fill="#0e101a" xml:space="preserve" transform="matrix(1 0 -0 1 72 644.209)" font-size="12" font-family="TimesNewRomanPSMT"><tspan y="0" x="0 6 12 17.325602 20.659203 23.992804 27.988804 31.322405 36.648008 41.973608 45.30721 48.640813 54.640813 60.640813 64.63681 67.63681 70.970409 76.970409 79.970409 83.96641 89.96641 95.96641 99.3 104.6256 106.78801 111.45841 114.45841 123.79201 129.792 134.4624 137.796 140.796 144.792 150.11762 156.11762 162.11762 170.78401 176.78401 182.10962 188.10962 191.10962 196.43523 202.43523 205.76883 209.10243 214.42804 220.42804 225.75365 230.42404 233.42404 238.74965 242.74565 248.07126 251.07126 257.07127 262.39686 267.72245 273.72245 283.05604 286.38963 292.38963 298.38963 301.38963 306.7152 311.38563 314.7192 320.7192 326.7192 332.7192 338.7192 342.0528 348.0528 354.0528 357.38639 363.38639 366.38639 371.71199 377.71199 387.04557 393.04557 398.37117 401.70475 405.03834 408.37193 411.7055 417.7055 423.0311 426.0311">qualification) in India's most renowned colleges are becoming astoundingly competitive, </tspan></text>
<text fill="#0e101a" xml:space="preserve" transform="matrix(1 0 -0 1 72 673.6992)" font-size="12" font-family="TimesNewRomanPSMT"><tspan y="0" x="0 3.996 9.3216 14.647201 19.972802 25.972802 29.306403 35.306406 41.306406 44.306406 49.632005 55.632005 61.632005 70.29841 76.29841 81.62401 85.62001 90.94561 93.94561 99.94561 105.27121 108.604808 117.27121 122.59681 127.92241 133.92241 136.92241 142.92241 148.92241 158.91841 162.91442 168.91442 174.91442 184.91042 187.91042 191.24402 197.24402 200.24402 206.24402 212.24402 218.24402 224.24402 227.24402 231.24002 235.23603 239.23203 242.56563 245.89923 251.89923 257.89924 263.22483 267.22084 270.22084 279.5544 282.5544 289.22883 294.5544 298.5504 302.54643 307.872 311.868 317.1936 322.5192 325.5192 328.5192 334.5192 340.5192 346.5192 352.5192 356.5152 359.5152">reaching anywhere between 89%-99% in 2019 (Iftikhar &#x0026; Sarfaraz, 2019). </tspan></text>
<g id="Layer-2" data-name="Span">
<text fill="#0e101a" xml:space="preserve" transform="matrix(1 0 -0 1 72 673.6992)" font-size="12" font-family="TimesNewRomanPSMT"><tspan y="0" x="362.5254"> </tspan></text>
</g>
</g>
</g>
</g>
</svg>
