<?xml version="1.0" encoding="UTF-8" standalone="no"?>
<!DOCTYPE svg PUBLIC "-//W3C//DTD SVG 1.1//EN" "http://www.w3.org/Graphics/SVG/1.1/DTD/svg11.dtd">
<svg xmlns="http://www.w3.org/2000/svg" xmlns:xlink="http://www.w3.org/1999/xlink" version="1.1" width="612pt" height="792pt" viewBox="0 0 612 792">
<g enable-background="new">
<clipPath id="cp6">
<path transform="matrix(1,0,0,-1,0,792)" d="M 0 0 L 612 0 L 612 792 L 0 792 Z "/>
</clipPath>
<g clip-path="url(#cp6)">
<path transform="matrix(1,0,0,-1,0,792)" d="M 0 792 L 612 792 L 612 0 L 0 0 Z " fill="#ffffff"/>
<g id="Layer-1" data-name="P">
</g>
<clipPath id="cp7">
<path transform="matrix(1,0,0,-1,0,792)" d="M 68.67773 67.89258 L 543.3222 67.89258 L 543.3222 723.32229 L 68.67773 723.32229 Z "/>
</clipPath>
<g clip-path="url(#cp7)">
<text fill="#0e101a" xml:space="preserve" transform="matrix(1 0 -0 1 72 83.89447)" font-size="12" font-family="TimesNewRomanPSMT"><tspan y="0" x="0 3.3336006 9.333601 14.659202 17.992802 20.992802 25.6632 31.6632 40.9968 46.3224 49.3224 53.992799 57.326398 63.326398 69.3264 74.652 80.652 83.985599 88.656 91.656 100.98959 104.32319 110.32319 116.32319 119.656787 122.656787 128.65679 133.98239 136.98239 140.9784 146.304 151.62961 154.96321 158.29682 164.29682 170.29682 173.29682 182.63042 188.63042 192.62642 197.95203 200.95203 204.94803 210.27364 213.60724 218.93285 224.93285 230.25846 236.25846 239.25846 242.25846 248.25846 253.58406 257.58006 263.58006 268.90565 274.90565 279.57606 282.57606 287.90165 293.90165 299.22724 305.22724 308.22724 313.55284 319.55284 325.55284 330.22325 333.55683 339.55683 344.88243 348.87843 352.212 358.212 364.212 367.212 370.5456 376.5456 381.8712 384.8712 389.5416 392.87519 396.20878 402.20878 407.53437 410.86796 414.20155 420.20155 426.20155 429.20155 434.52714 439.19755 442.19755 447.52314">that some students might be feeling more relaxed, perhaps even considering the situation as a </tspan></text>
<text fill="#0e101a" xml:space="preserve" transform="matrix(1 0 -0 1 72 113.38483)" font-size="12" font-family="TimesNewRomanPSMT"><tspan y="0" x="0 9.3336 15.3336 20.6592 26.6592 30.655201 36.6552 41.9808 47.3064 53.3064 58.632 64.632 67.632 73.632 77.628009 82.953609 88.279209 94.279209 97.279209 101.27521 105.27121 111.27121 120.604808 123.604808 126.9384 132.9384 138.264 141.264 145.26001 148.59362 154.59362 160.59362 164.58962 170.58962 176.58962 181.26001 184.26001 188.9304 194.25601 200.25601 206.25601 212.25601 215.58962 218.58962 223.91522 229.91522 233.91123 237.90723 241.24083 246.56644 252.56644 255.90004 261.90003 271.2336 274.2336 277.2336 285.90003 291.90003 300.56645 305.89204 311.89204 317.21763 320.7336 323.7336 326.7336 332.7336 336.0672 342.0672 347.3928 351.3888 354.3888 358.3848 363.7104 369.03599 372.36958 378.36958 382.36558 387.03599 390.03599 394.7064 400.7064 406.7064 412.7064 418.03199 422.7024 426.03599 429.03599 432.36958 438.36958 443.69517 447.02876 450.02876 453.36235 459.36235 462.69593 467.36634">much-needed break from the rigorous school curriculum. However, other factors suggest that this </tspan></text>
<text fill="#0e101a" xml:space="preserve" transform="matrix(1 0 -0 1 72 142.875)" font-size="12" font-family="TimesNewRomanPSMT"><tspan y="0" x="0 6 12 18 24 27.333601 33.333604 38.659204 43.3296 46.663206 51.333604 54.333604 63.667203 67.0008 73.0008 79.0008 82.3344 85.3344 91.3344 96.659999 99.659999 103.656 108.9816 112.31519 116.985599 122.311199 125.311199 128.094 134.586 143.2524 149.2524 152.2524 158.2524 164.2524 167.586 173.586 177.582 183.582 187.578 192.90361 198.90361 204.22922 207.22922 211.89962 215.23322 221.23322 227.23322 232.55883 238.55883 241.89243 246.56282 249.56282 252.89643 258.89643 261.89643 265.89244 271.89244 277.89244 281.226 286.5516 289.5516 293.5476 298.8732 304.8732 310.8732 314.8692 318.2028 323.52839 329.52839 332.86198 338.86198 341.86198 347.18757 353.18757 362.52116 371.85475 375.18833 378.5219 381.8555 387.1811 393.1811 396.1811 400.8515 406.8515 410.1851 415.51069 418.84428 424.84428 430.16987 433.16987 439.16987 445.16987 449.16587 452.49946 458.49946 464.49946">hypothesis might be false. Two 10th-grade students in India reportedly committed suicide during </tspan></text>
<text fill="#0e101a" xml:space="preserve" transform="matrix(1 0 -0 1 72 172.36518)" font-size="12" font-family="TimesNewRomanPSMT"><tspan y="0" x="0 3.3336006 9.333601 12.667201 17.3376 20.3376 26.3376 31.663203 35.659204 38.9928 44.9928 50.9928 53.9928 59.9928 65.9928 71.3184 74.3184 77.65199 83.65199 86.65199 91.97759 97.97759 103.30319 108.62879 113.299198 117.9696 120.9696 126.2952 131.6208 136.94641 142.94641 148.27202 157.60562 160.93923 166.26483 169.26483 173.93523 177.26883 181.26483 186.59044 191.26084 195.93123 198.93123 204.25684 210.25684 216.25684 219.25684 223.25284 228.57845 233.90406 237.90006 240.90006 246.90006 250.89606 253.89606 257.89207 263.21766 266.55125 269.88484 275.88484 279.88084 285.20643 288.20643 291.54 297.54 300.54 305.8656 311.8656 317.1912 326.52479 329.85838 335.85838 341.18397 344.51756 347.85115 353.85115 359.85115 364.52156 367.52156 371.51756 376.84315 381.51356 387.51356 390.84715 394.18074 397.5143 403.5143 409.5143 412.5143 416.5103 420.50633 426.50633 435.8399 438.8399 444.1655 450.1655">this period due to excess academic stress and fear of failure in examinations resulting from an </tspan></text>
<text fill="#0e101a" xml:space="preserve" transform="matrix(1 0 -0 1 72 201.85553)" font-size="12" font-family="TimesNewRomanPSMT"><tspan y="0" x="0 3.3336006 9.333601 14.659202 20.659203 23.992804 27.326405 30.660006 33.993608 39.993608 42.993608 46.327207 52.327207 55.327207 60.652807 63.98641 67.32001 72.64561 78.64561 84.64561 87.64561 93.64561 99.64561 102.9792 106.3128 112.3128 117.6384 120.6384 125.964 129.2976 134.62322 139.29361 143.964 149.28961 153.96 156.96 160.95601 168.96 174.28562 180.28562 185.61122 189.60723 192.94083 196.27443 201.60004 204.60004 207.60004 213.60004 219.60004 225.60004 231.60004 234.93364 237.93364 246.60004 252.60004 257.27046 263.27046 268.49165 271.49165 274.49165 280.49165 286.49165 292.49165 298.49165 302.48765 305.48765 307.82524 316.49165 319.82524 323.1588 329.1588 335.1588 341.1588 347.1588 353.1588 356.1588 359.4924 365.4924 370.818 373.818 379.818 385.1436 389.1396 392.47319 398.47319 404.47319 409.1436 412.1436 417.46919 423.46919 429.46919 434.79478 440.12037 443.45396 446.78755 452.78755 458.78755 464.11314 467.44673">inability to attend online classes (Banerjie, 2020; Koshy, 2020). Although the various educational </tspan></text>
<text fill="#0e101a" xml:space="preserve" transform="matrix(1 0 -0 1 72 231.3457)" font-size="12" font-family="TimesNewRomanPSMT"><tspan y="0" x="0 6 12 17.325602 21.321602 27.321602 31.992 34.992 40.992 46.3176 52.3176 57.6432 60.6432 65.968799 70.6392 75.3096 81.3096 85.3056 90.6312 96.6312 99.6312 104.9568 107.9568 111.952808 117.278408 123.278408 126.612 131.2824 136.608 142.608 145.608 150.2784 156.2784 159.612 162.9456 168.27121 174.27121 180.27121 184.9416 187.9416 191.9376 197.9376 201.93361 204.93361 208.26721 214.26721 219.59282 222.59282 227.91843 233.91843 237.91443 241.91043 247.23604 253.23604 256.56965 259.56965 264.89524 270.22084 275.54643 281.54643 286.872 296.2056 299.53919 304.86479 307.86479 312.5352 317.86079 322.5312 327.2016 330.5352 336.5352 342.5352 345.5352 348.5352 351.86878 357.86878 363.19438 367.19038 372.51597 377.84156 382.51197 387.83757 393.83757 396.83757 402.83757 408.16316 412.15916 417.48475 423.48475 426.81834 432.14393 435.4775">boards have assured a revised syllabus for the current academic session, increased parental </tspan></text>
<text fill="#0e101a" xml:space="preserve" transform="matrix(1 0 -0 1 72 260.83589)" font-size="12" font-family="TimesNewRomanPSMT"><tspan y="0" x="0 6 9.996 15.321601 19.992 24.6624 30.6624 34.658399 39.983999 42.983999 45.983999 49.3176 52.651205 61.984807 65.318408 68.652 73.9776 79.9776 82.9776 87.648 93.648 98.9736 102.3072 107.6328 110.96639 114.29999 119.62559 124.95119 128.28479 131.6184 137.6184 143.6184 146.6184 151.944 161.2776 167.2776 173.2776 179.2776 182.2776 188.2776 193.60321 198.92882 202.92482 207.59522 210.59522 213.59522 219.59522 225.59522 231.59522 236.26561 239.59922 244.92482 250.25043 253.58403 256.58406 259.91764 265.91764 271.24324 276.56883 279.9024 283.236 289.236 292.56959 295.90318 301.12437 304.12437 307.12437 313.12437 319.12437 322.45796 325.79154 331.79154 337.11714 340.11714 345.44273 348.7763 354.1019 358.7723 363.44273 368.7683 373.43873 376.43873 379.43873 384.7643 390.7643 396.7643 399.7643 405.7643 411.0899 415.0859 418.4195 424.4195 430.4195 435.0899 438.0899 444.0899 447.4235 453.4235 458.74909 462.7451">pressure, limited socialization among peers, physical inactivity, online classes, and various other </tspan></text>
<text fill="#0e101a" xml:space="preserve" transform="matrix(1 0 -0 1 72 290.3262)" font-size="12" font-family="TimesNewRomanPSMT"><tspan y="0" x="0 6 12 18 23.325602 27.321602 30.655203 36.655206 39.988805 45.988805 51.988805 54.988805 58.984804 64.3104 69.636 74.306407 80.306407 86.306407 90.97681 93.97681 103.3104 108.636 114.636 117.636 122.9616 128.96161 134.28722 139.61283 144.93843 148.93444 154.93444 160.26004 163.59365 168.91925 171.91925 177.24486 182.57047 187.89608 193.89608 199.22168 208.55529 211.88889 217.2145 220.2145 224.88489 228.21849 232.2145 237.5401 242.2105 246.88089 249.88089 255.2065 264.5401 270.5401 276.5401 282.5401 285.5401 290.2105 293.5441 299.5441 305.5441 310.8697 316.8697 320.20329 324.8737 327.8737 330.6565 337.98609 343.98609 349.31169 353.30769 358.63328 362.62928 368.62928 372.62528 377.95088 380.95088 383.95088 387.28446 393.28446 396.61805 401.28846 404.28846 408.95887 412.29246 418.29246 424.29246 430.29246 433.29246 438.61805 441.95164 451.28523 455.95564">underlying reasons may exacerbate academic stress among students. Therefore, this study aims </tspan></text>
<text fill="#0e101a" xml:space="preserve" transform="matrix(1 0 -0 1 72 319.8164)" font-size="12" font-family="TimesNewRomanPSMT"><tspan y="0" x="0 3.3336006 9.333601 12.333601 18.333601 24.333601 30.333601 35.659204 39.6552 44.3256 47.6592 52.9848 58.9848 64.9848 67.9848 73.9848 79.9848 88.65121 91.65121 94.9848 100.9848 106.3104 109.3104 117.3144 125.980808 134.6472 138.6432 147.3096 151.3056 157.3056 163.3056 166.3056 169.6392 175.6392 180.96482 186.96482 192.96482 198.96482 207.63121 213.63121 216.63121 225.96482 229.29842 235.29842 241.29842 244.63202 247.63202 253.63202 258.9576 261.9576 265.2912 271.2912 275.2872 278.6208 284.6208 289.94639 295.94639 301.27198 304.60557 310.60557 316.60557 319.60557 324.27598 327.60957 333.60957 339.60957 344.93516 350.93516 354.26875 358.93916 361.93916 365.27275 371.27275 374.27275 377.60633 382.93193 386.92793 396.2615 400.93193 403.93193 409.93193 413.92793 416.92793 422.2535 427.5791 432.9047 438.9047 444.2303 453.56388 456.89747 462.22306">to understand how the COVID-19 lockdown might be influencing students in terms of academic </tspan></text>
<text fill="#0e101a" xml:space="preserve" transform="matrix(1 0 -0 1 72 349.3066)" font-size="12" font-family="TimesNewRomanPSMT"><tspan y="0" x="0 6 9.996 15.321601 19.992 24.6624 30.6624 34.658399 39.983999 42.983999 48.309598 54.309598 60.309598 63.309598 66.643199 72.643199 77.968799 81.30239 85.29839 88.29839 93.62399 99.62399 105.62399 110.94959 116.94959 122.27519 131.6088 136.9344 142.9344 146.268 149.268 152.60161 158.60161 161.60161 166.92722 172.92722 178.92722 182.26082 188.26082 194.26082 197.26082 202.58643 207.91204 211.24564 214.57924 220.57924 223.91284 227.24645 230.58005 235.90566 240.57605">pressure and their engagement in coping activities.</tspan></text>
<g id="Layer-2" data-name="Span">
<text fill="#0e101a" xml:space="preserve" transform="matrix(1 0 -0 1 72 349.3066)" font-size="12" font-family="TimesNewRomanPSMT"><tspan y="0" x="243.5859"> </tspan></text>
</g>
</g>
<g id="Layer-1" data-name="P">
<text fill="#0e101a" xml:space="preserve" transform="matrix(1 0 -0 1 72 408.2871)" font-size="12" font-family="TimesNewRomanPS" font-weight="bold"><tspan y="0" x="0 7.3296 14.004001 19.329602 26.004002 32.004 36.6744 42 45 51.6744 55.6704 61.6704 65.6664 70.992 80.988 86.3136 92.988">Purpose Statement</tspan></text>
<g id="Layer-2" data-name="Span">
<text fill="#0e101a" xml:space="preserve" transform="matrix(1 0 -0 1 72 408.2871)" font-size="12" font-family="TimesNewRomanPSMT"><tspan y="0" x="96.98438"> </tspan></text>
</g>
</g>
<g id="Layer-1" data-name="P">
<text fill="#0e101a" xml:space="preserve" transform="matrix(1 0 -0 1 108 437.7773)" font-size="12" font-family="TimesNewRomanPSMT"><tspan y="0" x="0 7.3296 13.329599 18.655201 21.655201 27.655201 33.6552 37.6512 43.6512 49.6512 54.321599 59.647199 62.647199 68.6472 72.6432 75.6432 78.9768 84.9768 88.310398 92.9808 95.9808 99.9768 105.3024 109.9728 115.2984 120.624 124.62 129.9456 135.9456 138.9456 144.9456 148.9416 154.9416 158.2752 163.60082 168.92642 172.26003 175.26003 178.59363 183.26403 186.26403 189.59763 195.59763 198.59763 201.93123 207.93123 213.93123 219.25684 223.92723 227.26084 230.59444 236.59444 241.92005 245.25365 250.57926 253.57926 256.91285 262.91285 268.23844 271.23844 276.56404 281.88963 287.2152 293.2152 298.5408 307.8744 311.20799 316.53358 319.53358 324.20399 327.53758 331.53358 336.85917 341.52958 346.19999 352.19999 356.19599 360.8664 363.8664 369.192 372.9708 376.9668 382.2924 387.61799 390.95158 394.28517 400.28517 406.28517">The purpose of this research project is to investigate the academic stressors affecting </tspan></text>
<text fill="#0e101a" xml:space="preserve" transform="matrix(1 0 -0 1 72 467.2676)" font-size="12" font-family="TimesNewRomanPSMT"><tspan y="0" x="0 6 9.996 13.3296 19.329602 24.655203 27.988804 33.314405 36.314405 42.314405 45.648008 51.648008 57.648008 60.648008 65.31841 70.64401 76.64401 82.64401 88.64401 91.97761 94.97761 99.64801 102.981609 108.981609 114.981609 120.307209 126.307209 129.64081 134.3112 137.3112 140.6448 146.6448 149.6448 153.64081 159.64081 165.64081 168.97441 174.30002 177.30002 183.30002 189.30002 193.29602 196.62963 202.62963 208.62963 211.62963 214.96323 220.96323 226.28884 229.28884 237.29283 245.95923 254.62563 258.6216 267.28804 271.28404 277.28404 283.28404 286.28404 289.6176 295.6176 300.9432 306.9432 312.9432 318.9432 327.60963 333.60963 336.60963 341.9352 347.9352 353.9352 356.9352 360.2688 366.2688 371.5944 374.5944 379.91999 385.91999 391.91999 395.25358 401.25358 407.25358 410.25358 414.92399 418.25758 422.25358 427.57917 430.91276 436.23835 442.23835 445.57194 450.89753 455.56794">private high school students in India during the COVID-19 lockdown and the coping strategies </tspan></text>
<text fill="#0e101a" xml:space="preserve" transform="matrix(1 0 -0 1 72 496.7578)" font-size="12" font-family="TimesNewRomanPSMT"><tspan y="0" x="0 5.3256008 11.325601 17.3256 22.651202 28.651202 33.976804 39.976804 42.976804 48.976804 54.976804 57.976804 61.310407 67.31041 72.63601 81.969608 84.969608 88.3032 94.3032 97.3032 102.6288 105.962398 109.29599 114.62159 120.62159 123.955188 129.28079 132.6144 137.94 140.94 145.6104 148.944 152.94 158.26561 162.936 167.6064 170.6064 173.3892 180.71881 186.71881 192.04442 196.04042 201.36603 205.36203 211.36203 215.35803 220.68364 223.68364 226.68364 230.01725 236.01725 239.35085 244.02124 247.02124 251.01725 256.34284 261.01325 266.33885 271.66444 275.66044 280.98603 286.98603 289.98603 295.3116 298.6452 307.9788 312.6492 315.6492 318.9828 324.9828 327.9828 333.30839 339.30839 343.9788 352.6452 357.9708 361.9668 364.9668 368.30039 374.30039 379.62599 382.62599 386.62199 392.62199 395.95558 399.28916 405.28916 413.95558 417.28916 423.28916 429.28916">engaged by them to alleviate stress. Therefore, this research aims to answer the following </tspan></text>
<text fill="#0e101a" xml:space="preserve" transform="matrix(1 0 -0 1 72 526.248)" font-size="12" font-family="TimesNewRomanPSMT"><tspan y="0" x="0 6 12 17.325602 21.996003 25.329604 28.663205 34.663206 40.663206 45.333604">questions:</tspan></text>
<g id="Layer-2" data-name="Span">
<text fill="#0e101a" xml:space="preserve" transform="matrix(1 0 -0 1 72 526.248)" font-size="12" font-family="TimesNewRomanPSMT"><tspan y="0" x="48.66797"> </tspan></text>
</g>
</g>
<g id="Layer-1" data-name="P">
<g id="Layer-2" data-name="P">
<g id="Layer-3" data-name="P">
<text xml:space="preserve" transform="matrix(1 0 -0 1 108 555.7383)" font-size="12" font-family="TimesNewRomanPSMT"><tspan y="0" x="0 6">1.</tspan></text>
</g>
<g id="Layer-3" data-name="P">
<text xml:space="preserve" transform="matrix(1 0 -0 1 120.65 555.7383)" font-size="12" font-family="TimesNewRomanPSMT"><tspan y="0" x="0 11.325601 17.3256 20.6592 25.984803 31.984803 34.984804 40.310403 45.636 50.9616 56.9616 62.2872 71.6208 74.95439 80.27999 83.27999 87.95039 91.28399 95.27999 100.60559 105.27599 109.946399 115.946399 119.9424 124.6128 127.6128 130.6128 135.9384 140.6088 143.6088 146.9424 152.9424 158.9424 162.276 167.60161 172.92722 176.26082 181.58643 187.58643 190.58643 196.58643 202.58643 205.58643 210.25682 213.59043 217.58643 222.91204 227.58243 232.25283 235.25283 239.24883 244.57444 249.90004 255.22565 258.55924 261.89283 267.89283 273.89283 278.56324 281.56324 284.56324 289.88883 293.88484 299.21043 302.21043 307.536 311.31483 315.31083 320.6364 325.962 329.2956 332.62919 338.62919 344.62919 347.62919 353.62919 357.62519 360.95878 366.95878 372.28437 375.61796 380.94355 383.94355 389.94355 393.27714 399.27714 405.27714">Which academic stressors, as indicated by stress reactions, are affecting private high </tspan></text>
<text xml:space="preserve" transform="matrix(1 0 -0 1 120.65 585.2285)" font-size="12" font-family="TimesNewRomanPSMT"><tspan y="0" x="0 4.6704 9.996 15.996 21.996 27.996 31.329602 34.3296 39 42.3336 48.3336 54.3336 59.6592 65.659198 68.99279 73.66319 76.66319 79.99679 85.99679 88.99679 92.99279 98.99279 104.99279 108.326389 113.651988 116.651988 122.651988 127.977588 133.97759 139.30319 142.6368 145.9704 151.9704 157.296 160.62961 166.62961 169.62961 172.96321 178.96321 181.96321 185.29682 190.62242 194.61843 203.95203 208.62242 211.62242 217.62242 221.61843 224.61843 233.95203 239.27764 245.27764 248.61124 253.93685 257.27046 260.27046 266.27046 271.59605 276.92164 280.25523 283.5888 289.5888 292.5888 297.9144 303.9144 309.9144 312.9144 321.5808 326.9064 330.24 333.57359 337.56959 343.56959 348.89518 352.22877 358.22877 364.22877 367.22877 373.22877 379.22877 383.22477 386.55836 392.55836 398.55836 401.55836 404.89195 410.89195 416.21754">school students in India negatively in terms of mental health and well-being during the </tspan></text>
<text xml:space="preserve" transform="matrix(1 0 -0 1 120.65 614.7188)" font-size="12" font-family="TimesNewRomanPSMT"><tspan y="0" x="0 8.004001 16.6704 25.3368 29.3328 37.9992 41.995199 47.995199 53.995199 56.995199 60.3288 66.3288 71.654399 77.654399 83.654399 89.654399 98.3208 104.3208">COVID-19 lockdown?</tspan></text>
<g id="Layer-4" data-name="Span">
<text xml:space="preserve" transform="matrix(1 0 -0 1 120.65 614.7188)" font-size="12" font-family="TimesNewRomanPSMT"><tspan y="0" x="109.6465"> </tspan></text>
</g>
</g>
</g>
<g id="Layer-2" data-name="P">
<g id="Layer-3" data-name="P">
<text xml:space="preserve" transform="matrix(1 0 -0 1 108 644.209)" font-size="12" font-family="TimesNewRomanPSMT"><tspan y="0" x="0 6">2.</tspan></text>
</g>
<g id="Layer-3" data-name="P">
<text xml:space="preserve" transform="matrix(1 0 -0 1 120.65 644.209)" font-size="12" font-family="TimesNewRomanPSMT"><tspan y="0" x="0 11.325601 17.3256 20.6592 25.984803 31.984803 34.984804 40.310403 46.310403 52.310403 55.644 61.644 67.644 70.644 75.3144 78.647998 82.644 87.9696 91.30319 96.62879 102.62879 105.96239 111.28799 115.95839 118.95839 124.28399 128.27999 133.60559 136.60559 142.60559 146.6016 151.9272 157.2528 160.58641 163.92002 169.24562 174.57123 180.57123 183.57123 189.57123 195.57123 198.57123 204.57123 208.56723 211.90084 217.90084 223.22644 226.56005 231.88565 234.88565 240.88565 244.21926 250.21926 256.21925 259.21925 263.88966 269.21525 275.21525 281.21525 287.21525 290.54884 293.54884 298.21925 301.55284 307.55284 313.55284 318.87843 324.87843 328.212 332.88243 335.88243 339.216 345.216 348.216 352.212 358.212 364.212 367.5456 372.8712 375.8712 379.20478 385.20478">Which coping strategies are practiced by private high school students in India in </tspan></text>
<text xml:space="preserve" transform="matrix(1 0 -0 1 120.65 673.6992)" font-size="12" font-family="TimesNewRomanPSMT"><tspan y="0" x="0 3.996 9.3216 13.992001 19.992 25.992 31.992 36.6624 41.988 44.988 48.321599 54.321599 57.321599 62.647199 67.97279 73.29839 79.29839 84.62399 93.95759 97.29118 102.61678 105.61678 110.287189 113.62078 117.61678 122.94238 127.612789 132.28319 135.28319 141.28319 147.28319 151.27919 154.6128 160.6128 166.6128 169.6128 172.9464 178.9464 184.272 187.272 195.276 203.9424 212.6088 216.6048 225.2712 229.2672 235.2672 241.2672 244.2672 247.6008 253.6008 258.9264 264.9264 270.9264 276.9264 285.5928 291.5928">response to academic stress during the COVID-19 lockdown?</tspan></text>
<g id="Layer-4" data-name="Span">
<text xml:space="preserve" transform="matrix(1 0 -0 1 120.65 673.6992)" font-size="12" font-family="TimesNewRomanPSMT"><tspan y="0" x="296.9238"> </tspan></text>
</g>
</g>
</g>
</g>
</g>
</g>
</svg>
