<?xml version="1.0" encoding="UTF-8" standalone="no"?>
<!DOCTYPE svg PUBLIC "-//W3C//DTD SVG 1.1//EN" "http://www.w3.org/Graphics/SVG/1.1/DTD/svg11.dtd">
<svg xmlns="http://www.w3.org/2000/svg" xmlns:xlink="http://www.w3.org/1999/xlink" version="1.1" width="612pt" height="792pt" viewBox="0 0 612 792">
<g enable-background="new">
<clipPath id="cp20">
<path transform="matrix(1,0,0,-1,0,792)" d="M 0 0 L 612 0 L 612 792 L 0 792 Z "/>
</clipPath>
<g clip-path="url(#cp20)">
<path transform="matrix(1,0,0,-1,0,792)" d="M 0 792 L 612 792 L 612 0 L 0 0 Z " fill="#ffffff"/>
<g id="Layer-1" data-name="P">
</g>
<clipPath id="cp21">
<path transform="matrix(1,0,0,-1,0,792)" d="M 68.67773 72 L 543.3222 72 L 543.3222 723.3223 L 68.67773 723.3223 Z "/>
</clipPath>
<g clip-path="url(#cp21)">
<text fill="#0e101a" xml:space="preserve" transform="matrix(1 0 -0 1 108 83.89447)" font-size="12" font-family="TimesNewRomanPSMT"><tspan y="0" x="0 8.666401 13.336802 16.336802 22.336802 28.336802 34.3368 40.3368 45.0072 50.332799 56.332799 59.332799 62.6664 68.6664 71.6664 76.992 82.3176 85.65119 88.98479 94.98479 100.31039 103.31039 108.63599 114.63599 120.63599 123.96958 129.96958 135.96958 138.96958 141.96958 147.29518 153.29518 159.29518 162.62879 168.62879 173.95439 179.95439 183.288 186.288 191.6136 197.6136 203.6136 206.9472 212.9472 218.9472 221.9472 225.2808 229.9512 232.9512 238.27681 244.27681 249.60242 253.59842 258.924 264.2496 267.5832 272.90879 276.9048 280.23838 285.56398 290.88957 296.88957 299.88957 305.88957 311.88957 314.88957 320.21516 325.54075 328.87434 332.20793 338.20793 341.5415 344.8751 348.20869 353.53428 358.20469 361.20469 364.53828 370.53828 375.86387 379.19746 382.19746 387.52305 390.85664 396.85664 399.85664 403.19023 409.19023 412.19023 415.5238 421.5238 426.8494">As opposed to active coping, avoidant coping is characterized by activities that aid in the </tspan></text>
<text fill="#0e101a" xml:space="preserve" transform="matrix(1 0 -0 1 72 113.38483)" font-size="12" font-family="TimesNewRomanPSMT"><tspan y="0" x="0 6 11.325601 17.3256 20.6592 25.984803 29.318404 32.318407 38.318407 42.314405 45.314405 48.648008 54.648008 59.973608 62.973608 68.9736 72.969608 78.969608 84.969608 88.3032 93.6288 102.962398 105.962398 111.287998 117.287998 123.287998 126.287998 129.6216 135.6216 141.6216 147.6216 151.6176 156.9432 159.9432 163.27681 169.27681 174.60242 177.60242 180.93602 185.60642 190.27681 196.27681 201.60242 204.60242 209.92803 213.26163 216.26163 222.26163 227.58724 233.58724 239.58724 242.58724 246.58324 251.48163 260.14805 268.15205 275.48164 283.48564 286.48564 295.15205 301.15205 306.47764 309.81123 312.81123 321.47764 324.81123 330.1368 336.1368 342.1368 348.1368 352.80723 356.1408 360.81123 363.81123 368.70964 371.70964 377.70964 380.70964 386.70964 389.70964 393.70564 396.70564 399.70564 406.38005 409.71363 415.71363 421.71363 427.0392 433.0392 436.3728 441.0432 444.0432 449.3688 453.3648 458.6904">denial of the problem and ignore the issue at hand ("UCLA Dual Diagnosis," n.d.). Students are </tspan></text>
<text fill="#0e101a" xml:space="preserve" transform="matrix(1 0 -0 1 72 142.875)" font-size="12" font-family="TimesNewRomanPSMT"><tspan y="0" x="0 6 12 16.670399 21.996 25.992 31.992 37.3176 43.3176 46.3176 49.651205 55.651205 58.651205 63.976804 69.97681 75.97681 81.30241 87.30241 92.628009 95.628009 98.9616 104.9616 107.9616 113.9616 119.2872 123.2832 126.6168 132.61679 138.61679 143.28719 146.28719 152.28719 155.62079 160.29119 163.62479 167.62079 172.9464 178.272 181.6056 184.93921 190.93921 196.93921 201.6096 204.6096 209.93521 215.93521 221.93521 224.93521 229.6056 234.93122 238.26482 242.26082 246.25682 250.92722 256.92723 262.92723 266.2608 272.2608 275.5944 281.5944 287.5944 290.5944 296.5944 300.5904 305.916 311.24159 314.57518 317.90876 323.23435 328.55995 333.23036 336.23036 340.90077 346.90077 352.22636 358.22636 361.22636 366.55195 371.22236 374.22236 380.22236 386.22236 392.22236 397.54795 400.54795 403.54795 412.88154 418.20713 424.20713 427.5407 430.8743 436.1999 439.53349 442.86708 448.86708 454.86708 457.86708">observed to engage in various distractions and self-soothing practices such as yoga, meditation, </tspan></text>
<text fill="#0e101a" xml:space="preserve" transform="matrix(1 0 -0 1 72 172.36518)" font-size="12" font-family="TimesNewRomanPSMT"><tspan y="0" x="0 6 11.325601 16.651202 22.651202 25.651202 31.651202 35.6472 40.9728 46.2984 49.632 55.632 58.965604 64.96561 70.96561 73.96561 76.96561 82.96561 86.96161 92.28721 98.28721 101.620807 107.620807 113.620807 116.620807 119.620807 125.620807 129.6168 132.95041 138.95041 144.27602 147.60962 152.93523 155.93523 160.60562 165.93123 169.26483 173.26084 177.25684 182.58245 188.58245 194.58245 198.57845 203.90406 208.57445 213.24485 216.57845 222.57845 228.57845 233.24884 236.24884 240.24485 245.57045 248.57045 254.57045 257.57044 260.57044 263.57044 266.90403 272.90403 276.90003 282.90003 288.90003 294.90003 300.90003 303.90003 309.90003 313.2336 318.5592 322.5552 328.5552 331.5552 336.8808 342.8808 346.2144 350.2104 353.54399 358.86958 363.53999 366.53999 371.86558 377.86558 383.86558 386.86558 392.19117 396.18717 402.18717 405.52076 411.52076 417.52076 421.51676 424.51676">deep breathing, praying, private self-expressions (e.g., through diary entries and crying), </tspan></text>
<text fill="#0e101a" xml:space="preserve" transform="matrix(1 0 -0 1 72 201.85553)" font-size="12" font-family="TimesNewRomanPSMT"><tspan y="0" x="0 4.6704 8.004001 13.3296 18.655201 24.655201 27.988802 33.9888 39.9888 42.9888 45.9888 51.3144 57.3144 63.3144 66.3144 71.64 76.9656 80.299198 83.63279 89.63279 95.63279 98.63279 101.966388 107.966388 110.966388 116.966388 120.96239 126.96239 132.96239 136.29599 142.29599 147.6216 150.6216 153.9552 163.2888 172.6224 177.94802 183.94802 187.28162 192.60723 195.94083 201.26644 204.26644 208.26244 213.58805 216.92165 220.25525 225.58086 229.57686 232.57686 236.57286 240.56887 246.56887 255.90247 258.90248 264.90248 270.22807 276.22807 281.55366 284.88725 288.22084 294.22084 299.54643 302.54643 308.54643 312.54243 317.868 323.868 329.1936 334.5192 340.5192 346.5192 352.5192 355.85279 361.85279 367.85279 370.85279 374.18638 380.18638 386.18638 392.18638 398.18638 404.18638 407.51997 412.19038 415.19038 419.18638 425.86079 431.18638 435.18238 438.51597 444.51597 450.51597 453.51597 458.84156 462.17515">sleeping, and eating to provide immediate relief from negative preoccupying thoughts (Parikh et </tspan></text>
<text fill="#0e101a" xml:space="preserve" transform="matrix(1 0 -0 1 72 231.3457)" font-size="12" font-family="TimesNewRomanPSMT"><tspan y="0" x="0 5.3256008 8.659201 11.659201 14.659201 17.6592 23.6592 29.6592 35.659204 41.659204 45.6552 48.6552 51.6552 55.6512 61.6512 64.6512 67.984798 73.984798 79.310398 82.310398 86.9808 92.3064 101.63999 106.96559 109.96559 114.635997 117.96959 123.96959 129.96959 135.1908 138.1908 141.1908 145.86119 151.86119 161.1948 166.5204 169.5204 174.1908 177.5244 183.5244 189.5244 194.85 200.85 204.18361 208.854 211.854 217.854 223.17961 227.17562 230.50922 233.84282 239.16843 242.50203 248.50203 253.82764 257.16123 262.48683 268.48683 271.48683 274.8204 280.8204 283.8204 289.146 294.4716 297.80519 301.13877 307.13877 310.47236 313.80595 317.13954 322.46513 327.13554 330.13554 333.46913 336.8027 342.8027 348.1283 351.1283 355.7987 361.7987 367.1243 373.1243 379.1243 382.4579 388.4579 394.4579 397.4579 400.79148 404.12507 413.45866 418.78425 421.78425 430.45066 433.78425 437.11784 443.11784">al., 2015). In the same study, some students participated in activities like spending time with </tspan></text>
<text fill="#0e101a" xml:space="preserve" transform="matrix(1 0 -0 1 72 260.83589)" font-size="12" font-family="TimesNewRomanPSMT"><tspan y="0" x="0 3.996 7.992 11.325601 16.651202 22.651202 28.651202 33.3216 36.3216 39.3216 43.992 47.325605 53.325605 59.325605 65.32561 68.6592 74.6592 80.6592 83.6592 86.6592 91.9848 97.9848 103.9848 106.9848 112.9848 116.3184 121.644 127.644 130.9776 136.9776 142.9776 145.9776 154.644 157.9776 161.3112 167.3112 170.3112 175.63681 181.63681 184.97042 188.30402 194.30402 198.30002 203.62563 209.62563 212.62563 215.62563 224.29203 230.29203 233.62563 236.95923 242.28484 245.28484 251.28484 254.61844 260.61845 265.94404 269.94004 274.61045 277.61045 280.94404 286.94404 292.94404 298.94404 301.94404 306.61445 309.94804 315.27363 321.27363 325.94404 328.94404 332.27763 338.27763 341.27763 346.6032 352.6032 358.6032 361.9368 367.9368 370.9368 376.2624 382.2624 388.2624 392.2584 396.2544 402.2544 408.2544 411.58799 416.91358 420.24717 423.58076 429.58076 435.58076 440.25117 443.25117 451.91758 455.25117 458.58476 464.58476">friends, studying, and playing with children, while others took steps to avoid confrontations with </tspan></text>
<text fill="#0e101a" xml:space="preserve" transform="matrix(1 0 -0 1 72 290.3262)" font-size="12" font-family="TimesNewRomanPSMT"><tspan y="0" x="0 6 11.325601 15.321601 20.647202 26.647202 29.980803 34.651205 37.651205 42.976804 48.976804 54.976804 57.976804 61.310407 66.636 71.9616 77.2872 83.2872 88.6128 92.6088 97.279209 100.279209 103.6128 109.6128 112.6128 115.946399 119.27999 128.6136 133.93921 138.6096 141.6096 147.6096 151.6056 154.6056 159.93122 165.25682 170.58243 176.58243 181.90804 191.24164 194.57524 199.90085 202.90085 208.90085 212.23445 216.01326 220.00926 223.34287 228.66847 234.66847 238.00208 241.33568 244.66928 249.99489 254.66529 257.66529 260.66529 267.3397 273.3397 279.3397 284.0101 287.3437 292.66929 298.66929 303.99488 309.32048 312.32048 318.32048 322.99089 328.31648 331.31648 334.65007 340.65007 346.65007 352.65007 355.98365 361.98365 365.31724 371.31724 377.31724 380.31724 385.64283 388.9764 394.9764 400.302 404.298 409.6236 412.95719 416.29078 421.61637 426.28678 429.28678">parents and teachers in times of academic difficulties. Substance use involving cigarettes, </tspan></text>
<text fill="#0e101a" xml:space="preserve" transform="matrix(1 0 -0 1 72 319.8164)" font-size="12" font-family="TimesNewRomanPSMT"><tspan y="0" x="0 3.3336006 9.333601 15.333601 20.659203 25.984805 31.310406 37.310407 40.310407 43.310407 48.636007 51.96961 57.295209 63.295209 69.29521 75.29521 78.62881 81.62881 84.62881 89.95441 95.95441 101.95441 104.95441 110.28001 115.605609 121.605609 127.605609 132.93122 138.93122 142.26482 146.93521 149.93521 158.60161 163.92722 168.59761 171.59761 176.92322 180.25682 184.92722 190.92722 193.92722 197.92322 203.24883 209.24883 215.24883 219.24483 222.57843 227.90404 233.90404 236.90404 240.23764 246.23764 249.23764 255.23764 260.56324 264.55924 267.89283 273.89283 279.89283 284.56324 287.56324 292.23365 295.56724 301.56724 307.56724 310.90083 316.2264 320.89683 323.89683 327.2304 333.2304 336.2304 340.2264 345.552 351.552 357.552 362.8776 368.2032 371.2032 375.8736 379.20719 383.2032 388.52879 393.1992 397.8696 400.8696 406.1952 412.1952 418.1952 421.1952 424.52879 429.85438 435.85438 440.52479 443.85838 449.85838 455.85838">tobacco, alcohol, and cannabis was also reported in various studies to reduce stress and tension </tspan></text>
<text fill="#0e101a" xml:space="preserve" transform="matrix(1 0 -0 1 72 349.3066)" font-size="12" font-family="TimesNewRomanPSMT"><tspan y="0" x="0 3.996 14.666402 19.992003 23.325604 29.325604 34.651205 43.317605 46.317605 51.643205 54.976804 57.976804 63.302404 66.636 69.636 72.636 75.636 81.636 87.636 93.636 99.636 102.9696 105.9696 112.644008 117.969608 121.96561 125.2992 131.2992 137.2992 140.2992 145.6248 148.9584 151.9584 157.28401 160.61762 163.61762 166.61762 169.61762 175.61762 181.61762 187.61762 193.61762 196.95122 199.95122 206.62561 212.62561 217.95122 221.28482 227.28482 233.28482 236.28482 241.61043 244.94403 247.94403 253.26964 256.60325 259.60325 262.60325 265.60325 271.60325 277.60325 283.60325 289.60325 293.59925 296.59925 299.59925 308.26567 314.26567 322.93208 328.25767 334.25767 339.58326 343.09925 346.09925 349.09925 353.76966 359.76966 365.09526 371.09526 374.09526 383.42884 388.75444 392.088 398.088 404.088 410.088 414.75843 417.75843 426.42485 431.75044 435.74644 441.07203">(Mathew et al., 2015; Parikh et al., 2015; Shaikh et al., 2018). However, such methods were </tspan></text>
<text fill="#0e101a" xml:space="preserve" transform="matrix(1 0 -0 1 72 378.7969)" font-size="12" font-family="TimesNewRomanPSMT"><tspan y="0" x="0 3.996 9.3216 15.3216 21.3216 25.3176 28.651202 33.976804 39.976804 42.976804 46.310407 52.310407 55.310407 61.310407 66.636 70.632 79.9656 82.9656 86.299198 92.299198 97.624797 100.624797 105.2952 108.62879 114.62879 120.62879 125.95439 131.95439 135.288 139.95839 142.95839 146.95439 152.95439 156.9504 160.284 166.284 171.6096 175.6056 178.6056 183.93122 189.93122 195.93122 198.93122 202.26482 208.26482 213.59043 217.58643 222.91204 228.23764 232.90804 238.23365 241.23365 246.55925 252.55925 258.55928 261.89286 267.21846 270.55204 275.77323">reported to harm the students further and increase anxiety.</tspan></text>
<g id="Layer-2" data-name="Span">
<text fill="#0e101a" xml:space="preserve" transform="matrix(1 0 -0 1 72 378.7969)" font-size="12" font-family="TimesNewRomanPSMT"><tspan y="0" x="278.7832"> </tspan></text>
</g>
</g>
<g id="Layer-1" data-name="P">
<text fill="#0e101a" xml:space="preserve" transform="matrix(1 0 -0 1 108 408.2871)" font-size="12" font-family="TimesNewRomanPSMT"><tspan y="0" x="0 6.674401 12.6744 16.008002 21.333603 24.667204 30.667204 35.992807 38.992807 44.992807 50.318407 54.988805 57.988805 63.988805 69.3144 74.64 80.64 83.64 88.3104 93.636 98.9616 104.9616 107.9616 113.2872 117.9576 120.9576 124.2912 130.2912 135.6168 138.6168 141.95041 147.27602 151.94641 155.28002 158.28002 162.27602 167.60163 172.27202 178.27202 182.26802 185.60163 188.60163 192.59763 198.59763 202.59363 205.59363 210.26403 215.58963 221.58963 226.91524 230.91124 236.23685 239.23685 243.90724 247.24085 251.23685 256.56245 261.23286 265.90327 271.90327 275.89927 280.56968 283.56968 286.90327 290.23686 296.23686 301.56245 304.56245 309.23286 314.55845 320.55845 326.55845 331.88404 335.21763 338.21763 343.5432 348.21363 352.88404 358.20964 364.20964 367.5432 370.8768 373.8768 379.2024 385.2024 391.2024 394.2024 398.1984 403.524 409.524 414.84959 417.84959">Suicide has been seen as the last resort for severe stressors like sexual assault and rape, </tspan></text>
<text fill="#0e101a" xml:space="preserve" transform="matrix(1 0 -0 1 72 437.7773)" font-size="12" font-family="TimesNewRomanPSMT"><tspan y="0" x="0 5.3256008 11.325601 17.3256 20.3256 24.995999 30.3216 36.3216 41.6472 45.6432 50.9688 53.9688 59.2944 65.2944 71.2944 74.2944 78.964809 84.964809 89.63521 92.9688 98.2944 101.628 107.628 112.9536 118.9536 121.9536 127.2792 132.6048 137.9304 143.9304 149.25601 158.58962 161.92322 167.24883 170.24883 176.24883 180.24483 185.57044 190.24083 194.91123 200.91123 204.90723 210.23284 213.23284 217.22884 223.90323 229.22884 233.22484 236.55844 242.55844 248.55844 251.55844 256.88404 260.21763 263.21763 268.5432 271.8768 274.8768 277.8768 280.8768 286.8768 292.8768 298.8768 304.8768 308.8728 311.8728 314.8728 318.8688 324.8688 327.8688 331.2024 337.2024 342.52799 345.52799 351.52799 356.85359 361.524 364.85758 367.85758 370.85758 374.19117 380.19117 385.51676 389.51277 394.83836 397.83836 403.83836 409.16395 415.16395 420.48954 423.48954 429.48954 434.81513 440.14073 446.14073">and severe and sustained academic pressure (Parikh et al., 2015). In the past, there have been </tspan></text>
<text fill="#0e101a" xml:space="preserve" transform="matrix(1 0 -0 1 72 467.2676)" font-size="12" font-family="TimesNewRomanPSMT"><tspan y="0" x="0 9.3336 14.6592 20.659199 26.659199 29.659199 32.9928 38.9928 44.3184 47.652006 53.652006 58.977605 64.9776 68.311199 72.9816 75.9816 84.648 90.648 95.9736 99.969608 105.295207 108.295207 112.96561 116.2992 122.2992 128.2992 133.6248 139.6248 142.9584 147.6288 150.6288 156.6288 161.9544 167.9544 173.28002 176.28002 181.60562 187.60562 196.93923 206.27283 209.60643 212.94004 216.27364 221.59925 227.59925 230.59925 235.26964 241.26964 244.60324 249.92885 253.26245 259.26246 264.58805 267.58805 273.58805 279.58805 283.58406 286.91764 292.91764 298.91764 301.91764 307.24324 313.24324 318.56883 327.9024 331.236 337.236 342.56159 345.89518 349.22877 355.22877 361.22877 364.22877 370.22877 375.55436 381.55436 386.22477 389.22477 393.22077 401.22477 407.22477 412.55036 416.32917 422.32917 427.65476 433.65476 438.98036 441.98036 451.31394">many incidents where students have committed suicide during examination days (Bhargava &#x0026; </tspan></text>
<text fill="#0e101a" xml:space="preserve" transform="matrix(1 0 -0 1 72 496.7578)" font-size="12" font-family="TimesNewRomanPSMT"><tspan y="0" x="0 6.9083998 10.242 18.9084 24.234002 28.230002 31.563603 34.563604 37.563604 43.563604 49.563604 55.563604 61.563604 65.5596 68.5596 71.5596 78.234 84.234 89.5596 93.5556 102.8892 108.2148 111.2148 116.5404 119.87399 122.87399 128.1996 131.5332 134.5332 137.5332 141.5292 147.5292 153.5292 159.5292 165.5292 169.5252 172.5252 176.52121 182.52121 188.52121 194.52121 200.52121 203.52121 206.85482 212.85482 218.18042 221.51403 224.51403 229.83963 233.17324 242.50684 248.50684 253.17723 256.51084 259.51084 265.51084 271.51084 281.50685 284.50685 290.50685 294.50285 297.50285 302.82844 308.82844 314.82844 318.16203 323.4876 328.15803 333.4836 338.8092 344.8092 348.1428 352.8132 355.8132 361.8132 367.1388 373.1388 376.1388 380.8092 386.8092 390.1428 395.46839 398.80198 404.80198 410.12757 413.46116 416.46116 419.79475 425.79475 431.12034 436.44593 439.7795 443.1131 449.1131 455.1131 458.1131">Tiwari, 2019). Sharma et al. (2015) found that almost 16% of adolescents had suicidal ideation, </tspan></text>
<text fill="#0e101a" xml:space="preserve" transform="matrix(1 0 -0 1 72 526.248)" font-size="12" font-family="TimesNewRomanPSMT"><tspan y="0" x="0 5.3256008 11.325601 17.3256 20.3256 26.3256 36.3216 39.3216 44.6472 47.9808 51.314405 56.640005 65.9736 71.9736 75.3072 80.6328 86.6328 89.6328 94.3032 100.3032 103.636798 108.962398 112.29599 118.29599 123.62159 126.62159 129.40439 136.734 142.734 148.0596 152.73 158.0556 161.0556 166.38121 169.71482 175.04042 179.03643 188.37003 191.70363 197.70363 203.70363 206.70363 211.37403 214.70763 220.03324 223.36684 226.70044 231.37084 234.70444 238.03804 243.36365 248.03404 251.03404 259.70045 265.02604 269.02204 274.34764 277.34764 281.34364 286.66923 292.66923 296.66523 302.66523 308.66523 314.66523 319.9908 325.3164 331.3164 334.3164 340.3164 346.3164 348.654 357.3204 361.3164 367.3164 373.3164 376.3164 385.65 388.65 396.654 402.654 407.97959 413.97959 419.30519 425.30519 428.30519 432.30119 438.30119 444.30119 450.30119 456.30119 460.29719 463.29719">and 5% attempted suicide. These alarming statistics were reproduced by Arun &#x0026; Chavan (2009), </tspan></text>
<text fill="#0e101a" xml:space="preserve" transform="matrix(1 0 -0 1 72 555.7383)" font-size="12" font-family="TimesNewRomanPSMT"><tspan y="0" x="0 3.3336006 9.333601 12.333601 21 27 30.333601 35.659204 41.659204 44.659204 50.659204 53.659204 59.659204 65.6592 75.655208 78.655208 84.655208 88.65121 91.65121 94.9848 100.9848 106.3104 109.3104 113.980808 119.306407 128.64002 134.64002 137.97362 143.29923 146.29923 152.29923 156.29523 159.29523 165.29523 168.62883 174.62883 177.62883 180.96244 186.96244 190.95844 196.95844 202.95844 208.95844 214.95844 217.95844 223.95844 229.95844 233.29204 239.29204 243.28804 249.28804 253.28404 258.60963 264.60963 269.9352 272.9352 277.60563 280.9392 286.9392 292.9392 298.2648 304.2648 307.5984 312.2688 315.2688 318.6024 324.6024 327.6024 335.60639 341.60639 346.93199 352.93199 358.93199 362.26557 368.26557 373.59117 377.58717 383.58717 386.58717 390.58317 395.90876 401.90876 407.90876 411.90476 415.23835 420.56394 426.56394 429.56394 432.89753 436.2311 440.2271 445.5527 448.5527 453.8783 458.5487 461.5487 466.8743">in which 8.82% of the sample of 6th through 12th-grade students in Chandigarh reported life as a </tspan></text>
<text fill="#0e101a" xml:space="preserve" transform="matrix(1 0 -0 1 72 585.2285)" font-size="12" font-family="TimesNewRomanPSMT"><tspan y="0" x="0 6 12 15.996 21.996 27.321602 33.3216 36.3216 39.3216 45.3216 55.317605 58.317605 63.643205 69.6432 75.6432 79.639209 84.964809 89.63521 94.30561 99.63121 105.63121 108.63121 113.30161 119.30161 122.63521 127.96081 131.29442 137.29442 142.62003 145.95363 148.95363 152.28723 158.28723 164.28723 170.28723 176.28723 182.28723 185.62084 190.29123 193.29123 196.29123 201.61684 207.61684 213.61684 216.61684 222.61684 225.61684 231.61684 237.61684 247.61284 250.61284 254.60884 259.93443 265.93443 271.93443 275.93043 279.264 284.5896 290.5896 293.5896 298.26 304.26 307.5936 312.9192 316.25279 322.25279 327.57838 330.91197 333.91197 339.23756 342.57115 345.90473 351.23033 360.5639 366.5639 369.8975 374.5679 377.5679">burden, 6% expressed suicidal thoughts, and 0.39% reported suicidal attempts. </tspan></text>
<g id="Layer-2" data-name="Span">
<text fill="#0e101a" xml:space="preserve" transform="matrix(1 0 -0 1 72 585.2285)" font-size="12" font-family="TimesNewRomanPSMT"><tspan y="0" x="380.5781"> </tspan></text>
</g>
</g>
<g id="Layer-1" data-name="P">
<text fill="#0e101a" xml:space="preserve" transform="matrix(1 0 -0 1 247.1074 644.209)" font-size="12" font-family="TimesNewRomanPS" font-weight="bold"><tspan y="0" x="0 8.666401 15.340802 20.666403 25.776005 31.101607 37.776006 41.772005 44.772005 51.446405 55.4424 62.116804 68.79121 74.79121 77.79121 89.116809 94.442409 98.43841 105.112819 111.112819">Current Study Method</tspan></text>
<g id="Layer-2" data-name="Span">
<text fill="#0e101a" xml:space="preserve" transform="matrix(1 0 -0 1 247.1074 644.209)" font-size="12" font-family="TimesNewRomanPSMT"><tspan y="0" x="117.7852"> </tspan></text>
</g>
</g>
<g id="Layer-1" data-name="P">
<text fill="#0e101a" xml:space="preserve" transform="matrix(1 0 -0 1 72 673.6992)" font-size="12" font-family="TimesNewRomanPS" font-weight="bold"><tspan y="0" x="0 8.666401 13.992002 17.325604 20.659205 30.655205 33.988805 37.984804 43.984804 47.9808 51.314405 57.314405 63.988805">Delimitations</tspan></text>
<g id="Layer-2" data-name="Span">
<text fill="#0e101a" xml:space="preserve" transform="matrix(1 0 -0 1 72 673.6992)" font-size="12" font-family="TimesNewRomanPSMT"><tspan y="0" x="68.66016"> </tspan></text>
</g>
</g>
</g>
</g>
</svg>
