<?xml version="1.0" encoding="UTF-8" standalone="no"?>
<!DOCTYPE svg PUBLIC "-//W3C//DTD SVG 1.1//EN" "http://www.w3.org/Graphics/SVG/1.1/DTD/svg11.dtd">
<svg xmlns="http://www.w3.org/2000/svg" xmlns:xlink="http://www.w3.org/1999/xlink" version="1.1" width="612pt" height="792pt" viewBox="0 0 612 792">
<g enable-background="new">
<clipPath id="cp282">
<path transform="matrix(1,0,0,-1,0,792)" d="M 0 0 L 612 0 L 612 792 L 0 792 Z "/>
</clipPath>
<g clip-path="url(#cp282)">
<path transform="matrix(1,0,0,-1,0,792)" d="M 0 792 L 612 792 L 612 0 L 0 0 Z " fill="#ffffff"/>
<g id="Layer-1" data-name="P">
<g id="Layer-2" data-name="P">
</g>
<clipPath id="cp283">
<path transform="matrix(1,0,0,-1,0,792)" d="M 68.67773 72 L 543.3222 72 L 543.3222 723.3223 L 68.67773 723.3223 Z "/>
</clipPath>
<g clip-path="url(#cp283)">
<text xml:space="preserve" transform="matrix(1 0 -0 1 72 83.89447)" font-size="12" font-family="TimesNewRomanPSMT"><tspan y="0" x="0 7.3356006 12.661201 16.6572 25.9908 31.316403 34.316404 37.316404 43.990804 46.990804 49.990804 52.990804 59.665205 65.66521 70.99081 74.98681 84.320407 89.646 92.646 95.646 104.31241 107.31241 110.31241 113.31241 122.646 125.646 132.9756 138.30121 142.29721 146.9676 152.9676 158.9676 161.9676 164.9676 172.9716 175.9716 178.75441 188.97962 191.97962 194.97962 198.97562 204.97562 210.97562 216.97562 222.97562 226.97162 229.97162 232.97162 239.64601 244.97162 250.97162 256.97163 262.97163 266.3052 269.3052 273.97563 277.3092 281.3052 286.6308 291.3012 295.97163 298.97163 302.3052 308.3052 311.3052 315.3012 321.3012 327.3012 330.6348 335.9604 339.29399 342.29399 349.62358 353.40238 357.39839 362.72398 368.04957 371.38316 376.05357 379.05357 385.05357 391.05357 394.05357 397.38716 400.72074 410.05433 415.3799 418.3799 423.7055 429.7055 435.7055 438.7055 444.7055 450.0311 453.3647 456.69828 462.69828">Verma, S., Sharma, D., &#x0026; Larson, R. W. (2002). School stress in India: Effects on time and daily </tspan></text>
</g>
<g id="Layer-2" data-name="P">
<text xml:space="preserve" transform="matrix(1 0 -0 1 108 113.38483)" font-size="12" font-family="TimesNewRomanPSMT"><tspan y="0" x="0 5.3256008 14.659201 20.6592 23.992802 27.326403 33.3264 39.3264 43.9968 46.9968">emotions. </tspan></text>
</g>
<g id="Layer-2" data-name="P">
<text xml:space="preserve" transform="matrix(1 0 -0 1 108 113.38483)" font-size="12" font-family="TimesNewRomanPS" font-style="italic"><tspan y="0" x="49.99805 53.99405 59.99405 63.32765 68.653247 73.32365 79.32365 85.32365 88.65724 91.99084 97.99084 103.99084 109.99084 113.32443 116.32443 121.65003 127.65003 133.65003 138.32042 144.32042 150.32042 153.65402 156.65402 162.65402 165.98763 168.98763 176.31723 181.64284 187.64284 193.64284 198.96845 202.30205 208.30205 212.97245 218.97245 222.30605 225.30605 233.97245 239.29805 244.62366 249.94927 253.28287 259.28288 265.28288 273.94929 279.27488 285.27488 288.60847 291.60847 294.60847 300.60847">International Journal of Behavioral Development, 26</tspan></text>
</g>
<g id="Layer-2" data-name="P">
<text xml:space="preserve" transform="matrix(1 0 -0 1 108 113.38483)" font-size="12" font-family="TimesNewRomanPSMT"><tspan y="0" x="306.6152 310.6112 316.6112 320.6072 323.6072 326.6072 332.6072 338.6072 344.6072 350.6072 356.6072 362.6072 368.6072">(6), 500&#x2013;508.</tspan></text>
</g>
<g id="Layer-2" data-name="P">
<text fill="#0e101a" xml:space="preserve" transform="matrix(1 0 -0 1 108 113.38483)" font-size="12" font-family="TimesNewRomanPSMT"><tspan y="0" x="371.6074"> </tspan></text>
</g>
<g id="Layer-2" data-name="P">
<text fill="#4a6ee0" xml:space="preserve" transform="matrix(1 0 -0 1 108 113.38483)" font-size="12" font-family="TimesNewRomanPSMT"><tspan y="0" x="374.6074 380.6074 383.94099 387.27458 393.27458 397.94499 401.27857 404.61216">https://</tspan></text>
</g>
<g id="Layer-2" data-name="P">
<text fill="#4a6ee0" xml:space="preserve" transform="matrix(1 0 -0 1 108 142.875)" font-size="12" font-family="TimesNewRomanPSMT"><tspan y="0" x="0 6 12 15.3336 18.3336 24.3336 28.1124 34.1124 37.446004 43.446004 49.446004 52.446004 58.446004 64.446 70.446 76.446 79.779598 85.779598 91.779598 97.779598 103.779598 109.779598 115.779598 121.779598 127.779598 133.7796 139.7796 145.7796 151.7796 157.7796 163.7796 169.7796 175.7796">doi.org/10.1080/01650250143000454</tspan></text>
</g>
</g>
<path transform="matrix(1,0,0,1,72,72)" stroke-width=".5859375" stroke-linecap="butt" stroke-miterlimit="10" stroke-linejoin="miter" fill="none" stroke="#4a6ee0" d="M 410.6074 42.69141 L 443.9473 42.69141 "/>
<path transform="matrix(1,0,0,1,72,72)" stroke-width=".5859375" stroke-linecap="butt" stroke-miterlimit="10" stroke-linejoin="miter" fill="none" stroke="#4a6ee0" d="M 36 72.18164 L 217.7812 72.18164 "/>
</g>
</g>
</svg>
