<?xml version="1.0" encoding="UTF-8" standalone="no"?>
<!DOCTYPE svg PUBLIC "-//W3C//DTD SVG 1.1//EN" "http://www.w3.org/Graphics/SVG/1.1/DTD/svg11.dtd">
<svg xmlns="http://www.w3.org/2000/svg" xmlns:xlink="http://www.w3.org/1999/xlink" version="1.1" width="612pt" height="792pt" viewBox="0 0 612 792">
<g enable-background="new">
<clipPath id="cp30">
<path transform="matrix(1,0,0,-1,0,792)" d="M 0 0 L 612 0 L 612 792 L 0 792 Z "/>
</clipPath>
<g clip-path="url(#cp30)">
<path transform="matrix(1,0,0,-1,0,792)" d="M 0 792 L 612 792 L 612 0 L 0 0 Z " fill="#ffffff"/>
<g id="Layer-1" data-name="P">
</g>
<clipPath id="cp31">
<path transform="matrix(1,0,0,-1,0,792)" d="M 68.67773 68.69067 L 543.3222 68.69067 L 543.3222 723.32229 L 68.67773 723.32229 Z "/>
</clipPath>
<g clip-path="url(#cp31)">
<text fill="#0e101a" xml:space="preserve" transform="matrix(1 0 -0 1 72 83.89447)" font-size="12" font-family="TimesNewRomanPSMT"><tspan y="0" x="0 3.996 9.3216 12.6552 15.9888 18.9888 22.322402 28.322402 33.648004 36.9816 39.9816 44.652 47.9856 51.981599 57.307199 61.977598 66.648 69.648 73.644008 77.64001 83.64001 92.9736 95.9736 99.969608 105.295207 114.6288 117.962398 121.29599 127.29599 130.29599 134.96639 140.96639 146.96639 150.96239 156.288 161.6136 166.284 169.284 174.6096 178.38842 182.38442 187.71002 193.03563 196.36923 201.69484 207.69484 210.69484 214.02845 220.02845 225.35405 234.68766 237.68766 243.68766 249.01326 255.01326 260.33885 263.67243 267.006 273.006 278.3316 281.6652 287.6652 290.6652 293.99879 299.99879 302.99879 306.33238 311.65797 315.65397 324.98756 329.65797 332.65797 338.65797 342.65397 345.65397 348.98756 354.98756 360.31315 363.64674 367.64274 370.64274 379.97633 385.3019 391.3019 394.6355 399.9611 403.29469 406.29469 412.29469 417.62028 422.94587 426.27946 429.61305 435.61305 438.61305 443.93864 449.93864 455.93864">felt that stress from family sources affected them negatively in terms of their mental health and </tspan></text>
<text fill="#0e101a" xml:space="preserve" transform="matrix(1 0 -0 1 72 113.38483)" font-size="12" font-family="TimesNewRomanPSMT"><tspan y="0" x="0 8.666401 13.992002 17.325604 20.659205 24.655205 30.655205 35.980806 39.314405 45.314405 51.314405">well-being.</tspan></text>
<g id="Layer-2" data-name="Span">
<text fill="#0e101a" xml:space="preserve" transform="matrix(1 0 -0 1 72 113.38483)" font-size="12" font-family="TimesNewRomanPSMT"><tspan y="0" x="54.31641"> </tspan></text>
</g>
</g>
<g id="Layer-1" data-name="P">
<text xml:space="preserve" transform="matrix(1 0 -0 1 72 172.36518)" font-size="12" font-family="TimesNewRomanPS" font-weight="bold"><tspan y="0" x="0 6.9024007 12.902401 19.576802 22.910403 28.236004 31.236004">Table 1</tspan></text>
<g id="Layer-2" data-name="Span">
<text xml:space="preserve" transform="matrix(1 0 -0 1 72 172.36518)" font-size="12" font-family="TimesNewRomanPS" font-weight="bold"><tspan y="0" x="37.23633"> </tspan></text>
</g>
</g>
<g id="Layer-1" data-name="P">
<text xml:space="preserve" transform="matrix(1 0 -0 1 72 201.85553)" font-size="12" font-family="TimesNewRomanPS" font-style="italic"><tspan y="0" x="0 6 9.3336 13.5588 18.884402 23.554802 28.2252 31.2252 34.558805 38.784006 44.784006 53.450407 56.450407 63.780008 69.78001 78.44641 81.78001 85.1136">Stress from Family</tspan></text>
<g id="Layer-2" data-name="Span">
<text xml:space="preserve" transform="matrix(1 0 -0 1 72 201.85553)" font-size="12" font-family="TimesNewRomanPS" font-style="italic"><tspan y="0" x="90.43945"> </tspan></text>
</g>
</g>
<g id="Layer-1" data-name="P">
</g>
<g id="Layer-1" data-name="P">
<text xml:space="preserve" transform="matrix(1 0 -0 1 72 562.2332)" font-size="12" font-family="TimesNewRomanPS" font-weight="bold"><tspan y="0" x="0 6.9024007 12.902401 19.576802 22.910403 28.236004 31.236004">Table 2</tspan></text>
<g id="Layer-2" data-name="Span">
<text xml:space="preserve" transform="matrix(1 0 -0 1 72 562.2332)" font-size="12" font-family="TimesNewRomanPS" font-weight="bold"><tspan y="0" x="37.23633"> </tspan></text>
</g>
</g>
<g id="Layer-1" data-name="P">
<text xml:space="preserve" transform="matrix(1 0 -0 1 72 591.7234)" font-size="12" font-family="TimesNewRomanPS" font-style="italic"><tspan y="0" x="0 6.674401 10.008 15.3336 20.6592 25.329602 28.663203 31.663203 37.6632 42.9888 48.9888 52.3224 57.648 60.430799 67.76039 73.76039 79.76039 83.09399 88.419589 93.08999 96.423587">Likert Scale Analysis</tspan></text>
<g id="Layer-2" data-name="Span">
<text xml:space="preserve" transform="matrix(1 0 -0 1 72 591.7234)" font-size="12" font-family="TimesNewRomanPSMT"><tspan y="0" x="101.0977"> </tspan></text>
</g>
</g>
<g id="Layer-1" data-name="P">
</g>
<clipPath id="cp32">
<path transform="matrix(1,0,0,-1,0,792)" d="M 71 285.0488 L 505 285.0488 L 505 573.0488 L 71 573.0488 Z "/>
</clipPath>
<g clip-path="url(#cp32)">
<path transform="matrix(1,0,0,-1,0,792)" d="M 72 571.0488 L 320.35 571.0488 L 320.35 547.0488 L 72 547.0488 Z " fill="#ffffff"/>
<path transform="matrix(1,0,0,-1,0,792)" d="M 320.35 571.0488 L 398.85 571.0488 L 398.85 547.0488 L 320.35 547.0488 Z " fill="#ffffff"/>
<path transform="matrix(1,0,0,-1,0,792)" d="M 398.85 571.0488 L 503 571.0488 L 503 547.0488 L 398.85 547.0488 Z " fill="#ffffff"/>
<path transform="matrix(1,0,0,-1,0,792)" d="M 72 547.0488 L 320.35 547.0488 L 320.35 523.0488 L 72 523.0488 Z " fill="#ffffff"/>
<path transform="matrix(1,0,0,-1,0,792)" d="M 320.35 547.0488 L 398.85 547.0488 L 398.85 523.0488 L 320.35 523.0488 Z " fill="#ffffff"/>
<path transform="matrix(1,0,0,-1,0,792)" d="M 398.85 547.0488 L 503 547.0488 L 503 523.0488 L 398.85 523.0488 Z " fill="#ffffff"/>
<path transform="matrix(1,0,0,-1,0,792)" d="M 72 523.0488 L 320.35 523.0488 L 320.35 484.5798 L 72 484.5798 Z " fill="#ffffff"/>
<path transform="matrix(1,0,0,-1,0,792)" d="M 320.35 523.0488 L 398.85 523.0488 L 398.85 484.5798 L 320.35 484.5798 Z " fill="#ffffff"/>
<path transform="matrix(1,0,0,-1,0,792)" d="M 398.85 523.0488 L 503 523.0488 L 503 484.5798 L 398.85 484.5798 Z " fill="#ffffff"/>
<path transform="matrix(1,0,0,-1,0,792)" d="M 72 484.5798 L 320.35 484.5798 L 320.35 460.5798 L 72 460.5798 Z " fill="#ffffff"/>
<path transform="matrix(1,0,0,-1,0,792)" d="M 320.35 484.5798 L 398.85 484.5798 L 398.85 460.5798 L 320.35 460.5798 Z " fill="#ffffff"/>
<path transform="matrix(1,0,0,-1,0,792)" d="M 398.85 484.5798 L 503 484.5798 L 503 460.5798 L 398.85 460.5798 Z " fill="#ffffff"/>
<path transform="matrix(1,0,0,-1,0,792)" d="M 72 460.5798 L 320.35 460.5798 L 320.35 436.5798 L 72 436.5798 Z " fill="#ffffff"/>
<path transform="matrix(1,0,0,-1,0,792)" d="M 320.35 460.5798 L 398.85 460.5798 L 398.85 436.5798 L 320.35 436.5798 Z " fill="#ffffff"/>
<path transform="matrix(1,0,0,-1,0,792)" d="M 398.85 460.5798 L 503 460.5798 L 503 436.5798 L 398.85 436.5798 Z " fill="#ffffff"/>
<path transform="matrix(1,0,0,-1,0,792)" d="M 72 436.5798 L 320.35 436.5798 L 320.35 412.5798 L 72 412.5798 Z " fill="#ffffff"/>
<path transform="matrix(1,0,0,-1,0,792)" d="M 320.35 436.5798 L 398.85 436.5798 L 398.85 412.5798 L 320.35 412.5798 Z " fill="#ffffff"/>
<path transform="matrix(1,0,0,-1,0,792)" d="M 398.85 436.5798 L 503 436.5798 L 503 412.5798 L 398.85 412.5798 Z " fill="#ffffff"/>
<path transform="matrix(1,0,0,-1,0,792)" d="M 72 412.5798 L 320.35 412.5798 L 320.35 374.1108 L 72 374.1108 Z " fill="#ffffff"/>
<path transform="matrix(1,0,0,-1,0,792)" d="M 320.35 412.5798 L 398.85 412.5798 L 398.85 374.1108 L 320.35 374.1108 Z " fill="#ffffff"/>
<path transform="matrix(1,0,0,-1,0,792)" d="M 398.85 412.5798 L 503 412.5798 L 503 374.1108 L 398.85 374.1108 Z " fill="#ffffff"/>
<path transform="matrix(1,0,0,-1,0,792)" d="M 72 374.1108 L 320.35 374.1108 L 320.35 350.1108 L 72 350.1108 Z " fill="#ffffff"/>
<path transform="matrix(1,0,0,-1,0,792)" d="M 320.35 374.1108 L 398.85 374.1108 L 398.85 350.1108 L 320.35 350.1108 Z " fill="#ffffff"/>
<path transform="matrix(1,0,0,-1,0,792)" d="M 398.85 374.1108 L 503 374.1108 L 503 350.1108 L 398.85 350.1108 Z " fill="#ffffff"/>
<path transform="matrix(1,0,0,-1,0,792)" d="M 72 350.1108 L 320.35 350.1108 L 320.35 326.1108 L 72 326.1108 Z " fill="#ffffff"/>
<path transform="matrix(1,0,0,-1,0,792)" d="M 320.35 350.1108 L 398.85 350.1108 L 398.85 326.1108 L 320.35 326.1108 Z " fill="#ffffff"/>
<path transform="matrix(1,0,0,-1,0,792)" d="M 398.85 350.1108 L 503 350.1108 L 503 326.1108 L 398.85 326.1108 Z " fill="#ffffff"/>
<path transform="matrix(1,0,0,-1,0,792)" d="M 72 326.1108 L 320.35 326.1108 L 320.35 287.1418 L 72 287.1418 Z " fill="#ffffff"/>
<path transform="matrix(1,0,0,-1,0,792)" d="M 320.35 326.1108 L 398.85 326.1108 L 398.85 287.1418 L 320.35 287.1418 Z " fill="#ffffff"/>
<path transform="matrix(1,0,0,-1,0,792)" d="M 398.85 326.1108 L 503 326.1108 L 503 287.1418 L 398.85 287.1418 Z " fill="#ffffff"/>
<g id="Layer-2" data-name="P">
<g id="Layer-3" data-name="P">
<g id="Layer-4" data-name="P">
<g id="Layer-5" data-name="P">
</g>
<clipPath id="cp33">
<path transform="matrix(1,0,0,-1,0,792)" d="M 72 547.5488 L 320.35 547.5488 L 320.35 570.5488 L 72 570.5488 Z "/>
</clipPath>
<g clip-path="url(#cp33)">
<text fill="#010204" xml:space="preserve" transform="matrix(1 0 -0 1 177.2365 237.21631)" font-size="12.5" font-family="TimesNewRomanPSMT"><tspan y="0" x="0 6.952501 10.425002 14.587502 20.135003 25.000002 29.865004 36.115007">Stressor</tspan></text>
</g>
</g>
<g id="Layer-4" data-name="P">
<g id="Layer-5" data-name="P">
</g>
<clipPath id="cp34">
<path transform="matrix(1,0,0,-1,0,792)" d="M 320.35 547.5488 L 398.85 547.5488 L 398.85 570.5488 L 320.35 570.5488 Z "/>
</clipPath>
<g clip-path="url(#cp34)">
<text fill="#010204" xml:space="preserve" transform="matrix(1 0 -0 1 334.4206 237.21631)" font-size="12.5" font-family="TimesNewRomanPSMT"><tspan y="0" x="0 6.952501 11.115001 16.6625 22.9125 29.1625 34.710004 40.960004 46.507505">Frequency</tspan></text>
</g>
</g>
<g id="Layer-4" data-name="P">
<g id="Layer-5" data-name="P">
</g>
<clipPath id="cp35">
<path transform="matrix(1,0,0,-1,0,792)" d="M 398.85 547.5488 L 503 547.5488 L 503 570.5488 L 398.85 570.5488 Z "/>
</clipPath>
<g clip-path="url(#cp35)">
<text fill="#010204" xml:space="preserve" transform="matrix(1 0 -0 1 433.3842 237.21631)" font-size="12.5" font-family="TimesNewRomanPSMT"><tspan y="0" x="0 6.952501 12.500002 16.662503 22.210003 27.757504 34.007505">Percent</tspan></text>
</g>
</g>
</g>
</g>
<g id="Layer-2" data-name="P">
<g id="Layer-3" data-name="P">
<g id="Layer-4" data-name="P">
<g id="Layer-5" data-name="P">
</g>
<clipPath id="cp36">
<path transform="matrix(1,0,0,-1,0,792)" d="M 72 523.0488 L 320.35 523.0488 L 320.35 546.5488 L 72 546.5488 Z "/>
</clipPath>
<g clip-path="url(#cp36)">
<text fill="#010204" xml:space="preserve" transform="matrix(1 0 -0 1 79 262.2163)" font-size="12.5" font-family="TimesNewRomanPSMT"><tspan y="0" x="0 9.0275 15.2775 18.4025 23.2675 26.74 30.9025 36.45 41.315 46.179998 49.304998 53.467496 57.629995 63.879995 73.60249 76.72749 80.88999 86.43749 96.15999 99.632488 103.10498">No stress from family</tspan></text>
</g>
</g>
<g id="Layer-4" data-name="P">
<g id="Layer-5" data-name="P">
</g>
<clipPath id="cp37">
<path transform="matrix(1,0,0,-1,0,792)" d="M 320.35 523.0488 L 398.85 523.0488 L 398.85 546.5488 L 320.35 546.5488 Z "/>
</clipPath>
<g clip-path="url(#cp37)">
<text fill="#010204" xml:space="preserve" transform="matrix(1 0 -0 1 351.425 262.2163)" font-size="12.5" font-family="TimesNewRomanPSMT"><tspan y="0" x="0 6.25 12.5">129</tspan></text>
</g>
</g>
<g id="Layer-4" data-name="P">
<g id="Layer-5" data-name="P">
</g>
<clipPath id="cp38">
<path transform="matrix(1,0,0,-1,0,792)" d="M 398.85 523.0488 L 503 523.0488 L 503 546.5488 L 398.85 546.5488 Z "/>
</clipPath>
<g clip-path="url(#cp38)">
<text fill="#010204" xml:space="preserve" transform="matrix(1 0 -0 1 435.9812 262.2163)" font-size="12.5" font-family="TimesNewRomanPSMT"><tspan y="0" x="0 6.25 12.5 15.625 21.875">58.6%</tspan></text>
</g>
</g>
</g>
<g id="Layer-3" data-name="P">
<g id="Layer-4" data-name="P">
<g id="Layer-5" data-name="P">
</g>
<clipPath id="cp39">
<path transform="matrix(1,0,0,-1,0,792)" d="M 72 484.5798 L 320.35 484.5798 L 320.35 523.04879 L 72 523.04879 Z "/>
</clipPath>
<g clip-path="url(#cp39)">
<text fill="#010204" xml:space="preserve" transform="matrix(1 0 -0 1 79 284.7163)" font-size="12.5" font-family="TimesNewRomanPSMT"><tspan y="0" x="0 9.0275 12.500001 18.75 25 28.125 33.6725 39.9225 46.1725 51.72 57.2675 60.74 66.2875 69.759998 73.23249 79.48249 85.73249 90.597499 93.722499 97.19499 103.44499 106.56999 112.11749 118.36749 123.91499 133.6375 138.5025 141.6275 145.79001 149.26251 155.51251 161.06002 164.53252 170.78252 177.03252 180.50502 186.75502 193.00502 196.13002 201.67752 207.92752 213.47502 223.19753 228.06253">High expectations in exams (including exams </tspan></text>
<text fill="#010204" xml:space="preserve" transform="matrix(1 0 -0 1 79 300.7163)" font-size="12.5" font-family="TimesNewRomanPSMT"><tspan y="0" x="0 6.25 11.797502 18.0475 24.2975 30.5475 36.7975 39.9225 44.7875 50.335 56.585 62.835 69.085 72.557498 76.71999 80.19249 85.73999 91.98999 97.53749 101.00999">beyond school-level)</tspan></text>
</g>
</g>
<g id="Layer-4" data-name="P">
<g id="Layer-5" data-name="P">
</g>
<clipPath id="cp40">
<path transform="matrix(1,0,0,-1,0,792)" d="M 320.35 484.5798 L 398.85 484.5798 L 398.85 523.04879 L 320.35 523.04879 Z "/>
</clipPath>
<g clip-path="url(#cp40)">
<text fill="#010204" xml:space="preserve" transform="matrix(1 0 -0 1 354.55 292.7163)" font-size="12.5" font-family="TimesNewRomanPSMT"><tspan y="0" x="0 6.25">72</tspan></text>
</g>
</g>
<g id="Layer-4" data-name="P">
<g id="Layer-5" data-name="P">
</g>
<clipPath id="cp41">
<path transform="matrix(1,0,0,-1,0,792)" d="M 398.85 484.5798 L 503 484.5798 L 503 523.04879 L 398.85 523.04879 Z "/>
</clipPath>
<g clip-path="url(#cp41)">
<text fill="#010204" xml:space="preserve" transform="matrix(1 0 -0 1 435.9812 292.7163)" font-size="12.5" font-family="TimesNewRomanPSMT"><tspan y="0" x="0 6.25 12.5 15.625 21.875">32.7%</tspan></text>
</g>
</g>
</g>
<g id="Layer-3" data-name="P">
<g id="Layer-4" data-name="P">
<g id="Layer-5" data-name="P">
</g>
<clipPath id="cp42">
<path transform="matrix(1,0,0,-1,0,792)" d="M 72 460.5798 L 320.35 460.5798 L 320.35 484.5798 L 72 484.5798 Z "/>
</clipPath>
<g clip-path="url(#cp42)">
<text fill="#010204" xml:space="preserve" transform="matrix(1 0 -0 1 79 324.1853)" font-size="12.5" font-family="TimesNewRomanPSMT"><tspan y="0" x="0 7.6349999 11.107501 20.83 24.3025 27.775 32.64 35.765 42.015 48.265 51.39 57.64 63.89 72.9175 76.0425 82.2925 88.5425 94.7925 97.9175 102.78251 109.03251 114.58001 120.83001 127.08001 130.20502 133.67752 137.15003 146.87253">Limits on how you spend time</tspan></text>
</g>
</g>
<g id="Layer-4" data-name="P">
<g id="Layer-5" data-name="P">
</g>
<clipPath id="cp43">
<path transform="matrix(1,0,0,-1,0,792)" d="M 320.35 460.5798 L 398.85 460.5798 L 398.85 484.5798 L 320.35 484.5798 Z "/>
</clipPath>
<g clip-path="url(#cp43)">
<text fill="#010204" xml:space="preserve" transform="matrix(1 0 -0 1 354.55 324.1853)" font-size="12.5" font-family="TimesNewRomanPSMT"><tspan y="0" x="0 6.25">55</tspan></text>
</g>
</g>
<g id="Layer-4" data-name="P">
<g id="Layer-5" data-name="P">
</g>
<clipPath id="cp44">
<path transform="matrix(1,0,0,-1,0,792)" d="M 398.85 460.5798 L 503 460.5798 L 503 484.5798 L 398.85 484.5798 Z "/>
</clipPath>
<g clip-path="url(#cp44)">
<text fill="#010204" xml:space="preserve" transform="matrix(1 0 -0 1 435.9812 324.1853)" font-size="12.5" font-family="TimesNewRomanPSMT"><tspan y="0" x="0 6.25 12.5 15.625 21.875">25.0%</tspan></text>
</g>
</g>
</g>
<g id="Layer-3" data-name="P">
<g id="Layer-4" data-name="P">
<g id="Layer-5" data-name="P">
</g>
<clipPath id="cp45">
<path transform="matrix(1,0,0,-1,0,792)" d="M 72 436.5798 L 320.35 436.5798 L 320.35 460.5798 L 72 460.5798 Z "/>
</clipPath>
<g clip-path="url(#cp45)">
<text fill="#010204" xml:space="preserve" transform="matrix(1 0 -0 1 79 348.1853)" font-size="12.5" font-family="TimesNewRomanPSMT"><tspan y="0" x="0 9.0275 12.500001 17.365002 22.912503 29.162503 35.412504 39.575 45.825 52.075 57.6225 61.095006 64.22 70.47 74.6325 77.7575 81.92 88.17 97.892498 103.439998 109.689998 113.16249 116.63499 122.18249 125.30749 129.46999 135.01749 138.48999 144.03749 147.51 150.9825 157.2325 163.4825 168.3475 174.5975 178.07 184.32">Disapproval of romantic relationships</tspan></text>
</g>
</g>
<g id="Layer-4" data-name="P">
<g id="Layer-5" data-name="P">
</g>
<clipPath id="cp46">
<path transform="matrix(1,0,0,-1,0,792)" d="M 320.35 436.5798 L 398.85 436.5798 L 398.85 460.5798 L 320.35 460.5798 Z "/>
</clipPath>
<g clip-path="url(#cp46)">
<text fill="#010204" xml:space="preserve" transform="matrix(1 0 -0 1 354.55 348.1853)" font-size="12.5" font-family="TimesNewRomanPSMT"><tspan y="0" x="0 6.25">24</tspan></text>
</g>
</g>
<g id="Layer-4" data-name="P">
<g id="Layer-5" data-name="P">
</g>
<clipPath id="cp47">
<path transform="matrix(1,0,0,-1,0,792)" d="M 398.85 436.5798 L 503 436.5798 L 503 460.5798 L 398.85 460.5798 Z "/>
</clipPath>
<g clip-path="url(#cp47)">
<text fill="#010204" xml:space="preserve" transform="matrix(1 0 -0 1 435.9812 348.1853)" font-size="12.5" font-family="TimesNewRomanPSMT"><tspan y="0" x="0 6.25 12.5 15.625 21.875">10.9%</tspan></text>
</g>
</g>
</g>
<g id="Layer-3" data-name="P">
<g id="Layer-4" data-name="P">
<g id="Layer-5" data-name="P">
</g>
<clipPath id="cp48">
<path transform="matrix(1,0,0,-1,0,792)" d="M 72 412.5798 L 320.35 412.5798 L 320.35 436.5798 L 72 436.5798 Z "/>
</clipPath>
<g clip-path="url(#cp48)">
<text fill="#010204" xml:space="preserve" transform="matrix(1 0 -0 1 79 372.1853)" font-size="12.5" font-family="TimesNewRomanPSMT"><tspan y="0" x="0 6.952501 12.500002 16.662503 22.210003 28.460003 31.932503 37.480005 40.952505 44.077505 49.625005 55.875005 62.125005 65.5975 69.76 76.01 79.4825 82.6075 88.8575 95.1075 100.655 104.8175 107.9425 113.49 119.0375 123.2 128.7475 134.295 138.4575 141.5825 147.13 153.38 159.63 163.10251 168.65001 174.19751">Parental control over career choices</tspan></text>
</g>
</g>
<g id="Layer-4" data-name="P">
<g id="Layer-5" data-name="P">
</g>
<clipPath id="cp49">
<path transform="matrix(1,0,0,-1,0,792)" d="M 320.35 412.5798 L 398.85 412.5798 L 398.85 436.5798 L 320.35 436.5798 Z "/>
</clipPath>
<g clip-path="url(#cp49)">
<text fill="#010204" xml:space="preserve" transform="matrix(1 0 -0 1 354.55 372.1853)" font-size="12.5" font-family="TimesNewRomanPSMT"><tspan y="0" x="0 6.25">15</tspan></text>
</g>
</g>
<g id="Layer-4" data-name="P">
<g id="Layer-5" data-name="P">
</g>
<clipPath id="cp50">
<path transform="matrix(1,0,0,-1,0,792)" d="M 398.85 412.5798 L 503 412.5798 L 503 436.5798 L 398.85 436.5798 Z "/>
</clipPath>
<g clip-path="url(#cp50)">
<text fill="#010204" xml:space="preserve" transform="matrix(1 0 -0 1 439.1062 372.1853)" font-size="12.5" font-family="TimesNewRomanPSMT"><tspan y="0" x="0 6.25 9.375 15.625">6.8%</tspan></text>
</g>
</g>
</g>
<g id="Layer-3" data-name="P">
<g id="Layer-4" data-name="P">
<g id="Layer-5" data-name="P">
</g>
<clipPath id="cp51">
<path transform="matrix(1,0,0,-1,0,792)" d="M 72 374.1108 L 320.35 374.1108 L 320.35 412.5798 L 72 412.5798 Z "/>
</clipPath>
<g clip-path="url(#cp51)">
<text fill="#010204" xml:space="preserve" transform="matrix(1 0 -0 1 79 395.1853)" font-size="12.5" font-family="TimesNewRomanPSMT"><tspan y="0" x="0 6.952501 13.202501 19.452502 22.925002 27.790003 34.04 43.7625 49.31 55.56 59.032506 63.897504 67.02251 71.185009 77.435009 81.5975 84.7225 90.9725 97.2225 103.4725 107.635 110.76 117.01 122.5575 126.72 130.8825 137.1325 141.29502 151.01752 156.56502 162.81502 168.36252 173.91002 177.03502 180.50753 186.75753">Punishments for poor performance in </tspan></text>
<text fill="#010204" xml:space="preserve" transform="matrix(1 0 -0 1 79 411.1853)" font-size="12.5" font-family="TimesNewRomanPSMT"><tspan y="0" x="0 5.5475008 11.797501 17.345002 27.067502 30.54 36.79 42.3375 45.81 49.282506 55.532506 61.782506">examinations</tspan></text>
</g>
</g>
<g id="Layer-4" data-name="P">
<g id="Layer-5" data-name="P">
</g>
<clipPath id="cp52">
<path transform="matrix(1,0,0,-1,0,792)" d="M 320.35 374.1108 L 398.85 374.1108 L 398.85 412.5798 L 320.35 412.5798 Z "/>
</clipPath>
<g clip-path="url(#cp52)">
<text fill="#010204" xml:space="preserve" transform="matrix(1 0 -0 1 354.55 403.1853)" font-size="12.5" font-family="TimesNewRomanPSMT"><tspan y="0" x="0 6.25">10</tspan></text>
</g>
</g>
<g id="Layer-4" data-name="P">
<g id="Layer-5" data-name="P">
</g>
<clipPath id="cp53">
<path transform="matrix(1,0,0,-1,0,792)" d="M 398.85 374.1108 L 503 374.1108 L 503 412.5798 L 398.85 412.5798 Z "/>
</clipPath>
<g clip-path="url(#cp53)">
<text fill="#010204" xml:space="preserve" transform="matrix(1 0 -0 1 439.1062 403.1853)" font-size="12.5" font-family="TimesNewRomanPSMT"><tspan y="0" x="0 6.25 9.375 15.625">4.5%</tspan></text>
</g>
</g>
</g>
<g id="Layer-3" data-name="P">
<g id="Layer-4" data-name="P">
<g id="Layer-5" data-name="P">
</g>
<clipPath id="cp54">
<path transform="matrix(1,0,0,-1,0,792)" d="M 72 350.1108 L 320.35 350.1108 L 320.35 374.1108 L 72 374.1108 Z "/>
</clipPath>
<g clip-path="url(#cp54)">
<text fill="#010204" xml:space="preserve" transform="matrix(1 0 -0 1 79 434.6543)" font-size="12.5" font-family="TimesNewRomanPSMT"><tspan y="0" x="0 9.0275 14.575002 20.825 27.075 32.6225 36.785 39.91 46.16 49.632505 54.4975 60.045003 64.207508 67.68 77.4025 80.87499 87.12499 92.67249 96.14499 99.617488 105.867488">Gender discrimination</tspan></text>
</g>
</g>
<g id="Layer-4" data-name="P">
<g id="Layer-5" data-name="P">
</g>
<clipPath id="cp55">
<path transform="matrix(1,0,0,-1,0,792)" d="M 320.35 350.1108 L 398.85 350.1108 L 398.85 374.1108 L 320.35 374.1108 Z "/>
</clipPath>
<g clip-path="url(#cp55)">
<text fill="#010204" xml:space="preserve" transform="matrix(1 0 -0 1 357.675 434.6543)" font-size="12.5" font-family="TimesNewRomanPSMT"><tspan y="0" x="0">8</tspan></text>
</g>
</g>
<g id="Layer-4" data-name="P">
<g id="Layer-5" data-name="P">
</g>
<clipPath id="cp56">
<path transform="matrix(1,0,0,-1,0,792)" d="M 398.85 350.1108 L 503 350.1108 L 503 374.1108 L 398.85 374.1108 Z "/>
</clipPath>
<g clip-path="url(#cp56)">
<text fill="#010204" xml:space="preserve" transform="matrix(1 0 -0 1 439.1062 434.6543)" font-size="12.5" font-family="TimesNewRomanPSMT"><tspan y="0" x="0 6.25 9.375 15.625">3.6%</tspan></text>
</g>
</g>
</g>
<g id="Layer-3" data-name="P">
<g id="Layer-4" data-name="P">
<g id="Layer-5" data-name="P">
</g>
<clipPath id="cp57">
<path transform="matrix(1,0,0,-1,0,792)" d="M 72 326.1108 L 320.35 326.1108 L 320.35 350.1108 L 72 350.1108 Z "/>
</clipPath>
<g clip-path="url(#cp57)">
<text fill="#010204" xml:space="preserve" transform="matrix(1 0 -0 1 79 458.6543)" font-size="12.5" font-family="TimesNewRomanPSMT"><tspan y="0" x="0 9.0275 14.575002 18.737502 23.602503 29.852503 32.9775 39.2275 45.4775 51.7275 56.5925 60.065 65.612499 71.159999 74.63249 77.75749 84.00749 87.47999 92.34499 97.892498 101.36499 107.61499 111.08749 114.55998 120.80998">Harsh physical discipline</tspan></text>
</g>
</g>
<g id="Layer-4" data-name="P">
<g id="Layer-5" data-name="P">
</g>
<clipPath id="cp58">
<path transform="matrix(1,0,0,-1,0,792)" d="M 320.35 326.1108 L 398.85 326.1108 L 398.85 350.1108 L 320.35 350.1108 Z "/>
</clipPath>
<g clip-path="url(#cp58)">
<text fill="#010204" xml:space="preserve" transform="matrix(1 0 -0 1 357.675 458.6543)" font-size="12.5" font-family="TimesNewRomanPSMT"><tspan y="0" x="0">4</tspan></text>
</g>
</g>
<g id="Layer-4" data-name="P">
<g id="Layer-5" data-name="P">
</g>
<clipPath id="cp59">
<path transform="matrix(1,0,0,-1,0,792)" d="M 398.85 326.1108 L 503 326.1108 L 503 350.1108 L 398.85 350.1108 Z "/>
</clipPath>
<g clip-path="url(#cp59)">
<text fill="#010204" xml:space="preserve" transform="matrix(1 0 -0 1 439.1062 458.6543)" font-size="12.5" font-family="TimesNewRomanPSMT"><tspan y="0" x="0 6.25 9.375 15.625">1.8%</tspan></text>
</g>
</g>
</g>
<g id="Layer-3" data-name="P">
<g id="Layer-4" data-name="P">
<g id="Layer-5" data-name="P">
</g>
<clipPath id="cp60">
<path transform="matrix(1,0,0,-1,0,792)" d="M 72 287.6418 L 320.35 287.6418 L 320.35 326.1108 L 72 326.1108 Z "/>
</clipPath>
<g clip-path="url(#cp60)">
<text fill="#010204" xml:space="preserve" transform="matrix(1 0 -0 1 79 481.6543)" font-size="12.5" font-family="TimesNewRomanPSMT"><tspan y="0" x="0 7.6349999 13.885 20.135 26.385 31.250002 37.5 41.6625 47.21 50.335 53.8075 60.0575 63.1825 69.432498 75.682498 85.40499 90.95249 95.8175 99.28999 102.76249 108.30999 111.43499 117.68499 121.157489 127.407489 130.87999 136.42749 142.67749 148.22499 153.77249 156.89749 163.14749 168.69499 172.1675 181.19499 186.7425 192.29 198.54">Exposure to domestic violence between </tspan></text>
<text fill="#010204" xml:space="preserve" transform="matrix(1 0 -0 1 79 497.6543)" font-size="12.5" font-family="TimesNewRomanPSMT"><tspan y="0" x="0 6.25 11.797502 15.960001 21.507502 27.757502 31.230002">parents</tspan></text>
</g>
</g>
<g id="Layer-4" data-name="P">
<g id="Layer-5" data-name="P">
</g>
<clipPath id="cp61">
<path transform="matrix(1,0,0,-1,0,792)" d="M 320.35 287.6418 L 398.85 287.6418 L 398.85 326.1108 L 320.35 326.1108 Z "/>
</clipPath>
<g clip-path="url(#cp61)">
<text fill="#010204" xml:space="preserve" transform="matrix(1 0 -0 1 357.675 489.6543)" font-size="12.5" font-family="TimesNewRomanPSMT"><tspan y="0" x="0">2</tspan></text>
</g>
</g>
<g id="Layer-4" data-name="P">
<g id="Layer-5" data-name="P">
</g>
<clipPath id="cp62">
<path transform="matrix(1,0,0,-1,0,792)" d="M 398.85 287.6418 L 503 287.6418 L 503 326.1108 L 398.85 326.1108 Z "/>
</clipPath>
<g clip-path="url(#cp62)">
<text fill="#010204" xml:space="preserve" transform="matrix(1 0 -0 1 439.1062 489.6543)" font-size="12.5" font-family="TimesNewRomanPSMT"><tspan y="0" x="0 6.25 9.375 15.625">0.9%</tspan></text>
</g>
</g>
</g>
</g>
<clipPath id="cp63">
<path transform="matrix(1,0,0,-1,0,792)" d="M 71 285.0488 L 505 285.0488 L 505 573.0488 L 71 573.0488 Z "/>
</clipPath>
<g clip-path="url(#cp63)">
<path transform="matrix(1,0,0,1,71,218.95117)" stroke-width="1" stroke-linecap="butt" stroke-miterlimit="4" stroke-linejoin="miter" fill="none" stroke="#000000" d="M 1 26 L 432 26 "/>
<path transform="matrix(1,0,0,1,71,218.95117)" stroke-width="1" stroke-linecap="butt" stroke-miterlimit="4" stroke-linejoin="miter" fill="none" stroke="#000000" d="M 1 2 L 432 2 "/>
<path transform="matrix(1,0,0,1,71,218.95117)" stroke-width="1" stroke-linecap="butt" stroke-miterlimit="4" stroke-linejoin="miter" fill="none" stroke="#000000" d="M 1 285.907 L 432 285.907 "/>
</g>
</g>
<g id="Layer-1" data-name="P">
</g>
<clipPath id="cp64">
<path transform="matrix(1,0,0,-1,0,792)" d="M 71 84.18091 L 504 84.18091 L 504 183.18091 L 71 183.18091 Z "/>
</clipPath>
<g clip-path="url(#cp64)">
<path transform="matrix(1,0,0,-1,0,792)" d="M 72 181.1809 L 375.65 181.1809 L 375.65 157.1809 L 72 157.1809 Z " fill="#ffffff"/>
<path transform="matrix(1,0,0,-1,0,792)" d="M 375.65 181.1809 L 503 181.1809 L 503 157.1809 L 375.65 157.1809 Z " fill="#ffffff"/>
<path transform="matrix(1,0,0,-1,0,792)" d="M 72 157.1809 L 375.65 157.1809 L 375.65 133.1809 L 72 133.1809 Z " fill="#ffffff"/>
<path transform="matrix(1,0,0,-1,0,792)" d="M 375.65 157.1809 L 503 157.1809 L 503 133.1809 L 375.65 133.1809 Z " fill="#ffffff"/>
<path transform="matrix(1,0,0,-1,0,792)" d="M 72 133.1809 L 375.65 133.1809 L 375.65 109.1809 L 72 109.1809 Z " fill="#ffffff"/>
<path transform="matrix(1,0,0,-1,0,792)" d="M 375.65 133.1809 L 503 133.1809 L 503 109.1809 L 375.65 109.1809 Z " fill="#ffffff"/>
<path transform="matrix(1,0,0,-1,0,792)" d="M 72 109.1809 L 375.65 109.1809 L 375.65 85.18091 L 72 85.18091 Z " fill="#ffffff"/>
<path transform="matrix(1,0,0,-1,0,792)" d="M 375.65 109.1809 L 503 109.1809 L 503 85.18091 L 375.65 85.18091 Z " fill="#ffffff"/>
<g id="Layer-2" data-name="P">
<g id="Layer-3" data-name="P">
<g id="Layer-4" data-name="P">
<g id="Layer-5" data-name="P">
</g>
<clipPath id="cp65">
<path transform="matrix(1,0,0,-1,0,792)" d="M 72 157.6809 L 375.65 157.6809 L 375.65 180.6809 L 72 180.6809 Z "/>
</clipPath>
<g clip-path="url(#cp65)">
<text fill="#010204" xml:space="preserve" transform="matrix(1 0 -0 1 203.5071 627.0842)" font-size="12.5" font-family="TimesNewRomanPSMT"><tspan y="0" x="0 11.115001 16.6625 22.210001 27.075003 33.325006 37.487504">Measure</tspan></text>
</g>
</g>
<g id="Layer-4" data-name="P">
<g id="Layer-5" data-name="P">
</g>
<clipPath id="cp66">
<path transform="matrix(1,0,0,-1,0,792)" d="M 375.65 157.6809 L 503 157.6809 L 503 180.6809 L 375.65 180.6809 Z "/>
</clipPath>
<g clip-path="url(#cp66)">
<text fill="#010204" xml:space="preserve" transform="matrix(1 0 -0 1 426.2946 627.0842)" font-size="12.5" font-family="TimesNewRomanPSMT"><tspan y="0" x="0 7.6412508 13.188752 16.661253 22.911253">Value</tspan></text>
</g>
</g>
</g>
</g>
<g id="Layer-2" data-name="P">
<g id="Layer-3" data-name="P">
<g id="Layer-4" data-name="P">
<g id="Layer-5" data-name="P">
</g>
<clipPath id="cp67">
<path transform="matrix(1,0,0,-1,0,792)" d="M 72 133.1809 L 375.65 133.1809 L 375.65 156.6809 L 72 156.6809 Z "/>
</clipPath>
<g clip-path="url(#cp67)">
<text fill="#010204" xml:space="preserve" transform="matrix(1 0 -0 1 79 652.0842)" font-size="12.5" font-family="TimesNewRomanPSMT"><tspan y="0" x="0 11.115001 16.667502 22.220002">Mean</tspan></text>
</g>
</g>
<g id="Layer-4" data-name="P">
<g id="Layer-5" data-name="P">
</g>
<clipPath id="cp68">
<path transform="matrix(1,0,0,-1,0,792)" d="M 375.65 133.1809 L 503 133.1809 L 503 156.6809 L 375.65 156.6809 Z "/>
</clipPath>
<g clip-path="url(#cp68)">
<text fill="#010204" xml:space="preserve" transform="matrix(1 0 -0 1 432.7125 652.0842)" font-size="12.5" font-family="TimesNewRomanPSMT"><tspan y="0" x="0 6.25 9.375">3.2</tspan></text>
</g>
</g>
</g>
<g id="Layer-3" data-name="P">
<g id="Layer-4" data-name="P">
<g id="Layer-5" data-name="P">
</g>
<clipPath id="cp69">
<path transform="matrix(1,0,0,-1,0,792)" d="M 72 109.1809 L 375.65 109.1809 L 375.65 133.18091 L 72 133.18091 Z "/>
</clipPath>
<g clip-path="url(#cp69)">
<text fill="#010204" xml:space="preserve" transform="matrix(1 0 -0 1 79 675.5842)" font-size="12.5" font-family="TimesNewRomanPSMT"><tspan y="0" x="0 11.115001 17.365002 23.615002">Mode</tspan></text>
</g>
</g>
<g id="Layer-4" data-name="P">
<g id="Layer-5" data-name="P">
</g>
<clipPath id="cp70">
<path transform="matrix(1,0,0,-1,0,792)" d="M 375.65 109.1809 L 503 109.1809 L 503 133.18091 L 375.65 133.18091 Z "/>
</clipPath>
<g clip-path="url(#cp70)">
<text fill="#010204" xml:space="preserve" transform="matrix(1 0 -0 1 437.4 675.5842)" font-size="12.5" font-family="TimesNewRomanPSMT"><tspan y="0" x="0">3</tspan></text>
</g>
</g>
</g>
<g id="Layer-3" data-name="P">
<g id="Layer-4" data-name="P">
<g id="Layer-5" data-name="P">
</g>
<clipPath id="cp71">
<path transform="matrix(1,0,0,-1,0,792)" d="M 72 85.18091 L 375.65 85.18091 L 375.65 109.18091 L 72 109.18091 Z "/>
</clipPath>
<g clip-path="url(#cp71)">
<text fill="#010204" xml:space="preserve" transform="matrix(1 0 -0 1 79 699.5842)" font-size="12.5" font-family="TimesNewRomanPSMT"><tspan y="0" x="0 11.115001 16.6625 22.9125 26.385 31.9325">Median</tspan></text>
</g>
</g>
<g id="Layer-4" data-name="P">
<g id="Layer-5" data-name="P">
</g>
<clipPath id="cp72">
<path transform="matrix(1,0,0,-1,0,792)" d="M 375.65 85.18091 L 503 85.18091 L 503 109.18091 L 375.65 109.18091 Z "/>
</clipPath>
<g clip-path="url(#cp72)">
<text fill="#010204" xml:space="preserve" transform="matrix(1 0 -0 1 437.4 699.5842)" font-size="12.5" font-family="TimesNewRomanPSMT"><tspan y="0" x="0">3</tspan></text>
</g>
</g>
</g>
</g>
<clipPath id="cp73">
<path transform="matrix(1,0,0,-1,0,792)" d="M 71 84.18091 L 504 84.18091 L 504 183.18091 L 71 183.18091 Z "/>
</clipPath>
<g clip-path="url(#cp73)">
<path transform="matrix(1,0,0,1,71,608.8191)" stroke-width="1" stroke-linecap="butt" stroke-miterlimit="4" stroke-linejoin="miter" fill="none" stroke="#000000" d="M 1 26 L 432 26 "/>
<path transform="matrix(1,0,0,1,71,608.8191)" stroke-width="1" stroke-linecap="butt" stroke-miterlimit="4" stroke-linejoin="miter" fill="none" stroke="#000000" d="M 1 2 L 432 2 "/>
</g>
</g>
</g>
</g>
</svg>
