<?xml version="1.0" encoding="UTF-8" standalone="no"?>
<!DOCTYPE svg PUBLIC "-//W3C//DTD SVG 1.1//EN" "http://www.w3.org/Graphics/SVG/1.1/DTD/svg11.dtd">
<svg xmlns="http://www.w3.org/2000/svg" xmlns:xlink="http://www.w3.org/1999/xlink" version="1.1" width="612pt" height="792pt" viewBox="0 0 612 792">
<g enable-background="new">
<clipPath id="cp270">
<path transform="matrix(1,0,0,-1,0,792)" d="M 0 0 L 612 0 L 612 792 L 0 792 Z "/>
</clipPath>
<g clip-path="url(#cp270)">
<path transform="matrix(1,0,0,-1,0,792)" d="M 0 792 L 612 792 L 612 0 L 0 0 Z " fill="#ffffff"/>
<g id="Layer-1" data-name="P">
</g>
<clipPath id="cp271">
<path transform="matrix(1,0,0,-1,0,792)" d="M 68.67773 67.89258 L 543.3222 67.89258 L 543.3222 723.32229 L 68.67773 723.32229 Z "/>
</clipPath>
<g clip-path="url(#cp271)">
<text fill="#0e101a" xml:space="preserve" transform="matrix(1 0 -0 1 218.1768 113.38483)" font-size="12" font-family="TimesNewRomanPS" font-weight="bold"><tspan y="0" x="0 4.6704 14.666401 21.340802 24.674403 28.008004 33.333604 39.333604 43.3296 46.663206 52.663206 59.337606 64.00801 67.00801 71.00401 77.00401 82.11362 85.11362 92.443218 99.11762 104.44322 108.439228 115.113628 120.439228 125.54883 128.54883 137.21523 142.54084 147.21123 152.53684 158.53684 163.64644 168.97205">Implications for Further Research</tspan></text>
<g id="Layer-2" data-name="Span">
<text fill="#0e101a" xml:space="preserve" transform="matrix(1 0 -0 1 218.1768 113.38483)" font-size="12" font-family="TimesNewRomanPSMT"><tspan y="0" x="175.6465"> </tspan></text>
</g>
</g>
<g id="Layer-1" data-name="P">
<text fill="#0e101a" xml:space="preserve" transform="matrix(1 0 -0 1 108 142.875)" font-size="12" font-family="TimesNewRomanPSMT"><tspan y="0" x="0 8.666401 12.000001 15.333601 21.333601 27.333601 33.333604 39.333604 45.333604 48.333604 51.667203 57.667203 62.9928 65.9928 73.996799 79.322399 85.322399 88.65599 92.65199 97.97759 101.31119 104.31119 112.315189 118.315189 123.640789 127.63679 133.63678 136.63678 142.63678 146.63278 149.63278 156.30718 161.63278 166.95839 172.95839 178.95839 184.95839 190.284 194.28 200.28 203.28 210.6096 216.6096 222.6096 227.93521 233.26082 236.59442 239.92803 245.92803 251.92803 254.92803 258.924 266.928 274.932 281.6064 288.936 292.932 295.932 301.932 307.2576 311.928 314.928 324.2616 329.5872 335.5872 340.91279 343.91279 347.24638 350.57997 353.57997 362.91355 368.23915 374.23915 380.23915 385.56474 388.89833 394.89833 398.89433 404.89433 407.89433 411.89033 417.89033 421.88633">Although the Central Board of Secondary Education (CBSE) has made it mandatory for </tspan></text>
<text fill="#0e101a" xml:space="preserve" transform="matrix(1 0 -0 1 72 172.36518)" font-size="12" font-family="TimesNewRomanPSMT"><tspan y="0" x="0 5.3256008 11.325601 16.651202 20.647202 26.647202 29.647202 34.3176 39.6432 45.6432 51.6432 57.6432 60.976804 63.976804 67.3104 73.3104 76.3104 82.3104 87.636 93.636 98.9616 101.9616 107.2872 110.2872 114.2832 120.2832 123.6168 126.95039 130.9464 134.28 137.6136 146.9472 152.27281 155.27281 159.9432 165.26882 171.26882 177.26882 183.26882 186.60242 189.60242 194.92803 200.92803 206.92803 212.92803 217.59842 222.92403 226.25763 232.25763 235.77364 238.77364 241.77364 247.77364 253.77364 257.10725 263.10725 266.10725 272.10725 282.10325 285.10325 291.10325 295.09925 298.09925 301.43284 307.43284 312.75843 315.75843 321.75843 325.75444 329.088 335.088 340.4136 343.7472 349.07279 352.07279 356.7432 362.0688 368.0688 374.0688 380.0688 383.40238 388.07279 391.07279 394.40638 400.40638 403.40638 406.73997 412.73997 418.06556 421.06556 427.06556 432.39115 435.72474 439.05833 445.05833 451.05833 456.3839 459.7175">every school to have a full-time school counselor, only 3% of the private schools in the national </tspan></text>
<text fill="#0e101a" xml:space="preserve" transform="matrix(1 0 -0 1 72 201.85553)" font-size="12" font-family="TimesNewRomanPSMT"><tspan y="0" x="0 5.3256008 10.6512 16.6512 19.9848 23.318402 28.644003 31.977604 34.977605 40.977605 44.973604 47.973604 56.640005 61.965604 65.2992 71.2992 74.6328 78.6288 87.295207 95.2992 103.3032 106.3032 112.3032 117.6288 123.6288 126.6288 131.9544 137.9544 143.9544 149.9544 154.6248 159.95041 163.28401 169.28401 173.28002 177.95041 180.95041 184.28401 190.28401 193.28401 199.28401 205.28401 211.28401 217.28401 220.28401 224.28002 232.94641 239.6208 246.2952 254.9616 262.9656 271.63203 280.29844 290.96885 293.96885 296.96885 302.96885 308.96885 314.96885 320.96885 324.96485 327.96485 330.74766 338.07725 344.07725 349.40284 352.40284 356.39884 361.72444 366.39485 371.72044 377.04603 381.04203 386.3676 392.3676 397.6932 401.6892 404.6892 410.6892 416.0148 419.3484 422.68199 428.00758 434.00758 439.33317 444.00358 447.00358 450.33717 456.33717 461.66276 464.99635">capital of Delhi-NCR had counselors in 2014 (ASSOCHAM, 2014). The researcher believes that </tspan></text>
<text fill="#0e101a" xml:space="preserve" transform="matrix(1 0 -0 1 72 231.3457)" font-size="12" font-family="TimesNewRomanPSMT"><tspan y="0" x="0 3.3336006 9.333601 14.659202 17.659203 23.659203 28.984805 34.310407 40.310407 43.310407 47.306406 53.306406 57.302404 60.302404 64.97281 70.29841 76.29841 82.29841 88.29841 91.632 94.632 99.9576 105.9576 111.9576 117.9576 122.628009 127.953609 131.28722 137.28722 141.28322 145.95362 148.95362 154.95362 160.95362 164.94962 168.28322 174.28322 180.28322 183.28322 186.61682 192.61682 197.94243 200.94243 208.94643 217.61283 226.27922 230.27523 238.94162 242.93762 248.93762 254.93762 257.93763 263.93763 269.2632 275.2632 281.2632 286.5888 295.9224 299.25599 304.58158 307.58158 310.91517 315.58558 318.58558 323.91117 328.58158 333.25199 338.57759 344.57759 347.91117 351.24476 356.57035 359.90394 362.90394 368.22953 372.89994 375.89994 379.23353 385.23353 390.5591 393.5591 397.5551 402.8807 407.55113 413.55113 416.8847 420.2183 424.8887 427.8887 433.8887 437.8847 440.8847 444.2183 450.2183 453.55189 458.2223">the need for school counselors during the COVID-19 pandemic is essential as the results of this </tspan></text>
<text fill="#0e101a" xml:space="preserve" transform="matrix(1 0 -0 1 72 260.83589)" font-size="12" font-family="TimesNewRomanPSMT"><tspan y="0" x="0 4.6704 8.004001 14.004001 20.004002 26.004002 29.004002 32.337606 38.337606 44.337606 47.671209 52.996809 58.322408 61.65601 66.981609 69.981609 75.307209 81.307209 84.307209 87.6408 93.6408 98.9664 102.9624 108.288 113.6136 118.284008 123.609607 126.609607 129.9432 135.9432 138.9432 143.6136 146.9472 152.9472 158.9472 164.27281 170.27281 173.60642 178.27681 180.43921 183.43921 188.1096 191.4432 195.43921 200.76482 205.43521 210.1056 213.1056 216.43921 221.76482 227.76482 233.09043 236.42403 241.09442 244.09442 246.87723 254.20684 260.20686 265.53245 268.53245 274.53245 280.53245 286.53245 291.85804 295.85404 301.85404 311.18763 316.5132 322.5132 325.8468 328.8468 338.1804 344.1804 348.8508 352.1844 355.1844 358.51799 363.84358 369.84358 375.16917 378.16917 382.83958 386.17317 391.49876 397.49876 402.16917 405.16917 408.50276 414.50276 417.50276 422.82835 428.82835 433.49876 439.49876 443.49476 448.82035">study indicate an increase in students' stress levels. The government must take steps to ensure </tspan></text>
<text fill="#0e101a" xml:space="preserve" transform="matrix(1 0 -0 1 72 290.3262)" font-size="12" font-family="TimesNewRomanPSMT"><tspan y="0" x="0 3.3336006 9.333601 14.659202 17.992802 20.992802 26.318404 32.318407 37.644006 41.640005 47.640005 50.640005 55.310403 58.644 64.644 70.644 75.9696 81.9696 85.30319 88.30319 94.30319 99.62879 104.299198 107.299198 112.624797 117.95039 123.27599 128.6016 133.27199 137.94239 140.94239 144.27599 150.27599 153.27599 158.6016 161.6016 166.9272 172.9272 178.9272 184.9272 189.5976 194.9232 198.2568 204.2568 207.59041 210.59041 213.59041 220.2648 226.2648 230.2608 233.5944 239.5944 244.92002 248.91602 258.2496 264.2496 268.2456 273.5712 276.5712 279.5712 282.9048 288.9048 294.23039 297.23039 303.23039 307.22639 313.22639 319.22639 322.55998 327.23039 330.56398 336.56398 342.56398 345.56398 351.56398 355.55998 358.55998 363.88557 366.88557 371.55598 376.88157 382.88157 388.88157 394.88157 398.21516 401.21516 407.21516 413.21516 416.54875 419.88233 423.2159 429.2159 434.5415">that every student has access to a counselor. Furthermore, the provision of a school hotline </tspan></text>
<text fill="#0e101a" xml:space="preserve" transform="matrix(1 0 -0 1 72 319.8164)" font-size="12" font-family="TimesNewRomanPSMT"><tspan y="0" x="0 6 12 21.333601 27.333601 32.659204 36.6552 39.6552 43.6512 49.6512 53.647199 56.647199 61.317598 64.65119 70.65119 76.65119 81.97679 87.97679 91.31039 95.98079 98.98079 104.98079 110.98079 116.98079 122.30639 126.30239 129.3024 133.9728 137.3064 141.3024 146.628 151.2984 155.9688 158.9688 164.2944 170.2944 176.2944 179.2944 183.2904 188.61602 193.94162 199.94162 205.94162 211.26723 216.59284 222.59284 225.59284 230.26323 235.58884 240.25923 244.92963 248.26323 254.26323 260.26325 264.93367 267.93367 271.92967 277.92967 281.92567 284.92567 290.92567 296.92567 300.25926 303.59284 309.59284 314.91844 317.91844 323.24403 326.5776 331.9032 336.5736 341.24403 346.5696 351.24003 354.24003 363.5736 368.8992 374.8992 377.8992 383.8992 389.2248 392.55839 398.55839 401.55839 406.88398 412.88398 418.88398 422.21757 428.21757">number for students under stress and feedback sessions for online classes may help avoid </tspan></text>
<text fill="#0e101a" xml:space="preserve" transform="matrix(1 0 -0 1 72 349.3066)" font-size="12" font-family="TimesNewRomanPSMT"><tspan y="0" x="0 6 9.3336 14.004001 19.329602 24 27.333601 31.329602 37.3296 43.3296 48 51 56.3256 62.3256 68.3256 72.996 78.3216 84.3216 90.3216 95.6472 101.6472 106.9728 112.2984 116.9688 119.9688 125.9688 129.9648 132.9648 136.2984 142.2984 147.62401 151.62001 156.94562 162.27123 166.94162 172.26723 178.26723 181.26723 186.59284 191.91844 197.24405 203.24405 208.56966 217.90326 221.23686 226.56247 229.56247 235.56247 239.55847 244.88408 249.55448 254.22487 260.22486 264.22087 269.54646 272.54646 278.54646 284.54646 288.54246 291.87605 297.87605 303.87605 306.87605 310.20964 316.20964 321.53523 324.53523 327.8688 333.8688 339.1944 345.1944 351.1944 357.1944 365.8608 371.8608">disastrous consequences of increased academic pressure during the lockdown.</tspan></text>
<g id="Layer-2" data-name="Span">
<text fill="#0e101a" xml:space="preserve" transform="matrix(1 0 -0 1 72 349.3066)" font-size="12" font-family="TimesNewRomanPSMT"><tspan y="0" x="374.8711"> </tspan></text>
</g>
</g>
<g id="Layer-1" data-name="P">
<text fill="#0e101a" xml:space="preserve" transform="matrix(1 0 -0 1 108 378.7969)" font-size="12" font-family="TimesNewRomanPSMT"><tspan y="0" x="0 8.666401 12.000001 18 23.325602 29.325602 32.3256 35.6592 41.6592 46.9848 49.9848 55.3104 58.644 62.64 67.9656 73.9656 83.299198 87.9696 91.30319 96.62879 102.62879 107.95439 113.27999 117.95039 120.95039 123.95039 133.284 139.284 143.28 148.6056 151.6056 155.60161 160.92722 165.59761 170.92322 176.24883 180.24483 185.57044 191.57044 194.57044 197.90404 202.57444 205.57444 209.57044 214.89604 220.89604 226.89604 230.22965 234.22565 239.55126 245.55126 248.55126 251.88486 257.88487 260.88487 266.21046 270.88087 275.55128 280.87687 285.54728 290.21769 293.21769 296.55128 302.55128 307.87687 310.87687 314.87287 320.19847 325.52406 330.19447 333.52806 339.52806 342.86164 346.19523 349.5288 352.8624 358.8624 361.8624 367.8624 371.8584 374.8584 380.8584 386.8584 390.192 393.52558 399.52558 404.85118 407.85118">Given the circumstances, more research is required to assess the feasibility of online, </tspan></text>
<text fill="#0e101a" xml:space="preserve" transform="matrix(1 0 -0 1 72 408.2871)" font-size="12" font-family="TimesNewRomanPSMT"><tspan y="0" x="0 6 12 17.325602 23.325602 27.321602 33.3216 39.3216 45.3216 51.3216 54.3216 59.6472 65.6472 70.9728 80.3064 83.63999 89.63999 94.96559 98.29919 101.63278 107.63278 113.63278 118.303188 121.303188 124.63678 130.63678 133.63678 138.96239 144.96239 150.288 153.6216 159.6216 164.9472 168.2808 173.60642 176.60642 181.27681 184.61042 190.61042 196.61042 201.93602 207.93602 211.26963 215.94002 218.94002 222.27362 228.27362 231.27362 235.26963 241.26963 247.26963 250.60323 255.92884 258.92884 261.26643 269.93284 274.60325 277.60325 280.93684 286.93684 292.26243 295.26243 300.588 306.588 312.588 317.9136 323.2392 326.57279 329.90638 335.90638 341.90638 344.90638 349.57679 355.57679 360.2472 363.58079 368.90638 378.23997 381.23997 384.23997 387.57356 393.57356 396.57356 402.57356 406.56956 411.89515 417.22074 420.55433 423.8879 429.2135 434.5391 437.5391 440.5391 446.5391 450.5351 453.86869 459.19429 465.19429">open-book examinations to evaluate students in India. As the education system, in practice, often </tspan></text>
<text fill="#0e101a" xml:space="preserve" transform="matrix(1 0 -0 1 72 437.7773)" font-size="12" font-family="TimesNewRomanPSMT"><tspan y="0" x="0 5.3256008 11.325601 17.3256 22.651202 28.651202 33.976804 38.6472 41.6472 44.9808 50.9808 53.9808 57.9768 63.9768 67.310398 72.635997 75.635997 84.96959 90.29519 99.628787 105.628787 109.62479 112.95838 118.28398 123.60958 126.94318 130.27678 136.27678 142.27678 145.27678 154.61038 159.93599 163.26959 169.26959 175.26959 181.26959 185.93999 188.93999 194.2656 200.2656 206.2656 209.2656 214.16399 219.4896 223.4856 228.8112 238.1448 247.47841 250.81201 256.812 262.812 267.71043 270.71043 274.044 280.044 284.04 290.04 294.036 303.3696 308.6952 312.02879 315.36238 321.36238 327.36238 330.36238 333.36238 338.68797 341.68797 345.68397 351.00956 357.00956 360.34315 365.01356 370.33915 376.33915 379.33915 382.67274 387.99833 393.3239 398.6495 404.6495 407.9831 413.9831 419.9831">engages in rote memorization methods and "cramming" information, a revised teaching </tspan></text>
<text fill="#0e101a" xml:space="preserve" transform="matrix(1 0 -0 1 72 467.2676)" font-size="12" font-family="TimesNewRomanPSMT"><tspan y="0" x="0 6 11.325601 17.3256 22.651202 28.651202 34.6512 40.6512 46.6512 49.6512 53.647199 59.647199 64.97279 70.97279 75.643199 80.968799 86.968799 89.968799 95.968799 101.968799 104.968799 110.968799 116.294399 122.294399 127.619998 130.9536 136.9536 142.9536 146.2872 152.2872 158.2872 161.2872 165.9576 169.2912 175.2912 181.2912 186.6168 192.6168 195.95041 200.6208 202.7832 205.7832 211.10881 215.10482 218.43842 221.77202 225.10562 230.43123 235.75684 239.09044 242.09044 245.42404 251.42404 254.75765 260.75764 266.75764 270.09123 276.09123 282.09123 285.09123 290.4168 296.4168 299.7504 303.08399 306.41758 309.75117 313.08476 318.41035 323.08076 326.08076 331.40635 337.40635 343.40635 346.40635 352.40635 356.40235 362.40235 371.73594 377.73594 381.06953 384.4031 390.4031 396.4031 399.4031 404.7287 410.7287 416.7287 420.0623 423.39588 428.72148 434.04707 437.38066 440.71424 446.71424 452.71424">pedagogy focused on developing students' critical thinking abilities and promoting application-</tspan></text>
<text fill="#0e101a" xml:space="preserve" transform="matrix(1 0 -0 1 72 496.7578)" font-size="12" font-family="TimesNewRomanPSMT"><tspan y="0" x="0 6 11.325601 15.996001 21.321602 27.321602 30.321602 36.3216 42.3216 48.3216 56.988004 60.321607 65.6472 71.6472 77.6472 82.9728 85.9728 91.9728 97.2984 101.9688 104.9688 110.9688 116.2944 121.62 127.62 136.95362 142.27922 145.27922 148.61283 157.94643 163.94643 169.27204 173.26804 178.59365 181.92725 185.26085 191.26085 196.58646 199.58646 202.92006 208.92006 211.92006 215.25366 221.25366 226.57927 229.57927 238.91287 244.91287 250.91287 256.23847 260.23448 266.23448 269.23448 277.90089 283.90089 287.89689 291.23048 297.23048">based knowledge has become imperative in the modern world.</tspan></text>
<g id="Layer-2" data-name="Span">
<text fill="#0e101a" xml:space="preserve" transform="matrix(1 0 -0 1 72 496.7578)" font-size="12" font-family="TimesNewRomanPSMT"><tspan y="0" x="300.2402"> </tspan></text>
</g>
</g>
<g id="Layer-1" data-name="P">
<text fill="#0e101a" xml:space="preserve" transform="matrix(1 0 -0 1 108 526.248)" font-size="12" font-family="TimesNewRomanPSMT"><tspan y="0" x="0 8.004001 13.3296 18 23.325602 29.325602 32.3256 38.3256 44.3256 47.3256 50.6592 56.6592 61.9848 64.9848 68.980808 74.306407 78.97681 84.97681 88.3104 91.644 96.3144 99.3144 105.3144 109.3104 112.3104 115.644 121.644 124.97759 129.648 132.648 137.31839 140.652 146.652 152.652 157.8732 160.8732 163.8732 167.2068 173.2068 178.53241 181.53241 185.52841 190.85402 195.52442 200.85002 206.17563 210.17163 215.49724 221.49724 226.82285 230.81885 233.81885 239.14446 242.47806 247.14846 253.14846 256.14845 262.14845 268.14845 273.47404 278.14445 281.47804 284.8116 290.8116 296.8116 301.48204 304.48204 313.14845 319.14845 324.47404 327.80763 333.80763 339.1332 343.1292 346.1292 349.4628 355.4628 358.7964 362.12998 365.46357 371.46357 377.46357 380.46357 385.78916 389.12275 394.44834 399.11875 403.78916 409.11476 413.78517">Based on the results of this study, the researcher also questions whether tuition classes </tspan></text>
<text fill="#0e101a" xml:space="preserve" transform="matrix(1 0 -0 1 72 555.7383)" font-size="12" font-family="TimesNewRomanPSMT"><tspan y="0" x="0 5.3256008 11.325601 17.3256 20.3256 25.651202 31.651202 36.976804 42.302404 48.302404 51.636007 57.636007 63.636007 66.636 71.9616 77.2872 83.2872 86.6208 91.946399 95.9424 100.6128 103.6128 108.9384 112.9344 118.26 121.26 130.59362 136.59362 140.58962 145.91522 148.91522 153.58562 156.91922 162.91922 168.91922 174.24483 180.24483 183.57843 187.57444 192.90004 198.22565 204.22565 207.55925 212.88486 216.88086 222.20647 228.20647 231.20647 236.53208 242.53208 248.53208 251.53208 257.53208 263.53208 269.53208 274.85768 278.85368 283.52409 286.85768 292.18327 298.18327 304.18327 307.51686 313.51686 319.51686 322.51686 328.51686 332.51286 335.51286 338.84645 344.84645 350.17204 353.17204 357.84245 361.17604 367.17604 373.17604 378.50163 384.50163 387.8352 392.5056 394.66804 397.66804 403.66804 407.66404 413.66404 419.66404 422.99763 428.3232 437.6568 442.3272 445.3272 448.3272 452.3232 458.3232">and coaching centers are more student-centered and understanding of the students' problems. In </tspan></text>
<text fill="#0e101a" xml:space="preserve" transform="matrix(1 0 -0 1 72 585.2285)" font-size="12" font-family="TimesNewRomanPSMT"><tspan y="0" x="0 3.996 9.996 15.996 19.329602 24.655203 27.655203 30.655203 35.325605 38.659208 44.659208 50.659208 55.984807 61.984807 65.318408 69.98881 72.98881 78.31441 82.31041 87.63601 90.63601 93.969608 99.969608 105.295207 109.29121 114.616809 119.942409 124.61281 127.9464 133.94641 139.94641 143.28002 149.28002 152.28002 156.95041 162.27602 167.60163 173.60163 176.60163 181.92723 187.92723 191.92324 197.92324 201.25684 204.59044 207.92404 213.92404 219.92404 222.92404 226.25765 232.25765 235.25765 240.15604 246.15604 252.15604 261.48963 270.8232 276.8232 279.8232 284.49363 289.8192 295.8192 301.8192 307.8192 311.1528 315.8232 320.72163 323.72163 327.71763 332.38804 337.71363 343.71363 349.71363 355.71363 359.0472 363.71763 366.71763 372.0432 375.3768 378.7104 384.7104 393.3768 396.7104 402.7104 408.7104 411.7104 416.3808 419.7144 425.7144 431.7144 437.03999 443.03999 446.37358 451.04399 454.04399 457.37757 463.37757">India, students are increasingly seen enrolling in "dummy schools" (schools allowing students to </tspan></text>
<text fill="#0e101a" xml:space="preserve" transform="matrix(1 0 -0 1 72 614.7188)" font-size="12" font-family="TimesNewRomanPSMT"><tspan y="0" x="0 5.3256008 8.659201 11.992801 17.318402 23.318402 29.318402 32.3184 35.652006 41.652006 44.985609 50.985609 54.981607 58.315206 63.640806 66.9744 71.644809 74.644809 79.970409 85.970409 91.970409 94.970409 100.296009 106.296009 111.621608 116.947208 122.947208 126.2808 132.28079 138.28079 141.28079 147.28079 153.28079 157.2768 160.6104 166.6104 172.6104 175.6104 180.28079 185.6064 191.6064 197.6064 203.6064 206.94 209.94 215.94 221.94 227.94 231.936 236.6064 239.6064 242.94 248.94 251.94 255.936 261.936 267.2616 273.2616 277.932 280.932 286.932 292.932 295.932 301.932 307.932 311.2656 317.2656 322.5912 326.5872 331.2576 334.5912 337.92478 343.92478 346.92478 352.25038 358.25038 361.58396 365.57997 370.90556 376.90556 382.23115 387.55674 390.55674 395.88233 401.88233 407.20793 416.5415">attend tutorials and coaching during school hours to focus on university entrance exam </tspan></text>
<text fill="#0e101a" xml:space="preserve" transform="matrix(1 0 -0 1 72 644.209)" font-size="12" font-family="TimesNewRomanPSMT"><tspan y="0" x="0 6 9.996 15.321601 21.321602 26.647204 30.643204 35.968805 39.302404 42.636007 48.636007 54.636007 59.306406 63.302404 66.3024 69.635997 75.635997 78.635997 83.3064 86.63999 92.63999 98.63999 104.63999 107.63999 110.97359 116.97359 119.97359 125.29919 128.6328 131.9664 135.3 140.62561 143.62561 148.95122 154.95122 160.27683 165.60243 171.60243 174.93604 180.93604 186.93604 189.93604 195.26165 200.58725 206.58725 209.92086 215.24646 219.24246 223.91286 226.91286 230.24646 234.24246 239.56807 242.90167 248.90167 252.23528 258.2353 264.2353 267.2353 271.2313 277.2313 281.2273 284.2273 290.2273 296.2273 299.56089 305.56089 310.88648 314.88249 319.5529 322.88648 326.22007 332.22007 335.22007 340.54566 346.54566 349.87925 353.87525 359.20085 365.20085 370.52644 375.85203 378.85203 384.1776 390.1776 395.5032 404.8368 408.17039 414.17039 419.49598 422.82957 426.16316 432.16316 438.16316 442.83357">preparations) to study in elite coaching centers training for university entrance examinations </tspan></text>
<text fill="#0e101a" xml:space="preserve" transform="matrix(1 0 -0 1 72 673.6992)" font-size="12" font-family="TimesNewRomanPSMT"><tspan y="0" x="0 3.996 10.670402 16.670403 21.996005 27.996005 33.996004 37.3296 40.663206 46.663206 51.988805 54.988805 57.988805 63.988805 69.9888 75.9888 81.9888 85.9848 88.9848 91.7676 99.0972 105.0972 108.43079 113.1012 116.1012 125.43479 130.76039 136.76039 139.76039 143.094 149.094 155.094 158.4276 163.7532 169.07881 172.41242 177.73802 180.73802 186.73802 190.07163 196.07163 202.07163 207.39723 211.39324 214.39324 219.71884 225.71884 231.71884 237.04445 242.37006 245.70366 249.03726 255.03726 261.03727 266.36286 269.69645 272.69645 277.36686 280.70045 286.02604 292.02604 298.02604 303.35163 307.34764 313.34764 318.01805 321.01805 326.34364 332.34364 338.34364 341.34364 347.34364 352.66923 356.0028 359.3364 364.662 368.658 371.658 375.654 380.97959 386.30519 389.63877 392.97236 396.30595 399.63954 402.9731 408.2987 412.96913 415.96913 421.96913 425.96513 431.96513 437.96513 441.2987 447.2987 452.6243 458.6243">(Shandilya, 2019). This may indicate higher educational standards and better facilities provided </tspan></text>
<text fill="#0e101a" xml:space="preserve" transform="matrix(1 0 -0 1 72 703.18948)" font-size="12" font-family="TimesNewRomanPSMT"><tspan y="0" x="0 6 12 15 19.670399 25.670399 30.996 36.996004 39.996004 45.3216 51.3216 56.6472 61.9728 67.9728 71.3064 77.3064 83.3064 86.3064 89.63999 95.63999 100.310398 103.64399 106.977588 110.31118 116.31118 119.644779 122.97837 128.97837 134.97837 139.64876 142.64876 147.97437 152.64476 155.64476 160.97037 166.97037 176.30397 182.30397 187.62958 191.62558 196.95119 202.95119 205.95119 209.28479 215.28479 218.28479 221.6184 225.6144 230.94 236.94 240.2736 243.60721 246.94081 252.94081 258.9408 264.2664 267.59999 270.59999 275.2704 280.59599 286.59599 292.59599 298.59599 301.92958 306.59999 309.59999 312.59999 323.2704 329.2704 333.2664 338.59199 341.59199 345.58799 350.91358 355.58399 360.90959 366.23518 370.23118 375.55677 381.55677 384.55677 387.89036 392.56077 395.56077 401.56077 406.88636 412.21195 418.21195 423.53755 429.53755 432.53755 435.87113 441.87113">by such coaching institutions as compared to traditional schools. More research is needed to </tspan></text>
</g>
</g>
</g>
</svg>
