<?xml version="1.0" encoding="UTF-8" standalone="no"?>
<!DOCTYPE svg PUBLIC "-//W3C//DTD SVG 1.1//EN" "http://www.w3.org/Graphics/SVG/1.1/DTD/svg11.dtd">
<svg xmlns="http://www.w3.org/2000/svg" xmlns:xlink="http://www.w3.org/1999/xlink" version="1.1" width="612pt" height="792pt" viewBox="0 0 612 792">
<g enable-background="new">
<clipPath id="cp97">
<path transform="matrix(1,0,0,-1,0,792)" d="M 0 0 L 612 0 L 612 792 L 0 792 Z "/>
</clipPath>
<g clip-path="url(#cp97)">
<path transform="matrix(1,0,0,-1,0,792)" d="M 0 792 L 612 792 L 612 0 L 0 0 Z " fill="#ffffff"/>
<g id="Layer-1" data-name="P">
</g>
<g id="Layer-1" data-name="P">
</g>
<clipPath id="cp98">
<path transform="matrix(1,0,0,-1,0,792)" d="M 68.67773 68.32422 L 543.3222 68.32422 L 543.3222 721 L 68.67773 721 Z "/>
</clipPath>
<g clip-path="url(#cp98)">
<text xml:space="preserve" transform="matrix(1 0 -0 1 72 211.38483)" font-size="12" font-family="TimesNewRomanPS" font-weight="bold"><tspan y="0" x="0 6.9024007 12.902401 19.576802 22.910403 28.236004 31.236004">Table 4</tspan></text>
<g id="Layer-2" data-name="Span">
<text xml:space="preserve" transform="matrix(1 0 -0 1 72 211.38483)" font-size="12" font-family="TimesNewRomanPS" font-weight="bold"><tspan y="0" x="37.23633"> </tspan></text>
</g>
</g>
<g id="Layer-1" data-name="P">
<text xml:space="preserve" transform="matrix(1 0 -0 1 72 240.875)" font-size="12" font-family="TimesNewRomanPSMT"><tspan y="0" x="0"> </tspan></text>
<text xml:space="preserve" transform="matrix(1 0 -0 1 72 240.875)" font-size="12" font-family="TimesNewRomanPS" font-style="italic"><tspan y="0" x="3 9.674401 13.008001 18.333603 23.659205 28.329606 31.663207 34.663209 40.663209 45.988809 51.988809 55.322408 60.648008 63.430807 70.7604 76.7604 82.7604 86.093997 91.41959 96.09 99.42359">Likert Scale Analysis</tspan></text>
<g id="Layer-2" data-name="Span">
<text xml:space="preserve" transform="matrix(1 0 -0 1 72 240.875)" font-size="12" font-family="TimesNewRomanPSMT"><tspan y="0" x="104.0977"> </tspan></text>
</g>
</g>
<g id="Layer-1" data-name="P">
</g>
<g id="Layer-1" data-name="P">
<text xml:space="preserve" transform="matrix(1 0 -0 1 72 407.8555)" font-size="12" font-family="TimesNewRomanPS" font-style="italic"><tspan y="0" x="0 8.004001 14.004001 17.3376 22.663203 25.663203">Note. </tspan></text>
<text xml:space="preserve" transform="matrix(1 0 -0 1 72 407.8555)" font-size="12" font-family="TimesNewRomanPSMT"><tspan y="0" x="28.66406 35.99366 41.99366 47.31926 50.31926 56.31926 60.315259 66.31526 72.31526 75.64886 81.64886 84.98245 87.98245 95.31205 98.645648 104.645648 109.971248 113.96725 117.30084 120.30084 124.971248 130.29685 135.62245 138.95606 144.28166 147.28166 151.27767 156.60327 162.60327 166.59928 171.92488 176.59528 181.92089 187.92089 191.25449 196.5801 202.5801 205.5801 208.9137 214.9137 220.2393 223.2393 227.2353 233.2353 236.56891 239.90251 245.90251 254.56891 257.9025 263.9025 269.9025 272.9025 278.9025 284.2281 288.2241 291.55769 296.88328 302.88328 306.21687 311.54246 316.21287 319.54646 322.54646 327.44486 336.11128 341.43687 346.76246 350.75846 356.08406 361.40965 366.08006 371.40565 377.40565 380.40565 387.08006 390.41365 396.41365 402.41365 405.74723 409.74324 413.0768 418.4024 423.728 429.728 433.06159 436.39518 442.39518 447.29359 451.28959 457.28959 461.28559 464.28559">The 5-point Likert scale represented the following variables: "Decreased Significantly"(1), </tspan></text>
<text xml:space="preserve" transform="matrix(1 0 -0 1 72 437.3457)" font-size="12" font-family="TimesNewRomanPSMT"><tspan y="0" x="0 4.8984005 13.564801 18.890402 24.216004 28.212004 33.537607 38.863206 43.533605 48.859205 54.859205 57.859205 64.53361 67.8672 71.2008 77.2008 83.2008 86.53439 89.86799 95.86799 100.766399 104.7624 110.7624 114.7584 117.7584 120.7584 125.65681 134.3232 140.3232 143.3232 151.3272 157.3272 162.6528 168.6528 174.6528 179.97841 184.8768 188.8728 194.8728 198.8688 201.8688 204.8688 209.7672 213.7632 219.7632 225.0888 229.08481 234.41042 239.73603 244.40642 249.73203 255.73203 258.73204 265.40644 268.74003 272.0736 278.0736 284.0736 287.4072 290.74079 296.74079 301.6392 305.6352 311.6352 315.6312 318.6312 321.6312 326.9568 332.9568 338.9568 341.9568 346.8552 350.8512 356.8512 362.1768 366.1728 371.49839 376.82398 381.4944 386.81999 392.81999">"Decreased Slightly"(2), "No Change"(3), "Increased Slightly"(4), and "Increased </tspan></text>
<text xml:space="preserve" transform="matrix(1 0 -0 1 72 466.8359)" font-size="12" font-family="TimesNewRomanPSMT"><tspan y="0" x="0 6.674401 10.008 16.008 22.008 25.3416 29.3376 32.6712 37.9968 43.3224 49.3224 52.656003 55.989606 61.989606 66.88801 70.88401 76.88401 80.88001 83.88001 86.66281 93.99241 99.99241 105.31801 109.98841 115.31401 118.31401 124.31401 129.63962 132.97322 138.97322 144.29883 148.96923 151.96923 157.29483 161.29084 166.61644 169.61644 175.61644 181.61644 184.95005 187.95005 191.94605 197.27165 203.27165 207.26766 212.59326 217.26366 222.58927 228.58927 231.92287 237.24848 240.58208 243.91568 249.91568 255.24129 258.24128 264.24128 268.23728 271.23728 274.57087 280.57087 285.89646 288.89646 295.57087 298.90446 304.23005 310.23005 316.23005 321.55564 325.55165 331.55165 334.55165 343.21806 348.54365 354.54365 357.87724 363.20283 366.5364 369.87 375.87 381.87">Significantly"(5). These values are not representative of the Standard Deviation.</tspan></text>
<g id="Layer-2" data-name="Span">
<text xml:space="preserve" transform="matrix(1 0 -0 1 72 466.8359)" font-size="12" font-family="TimesNewRomanPS" font-style="italic"><tspan y="0" x="384.8848"> </tspan></text>
</g>
</g>
<g id="Layer-1" data-name="P">
<text fill="#0e101a" xml:space="preserve" transform="matrix(1 0 -0 1 72 525.8164)" font-size="12" font-family="TimesNewRomanPS" font-weight="bold" font-style="italic"><tspan y="0" x="0 6.674401 10.008 14.678401 20.004002 24.6744 29.344799 32.3448 36.340799 41.011198 47.011198 56.3448 59.3448 66.0192 71.3448 78.0192 84.0192 90.0192">Stress from School</tspan></text>
<g id="Layer-2" data-name="Span">
<text fill="#0e101a" xml:space="preserve" transform="matrix(1 0 -0 1 72 525.8164)" font-size="12" font-family="TimesNewRomanPSMT"><tspan y="0" x="93.35156"> </tspan></text>
</g>
</g>
<g id="Layer-1" data-name="P">
<text fill="#0e101a" xml:space="preserve" transform="matrix(1 0 -0 1 108 555.3066)" font-size="12" font-family="TimesNewRomanPSMT"><tspan y="0" x="0 6 12 15 21 30.996 33.996004 39.996004 43.992 46.992 50.325605 56.325605 61.651205 64.6512 68.6472 73.9728 78.6432 84.6432 90.6432 96.6432 102.6432 107.9688 113.9688 117.3024 121.9728 124.9728 130.2984 136.2984 142.2984 147.62401 151.62001 154.95362 160.27922 166.27922 171.60483 176.93044 182.93044 185.93044 190.60083 193.93444 197.93044 203.25605 207.92644 212.59683 215.59683 219.59284 223.58884 229.58884 238.92244 241.92244 246.59284 251.91844 257.91847 263.91847 269.91847 273.25205 276.25205 279.25205 288.58564 293.91123 299.91123 303.2448 309.2448 315.2448 318.2448 321.5784 324.912 327.912 331.24559 337.24559 342.57118 345.57118 354.90476 360.90476 365.57518 368.90876 371.90876 377.23435 383.23435 392.56794 401.90153 407.90153 413.90153">71.4% of the respondents experienced stress from school, making it the most common </tspan></text>
<text fill="#0e101a" xml:space="preserve" transform="matrix(1 0 -0 1 72 584.7969)" font-size="12" font-family="TimesNewRomanPSMT"><tspan y="0" x="0 4.6704 8.004001 12.000001 17.325602 21.996003 26.6664 32.6664 36.6624 39.6624 45.6624 51.6624 55.658399 58.992 64.992008 70.992008 73.992008 77.3256 83.3256 88.6512 91.6512 99.6552 108.3216 116.98801 120.98401 129.6504 133.64641 139.64641 145.64641 148.64641 151.98001 157.98001 163.30562 169.30562 175.30562 181.30562 189.97202 195.97202 198.97202 202.96802 209.46002 214.78563 220.78563 224.11923 229.44484 232.44484 238.44484 242.44084 245.44084 248.44084 254.44084 260.44087 263.44087 269.44087 279.43687 282.43687 286.43287 292.43287 298.43287 302.42887 305.42887 311.42887 315.42488 318.42488 321.75846 327.75846 333.08406 336.08406 340.08006 345.40565 350.07606 356.07606 362.07606 368.07606 374.07606 379.40165 385.40165 388.73524 393.40565 396.40565 400.40165 405.72724 409.06083 412.3944 415.3944 418.728 424.728 428.06159 432.732 435.732 440.4024 443.736 447.732 453.0576 457.728 462.3984">stressor during the COVID-19 lockdown (Table 5). 38.6% (85) of the respondents felt this stress </tspan></text>
<text fill="#0e101a" xml:space="preserve" transform="matrix(1 0 -0 1 72 614.2871)" font-size="12" font-family="TimesNewRomanPSMT"><tspan y="0" x="0 5.3256008 9.104401 13.100401 18.426003 23.751605 27.085206 32.410806 38.410806 41.410806 44.744405 50.744405 56.070005 65.4036 68.4036 74.4036 79.7292 85.7292 91.0548 94.3884 97.72199 103.72199 109.04759 112.38119 118.38119 121.38119 124.71478 130.71479 133.71479 137.04839 142.374 146.37 155.7036 160.374 163.374 169.374 173.37 176.37 185.7036 191.0292 197.0292 200.36281 205.68842 209.02202 212.02202 218.02202 223.34763 228.67324 232.00684 235.34044 241.34044 244.34044 249.66605 255.66605 261.66606 264.66606 273.33247 278.65806 281.99165 285.32524 289.32124 295.32124 300.64683 303.9804 309.9804 315.9804 318.9804 321.7632 329.0928 335.0928 340.4184 343.4184 349.4184 353.4144 359.4144 365.4144 368.748 374.748 378.08158 381.08158 388.41117 391.74476 397.74476 403.07035 407.06636 410.39994 413.39994 418.07035 423.39595 428.72154 432.0551 437.3807">affected them negatively in terms of mental health and well-being. The 5-point Likert scale </tspan></text>
<text fill="#0e101a" xml:space="preserve" transform="matrix(1 0 -0 1 72 643.7773)" font-size="12" font-family="TimesNewRomanPSMT"><tspan y="0" x="0 5.3256008 11.325601 16.651202 19.984803 25.984803 30.655201 33.988805 38.659204 41.659204 45.6552 52.1472 57.4728 63.4728 66.8064 72.131999 75.131999 81.131999 85.128 88.128 92.124 97.4496 103.4496 108.7752 114.1008 117.434398 122.1048 125.1048 130.4304 136.4304 139.4304 144.75601 150.75601 154.08962 160.08962 165.41522 171.41522 174.74883 177.74883 181.08243 187.08243 192.40804 196.40404 201.72965 207.05525 211.72565 217.05126 220.05126 223.38486 229.38486 232.38486 237.71047 243.03607 248.36168 254.36168 259.68727 269.02085 272.35444 277.68003 280.68003 285.35044 288.68403 292.68003 298.0056 302.67604 307.34645 310.34645 314.34245 318.33845 324.33845 333.67204 336.67204 341.34245 346.66804 352.66804 358.66804 364.66804 368.00163 371.00163 377.00163 383.00163 388.3272 391.3272 394.6608 400.6608 403.6608 406.9944 412.9944 418.31999">analysis (Table 6) reveals an evident increase in academic stress from school due to the </tspan></text>
<text fill="#0e101a" xml:space="preserve" transform="matrix(1 0 -0 1 72 673.2676)" font-size="12" font-family="TimesNewRomanPSMT"><tspan y="0" x="0 3.3336006 9.333601 14.659202 20.659203 26.659203 32.659204 41.325605 47.325605 50.325605 53.325605 60.655206 66.655208 71.980808 77.306407 81.97681 86.64721 89.980808 95.980808 101.306407 104.306407 110.306407 116.306407 125.64 130.9656 139.632 145.632 149.628 155.628 158.628 162.62401 166.62001 172.62001 181.95362 184.95362 189.62401 194.94962 200.94962 206.94962 212.94962 216.28322 219.28322 227.94962 233.27523 237.94562 240.94562 244.94162 250.94162 256.94163 262.94163 268.94163 271.94163 275.2752 281.2752 284.2752 290.2752 295.6008 298.6008 301.9344 307.9344 313.25999 316.25999 325.59358 331.59358 336.26399 339.59757 342.59757 346.59358 351.91917 357.24476 363.24476 367.24076 371.23677 376.56236 382.56236 385.89595 388.89595 393.56636 396.89994 400.89595 406.22154 410.89195 415.56236 421.56236 425.07835 428.07835">lockdown. Excessive homework from school was found to be the most recurrent stressor, </tspan></text>
<text fill="#0e101a" xml:space="preserve" transform="matrix(1 0 -0 1 72 702.7578)" font-size="12" font-family="TimesNewRomanPSMT"><tspan y="0" x="0 3.996 9.996 13.3296 16.6632 22.6632 31.329602 36.6552 42.6552 45.6552 51.6552 57.6552 60.6552 64.6512 69.9768 75.3024 79.2984 82.2984 87.624 93.624 99.624 102.624 108.624 114.624 119.9496 125.2752 129.2712 132.6048 137.9304 141.264 147.264 150.59761 156.59761 159.59761 165.59761 169.59362 172.59362 175.92722 181.92722 187.25283 190.25283 195.57843 200.90404 206.22965 212.22965 217.55525 226.88886 230.22246 235.54807 238.54807 242.54407 248.54407 251.87767 257.8777 261.8737 267.19929 270.19929 272.9821 284.30769 290.30769 293.64128 296.97486 302.30046 305.30046 311.30046 317.30046 320.30046 324.29646 329.62205 334.29246 340.29246 346.29246 352.29246 358.29246 363.61805 369.61805 372.95164 377.62205 380.62205 384.61805 389.94364 395.94364 401.26924 406.59483 409.9284 415.254 421.254">followed by fear and uncertainty of the academic future. While 16 respondents revealed </tspan></text>
</g>
<g id="Layer-1" data-name="P">
<g id="Layer-2" data-name="P">
</g>
<clipPath id="cp99">
<path transform="matrix(1,0,0,-1,0,792)" d="M 76.4 620.5 L 510.4 620.5 L 510.4 720.5 L 76.4 720.5 Z "/>
</clipPath>
<g clip-path="url(#cp99)">
<path transform="matrix(1,0,0,-1,0,792)" d="M 77.4 695.5 L 325.75 695.5 L 325.75 671.5 L 77.4 671.5 Z " fill="#ffffff"/>
<path transform="matrix(1,0,0,-1,0,792)" d="M 325.75 695.5 L 404.25 695.5 L 404.25 671.5 L 325.75 671.5 Z " fill="#ffffff"/>
<path transform="matrix(1,0,0,-1,0,792)" d="M 404.25 695.5 L 508.4 695.5 L 508.4 671.5 L 404.25 671.5 Z " fill="#ffffff"/>
<path transform="matrix(1,0,0,-1,0,792)" d="M 77.4 671.5 L 325.75 671.5 L 325.75 647.5 L 77.4 647.5 Z " fill="#ffffff"/>
<path transform="matrix(1,0,0,-1,0,792)" d="M 325.75 671.5 L 404.25 671.5 L 404.25 647.5 L 325.75 647.5 Z " fill="#ffffff"/>
<path transform="matrix(1,0,0,-1,0,792)" d="M 404.25 671.5 L 508.4 671.5 L 508.4 647.5 L 404.25 647.5 Z " fill="#ffffff"/>
<path transform="matrix(1,0,0,-1,0,792)" d="M 77.4 647.5 L 325.75 647.5 L 325.75 623.5 L 77.4 623.5 Z " fill="#ffffff"/>
<path transform="matrix(1,0,0,-1,0,792)" d="M 325.75 647.5 L 404.25 647.5 L 404.25 623.5 L 325.75 623.5 Z " fill="#ffffff"/>
<path transform="matrix(1,0,0,-1,0,792)" d="M 404.25 647.5 L 508.4 647.5 L 508.4 623.5 L 404.25 623.5 Z " fill="#ffffff"/>
<g id="Layer-3" data-name="P">
<g id="Layer-4" data-name="P">
<g id="Layer-5" data-name="P">
<g id="Layer-6" data-name="P">
</g>
<clipPath id="cp100">
<path transform="matrix(1,0,0,-1,0,792)" d="M 77.4 671.5 L 325.75 671.5 L 325.75 695.5 L 77.4 695.5 Z "/>
</clipPath>
<g clip-path="url(#cp100)">
<text fill="#010204" xml:space="preserve" transform="matrix(1 0 -0 1 84.4 113.265079)" font-size="12.5" font-family="TimesNewRomanPSMT"><tspan y="0" x="0 8.337501 14.587501 20.837502 26.385003 30.547503 33.6725 38.5375 42.01 46.172498 51.719999 56.584997">Cyber stress</tspan></text>
</g>
</g>
<g id="Layer-5" data-name="P">
<g id="Layer-6" data-name="P">
</g>
<clipPath id="cp101">
<path transform="matrix(1,0,0,-1,0,792)" d="M 325.75 671.5 L 404.25 671.5 L 404.25 695.5 L 325.75 695.5 Z "/>
</clipPath>
<g clip-path="url(#cp101)">
<text fill="#010204" xml:space="preserve" transform="matrix(1 0 -0 1 363.075 113.265079)" font-size="12.5" font-family="TimesNewRomanPSMT"><tspan y="0" x="0">9</tspan></text>
</g>
</g>
<g id="Layer-5" data-name="P">
<g id="Layer-6" data-name="P">
</g>
<clipPath id="cp102">
<path transform="matrix(1,0,0,-1,0,792)" d="M 404.25 671.5 L 508.4 671.5 L 508.4 695.5 L 404.25 695.5 Z "/>
</clipPath>
<g clip-path="url(#cp102)">
<text fill="#010204" xml:space="preserve" transform="matrix(1 0 -0 1 444.5062 113.265079)" font-size="12.5" font-family="TimesNewRomanPSMT"><tspan y="0" x="0 6.25 9.375 15.625">4.1%</tspan></text>
</g>
</g>
</g>
<g id="Layer-4" data-name="P">
<g id="Layer-5" data-name="P">
<g id="Layer-6" data-name="P">
</g>
<clipPath id="cp103">
<path transform="matrix(1,0,0,-1,0,792)" d="M 77.4 647.5 L 325.75 647.5 L 325.75 671.5 L 77.4 671.5 Z "/>
</clipPath>
<g clip-path="url(#cp103)">
<text fill="#010204" xml:space="preserve" transform="matrix(1 0 -0 1 84.4 137.26508)" font-size="12.5" font-family="TimesNewRomanPSMT"><tspan y="0" x="0 4.1625 10.4125 15.960002 22.210003 25.682503 29.155003 32.627508 36.10001 42.35001 45.47501 48.947515 55.197515 58.322515 64.57251 70.12001 73.59251 79.84251 82.96751 89.21751 94.76501 100.31251 104.475009 107.600009 113.14751 118.69501 124.24251 129.79001 136.04001 139.51251 145.06002 151.31002 156.85752">Inability to gain peer acceptance</tspan></text>
</g>
</g>
<g id="Layer-5" data-name="P">
<g id="Layer-6" data-name="P">
</g>
<clipPath id="cp104">
<path transform="matrix(1,0,0,-1,0,792)" d="M 325.75 647.5 L 404.25 647.5 L 404.25 671.5 L 325.75 671.5 Z "/>
</clipPath>
<g clip-path="url(#cp104)">
<text fill="#010204" xml:space="preserve" transform="matrix(1 0 -0 1 363.075 137.26508)" font-size="12.5" font-family="TimesNewRomanPSMT"><tspan y="0" x="0">8</tspan></text>
</g>
</g>
<g id="Layer-5" data-name="P">
<g id="Layer-6" data-name="P">
</g>
<clipPath id="cp105">
<path transform="matrix(1,0,0,-1,0,792)" d="M 404.25 647.5 L 508.4 647.5 L 508.4 671.5 L 404.25 671.5 Z "/>
</clipPath>
<g clip-path="url(#cp105)">
<text fill="#010204" xml:space="preserve" transform="matrix(1 0 -0 1 444.5062 137.26508)" font-size="12.5" font-family="TimesNewRomanPSMT"><tspan y="0" x="0 6.25 9.375 15.625">3.6%</tspan></text>
</g>
</g>
</g>
<g id="Layer-4" data-name="P">
<g id="Layer-5" data-name="P">
<g id="Layer-6" data-name="P">
</g>
<clipPath id="cp106">
<path transform="matrix(1,0,0,-1,0,792)" d="M 77.4 624 L 325.75 624 L 325.75 647.5 L 77.4 647.5 Z "/>
</clipPath>
<g clip-path="url(#cp106)">
<text fill="#010204" xml:space="preserve" transform="matrix(1 0 -0 1 84.4 161.26508)" font-size="12.5" font-family="TimesNewRomanPSMT"><tspan y="0" x="0 8.337501 14.587501 20.837502 26.385003 30.547503 36.7975 43.0475 46.52 49.992506 56.242506 59.715009 65.96501">Cyberbullying</tspan></text>
</g>
</g>
<g id="Layer-5" data-name="P">
<g id="Layer-6" data-name="P">
</g>
<clipPath id="cp107">
<path transform="matrix(1,0,0,-1,0,792)" d="M 325.75 624 L 404.25 624 L 404.25 647.5 L 325.75 647.5 Z "/>
</clipPath>
<g clip-path="url(#cp107)">
<text fill="#010204" xml:space="preserve" transform="matrix(1 0 -0 1 363.075 161.26508)" font-size="12.5" font-family="TimesNewRomanPSMT"><tspan y="0" x="0">1</tspan></text>
</g>
</g>
<g id="Layer-5" data-name="P">
<g id="Layer-6" data-name="P">
</g>
<clipPath id="cp108">
<path transform="matrix(1,0,0,-1,0,792)" d="M 404.25 624 L 508.4 624 L 508.4 647.5 L 404.25 647.5 Z "/>
</clipPath>
<g clip-path="url(#cp108)">
<text fill="#010204" xml:space="preserve" transform="matrix(1 0 -0 1 444.5062 161.26508)" font-size="12.5" font-family="TimesNewRomanPSMT"><tspan y="0" x="0 6.25 9.375 15.625">0.5%</tspan></text>
</g>
</g>
</g>
</g>
<clipPath id="cp109">
<path transform="matrix(1,0,0,-1,0,792)" d="M 76.4 620.5 L 510.4 620.5 L 510.4 720.5 L 76.4 720.5 Z "/>
</clipPath>
<g clip-path="url(#cp109)">
<path transform="matrix(1,0,0,1,76.4,71.5)" stroke-width="1" stroke-linecap="butt" stroke-miterlimit="4" stroke-linejoin="miter" fill="none" stroke="#000000" d="M 1 97 L 432 97 "/>
</g>
</g>
<g id="Layer-2" data-name="P">
<path transform="matrix(1,0,0,-1,0,792)" d="M 77.4 719.5 L 325.75 719.5 L 325.75 695.5 L 77.4 695.5 Z " fill="#ffffff"/>
<path transform="matrix(1,0,0,-1,0,792)" d="M 325.75 719.5 L 404.25 719.5 L 404.25 695.5 L 325.75 695.5 Z " fill="#ffffff"/>
<path transform="matrix(1,0,0,-1,0,792)" d="M 404.25 719.5 L 508.4 719.5 L 508.4 695.5 L 404.25 695.5 Z " fill="#ffffff"/>
<g id="Layer-3" data-name="P">
<g id="Layer-4" data-name="P">
<g id="Layer-5" data-name="P">
<g id="Layer-6" data-name="P">
</g>
<clipPath id="cp110">
<path transform="matrix(1,0,0,-1,0,792)" d="M 77.4 696 L 325.75 696 L 325.75 719 L 77.4 719 Z "/>
</clipPath>
<g clip-path="url(#cp110)">
<text fill="#010204" xml:space="preserve" transform="matrix(1 0 -0 1 182.6365 88.765079)" font-size="12.5" font-family="TimesNewRomanPSMT"><tspan y="0" x="0 6.952501 10.425002 14.587502 20.135003 25.000002 29.865004 36.115007">Stressor</tspan></text>
</g>
</g>
<g id="Layer-5" data-name="P">
<g id="Layer-6" data-name="P">
</g>
<clipPath id="cp111">
<path transform="matrix(1,0,0,-1,0,792)" d="M 325.75 696 L 404.25 696 L 404.25 719 L 325.75 719 Z "/>
</clipPath>
<g clip-path="url(#cp111)">
<text fill="#010204" xml:space="preserve" transform="matrix(1 0 -0 1 339.8206 88.765079)" font-size="12.5" font-family="TimesNewRomanPSMT"><tspan y="0" x="0 6.952501 11.115001 16.6625 22.9125 29.1625 34.710004 40.960004 46.507505">Frequency</tspan></text>
</g>
</g>
<g id="Layer-5" data-name="P">
<g id="Layer-6" data-name="P">
</g>
<clipPath id="cp112">
<path transform="matrix(1,0,0,-1,0,792)" d="M 404.25 696 L 508.4 696 L 508.4 719 L 404.25 719 Z "/>
</clipPath>
<g clip-path="url(#cp112)">
<text fill="#010204" xml:space="preserve" transform="matrix(1 0 -0 1 438.7842 88.765079)" font-size="12.5" font-family="TimesNewRomanPSMT"><tspan y="0" x="0 6.952501 12.500002 16.662503 22.210003 27.757504 34.007505">Percent</tspan></text>
</g>
</g>
</g>
</g>
<clipPath id="cp113">
<path transform="matrix(1,0,0,-1,0,792)" d="M 76.4 620.5 L 510.4 620.5 L 510.4 720.5 L 76.4 720.5 Z "/>
</clipPath>
<g clip-path="url(#cp113)">
<path transform="matrix(1,0,0,1,76.4,71.5)" stroke-width="1" stroke-linecap="butt" stroke-miterlimit="4" stroke-linejoin="miter" fill="none" stroke="#000000" d="M 1 25 L 432 25 "/>
<path transform="matrix(1,0,0,1,76.4,71.5)" stroke-width="1" stroke-linecap="butt" stroke-miterlimit="4" stroke-linejoin="miter" fill="none" stroke="#000000" d="M 1 1 L 432 1 "/>
</g>
</g>
</g>
<g id="Layer-1" data-name="P">
</g>
<clipPath id="cp114">
<path transform="matrix(1,0,0,-1,0,792)" d="M 71 410.0293 L 504 410.0293 L 504 534.0293 L 71 534.0293 Z "/>
</clipPath>
<g clip-path="url(#cp114)">
<path transform="matrix(1,0,0,-1,0,792)" d="M 72 532.0293 L 375.65 532.0293 L 375.65 508.0293 L 72 508.0293 Z " fill="#ffffff"/>
<path transform="matrix(1,0,0,-1,0,792)" d="M 375.65 532.0293 L 503 532.0293 L 503 508.0293 L 375.65 508.0293 Z " fill="#ffffff"/>
<path transform="matrix(1,0,0,-1,0,792)" d="M 72 508.0293 L 375.65 508.0293 L 375.65 484.0293 L 72 484.0293 Z " fill="#ffffff"/>
<path transform="matrix(1,0,0,-1,0,792)" d="M 375.65 508.0293 L 503 508.0293 L 503 484.0293 L 375.65 484.0293 Z " fill="#ffffff"/>
<path transform="matrix(1,0,0,-1,0,792)" d="M 72 484.0293 L 375.65 484.0293 L 375.65 460.0293 L 72 460.0293 Z " fill="#ffffff"/>
<path transform="matrix(1,0,0,-1,0,792)" d="M 375.65 484.0293 L 503 484.0293 L 503 460.0293 L 375.65 460.0293 Z " fill="#ffffff"/>
<path transform="matrix(1,0,0,-1,0,792)" d="M 72 460.0293 L 375.65 460.0293 L 375.65 436.0293 L 72 436.0293 Z " fill="#ffffff"/>
<path transform="matrix(1,0,0,-1,0,792)" d="M 375.65 460.0293 L 503 460.0293 L 503 436.0293 L 375.65 436.0293 Z " fill="#ffffff"/>
<path transform="matrix(1,0,0,-1,0,792)" d="M 72 436.0293 L 375.65 436.0293 L 375.65 412.0293 L 72 412.0293 Z " fill="#ffffff"/>
<path transform="matrix(1,0,0,-1,0,792)" d="M 375.65 436.0293 L 503 436.0293 L 503 412.0293 L 375.65 412.0293 Z " fill="#ffffff"/>
<g id="Layer-2" data-name="P">
<g id="Layer-3" data-name="P">
<g id="Layer-4" data-name="P">
<g id="Layer-5" data-name="P">
</g>
<clipPath id="cp115">
<path transform="matrix(1,0,0,-1,0,792)" d="M 72 508.5293 L 375.65 508.5293 L 375.65 531.5293 L 72 531.5293 Z "/>
</clipPath>
<g clip-path="url(#cp115)">
<text fill="#010204" xml:space="preserve" transform="matrix(1 0 -0 1 203.5071 276.23579)" font-size="12.5" font-family="TimesNewRomanPSMT"><tspan y="0" x="0 11.115001 16.6625 22.210001 27.075003 33.325006 37.487504">Measure</tspan></text>
</g>
</g>
<g id="Layer-4" data-name="P">
<g id="Layer-5" data-name="P">
</g>
<clipPath id="cp116">
<path transform="matrix(1,0,0,-1,0,792)" d="M 375.65 508.5293 L 503 508.5293 L 503 531.5293 L 375.65 531.5293 Z "/>
</clipPath>
<g clip-path="url(#cp116)">
<text fill="#010204" xml:space="preserve" transform="matrix(1 0 -0 1 426.2946 276.23579)" font-size="12.5" font-family="TimesNewRomanPSMT"><tspan y="0" x="0 7.6412508 13.188752 16.661253 22.911253">Value</tspan></text>
</g>
</g>
</g>
</g>
<g id="Layer-2" data-name="P">
<g id="Layer-3" data-name="P">
<g id="Layer-4" data-name="P">
<g id="Layer-5" data-name="P">
</g>
<clipPath id="cp117">
<path transform="matrix(1,0,0,-1,0,792)" d="M 72 484.0293 L 375.65 484.0293 L 375.65 507.5293 L 72 507.5293 Z "/>
</clipPath>
<g clip-path="url(#cp117)">
<text fill="#010204" xml:space="preserve" transform="matrix(1 0 -0 1 79 301.2358)" font-size="12.5" font-family="TimesNewRomanPSMT"><tspan y="0" x="0 11.115001 16.667502 22.220002">Mean</tspan></text>
</g>
</g>
<g id="Layer-4" data-name="P">
<g id="Layer-5" data-name="P">
</g>
<clipPath id="cp118">
<path transform="matrix(1,0,0,-1,0,792)" d="M 375.65 484.0293 L 503 484.0293 L 503 507.5293 L 375.65 507.5293 Z "/>
</clipPath>
<g clip-path="url(#cp118)">
<text fill="#010204" xml:space="preserve" transform="matrix(1 0 -0 1 432.7125 301.2358)" font-size="12.5" font-family="TimesNewRomanPSMT"><tspan y="0" x="0 6.25 9.375">3.0</tspan></text>
</g>
</g>
</g>
<g id="Layer-3" data-name="P">
<g id="Layer-4" data-name="P">
<g id="Layer-5" data-name="P">
</g>
<clipPath id="cp119">
<path transform="matrix(1,0,0,-1,0,792)" d="M 72 460.0293 L 375.65 460.0293 L 375.65 484.0293 L 72 484.0293 Z "/>
</clipPath>
<g clip-path="url(#cp119)">
<text fill="#010204" xml:space="preserve" transform="matrix(1 0 -0 1 79 324.7358)" font-size="12.5" font-family="TimesNewRomanPSMT"><tspan y="0" x="0 11.115001 17.365002 23.615002">Mode</tspan></text>
</g>
</g>
<g id="Layer-4" data-name="P">
<g id="Layer-5" data-name="P">
</g>
<clipPath id="cp120">
<path transform="matrix(1,0,0,-1,0,792)" d="M 375.65 460.0293 L 503 460.0293 L 503 484.0293 L 375.65 484.0293 Z "/>
</clipPath>
<g clip-path="url(#cp120)">
<text fill="#010204" xml:space="preserve" transform="matrix(1 0 -0 1 437.4 324.7358)" font-size="12.5" font-family="TimesNewRomanPSMT"><tspan y="0" x="0">3</tspan></text>
</g>
</g>
</g>
<g id="Layer-3" data-name="P">
<g id="Layer-4" data-name="P">
<g id="Layer-5" data-name="P">
</g>
<clipPath id="cp121">
<path transform="matrix(1,0,0,-1,0,792)" d="M 72 436.0293 L 375.65 436.0293 L 375.65 460.0293 L 72 460.0293 Z "/>
</clipPath>
<g clip-path="url(#cp121)">
<text fill="#010204" xml:space="preserve" transform="matrix(1 0 -0 1 79 348.7358)" font-size="12.5" font-family="TimesNewRomanPSMT"><tspan y="0" x="0 11.115001 16.6625 22.9125 26.385 31.9325">Median</tspan></text>
</g>
</g>
<g id="Layer-4" data-name="P">
<g id="Layer-5" data-name="P">
</g>
<clipPath id="cp122">
<path transform="matrix(1,0,0,-1,0,792)" d="M 375.65 436.0293 L 503 436.0293 L 503 460.0293 L 375.65 460.0293 Z "/>
</clipPath>
<g clip-path="url(#cp122)">
<text fill="#010204" xml:space="preserve" transform="matrix(1 0 -0 1 437.4 348.7358)" font-size="12.5" font-family="TimesNewRomanPSMT"><tspan y="0" x="0">3</tspan></text>
</g>
</g>
</g>
<g id="Layer-3" data-name="P">
<g id="Layer-4" data-name="P">
<g id="Layer-5" data-name="P">
</g>
<clipPath id="cp123">
<path transform="matrix(1,0,0,-1,0,792)" d="M 72 412.5293 L 375.65 412.5293 L 375.65 436.0293 L 72 436.0293 Z "/>
</clipPath>
<g clip-path="url(#cp123)">
<text fill="#010204" xml:space="preserve" transform="matrix(1 0 -0 1 79 372.7358)" font-size="12.5" font-family="TimesNewRomanPSMT"><tspan y="0" x="0 6.952501 10.425002 15.972503 22.222504 28.472504 34.020006 38.182504 44.432504 47.557504 56.585004 62.132505 68.38251 71.855 77.402507 80.875 84.347499 90.597499">Standard Deviation</tspan></text>
</g>
</g>
<g id="Layer-4" data-name="P">
<g id="Layer-5" data-name="P">
</g>
<clipPath id="cp124">
<path transform="matrix(1,0,0,-1,0,792)" d="M 375.65 412.5293 L 503 412.5293 L 503 436.0293 L 375.65 436.0293 Z "/>
</clipPath>
<g clip-path="url(#cp124)">
<text fill="#010204" xml:space="preserve" transform="matrix(1 0 -0 1 429.5875 372.7358)" font-size="12.5" font-family="TimesNewRomanPSMT"><tspan y="0" x="0 6.25 9.375 15.625">0.87</tspan></text>
</g>
</g>
</g>
</g>
<clipPath id="cp125">
<path transform="matrix(1,0,0,-1,0,792)" d="M 71 410.0293 L 504 410.0293 L 504 534.0293 L 71 534.0293 Z "/>
</clipPath>
<g clip-path="url(#cp125)">
<path transform="matrix(1,0,0,1,71,257.9707)" stroke-width="1" stroke-linecap="butt" stroke-miterlimit="4" stroke-linejoin="miter" fill="none" stroke="#000000" d="M 1 26 L 432 26 "/>
<path transform="matrix(1,0,0,1,71,257.9707)" stroke-width="1" stroke-linecap="butt" stroke-miterlimit="4" stroke-linejoin="miter" fill="none" stroke="#000000" d="M 1 2 L 432 2 "/>
<path transform="matrix(1,0,0,1,71,257.9707)" stroke-width="1" stroke-linecap="butt" stroke-miterlimit="4" stroke-linejoin="miter" fill="none" stroke="#000000" d="M 1 122 L 432 122 "/>
</g>
</g>
</g>
</g>
</svg>
