<?xml version="1.0" encoding="UTF-8" standalone="no"?>
<!DOCTYPE svg PUBLIC "-//W3C//DTD SVG 1.1//EN" "http://www.w3.org/Graphics/SVG/1.1/DTD/svg11.dtd">
<svg xmlns="http://www.w3.org/2000/svg" xmlns:xlink="http://www.w3.org/1999/xlink" version="1.1" width="612pt" height="792pt" viewBox="0 0 612 792">
<g enable-background="new">
<clipPath id="cp28">
<path transform="matrix(1,0,0,-1,0,792)" d="M 0 0 L 612 0 L 612 792 L 0 792 Z "/>
</clipPath>
<g clip-path="url(#cp28)">
<path transform="matrix(1,0,0,-1,0,792)" d="M 0 792 L 612 792 L 612 0 L 0 0 Z " fill="#ffffff"/>
<g id="Layer-1" data-name="P">
</g>
<clipPath id="cp29">
<path transform="matrix(1,0,0,-1,0,792)" d="M 68.67773 72 L 543.3222 72 L 543.3222 723.3223 L 68.67773 723.3223 Z "/>
</clipPath>
<g clip-path="url(#cp29)">
<text fill="#0e101a" xml:space="preserve" transform="matrix(1 0 -0 1 108 83.89447)" font-size="12" font-family="TimesNewRomanPSMT"><tspan y="0" x="0 2.7828 10.112399 16.1124 21.438002 24.438002 29.108403 34.434003 43.767606 49.767606 53.101209 58.426809 61.426809 66.09721 69.43081 74.75641 80.08201 83.08201 87.07801 92.40361 98.40361 102.39961 107.72521 112.395618 117.721218 123.721218 127.05481 131.7252 134.7252 140.7252 146.7252 156.7212 159.7212 163.71721 169.71721 175.71721 181.71721 185.71321 188.71321 192.70922 198.03482 207.36843 212.69403 216.02764 221.35324 224.35324 229.02364 232.35724 238.35724 244.35724 249.68285 255.68285 259.01646 263.68687 266.68687 269.68687 275.68687 281.68687 284.68687 290.68687 300.68287 303.68287 307.67887 313.67887 319.67887 323.67488 326.67488 336.00846 341.33406 344.66764 349.99324 352.99324 357.66365 360.99723 366.99723 372.99723 378.3228 384.3228 387.6564 392.3268 395.3268 398.3268 403.6524 409.6524 415.6524"> The sample size represents 55% (121) female students, 44.5% (98) male students, and </tspan></text>
<text fill="#0e101a" xml:space="preserve" transform="matrix(1 0 -0 1 72 113.38483)" font-size="12" font-family="TimesNewRomanPSMT"><tspan y="0" x="0 6 9 15 24.996 27.996 31.992 37.992 41.988 44.988 49.658399 52.992 58.992 64.992008 70.317607 76.317607 79.6512 84.3216 87.3216 95.98801 101.98801 107.98801 110.98801 116.98801 120.98401 126.30961 130.3056 135.63121 139.62722 143.62322 148.94882 154.94882 157.94882 163.94882 169.94882 173.28243 176.28243 179.61603 185.61603 188.61603 194.61603 197.94963 202.62003 207.94564 211.27924 217.27924 221.94963 227.27524 230.27524 233.60884 239.60884 244.93445 248.26805 252.26406 255.26406 261.26405 266.58964 272.58964 278.58964 283.91523 287.2488 290.2488 293.2488 299.2488 305.2488 308.2488 314.2488 324.2448 327.2448 331.2408 337.2408 343.2408 349.2408 353.23683 356.23683 362.23683 366.23283 369.23283 372.5664 378.5664 383.892 386.892 390.888 396.2136 400.884 406.884 412.884 418.884 424.884 430.2096 436.2096 439.54319 444.2136">0.5% (1) students who preferred not to disclose their gender. 57.3% (126) of the respondents </tspan></text>
<text fill="#0e101a" xml:space="preserve" transform="matrix(1 0 -0 1 72 142.875)" font-size="12" font-family="TimesNewRomanPSMT"><tspan y="0" x="0 8.666401 13.992002 17.988 23.313603 26.313603 29.647204 32.980806 38.980806 42.314405 48.314405 54.314405 57.314405 60.648008 66.64801 69.64801 74.97361 77.97361 85.97761 94.64401 103.31042 107.30642 115.972827 119.96883 125.96883 131.96883 134.96883 138.96483 144.29044 150.29044 153.29044 158.61605 164.61605 170.61605 175.94165 178.94165 182.93766 188.93766 194.93766 198.27126 202.94165 208.94165 214.94165 218.27526 222.27126 225.27126 228.27126 236.93766 242.93766 246.27126 249.60486 254.93047 257.93049 263.93049 269.93049 272.93049 278.93049 288.92649 291.92649 295.9225 301.9225 307.9225 311.9185 314.9185 319.5889 322.9225 328.9225 334.9225 340.24809 346.24809 349.58168 354.25209 357.25209 362.57768 368.57768 374.57768 377.57768 383.57768 389.57768 392.57768 398.57768 404.57768 414.57368 417.57368 421.56968 427.56968 433.56968 437.56568">were living in a COVID-19 red zone (hotspot), while 22.3% (49) students and 20.55% (45) </tspan></text>
<text fill="#0e101a" xml:space="preserve" transform="matrix(1 0 -0 1 72 172.36518)" font-size="12" font-family="TimesNewRomanPSMT"><tspan y="0" x="0 4.6704 8.004001 14.004001 20.004002 25.329604 31.329604 34.663206 39.333604 42.333604 51.000005 56.325605 60.3216 65.6472 68.6472 71.9808 75.31439 81.31439 84.64799 90.64799 96.64799 99.64799 102.98158 108.98158 111.98158 117.30718 120.30718 128.31119 136.97759 145.64398 149.63999 158.30638 162.30239 168.30239 174.30239 177.30239 183.30239 188.62799 191.9616 195.2952 201.2952 209.9616 212.9616 218.2872 224.2872 230.2872 233.2872 238.61281 241.61281 249.6168 258.2832 266.94963 270.94563 279.61204 283.60804 289.60804 295.60804 298.60804 304.60804 308.60404 313.92964 319.25523 325.25523 328.25523 333.5808 339.5808 345.5808 350.9064 353.9064 356.9064 360.9024 366.228 370.8984 376.8984 382.224 387.5496 390.88319 394.21678 400.21678 405.54237 408.87596 414.09715 417.09715">students were living in a COVID-19 yellow and a COVID-19 green zone, respectively. </tspan></text>
<text fill="#0e101a" xml:space="preserve" transform="matrix(1 0 -0 1 72 201.85553)" font-size="12" font-family="TimesNewRomanPSMT"><tspan y="0" x="0 6.674401 12.6744 16.6704 20.004002 26.004002 31.329604 35.325605 44.659208 50.659208 54.655206 59.980806 62.980806 65.980808 71.980808 77.980808 80.980808 86.980808 96.97681 99.97681 103.97281 109.97281 115.97281 119.96881 122.96881 128.96881 132.96482 135.96482 139.29842 145.29842 150.62403 153.62403 157.62003 162.94564 167.61603 173.61603 179.61603 185.61603 191.61603 196.94164 202.94164 206.27524 210.94564 213.94564 218.61603 223.94164 229.94164 233.93764 239.26325 245.26325 248.26325 254.26325 259.58885 262.92243 271.58885 276.91444 282.24003 288.24003 291.24003 297.24003 303.24003 313.23603 317.23204 323.23204 329.23204 335.23204 345.22804 348.22804 351.5616 357.5616 360.5616 363.8952 369.8952 375.2208 378.2208 384.2208 388.2168 393.5424 399.5424 402.87599 408.87599 414.87599 419.5464 422.5464 428.5464 432.5424 437.86799 443.86799 449.19358 452.19358">Furthermore, 19.5% (43) of the respondents scored between 91%-100% in the previous grade, </tspan></text>
<text fill="#0e101a" xml:space="preserve" transform="matrix(1 0 -0 1 72 231.3457)" font-size="12" font-family="TimesNewRomanPSMT"><tspan y="0" x="0 8.666401 14.666401 18.000002 21.333603 26.659205 29.659205 35.659204 41.659204 44.659204 50.659204 60.655206 63.655206 67.65121 73.65121 79.65121 83.64721 86.64721 89.64721 95.64721 101.64721 104.64721 110.64721 120.64321 123.64321 127.63921 133.63922 139.63922 143.63523 146.63523 149.63523 154.96083 160.96083 166.96083 169.96083 175.96083 181.96083 191.95684 194.95684 198.95284 204.95284 210.95284 214.94884 217.94884 223.94884 227.94484 230.94484 235.61524 238.94884 244.94884 250.94884 256.2744 262.2744 265.608 270.2784 273.2784 277.94883 283.2744 289.2744 293.27043 298.596 304.596 307.596 313.596 318.9216 322.2552 330.9216 336.2472 341.57279 347.57279 350.57279 356.57279 362.57279 372.5688 376.5648 382.5648 388.5648 398.5608 401.5608 404.5608 410.5608 416.5608 426.5568 430.5528 436.5528 442.5528 452.5488 455.5488">while 37.3% (82), 28.2% (62), and 15% (33) of students scored between 81%-90%, 71%-80%, </tspan></text>
<text fill="#0e101a" xml:space="preserve" transform="matrix(1 0 -0 1 72 260.83589)" font-size="12" font-family="TimesNewRomanPSMT"><tspan y="0" x="0 5.3256008 11.325601 17.3256 20.3256 26.3256 31.651202 34.984804 40.984804 49.651205 52.651205 58.651205 64.6512 74.6472 77.6472 80.6472 84.6432 89.9688 94.639209 100.639209 105.964809 111.290409 114.624 117.957599 123.957599 129.2832 132.6168 137.83802 140.83802 143.83802 147.17162 153.17162 156.17162 159.50522 165.50522 170.83083 174.16443 178.16043 181.16043 187.16043 191.15644 196.48204 202.48204 205.81565 211.81565 217.81565 222.48604 225.48604 231.48604 235.48204 240.80765 246.80765 252.13326 256.80369 259.80369">and below 71%, respectively, in their previous grades. </tspan></text>
<g id="Layer-2" data-name="Span">
<text fill="#0e101a" xml:space="preserve" transform="matrix(1 0 -0 1 72 260.83589)" font-size="12" font-family="TimesNewRomanPSMT"><tspan y="0" x="262.8105"> </tspan></text>
</g>
</g>
<g id="Layer-1" data-name="P">
<text fill="#0e101a" xml:space="preserve" transform="matrix(1 0 -0 1 243.9727 319.8164)" font-size="12" font-family="TimesNewRomanPS" font-weight="bold"><tspan y="0" x="0 7.3296 10.663199 17.3376 24.012001 27.345602 34.02 40.02 44.6904 47.6904 53.6904 60.3648 67.03921 70.03921 78.70561 82.03921 86.70961 92.03521 98.70962 103.38002 108.05042 111.38402 117.38402">Findings and Discussion</tspan></text>
<g id="Layer-2" data-name="Span">
<text fill="#0e101a" xml:space="preserve" transform="matrix(1 0 -0 1 243.9727 319.8164)" font-size="12" font-family="TimesNewRomanPSMT"><tspan y="0" x="124.0547"> </tspan></text>
</g>
</g>
<g id="Layer-1" data-name="P">
<text fill="#0e101a" xml:space="preserve" transform="matrix(1 0 -0 1 72 349.3066)" font-size="12" font-family="TimesNewRomanPS" font-weight="bold"><tspan y="0" x="0 6.674401 10.670401 15.780002 21.105603 25.776001 30.4464 36.4464 41.772">Stressors</tspan></text>
<g id="Layer-2" data-name="Span">
<text fill="#0e101a" xml:space="preserve" transform="matrix(1 0 -0 1 72 349.3066)" font-size="12" font-family="TimesNewRomanPSMT"><tspan y="0" x="46.44141"> </tspan></text>
</g>
</g>
<g id="Layer-1" data-name="P">
<text fill="#0e101a" xml:space="preserve" transform="matrix(1 0 -0 1 72 378.7969)" font-size="12" font-family="TimesNewRomanPS" font-weight="bold" font-style="italic"><tspan y="0" x="0 6.674401 10.008 14.678401 20.004002 24.6744 29.344799 32.3448 36.340799 41.011198 47.011198 56.3448 59.3448 67.3488 73.3488 82.682399 86.01599 89.34959">Stress from Family</tspan></text>
<g id="Layer-2" data-name="Span">
<text fill="#0e101a" xml:space="preserve" transform="matrix(1 0 -0 1 72 378.7969)" font-size="12" font-family="TimesNewRomanPSMT"><tspan y="0" x="94.67578"> </tspan></text>
</g>
</g>
<g id="Layer-1" data-name="P">
<text fill="#0e101a" xml:space="preserve" transform="matrix(1 0 -0 1 108 408.2871)" font-size="12" font-family="TimesNewRomanPSMT"><tspan y="0" x="0 6 12 15 21 30.996 33.996004 39.996004 43.992 46.992 50.325605 56.325605 61.651205 64.6512 69.3216 72.6552 78.6552 84.6552 89.9808 95.9808 99.31439 103.984798 106.984798 112.984798 116.31839 122.31839 125.31839 131.31839 137.31839 140.652 143.652 148.9776 154.9776 160.9776 164.9736 170.29921 174.9696 179.64 182.64 187.9656 193.9656 199.9656 202.9656 207.636 210.9696 214.9656 220.29122 224.96161 229.632 232.632 236.628 240.62401 246.62401 255.95761 258.9576 262.9536 268.2792 277.6128 280.94639 284.27998 290.27998 293.27998 302.61357 307.93916 317.27275 323.27275 328.59834 332.59434 337.26475 340.26475 348.93116 354.93116 360.25675 363.59034 368.26075 374.26075 379.58634 385.58634 390.91194 394.90794 397.90794 403.90794 409.90794 413.90394 417.23753 423.23753 429.23753">58.6% of the students did not express any stress from family members whatsoever during </tspan></text>
<text fill="#0e101a" xml:space="preserve" transform="matrix(1 0 -0 1 72 437.7773)" font-size="12" font-family="TimesNewRomanPSMT"><tspan y="0" x="0 3.3336006 9.333601 14.659202 17.659203 23.659203 28.984805 32.318407 35.652006 41.652006 47.652006 56.318407 59.652006 65.65201 70.97761 73.97761 81.981609 90.64801 99.314418 103.31042 111.97682 115.972827 121.972827 127.972827 130.97283 134.30643 140.30643 145.63204 151.63204 157.63204 163.63204 172.29843 178.29843 181.29843 184.29843 192.96483 198.96483 207.63123 212.95684 218.95684 224.28244 227.79845 230.79845 233.79845 239.79845 243.79445 249.79445 259.12806 262.46165 268.46165 273.78724 279.78724 283.12083 286.12083 290.11683 295.4424 304.776 308.1096 311.44319 317.44319 320.44319 325.1136 328.44718 332.44319 337.76878 342.43919 347.1096 353.1096 357.1056 361.776 364.776 368.1096 374.1096 379.43519 382.76878 388.76878 394.76878 400.09437 406.09437 409.09437 415.09437 418.42796 424.42796 430.42796">the nationwide COVID-19 lockdown. However, prominent family stressors included high </tspan></text>
<text fill="#0e101a" xml:space="preserve" transform="matrix(1 0 -0 1 72 467.2676)" font-size="12" font-family="TimesNewRomanPSMT"><tspan y="0" x="0 5.3256008 11.325601 17.3256 22.651202 27.976803 31.310404 36.636007 39.96961 43.30321 49.30321 55.30321 59.97361 62.97361 66.307209 72.307209 75.307209 80.632808 86.632808 91.958408 101.292 104.625598 110.625598 115.951198 119.28479 122.618389 128.61838 134.61838 139.28878 142.28878 147.61438 153.61438 159.61438 162.61438 168.61438 173.93999 177.93599 183.2616 189.2616 192.5952 197.9208 201.25441 204.25441 207.58802 210.92162 220.25522 223.58882 226.92243 231.59282 234.59282 240.59282 246.59282 249.59282 252.92642 256.26 265.5936 270.9192 273.9192 278.5896 284.5896 289.9152 295.9152 299.24879 302.24879 305.58238 311.58238 314.58238 320.58238 325.90797 329.24156 332.57514 338.57514 341.57514 346.90074 352.22633 355.5599 358.8935 364.8935 368.22709 371.56068 374.89427 380.21986 384.89027 387.89027 391.88627 398.37828 403.70387 409.70387 413.03746 418.36305 421.36305 427.36305 431.35905 434.35905">expectations in examinations and parental limits on time spent in daily activities (Table 1). </tspan></text>
<text fill="#0e101a" xml:space="preserve" transform="matrix(1 0 -0 1 72 496.7578)" font-size="12" font-family="TimesNewRomanPSMT"><tspan y="0" x="0 10.670402 14.004002 18.6744 24.6744 30.6744 36.6744 42 45.996 50.666399 53.999998 59.325597 65.32559 71.32559 74.65919 80.65919 86.65919 91.32959 94.32959 100.32959 105.65519 108.988788 117.65519 122.98079 128.3064 134.3064 137.3064 143.3064 148.632 152.628 157.95362 163.95362 167.28722 171.95761 174.95761 180.28322 186.28322 192.28322 195.28322 200.60883 206.60883 209.94243 213.27603 219.27603 223.27204 228.59764 234.59764 237.59764 246.26404 251.58965 255.58565 260.91123 263.91123 269.23683 272.5704 277.2408 283.2408 286.2408 292.2408 298.2408 302.91123 308.23683 312.23283 318.23283 323.5584 329.5584 332.5584 337.884 342.5544 345.5544 350.88 353.88 359.2056 365.2056 368.53919 374.53919 378.5352 381.86878 385.20237 388.20237 392.19837 398.19837 402.19438 405.19438 409.86479 413.19837 417.19438 422.51997 427.19038 431.86079 434.86079 440.18638 449.51997 455.51997 461.51997 467.51997">Misunderstandings between parents and children were also observed as a culprit for stress among </tspan></text>
<text fill="#0e101a" xml:space="preserve" transform="matrix(1 0 -0 1 72 526.248)" font-size="12" font-family="TimesNewRomanPSMT"><tspan y="0" x="0 4.6704 8.004001 14.004001 20.004002 25.329604 31.329604 34.663206 39.333604 42.667203 45.667203 51.667203 57.667203 62.9928 65.9928 70.6632 75.9888 81.9888 87.9888 93.9888 97.322399 100.322399 106.322399 112.322399 117.647998 121.644 127.644 132.9696 136.9656 139.9656 149.29921 154.62482 160.62482 163.95842 167.29203 173.29203 179.29203 184.61763 190.61763 193.61763 199.61763 205.61763 211.61763 216.94324 222.26885 227.59445 232.26485 236.93524 242.26085 246.25685 252.25685 255.25685 261.25685 264.59043 269.26084 272.59443 276.59043 281.91603 287.2416 290.5752 293.90879 299.90879 305.90879 310.5792 313.5792 318.9048 322.23838 325.23838 331.23838 337.23838 346.57197 351.89756 354.89756 360.22315 366.22315 372.22315 375.22315 379.21916 384.54475 390.54475 396.54475 401.87034 407.19593 413.19593 416.19593 420.19194 426.19194 431.51753 437.51753 442.18794 445.18794 451.18794 457.18794">students; one school boarder mentioned unnecessary distractions at home and reduced focus on </tspan></text>
<text fill="#0e101a" xml:space="preserve" transform="matrix(1 0 -0 1 72 555.7383)" font-size="12" font-family="TimesNewRomanPSMT"><tspan y="0" x="0 4.6704 8.004001 14.004001 20.004002 23.337603 28.663205 33.333604 36.333604 42.333604 48.333604 53.659204 56.659204 59.9928 65.9928 68.9928 72.32639 78.32639 83.65199 86.65199 92.65199 96.647998 101.973598 106.644 111.9696 117.9696 123.2952 128.6208 131.6208 137.6208 141.6168 144.6168 148.61281 153.93842 163.27202 166.60562 169.93923 175.93923 178.93923 188.27283 193.59844 202.93204 208.93204 214.25765 218.25365 222.92404 225.92404 228.70685 236.03646 242.03646 246.03246 251.35807 256.68367 259.68367 264.35408 267.68766 273.68766 279.68766 285.01325 291.01325 294.34684 299.01725 302.01725 307.34284 313.34284 322.67643 326.01 329.3436 332.6772 338.00279 344.00279 347.00279 350.33638 356.33638 359.33638 363.33238 368.65797 373.98356 377.31715 380.65074 386.65074 392.65074 395.65074 400.97633 406.97633 412.97633 417.64674 420.98033 426.3059 432.3059 435.6395 438.6395 443.3099 446.6435 450.6395 455.9651 460.6355 465.3059">studies due to the presence of family members. Three students admitted to feeling constant stress </tspan></text>
<text fill="#0e101a" xml:space="preserve" transform="matrix(1 0 -0 1 72 585.2285)" font-size="12" font-family="TimesNewRomanPSMT"><tspan y="0" x="0 6 11.325601 16.651202 21.976803 27.976803 32.6472 37.9728 40.9728 44.3064 50.3064 55.632 58.965604 62.9616 65.9616 71.9616 77.2872 81.2832 86.6088 92.6088 95.9424 100.6128 103.6128 106.946399 110.9424 114.27599 119.60159 125.60159 128.6016 131.9352 137.9352 140.9352 150.2688 155.5944 161.5944 166.92002 169.92002 173.25362 179.25362 184.57923 193.91283 196.91283 202.91283 207.58322 212.90883 215.90883 219.24243 225.24243 230.56804 233.90164 237.89765 240.89765 245.79604 249.79204 253.78804 259.11363 264.4392 269.33763 272.33763 275.6712 279.0048 288.33839 293.66398 296.66398 299.99757 305.99757 308.99757 313.66798 317.00157 323.00157 329.00157 334.22276 337.22276 340.00556 351.33116 357.33116 362.65675 368.65675 371.65675 376.98234 381.65275 387.65275 392.97834 398.97834 401.97834 407.97834 413.97834 422.64476 425.64476 428.97834 434.97834 440.30393">because their parents tried to make them use their "free" time to study. When asked how the </tspan></text>
<text fill="#0e101a" xml:space="preserve" transform="matrix(1 0 -0 1 72 614.7188)" font-size="12" font-family="TimesNewRomanPSMT"><tspan y="0" x="0 8.004001 16.6704 25.3368 29.3328 37.9992 41.995199 47.995199 53.995199 56.995199 60.3288 66.3288 71.654399 77.654399 83.654399 89.654399 98.3208 104.3208 107.3208 113.3208 118.6464 123.3168 126.3168 131.64241 135.42122 139.41722 144.74283 150.06844 153.40204 158.72765 164.72765 167.72765 172.39804 175.73165 181.73165 187.73165 193.05725 199.05725 202.39086 205.39086 210.06125 213.39485 217.39086 222.71646 227.38686 232.05725 235.05725 240.38286 249.71646 255.04207 261.04206 266.36766 269.70124 273.03483 279.03483 285.03483 288.03483 292.03083 296.02684 302.02684 311.3604 314.3604 318.3564 323.682 333.0156 336.34919 339.68278 345.68278 348.68278 358.01637 363.34196 372.67555 378.67555 384.00114 387.99714 392.66755 395.66755 399.00114 405.00114 408.00114 413.32673 419.32673 428.6603 434.6603 439.9859 443.9819 447.3155 451.9859 457.9859 463.9859">COVID-19 lockdown has affected student stress emanating from family members in comparison </tspan></text>
<text fill="#0e101a" xml:space="preserve" transform="matrix(1 0 -0 1 72 644.209)" font-size="12" font-family="TimesNewRomanPSMT"><tspan y="0" x="0 3.3336006 9.333601 12.333601 18.333601 22.329602 27.655203 31.651204 34.984807 40.984807 46.310407 52.310407 58.310407 64.31041 72.976818 78.976818 81.976818 87.302417 93.302417 99.302417 105.302417 108.63601 111.969608 115.3032 121.3032 127.3032 131.9736 134.9736 137.9736 141.3072 147.3072 152.63282 155.63282 161.63282 165.62882 171.62882 177.62882 180.96242 186.96242 190.29602 193.29602 200.62563 203.95923 209.95923 215.28484 219.28084 222.61444 225.61444 230.28484 235.61045 240.93605 244.26966 249.59526 252.59526 257.92085 263.92085 269.24644 272.58003 278.58003 283.25044 286.584 291.25444 294.25444 298.25044 304.74244 310.06803 316.06803 319.4016 324.7272 327.7272 333.7272 337.7232 340.7232 344.7192 350.0448 356.0448 361.3704 366.69599 370.02958 375.35517 381.35517 384.35517 389.68077 392.68077 397.35118 400.68476 404.01835 410.01835 416.01835 419.35194 422.35194 425.68553 431.68553 437.0111 441.0071 446.3327 451.6583 456.3287 461.6543">to pre-lockdown conditions, the 5-point Likert scale analysis (Table 2) revealed a slight increase </tspan></text>
<text fill="#0e101a" xml:space="preserve" transform="matrix(1 0 -0 1 72 673.6992)" font-size="12" font-family="TimesNewRomanPSMT"><tspan y="0" x="0 3.3336006 9.333601 12.333601 17.004002 20.337603 24.333603 29.659205 34.329607 39.000005 42.000005 45.996004 49.992 55.992 65.3256 68.3256 72.3216 77.6472 86.9808 90.31439 93.64799 99.64799 102.64799 107.31839 113.31839 119.31839 123.31439 128.64 133.9656 138.636 141.636 147.636 153.636 157.632 160.9656 166.9656 172.9656 175.9656 179.29921 185.29921 190.62482 193.62482 196.95842 202.95842 208.28403 214.28403 220.28403 226.28403 234.95043 240.95043 243.95043 246.95043 253.62482 259.62483 263.62083 266.9544 272.9544 278.28 282.276 291.6096 297.6096 301.6056 306.93119 309.93119 312.93119 318.93119 324.93119 327.93119 333.93119 343.9272 346.9272 350.9232 356.9232 362.9232 366.9192 369.9192 375.9192 379.9152 382.9152 386.24879 392.24879 397.57438 400.57438 404.57038 409.89598 414.56639 420.56639 426.56639 432.56639 438.56639 443.89198 449.89198 453.22557 457.89598">in stress from family sources during the lockdown. Furthermore, 28.2% (62) of the respondents </tspan></text>
</g>
</g>
</g>
</svg>
