<?xml version="1.0" encoding="UTF-8" standalone="no"?>
<!DOCTYPE svg PUBLIC "-//W3C//DTD SVG 1.1//EN" "http://www.w3.org/Graphics/SVG/1.1/DTD/svg11.dtd">
<svg xmlns="http://www.w3.org/2000/svg" xmlns:xlink="http://www.w3.org/1999/xlink" version="1.1" width="612pt" height="792pt" viewBox="0 0 612 792">
<g enable-background="new">
<clipPath id="cp272">
<path transform="matrix(1,0,0,-1,0,792)" d="M 0 0 L 612 0 L 612 792 L 0 792 Z "/>
</clipPath>
<g clip-path="url(#cp272)">
<path transform="matrix(1,0,0,-1,0,792)" d="M 0 792 L 612 792 L 612 0 L 0 0 Z " fill="#ffffff"/>
<g id="Layer-1" data-name="P">
</g>
<clipPath id="cp273">
<path transform="matrix(1,0,0,-1,0,792)" d="M 68.67773 67.89258 L 543.3222 67.89258 L 543.3222 723.32229 L 68.67773 723.32229 Z "/>
</clipPath>
<g clip-path="url(#cp273)">
<text fill="#0e101a" xml:space="preserve" transform="matrix(1 0 -0 1 72 83.89447)" font-size="12" font-family="TimesNewRomanPSMT"><tspan y="0" x="0 6 12 18 23.325602 27.321602 31.992 35.325605 40.651205 46.651205 52.651205 55.651205 61.651205 67.6512 76.317607 79.317607 82.6512 88.6512 93.9768 96.9768 102.3024 108.3024 114.3024 119.628 124.9536 128.2872 131.6208 137.6208 143.6208 146.6208 151.2912 157.2912 161.9616 165.2952 170.6208 179.9544 182.9544 186.28801 192.28801 195.28801 200.61362 206.61362 211.93923 217.26483 223.26483 226.59844 232.59844 238.59844 241.59844 244.93204 250.93204 255.60243 258.93605 262.26963 265.6032 271.6032 274.9368 278.2704 284.2704 290.2704 294.9408 297.9408 301.27439 307.27439 310.27439 314.2704 320.2704 326.2704 329.60398 334.92958 337.92958 343.92958 347.26316 351.04197 355.03797 360.36357 364.35957 369.02998 372.02998 376.02598 380.02198 386.02198 395.35557 398.35557 403.02598 408.35157 414.35157 420.35157 426.35157 429.68516 434.35557 437.35557 440.35557 445.68116 451.68116 457.68116">understand how the education system in coaching institutions in India differs from schools, and </tspan></text>
<text fill="#0e101a" xml:space="preserve" transform="matrix(1 0 -0 1 72 113.38483)" font-size="12" font-family="TimesNewRomanPSMT"><tspan y="0" x="0 3.3336006 7.3296005 10.3296 15.000001 18.333603 24.333603 30.333603 35.659204 41.659204 44.9928 49.6632 52.6632 55.9968 61.3224 66.647998 70.644 76.644 79.644 85.644 90.9696 94.30319 97.63679 102.96239 106.95839 109.95839 113.291988 119.291988 123.28799 129.288 135.288 141.288 147.288 150.288 156.288 160.284 163.6176 169.6176 174.9432 178.27681 183.60242 186.60242 189.93602 195.93602 199.26963 205.26963 209.26563 212.59923 217.92484 221.25844 225.92884 228.92884 234.25444 240.25444 246.25444 249.25444 254.58005 260.58006 265.90565 271.23124 277.23124 280.56483 286.56483 292.56483">if students learn better through private tutorials and coaching.</tspan></text>
<g id="Layer-2" data-name="Span">
<text fill="#0e101a" xml:space="preserve" transform="matrix(1 0 -0 1 72 113.38483)" font-size="12" font-family="TimesNewRomanPSMT"><tspan y="0" x="295.5762"> </tspan></text>
</g>
</g>
<g id="Layer-1" data-name="P">
<text fill="#0e101a" xml:space="preserve" transform="matrix(1 0 -0 1 108 142.875)" font-size="12" font-family="TimesNewRomanPSMT"><tspan y="0" x="0 8.666401 12.000001 15.333601 21.333601 27.333601 33.333604 39.333604 45.333604 48.333604 53.659204 59.659204 65.6592 70.329608 73.6632 79.6632 84.9888 88.9848 94.3104 100.3104 103.644 108.9696 111.9696 115.9656 121.2912 125.9616 131.2872 136.61281 140.60881 145.93442 151.93442 154.93442 160.93442 166.26003 170.93042 173.93042 179.93042 185.25603 190.58164 196.58164 199.58164 204.90724 210.90724 216.90724 222.90724 228.90724 234.23285 237.56645 242.89206 248.89206 251.89206 255.22566 261.22566 264.22566 270.22566 275.55125 278.88484 282.2184 287.544 291.54 294.54 300.54 306.54 312.54 317.8656 321.8616 326.532 329.8656 335.1912 341.1912 347.1912 350.1912 353.52479 359.52479 364.85038 367.85038 372.52079 375.85438 379.85038 385.17597 389.84638 394.51679">Although considerable research has been conducted to better understand the stress </tspan></text>
<text fill="#0e101a" xml:space="preserve" transform="matrix(1 0 -0 1 72 172.36518)" font-size="12" font-family="TimesNewRomanPSMT"><tspan y="0" x="0 6 11.325601 15.321601 18.655201 23.980803 29.980803 33.314405 38.640005 43.310403 46.310403 51.636 60.9696 66.969608 72.969608 78.969608 81.969608 85.96561 91.96561 97.96561 101.2992 106.6248 112.6248 115.6248 120.295207 123.6288 129.6288 135.6288 140.9544 146.9544 150.28801 154.9584 157.9584 160.9584 164.292 167.62561 170.62561 174.62162 179.94722 189.28083 194.60643 197.94004 203.94004 208.61043 211.61043 217.61043 223.61043 229.61043 235.61043 241.61043 250.27683 256.27684 259.27684 262.6104 266.6064 269.6064 272.94 278.94 282.2736 286.944 289.944 294.6144 297.948 301.944 307.2696 311.94 316.6104 319.6104 325.6104 331.6104 337.6104 342.28083 345.6144 350.28483 353.28483 358.6104 363.936 369.2616 375.2616 380.5872 389.92079 393.25437 398.57997 401.57997 407.57997 412.90556 416.90156 420.89756 426.89756 430.89356 440.22715 445.55274 451.55274 456.87834 462.20393">variables among Indian students, it remains unknown if this stress boosts academic performance </tspan></text>
<text fill="#0e101a" xml:space="preserve" transform="matrix(1 0 -0 1 72 201.85553)" font-size="12" font-family="TimesNewRomanPSMT"><tspan y="0" x="0 6 9.996 12.996 18.996 24.321602 30.321602 35.6472 38.9808 42.314405 48.314405 53.640005 56.973608 62.973608 65.9736 71.2992 75.078 79.074008 84.399608 89.725208 93.0588 97.7292 100.7292 105.399608 108.7332 114.7332 120.7332 126.0588 132.0588 135.39241 140.0628 142.2252 145.2252 154.5588 159.88442 165.88442 169.21802 174.54363 177.87723 180.87723 186.87723 192.20284 197.52845 200.86205 204.19565 210.19565 213.19565 218.52126 224.52126 230.52126 233.52126 242.18766 247.51326 250.84687 254.18047 258.17646 264.17646 269.50205 272.83564 278.83564 284.83564">or negatively affects students' mental health and well-being.</tspan></text>
<g id="Layer-2" data-name="Span">
<text fill="#0e101a" xml:space="preserve" transform="matrix(1 0 -0 1 72 201.85553)" font-size="12" font-family="TimesNewRomanPSMT"><tspan y="0" x="287.8477"> </tspan></text>
</g>
</g>
<g id="Layer-1" data-name="P">
<text fill="#0e101a" xml:space="preserve" transform="matrix(1 0 -0 1 277.3242 260.83589)" font-size="12" font-family="TimesNewRomanPS" font-weight="bold"><tspan y="0" x="0 8.666401 14.666401 21.340802 26.666403 30.000004 36.674406 41.344804 44.678403 50.678403">Conclusion</tspan></text>
<g id="Layer-2" data-name="Span">
<text fill="#0e101a" xml:space="preserve" transform="matrix(1 0 -0 1 277.3242 260.83589)" font-size="12" font-family="TimesNewRomanPSMT"><tspan y="0" x="57.35156"> </tspan></text>
</g>
</g>
<g id="Layer-1" data-name="P">
<text fill="#0e101a" xml:space="preserve" transform="matrix(1 0 -0 1 108 290.3262)" font-size="12" font-family="TimesNewRomanPSMT"><tspan y="0" x="0 8.666401 13.992002 19.317603 25.317603 30.643204 39.976804 43.310407 48.636007 51.636007 56.306406 59.640005 63.636 68.9616 73.632 78.30241 81.30241 86.628009 95.9616 101.9616 107.9616 113.9616 116.9616 120.9576 126.9576 132.95761 136.29122 141.61682 147.61682 150.61682 155.28722 158.62082 164.62082 170.62082 175.94643 181.94643 185.28003 189.95043 192.95043 198.27603 204.27603 210.27603 213.60964 216.94324 222.94324 228.94324 234.26885 238.93924 241.93924 245.27285 251.27285 254.27285 260.27284 265.59843 268.59843 273.924 276.924 285.59043 291.59043 295.58644 299.58244 302.91603 307.58644 313.58644 322.92 328.2456 331.2456 336.5712 340.5672 343.9008 348.5712 351.9048 356.5752 359.5752 363.5712 369.5712 373.5672 376.5672 379.9008 385.9008 391.22639">Academic stress among Indian students continues to be a worrisome crisis for the </tspan></text>
<text fill="#0e101a" xml:space="preserve" transform="matrix(1 0 -0 1 72 319.8164)" font-size="12" font-family="TimesNewRomanPSMT"><tspan y="0" x="0 5.3256008 11.325601 17.3256 23.3256 26.6592 30.655201 35.8764 38.8764 41.8764 48.5508 52.5468 57.8724 62.542798 67.2132 73.2132 77.209209 82.534809 85.534809 89.53081 93.52681 99.52681 108.860408 111.860408 116.53081 121.85641 127.85641 133.85642 139.85642 143.19002 147.86042 150.86042 156.86042 162.86042 168.18602 171.18602 174.51963 180.51963 183.51963 188.84523 191.84523 196.51563 199.84923 203.84523 207.17884 212.50444 215.83805 218.83805 224.16365 230.16365 236.16365 241.48926 245.48526 250.81087 256.81086 262.13645 267.46205 270.46205 273.79563 279.79563 282.79563 286.1292 292.1292 297.4548 300.4548 305.7804 311.7804 315.7764 319.7724 323.106 328.43159 334.43159 337.76518 343.76518 353.09877 356.09877 362.09877 367.42436 372.09477 375.09477 379.09077 384.41636 389.08677 395.08677 398.42036 401.75395 407.07954 413.07954 416.07954 419.41313 425.41313 428.41313 433.7387 439.7387">country. Pressure from schools due to a strict adherence to the curriculum has resulted in an </tspan></text>
<text fill="#0e101a" xml:space="preserve" transform="matrix(1 0 -0 1 72 349.3066)" font-size="12" font-family="TimesNewRomanPSMT"><tspan y="0" x="0 5.3256008 11.325601 16.651202 21.976803 26.647202 31.3176 34.651205 40.651205 45.976804 49.310407 55.310407 58.310407 63.636007 69.636 78.9696 84.9696 90.2952 93.62879 96.96239 100.29598 103.62958 109.62958 114.95518 117.95518 123.28078 129.28078 135.28078 138.61438 142.61038 148.61038 154.61038 163.94399 169.26959 175.26959 178.6032 181.6032 185.5992 191.5992 195.5952 198.5952 203.2656 206.5992 212.5992 218.5992 223.9248 229.9248 233.2584 237.9288 240.9288 243.9288 249.25441 253.03322 257.0292 262.3548 267.6804 271.01399 274.34757 280.34757 286.34757 289.34757 292.68116 298.68116 304.00675 307.34034 311.33634 314.33634 320.33634 325.66194 330.98753 334.3211 337.6547 343.6547 346.6547 352.6547 357.9803 363.9803 369.30589 372.63948 375.97306 381.97306 387.29866 390.63224 395.85343 398.85343 401.85343 410.51985 416.51985 425.85343 431.17903 435.17503 441.17503 447.17503 451.84544">excessively competitive environment for students, affecting their health negatively. Numerous </tspan></text>
<text fill="#0e101a" xml:space="preserve" transform="matrix(1 0 -0 1 72 378.7969)" font-size="12" font-family="TimesNewRomanPSMT"><tspan y="0" x="0 6 9.996 13.3296 19.329602 24.655203 27.988804 33.314405 36.314405 39.648008 45.648008 48.98161 52.315214 55.648817 61.648817 67.64882 70.64882 75.97442 79.308017 84.63361 89.304019 93.97442 99.30002 103.97042 106.97042 109.97042 115.97042 119.304019 125.304019 131.30402 134.30402 138.30002 143.62563 146.95923 152.28484 156.95523 159.95523 165.95523 169.95124 172.95124 178.27684 184.27684 188.27285 194.27285 197.60645 206.94005 212.26566 218.26566 221.59926 224.59926 227.93286 233.93286 236.93286 242.25847 248.25847 253.58408 258.90968 264.90968 268.24327 274.24327 280.24327 283.24327 288.56886 293.89445 299.89445 303.22804 308.55363 312.54963 317.22004 320.22004 323.22004 328.54563 334.54563 339.87123 345.1968 349.86723 354.53764 357.87123 363.87123 369.1968 372.1968 378.1968 384.1968 393.5304 398.856 407.5224 413.5224 417.5184 423.5184">private tuition classes, high rates of enrolment in coaching centers, excessive homework </tspan></text>
<text fill="#0e101a" xml:space="preserve" transform="matrix(1 0 -0 1 72 408.2871)" font-size="12" font-family="TimesNewRomanPSMT"><tspan y="0" x="0 6 9.996 15.996 21.996 25.329602 31.329602 36.6552 42.6552 45.6552 51.6552 57.6552 60.6552 65.32561 70.65121 76.65121 82.65121 88.65121 91.9848 96.655208 99.655208 102.655208 107.980808 113.980808 119.980808 122.980808 128.30641 131.30641 137.30641 142.63202 148.63202 154.63202 157.96562 161.29923 167.29923 173.29923 176.29923 180.29523 185.62084 188.95444 191.95444 195.95044 201.27605 206.60166 211.92726 214.92726 218.26087 224.26087 227.26087 231.93126 237.25687 242.58248 248.58248 252.57848 257.90406 260.90406 266.90406 270.23765 276.23765 282.23765 285.23765 291.23765 297.23765 301.90806 305.24165 308.57524 311.9088 317.9088 323.9088 328.57923 331.57923 334.9128 340.9128 343.9128 349.2384 355.2384 360.564 369.89759 373.23118 379.23118 384.55677 387.89036 391.22395 397.22395 403.22395 407.89436 410.89436 416.89436 422.21995 426.89036 429.89036 433.22395 438.54954 444.54954 447.54954 450.88313 456.88313">provided by schools, and a daunting rat race to secure high positions in examinations has led to </tspan></text>
<text fill="#0e101a" xml:space="preserve" transform="matrix(1 0 -0 1 72 437.7773)" font-size="12" font-family="TimesNewRomanPSMT"><tspan y="0" x="0 4.6704 9.996 15.996 21.996 27.996 31.329602 36 39 45 50.3256 53.6592 59.6592 65.659198 68.659198 73.3296 78.6552 83.9808 89.9808 92.9808 98.3064 102.9768 105.9768 111.3024 117.3024 120.3024 125.628 131.62799 137.62799 142.9536 148.2792 151.61281 154.94641 160.94641 166.27202 169.27202 174.59763 180.59763 186.59763 189.93123 193.92723 199.92723 205.92723 215.26084 220.58644 226.58644 229.92005 232.92005 236.25365 242.25365 245.25365 253.92005 259.92005 263.25364 268.57923 274.57923 277.57923 283.57923 287.57524 290.9088 296.9088 300.90483 304.2384 307.572 313.572 316.572 319.90559 324.576 327.576 333.576 336.90959 342.90959 348.23518 354.23518 357.23518 360.56877 366.56877 369.56877 375.56877 380.89436 385.56477 390.23518 393.56877 399.56877 405.56877">schools being seen as an educative environment in which priority is given to passing </tspan></text>
<text fill="#0e101a" xml:space="preserve" transform="matrix(1 0 -0 1 72 467.2676)" font-size="12" font-family="TimesNewRomanPSMT"><tspan y="0" x="0 5.3256008 11.325601 16.651202 25.984803 29.318404 35.318407 40.644006 43.977605 47.311208 53.311208 59.311208 63.981607 66.981609 69.981609 74.65201 79.97761 85.97761 89.97361 93.307209 99.307209 105.307209 108.307209 113.632808 116.632808 122.632808 128.63282 134.63282 140.63282 143.63282 149.63282 155.63282 158.96642 164.96642 170.29203 174.28803 178.95842 182.29203 185.62563 190.84683 193.84683 196.84683 202.17244 208.17244 214.17244 217.17244 221.84284 227.16844 232.49405 238.49405 242.49005 245.82366 251.82366 257.82368 260.82368 266.14927 269.14927 275.14927 278.48286 284.48286 290.48286 294.47886 300.47886 305.80445 311.80445 315.13804 321.13804 327.13804 330.13804 333.47163 339.47163 345.47163 348.47163 351.47163 356.7972 361.46763 364.46763 370.46763 376.46763 382.46763 388.46763 393.13804 398.46363 404.46363 407.46363 410.7972 416.7972">examinations, scoring a good university, and securing a high-paying job, as opposed to </tspan></text>
<text fill="#0e101a" xml:space="preserve" transform="matrix(1 0 -0 1 72 496.7578)" font-size="12" font-family="TimesNewRomanPSMT"><tspan y="0" x="0 6 12 18 23.325602 27.321602 31.992 35.325605 40.651205 46.651205 52.651205 55.984807 61.984807 67.9848 70.9848 76.3104 82.3104 88.3104 93.636 98.9616 104.9616 108.2952 112.9656 115.9656 121.2912 127.2912 133.2912 136.2912 142.2912 148.2912 151.6248 156.2952 159.6288 164.9544 168.95041 172.28401 178.28401 184.28401 187.28401 192.60962 196.60562 201.93123 207.25684 210.59044 213.92404 219.92404 223.25765 226.59125 231.81246 234.81246 237.59526 244.92487 250.92487 256.25047 259.25047 264.57606 270.57606 273.90965 277.90565 283.23124 292.56483 297.8904 300.8904 306.216 312.216 321.5496 327.5496 332.87519 336.20878 339.54237 342.87596 346.20954 352.20954 358.20954 361.20954 367.20954 372.53514 377.20555 380.20555 383.53913 388.86473 394.86473 397.86473 403.86473 409.1903 413.1863 418.5119 424.5119 427.8455 432.5159 435.5159 438.8495 444.8495">understanding concepts and bolstering creativity. The extreme competition has led parents to </tspan></text>
<text fill="#0e101a" xml:space="preserve" transform="matrix(1 0 -0 1 72 526.248)" font-size="12" font-family="TimesNewRomanPSMT"><tspan y="0" x="0 3.996 9.996 13.992001 19.317603 24.643204 27.643204 30.976805 36.976808 42.302408 45.636007 49.632005 52.632005 57.957605 63.957605 67.2912 70.624797 76.624797 80.6208 85.946399 91.946399 94.946399 98.27999 104.27999 107.27999 111.95039 115.28399 121.28399 127.28399 133.284 136.284 139.6176 145.6176 148.6176 151.9512 157.9512 163.27681 166.27681 172.27681 178.27681 184.27681 189.60242 192.60242 198.60242 202.59842 205.59842 210.26882 215.59442 220.92003 226.92003 230.91603 234.24964 240.24964 246.24964 249.24964 254.57524 257.57527 263.57527 268.90086 272.23445 275.56803 280.89363 284.88963 287.88963 293.2152 298.5408 303.8664 309.8664 315.192 324.52558 327.85917 333.18476 336.18476 340.18077 346.18077 349.51435 355.51435 359.51036 364.83595 367.83595 370.61875 381.46437 384.79795 388.13154 394.13154 397.13154 402.45713 405.45713 411.45713 416.7827 420.1163 423.4499 429.4499 435.4499 440.77549 444.10908">force their children to study in the hope of securing a better academic future. With a national </tspan></text>
<text fill="#0e101a" xml:space="preserve" transform="matrix(1 0 -0 1 72 555.7383)" font-size="12" font-family="TimesNewRomanPSMT"><tspan y="0" x="0 3.3336006 9.333601 14.659202 20.659203 26.659203 32.659204 41.325605 47.325605 50.325605 53.659208 59.659208 62.659208 67.9848 71.7636 75.759609 81.085208 86.410808 89.7444 92.7444 98.7444 104.7444 110.07 113.07 116.403598 122.403598 125.403598 128.7372 134.7372 140.0628 143.0628 151.0668 159.7332 168.3996 172.3956 181.062 185.058 191.058 197.058 200.058 206.058 211.3836 217.3836 223.3836 228.70922 238.04282 241.37642 246.70203 249.70203 252.70203 256.69804 262.69804 268.69804 272.03163 277.3572 283.3572 286.3572 291.02763 296.3532 302.3532 308.3532 314.3532 317.6868 320.6868 325.3572 328.6908 334.6908 340.6908 346.0164 352.0164 355.34999 360.0204 363.0204 369.0204 374.34599 380.34599 385.67158 388.67158 393.99717 399.99717 405.99717 409.99317 415.31877 419.98918 424.65959 429.98518 435.98518">lockdown in effect due to the COVID-19 pandemic, Indian school students have expressed </tspan></text>
<text fill="#0e101a" xml:space="preserve" transform="matrix(1 0 -0 1 72 585.2285)" font-size="12" font-family="TimesNewRomanPSMT"><tspan y="0" x="0 3.3336006 9.333601 14.659202 18.655201 23.980803 29.306405 33.976804 39.302404 45.302404 48.302404 52.9728 56.3064 60.3024 65.628 70.2984 74.9688 77.9688 83.9688 89.9688 95.2944 98.2944 101.628 107.628 110.628 116.628 122.628 127.9536 133.2792 137.2752 140.60881 145.93442 149.26802 155.26802 158.60163 164.60163 167.60163 170.93523 176.93523 179.93523 183.26883 189.26883 194.59444 197.92804 201.92404 204.92404 210.24965 215.57526 220.90087 226.90087 232.22647 241.56008 244.89368 250.21929 253.21929 257.21528 263.21528 266.54887 272.54887 276.54487 281.87046 284.87046 290.19606 296.19606 302.19606 305.19606 308.52964 314.52964 319.85523 323.63404 327.63005 330.96363 336.2892 339.6228 344.9484 350.9484 354.28199 357.28199 360.61558 365.94117 371.26676 375.26277 381.26277 384.59635 390.59635 396.59635 399.59635 405.59635 408.92994 414.25553 417.25553 423.25553 429.25553 432.5891 435.9227 441.9227 447.2483">increased stress due to uncertainty in their academic future and inefficient learning via online </tspan></text>
<text fill="#0e101a" xml:space="preserve" transform="matrix(1 0 -0 1 72 614.7188)" font-size="12" font-family="TimesNewRomanPSMT"><tspan y="0" x="0 5.3256008 8.659201 13.984801 18.655201 23.3256 28.651202 33.3216 36.3216">classes. </tspan></text>
<g id="Layer-2" data-name="Span">
<text fill="#0e101a" xml:space="preserve" transform="matrix(1 0 -0 1 72 614.7188)" font-size="12" font-family="TimesNewRomanPSMT"><tspan y="0" x="39.32227"> </tspan></text>
</g>
</g>
<g id="Layer-1" data-name="P">
<text fill="#0e101a" xml:space="preserve" transform="matrix(1 0 -0 1 108 644.209)" font-size="12" font-family="TimesNewRomanPSMT"><tspan y="0" x="0 10.670402 16.670403 20.666403 25.992005 31.992005 37.992006 43.317605 46.833604 49.833604 52.833604 56.167203 62.167203 67.4928 70.4928 73.82639 79.82639 85.15199 89.147998 94.473598 99.799198 104.4696 109.7952 115.7952 118.7952 124.7952 128.7912 134.1168 138.7872 143.4576 149.4576 153.4536 158.7792 161.7792 167.10482 173.10482 182.43842 187.76403 192.43442 195.43442 200.76003 204.09363 210.09363 216.09363 222.09363 226.76403 230.09763 236.09763 241.42324 244.42324 249.74884 252.74884 258.74885 262.74485 268.07044 272.74085 276.07444 279.40803 284.7336 287.7336 293.0592 299.0592 304.3848 310.3848 316.3848 321.7104 324.7104 328.04399 334.04399 337.04399 341.7144 345.04798 351.04798 357.04798 362.37358 368.37358 371.70716 376.37757 378.53999 381.53999 387.53999 392.86558 396.19917 399.53276 405.53276">Moreover, the increased pressure comes alongside a drastic change in students' daily </tspan></text>
<text fill="#0e101a" xml:space="preserve" transform="matrix(1 0 -0 1 72 673.6992)" font-size="12" font-family="TimesNewRomanPSMT"><tspan y="0" x="0 3.996 9.996 15.996 19.329602 22.663203 28.663203 33.988805 38.659204 41.659204 46.984804 52.984804 58.984804 61.984804 65.3184 71.3184 76.644 79.97759 83.973598 86.973598 92.299198 98.299198 101.63279 104.966388 108.29998 111.633579 117.633579 120.633579 123.96717 129.96717 132.96717 138.29277 144.29277 150.29277 155.61838 161.61838 166.94399 169.94399 173.27759 179.27759 182.27759 187.6032 193.6032 199.6032 202.9368 208.9368 214.9368 217.9368 222.6072 225.9408 229.9368 235.2624 238.59601 243.92162 249.92162 253.25522 258.5808 263.25123 266.25123 272.25123 278.25123 283.5768 286.5768 289.9104 295.9104 298.9104 302.244 308.244 313.56959 316.56959 322.56959 327.89518 331.22877 334.56236 340.56236 346.56236 355.22877 358.56236 364.56236 369.88795 372.88795 376.22154 382.22154 387.54713 393.54713 399.54713 405.54713 414.21354 420.21354 423.21354 425.99635 433.32594 439.32594 444.65153 447.9851">routines and their ability to engage in coping strategies due to the nationwide lockdown. That </tspan></text>
<text fill="#0e101a" xml:space="preserve" transform="matrix(1 0 -0 1 72 703.18948)" font-size="12" font-family="TimesNewRomanPSMT"><tspan y="0" x="0 6 11.325601 14.659201 20.6592 26.6592 29.6592 34.3296 39.6552 42.988805 48.988805 51.988805 54.988805 59.659204 62.9928 68.9928 74.9928 80.3184 86.3184 89.65199 94.322399 97.322399 103.322399 108.647998 114.647998 119.973598 122.973598 127.644 130.9776 136.3032 140.29921 143.63282 148.95842 154.95842 157.95842 163.28403 169.28403 175.28403 180.60964 186.60964 189.94324 195.94324 201.94324 204.94324 208.27684 214.27684 217.27684 223.27684 226.61045 230.38925 234.38526 239.71086 243.70687 249.03247 255.03247 258.36607 261.36607 266.69166 272.69166 278.69166 282.02525 288.02525 294.02525 297.02525 306.35884 311.68443 315.018 321.018 327.018 333.018 337.68843 340.68843 346.014 349.3476 352.3476 358.3476 364.3476 373.68119 379.00679 382.00679 385.34037 391.34037 394.34037 399.66596 402.99955 406.33314 411.65873 417.65873 420.9923 426.3179 429.6515 434.97709 437.97709 442.6475 445.98109 449.97709 455.30268 459.97309 464.6435 467.6435">being said, students have started engaging in different coping methods at home to alleviate stress. </tspan></text>
</g>
</g>
</g>
</svg>
