<?xml version="1.0" encoding="UTF-8" standalone="no"?>
<!DOCTYPE svg PUBLIC "-//W3C//DTD SVG 1.1//EN" "http://www.w3.org/Graphics/SVG/1.1/DTD/svg11.dtd">
<svg xmlns="http://www.w3.org/2000/svg" xmlns:xlink="http://www.w3.org/1999/xlink" version="1.1" width="612pt" height="792pt" viewBox="0 0 612 792">
<g enable-background="new">
<clipPath id="cp177">
<path transform="matrix(1,0,0,-1,0,792)" d="M 0 0 L 612 0 L 612 792 L 0 792 Z "/>
</clipPath>
<g clip-path="url(#cp177)">
<path transform="matrix(1,0,0,-1,0,792)" d="M 0 792 L 612 792 L 612 0 L 0 0 Z " fill="#ffffff"/>
<g id="Layer-1" data-name="P">
</g>
<clipPath id="cp178">
<path transform="matrix(1,0,0,-1,0,792)" d="M 68.67773 72 L 543.3222 72 L 543.3222 723.3223 L 68.67773 723.3223 Z "/>
</clipPath>
<g clip-path="url(#cp178)">
<text fill="#0e101a" xml:space="preserve" transform="matrix(1 0 -0 1 72 83.89447)" font-size="12" font-family="TimesNewRomanPSMT"><tspan y="0" x="0 5.3256008 11.325601 17.3256 20.3256 28.992 34.3176 37.651205 40.984807 44.980806 50.980806 56.306406 59.640005 65.64 71.64 74.64 77.64 88.3104 94.3104 98.980808 102.3144 105.3144 109.9848 113.3184 119.3184 125.3184 130.644 136.644 139.9776 144.648 147.648 151.644 156.9696 162.9696 168.9696 172.9656 176.29921 181.62482 187.62482 190.62482 195.95043 201.95043 204.95043 208.28403 214.28403 219.60964 223.60564 228.93125 234.25685 238.92725 244.25286 247.25286 250.58646 256.58647 259.58647 264.91206 270.23765 275.56324 281.56324 286.88883 296.2224 299.556 304.8816 307.8816 312.552 315.8856 319.8816 325.20719 329.8776 334.548 337.548 343.548 349.548 354.8736 357.8736 361.20719 367.20719 370.20719 373.54078 379.54078 384.86637 387.86637 391.19996 397.19996 402.52555 408.52555 414.52555 420.52555 429.19197 435.19197 438.19197 441.19197 446.51756 451.18797">and well-being. Most students reported an increase in academic stress due to the lockdown, as </tspan></text>
<text fill="#0e101a" xml:space="preserve" transform="matrix(1 0 -0 1 72 113.38483)" font-size="12" font-family="TimesNewRomanPSMT"><tspan y="0" x="0 4.6704 10.670401 16.6704 25.3368 31.3368 34.3368 37.6704 43.6704 46.6704 50.004 56.004 61.3296 64.329608 70.329608 76.329608 80.32561 86.32561 92.32561 95.6592 101.6592 104.9928 107.9928 115.322399 118.65599 124.65599 129.9816 133.9776 137.3112 140.3112 144.9816 150.3072 155.63282 158.96642 164.29203 167.29203 172.61763 178.61763 183.94324 187.27684 193.27684 197.94724 201.28084 205.95124 208.95124 212.94724 219.43924 224.76485 230.76485 234.09845 239.42406 242.42406 248.42406 252.42006 255.42006 258.42005 267.08647 273.08647 278.41206 281.41206 286.08247 289.41606 295.41606 301.41606 306.74165 312.74165 316.07524 319.07524 323.07124 328.39683 333.06724 339.06724 345.06724 351.06724 357.06724 362.39283 368.39283 371.39283 374.7264 380.7264 386.052 389.3856 392.3856 397.284 405.9504 410.62083 416.62083 421.9464 425.28 428.6136 434.6136 437.6136 441.6096 443.772 453.1056 456.1056 461.43119">shown in the 10-point Likert scale analysis (Table 7). One student responded that "Usually I'm a </tspan></text>
<text fill="#0e101a" xml:space="preserve" transform="matrix(1 0 -0 1 72 142.875)" font-size="12" font-family="TimesNewRomanPSMT"><tspan y="0" x="0 5.3256008 11.325601 17.3256 20.6592 23.6592 28.984803 34.984804 40.984804 43.984804 49.310403 54.636 57.9696 67.3032 71.2992 77.2992 82.6248 87.9504 93.9504 99.276 105.276 108.276 114.276 119.6016 123.5976 128.268 134.268 140.268 143.268 146.268 152.268 158.268 161.60161 164.60161 168.59761 170.76001 180.09362 183.09362 186.42722 192.42722 197.09761 200.43122 206.43122 212.43122 215.43122 218.76482 222.09842 225.09842 231.09842 237.09842 245.76482 250.66321 253.66321 257.6592 264.33363 269.6592 273.6552 276.9888 280.3224 285.64799 288.98158 294.98158 300.30717 306.30717 309.64076 312.64076 318.64076 324.64076 328.63676 331.63676 334.63676 339.30717 342.64076 348.64076 354.64076 357.97434 361.97035 367.97035 371.30393 377.30393 383.30393 386.30393 391.62953 397.62953 400.9631 404.9591 410.2847 419.6183 424.94389 427.94389 431.27748 436.60307 442.60307 447.92866 451.26225 455.93266">cool and calm-headed person, but I'm losing it now" (Participant 90), signifying extreme levels </tspan></text>
<text fill="#0e101a" xml:space="preserve" transform="matrix(1 0 -0 1 72 172.36518)" font-size="12" font-family="TimesNewRomanPSMT"><tspan y="0" x="0 6 9.996 12.996 18.321602 23.647204 28.972805 34.972806 40.298406 49.632009 52.96561 58.29121 61.29121 65.96162 69.29521 73.291217 78.61681 83.28722 87.95762 90.95762 96.28322 102.28322 108.28322 111.28322 117.28322 121.27922 126.60482 131.27523 135.94562 141.94562 145.94162 151.26723 154.26723 162.93363 166.26723 169.60083 175.60083 181.60083 187.60083 190.93444 193.93444 199.26004 205.26004 211.26004 214.26004 223.59365 228.91925 234.24486 240.24486 244.91526 247.91526 253.91526 257.91127 260.91127 266.23686 272.23686 278.23686 281.57044 287.57044 293.57044 296.57044 305.23686 308.57044 311.90403 317.90403 320.90403 324.2376 330.2376 335.5632 338.5632 344.5632 347.8968 352.5672 355.9008 359.8968 365.22239 369.8928 374.5632 377.8968 383.8968 389.8968 392.8968 398.22239 404.22239 410.22239 413.55598 417.55198 423.55198 429.55198 438.88557 444.21116 450.21116 453.54475 456.54475">of academic stress and pressure without any means of coping with the distressing environment. </tspan></text>
<text fill="#0e101a" xml:space="preserve" transform="matrix(1 0 -0 1 72 201.85553)" font-size="12" font-family="TimesNewRomanPSMT"><tspan y="0" x="0 6.674401 10.008 16.008 22.008 27.333601 33.333604 36.667203 41.3376 44.3376 49.6632 55.6632 61.6632 65.6592 70.9848 75.655208 80.32561 85.65121 91.65121 94.65121 99.97681 105.97681 111.97681 117.30241 122.628009 126.62401 132.62401 137.2944 140.2944 144.2904 150.2904 154.2864 157.2864 162.61202 165.61202 170.93762 176.93762 182.26323 188.26323 194.26323 199.58884 205.58884 208.58884 214.58884 217.92244 223.92244 227.25605 233.25605 239.25605 242.58965 247.91526 253.24086 256.57447 259.57447 264.90007 268.23365 274.23365 279.55924 285.55924 288.55924 291.55924 294.89283 300.2184 305.544 308.8776 314.8776 320.2032 324.8736 329.544 332.544 335.544 338.8776 344.2032 349.52879 355.52879 358.52879 364.52879 368.52479 371.52479 377.52479 381.52079 387.52079 393.52079 399.52079 404.84638 408.17997 411.51356 417.51356 420.84715 424.18074 429.40193 432.40193 435.40193 440.7275 446.7275 452.7275">Students expressed concerns for a changed biological clock, laziness, lack of productivity, and </tspan></text>
<text fill="#0e101a" xml:space="preserve" transform="matrix(1 0 -0 1 72 231.3457)" font-size="12" font-family="TimesNewRomanPSMT"><tspan y="0" x="0 6 11.325601 20.659203 26.659203 31.984805 35.980806 41.306406 47.306406 50.306406 56.306406 61.632005 64.9656 68.299198 74.299198 77.299198 81.2952 87.2952 93.2952 96.62879 99.96239 105.96239 111.28799 115.95839 118.95839 122.291988 128.29199 133.6176 137.6136 142.93921 148.26482 152.93521 156.26882 162.26882 168.26882 171.26882 177.26882 180.60242 185.27281 190.59842 196.59842 202.59842 205.93202 211.25763 217.25763 220.59123 229.92484 235.25045 241.25045 244.58405 247.58405 252.90966 258.90968 264.90968 267.90968 273.23527 279.23527 285.23527 288.56886 293.89445 297.22804 302.44923 305.44923 308.44923 317.11564 323.11564 331.78205 337.10765 343.10765 348.43324 351.94923 354.94923 357.94923 361.94523 367.94523 371.94123 374.94123 379.61164 385.61164 394.94523 400.2708 403.2708 407.94123 411.2748 417.2748 423.2748 428.6004 434.6004 437.934 442.6044 445.6044 448.6044 451.938 457.938 463.26359">hampered daily routines increasing discontentment and anxiety. However, for some students, the </tspan></text>
<text fill="#0e101a" xml:space="preserve" transform="matrix(1 0 -0 1 72 260.83589)" font-size="12" font-family="TimesNewRomanPSMT"><tspan y="0" x="0 3.3336006 9.333601 14.659202 20.659203 26.659203 32.659204 41.325605 47.325605 50.325605 56.325605 61.651205 66.32161 69.32161 73.31761 78.64321 83.313617 89.313617 92.64721 95.980808 101.306407 107.306407 110.306407 113.64 119.64 122.64 128.64 133.9656 139.29122 143.28722 148.61283 153.93843 158.60883 163.93444 169.93444 172.93444 178.93444 182.93044 188.25605 192.92644 197.59683 203.59683 207.59284 212.91844 215.91844 221.24405 227.24405 233.24405 236.24405 240.24005 245.56566 251.56566 257.56568 262.89128 268.21687 274.21687 277.21687 282.54246 287.86805 293.19364 299.19364 304.51924 313.8528 317.1864 322.512 325.512 330.1824 333.516 337.512 342.8376 347.508 352.1784 355.1784 358.1784 364.8528 370.8528 374.84883 377.84883 383.1744 389.1744 394.5 403.8336 409.8336 413.16719 418.49278 421.49278 424.49278 430.49278 436.49278 441.81837">lockdown has resulted in decreased pressure and reduced academic stress. For example, one </tspan></text>
<text fill="#0e101a" xml:space="preserve" transform="matrix(1 0 -0 1 72 290.3262)" font-size="12" font-family="TimesNewRomanPSMT"><tspan y="0" x="0 3.996 9.3216 13.992001 19.992 25.992 31.992 37.992 43.3176 49.3176 52.651205 55.651205 60.3216 65.6472 68.9808 74.9808 77.9808 80.9808 85.8792 93.2088 99.2088 102.5424 107.2128 110.2128 113.546398 119.546398 124.871997 130.872 136.872 142.872 151.53839 157.53839 160.53839 164.5344 169.86 173.1936 179.1936 184.51921 188.51522 191.51522 194.84882 200.84882 206.17443 212.17443 215.17443 221.17443 226.50003 229.83364 235.83364 241.83364 244.83364 249.50403 252.83763 256.83363 262.1592 266.82963 271.50004 275.49604 281.49604 284.82963 287.82963 290.82963 296.82963 302.1552 306.82563 309.82563 315.82563 321.1512 326.4768 332.4768 335.4768 339.4728 344.7984 348.132 353.45759 359.45759 362.79118 368.79118 374.79118 377.79118 380.79118 386.11677 392.11677 398.11677 401.11677 404.45036 410.45036 415.77595 419.77195 425.09754 429.09355 435.09355 439.08955 444.41514 447.41514 451.41114">respondent said, "This lockdown rather than being stressful, has been relaxing, and therefore I </tspan></text>
<text fill="#0e101a" xml:space="preserve" transform="matrix(1 0 -0 1 72 319.8164)" font-size="12" font-family="TimesNewRomanPSMT"><tspan y="0" x="0 6 9.3336 15.3336 18.3336 24.3336 30.3336 33.667203 36.667203 40.6632 45.9888 51.3144 54.648 57.9816 63.9816 66.9816 72.9816 78.3072 84.3072 89.6328 92.6328 95.96639 101.96639 104.96639 108.29999 113.62559 118.95119 124.95119 128.28479 133.6104 136.6104 141.28079 144.6144 148.6104 153.936 158.6064 163.2768 166.2768 171.6024 174.936 177.936 183.26161 186.59522 189.92882 194.82721 197.82721 201.82321 208.4976 213.82321 217.81922 221.15282 224.48642 229.81203 233.14563 239.14563 244.47124 250.47124 253.80484 256.80485 262.80485 268.80485 272.80085 275.80085 278.58366 285.91325 291.91325 297.23884 301.90925 307.23484 310.23484 314.23085 317.56443 323.56443 329.56443 332.898 338.898 344.898 349.56843 352.56843 357.23884 363.23884 369.23884 375.23884 381.23884 385.23484 388.56843 391.56843 394.902 400.902 406.2276 409.2276 413.2236 418.5492 423.2196 428.5452 433.8708 437.8668 443.19239 449.19239 454.51799 458.51399 460.6764 465.3468">did not really have to tackle stress at all" (Participant 79). These findings support the researcher's </tspan></text>
<text fill="#0e101a" xml:space="preserve" transform="matrix(1 0 -0 1 72 349.3066)" font-size="12" font-family="TimesNewRomanPSMT"><tspan y="0" x="0 6 12 18 24 27.333601 33.333604 38.659204 43.3296 46.663206 51.333604 54.333604 59.659204 65.6592 71.6592 74.6592 79.329608 85.329608 91.329608 97.329608 102.655208 107.32561 110.6592 113.6592 116.9928 122.9928 128.3184 131.65201 134.65201 143.3184 149.3184 152.65201 155.98561 161.31122 164.31122 168.98162 172.31522 176.31122 181.63683 186.30722 190.97762 193.97762 197.31122 202.63683 208.63683 213.96244 217.29604 221.96643 224.96643 228.96244 234.96244 238.95844 241.95844 251.29204 257.29206 261.96247 265.29606 268.29606 272.96647 276.30006 282.30006 288.30006 293.62565 299.62565 302.95924 307.62965 310.62965 313.96324 319.96324 325.28883 329.28483 334.6104 339.936 344.6064 349.932 355.932 358.932 364.932 370.932 374.928 378.2616 384.2616 390.2616 393.2616 396.59519 402.59519 407.92079 410.92079 418.92478 427.5912 436.2576 440.2536 448.92 452.91603 458.91603 464.91603">hypothesis and suggest that while stress levels for most students increased during the COVID-19 </tspan></text>
<text fill="#0e101a" xml:space="preserve" transform="matrix(1 0 -0 1 72 378.7969)" font-size="12" font-family="TimesNewRomanPSMT"><tspan y="0" x="0 3.3336006 9.333601 14.659202 20.659203 26.659203 32.659204 41.325605 47.325605 50.325605 53.325605 58.651205 61.651205 65.6472 70.9728 79.639209 82.639209 87.30961 90.6432 96.6432 102.6432 107.9688 113.9688 117.3024 121.9728 124.9728 128.9688 134.2944 138.9648 144.9648 150.9648 156.9648 162.9648 168.2904 174.2904 177.2904 185.9568 189.2904 192.62401 198.62401 201.62401 207.62401 212.94962 218.27523 222.27123 227.59683 232.92244 237.59284 242.91844 248.91844 251.91844 257.24403 262.5696 267.8952 273.8952 279.2208 288.55439 291.88798 297.21357 300.21357 304.88398 308.21757 312.21357 317.53916 322.20957 326.87998 329.87998 335.20558 341.20558 347.20558 350.20558 355.53117 358.53117 367.86476 373.86476 377.86076 383.18635 386.18635 391.51194 397.51194 406.84553 410.84153 416.84153 420.83753 424.1711 429.4967 435.4967 438.8303 444.15589">lockdown, a few students responded with decreased academic stress and a more comfortable </tspan></text>
<text fill="#0e101a" xml:space="preserve" transform="matrix(1 0 -0 1 72 408.2871)" font-size="12" font-family="TimesNewRomanPSMT"><tspan y="0" x="0 8.666401 14.666401 18.662402 24.662402 27.662402 32.3328 37.6584 43.6584 48.984 54.984 60.984 64.3176 69.643199">work schedule.</tspan></text>
<g id="Layer-2" data-name="Span">
<text fill="#0e101a" xml:space="preserve" transform="matrix(1 0 -0 1 72 408.2871)" font-size="12" font-family="TimesNewRomanPSMT"><tspan y="0" x="72.64453"> </tspan></text>
</g>
</g>
<g id="Layer-1" data-name="P">
<text xml:space="preserve" transform="matrix(1 0 -0 1 72 467.2676)" font-size="12" font-family="TimesNewRomanPS" font-weight="bold"><tspan y="0" x="0 6.9024007 12.902401 19.576802 22.910403 28.236004 31.236004">Table 7</tspan></text>
<text xml:space="preserve" transform="matrix(1 0 -0 1 72 467.2676)" font-size="12" font-family="TimesNewRomanPSMT"><tspan y="0" x="37.23633"> </tspan></text>
<g id="Layer-2" data-name="Span">
<text xml:space="preserve" transform="matrix(1 0 -0 1 72 467.2676)" font-size="12" font-family="TimesNewRomanPSMT"><tspan y="0" x="40.23633"> </tspan></text>
</g>
</g>
<g id="Layer-1" data-name="P">
<text xml:space="preserve" transform="matrix(1 0 -0 1 72 496.7578)" font-size="12" font-family="TimesNewRomanPS" font-style="italic"><tspan y="0" x="0 6.674401 10.008 15.3336 20.6592 25.329602 28.663203 31.663203 37.6632 42.9888 48.9888 52.3224 57.648 60.430799 67.76039 73.76039 79.76039 83.09399 88.419589 93.08999 96.423587">Likert Scale Analysis</tspan></text>
<g id="Layer-2" data-name="Span">
<text xml:space="preserve" transform="matrix(1 0 -0 1 72 496.7578)" font-size="12" font-family="TimesNewRomanPSMT"><tspan y="0" x="101.0977"> </tspan></text>
</g>
</g>
<g id="Layer-1" data-name="P">
</g>
<g id="Layer-1" data-name="P">
</g>
<clipPath id="cp179">
<path transform="matrix(1,0,0,-1,0,792)" d="M 71 154.1465 L 504 154.1465 L 504 278.14649 L 71 278.14649 Z "/>
</clipPath>
<g clip-path="url(#cp179)">
<path transform="matrix(1,0,0,-1,0,792)" d="M 72 276.1465 L 375.65 276.1465 L 375.65 252.1465 L 72 252.1465 Z " fill="#ffffff"/>
<path transform="matrix(1,0,0,-1,0,792)" d="M 375.65 276.1465 L 503 276.1465 L 503 252.1465 L 375.65 252.1465 Z " fill="#ffffff"/>
<path transform="matrix(1,0,0,-1,0,792)" d="M 72 252.1465 L 375.65 252.1465 L 375.65 228.1465 L 72 228.1465 Z " fill="#ffffff"/>
<path transform="matrix(1,0,0,-1,0,792)" d="M 375.65 252.1465 L 503 252.1465 L 503 228.1465 L 375.65 228.1465 Z " fill="#ffffff"/>
<path transform="matrix(1,0,0,-1,0,792)" d="M 72 228.1465 L 375.65 228.1465 L 375.65 204.1465 L 72 204.1465 Z " fill="#ffffff"/>
<path transform="matrix(1,0,0,-1,0,792)" d="M 375.65 228.1465 L 503 228.1465 L 503 204.1465 L 375.65 204.1465 Z " fill="#ffffff"/>
<path transform="matrix(1,0,0,-1,0,792)" d="M 72 204.1465 L 375.65 204.1465 L 375.65 180.1465 L 72 180.1465 Z " fill="#ffffff"/>
<path transform="matrix(1,0,0,-1,0,792)" d="M 375.65 204.1465 L 503 204.1465 L 503 180.1465 L 375.65 180.1465 Z " fill="#ffffff"/>
<path transform="matrix(1,0,0,-1,0,792)" d="M 72 180.1465 L 375.65 180.1465 L 375.65 156.1465 L 72 156.1465 Z " fill="#ffffff"/>
<path transform="matrix(1,0,0,-1,0,792)" d="M 375.65 180.1465 L 503 180.1465 L 503 156.1465 L 375.65 156.1465 Z " fill="#ffffff"/>
<g id="Layer-2" data-name="P">
<g id="Layer-3" data-name="P">
<g id="Layer-4" data-name="P">
<g id="Layer-5" data-name="P">
</g>
<clipPath id="cp180">
<path transform="matrix(1,0,0,-1,0,792)" d="M 72 252.6465 L 375.65 252.6465 L 375.65 275.64649 L 72 275.64649 Z "/>
</clipPath>
<g clip-path="url(#cp180)">
<text fill="#010204" xml:space="preserve" transform="matrix(1 0 -0 1 203.5071 532.1187)" font-size="12.5" font-family="TimesNewRomanPSMT"><tspan y="0" x="0 11.115001 16.6625 22.210001 27.075003 33.325006 37.487504">Measure</tspan></text>
</g>
</g>
<g id="Layer-4" data-name="P">
<g id="Layer-5" data-name="P">
</g>
<clipPath id="cp181">
<path transform="matrix(1,0,0,-1,0,792)" d="M 375.65 252.6465 L 503 252.6465 L 503 275.64649 L 375.65 275.64649 Z "/>
</clipPath>
<g clip-path="url(#cp181)">
<text fill="#010204" xml:space="preserve" transform="matrix(1 0 -0 1 426.2946 532.1187)" font-size="12.5" font-family="TimesNewRomanPSMT"><tspan y="0" x="0 7.6412508 13.188752 16.661253 22.911253">Value</tspan></text>
</g>
</g>
</g>
</g>
<g id="Layer-2" data-name="P">
<g id="Layer-3" data-name="P">
<g id="Layer-4" data-name="P">
<g id="Layer-5" data-name="P">
</g>
<clipPath id="cp182">
<path transform="matrix(1,0,0,-1,0,792)" d="M 72 228.1465 L 375.65 228.1465 L 375.65 251.6465 L 72 251.6465 Z "/>
</clipPath>
<g clip-path="url(#cp182)">
<text fill="#010204" xml:space="preserve" transform="matrix(1 0 -0 1 79 557.1187)" font-size="12.5" font-family="TimesNewRomanPSMT"><tspan y="0" x="0 11.115001 16.667502 22.220002">Mean</tspan></text>
</g>
</g>
<g id="Layer-4" data-name="P">
<g id="Layer-5" data-name="P">
</g>
<clipPath id="cp183">
<path transform="matrix(1,0,0,-1,0,792)" d="M 375.65 228.1465 L 503 228.1465 L 503 251.6465 L 375.65 251.6465 Z "/>
</clipPath>
<g clip-path="url(#cp183)">
<text fill="#010204" xml:space="preserve" transform="matrix(1 0 -0 1 429.5875 557.1187)" font-size="12.5" font-family="TimesNewRomanPSMT"><tspan y="0" x="0 6.25 9.375 15.625">6.10</tspan></text>
</g>
</g>
</g>
<g id="Layer-3" data-name="P">
<g id="Layer-4" data-name="P">
<g id="Layer-5" data-name="P">
</g>
<clipPath id="cp184">
<path transform="matrix(1,0,0,-1,0,792)" d="M 72 204.1465 L 375.65 204.1465 L 375.65 228.1465 L 72 228.1465 Z "/>
</clipPath>
<g clip-path="url(#cp184)">
<text fill="#010204" xml:space="preserve" transform="matrix(1 0 -0 1 79 580.6187)" font-size="12.5" font-family="TimesNewRomanPSMT"><tspan y="0" x="0 11.115001 17.365002 23.615002">Mode</tspan></text>
</g>
</g>
<g id="Layer-4" data-name="P">
<g id="Layer-5" data-name="P">
</g>
<clipPath id="cp185">
<path transform="matrix(1,0,0,-1,0,792)" d="M 375.65 204.1465 L 503 204.1465 L 503 228.1465 L 375.65 228.1465 Z "/>
</clipPath>
<g clip-path="url(#cp185)">
<text fill="#010204" xml:space="preserve" transform="matrix(1 0 -0 1 437.4 580.6187)" font-size="12.5" font-family="TimesNewRomanPSMT"><tspan y="0" x="0">5</tspan></text>
</g>
</g>
</g>
<g id="Layer-3" data-name="P">
<g id="Layer-4" data-name="P">
<g id="Layer-5" data-name="P">
</g>
<clipPath id="cp186">
<path transform="matrix(1,0,0,-1,0,792)" d="M 72 180.1465 L 375.65 180.1465 L 375.65 204.1465 L 72 204.1465 Z "/>
</clipPath>
<g clip-path="url(#cp186)">
<text fill="#010204" xml:space="preserve" transform="matrix(1 0 -0 1 79 604.6187)" font-size="12.5" font-family="TimesNewRomanPSMT"><tspan y="0" x="0 11.115001 16.6625 22.9125 26.385 31.9325">Median</tspan></text>
</g>
</g>
<g id="Layer-4" data-name="P">
<g id="Layer-5" data-name="P">
</g>
<clipPath id="cp187">
<path transform="matrix(1,0,0,-1,0,792)" d="M 375.65 180.1465 L 503 180.1465 L 503 204.1465 L 375.65 204.1465 Z "/>
</clipPath>
<g clip-path="url(#cp187)">
<text fill="#010204" xml:space="preserve" transform="matrix(1 0 -0 1 437.4 604.6187)" font-size="12.5" font-family="TimesNewRomanPSMT"><tspan y="0" x="0">6</tspan></text>
</g>
</g>
</g>
<g id="Layer-3" data-name="P">
<g id="Layer-4" data-name="P">
<g id="Layer-5" data-name="P">
</g>
<clipPath id="cp188">
<path transform="matrix(1,0,0,-1,0,792)" d="M 72 156.6465 L 375.65 156.6465 L 375.65 180.1465 L 72 180.1465 Z "/>
</clipPath>
<g clip-path="url(#cp188)">
<text fill="#010204" xml:space="preserve" transform="matrix(1 0 -0 1 79 628.6187)" font-size="12.5" font-family="TimesNewRomanPSMT"><tspan y="0" x="0 6.952501 10.425002 15.972503 22.222504 28.472504 34.020006 38.182504 44.432504 47.557504 56.585004 62.132505 68.38251 71.855 77.402507 80.875 84.347499 90.597499">Standard Deviation</tspan></text>
</g>
</g>
<g id="Layer-4" data-name="P">
<g id="Layer-5" data-name="P">
</g>
<clipPath id="cp189">
<path transform="matrix(1,0,0,-1,0,792)" d="M 375.65 156.6465 L 503 156.6465 L 503 180.1465 L 375.65 180.1465 Z "/>
</clipPath>
<g clip-path="url(#cp189)">
<text fill="#010204" xml:space="preserve" transform="matrix(1 0 -0 1 426.4625 628.6187)" font-size="12.5" font-family="TimesNewRomanPSMT"><tspan y="0" x="0 6.25 9.375 15.625 21.875">1.876</tspan></text>
</g>
</g>
</g>
</g>
<clipPath id="cp190">
<path transform="matrix(1,0,0,-1,0,792)" d="M 71 154.1465 L 504 154.1465 L 504 278.14649 L 71 278.14649 Z "/>
</clipPath>
<g clip-path="url(#cp190)">
<path transform="matrix(1,0,0,1,71,513.8535)" stroke-width="1" stroke-linecap="butt" stroke-miterlimit="4" stroke-linejoin="miter" fill="none" stroke="#000000" d="M 1 26 L 432 26 "/>
<path transform="matrix(1,0,0,1,71,513.8535)" stroke-width="1" stroke-linecap="butt" stroke-miterlimit="4" stroke-linejoin="miter" fill="none" stroke="#000000" d="M 1 2 L 432 2 "/>
<path transform="matrix(1,0,0,1,71,513.8535)" stroke-width="1" stroke-linecap="butt" stroke-miterlimit="4" stroke-linejoin="miter" fill="none" stroke="#000000" d="M 1 122 L 432 122 "/>
</g>
</g>
</g>
</g>
</svg>
