<?xml version="1.0" encoding="UTF-8" standalone="no"?>
<!DOCTYPE svg PUBLIC "-//W3C//DTD SVG 1.1//EN" "http://www.w3.org/Graphics/SVG/1.1/DTD/svg11.dtd">
<svg xmlns="http://www.w3.org/2000/svg" xmlns:xlink="http://www.w3.org/1999/xlink" version="1.1" width="612pt" height="792pt" viewBox="0 0 612 792">
<g enable-background="new">
<clipPath id="cp276">
<path transform="matrix(1,0,0,-1,0,792)" d="M 0 0 L 612 0 L 612 792 L 0 792 Z "/>
</clipPath>
<g clip-path="url(#cp276)">
<path transform="matrix(1,0,0,-1,0,792)" d="M 0 792 L 612 792 L 612 0 L 0 0 Z " fill="#ffffff"/>
<g id="Layer-1" data-name="P">
<g id="Layer-2" data-name="P">
</g>
<clipPath id="cp277">
<path transform="matrix(1,0,0,-1,0,792)" d="M 68.67773 67.89258 L 543.3222 67.89258 L 543.3222 723.32229 L 68.67773 723.32229 Z "/>
</clipPath>
<g clip-path="url(#cp277)">
<text xml:space="preserve" transform="matrix(1 0 -0 1 72 83.89447)" font-size="12" font-family="TimesNewRomanPSMT"><tspan y="0" x="0 8.004001 13.3296 22.6632 28.6632 32.6592 35.9928 41.9928 47.9928 53.3184 56.3184 64.9848 68.3184 73.644 76.97759 80.31119 86.31119 92.31119 97.63679 101.63279 106.85399 109.85399 112.85399 116.84999 122.84999 125.84999 131.84999 134.84999 138.846 141.846 144.846 152.84999 158.84999 164.1756 169.5012 175.5012 178.83481 184.83481 190.83481 193.83481 196.83481 200.83081 206.83081">Cambridge Dictionary. (n.d.). Coaching. In </tspan></text>
</g>
<g id="Layer-2" data-name="P">
<text xml:space="preserve" transform="matrix(1 0 -0 1 72 83.89447)" font-size="12" font-family="TimesNewRomanPS" font-style="italic"><tspan y="0" x="209.8359 215.8359 219.16951 224.49512 227.82872 231.16233 237.16233 243.16233 249.16233 253.83272 258.4971 261.4971 266.8227 272.8227 281.4891 287.4891 292.15953 295.4931 301.4931 307.4931 312.8187 315.8187 321.8187 326.04389 332.04389 335.04389 341.04389 344.37748 349.70307 353.03666 356.37025 362.37025 368.37025 374.37025 379.04066">dictionary.cambridge.org dictionary</tspan></text>
</g>
<g id="Layer-2" data-name="P">
<text xml:space="preserve" transform="matrix(1 0 -0 1 72 83.89447)" font-size="12" font-family="TimesNewRomanPSMT"><tspan y="0" x="384.3691 387.3691">. </tspan></text>
</g>
<g id="Layer-2" data-name="P">
<text fill="#0e101a" xml:space="preserve" transform="matrix(1 0 -0 1 72 83.89447)" font-size="12" font-family="TimesNewRomanPSMT"><tspan y="0" x="390.3691 398.3731 403.6987 407.0323 411.0283 414.36189 419.68748 425.68748 431.01307 437.01307 440.01307 444.68348 450.68348 456.68348 462.00907">Retrieved June </tspan></text>
</g>
<g id="Layer-2" data-name="P">
<text fill="#0e101a" xml:space="preserve" transform="matrix(1 0 -0 1 108 113.38483)" font-size="12" font-family="TimesNewRomanPSMT"><tspan y="0" x="0 6 12 15 18 24 30 36 42 45 48 51.996 55.991998 61.991998 71.32559">16, 2020, from </tspan></text>
</g>
<g id="Layer-2" data-name="P">
<text fill="#4a6ee0" xml:space="preserve" transform="matrix(1 0 -0 1 108 113.38483)" font-size="12" font-family="TimesNewRomanPSMT"><tspan y="0" x="74.32617 80.32617 83.65977 86.99336 92.99336 97.663768 100.99736 104.330959 107.66455 113.66455 116.998149 122.323749 125.65734 128.99095 134.99095 140.99095 146.31656 150.31256 155.53377 158.53377 163.85938 169.18498 178.51859 184.51859 188.51459 191.84819 197.84819 203.84819 209.1738 212.1738 218.1738 221.9526 227.9526 231.28621 237.28621 240.61981 245.94542 249.27902 252.61263 258.6126 264.6126 269.9382 273.9342 279.9342 283.2678 288.59339 294.59339 300.59339 303.92698 307.26057 311.93098 317.93098 321.26457 326.59016 332.59016 337.91575 343.24134 349.24134 352.57493 358.57493">https://dictionary.cambridge.org/dictionary/english/coaching</tspan></text>
</g>
<g id="Layer-2" data-name="P">
<g id="Layer-3" data-name="Span">
<text xml:space="preserve" transform="matrix(1 0 -0 1 108 113.38483)" font-size="10" font-family="TimesNewRomanPSMT"><tspan y="0" x="364.5879"> </tspan></text>
</g>
</g>
</g>
<g id="Layer-1" data-name="P">
<g id="Layer-2" data-name="P">
<text xml:space="preserve" transform="matrix(1 0 -0 1 72 142.875)" font-size="12" font-family="TimesNewRomanPSMT"><tspan y="0" x="0 8.004001 13.3296 22.6632 28.6632 32.6592 35.9928 41.9928 47.9928 53.3184 56.3184 64.9848 68.3184 73.644 76.97759 80.31119 86.31119 92.31119 97.63679 101.63279 106.85399 109.85399 112.85399 116.84999 122.84999 125.84999 131.84999 134.84999 138.846 141.846 144.846 151.52039 154.85399 158.84999 164.1756 169.5012 178.83481 181.83481 184.83481 188.83081 194.83081">Cambridge Dictionary. (n.d.). Stream. In </tspan></text>
</g>
<g id="Layer-2" data-name="P">
<text xml:space="preserve" transform="matrix(1 0 -0 1 72 142.875)" font-size="12" font-family="TimesNewRomanPS" font-style="italic"><tspan y="0" x="197.8359 203.8359 207.16951 212.49512 215.82872 219.16233 225.16233 231.16233 237.16233 241.83272 246.49712 249.49712 254.82273 260.82273 269.48915 275.48915 280.15956 283.49314 289.49314 295.49314 300.81874 303.81874 309.81874 314.0439 320.0439 323.0439 329.0439 332.3775 337.7031 341.03669 344.37028 350.37028 356.37028 362.37028 367.04069">dictionary.cambridge.org dictionary</tspan></text>
</g>
<g id="Layer-2" data-name="P">
<text xml:space="preserve" transform="matrix(1 0 -0 1 72 142.875)" font-size="12" font-family="TimesNewRomanPSMT"><tspan y="0" x="372.3691 375.3691">. </tspan></text>
</g>
<g id="Layer-2" data-name="P">
<text fill="#0e101a" xml:space="preserve" transform="matrix(1 0 -0 1 72 142.875)" font-size="12" font-family="TimesNewRomanPSMT"><tspan y="0" x="378.3691 386.3731 391.6987 395.0323 399.0283 402.36189 407.68748 413.68748 419.01307 425.01307 428.01307 432.68348 438.68348 444.68348 450.00907">Retrieved June </tspan></text>
</g>
<g id="Layer-2" data-name="P">
<text fill="#0e101a" xml:space="preserve" transform="matrix(1 0 -0 1 108 172.36518)" font-size="12" font-family="TimesNewRomanPSMT"><tspan y="0" x="0 6 12 15 18 24 30 36 42 45 48 51.996 55.991998 61.991998 71.32559">16, 2020, from </tspan></text>
</g>
<g id="Layer-2" data-name="P">
<text fill="#4a6ee0" xml:space="preserve" transform="matrix(1 0 -0 1 108 172.36518)" font-size="12" font-family="TimesNewRomanPSMT"><tspan y="0" x="74.32617 80.32617 83.65977 86.99336 92.99336 97.663768 100.99736 104.330959 107.66455 113.66455 116.998149 122.323749 125.65734 128.99095 134.99095 140.99095 146.31656 150.31256 155.53377 158.53377 163.85938 169.18498 178.51859 184.51859 188.51459 191.84819 197.84819 203.84819 209.1738 212.1738 218.1738 221.9526 227.9526 231.28621 237.28621 240.61981 245.94542 249.27902 252.61263 258.6126 264.6126 269.9382 273.9342 279.9342 283.2678 288.59339 294.59339 300.59339 303.92698 307.26057 311.93098 317.93098 321.26457 325.93498 329.26856 333.26457 338.59016 343.91575">https://dictionary.cambridge.org/dictionary/english/stream</tspan></text>
</g>
<g id="Layer-2" data-name="P">
<g id="Layer-3" data-name="Span">
<text xml:space="preserve" transform="matrix(1 0 -0 1 108 172.36518)" font-size="10" font-family="TimesNewRomanPSMT"><tspan y="0" x="353.2617"> </tspan></text>
</g>
</g>
</g>
<g id="Layer-1" data-name="P">
<g id="Layer-2" data-name="P">
<text xml:space="preserve" transform="matrix(1 0 -0 1 72 201.85553)" font-size="12" font-family="TimesNewRomanPSMT"><tspan y="0" x="0 8.004001 13.3296 22.6632 28.6632 32.6592 35.9928 41.9928 47.9928 53.3184 56.3184 64.9848 68.3184 73.644 76.97759 80.31119 86.31119 92.31119 97.63679 101.63279 106.85399 109.85399 112.85399 116.84999 122.84999 125.84999 131.84999 134.84999 138.846 141.846 144.6288 151.5372 157.5372 160.8708 164.2044 167.53801 173.53801 179.53801 182.53801 185.53801 189.53401 195.53401">Cambridge Dictionary. (n.d.). Tuition. In </tspan></text>
</g>
<g id="Layer-2" data-name="P">
<text xml:space="preserve" transform="matrix(1 0 -0 1 72 201.85553)" font-size="12" font-family="TimesNewRomanPS" font-style="italic"><tspan y="0" x="198.5391 204.5391 207.8727 213.1983 216.5319 219.86551 225.86551 231.86551 237.86551 242.5359 247.2003 250.2003 255.52591 261.5259 270.19233 276.19233 280.86274 284.19633 290.19633 296.19633 301.5219 304.5219 310.5219 314.7471 320.7471 323.7471 329.7471 333.0807 338.40629 341.73988 345.07347 351.07347 357.07347 363.07347 367.74388">dictionary.cambridge.org dictionary</tspan></text>
</g>
<g id="Layer-2" data-name="P">
<text xml:space="preserve" transform="matrix(1 0 -0 1 72 201.85553)" font-size="12" font-family="TimesNewRomanPSMT"><tspan y="0" x="373.0723 376.0723">. </tspan></text>
</g>
<g id="Layer-2" data-name="P">
<text fill="#0e101a" xml:space="preserve" transform="matrix(1 0 -0 1 72 201.85553)" font-size="12" font-family="TimesNewRomanPSMT"><tspan y="0" x="379.0723 387.0763 392.4019 395.73548 399.73149 403.06507 408.39067 414.39067 419.71626 425.71626 428.71626 433.38667 439.38667 445.38667 450.71226">Retrieved June </tspan></text>
</g>
<g id="Layer-2" data-name="P">
<text fill="#0e101a" xml:space="preserve" transform="matrix(1 0 -0 1 108 231.3457)" font-size="12" font-family="TimesNewRomanPSMT"><tspan y="0" x="0 6 12 15 18 24 30 36 42 45 48 51.996 55.991998 61.991998 71.32559">16, 2020, from </tspan></text>
</g>
<g id="Layer-2" data-name="P">
<text fill="#4a6ee0" xml:space="preserve" transform="matrix(1 0 -0 1 108 231.3457)" font-size="12" font-family="TimesNewRomanPSMT"><tspan y="0" x="74.32617 80.32617 83.65977 86.99336 92.99336 97.663768 100.99736 104.330959 107.66455 113.66455 116.998149 122.323749 125.65734 128.99095 134.99095 140.99095 146.31656 150.31256 155.53377 158.53377 163.85938 169.18498 178.51859 184.51859 188.51459 191.84819 197.84819 203.84819 209.1738 212.1738 218.1738 221.9526 227.9526 231.28621 237.28621 240.61981 245.94542 249.27902 252.61263 258.6126 264.6126 269.9382 273.9342 279.9342 283.2678 288.59339 294.59339 300.59339 303.92698 307.26057 311.93098 317.93098 321.26457 324.59815 330.59815 333.93174 337.26533 340.5989 346.5989">https://dictionary.cambridge.org/dictionary/english/tuition</tspan></text>
</g>
<g id="Layer-2" data-name="P">
<g id="Layer-3" data-name="Span">
<text xml:space="preserve" transform="matrix(1 0 -0 1 108 231.3457)" font-size="10" font-family="TimesNewRomanPSMT"><tspan y="0" x="352.6113"> </tspan></text>
</g>
</g>
</g>
<g id="Layer-1" data-name="P">
<g id="Layer-2" data-name="P">
<text xml:space="preserve" transform="matrix(1 0 -0 1 72 260.83589)" font-size="12" font-family="TimesNewRomanPSMT"><tspan y="0" x="0 8.666401 13.992002 19.992 22.992 25.992 32.6664 35.6664 38.6664 41.6664 48.3408 51.674406 55.670404 61.670404 67.6704 71.004 74.004 77.004 84.333599 87.333599 90.333599 93.333599 102.66719 105.66719 112.34159 118.34159 124.34159 127.34159 130.34159 135.01198 138.01198 141.01198 145.00798 151.00798 157.00798 163.00798 169.00798 173.00399 176.00399 178.34159 187.00798 192.33359 197.6592 203.6592 208.9848 218.3184 221.65201 226.97762 229.97762 234.64801 237.98162 241.97762 247.30323 251.97362 256.64405 259.64405 262.64405 268.64405 273.96965 277.96565 283.29124 289.29124 292.62483 297.9504 301.284 304.284 310.284 314.28 319.6056 324.276 328.9464 334.9464 338.9424 344.268 347.268 350.268 355.5936 361.5936 367.5936 370.9272 376.25279 379.58638 385.58638 388.58638 393.91197 399.91197 405.91197 408.91197 418.24555 423.57115 429.57115 432.90473 438.23033 441.5639">Deb, S., Strodl, E., &#x0026; Sun, J. (2015). Academic stress, parental pressure, anxiety and mental </tspan></text>
</g>
<g id="Layer-2" data-name="P">
<text xml:space="preserve" transform="matrix(1 0 -0 1 108 290.3262)" font-size="12" font-family="TimesNewRomanPSMT"><tspan y="0" x="0 6 11.325601 16.651202 19.984803 23.318404 29.318404 32.318407 37.644006 46.977605 52.977605 58.977605 64.9776 67.9776 71.9736 77.9736 83.9736 87.3072 92.6328 98.6328 101.6328 107.6328 110.96639 116.96639 122.96639 125.96639 130.6368 135.9624 141.9624 147.9624 153.9624 157.296 160.296 164.9664 168.3 174.3 180.3 185.62561 191.62561 194.95922 199.62961 202.62961">health among Indian high school students. </tspan></text>
</g>
<g id="Layer-2" data-name="P">
<text xml:space="preserve" transform="matrix(1 0 -0 1 108 290.3262)" font-size="12" font-family="TimesNewRomanPS" font-style="italic"><tspan y="0" x="205.6348 209.6308 215.6308 218.9644 224.29001 228.9604 234.9604 240.9604 244.294 247.62761 253.62761 259.62763 265.62763 268.9612 271.9612 277.2868 283.2868 289.2868 293.9572 299.9572 305.9572 309.2908 312.2908 318.2908 321.6244 324.6244 331.95399 336.6244 341.94999 347.27558 353.27558 359.27558 362.60917 368.60917 374.60917 379.93476 382.93476 388.93476 394.93476 400.93476">International Journal of Psychology and </tspan></text>
</g>
<g id="Layer-2" data-name="P">
<text xml:space="preserve" transform="matrix(1 0 -0 1 108 319.8164)" font-size="12" font-family="TimesNewRomanPS" font-style="italic"><tspan y="0" x="0 7.3296 12.6552 18.655201 24.655201 29.980803 33.314405 39.314405 43.984804 49.984804 53.3184 56.3184 62.3184 67.644 70.97759 76.30319 82.30319 87.62879 92.95439 97.624797 100.624797 103.624797">Behavioral Sciences, 5</tspan></text>
</g>
<g id="Layer-2" data-name="P">
<text xml:space="preserve" transform="matrix(1 0 -0 1 108 319.8164)" font-size="12" font-family="TimesNewRomanPSMT"><tspan y="0" x="109.6289 113.6249 119.6249 123.6209 126.6209 129.62091 135.62091 141.62091 145.61692 151.61692 157.61692 160.61692">(1), 26-34. </tspan></text>
</g>
<g id="Layer-2" data-name="P">
<text fill="#4a6ee0" xml:space="preserve" transform="matrix(1 0 -0 1 108 319.8164)" font-size="12" font-family="TimesNewRomanPSMT"><tspan y="0" x="163.6172 169.6172 175.6172 178.6172 184.6172 190.6172 196.6172 202.6172 205.9508 209.28441 212.28441 215.61801 218.95162 224.95162 230.95162 235.62201 238.62201 244.62201 250.62201 256.622 262.622 268.622 274.622 280.622 286.622 289.622 295.622">10.5923/j.ijpbs.20150501.04</tspan></text>
</g>
<g id="Layer-2" data-name="P">
<g id="Layer-3" data-name="Span">
<text fill="#0e101a" xml:space="preserve" transform="matrix(1 0 -0 1 108 319.8164)" font-size="12" font-family="TimesNewRomanPSMT"><tspan y="0" x="301.623"> </tspan></text>
</g>
</g>
</g>
<g id="Layer-1" data-name="P">
<g id="Layer-2" data-name="P">
<text xml:space="preserve" transform="matrix(1 0 -0 1 72 349.3066)" font-size="12" font-family="TimesNewRomanPSMT"><tspan y="0" x="0 8.666401 13.992002 19.992 25.317603 29.313603 32.647207 41.98081 47.306409 53.306409 56.64001 59.64001 65.640018 69.63602 72.63602 79.31042 84.63602 90.63602 96.63602 102.63602 105.96961 108.96961 116.29921 122.29921 128.29921 133.62482 138.95043 142.28403 145.61763 151.61763 157.61763 160.61763 169.95124 172.95124 180.28084 183.61444 186.94805 192.27365 196.26966 201.59526 206.92087 212.14208 215.14208 218.14208 222.13808 228.13808 234.13808 240.13808 246.13808 249.13808 252.13808 258.8125 264.1381 270.1381 274.1341 280.1341 285.4597 289.4557 295.4557 298.4557 304.0105 310.0105 314.0065 317.0065">Department of School Education &#x0026; Literacy. (2019, February 11). </tspan></text>
</g>
<g id="Layer-2" data-name="P">
<text xml:space="preserve" transform="matrix(1 0 -0 1 72 349.3066)" font-size="12" font-family="TimesNewRomanPS" font-style="italic"><tspan y="0" x="320.0156 327.34519 330.67878 336.67878 342.67878 346.01237 349.01237 352.34596 358.34596 361.34596 368.67555 374.67555 380.67555 386.00114 392.00114 395.33473 398.6683 404.6683">Right to Education</tspan></text>
</g>
<g id="Layer-2" data-name="P">
<text xml:space="preserve" transform="matrix(1 0 -0 1 72 349.3066)" font-size="12" font-family="TimesNewRomanPSMT"><tspan y="0" x="410.6719 413.6719 416.6719 427.34233 430.6759 436.6759 440.0095 444.6799 448.0135 452.0095 458.0095">. Ministry </tspan></text>
</g>
<g id="Layer-2" data-name="P">
<text xml:space="preserve" transform="matrix(1 0 -0 1 108 378.7969)" font-size="12" font-family="TimesNewRomanPSMT"><tspan y="0" x="0 6 9.996 12.996 21.6624 27.6624 36.996 42.321599 48.321599 51.321599 59.3256 64.6512 69.3216 75.3216 81.3216 85.317607 90.6432 95.9688 98.9688 107.63521 112.96081 118.96081 124.28641 127.62 133.62 139.62 148.9536 154.2792 160.2792 163.61281">of Human Resource Development.</tspan></text>
</g>
<g id="Layer-2" data-name="P">
<text xml:space="preserve" transform="matrix(1 0 -0 1 108 378.7969)" font-size="12" font-family="TimesNewRomanPS" font-style="italic"><tspan y="0" x="166.6172"> </tspan></text>
</g>
<g id="Layer-2" data-name="P">
<text fill="#4a6ee0" xml:space="preserve" transform="matrix(1 0 -0 1 108 378.7969)" font-size="12" font-family="TimesNewRomanPSMT"><tspan y="0" x="169.6172 175.6172 178.9508 182.28441 188.28441 192.9548 196.2884 199.62201 202.95561 212.28922 218.28922 222.28522 228.28522 231.28522 237.28522 243.28522 248.50643 251.50643 254.84003 260.84004 264.1736 268.16963 271.5032">https://mhrd.gov.in/rte</tspan></text>
</g>
<g id="Layer-2" data-name="P">
<g id="Layer-3" data-name="Span">
<text fill="#0e101a" xml:space="preserve" transform="matrix(1 0 -0 1 108 378.7969)" font-size="10" font-family="TimesNewRomanPSMT"><tspan y="0" x="276.832"> </tspan></text>
</g>
</g>
</g>
<g id="Layer-1" data-name="P">
<g id="Layer-2" data-name="P">
<text xml:space="preserve" transform="matrix(1 0 -0 1 72 408.2871)" font-size="12" font-family="TimesNewRomanPSMT"><tspan y="0" x="0 3.996 7.992 11.325601 14.659201 20.6592 26.6592 31.984803 35.5008 38.5008 41.5008 47.214 50.214 53.214 56.214 65.5476 68.5476 75.22201 80.54761 84.54361 88.53961 93.86521 97.86121 103.18681 108.51241 111.51241 114.51241 123.17882 126.17882 129.17882 133.17482 139.17482 145.17482 151.17482 157.17482 160.17482 163.17482 167.84522 173.84522 179.84522 185.17082 188.17082 194.17082 200.17082 204.16683 207.16683 210.16683 218.83322 227.49962 230.83322 235.50362 238.50362 242.49962 245.83322 249.82923 254.49962 257.83323 260.83323 266.1588 272.1588 275.4924 279.4884 285.4884 289.2672 293.2632 296.2632 299.5968 302.9304 307.6008 310.9344 313.9344 319.9344 325.9344 329.26799 332.26799 335.26799 343.9344 347.26799 353.26799 359.26799 365.26799 368.26799 374.26799 377.60157 383.60157 389.60157 394.92716 399.59757 402.93116 405.93116 414.59757 417.93116 421.26475 427.26475 430.26475 436.26475 442.26475 452.26075 455.59434">Iftikhar, F., &#x0026; Sarfaraz, K. (2019, June 28). DU&#x2019;s first cut-off list out, Hindu highest with 99%; </tspan></text>
</g>
<g id="Layer-2" data-name="P">
<text xml:space="preserve" transform="matrix(1 0 -0 1 108 437.7773)" font-size="12" font-family="TimesNewRomanPSMT"><tspan y="0" x="0 5.3256008 11.325601 20.659203 23.992804 28.663205 33.333604 36.667203 42.667203 48.667203 53.3376 56.3376 62.3376 67.6632 73.6632 76.996799 82.996799 85.996799 91.996799 97.996799 100.996799 107.671199 111.6672 115.00079 121.00079 126.32639 131.54759 134.54759">admissions begin on Friday. </tspan></text>
</g>
<g id="Layer-2" data-name="P">
<text xml:space="preserve" transform="matrix(1 0 -0 1 108 437.7773)" font-size="12" font-family="TimesNewRomanPS" font-style="italic"><tspan y="0" x="137.5488 146.2152 149.5488 155.5488 161.5488 167.5488 172.2192 175.5528 181.5528 187.5528 190.5528 196.56479 199.89839 208.56479 213.8904">Hindustan Times</tspan></text>
</g>
<g id="Layer-2" data-name="P">
<text xml:space="preserve" transform="matrix(1 0 -0 1 108 437.7773)" font-size="12" font-family="TimesNewRomanPSMT"><tspan y="0" x="218.5605 221.5605">. </tspan></text>
</g>
<g id="Layer-2" data-name="P">
<text fill="#4a6ee0" xml:space="preserve" transform="matrix(1 0 -0 1 108 437.7773)" font-size="12" font-family="TimesNewRomanPSMT"><tspan y="0" x="224.5605 230.5605 233.8941 237.2277 243.2277 247.8981 251.2317 254.5653 257.8989 266.5653 275.23173 283.11814 286.11814 292.11814 295.45173 301.45173 307.45173 313.45173 318.12214 321.45573 326.7813 332.7813 336.1149 339.4485 348.78208 354.10768 358.77809 361.77809 367.10368 373.10368 382.43727 385.77085 389.10444 395.10444 401.10444 404.43803 409.7636">https://www.hindustantimes.com/india-</tspan></text>
</g>
<g id="Layer-2" data-name="P">
<text fill="#4a6ee0" xml:space="preserve" transform="matrix(1 0 -0 1 108 467.2676)" font-size="12" font-family="TimesNewRomanPSMT"><tspan y="0" x="0 6 11.325601 19.992 24.6624 27.996 33.996004 39.996004 43.992 48.6624 52.658399 56.654397 59.987997 63.983995 68.654399 71.98799 75.98399 81.30959 87.30959 90.64319 94.63919 100.63919 104.41799 108.413997 112.409999 115.74359 119.07719 123.74759 127.081188 131.07718 137.07718 143.07718 146.41078 150.40679 156.40679 159.74039 165.74039 171.74039 177.74039 181.73639 187.73639 191.06999 197.06999 203.06999 208.3956 213.066 216.3996 220.3956 229.062 232.3956 235.7292 241.7292 245.7252 251.7252 257.72523 261.0588 265.72923 269.0628 275.0628 279.0588 285.0588">news/du-s-first-cut-off-list-out-hindu-highest-with-99/story-</tspan></text>
</g>
<g id="Layer-2" data-name="P">
<text fill="#4a6ee0" xml:space="preserve" transform="matrix(1 0 -0 1 108 496.7578)" font-size="12" font-family="TimesNewRomanPSMT"><tspan y="0" x="0 8.004001 15.3336 20.6592 26.6592 29.992802 35.9928 44.659204 55.3296 61.3296 72.00001 78.674419 89.34482 94.01522 100.01522 108.681629 114.681629 123.34803 131.35204 138.68164 146.68564 152.68564 160.01525 163.01525 169.01525 172.34885 181.68245">BZapjvXMdMFMs3VgDCLCoL.html</tspan></text>
</g>
<g id="Layer-2" data-name="P">
<g id="Layer-3" data-name="Span">
<text fill="#0e101a" xml:space="preserve" transform="matrix(1 0 -0 1 108 496.7578)" font-size="10" font-family="TimesNewRomanPSMT"><tspan y="0" x="185.0156"> </tspan></text>
</g>
</g>
</g>
<g id="Layer-1" data-name="P">
<g id="Layer-2" data-name="P">
<text xml:space="preserve" transform="matrix(1 0 -0 1 72 526.248)" font-size="12" font-family="TimesNewRomanPSMT"><tspan y="0" x="0 8.666401 13.992002 17.988 23.313603 29.313603 35.313604 40.639204 44.1552 47.1552 50.1552 54.8256 57.8256 60.8256 68.1552 71.1552 74.1552 78.1512 84.1512 90.1512 96.1512 102.1512 106.1472 109.1472">Kerchner, J. L. (2014). </tspan></text>
</g>
<g id="Layer-2" data-name="P">
<text xml:space="preserve" transform="matrix(1 0 -0 1 72 526.248)" font-size="12" font-family="TimesNewRomanPS" font-style="italic"><tspan y="0" x="112.1484 122.1444 128.14441 132.8148 136.1484 141.47402 144.47402 150.47402 155.79962 160.02483 166.02483 170.69522 175.36562 178.36562 181.69922 187.69922 193.02483 196.02483 200.69522 206.02083 212.02083 216.69123 222.01683 226.68723 230.68323 233.68323 240.35762 243.69123 248.36162 251.69522 257.0208 263.0208 266.3544 272.3544 278.3544 281.3544 284.3544 287.688 293.01359 299.01359 303.684 309.684 313.01759 319.01759 325.01759 328.01759 331.01759 337.01759 343.01759 349.01759 352.01759 360.684 366.684 372.00959 375.34318 381.34318 387.34318 390.34318 399.00959 404.33518 410.33518 416.33518 419.66877 425.66877">Music across the senses: Listening, learning, and making meaning</tspan></text>
</g>
<g id="Layer-2" data-name="P">
<text xml:space="preserve" transform="matrix(1 0 -0 1 72 526.248)" font-size="12" font-family="TimesNewRomanPSMT"><tspan y="0" x="431.6719 434.6719 437.6719 446.33833 451.6639 460.33033">. New </tspan></text>
</g>
<g id="Layer-2" data-name="P">
<text xml:space="preserve" transform="matrix(1 0 -0 1 108 555.7383)" font-size="12" font-family="TimesNewRomanPSMT"><tspan y="0" x="0 7.4652006 13.4652 17.4612 23.4612 26.4612 34.465204 37.7988 41.132406 47.132406 50.466009 53.466009 62.13241 68.13241 72.12841 78.12841 82.12441 88.12441 91.12441 99.79082 105.79082 109.12441 115.12441 120.45001 124.446018 129.11641 132.45001 135.78362 141.78362 144.78362 151.45801 155.45401 160.77962 165.45001 170.1204 173.1204">York City: Oxford University Press. </tspan></text>
</g>
<g id="Layer-2" data-name="P">
<text fill="#4a6ee0" xml:space="preserve" transform="matrix(1 0 -0 1 108 555.7383)" font-size="12" font-family="TimesNewRomanPSMT"><tspan y="0" x="176.1211 182.1211 188.1211 191.1211 197.1211 203.1211 209.1211 215.1211 218.4547 223.7803 229.10591 235.10591 239.10192 245.10192 249.09792 252.43152 258.43153 263.10194 269.10194 272.43553 278.43553 284.43553 290.43553 296.43553 302.43553 308.43553 314.43553 320.43553 326.43553 332.43553 338.43553 344.43553 350.43553 353.43553 359.43553 365.43553 371.43553 374.43553 380.43553 386.43553 392.43553">10.1093/acprof:oso/9780199967612.001.0001</tspan></text>
</g>
<g id="Layer-2" data-name="P">
<g id="Layer-3" data-name="Span">
<text fill="#0e101a" xml:space="preserve" transform="matrix(1 0 -0 1 108 555.7383)" font-size="10" font-family="TimesNewRomanPSMT"><tspan y="0" x="398.4375"> </tspan></text>
</g>
</g>
</g>
<g id="Layer-1" data-name="P">
<g id="Layer-2" data-name="P">
<text xml:space="preserve" transform="matrix(1 0 -0 1 72 585.2285)" font-size="12" font-family="TimesNewRomanPSMT"><tspan y="0" x="0 8.666401 14.666401 19.3368 25.3368 30.557999 33.558 36.558 43.2324 46.2324 49.2324 59.902799 62.902799 65.9028 69.8988 75.8988 81.8988 87.8988 93.8988 96.8988 99.8988 104.56921 110.56921 116.56921 121.894809 124.894809 130.8948 134.89081 137.89081">Koshy, S. M. (2020, June 2). </tspan></text>
</g>
<g id="Layer-2" data-name="P">
<text xml:space="preserve" transform="matrix(1 0 -0 1 72 585.2285)" font-size="12" font-family="TimesNewRomanPS" font-style="italic"><tspan y="0" x="140.8887 149.5551 155.5551 161.5551 167.5551 170.8887 176.21431 179.21431 184.78711 190.78711 193.78711 199.11272 205.11272 208.44632 214.44632 217.44632 226.11272 232.11272 235.44632 238.77993 244.77993 250.10553 253.10553 261.10954 264.4431 270.4431 275.11354 279.78395 285.10954 289.77995 292.77995 295.77995 303.78395 309.10954 313.77995 319.77995 323.11354 329.11354 332.11354 338.11354 343.43913 349.43913 355.43913 361.43913 364.7727 370.7727 374.1063 378.7767 382.1103 385.1103 393.1143 399.1143 407.7807 416.4471 419.7807 423.1143 427.7847">Unable To Join Online Classes, Kerala Schoolgirl Commits </tspan></text>
</g>
<g id="Layer-2" data-name="P">
<text xml:space="preserve" transform="matrix(1 0 -0 1 108 614.7188)" font-size="12" font-family="TimesNewRomanPS" font-style="italic"><tspan y="0" x="0 6 12 15.3336 20.6592 23.992802 29.992802 35.3184 39.3144 42.3144 50.3184 56.3184 62.3184 66.98881 69.98881">Suicide: Cops. </tspan></text>
</g>
<g id="Layer-2" data-name="P">
<text xml:space="preserve" transform="matrix(1 0 -0 1 108 614.7188)" font-size="12" font-family="TimesNewRomanPSMT"><tspan y="0" x="72.99023 81.65663 90.32304 97.65263 104.77223 107.77223">NDTV. </tspan></text>
</g>
<g id="Layer-2" data-name="P">
<text fill="#4a6ee0" xml:space="preserve" transform="matrix(1 0 -0 1 108 614.7188)" font-size="12" font-family="TimesNewRomanPSMT"><tspan y="0" x="110.7715 116.7715 120.105098 123.43869 129.43869 134.10909 137.44269 140.77629 144.1099 152.77629 161.44269 169.32909 172.32909 178.32909 184.32909 187.66269 192.8839 195.8839 201.2095 207.2095 216.5431 219.87671 223.21031 229.21031 235.21031 238.54392 243.86952 247.86553 253.86553 259.1911 267.8575 272.52793 275.8615 281.1871 287.1871 291.1831 297.1831 303.1831 308.5087 314.5087 317.8423 321.8383 327.8383 332.5087 336.5047 342.5047 347.8303 351.8263 357.1519 360.48548 365.81108 369.80708 375.80708 379.14067 383.13667 386.47026 390.46626 395.79185 401.11744 407.11744 410.45103">https://www.ndtv.com/india-news/coronavirus-kerala-girl-cant-</tspan></text>
</g>
<g id="Layer-2" data-name="P">
<text fill="#4a6ee0" xml:space="preserve" transform="matrix(1 0 -0 1 108 644.209)" font-size="12" font-family="TimesNewRomanPSMT"><tspan y="0" x="0 5.3256008 8.659201 11.992801 17.318402 23.318402 29.318402 33.3144 39.3144 45.3144 48.648 51.9816 57.9816 63.3072 67.3032 72.6288 75.962398 81.287998 85.9584 90.6288 95.9544 100.6248 104.620807 109.9464 119.28 122.613597 128.61359 132.60959 135.94319 141.94319 147.2688 153.2688 159.2688 165.2688 173.9352 179.9352 183.9312 189.2568 195.2568 204.59041 213.92401 217.25762 220.59122 225.26161 229.25762 233.92801 239.92801 243.26161 248.58722 251.92082 257.92085 263.24644 267.24244 273.24244 279.24244 285.24244 291.24244 297.24244 303.24244">attend-online-classes-amid-lockdown-commits-suicide-2239318</tspan></text>
</g>
<g id="Layer-2" data-name="P">
<g id="Layer-3" data-name="Span">
<text fill="#0e101a" xml:space="preserve" transform="matrix(1 0 -0 1 108 644.209)" font-size="12" font-family="TimesNewRomanPSMT"><tspan y="0" x="309.252"> </tspan></text>
</g>
</g>
</g>
<g id="Layer-1" data-name="P">
<g id="Layer-2" data-name="P">
<text xml:space="preserve" transform="matrix(1 0 -0 1 72 673.6992)" font-size="12" font-family="TimesNewRomanPSMT"><tspan y="0" x="0 8.666401 14.666401 24.000002 29.325604 32.841604 35.841604 38.6244 45.744005 48.744005 51.744005 54.744005 64.0776 66.8604 73.3524 78.678 82.0116 90.678 96.0036 99.5196 102.5196 105.5196 113.5236 116.5236 119.5236 123.5196 129.51959 135.51959 141.51959 147.51959 151.5156 154.5156 157.5156 166.18199 171.5076 174.8412 180.16681 184.16281 193.49642 196.83002 202.83002 208.15563 214.15563 217.48923 222.15962 225.15962 231.15962 235.15563 238.15563 244.15563 248.82602 254.82602 260.1516 266.1516 272.1516 275.4852 281.4852 287.4852 290.8188 296.14439 301.46998 304.80357 307.80357 312.47398 315.80757 319.80357 325.12916 329.79957 334.46998 337.46998 342.79557 348.79557 354.79557 357.79557 362.46598 368.46598 371.79957 377.12516 380.45875 386.45875 391.78434 395.11793 398.11793 404.11793 409.4435 415.4435 420.7691 426.7691 430.1027 436.1027 440.0987 443.0987 446.43229 452.43229">Kumar, V., &#x0026; Talwar, R. (2014). Determinants of psychological stress and suicidal behavior in </tspan></text>
</g>
<g id="Layer-2" data-name="P">
<text xml:space="preserve" transform="matrix(1 0 -0 1 108 703.18948)" font-size="12" font-family="TimesNewRomanPSMT"><tspan y="0" x="0 3.996 9.996 15.996 19.329602 24.655203 30.655203 33.655206 38.980806 44.980806 50.980806 54.314405 59.640005 64.31041 69.63601 74.96161 80.96161 84.295207 88.96561 92.2992 94.6368 102.6408 105.6408 108.974399 112.30799 115.64159 120.967189 124.96319 130.28879 133.62239 139.62239 143.6184 148.944 151.944 155.94 161.26561 167.26561 170.59922 175.92482 183.81122 186.81122">Indian adolescents: A literature review. </tspan></text>
</g>
<g id="Layer-2" data-name="P">
<text xml:space="preserve" transform="matrix(1 0 -0 1 108 703.18948)" font-size="12" font-family="TimesNewRomanPS" font-style="italic"><tspan y="0" x="189.8203 195.1459 201.1459 207.1459 211.8163 217.8163 223.8163 227.1499 230.1499 236.1499 239.4835 242.4835 246.4795 252.4795 258.4795 261.81309 267.81309 273.81309 276.5959 283.92549 288.5959 293.2663 299.2663 304.5919 307.92549 313.92549 317.25907 320.59266 326.59266 332.59266 335.59266 338.92625 344.92625 349.59666 352.59666 360.60066 366.60066 369.93424 373.26783 379.26783 382.26783 391.6014">Journal of Indian Association for Child &#x0026; </tspan></text>
</g>
</g>
<path transform="matrix(1,0,0,1,72,72)" stroke-width=".5859375" stroke-linecap="butt" stroke-miterlimit="10" stroke-linejoin="miter" fill="none" stroke="#4a6ee0" d="M 110.3262 42.69141 L 400.5879 42.69141 "/>
<path transform="matrix(1,0,0,1,72,72)" stroke-width=".5859375" stroke-linecap="butt" stroke-miterlimit="10" stroke-linejoin="miter" fill="none" stroke="#4a6ee0" d="M 110.3262 101.6719 L 389.2617 101.6719 "/>
<path transform="matrix(1,0,0,1,72,72)" stroke-width=".5859375" stroke-linecap="butt" stroke-miterlimit="10" stroke-linejoin="miter" fill="none" stroke="#4a6ee0" d="M 110.3262 160.6523 L 388.6113 160.6523 "/>
<path transform="matrix(1,0,0,1,72,72)" stroke-width=".5859375" stroke-linecap="butt" stroke-miterlimit="10" stroke-linejoin="miter" fill="none" stroke="#4a6ee0" d="M 199.6172 249.123 L 337.623 249.123 "/>
<path transform="matrix(1,0,0,1,72,72)" stroke-width=".5859375" stroke-linecap="butt" stroke-miterlimit="10" stroke-linejoin="miter" fill="none" stroke="#4a6ee0" d="M 205.6172 308.1035 L 312.832 308.1035 "/>
<path transform="matrix(1,0,0,1,72,72)" stroke-width=".5859375" stroke-linecap="butt" stroke-miterlimit="10" stroke-linejoin="miter" fill="none" stroke="#4a6ee0" d="M 260.5605 367.084 L 449.7656 367.084 "/>
<path transform="matrix(1,0,0,1,72,72)" stroke-width=".5859375" stroke-linecap="butt" stroke-miterlimit="10" stroke-linejoin="miter" fill="none" stroke="#4a6ee0" d="M 36 396.5742 L 325.0605 396.5742 "/>
<path transform="matrix(1,0,0,1,72,72)" stroke-width=".5859375" stroke-linecap="butt" stroke-miterlimit="10" stroke-linejoin="miter" fill="none" stroke="#4a6ee0" d="M 36 426.0645 L 221.0156 426.0645 "/>
<path transform="matrix(1,0,0,1,72,72)" stroke-width=".5859375" stroke-linecap="butt" stroke-miterlimit="10" stroke-linejoin="miter" fill="none" stroke="#4a6ee0" d="M 212.1211 485.0449 L 434.4375 485.0449 "/>
<path transform="matrix(1,0,0,1,72,72)" stroke-width=".5859375" stroke-linecap="butt" stroke-miterlimit="10" stroke-linejoin="miter" fill="none" stroke="#4a6ee0" d="M 146.7715 544.0254 L 450.457 544.0254 "/>
<path transform="matrix(1,0,0,1,72,72)" stroke-width=".5859375" stroke-linecap="butt" stroke-miterlimit="10" stroke-linejoin="miter" fill="none" stroke="#4a6ee0" d="M 36 573.5156 L 345.252 573.5156 "/>
</g>
</g>
</svg>
