<?xml version="1.0" encoding="UTF-8" standalone="no"?>
<!DOCTYPE svg PUBLIC "-//W3C//DTD SVG 1.1//EN" "http://www.w3.org/Graphics/SVG/1.1/DTD/svg11.dtd">
<svg xmlns="http://www.w3.org/2000/svg" xmlns:xlink="http://www.w3.org/1999/xlink" version="1.1" width="612pt" height="792pt" viewBox="0 0 612 792">
<g enable-background="new">
<clipPath id="cp278">
<path transform="matrix(1,0,0,-1,0,792)" d="M 0 0 L 612 0 L 612 792 L 0 792 Z "/>
</clipPath>
<g clip-path="url(#cp278)">
<path transform="matrix(1,0,0,-1,0,792)" d="M 0 792 L 612 792 L 612 0 L 0 0 Z " fill="#ffffff"/>
</g>
<clipPath id="cp279">
<path transform="matrix(1,0,0,-1,0,792)" d="M 68.67773 67.89258 L 543.3222 67.89258 L 543.3222 723.32229 L 68.67773 723.32229 Z "/>
</clipPath>
<g clip-path="url(#cp279)">
<path transform="matrix(1,0,0,-1,0,792)" d="M 72 513.5684 L 515.373 513.5684 L 515.373 484.0781 L 72 484.0781 Z " fill="#ffffff"/>
<path transform="matrix(1,0,0,-1,0,792)" d="M 108 484.0781 L 533.3262 484.0781 L 533.3262 454.5879 L 108 454.5879 Z " fill="#ffffff"/>
<path transform="matrix(1,0,0,-1,0,792)" d="M 108 454.5879 L 266.543 454.5879 L 266.543 425.0977 L 108 425.0977 Z " fill="#ffffff"/>
<g id="Layer-1" data-name="P">
<g id="Layer-2" data-name="P">
<text xml:space="preserve" transform="matrix(1 0 -0 1 108 83.89447)" font-size="12" font-family="TimesNewRomanPS" font-style="italic"><tspan y="0" x="0 7.3296 13.329599 19.3296 22.6632 27.988802 32.659204 37.984804 43.310403 49.310403 52.644 55.644 65.64 70.9656 76.9656 80.299198 86.299198 89.63279 92.63279 101.299198 106.624797 112.624797 115.95839 119.291988 125.291988 128.29199 131.29199 137.29199">Adolescent Mental Health, 10</tspan></text>
</g>
<g id="Layer-2" data-name="P">
<text xml:space="preserve" transform="matrix(1 0 -0 1 108 83.89447)" font-size="12" font-family="TimesNewRomanPSMT"><tspan y="0" x="143.2969 147.29291 153.29291 157.28891 160.28891 163.28891 169.28891 175.28891 181.28891 187.28891 193.28891 196.28891 199.28891 207.29291 212.61852 215.95212 219.94812 223.28173 228.60733 234.60733 239.93294 245.93294 248.93294 253.60334 259.60334 265.60334 270.92893 273.92893 279.92893 285.92893 288.92893 291.92893 297.92893 303.92893 309.92893 315.92893 318.92893 321.92893 325.92494 329.92094 335.92094 345.25453">(1), 47&#x2013;68. Retrieved June 16, 2020, from </tspan></text>
</g>
<g id="Layer-2" data-name="P">
<text fill="#4a6ee0" xml:space="preserve" transform="matrix(1 0 -0 1 108 83.89447)" font-size="12" font-family="TimesNewRomanPSMT"><tspan y="0" x="348.2578 354.2578 357.5914 360.925 366.925 371.5954 374.929 378.26258">https://</tspan></text>
</g>
<g id="Layer-2" data-name="P">
<text fill="#4a6ee0" xml:space="preserve" transform="matrix(1 0 -0 1 108 113.38483)" font-size="12" font-family="TimesNewRomanPSMT"><tspan y="0" x="0 8.666401 17.332802 25.219204 28.219204 32.215204 37.540803 42.2112 47.5368 52.8624 56.8584 62.184 68.184 74.184 79.5096 82.84319 88.16879 91.16879 97.16879 102.49439 105.82799 109.16158 115.16158 121.16158 127.16158 130.4952 133.8288 139.1544 144.48001 147.81362 151.14722 157.14722 163.14722">www.researchgate.net/publication/</tspan></text>
</g>
<g id="Layer-2" data-name="P">
<text fill="#4a6ee0" xml:space="preserve" transform="matrix(1 0 -0 1 108 142.875)" font-size="12" font-family="TimesNewRomanPSMT"><tspan y="0" x="0 6 12 18 24 30 36 42 48 54 60 68.666408 73.992008 77.3256 82.6512 86.6472 95.9808 99.31439 105.31439 110.63999 116.63999 119.97359 124.64399 130.64398 136.64398 140.63999 146.63999 152.63999 157.31038 163.31038 168.63599 174.63599 180.63599 183.96959 189.96959 195.96959 199.30319 204.6288 209.9544 213.28801 219.28801 223.9584 227.292 231.28801 236.61362 241.28401 245.9544 251.9544 257.28 263.28 269.28 275.28 279.9504 285.9504 289.284 294.6096 297.94319 303.94319 309.26878 312.60237 318.60237 324.60237 329.92796 335.92796 341.25355 347.25355 350.58714 356.58714 360.58314 366.58314 369.91673 375.91673 381.91673 385.91273 391.91273 397.91273 401.2463 406.5719 412.5719 418.5719 423.8975">287587052_Determinants_of_psychological_stress_and_suicidal_behavior_in_Indian_ad</tspan></text>
</g>
<g id="Layer-2" data-name="P">
<text fill="#4a6ee0" xml:space="preserve" transform="matrix(1 0 -0 1 108 172.36518)" font-size="12" font-family="TimesNewRomanPSMT"><tspan y="0" x="0 6 9.3336 14.6592 19.3296 24.655201 29.980803 35.980806 39.314405 43.984804 49.984804 58.651205 64.6512 67.984798 71.31839 74.651988 79.977588 83.97359 89.29919 92.63278 98.63278 102.628787 107.954387 113.954387 117.950389 123.275989 129.27599 132.60959 137.9352">olescents_A_literature_review</tspan></text>
</g>
<g id="Layer-2" data-name="P">
<g id="Layer-3" data-name="Span">
<text fill="#0e101a" xml:space="preserve" transform="matrix(1 0 -0 1 108 172.36518)" font-size="12" font-family="TimesNewRomanPSMT"><tspan y="0" x="146.6074"> </tspan></text>
</g>
</g>
</g>
<g id="Layer-1" data-name="P">
<g id="Layer-2" data-name="P">
<text xml:space="preserve" transform="matrix(1 0 -0 1 72 201.85553)" font-size="12" font-family="TimesNewRomanPSMT"><tspan y="0" x="0 10.670402 15.996001 19.329602 25.329602 30.655203 38.541604 41.541604 44.541604 53.208005 56.208005 59.208005 62.208005 70.874408 76.874408 82.200008 88.200008 94.200008 99.525608 102.525608 105.525608 114.19201 117.19201 120.19201 128.19602 131.19602 134.19602 137.19602 145.86241 151.86241 155.85842 161.18402 165.85442 171.85442 175.18802 178.18802 180.52562 189.19202 192.19202 195.19202 198.19202 204.86641 210.19202 216.19202 221.51763 225.03363 228.03363 231.03363 239.03763 242.03763 245.03763 248.03763 257.37123 260.37123 269.03764 275.03764 280.36323 286.36323 292.36323 297.6888 300.6888 303.6888 311.6928 314.6928 317.6928 325.6968 328.6968 331.6968 335.6928 341.6928 347.6928 353.6928 359.6928 363.6888 366.6888 369.6888 376.36323 379.6968 383.6928 389.0184 393.6888 398.35923 401.35923 406.6848 412.6848 418.6848 421.6848 427.0104 433.0104 439.0104 442.344 448.344 454.344">Mathew, N., Khakha, D. C., Qureshi, A., Sagar, R., &#x0026; Khakha, C. C. (2015). Stress and coping </tspan></text>
</g>
<g id="Layer-2" data-name="P">
<text xml:space="preserve" transform="matrix(1 0 -0 1 108 231.3457)" font-size="12" font-family="TimesNewRomanPSMT"><tspan y="0" x="0 5.3256008 14.659201 20.6592 26.6592 32.659204 35.659204 40.984804 46.984804 52.984804 56.3184 61.644 66.31441 71.64001 76.96561 82.96561 86.2992 90.969608 93.969608 97.3032 103.3032 106.3032 110.9736 116.2992 119.6328 124.9584 130.284 133.6176 138.9432 144.9432 147.9432 152.6136 157.93921 163.93921 169.93921 175.93921 179.27281 183.9432 186.9432 190.27681 196.27681 199.27681 202.61042 208.61042 213.93602 216.93602 222.26163 227.58724 233.58724 236.92084 240.25444 245.58005 248.91365 251.91365 257.23924 260.5728 263.9064 269.9064 272.9064 278.9064 282.9024 285.9024 289.8984 295.8984 301.8984 305.232 310.5576 313.5576">among adolescents in selected schools in the capital city of India. </tspan></text>
</g>
<g id="Layer-2" data-name="P">
<text xml:space="preserve" transform="matrix(1 0 -0 1 108 231.3457)" font-size="12" font-family="TimesNewRomanPS" font-style="italic"><tspan y="0" x="316.5703 323.24473 329.24473 334.5703 337.5703 341.5663 347.5663 353.5663 356.8999 362.8999 368.8999 371.8999 377.2255 383.2255 389.2255 393.8959 399.8959 405.8959 409.2295 412.2295 418.2295 421.56309">The Indian Journal of </tspan></text>
</g>
<g id="Layer-2" data-name="P">
<text xml:space="preserve" transform="matrix(1 0 -0 1 108 260.83589)" font-size="12" font-family="TimesNewRomanPS" font-style="italic"><tspan y="0" x="0 7.3296 12.6552 18.655201 21.988802 27.988802 31.322403 35.9928 39.326406 44.652006 49.322404 52.322404 55.322404 61.322404">Pediatrics, 82</tspan></text>
</g>
<g id="Layer-2" data-name="P">
<text xml:space="preserve" transform="matrix(1 0 -0 1 108 260.83589)" font-size="12" font-family="TimesNewRomanPSMT"><tspan y="0" x="67.32422 71.32022 77.32022 81.31622 84.31622 87.31622 93.31622 99.31622 105.31622 111.31622 117.31622 123.31622 129.31623">(9), 809&#x2013;816.</tspan></text>
</g>
<g id="Layer-2" data-name="P">
<text fill="#0e101a" xml:space="preserve" transform="matrix(1 0 -0 1 108 260.83589)" font-size="12" font-family="TimesNewRomanPSMT"><tspan y="0" x="132.3164"> </tspan></text>
</g>
<g id="Layer-2" data-name="P">
<text fill="#4a6ee0" xml:space="preserve" transform="matrix(1 0 -0 1 108 260.83589)" font-size="12" font-family="TimesNewRomanPSMT"><tspan y="0" x="135.3164 141.3164 144.65001 147.98361 153.98361 158.654 161.98761 165.32122 168.65482 174.65482 180.65482 183.98842 186.98842 192.98842 196.76723 202.76723 206.10083 212.10083 218.10083 221.10083 227.10083 233.10083 239.10083 245.10083 248.43444 253.10483 259.10484 265.10484 271.10484 277.10484 283.10484 287.10084 293.10084 299.10084 305.10084 309.09684 315.09684 321.09684 327.09684 333.09684 337.09284">https://doi.org/10.1007/s12098-015-1710-x</tspan></text>
</g>
<g id="Layer-2" data-name="P">
<g id="Layer-3" data-name="Span">
<text fill="#0e101a" xml:space="preserve" transform="matrix(1 0 -0 1 108 260.83589)" font-size="12" font-family="TimesNewRomanPSMT"><tspan y="0" x="343.0957"> </tspan></text>
</g>
</g>
</g>
<g id="Layer-1" data-name="P">
<g id="Layer-2" data-name="P">
<text xml:space="preserve" transform="matrix(1 0 -0 1 72 290.3262)" font-size="12" font-family="TimesNewRomanPSMT"><tspan y="0" x="0 10.670402 15.996001 21.996003 25.992003 31.992003 35.325605 39.3216 44.6472 47.6472 50.6472 57.3216 60.3216 63.3216 66.3216 75.6552 78.6552 85.3296 90.6552 94.6512 97.984798 103.984798 109.310398 112.310398 115.310398 119.9808 122.9808 125.9808 134.64719 137.64719 140.64719 144.64319 150.64319 156.64319 162.64319 168.64319 172.63919 175.63919">Mehrotra, S., &#x0026; Parida, J. K. (2019). </tspan></text>
</g>
<g id="Layer-2" data-name="P">
<text xml:space="preserve" transform="matrix(1 0 -0 1 72 290.3262)" font-size="12" font-family="TimesNewRomanPS" font-style="italic"><tspan y="0" x="178.6406 182.6366 188.6366 194.6366 197.9702 203.9702 206.4194 211.0898 214.0898 219.4154 228.0818 234.0818 237.4154 243.4154 248.74102 257.4074 262.733 268.733 272.0666 275.0666 280.39219 285.0626 288.39619 293.0666 296.40019 301.0706 305.0666 308.0666 315.39619 318.72978 323.40019 326.73377 332.73377 338.73377 341.73377 347.05937 353.05937 359.05937 364.38496 370.38496 373.71855 377.05213 383.05213 389.05213 392.05213 395.3857 400.7113 406.0369 411.3625 414.69609 419.3665 422.3665 428.3665 434.3665 440.3665">India&#x2019;s employment crisis: Rising education levels and </tspan></text>
</g>
<g id="Layer-2" data-name="P">
<text xml:space="preserve" transform="matrix(1 0 -0 1 108 319.8164)" font-size="12" font-family="TimesNewRomanPS" font-style="italic"><tspan y="0" x="0 3.3336006 9.333601 12.667201 16.000802 19.334403 25.334403 31.334403 34.334405 40.334405 46.334405 52.334405 56.330404 62.330404 68.3304 73.0008 76.3344 81.659999 87.659999 90.99359 94.32719 100.32719 104.99759 110.99759 114.331188 117.331188 120.66478 126.66478 132.66478 135.66478 141.66478 145.88999 151.88999 159.89398 163.22759">falling non-agricultural job growth</tspan></text>
</g>
<g id="Layer-2" data-name="P">
<text xml:space="preserve" transform="matrix(1 0 -0 1 108 319.8164)" font-size="12" font-family="TimesNewRomanPSMT"><tspan y="0" x="169.2305 172.2305 175.2305 183.2345 188.5601 194.5601 197.8937 203.21932 207.21532 210.21532 214.21132 220.21132 224.20732 227.20732 233.88172 239.88172 244.55211 247.88571 253.21132 256.54493 262.54493 267.8705 273.8705 277.2041 282.5297 285.5297 292.85929 302.19288 308.19288 311.52647 317.52647 323.52647 332.86006 338.18565 344.18565 347.51924 350.30204 360.66764 366.66764 370.66365 376.66365 379.99723 385.99723 391.99723 394.99723 401.67164 406.99723 412.99723 418.3228 422.31883">. Center for Sustainable Employment Working Paper </tspan></text>
</g>
<g id="Layer-2" data-name="P">
<text xml:space="preserve" transform="matrix(1 0 -0 1 108 349.3066)" font-size="12" font-family="TimesNewRomanPSMT"><tspan y="0" x="0 8.666401 14.666401 17.6664 20.6664 26.6664 32.6664 35.6664 38.004 46.670404 51.996004 55.3296 64.6632 67.6632 74.33761 78.33361 83.65921 92.992809 96.3264 99.659999 102.659999 111.3264 117.3264 120.659999 126.659999 131.9856 135.9816 140.652 143.9856 147.3192 152.5404">No. 04. Azim Premji University.</tspan></text>
</g>
<g id="Layer-2" data-name="P">
<text fill="#222222" xml:space="preserve" transform="matrix(1 0 -0 1 108 349.3066)" font-size="12" font-family="TimesNewRomanPSMT"><tspan y="0" x="155.543"> </tspan></text>
</g>
<g id="Layer-2" data-name="P">
<text fill="#4a6ee0" xml:space="preserve" transform="matrix(1 0 -0 1 108 349.3066)" font-size="12" font-family="TimesNewRomanPSMT"><tspan y="0" x="158.543 164.543 167.8766 171.2102 177.2102 181.8806 185.2142 188.5478 191.88141 197.20702 201.87741 207.20302 210.20302 215.52863 220.85424 224.18784 233.52144 239.52144 243.51744 248.84305 258.17665 261.51023 264.8438 270.8438 276.8438 280.1774 286.1774 291.503 295.499 300.1694 303.503 306.83659 312.05778 315.05778 320.38337 326.38337 332.38337 335.38337 338.71696 344.71696 348.05055 356.71696 362.71696 366.71296 372.03855 378.03855 384.03855 387.37214 392.69773 398.69773 402.0313">https://cse.azimpremjiuniversity.edu.in/wp-content/</tspan></text>
</g>
<g id="Layer-2" data-name="P">
<text fill="#4a6ee0" xml:space="preserve" transform="matrix(1 0 -0 1 108 378.7969)" font-size="12" font-family="TimesNewRomanPSMT"><tspan y="0" x="0 6 12 15.3336 21.3336 26.6592 32.659204 37.3296 40.663206 46.663206 52.663206 58.663206 64.66321 67.9968 73.9968 79.9968 83.3304 94.0008 99.3264 105.3264 109.3224 115.3224 118.656 122.652 127.9776 133.9776 140.652 145.9776 149.9736 153.3072 159.3072 164.63282 170.63282 174.62882 180.62882 186.62882 189.96242 195.28803 201.28803 208.61763 217.95124 223.95124 227.28484 233.28484 239.28484 248.61844 253.94405 259.94404 263.27763 269.27763 277.28163 281.27763 284.6112 289.28163 292.6152 297.2856 300.2856 306.2856 312.2856">uploads/2019/10/Mehrotra_Parida_India_Employment_Crisis.pdf</tspan></text>
</g>
<g id="Layer-2" data-name="P">
<g id="Layer-3" data-name="Span">
<text fill="#0e101a" xml:space="preserve" transform="matrix(1 0 -0 1 108 378.7969)" font-size="12" font-family="TimesNewRomanPSMT"><tspan y="0" x="316.2891"> </tspan></text>
</g>
</g>
</g>
<g id="Layer-1" data-name="P">
<g id="Layer-2" data-name="P">
<text xml:space="preserve" transform="matrix(1 0 -0 1 72 408.2871)" font-size="12" font-family="TimesNewRomanPSMT"><tspan y="0" x="0 10.670402 14.666402 20.6664 26.6664 29.6664 32.6664 39.3408 42.3408 45.3408 49.3368 55.3368 61.3368 67.3368 73.3368 77.3328 80.3328 83.3328 90.00721 96.00721 100.00321 106.00321 111.32881 116.55001 119.55001 122.55001 126.54601 132.54602 135.54602 144.21242 147.21242 150.21242 154.88282 157.88282 160.88282 167.5572 172.88282 176.21642 182.21642 185.55002 191.55002 197.55002 200.55002 204.54602 211.87563 217.87563 220.87563 224.87163 227.87163 230.87163 238.20124 244.20124 249.52684 255.52684 260.85243 264.186 270.186 276.186 281.5116 287.5116 290.84519 296.17079 299.17079 305.17079 309.16679 312.16679 316.16279 321.48838 326.15879 331.48439 336.80998 340.80598 346.13157 352.13157 355.13157 361.13157 366.45716 371.12757 374.46116 380.46116 386.46116 389.46116 393.45716 399.45716 405.45716 408.45716">Mrug, S. (2010). Survey. In N. J. Salkind (Ed.), Encyclopedia of research design (pp. </tspan></text>
</g>
<g id="Layer-2" data-name="P">
<text xml:space="preserve" transform="matrix(1 0 -0 1 108 437.7773)" font-size="12" font-family="TimesNewRomanPSMT"><tspan y="0" x="0 6 12 18 24 27.996 33.996004 39.996004 45.996004 51.996004 55.992 58.992 61.7748 69.10439 75.10439 81.10439 87.10439 91.774799 97.100399 103.100399 109.100399 112.100399 120.7668 126.0924 132.0924 136.7628 139.7628 142.7628 150.7668 159.4332 162.7668 165.7668 172.4412 181.10759 189.77399 197.10359 200.10359 206.77799 212.77799 218.77799 222.11159 225.44519 230.7708 236.0964 239.43001 242.76361 248.76361 254.76361 259.43403 262.43403 265.43403 269.43003 275.43003 280.7556 283.7556">1473-1476). Thousand Oaks, CA: SAGE Publications, Inc. </tspan></text>
</g>
<g id="Layer-2" data-name="P">
<text fill="#4a6ee0" xml:space="preserve" transform="matrix(1 0 -0 1 108 467.2676)" font-size="12" font-family="TimesNewRomanPSMT"><tspan y="0" x="0 6 12 15 21 27 33 39 42.3336 48.3336 54.3336 60.3336 66.3336 72.3336 78.3336 84.3336 90.3336 96.3336 102.3336 108.3336 114.3336 120.3336 123.3336 129.3336 135.3336 141.3336">10.4135/9781412961288.n449</tspan></text>
</g>
<g id="Layer-2" data-name="P">
<g id="Layer-3" data-name="Span">
<text fill="#0e101a" xml:space="preserve" transform="matrix(1 0 -0 1 108 467.2676)" font-size="12" font-family="TimesNewRomanPSMT"><tspan y="0" x="147.334"> </tspan></text>
</g>
</g>
</g>
<g id="Layer-1" data-name="P">
<g id="Layer-2" data-name="P">
<text xml:space="preserve" transform="matrix(1 0 -0 1 72 496.7578)" font-size="12" font-family="TimesNewRomanPSMT"><tspan y="0" x="0 8.666401 13.992002 17.325604 20.659205 26.659205 32.659204 37.984804 41.3184 43.656003 52.322404 58.322404 64.3224 67.656 72.3264 78.3264 82.3224 88.3224 91.3224 99.3264 105.3264 114.659999 123.99359 127.32719 130.6608 133.9944 139.32 144.64562 147.64562 150.64562 154.64162 160.64162 166.64162 172.64162 178.64162 182.63762 185.63762">National Advisory Committee. (1993). </tspan></text>
</g>
<g id="Layer-2" data-name="P">
<text xml:space="preserve" transform="matrix(1 0 -0 1 72 496.7578)" font-size="12" font-family="TimesNewRomanPS" font-style="italic"><tspan y="0" x="188.6426 195.31699 200.6426 206.6426 211.31299 217.31299 220.64659 226.64659 232.64659 235.64659 243.65059 246.98419 250.3178 256.3178 262.3178 268.3178 271.6514 274.6514 280.6514 286.6514 290.8766 296.8766 302.20219">Learning without burden</tspan></text>
</g>
<g id="Layer-2" data-name="P">
<text xml:space="preserve" transform="matrix(1 0 -0 1 72 496.7578)" font-size="12" font-family="TimesNewRomanPSMT"><tspan y="0" x="308.2031 311.2031">. </tspan></text>
</g>
<g id="Layer-2" data-name="P">
<text fill="#4a6ee0" xml:space="preserve" transform="matrix(1 0 -0 1 72 496.7578)" font-size="12" font-family="TimesNewRomanPSMT"><tspan y="0" x="314.2031 320.2031 323.53669 326.87028 332.87028 336.20387 339.53746 342.87104 348.87104 354.87104 357.87104 363.87104 369.87104 375.87104 378.87104 384.87104 390.87104 393.87104 399.87104 405.87104 411.87104 415.20463 421.20463 424.5382 427.8718 432.5422 435.8758 439.8718 445.1974 450.52299 459.85658">http://14.139.60.153/bitstream/</tspan></text>
</g>
<g id="Layer-2" data-name="P">
<text fill="#4a6ee0" xml:space="preserve" transform="matrix(1 0 -0 1 108 526.248)" font-size="12" font-family="TimesNewRomanPSMT"><tspan y="0" x="0 6 12 18 24 30 36 42 48 54 57.3336 63.3336 69.3336 72.6672 78.6672 82.00079 88.00079 94.00079 100.00079 103.00079 109.00079 115.00079">123456789/22/1/122.pdf</tspan></text>
</g>
<g id="Layer-2" data-name="P">
<g id="Layer-3" data-name="Span">
<text fill="#0e101a" xml:space="preserve" transform="matrix(1 0 -0 1 108 526.248)" font-size="10" font-family="TimesNewRomanPSMT"><tspan y="0" x="118.998"> </tspan></text>
</g>
</g>
</g>
<g id="Layer-1" data-name="P">
<g id="Layer-2" data-name="P">
<text xml:space="preserve" transform="matrix(1 0 -0 1 72 555.7383)" font-size="12" font-family="TimesNewRomanPSMT"><tspan y="0" x="0 8.666401 13.992002 17.325604 20.659205 26.659205 32.659204 37.984804 41.3184 44.3184 52.322404 56.3184 59.652006 68.9856 74.3112 77.3112 85.3152 90.6408 95.9664 101.9664 105.9624 111.9624 116.632808 119.632808 127.6368 133.63681 137.63282 142.95842 148.28403 154.28403 157.28403 160.28403 164.28003 170.28003 176.28003 181.83483 187.83483 191.83083 194.83083">National Crime Records Bureau. (2011). </tspan></text>
</g>
<g id="Layer-2" data-name="P">
<text xml:space="preserve" transform="matrix(1 0 -0 1 72 555.7383)" font-size="12" font-family="TimesNewRomanPS" font-style="italic"><tspan y="0" x="197.8359 205.8399 210.5103 213.8439 222.5103 227.8359 230.8359 234.16951 240.16951 243.16951 247.16551 253.16551 259.16554 262.4991 268.4991 271.4991 277.4991 283.4991 288.6087 294.6087 297.6087 303.6087 306.9423 312.9423 316.27589 319.60948 324.27989 327.61347 330.94706 336.27265">Crime in India 2011 Statistics</tspan></text>
</g>
<g id="Layer-2" data-name="P">
<text xml:space="preserve" transform="matrix(1 0 -0 1 72 555.7383)" font-size="12" font-family="TimesNewRomanPSMT"><tspan y="0" x="340.9453 343.9453">. </tspan></text>
</g>
<g id="Layer-2" data-name="P">
<text fill="#4a6ee0" xml:space="preserve" transform="matrix(1 0 -0 1 72 555.7383)" font-size="12" font-family="TimesNewRomanPSMT"><tspan y="0" x="346.9453 352.9453 356.2789 359.6125 365.6125 370.2829 373.6165 376.95008 380.28367 386.28367 391.60926 395.60527 401.60527 404.60527 410.60527 416.60527 421.82646 424.82646 428.16004 434.16004">https://ncrb.gov.in/</tspan></text>
</g>
<g id="Layer-2" data-name="P">
<text fill="#4a6ee0" xml:space="preserve" transform="matrix(1 0 -0 1 108 585.2285)" font-size="12" font-family="TimesNewRomanPSMT"><tspan y="0" x="0 5.3256008 9.321601 12.655201 21.988802 27.314404 31.310404 34.644006 40.644006 46.644006 49.977605 55.303205 59.299203 65.2992 70.6248 75.9504 79.706409 83.70241 89.70241 95.70241 101.25721">crime-india-year-2011</tspan></text>
</g>
<g id="Layer-2" data-name="P">
<g id="Layer-3" data-name="Span">
<text fill="#0e101a" xml:space="preserve" transform="matrix(1 0 -0 1 108 585.2285)" font-size="10" font-family="TimesNewRomanPSMT"><tspan y="0" x="107.2617"> </tspan></text>
</g>
</g>
</g>
<g id="Layer-1" data-name="P">
<g id="Layer-2" data-name="P">
<text xml:space="preserve" transform="matrix(1 0 -0 1 72 614.7188)" font-size="12" font-family="TimesNewRomanPSMT"><tspan y="0" x="0 8.666401 13.992002 17.325604 20.659205 26.659205 32.659204 37.984804 41.3184 44.3184 52.322404 56.3184 59.652006 68.9856 74.3112 77.3112 85.3152 90.6408 95.9664 101.9664 105.9624 111.9624 116.632808 119.632808 127.6368 133.63681 137.63282 142.95842 148.28403 154.28403 157.28403 160.28403 164.28003 170.28003 176.28003 182.28003 188.28003 192.27603 195.27603">National Crime Records Bureau. (2018). </tspan></text>
</g>
<g id="Layer-2" data-name="P">
<text xml:space="preserve" transform="matrix(1 0 -0 1 72 614.7188)" font-size="12" font-family="TimesNewRomanPS" font-style="italic"><tspan y="0" x="198.2812 206.2852 210.9556 214.2892 222.9556 228.2812 231.2812 234.6148 240.6148 243.6148 247.61081 253.61081 259.6108 262.9444 268.9444 271.9444 277.9444 283.9444 289.9444">Crime in India 2018</tspan></text>
</g>
<g id="Layer-2" data-name="P">
<text xml:space="preserve" transform="matrix(1 0 -0 1 72 614.7188)" font-size="12" font-family="TimesNewRomanPSMT"><tspan y="0" x="295.9453 298.9453">. </tspan></text>
</g>
<g id="Layer-2" data-name="P">
<text fill="#4a6ee0" xml:space="preserve" transform="matrix(1 0 -0 1 72 614.7188)" font-size="12" font-family="TimesNewRomanPSMT"><tspan y="0" x="301.9453 307.9453 311.2789 314.6125 320.6125 325.2829 328.6165 331.95008 335.28367 341.28367 346.60926 350.60527 356.60527 359.60527 365.60527 371.60527 376.82646 379.82646 383.16004 389.16004 392.49363 397.16404 400.49763 403.8312 409.1568 413.8272 417.1608 423.1608 428.4864 432.4824 437.80799 443.80799 447.14158 450.47517">https://ncrb.gov.in/sites/default/</tspan></text>
</g>
<g id="Layer-2" data-name="P">
<text fill="#4a6ee0" xml:space="preserve" transform="matrix(1 0 -0 1 108 644.209)" font-size="12" font-family="TimesNewRomanPSMT"><tspan y="0" x="0 3.996 7.329601 10.663201 15.988801 20.6592 23.992802 31.996804 35.9928 39.326406 48.660009 53.985609 63.981607 69.981609 75.981609 79.3152 85.3152 95.3112 101.3112 107.3112 111.307209 117.307209 123.307209 126.6408 131.9664 141.9624 147.9624 153.9624 159.9624 165.9624 171.9624 177.9624 187.9584 193.9584 199.9584 203.9544 213.95041 219.95041 225.95041 233.07 239.07 242.40361 248.40361 257.7372 263.0628 273.0588 279.0588 285.0588 291.0588 294.0588 300.0588 306.0588">files/Crime%20in%20India%202018%20-%20Volume%201.pdf</tspan></text>
</g>
<g id="Layer-2" data-name="P">
<g id="Layer-3" data-name="Span">
<text fill="#0e101a" xml:space="preserve" transform="matrix(1 0 -0 1 108 644.209)" font-size="10" font-family="TimesNewRomanPSMT"><tspan y="0" x="310.0605"> </tspan></text>
</g>
</g>
</g>
<g id="Layer-1" data-name="P">
<g id="Layer-2" data-name="P">
<text xml:space="preserve" transform="matrix(1 0 -0 1 72 673.6992)" font-size="12" font-family="TimesNewRomanPSMT"><tspan y="0" x="0 8.666401 13.992002 17.325604 20.659205 26.659205 32.659204 37.984804 41.3184 44.3184 50.9928 56.3184 65.652 71.652 74.985599 80.311199 83.311199 89.9856 95.9856 99.981609 105.981609 111.307209 117.307209 120.307209 128.9736 132.75241 136.74842 140.08202 145.40763 150.73323 153.73323 156.73323 160.72924 166.72924 172.72924 178.72924 184.72924 188.72524 191.72524">National Sample Survey Office. (2014). </tspan></text>
</g>
<g id="Layer-2" data-name="P">
<text xml:space="preserve" transform="matrix(1 0 -0 1 72 673.6992)" font-size="12" font-family="TimesNewRomanPS" font-style="italic"><tspan y="0" x="194.7305 202.0601 208.0601 214.0601 219.38571 225.38571 228.71932 232.05292 238.05292 244.05292 247.05292 250.38652 256.38655 259.38655 263.38255 269.38255 275.38255 278.71614">Education in India</tspan></text>
</g>
<g id="Layer-2" data-name="P">
<text xml:space="preserve" transform="matrix(1 0 -0 1 72 673.6992)" font-size="12" font-family="TimesNewRomanPSMT"><tspan y="0" x="284.7188 287.7188">. </tspan></text>
</g>
<g id="Layer-2" data-name="P">
<text fill="#4a6ee0" xml:space="preserve" transform="matrix(1 0 -0 1 72 673.6992)" font-size="12" font-family="TimesNewRomanPSMT"><tspan y="0" x="290.7188 296.7188 300.0524 303.386 309.386 312.71958 316.05317 319.38676 328.72035 334.72035 339.39076 345.39076 348.72434 351.72434 357.72434 361.05793 366.3835 369.3835 372.7171 378.7171 382.0507 386.7211 390.0547 393.38829 398.71388 403.38429 406.71788 412.71788 418.04347 422.03947 427.36506 433.36506 436.69865 440.03224 443.3658 447.36183 450.6954 454.029 459.35459 464.025">http://mospi.nic.in/sites/default/files/</tspan></text>
</g>
<g id="Layer-2" data-name="P">
<text fill="#4a6ee0" xml:space="preserve" transform="matrix(1 0 -0 1 108 703.18948)" font-size="12" font-family="TimesNewRomanPSMT"><tspan y="0" x="0 6 12 18 21.333601 24.667202 29.992804 35.318407 38.652006 41.985609 47.985609 53.985609 59.985609 63.981607 69.307209 75.307209 81.307209 85.30321 88.6368 93.307209 96.6408 102.6408 107.3112 111.981609 117.981609 121.97761 127.30321 133.3032 139.3032 145.3032 151.3032 157.3032 160.3032 166.3032 172.3032">publication_reports/nss_rep_575.pdf</tspan></text>
</g>
<g id="Layer-2" data-name="P">
<g id="Layer-3" data-name="Span">
<text fill="#0e101a" xml:space="preserve" transform="matrix(1 0 -0 1 108 703.18948)" font-size="10" font-family="TimesNewRomanPSMT"><tspan y="0" x="176.3027"> </tspan></text>
</g>
</g>
</g>
<path transform="matrix(1,0,0,1,72,72)" stroke-width=".5859375" stroke-linecap="butt" stroke-miterlimit="10" stroke-linejoin="miter" fill="none" stroke="#4a6ee0" d="M 384.2578 13.20117 L 417.5977 13.20117 "/>
<path transform="matrix(1,0,0,1,72,72)" stroke-width=".5859375" stroke-linecap="butt" stroke-miterlimit="10" stroke-linejoin="miter" fill="none" stroke="#4a6ee0" d="M 36 42.69141 L 202.4883 42.69141 "/>
<path transform="matrix(1,0,0,1,72,72)" stroke-width=".5859375" stroke-linecap="butt" stroke-miterlimit="10" stroke-linejoin="miter" fill="none" stroke="#4a6ee0" d="M 36 72.18164 L 465.9082 72.18164 "/>
<path transform="matrix(1,0,0,1,72,72)" stroke-width=".5859375" stroke-linecap="butt" stroke-miterlimit="10" stroke-linejoin="miter" fill="none" stroke="#4a6ee0" d="M 36 101.6719 L 182.6074 101.6719 "/>
<path transform="matrix(1,0,0,1,72,72)" stroke-width=".5859375" stroke-linecap="butt" stroke-miterlimit="10" stroke-linejoin="miter" fill="none" stroke="#4a6ee0" d="M 171.3164 190.1426 L 379.0957 190.1426 "/>
<path transform="matrix(1,0,0,1,72,72)" stroke-width=".5859375" stroke-linecap="butt" stroke-miterlimit="10" stroke-linejoin="miter" fill="none" stroke="#4a6ee0" d="M 194.543 278.6133 L 441.375 278.6133 "/>
<path transform="matrix(1,0,0,1,72,72)" stroke-width=".5859375" stroke-linecap="butt" stroke-miterlimit="10" stroke-linejoin="miter" fill="none" stroke="#4a6ee0" d="M 36 308.1035 L 352.2891 308.1035 "/>
<path transform="matrix(1,0,0,1,72,72)" stroke-width=".5859375" stroke-linecap="butt" stroke-miterlimit="10" stroke-linejoin="miter" fill="none" stroke="#4a6ee0" d="M 36 396.5742 L 183.334 396.5742 "/>
<path transform="matrix(1,0,0,1,72,72)" stroke-width=".5859375" stroke-linecap="butt" stroke-miterlimit="10" stroke-linejoin="miter" fill="none" stroke="#4a6ee0" d="M 314.2031 426.0645 L 463.1953 426.0645 "/>
<path transform="matrix(1,0,0,1,72,72)" stroke-width=".5859375" stroke-linecap="butt" stroke-miterlimit="10" stroke-linejoin="miter" fill="none" stroke="#4a6ee0" d="M 36 455.5547 L 154.998 455.5547 "/>
<path transform="matrix(1,0,0,1,72,72)" stroke-width=".5859375" stroke-linecap="butt" stroke-miterlimit="10" stroke-linejoin="miter" fill="none" stroke="#4a6ee0" d="M 346.9453 485.0449 L 437.4961 485.0449 "/>
<path transform="matrix(1,0,0,1,72,72)" stroke-width=".5859375" stroke-linecap="butt" stroke-miterlimit="10" stroke-linejoin="miter" fill="none" stroke="#4a6ee0" d="M 36 514.5352 L 143.2617 514.5352 "/>
<path transform="matrix(1,0,0,1,72,72)" stroke-width=".5859375" stroke-linecap="butt" stroke-miterlimit="10" stroke-linejoin="miter" fill="none" stroke="#4a6ee0" d="M 301.9453 544.0254 L 453.8145 544.0254 "/>
<path transform="matrix(1,0,0,1,72,72)" stroke-width=".5859375" stroke-linecap="butt" stroke-miterlimit="10" stroke-linejoin="miter" fill="none" stroke="#4a6ee0" d="M 36 573.5156 L 346.0605 573.5156 "/>
<path transform="matrix(1,0,0,1,72,72)" stroke-width=".5859375" stroke-linecap="butt" stroke-miterlimit="10" stroke-linejoin="miter" fill="none" stroke="#4a6ee0" d="M 290.7188 603.0059 L 467.3672 603.0059 "/>
<path transform="matrix(1,0,0,1,72,72)" stroke-width=".5859375" stroke-linecap="butt" stroke-miterlimit="10" stroke-linejoin="miter" fill="none" stroke="#4a6ee0" d="M 36 632.4961 L 212.3027 632.4961 "/>
</g>
</g>
</svg>
