<?xml version="1.0" encoding="UTF-8" standalone="no"?>
<!DOCTYPE svg PUBLIC "-//W3C//DTD SVG 1.1//EN" "http://www.w3.org/Graphics/SVG/1.1/DTD/svg11.dtd">
<svg xmlns="http://www.w3.org/2000/svg" xmlns:xlink="http://www.w3.org/1999/xlink" version="1.1" width="612pt" height="792pt" viewBox="0 0 612 792">
<g enable-background="new">
<clipPath id="cp10">
<path transform="matrix(1,0,0,-1,0,792)" d="M 0 0 L 612 0 L 612 792 L 0 792 Z "/>
</clipPath>
<g clip-path="url(#cp10)">
<path transform="matrix(1,0,0,-1,0,792)" d="M 0 792 L 612 792 L 612 0 L 0 0 Z " fill="#ffffff"/>
<g id="Layer-1" data-name="P">
<g id="Layer-2" data-name="P">
<g id="Layer-3" data-name="P">
</g>
<clipPath id="cp11">
<path transform="matrix(1,0,0,-1,0,792)" d="M 68.67773 67.89258 L 543.3222 67.89258 L 543.3222 723.32229 L 68.67773 723.32229 Z "/>
</clipPath>
<g clip-path="url(#cp11)">
<text xml:space="preserve" transform="matrix(1 0 -0 1 120.65 83.89447)" font-size="12" font-family="TimesNewRomanPSMT"><tspan y="0" x="0 3.3336006 9.333601 14.659202 17.659203 26.325604 32.325605 36.3216 42.3216 45.3216 50.22 55.5456 61.5456 66.8712 72.1968 78.1968 81.530399 87.530399 93.530399 98.4288 101.4288 107.4288 112.7544 117.424808 120.424808 126.424808 131.75041 137.07602 143.07602 152.40962 157.73523 160.73523 165.40563 171.40563 177.40563 183.40563 189.40563 195.40563 204.73923 210.73923 216.73923 221.40962 224.40962 233.07602 236.40962 239.74323 245.74323 248.74323 252.07683 258.07685 261.41044 264.74403 268.0776 274.0776 280.0776 283.0776 288.4032 291.7368 297.06239 301.7328 306.4032 311.7288 316.3992 319.3992 324.0696 330.0696 333.4032 338.7288 342.06239 348.06239 351.06239 354.39598 358.39198 363.71757 367.05116 373.05116 376.38475 382.38475 388.38475">the word "coaching" has become synonymous with tuition classes solely training </tspan></text>
<text xml:space="preserve" transform="matrix(1 0 -0 1 120.65 113.38483)" font-size="12" font-family="TimesNewRomanPSMT"><tspan y="0" x="0 4.6704 8.004001 14.004001 20.004002 25.329604 31.329604 34.663206 39.333604 42.333604 46.3296 52.3296 56.3256 59.3256 65.3256 71.3256 74.659198 80.659198 85.984798 89.9808 94.6512 97.984798 101.31839 107.31839 110.31839 115.64399 121.64399 124.977588 128.97359 134.2992 140.2992 145.6248 150.95041 153.95041 159.27602 165.27602 170.60163 179.93523 184.60562">students for university entrance exams.</tspan></text>
<g id="Layer-4" data-name="Span">
<text xml:space="preserve" transform="matrix(1 0 -0 1 120.65 113.38483)" font-size="12" font-family="TimesNewRomanPSMT"><tspan y="0" x="187.6113"> </tspan></text>
</g>
</g>
</g>
</g>
<g id="Layer-1" data-name="P">
<text fill="#0e101a" xml:space="preserve" transform="matrix(1 0 -0 1 259.2949 172.36518)" font-size="12" font-family="TimesNewRomanPS" font-weight="bold"><tspan y="0" x="0 8.004001 11.337601 15.333601 20.659203 25.984805 31.984805 35.980806 42.655206 47.764806 53.090406 56.090406 64.756809 70.082408 76.082408 79.416 84.7416">Literature Review</tspan></text>
<g id="Layer-2" data-name="Span">
<text fill="#0e101a" xml:space="preserve" transform="matrix(1 0 -0 1 259.2949 172.36518)" font-size="12" font-family="TimesNewRomanPSMT"><tspan y="0" x="93.41016"> </tspan></text>
</g>
</g>
<g id="Layer-1" data-name="P">
<text fill="#0e101a" xml:space="preserve" transform="matrix(1 0 -0 1 72 201.85553)" font-size="12" font-family="TimesNewRomanPS" font-weight="bold"><tspan y="0" x="0 8.666401 13.992002 18.662402 23.988003 29.988003 35.097604 40.423204 47.097604 50.097604 59.431203 66.105609 71.431209 76.10161 80.09761 83.431209 89.431209 96.10561 99.10561 105.10561 111.10561 115.101619 117.43922 126.10562 131.43123 137.43123 144.10562 149.43123 159.42723 162.76084 168.08644 171.08644 177.76084 181.75684 186.86644 192.19205 196.86244 201.53284 207.53284 212.85845">Research Question #1: Academic Stressors</tspan></text>
<g id="Layer-2" data-name="Span">
<text fill="#0e101a" xml:space="preserve" transform="matrix(1 0 -0 1 72 201.85553)" font-size="12" font-family="TimesNewRomanPSMT"><tspan y="0" x="217.5293"> </tspan></text>
</g>
</g>
<g id="Layer-1" data-name="P">
<text fill="#0e101a" xml:space="preserve" transform="matrix(1 0 -0 1 108 231.3457)" font-size="12" font-family="TimesNewRomanPSMT"><tspan y="0" x="0 8.666401 13.336802 16.336802 21.007203 26.332804 32.3328 38.3328 44.3328 47.6664 50.6664 54.000005 57.333608 61.329607 66.655208 69.655208 75.655208 80.980808 86.306407 92.306407 101.64 106.9656 111.636 114.636 123.9696 129.9696 133.9656 139.29122 142.29122 147.61682 153.61682 162.95043 168.95043 174.27603 177.60964 180.94324 184.27684 187.61045 193.61045 198.93605 201.93605 207.26166 213.26166 219.26166 222.26166 228.26166 234.26166 238.25766 244.25766 249.58327 255.58327 260.2537 266.2537 275.58729 280.91288 283.91288 286.91288 291.58329 294.91688 298.91288 304.23847 308.90888 313.57929 316.57929 322.57929 327.90489 332.5753 335.5753 341.5753 346.90089 352.22648 358.22648 367.56007 372.88566 375.88566 381.21125 384.21125 389.53684 395.53684 404.87043 414.204 420.204 426.204">As school life becomes more competitive and burdensome, stress has become a common </tspan></text>
<text fill="#0e101a" xml:space="preserve" transform="matrix(1 0 -0 1 72 260.83589)" font-size="12" font-family="TimesNewRomanPSMT"><tspan y="0" x="0 3.3336006 8.659201 12.655201 21.988802 24.988802 28.984803 34.984804 38.9808 41.9808 47.3064 53.3064 58.632 62.628 68.628 74.628 79.9536 85.9536 88.9536 92.28719 95.62079 99.61679 104.94239 107.94239 113.26799 122.601589 128.6016 134.6016 140.6016 143.6016 148.27199 151.60559 157.60559 163.60559 168.9312 174.9312 178.2648 182.9352 185.9352 189.2688 195.2688 198.2688 202.2648 208.2648 214.2648 217.5984 222.92401 225.92401 229.92002 238.58641 244.58641 253.92002 259.2456 263.2416 266.2416 275.5752 278.358 284.85 290.1756 293.5092 302.1756 307.5012 311.01719 314.01719 317.01719 323.01719 329.01719 335.01719 341.01719 345.01319 348.01319 351.01319 359.01719 365.01719 370.34278 374.33879 379.66438 384.98997 388.32356 393.64915 397.64515 400.97874 406.30433 411.6299 417.6299 420.6299 426.6299 432.6299">term for everyday life among students in India (Kumar &#x0026; Talwar, 2014). Characterized by </tspan></text>
<text fill="#0e101a" xml:space="preserve" transform="matrix(1 0 -0 1 72 290.3262)" font-size="12" font-family="TimesNewRomanPSMT"><tspan y="0" x="0 6 11.325601 15.321601 18.655201 24.655201 30.655201 35.3256 38.3256 42.996 48.996 58.3296 64.329608 67.6632 73.6632 82.996799 87.6672 90.6672 94.00079 100.00079 103.00079 106.33439 112.33439 117.65999 120.65999 124.65599 130.65599 134.652 143.9856 146.9856 152.9856 156.9816 159.9816 164.652 167.9856 171.9816 177.3072 181.9776 186.648 189.648 193.644 198.9696 204.29521 209.62082 212.95442 216.28803 222.28803 228.28803 232.95842 235.95842 238.95842 242.29203 245.62563 248.62563 254.62563 259.9512 264.6216 267.6216 273.6216 278.9472 284.2728 290.2728 299.60639 304.93199 307.93199 313.25758 316.25758 320.92799 324.26158 330.26158 336.26158 339.59516 343.59117 346.92475 352.25035 357.57594 363.57594 366.90953 369.90953 375.2351 380.5607 386.5607 391.2311 396.5567 399.5567 403.5527 409.5527 413.5487 416.5487 422.5487 427.8743 431.8703 435.2039 441.2039 447.2039 451.8743">various symptoms in the form of stress reactions, it has become a significant cause for various </tspan></text>
<text fill="#0e101a" xml:space="preserve" transform="matrix(1 0 -0 1 72 319.8164)" font-size="12" font-family="TimesNewRomanPSMT"><tspan y="0" x="0 6 10.670401 16.6704 21.996003 27.996003 33.996004 37.3296 43.3296 49.3296 52.663206 57.988805 63.314405 66.648 69.648 74.9736 80.9736 86.9736 89.9736 95.9736 101.2992 107.2992 112.6248 118.6248 121.9584 127.9584 131.95439 137.28 140.6136 143.6136 149.6136 153.6096 159.6096 165.6096 168.9432 174.26882 183.60242 188.27281 191.27281 194.60642 200.60642 203.60642 207.60242 213.60242 219.60242 222.93602 228.26163 234.26163 237.26163 241.93202 247.25763 253.25763 259.25764 265.25764 268.59123 271.59123 276.26164 279.5952 285.5952 291.5952 296.9208 302.9208 306.2544 310.9248 313.9248 317.9208 326.58723 330.58323 336.58323 342.58323 345.58323 354.9168 357.9168 365.9208 371.9208 377.2464 383.2464 388.572 394.572 397.572 400.572 406.572 412.572 418.572 424.572 427.90559 430.90559 439.572 444.89759 450.89759 453.89759 459.22319 462.55677">psychological and behavioral problems in Indian school students (Arun &#x0026; Chavan, 2009; Deb et </tspan></text>
<text fill="#0e101a" xml:space="preserve" transform="matrix(1 0 -0 1 72 349.3066)" font-size="12" font-family="TimesNewRomanPSMT"><tspan y="0" x="0 5.3256008 8.659201 11.659201 14.659201 17.6592 23.6592 29.6592 35.659204 41.659204 44.9928 47.9928 56.659204 62.659204 71.9928 77.3184 81.3144 84.3144 93.647998 96.43079 102.9228 108.2484 111.58199 120.2484 125.574 129.09 132.09 135.09 141.09 147.09 153.09 159.09 162.4236 165.4236 176.094 181.4196 184.7532 190.7532 196.07881 204.74521 207.74521 213.07082 216.40442 219.40442 224.73003 228.06363 231.06363 234.06363 237.06363 243.06363 249.06363 255.06363 261.06364 264.39723 267.39723 274.07164 279.39723 283.39323 286.7268 292.7268 298.7268 301.7268 307.0524 310.386 313.386 318.71159 322.04518 325.04518 328.04518 331.04518 337.04518 343.04518 349.04518 355.04518 358.37876 361.16157 368.49717 373.82276 377.81877 387.15235 392.47795 395.47795 400.80354 404.13713 407.13713 412.4627 415.7963 418.7963 421.7963 424.7963 430.7963 436.7963 442.7963 448.7963 452.7923 455.7923">al., 2015; Kumar &#x0026; Talwar, 2014; Mathew et al., 2015; Parikh et al., 2019; Verma et al., 2002). </tspan></text>
<text fill="#0e101a" xml:space="preserve" transform="matrix(1 0 -0 1 72 378.7969)" font-size="12" font-family="TimesNewRomanPSMT"><tspan y="0" x="0 6.674401 12.000001 15.996001 19.329602 25.329602 31.329602 34.3296 39.6552 42.988805 45.988805 51.314405 54.648008 57.648008 60.648008 64.644008 70.644008 76.644008 82.644008 88.644008 92.64001 95.64001 100.31041 103.644008 108.969608 112.3032 117.6288 120.6288 123.962398 129.9624 135.28801 138.62162 141.62162 146.292 149.62561 155.62561 161.62561 164.95922 170.28482 174.95522 177.95522 183.28083 189.28083 195.28083 201.28083 207.28083 212.60643 215.94004 221.26564 227.26564 230.26564 235.59125 244.92485 250.92485 256.92488 262.92488 265.92488 270.59529 275.92088 281.92088 287.92088 293.92088 297.25447 301.25047 307.25047 313.25047 316.58406 322.58406 328.58406 331.58406 336.90965 342.90965 348.90965 352.24324 357.56883 362.23924 367.56483 372.8904 378.8904 382.224 386.8944 389.8944 393.228 399.228 402.228 408.228 412.224 418.224 423.5496 429.5496 432.5496 436.5456 442.5456 448.5456 451.87919 457.20478">Parikh et al. (2019) state that studies conducted among school-going adolescents in urban India </tspan></text>
<text fill="#0e101a" xml:space="preserve" transform="matrix(1 0 -0 1 72 408.2871)" font-size="12" font-family="TimesNewRomanPSMT"><tspan y="0" x="0 3.3336006 9.333601 15.333601 18.667202 23.992804 29.318406 32.652006 37.977605 40.977605 44.311208 50.311208 55.636808 58.97041 61.97041 67.296009 70.6296 73.6296 76.963199 82.288799 87.614398 92.2848 95.61839 98.61839 104.61839 110.61839 115.94399 118.94399 122.27759 128.27759 131.27759 135.27359 138.6072 144.6072 149.9328 152.9328 158.2584 164.2584 170.2584 173.59201 178.91762 183.58802 188.91362 194.23923 200.23923 203.57283 208.24323 211.24323 216.56884 222.56884 228.56884 234.56884 238.56484 243.89044 248.56084 251.56084 257.56086 260.89445 266.89445 272.89445 276.89045 281.56086 284.89445 288.89045 294.21604 298.88645 303.55686 306.55686 309.89045 315.21604 321.21604 326.54164 329.8752 334.54563 337.54563 340.8792 346.8792 349.8792 353.2128 359.2128 364.5384 367.87199 371.86799 374.86799 380.86799 386.19358 389.52717 392.86076 398.86076 401.86076 405.19435 408.52793 414.52793 419.85353 424.52394 427.52394 430.30674 437.63633 443.63633 448.9619 453.63233 458.95793">indicate that at least one in five adolescents endures high-stress levels in their daily lives. These </tspan></text>
<text fill="#0e101a" xml:space="preserve" transform="matrix(1 0 -0 1 72 437.7773)" font-size="12" font-family="TimesNewRomanPSMT"><tspan y="0" x="0 4.6704 8.004001 13.3296 16.6632 19.996802 24.667202 28.000803 31.334404 36.660005 41.330404 44.330404 49.656003 53.652 58.9776 61.9776 67.9776 73.9776 77.311199 81.9816 85.31519 90.64079 94.636798 99.962398 105.962398 108.962398 114.962398 120.962398 123.962398 127.29599 133.29599 138.6216 141.6216 145.6176 150.9432 155.6136 160.93921 166.26482 170.26082 175.58643 181.58643 184.58643 189.91204 195.91204 201.91204 207.91204 213.91204 219.23764 222.57125 227.89685 233.89685 236.89685 242.89685 248.89685 251.89685 260.56327 265.88887 271.88887 274.88887 280.21446 283.54804 286.54804 291.87364 295.2072 298.2072 301.2072 305.20323 311.20323 317.20323 323.20323 329.20323 333.19923 336.19923 339.19923 347.86564 353.86564 357.19923 362.5248 368.5248 371.5248 375.5208 380.8464 386.8464 392.8464 396.8424 400.176 404.8464 407.8464 411.18 417.18 422.50559 425.83918 428.83918 434.83918 440.83918 443.83918 449.83918 459.83518">statistics are bolstered by the research conducted by Deb et al. (2015), which reports that 63.5% </tspan></text>
<text fill="#0e101a" xml:space="preserve" transform="matrix(1 0 -0 1 72 467.2676)" font-size="12" font-family="TimesNewRomanPSMT"><tspan y="0" x="0 6 9.996 12.996 18.996 22.329602 28.329602 34.3296 39.6552 43.6512 46.6512 51.321599 56.647199 61.972799 67.97279 73.97279 79.97279 85.29839 89.294399 95.294399 98.294399 102.9648 106.29839 112.29839 118.29839 123.62399 129.624 132.9576 137.62799 140.62799 143.9616 149.9616 152.9616 161.62799 167.62799 170.9616 176.9616 182.2872 185.6208 190.94641 193.94641 199.27202 205.27202 211.27202 216.59763 220.59363 223.92723 229.25284 235.25284 240.57845 245.90406 248.90406 254.22966 259.55525 264.88084 270.88084 276.20643 285.54 288.8736 294.1992 297.1992 301.8696 305.2032 309.1992 314.52479 319.1952 323.8656 326.8656 329.6484 336.978 342.978 348.3036 352.974 358.2996 361.2996 366.62519 371.95079 377.27638 383.27638 388.60197 397.93556 401.26914 406.59474 409.59474 414.92033 420.92033 426.92033 430.2539 435.5795 438.9131 442.24668 447.57228 452.24269">of higher secondary students in Kolkata experience academic stress. These academic anxieties </tspan></text>
<text fill="#0e101a" xml:space="preserve" transform="matrix(1 0 -0 1 72 496.7578)" font-size="12" font-family="TimesNewRomanPSMT"><tspan y="0" x="0 9.3336 14.6592 20.659199 23.659199 28.9848 34.984804 40.984804 46.310403 51.636 55.632 58.632 62.628 66.624 72.624 81.957599 84.957599 90.957599 96.283199 100.2792 103.61279 109.61279 115.61279 120.283199 123.283199 127.9536 133.9536 139.9536 143.9496 149.2752 154.60082 159.27121 162.27121 165.60482 171.60482 174.60482 179.93042 182.93042 187.60082 190.93442 196.93442 202.93442 208.26003 214.26003 217.59363 219.75603 224.42642 227.42642 232.75203 238.07764 244.07764 247.41124 253.41124 259.41127 262.74485 268.07044 273.39604 276.7296 279.7296 285.0552 291.0552 297.0552 300.3888 304.3848 310.3848 316.3848 325.71839 331.04399 337.04399 340.37757 343.37757 346.37757 349.71116 355.71116 361.03675 364.37034 370.37034 376.37034 379.70393 385.70393 391.70393 394.70393 399.37434 402.70793 406.70393 412.0295 416.69993 421.37034 424.37034 428.36634 432.36235 438.36235 447.69593">may appear from various sources in a student's ecological environment, including stress from </tspan></text>
<text fill="#0e101a" xml:space="preserve" transform="matrix(1 0 -0 1 72 526.248)" font-size="12" font-family="TimesNewRomanPSMT"><tspan y="0" x="0 3.996 9.3216 18.655201 21.988802 25.322403 30.543602 33.543603 36.543603 42.543603 47.8692 53.1948 57.1908 61.8612 64.8612 67.8612 72.5316 77.8572 83.8572 89.8572 95.8572 99.190799 103.8612 106.8612 109.8612 115.1868 121.1868 130.5204 139.854 145.854 151.854 155.1876 158.52121 161.85482 167.18042 171.85082 174.85082 177.85082 183.17642 189.17642 195.17642 198.17642 204.17642 209.50203 213.49803 216.83164 222.83164 228.83164 233.50203 236.50203 242.50203 245.83563 251.83563 257.16123 261.15724 264.15724 268.82765 274.82765 280.82765 284.82365 290.14924 295.47483 300.14524 303.14524 307.14125 313.81565 319.14125 323.13725 326.47084 332.47084 338.47084 341.47084 346.79643 350.13 353.13 358.4556 361.78919 364.78919 367.78919 370.78919 376.78919 382.78919 388.78919 394.78919 398.7852 401.7852 404.568 411.89759 417.89759 421.23118 425.90159">family, peers, schools, communities, and various other sources (Parikh et al., 2019). This </tspan></text>
<text fill="#0e101a" xml:space="preserve" transform="matrix(1 0 -0 1 72 555.7383)" font-size="12" font-family="TimesNewRomanPSMT"><tspan y="0" x="0 3.3336006 6.667201 10.000801 15.326402 19.322402 24.648003 27.981604 33.981607 37.977605 43.303205 46.303205 50.299203 55.6248 61.6248 64.9584 70.284 78.9504 81.9504 90.616809 93.9504 97.284 100.61759 103.61759 106.95119 112.95119 118.95119 124.27679 128.94719 132.28079 135.6144 141.6144 146.94 150.2736 155.59922 158.59922 161.93282 167.93282 173.25843 176.25843 182.25843 187.58403 191.58003 194.91364 200.91364 206.91364 211.58403 214.58403 219.25443 222.58803 226.58403 231.90964 236.58003 241.25043 247.25043 251.24643 255.91683 258.9168 262.9128 268.2384 273.564 278.8896 284.8896 287.8896 293.8896 299.8896 302.8896 306.8856 312.8856 318.8856 322.21919 327.54478 333.54478 336.54478 341.21519 346.54078 352.54078 358.54078 364.54078 367.87437 370.87437 375.54478 378.87837 384.87837 390.87837 396.20396 402.20396 405.53755 410.20796 413.20796 418.53355 424.53355 430.53355 435.85914 441.18473 445.18074 451.18074 454.5143 460.5143 466.5143">literature review will investigate the various stressors faced by Indian school students concerning </tspan></text>
<text fill="#0e101a" xml:space="preserve" transform="matrix(1 0 -0 1 72 585.2285)" font-size="12" font-family="TimesNewRomanPSMT"><tspan y="0" x="0 3.3336006 9.333601 14.659202 19.329602 24.655203 27.655203 31.651204 36.976804 42.302404 45.636007 51.636007 55.632005 60.302404 63.302404">these factors. </tspan></text>
<g id="Layer-2" data-name="Span">
<text fill="#0e101a" xml:space="preserve" transform="matrix(1 0 -0 1 72 585.2285)" font-size="12" font-family="TimesNewRomanPSMT"><tspan y="0" x="66.30469"> </tspan></text>
</g>
</g>
<g id="Layer-1" data-name="P">
<text fill="#0e101a" xml:space="preserve" transform="matrix(1 0 -0 1 72 644.209)" font-size="12" font-family="TimesNewRomanPS" font-weight="bold" font-style="italic"><tspan y="0" x="0 6.674401 10.008 14.678401 20.004002 24.6744 29.344799 32.3448 36.340799 41.011198 47.011198 56.3448 59.3448 67.3488 73.3488 82.682399 86.01599 89.34959 94.675189 98.00878 101.00878 108.33838 114.33838 119.00878 124.33438 131.00878 134.34238">Stress from Family/ Parents</tspan></text>
<g id="Layer-2" data-name="Span">
<text fill="#0e101a" xml:space="preserve" transform="matrix(1 0 -0 1 72 644.209)" font-size="12" font-family="TimesNewRomanPSMT"><tspan y="0" x="139.0137"> </tspan></text>
</g>
</g>
<g id="Layer-1" data-name="P">
<text fill="#0e101a" xml:space="preserve" transform="matrix(1 0 -0 1 108 673.6992)" font-size="12" font-family="TimesNewRomanPS" font-weight="bold"><tspan y="0" x="0"> </tspan></text>
<text fill="#0e101a" xml:space="preserve" transform="matrix(1 0 -0 1 108 673.6992)" font-size="12" font-family="TimesNewRomanPSMT"><tspan y="0" x="3 9.674401 15.000001 18.996 24.321602 30.321602 33.6552 38.9808 42.314405 45.314405 51.314405 55.310403 60.636 65.306407 69.97681 75.97681 79.97281 85.29841 88.29841 93.62401 99.62401 105.62401 108.9576 112.953609 116.2872 122.2872 128.2872 131.6208 136.94641 141.6168 144.6168 147.95041 153.95041 156.95041 162.27602 165.27602 171.27602 176.60163 181.27202 184.60562 187.60562 190.93923 196.93923 202.26483 208.26483 211.26483 217.26483 221.26084 224.26084 229.58644 234.91205 240.23766 246.23766 251.56327 260.89686 264.23045 269.55604 272.55604 278.55604 282.55204 287.87763 292.54804 297.21846 303.21846 307.21446 312.54005 315.54005 318.87364 324.87364 327.87364 333.87364 339.19923 343.19523 346.5288 352.5288 358.5288 363.19923 366.19923 370.19523 376.19523 380.19123 389.5248 394.19523 397.19523 400.19523 406.19523 412.19523 422.19123">Parental pressure contributes to a vast load of academic pressure in various forms. 66% </tspan></text>
<text fill="#0e101a" xml:space="preserve" transform="matrix(1 0 -0 1 72 703.18948)" font-size="12" font-family="TimesNewRomanPSMT"><tspan y="0" x="0 6 9.996 12.996 17.6664 21.000002 27.000002 33 38.3256 44.3256 47.6592 52.329599 55.329599 58.663198 64.66319 67.66319 72.98879 75.98879 79.984798 85.310398 89.9808 95.3064 100.631999 104.628 109.9536 115.9536 118.9536 123.624 126.957599 132.9576 138.9576 144.9576 147.9576 153.2832 159.2832 165.2832 171.2832 177.2832 182.60881 185.94242 191.26802 197.26802 200.26802 206.26802 212.26802 215.26802 223.93442 229.26003 235.26003 238.26003 243.58563 246.91924 249.91924 255.24485 258.57844 261.57844 264.57844 268.57444 274.57444 280.57444 286.57444 292.57444 296.57044 299.57044 303.56645 308.89204 314.89204 320.89204 324.88804 328.22163 333.5472 339.5472 342.5472 348.5472 353.8728 357.8688 363.1944 369.1944 372.52799 377.1984 380.1984 386.1984 390.1944 395.52 400.1904 404.8608 410.8608 414.8568 418.1904 424.1904 430.1904 433.1904 436.524 442.524 447.84959 457.18318">of students in a research study conducted by Deb et al. (2015) reported parents pressuring them </tspan></text>
</g>
</g>
</g>
</svg>
