<?xml version="1.0" encoding="UTF-8" standalone="no"?>
<!DOCTYPE svg PUBLIC "-//W3C//DTD SVG 1.1//EN" "http://www.w3.org/Graphics/SVG/1.1/DTD/svg11.dtd">
<svg xmlns="http://www.w3.org/2000/svg" xmlns:xlink="http://www.w3.org/1999/xlink" version="1.1" width="612pt" height="792pt" viewBox="0 0 612 792">
<g enable-background="new">
<clipPath id="cp12">
<path transform="matrix(1,0,0,-1,0,792)" d="M 0 0 L 612 0 L 612 792 L 0 792 Z "/>
</clipPath>
<g clip-path="url(#cp12)">
<path transform="matrix(1,0,0,-1,0,792)" d="M 0 792 L 612 792 L 612 0 L 0 0 Z " fill="#ffffff"/>
<g id="Layer-1" data-name="P">
</g>
<clipPath id="cp13">
<path transform="matrix(1,0,0,-1,0,792)" d="M 68.67773 67.89258 L 543.3222 67.89258 L 543.3222 723.32229 L 68.67773 723.32229 Z "/>
</clipPath>
<g clip-path="url(#cp13)">
<text fill="#0e101a" xml:space="preserve" transform="matrix(1 0 -0 1 72 83.89447)" font-size="12" font-family="TimesNewRomanPSMT"><tspan y="0" x="0 3.3336006 9.333601 18 23.325602 27.321602 33.3216 37.992 40.992 46.992 52.3176 55.651205 58.984807 64.3104 68.306407 71.306407 76.632 81.9576 87.2832 93.2832 98.6088 107.9424 111.27599 116.60159 119.60159 125.60159 130.9272 134.9232 138.9192 144.9192 148.9152 158.24881 163.57442 169.57442 174.90003 180.22563 184.89603 187.89603 190.89603 199.56243 205.56243 208.89603 212.22963 217.55524 220.55524 226.55524 232.55524 237.88085 241.87685 245.87285 251.87285 257.87287 261.86888 265.20246 271.20246 274.20246 280.20246 284.19847 287.19847 290.53205 296.53205 301.85765 304.85765 309.52806 312.86164 318.86164 324.86164 330.18724 336.18724 339.5208 344.19123 347.19123 350.5248 356.5248 359.5248 364.8504 367.8504 372.5208 375.8544 381.8544 387.8544 393.8544 396.8544 402.18 408.18 414.18 420.18 426.18 431.50559 434.83918 440.16477 446.16477 449.16477 455.16477 461.16477">towards better academic performances, while one-fourth of the students in a study conducted by </tspan></text>
<text fill="#0e101a" xml:space="preserve" transform="matrix(1 0 -0 1 72 113.38483)" font-size="12" font-family="TimesNewRomanPSMT"><tspan y="0" x="0 8.666401 12.662401 18.662402 24.662402 27.662402 32.988004 38.988004 44.988004 47.988004 55.992006 61.992006 67.317607 73.317607 78.6432 84.6432 87.6432 91.639209 97.639209 103.639209 109.639209 115.639209 119.63521 122.63521 126.63121 131.95682 137.95682 143.95682 147.95282 151.28643 156.61203 162.61203 165.61203 171.61203 175.60803 181.60803 187.60803 190.94164 196.26725 205.60085 210.27124 213.27124 216.60485 222.60485 228.60485 234.60485 237.93845 243.93845 247.27205 253.27205 259.27204 262.27204 266.26805 270.26405 275.58964 281.58964 287.58964 292.91523 298.91523 302.2488 305.2488 310.5744 314.3532 320.3532 326.3532 335.6868 341.0124 347.0124 350.34599 355.0164 358.0164 366.6828 370.0164 373.34999 379.34999 382.34999 388.34999 393.67558 397.67158 402.99717 408.99717 412.33076 417.00117 420.00117">Arun and Chavan (2009) reported problems involving frequent arguments with parents, </tspan></text>
<text fill="#0e101a" xml:space="preserve" transform="matrix(1 0 -0 1 72 142.875)" font-size="12" font-family="TimesNewRomanPSMT"><tspan y="0" x="0 5.3256008 9.321601 12.655201 15.988801 19.322403 24.648005 27.981606 33.307207 36.640806 42.640806 48.640806 51.640806 56.966405 62.966405 68.9664 71.9664 75.299999 81.299999 84.63359 89.95919 93.95519 97.951198 103.276798 107.2728 110.60639 116.60639 122.60639 125.60639 130.93199 134.2656 137.5992 140.9328 144.2664 150.2664 156.2664 161.59201 166.2624 169.2624 175.2624 179.2584 182.2584 188.2584 193.58402 197.58002 202.90563 208.90563 212.23923 216.90962 219.90962 222.90962 228.90962 232.24323 236.91362 242.23923 248.23923 252.23523 257.56083 262.8864 272.22 277.5456 283.5456 286.87919 291.5496 294.5496 300.5496 305.87519 309.20878 317.87519 323.20079 328.52638 334.52638 337.52638 342.19679 345.53038 351.53038 357.53038 362.85597 368.85597 372.18955 376.85997 379.85997 385.18556 391.18556 397.18556 400.18556 403.51914 409.51914 414.84474 418.1783 422.17433 425.17433 431.17433 436.4999 440.4959 445.8215 451.8215 455.1551 459.8255 462.8255">criticizing and interfering attitudes of parents, disagreements between students and their parents, </tspan></text>
<text fill="#0e101a" xml:space="preserve" transform="matrix(1 0 -0 1 72 172.36518)" font-size="12" font-family="TimesNewRomanPSMT"><tspan y="0" x="0 5.3256008 11.325601 17.3256 20.3256 26.3256 32.3256 38.3256 42.321599 45.321599 48.6552 52.6512 58.6512 63.321599 66.6552 69.6552 72.6552 78.6552 81.98879 87.98879 93.98879 96.98879 102.31439 108.31439 114.31439 119.63999 124.96559 128.2992 133.6248 136.9584 140.292 146.292 152.292 156.9624 159.9624 162.9624 168.28801 174.28801 180.28801 183.28801 188.61362 191.61362 194.94722 200.27283 205.59844 211.59844 214.59844 220.59844 224.59444 227.59444 233.59444 239.59444 242.92804 248.92804 254.25365 260.25367 265.57926 270.90486 273.90486 279.90486 285.90486 288.90486 294.90486 300.23045 304.22645 309.55204 315.55204 318.88563 323.55604 326.55604 329.55604 333.55204 339.55204 342.55204 351.88563 357.2112 363.2112 369.2112 372.2112 376.2072 381.5328 390.8664 394.19999 397.53358 400.86717 406.19276 410.86317 413.86317 416.86317 422.86317 428.18876 432.18476 437.51036 443.51036 446.84394 451.51435">and poor trust, high expectations, and a lack of guidance by parents. In many families, parents </tspan></text>
<text fill="#0e101a" xml:space="preserve" transform="matrix(1 0 -0 1 72 201.85553)" font-size="12" font-family="TimesNewRomanPSMT"><tspan y="0" x="0 6 9.3336 14.004001 18 23.325602 29.325602 34.651205 38.6472 44.6472 47.6472 50.9808 56.9808 62.3064 65.64 69.636 72.636 77.9616 83.9616 87.2952 90.62879 96.62879 100.624797 105.95039 111.95039 114.1128 118.7832 121.7832 127.1088 133.1088 136.4424 139.776 143.1096 146.4432 149.77681 155.10242 159.77281 162.77281 168.09842 174.09842 180.09842 183.09842 188.42403 193.74964 199.74964 205.07524 210.40085 213.73445 217.06806 220.40166 225.72727 230.39766 233.39766 238.72327 244.72327 250.72327 253.72327 257.05686 266.39045 272.39045 278.39045 283.06086 288.38645 291.38645 297.38645 302.71205 306.70805 310.04164 316.04164 322.04164 326.71205 329.71205 335.03764 341.03764 347.03764 352.36323 357.6888 361.0224 366.348 369.68159 373.01518 379.01518 385.01518 389.68559 392.68559 396.68159 404.68559 410.68559 416.01118 419.78999 425.78999 431.11558 437.11558 442.44117 445.44117 454.77476">disregard their children's abilities and capacities and impose various expectations (Bhargava &#x0026; </tspan></text>
<text fill="#0e101a" xml:space="preserve" transform="matrix(1 0 -0 1 72 231.3457)" font-size="12" font-family="TimesNewRomanPSMT"><tspan y="0" x="0 6.9083998 10.242 18.9084 24.234002 28.230002 31.563603 34.563604 37.563604 43.563604 49.563604 55.563604 61.563604 65.5596 68.5596 71.3424 78.672 84.672 89.9976 92.9976 98.9976 102.33119 108.33119 114.33119 117.33119 122.65679 128.6568 137.9904 143.9904 149.31601 152.64962 155.98322 159.31682 162.65042 168.65042 174.65042 177.65042 182.97603 192.30963 198.30963 204.30963 210.30963 213.30963 219.30963 224.63524 229.96085 233.95685 238.62725 241.62725 244.96085 250.96085 253.96085 258.63127 263.95686 269.95686 275.95686 281.95686 285.29045 288.29045 294.29045 298.28645 301.62004 306.94563 312.94563 315.94563 321.2712 326.5968 332.5968 337.2672 342.5928 347.2632 350.2632 356.2632 361.5888 365.5848 370.9104 376.9104 380.244 384.9144 387.9144 391.248 397.248 400.248 405.57359 409.56959 412.90318 416.23677 419.57035 424.89595 428.22953 433.5551 438.8807 441.8807 445.2143 451.2143 456.5399 459.87348 463.86949">Tiwari, 2019). The high competition among peers in school often causes parents to criticize their </tspan></text>
<text fill="#0e101a" xml:space="preserve" transform="matrix(1 0 -0 1 72 260.83589)" font-size="12" font-family="TimesNewRomanPSMT"><tspan y="0" x="0 5.3256008 11.325601 14.659201 17.992802 23.992802 27.988802 33.314405 39.314405 42.314405 47.640005 53.640005 59.640005 62.640005 67.9656 73.9656 83.299198 89.299198 94.624797 98.6208 103.946399 106.946399 110.27999 116.27999 121.60559 124.939189 128.93518 131.93518 137.93518 143.26079 147.25679 151.25279 157.25279 161.2488 170.5824 175.908 181.908 187.23361 192.55922 195.55922 204.22562 207.55922 210.89282 216.89282 219.89282 223.22643 229.22643 234.55204 237.55204 243.55204 248.87764 253.54804 256.88163 259.88163 263.2152 269.2152 272.2152 277.5408 280.8744 286.19999 290.8704 295.5408 298.5408 302.5368 311.20323 316.5288 322.5288 325.5288 330.8544 334.188 337.188 342.51359 345.84718 348.84718 351.84718 354.84718 360.84718 366.84718 372.84718 378.84718 382.84318 385.84318 388.84318 395.51759 400.84318 404.83918 410.16477 416.16477 419.49836 424.16877 427.16877 432.49436 438.49436 444.49436 448.49037 453.81596 458.48637 463.15678">children and compare their performance with the best in class (Deb et al., 2015). Parents express </tspan></text>
<text fill="#0e101a" xml:space="preserve" transform="matrix(1 0 -0 1 72 290.3262)" font-size="12" font-family="TimesNewRomanPSMT"><tspan y="0" x="0 5.3256008 14.659201 20.6592 25.984803 29.980803 33.976804 39.302404 43.9728 48.6432 57.976804 63.302404 69.3024 72.635997 75.635997 78.635997 84.635997 87.96959 92.63999 97.96559 103.96559 109.96559 115.96559 119.29919 125.29919 128.6328 137.9664 143.292 149.292 152.62561 155.62561 158.62561 163.95122 169.95122 175.95122 178.95122 183.84961 189.84961 195.17522 198.50882 203.83443 208.73282 211.73282 215.72882 221.72882 225.72483 228.72483 233.39522 236.72882 242.72882 248.72882 254.05443 260.05445 263.38804 268.05845 271.05845 277.05845 283.05845 288.38404 291.38404 294.71763 300.71763 303.71763 309.71763 315.71763 321.71763 325.71363 328.71363 334.0392 339.3648 344.6904 350.6904 356.016 365.34959 368.68318 374.00877 377.00877 383.00877 388.33436 392.33036 396.32637 402.32637 406.32237 415.65596 420.98155 426.98155 432.30714 437.63273 442.30314">embarrassment, disappointment, and "hate" for students due to poor academic performances </tspan></text>
<text fill="#0e101a" xml:space="preserve" transform="matrix(1 0 -0 1 72 319.8164)" font-size="12" font-family="TimesNewRomanPSMT"><tspan y="0" x="0 3.996 10.670402 15.996001 19.992 23.325602 29.325602 35.3256 38.3256 43.6512 46.9848 49.9848 55.3104 58.644 61.644 64.644 67.644 73.644 79.644 85.644 91.644 95.64 98.64 101.64 105.636 111.636 116.9616 120.9576 126.2832 131.60881 136.2792 139.61281 145.61281 151.61281 154.61281 160.61281 166.61281 171.93842 181.27202 187.27202 190.60562 196.60562 202.60562 211.93923 217.26483 223.26483 226.59844 229.59844 232.59844 238.59844 243.92404 247.92005 252.59044 258.59046 264.59046 269.91606 273.24964 276.24964 281.57524 287.57524 293.57524 298.90083 302.89683 306.2304 311.556 317.556 322.8816 328.20719 332.8776 335.8776 338.8776 344.2032 350.2032 356.2032 359.2032 364.52879 367.52879 373.52879 378.85438 383.52479 386.85838 390.85438 396.17997 399.17997 403.17597 409.17597 413.17198 416.17198 419.50556 425.50556 430.83116 433.83116 439.83116 445.15675 449.82716 453.16075">(Parikh et al., 2019). Increasing unemployment, personal experiences, and a desire for the best </tspan></text>
<text fill="#0e101a" xml:space="preserve" transform="matrix(1 0 -0 1 72 349.3066)" font-size="12" font-family="TimesNewRomanPSMT"><tspan y="0" x="0 6 12 18 24 27.996 31.329602 37.3296 43.3296 46.663206 49.996809 53.33041 58.65601 63.32641 66.32641 70.32241 76.32241 80.31841 83.31841 86.65201 92.65201 97.97761 101.3112 105.307209 108.307209 113.632808 119.632808 122.9664 126.299999 132.29999 136.29599 141.6216 147.6216 150.6216 156.6216 161.9472 166.6176 169.6176 178.9512 184.27681 190.27681 195.60242 198.60242 204.60242 209.92803 213.92403 219.24964 225.24964 228.58324 233.25363 236.25363 241.57924 247.57924 250.91284 256.91285 262.91285 266.90885 270.24244 273.57603 278.9016 282.2352 285.5688 291.5688 296.89439 299.89439 303.22798 309.22798 312.22798 315.56156 321.56156 326.88716 330.22074 334.21675 337.21675 342.54234 348.54234 351.87593 355.2095 361.2095 365.2055 370.5311 376.5311 378.6935 383.36393 386.36393 389.6975 393.0311 397.0271 402.3527 405.3527 410.67829 416.67829 422.67829 426.01188 431.33747 436.66307 441.33348">opportunities for their children has made parents authoritative in their children's life choices </tspan></text>
<text fill="#0e101a" xml:space="preserve" transform="matrix(1 0 -0 1 72 378.7969)" font-size="12" font-family="TimesNewRomanPSMT"><tspan y="0" x="0 5.3256008 11.325601 17.3256 22.651202 27.976803 31.972804 37.9728 41.3064 47.3064 53.3064 56.3064 61.632 67.632 73.632 78.9576 84.2832 87.6168 90.95039 96.95039 102.95039 105.95039 108.95039 114.27599 119.60159 123.597599 128.9232 134.24881 137.76482 140.76482 143.76482 149.76482 155.09043 159.08643 162.42003 168.42003 173.74564 177.26165 180.26165 183.26165 188.58725 191.92086 197.24646 200.24646 203.24646 207.24246 213.91686 219.24246 223.23847 226.57207 232.57207 238.57207 241.57207 246.89768 250.23128 253.23128 258.55686 261.89045 264.89045 267.89045 270.89045 276.89045 282.89045 288.89045 294.89045 298.88645 301.88645 304.66926 311.99885 317.99885 321.33244 326.00285 329.00285 335.00285 338.33644 344.33644 350.33644 353.67 359.67 362.67 367.9956 373.9956 383.3292 389.3292 394.6548 397.98838 401.32197 404.65556 407.98915 413.98915 419.31474 422.31474 427.64033 432.9659 438.2915 444.2915 449.6171 458.95069 462.28428 467.60987">concerning education, career, partner, etc. (Parikh et al., 2019). This highly competitive academic </tspan></text>
<text fill="#0e101a" xml:space="preserve" transform="matrix(1 0 -0 1 72 408.2871)" font-size="12" font-family="TimesNewRomanPSMT"><tspan y="0" x="0 5.3256008 11.325601 17.3256 20.6592 24.655201 30.655201 36.6552 45.988805 51.314405 57.314405 60.648008 63.648008 69.64801 74.97361 79.64401 82.64401 85.97761 91.30321 97.30321 100.30321 103.6368 109.6368 112.6368 115.9704 121.9704 127.296 130.29599 134.96639 138.29999 142.29599 145.6296 150.9552 154.2888 157.2888 161.9592 167.9592 173.9592 179.2848 183.2808 189.2808 192.61441 197.2848 200.61841 206.61841 212.61841 215.61841 221.61841 225.61441 228.61441 233.2848 236.61841 242.61841 248.61841 253.94402 259.94404 263.27763 267.94804 270.94804 273.94804 282.61445 285.94804 289.28163 295.28163 298.28163 304.28163 309.6072 313.6032 318.9288 324.9288 328.2624 332.9328 335.9328 339.9288 345.2544 351.2544 357.2544 361.2504 364.58399 369.90959 375.90959 379.24317 385.24317 388.24317 392.23918 397.56477 406.89836 412.89836 418.89836 422.23194 428.23194 434.23194">environment has led to the strict supervision of students, with parents reportedly removing </tspan></text>
<text fill="#0e101a" xml:space="preserve" transform="matrix(1 0 -0 1 72 437.7773)" font-size="12" font-family="TimesNewRomanPSMT"><tspan y="0" x="0 3.3336006 8.659201 11.992801 17.318402 23.318402 26.652003 31.322403 34.656003 40.656003 46.656003 49.656003 54.9816 60.9816 66.9816 72.9816 78.3072 83.6328 86.96639 90.29999 96.29999 102.29999 106.97039 109.97039 112.97039 118.29599 124.29599 127.629589 130.9632 134.2968 140.2968 146.2968 149.2968 155.2968 161.2968 169.9632 175.9632 178.9632 184.9632 190.9632 193.9632 197.2968 203.2968 208.6224 211.95601 215.95201 218.95201 224.95201 233.61841 239.61841 242.61841 247.2888 253.2888 258.61439 261.94798 267.27357 270.60716 273.60716 276.94075 280.27433 286.27433 291.5999 296.27033 299.27033 302.27033 307.59593 313.59593 319.59593 322.59593 327.9215 333.9215 339.9215 345.9215 349.2551 355.2551 358.58869 361.92228 367.92228 373.92228 376.92228 382.92228 388.92228 398.25587 403.58146 407.57746 413.57746 419.57746 424.24787 427.24787 433.24787 437.24388 440.57746 446.57746 451.90306 455.23664 460.56224">television connections, cutting down on their own social lives, and appointing numerous private </tspan></text>
<text fill="#0e101a" xml:space="preserve" transform="matrix(1 0 -0 1 72 467.2676)" font-size="12" font-family="TimesNewRomanPSMT"><tspan y="0" x="0 3.3336006 9.333601 12.667201 18.667202 22.663203 27.333603 30.333603 33.667203 39.667203 42.667203 48.667203 53.9928 57.326406 63.326406 66.3264 70.9968 74.3304 80.3304 86.3304 91.656 97.656 100.98959 105.659999 108.659999 111.99359 121.32719 127.32719 131.32318 137.32318 143.32318 148.64879 151.64879 156.9744 162.3 167.62561 173.62561 178.95122 188.28482 191.61843 196.94403 202.26964 205.60324 208.93685 214.15805 217.15805 220.15805 226.15805 232.15805 238.15805 242.82845 246.16205 249.16205 255.16205 260.48765 264.48365 267.81724 271.15083 276.4764 279.81 285.81 291.1356 294.46919 297.80278 303.80278 309.80278 312.80278 316.13636 322.13636 325.13636 330.46195 336.46195 339.79554 343.79154 349.11714 353.11314 358.43873 364.43873 368.43473 372.43074 375.7643 381.0899 387.0899 390.4235 395.74909 399.7451 402.7451 408.07069 413.39628 416.72987 420.06346 426.06346 429.39704 432.73063 436.0642 441.3898 446.0602 449.0602">tutors to help students improve academically, boost participation in extra-curricular activities, </tspan></text>
<text fill="#0e101a" xml:space="preserve" transform="matrix(1 0 -0 1 72 496.7578)" font-size="12" font-family="TimesNewRomanPSMT"><tspan y="0" x="0 5.3256008 11.325601 17.3256 20.3256 26.3256 31.651202 34.984804 40.984804 43.984804 47.3184 53.3184 56.3184 59.652006 65.65201 70.97761 73.97761 79.30321 85.30321 94.6368 100.6368 103.9704 109.296 112.62959 115.96319 121.96319 127.96319 130.9632 136.9632 140.9592 143.9592 149.9592 155.9592 165.2928 170.61841 179.2848 185.2848 189.2808 195.2808 198.2808 202.27681 210.9432 216.26882 222.26882 225.26882 230.59442 233.92803 236.92803 242.25363 245.58724 248.58724 251.58724 254.58724 260.58723 266.58723 272.58723 278.58723 281.9208 284.7036 292.0392 297.3648 301.3608 310.6944 316.02 319.02 324.34559 327.67918 330.67918 336.00477 339.33836 342.33836 345.33836 351.33836 357.33836 363.33836 369.33836 373.33436 376.33436 379.33436 386.00877 392.00877 396.00477 399.33836 405.33836 410.66395 414.65995 423.99354 429.99354 433.98954 439.31513 442.31513">and help in the completion of homework (Deb et al., 2015; Verma et al. 2002). Furthermore, </tspan></text>
<text fill="#0e101a" xml:space="preserve" transform="matrix(1 0 -0 1 72 526.248)" font-size="12" font-family="TimesNewRomanPSMT"><tspan y="0" x="0 4.6704 8.004001 14.004001 20.004002 23.337603 28.663205 33.333604 36.333604 41.004 47.004 53.004 59.004 64.3296 69 72.333599 75.333599 80.659198 86.659198 92.659198 95.99279 99.326389 102.65998 108.65998 114.65998 119.98558 123.319179 126.319179 132.31919 137.64479 141.6408 146.9664 152.9664 156.3 161.62561 164.95922 167.95922 173.95922 177.95522 183.28083 187.95122 192.62162 198.62162 202.61762 207.94322 210.94322 216.94322 222.94322 225.94322 231.94322 235.27683 239.27283 242.60643 247.27683 250.27683 256.27684 262.27684 267.60243 270.60243 273.936 279.936 282.936 288.936 292.932 298.2576 304.2576 309.5832 312.91679 318.24238 324.24238 327.57597 330.57597 335.24638 340.57197 346.57197 349.90556 354.57597 363.90956 366.90956 372.23515 378.23515 384.23515 387.23515 393.23515 398.56074 402.55674 407.88233 413.88233 417.2159 422.5415 425.8751">studies suggest additional parental pressure on girls due to prevalent sexism and parental </tspan></text>
<text fill="#0e101a" xml:space="preserve" transform="matrix(1 0 -0 1 72 555.7383)" font-size="12" font-family="TimesNewRomanPSMT"><tspan y="0" x="0 5.3256008 11.325601 17.3256 22.651202 27.976803 31.310404 36.636007 39.96961 43.30321 49.30321 55.30321 59.97361 62.97361 66.307209 72.307209 75.307209 79.30321 85.30321 88.6368 91.9704 97.9704 106.6368 109.6368 112.9704 116.9664 122.292 128.29199 131.6256 134.9592 138.2928 144.2928 150.2928 155.61841 158.95201 161.95201 167.95201 173.27762 179.27762 185.27762 190.60323 194.59923 197.59923 201.59523 207.59523 210.92884 216.25444 220.92484 223.92484 228.59523 234.59523 239.92084 245.92084 248.92084 254.24645 258.91688 261.91688 267.91688 273.91688 279.91688 284.58729 289.91288 295.91288 301.91288 305.24647 311.24647 314.24647 319.57206 325.57206 331.57206 335.56806 340.89366 345.56407 348.56407 352.56007 359.23448 364.56007 368.55607 371.88966 377.88966 383.88966 386.88966 392.21525 395.54884 398.54884 403.87443 407.208 410.208 413.208 416.208 422.208 428.208 434.208 440.208 444.204">expectations to follow traditional gender roles such as household chores (Parikh et al., 2019).</tspan></text>
<g id="Layer-2" data-name="Span">
<text fill="#0e101a" xml:space="preserve" transform="matrix(1 0 -0 1 72 555.7383)" font-size="12" font-family="TimesNewRomanPSMT"><tspan y="0" x="447.2168"> </tspan></text>
</g>
</g>
<g id="Layer-1" data-name="P">
<text fill="#0e101a" xml:space="preserve" transform="matrix(1 0 -0 1 108 585.2285)" font-size="12" font-family="TimesNewRomanPSMT"><tspan y="0" x="0 8.666401 12.000001 15.333601 18.333601 21.667202 27.667202 32.9928 37.6632 42.9888 45.9888 49.9848 55.3104 60.635999 63.9696 69.969608 73.96561 78.63601 81.63601 87.63601 92.96161 97.63201 100.96561 104.2992 110.2992 113.2992 117.295207 122.620807 128.6208 134.6208 139.94641 145.27202 148.27202 152.26802 157.59363 162.91924 166.91524 172.24085 177.56645 180.90006 184.23366 190.23366 196.23366 201.55927 204.89287 207.89287 211.22647 214.56008 223.89368 229.21929 232.21929 237.54489 243.54489 249.54489 252.54489 258.5449 262.5409 268.5409 277.87449 283.87449 287.20808 292.53367 295.53367 300.85926 306.85926 310.19285 314.18885 319.51445 328.84803 334.1736 337.1736 342.4992 348.4992 354.4992 357.8328 363.1584 366.49198 372.49198 376.48799 380.48399 385.80958 389.14317 394.46876 397.80235 403.12794 409.12794">All these factors vastly reduce recreational time and promote extreme anxiety-related </tspan></text>
<text fill="#0e101a" xml:space="preserve" transform="matrix(1 0 -0 1 72 614.7188)" font-size="12" font-family="TimesNewRomanPSMT"><tspan y="0" x="0 3.3336006 8.004001 12.674401 18.6744 24.000002 28.670403 31.670403 36.996004 42.996004 48.996004 51.996004 55.992 61.3176 66.643199 70.6392 73.6392 79.6392 83.6352 86.6352 91.3056 96.6312 102.6312 108.6312 114.6312 117.9648 122.6352 125.6352 130.9608 136.9608 142.9608 145.9608 151.9608 157.2864 161.28241 166.60802 172.60802 175.94162 180.61202 183.61202 186.61202 190.60802 196.60802 201.27841 204.61202 209.93762 215.26323 221.26323 224.26323 230.26323 234.25923 237.25923 242.58484 247.25524 251.92563 257.92564 267.25923 270.5928 276.5928 282.5928 285.5928 290.9184 293.9184 298.5888 304.5888 310.5888 316.5888 322.5888 326.5848 329.9184 333.25199 339.25199 344.57759 347.57759 351.57359 357.57359 360.90718 366.23277 369.23277 372.23277 378.23277 383.55836 387.55436 392.87995 398.87995 402.21354 406.88395 409.88395 413.21754 419.21754 424.54313 433.8767 438.54713 443.8727 447.2063 453.2063 458.5319 463.2023">issues and fear of schools and parents. Instead of assuming a supportive role, parents themselves </tspan></text>
<text fill="#0e101a" xml:space="preserve" transform="matrix(1 0 -0 1 72 644.209)" font-size="12" font-family="TimesNewRomanPSMT"><tspan y="0" x="0 6 12 18 23.325602 27.321602 30.655203 35.980806 41.980806 47.306406 50.306406 55.632005 58.632005 64.632 68.628009 73.953609 78.62401 83.29441 89.29441 93.29041 96.62401 101.94961 105.2832 111.2832 117.2832 120.2832 124.953609 128.28722 133.61283 139.61283 144.93843 150.26404 153.26404 159.26404 165.26404 168.26404 172.93444 176.26804 182.26804 188.26804 193.59365 199.59365 202.92725 207.59764 210.59764 213.59764 218.92325 224.92325 230.92325 234.25685 240.25685 246.25685 249.25685 252.59046 258.59046 261.59046 264.92405 270.92405 276.24964 279.24964 284.57524 289.90083 295.2264 301.2264 306.552 315.8856 319.21919 324.54478 327.54478 332.21519 335.54878 339.54478 344.87037 349.54078 354.21119 357.21119 361.20719 369.8736 375.1992 381.1992 384.1992 389.52479 392.85838 395.85838 401.18397 404.51756 407.51756 410.51756 413.51756 419.51756 425.51756 431.51756 437.51756 441.51356">undertake a pressurizing stance on students, adding to the academic stress (Deb et al., 2015).</tspan></text>
<g id="Layer-2" data-name="Span">
<text fill="#0e101a" xml:space="preserve" transform="matrix(1 0 -0 1 72 644.209)" font-size="12" font-family="TimesNewRomanPSMT"><tspan y="0" x="444.5273"> </tspan></text>
</g>
</g>
<g id="Layer-1" data-name="P">
<g id="Layer-2" data-name="Span">
<text fill="#0e101a" xml:space="preserve" transform="matrix(1 0 -0 1 72 673.6992)" font-size="12" font-family="TimesNewRomanPSMT"><tspan y="0" x="0"> </tspan></text>
</g>
<text fill="#0e101a" xml:space="preserve" transform="matrix(1 0 -0 1 72 703.18948)" font-size="12" font-family="TimesNewRomanPS" font-weight="bold" font-style="italic"><tspan y="0" x="0 6.674401 10.008 14.678401 20.004002 24.6744 29.344799 32.3448 36.340799 41.011198 47.011198 56.3448 59.3448 66.0192 71.3448 78.0192 84.0192 90.0192 93.3528">Stress from School </tspan></text>
<g id="Layer-2" data-name="Span">
<text fill="#0e101a" xml:space="preserve" transform="matrix(1 0 -0 1 72 703.18948)" font-size="12" font-family="TimesNewRomanPSMT"><tspan y="0" x="96.35156"> </tspan></text>
</g>
</g>
</g>
</g>
</svg>
