<?xml version="1.0" encoding="UTF-8" standalone="no"?>
<!DOCTYPE svg PUBLIC "-//W3C//DTD SVG 1.1//EN" "http://www.w3.org/Graphics/SVG/1.1/DTD/svg11.dtd">
<svg xmlns="http://www.w3.org/2000/svg" xmlns:xlink="http://www.w3.org/1999/xlink" version="1.1" width="612pt" height="792pt" viewBox="0 0 612 792">
<g enable-background="new">
<clipPath id="cp22">
<path transform="matrix(1,0,0,-1,0,792)" d="M 0 0 L 612 0 L 612 792 L 0 792 Z "/>
</clipPath>
<g clip-path="url(#cp22)">
<path transform="matrix(1,0,0,-1,0,792)" d="M 0 792 L 612 792 L 612 0 L 0 0 Z " fill="#ffffff"/>
<g id="Layer-1" data-name="P">
</g>
<clipPath id="cp23">
<path transform="matrix(1,0,0,-1,0,792)" d="M 68.67773 67.89258 L 543.3222 67.89258 L 543.3222 723.32229 L 68.67773 723.32229 Z "/>
</clipPath>
<g clip-path="url(#cp23)">
<text fill="#0e101a" xml:space="preserve" transform="matrix(1 0 -0 1 108 83.89447)" font-size="12" font-family="TimesNewRomanPSMT"><tspan y="0" x="0 8.666401 14.666401 19.992003 22.992003 26.325604 32.325605 35.325605 38.659208 44.659208 49.984807 52.984807 58.984807 64.3104 67.644 70.97759 76.97759 82.97759 91.644 94.97759 100.97759 106.30319 109.30319 112.63679 118.63679 123.96239 129.96239 135.96239 141.96239 150.62879 156.62879 159.62879 164.95439 170.95439 176.95439 179.95439 183.288 189.288 194.6136 197.6136 200.9472 206.27281 215.60642 221.60642 227.60642 231.60242 236.92803 240.92403 246.92403 249.92403 255.24964 258.58323 264.58323 269.25364 275.25364 279.24964 284.57524 287.57524 293.57524 297.57124 300.57124 305.24165 310.56724 316.56724 322.56724 328.56724 331.90083 336.57124 339.57124 342.90483 348.90483 351.90483 355.90083 361.90083 367.90083 371.2344 376.56 379.56 382.56 387.8856 393.8856 396.8856 402.8856 408.8856 412.21919 415.55278 421.55278 426.87837">Due to the nationwide lockdown and the temporary closure of schools in India, an online </tspan></text>
<text fill="#0e101a" xml:space="preserve" transform="matrix(1 0 -0 1 72 113.38483)" font-size="12" font-family="TimesNewRomanPSMT"><tspan y="0" x="0 4.6704 10.670401 14.666401 20.6664 25.992003 31.992003 34.992006 43.658407 48.984006 53.654405 56.654405 62.654405 65.988 70.6584 73.992 77.988 81.321598 87.321598 93.321598 96.65519 101.98079 107.98079 110.98079 116.98079 120.314388 125.639987 128.63999 133.31038 139.31038 144.63599 147.96959 153.2952 156.6288 159.6288 168.9624 174.28801 180.28801 183.62162 188.94722 191.94722 195.28083 201.28083 204.28083 210.28083 216.28083 221.60643 225.60243 230.92804 236.92804 246.26165 251.58725 254.58725 257.92085 263.92085 269.24644 272.24644 276.91685 282.91685 288.24244 291.57603 296.9016 300.2352 303.2352 309.2352 312.5688 317.2392 320.57279 325.89839 331.89839 337.22398 342.54957 345.54957 351.54957 356.87516 360.87117 364.86717 368.20075 373.52635 376.85993 379.85993 382.1975 390.86393 394.1975 397.5311 403.5311 409.5311 415.5311 421.5311 427.5311 430.5311 433.8647 439.8647 445.19029">survey was distributed via social media to overcome the social distance barrier. Although the </tspan></text>
<text fill="#0e101a" xml:space="preserve" transform="matrix(1 0 -0 1 72 142.875)" font-size="12" font-family="TimesNewRomanPSMT"><tspan y="0" x="0 6 12 15.3336 18.667202 24.667202 29.992804 32.992807 42.326406 47.652006 50.985609 56.985609 62.985609 68.98561 71.98561 77.31121 80.644809 83.9784 87.9744 91.308 97.308 103.308 106.641597 111.96719 117.96719 120.96719 124.30079 130.30078 133.30078 138.62639 141.62639 144.95999 150.2856 154.0644 160.0644 165.39002 168.39002 173.06041 178.38602 187.71962 193.71962 197.05323 202.37883 205.37883 210.04923 213.38283 218.70844 224.03404 227.03404 230.03404 233.36765 239.36765 244.69326 247.69326 251.68926 257.01484 261.68525 267.01084 272.33644 276.33244 281.65803 287.65803 292.9836 296.9796 299.9796 305.3052 310.6308 316.6308 322.6308 328.6308 337.2972 340.6308 345.9564 351.9564 357.9564 363.28199 367.9524 370.9524 374.28599 380.28599 385.61158 388.94517 391.94517 395.27876 401.27876 406.60435 409.60435 414.27476 420.27476 424.27076 430.27076 435.59635 441.59635 444.59635 453.92994 459.25553 465.25553">online method attributed to a large sample size, the researcher acknowledges that the survey may </tspan></text>
<text fill="#0e101a" xml:space="preserve" transform="matrix(1 0 -0 1 72 172.36518)" font-size="12" font-family="TimesNewRomanPSMT"><tspan y="0" x="0 6 11.325601 14.325601 20.3256 26.3256 32.3256 36.321599 40.317598 45.643198 51.643198 55.639196 60.964796 65.6352 70.9608 76.9608 80.294399 85.619998 88.95359 92.287189 98.287189 103.612789 106.612789 112.612789 116.60879 119.60879 122.94238 128.94239 134.26799 137.26799 143.26799 148.5936 154.5936 159.9192 163.9152 169.24082 172.57442 175.57442 181.57442 187.57442 193.57442 199.57442 202.90802 208.23363 211.56723 214.90084 220.90084 226.90084 229.90084 235.90084 239.89684 242.89684 248.89684 252.23044 258.23045 264.23045 268.22645 272.89686 278.22245 284.22245 290.22245 296.22245 299.55604 304.88163 308.87763 313.54804 316.54804 319.88163 325.88163 328.88163 332.87763 338.87763 344.87763 348.2112 353.5368 356.5368 359.5368 364.8624 369.5328 372.5328 378.5328 384.5328 387.8664 390.8664 396.192 399.52558 402.85917 405.85917 410.52958 415.85517 421.85517 431.18876 436.51435 442.51435 445.84794 450.51835 453.51835 459.51835 463.51435">be non-representative of the general population of high-schoolers in India, as not all segments of </tspan></text>
<text fill="#0e101a" xml:space="preserve" transform="matrix(1 0 -0 1 72 201.85553)" font-size="12" font-family="TimesNewRomanPSMT"><tspan y="0" x="0 3.3336006 9.333601 14.659202 17.659203 23.659203 29.659203 35.659204 41.659204 44.9928 50.3184 53.652006 56.985609 62.985609 68.98561 71.98561 77.98561 83.31121 89.31121 94.63681 97.63681 102.96241 108.28801 113.61361 118.93921 123.60961 128.28002 131.28002 134.61362 140.61362 143.61362 146.94722 152.94722 158.27283 161.27283 164.60643 170.60643 173.94004 179.26564 183.26165 189.26165 194.58725 197.92086 200.92086 203.70366 211.03327 217.03327 222.35887 226.35488 231.68048 235.67649 241.67649 245.67249 250.9981 253.9981 256.9981 260.3317 266.3317 269.66529 274.3357 277.3357 281.3317 286.6573 291.3277 296.6533 301.97889 305.97489 311.30049 317.30049 320.30049 323.63407 328.30448 331.30448 334.63807 337.97166 347.30525 350.63883 353.9724 359.298 365.298 368.298 371.6316 377.6316 380.6316 386.6316 390.6276 393.96119 399.96119 405.28678 408.62037 413.94596 416.94596 421.61637 426.94197 432.94197 438.94197 444.94197 448.27555">the population have access to the internet. Therefore, this research is limited to private school </tspan></text>
<text fill="#0e101a" xml:space="preserve" transform="matrix(1 0 -0 1 72 231.3457)" font-size="12" font-family="TimesNewRomanPSMT"><tspan y="0" x="0 4.6704 8.004001 14.004001 20.004002 25.329604 31.329604 34.663206 39.333604 42.333604 46.3296 51.6552 57.6552 61.6512 66.9768 71.6472 76.9728 82.9728 86.3064 89.63999 95.63999 101.63999 104.63999 107.97359 113.97359 119.29919 122.29919 128.2992 131.6328 137.6328 143.6328 148.9584 152.9544 155.9544 160.6248 166.6248 171.95041 175.28401 181.28401 185.28002 190.60562 195.93123 201.93123 207.93123 213.93123 223.26483 226.59844 231.92404 234.92404 239.59444 242.92804 248.25365 251.58725 257.58726 262.25767 265.25767 271.25767 277.25767 283.25767 287.92808 293.25367 299.25367 305.25367 308.58726 314.58726 319.25767 322.25767 328.25767 332.25367 335.25367 338.58726 344.58726 349.91285 352.91285 358.23844 364.23844 370.23844 376.23844 379.57203 383.56803 388.7892">students representing the higher socio-economic status households of the country.</tspan></text>
<g id="Layer-2" data-name="Span">
<text fill="#0e101a" xml:space="preserve" transform="matrix(1 0 -0 1 72 231.3457)" font-size="12" font-family="TimesNewRomanPSMT"><tspan y="0" x="391.7988"> </tspan></text>
</g>
</g>
<g id="Layer-1" data-name="P">
<text fill="#0e101a" xml:space="preserve" transform="matrix(1 0 -0 1 108 260.83589)" font-size="12" font-family="TimesNewRomanPSMT"><tspan y="0" x="0 7.3296 13.329599 18.655201 21.655201 25.651202 30.976803 35.6472 40.9728 46.2984 50.2944 55.62 61.62 66.945598 70.9416 73.9416 79.2672 82.60079 91.93439 97.25999 103.25999 106.25999 109.59358 115.59358 118.59358 124.59358 129.91919 135.2448 141.2448 144.2448 147.5784 153.5784 158.904 161.904 166.5744 172.5744 176.5704 182.5704 187.89601 193.89601 196.89601 202.89601 208.89601 214.22162 218.89202 222.22562 225.55922 231.55922 237.55922 242.22962 245.22962 251.22962 255.22562 260.5512 265.8768 269.2104 273.8808 279.2064 282.2064 287.53199 293.53199 299.53199 302.53199 307.2024 310.53599 314.53199 319.85758 323.19117 329.19117 335.19117 338.52476 342.52076 348.52076 352.51676 361.18318 366.50877 370.50477 376.50477 379.50477 384.83036 390.83036 396.83036 399.83036 405.83036 411.15596 417.15596 420.48954">The researcher aimed to keep the survey questions precise and straightforward and kept </tspan></text>
<text fill="#0e101a" xml:space="preserve" transform="matrix(1 0 -0 1 72 290.3262)" font-size="12" font-family="TimesNewRomanPSMT"><tspan y="0" x="0 6 11.325601 15.321601 19.992 25.992 31.992 37.3176 40.651205 43.651205 49.651205 54.976804 58.310407 63.636007 66.969608 70.3032 74.9736 77.9736 81.3072 87.3072 90.3072 95.6328 98.6328 107.96639 111.29999 117.29999 120.63358 129.9672 135.9672 145.3008 148.3008 151.6344 157.6344 160.6344 165.96 171.96 176.6304 182.6304 186.6264 191.95201 194.95201 200.27762 206.27762 209.27762 215.27762 221.27762 227.27762 232.60323 237.27362 240.60723 243.60723 248.93283 254.93283 260.93284 263.93284 267.26643 273.26643 279.26643 285.26643 291.26643 297.26643 300.6 304.596 310.596 313.9296 316.9296 320.9256 326.2512 332.2512 335.58479 340.80598 343.80598 346.80598 355.47239 361.47239 370.1388 375.4644 381.4644 386.78999 390.30598 393.30598 396.30598 399.63957 405.63957 410.96516 413.96516 417.96116 423.28675 427.95716 433.28276 438.60835 442.60435 447.92994 453.92994 459.25553 463.25154">personal details to a minimum to ensure an honest and thoughtful reply. However, the researcher </tspan></text>
<text fill="#0e101a" xml:space="preserve" transform="matrix(1 0 -0 1 72 319.8164)" font-size="12" font-family="TimesNewRomanPSMT"><tspan y="0" x="0 6 11.325601 17.3256 20.3256 23.6592 26.992802 30.326403 33.660005 36.993604 42.319204 45.319204 50.644804 56.644804 62.644804 65.9784 69.9744 75.9744 79.308 82.308 88.308 94.308 99.6336 103.6296 106.6296 115.296009 121.296009 127.296009 130.296 135.62162 141.62162 150.95522 156.95522 160.28882 165.61443 168.94803 174.27364 180.27364 183.27364 186.60724 192.60724 197.93285 200.93285 205.60324 211.60324 215.59925 221.59925 226.92485 232.92485 235.92485 241.25046 247.25046 253.25046 256.25047 264.91688 270.91688 276.91688 279.91688 285.91688 291.24247 297.24247 300.24247 305.56806 310.89366 316.21925 321.54484 326.21525 330.88566 333.88566 337.21925 343.21925 346.21925 349.55284 352.8864 355.8864 358.8864 365.56083 371.56083 375.55683 378.8904 384.8904 390.216 394.212 403.5456 409.5456 413.5416 418.8672 421.8672 424.8672 428.20079 434.20079 439.52638">had little control over who completed the survey and who had access to it. Furthermore, the </tspan></text>
<text fill="#0e101a" xml:space="preserve" transform="matrix(1 0 -0 1 72 349.3066)" font-size="12" font-family="TimesNewRomanPSMT"><tspan y="0" x="0 3.996 9.3216 13.992001 19.317603 24.643204 28.639204 33.964807 39.964807 45.290407 49.286405 52.286405 57.612005 62.937604 68.93761 74.93761 80.93761 89.60401 92.93761 98.26321 104.26321 110.26321 115.588809 120.25921 123.25921 126.592807 132.5928 137.91841 141.25202 144.25202 147.58562 153.58562 158.91123 161.91123 165.90723 171.23284 175.90323 181.90323 187.90323 193.90323 199.90323 205.22884 211.22884 214.56244 219.23284 222.23284 231.56644 236.89205 242.89205 245.89205 251.89205 257.21763 263.21763 268.5432 271.5432 275.5392 280.8648 284.1984 287.53199 292.85758 298.85758 301.85758 305.19117 311.19117 314.19117 320.19117 324.18717 330.18717 336.18717 339.52076 345.52076 350.84635 353.84635 359.84635 365.84635 371.84635 377.17195 381.84236 385.17594 388.17594 393.50154 399.50154 404.17195 412.83836 418.16395 422.15995 426.83036 429.83036 435.83036 441.83036 447.15596 450.15596 453.48954 459.48954">researcher acknowledges that the respondents may have failed to provide honest answers due to </tspan></text>
<text fill="#0e101a" xml:space="preserve" transform="matrix(1 0 -0 1 72 378.7969)" font-size="12" font-family="TimesNewRomanPSMT"><tspan y="0" x="0 3.3336006 9.333601 14.659202 19.984803 25.310404 31.310404 35.306406 40.632005 43.965604 49.291204 52.291204 56.9616 62.2872 65.6208 69.6168 73.6128 79.6128 84.9384 88.9344 94.26 99.5856 105.5856 108.9192 112.25279 118.25279 124.25279 128.92319 131.92319 137.2488 143.2488 149.2488 152.2488 158.2488 161.5824 166.908 171.5784 176.904 182.904 185.904 189.90001 195.22562 200.55123 205.87683 209.21044 212.54404 217.21443 220.21443 226.21443 230.21044 233.21044 239.21044 244.53604 249.20644 252.54004 255.54004 260.86564 266.86564 272.19123 278.19123 281.5248 286.19523 289.19523 293.19123 303.86164 309.86164 313.64045 319.64045 322.64045 325.64045 331.64045 337.64045 343.64045 349.64045 353.63645 356.63645 359.63645 366.31086 372.31086 381.64445 386.97004 389.97004 393.96604 399.29164 403.96205 409.96205 415.96205 421.96205 427.96205 433.28764 439.28764 442.62123 447.29164">inaccurate self-perceptions and biased recalls of past events (Murg, 2010). Some respondents </tspan></text>
<text fill="#0e101a" xml:space="preserve" transform="matrix(1 0 -0 1 72 408.2871)" font-size="12" font-family="TimesNewRomanPSMT"><tspan y="0" x="0 9.3336 14.6592 20.659199 23.659199 29.659199 34.9848 40.9848 46.3104 49.3104 53.980798 59.980798 65.9808 75.31439 78.64799 81.98158 85.31518 90.64078 96.64078 99.64078 108.97437 114.97437 118.30797 121.64156 124.97516 130.97516 134.30876 139.63437 142.63437 147.95998 153.95998 157.29358 161.28958 164.62319 169.94879 174.61919 177.61919 181.61519 186.9408 191.61119 197.61119 200.9448 204.2784 207.612 213.612 219.612 222.612 225.9456 231.9456 234.9456 240.27121 243.27121 249.27121 252.60482 257.9304 262.6008 267.9264 273.9264 276.9264 280.9224 286.248 290.9184 296.9184 300.25199 303.58558">may have submitted multiple entries resulting in a biased result.</tspan></text>
<g id="Layer-2" data-name="Span">
<text fill="#0e101a" xml:space="preserve" transform="matrix(1 0 -0 1 72 408.2871)" font-size="12" font-family="TimesNewRomanPSMT"><tspan y="0" x="306.5977"> </tspan></text>
</g>
</g>
<g id="Layer-1" data-name="P">
<text fill="#0e101a" xml:space="preserve" transform="matrix(1 0 -0 1 72 467.2676)" font-size="12" font-family="TimesNewRomanPS" font-weight="bold"><tspan y="0" x="0 7.3296 12.4392 18.439202 23.764803 29.090405 35.764806 42.439207 47.548807">Procedure</tspan></text>
<g id="Layer-2" data-name="Span">
<text fill="#0e101a" xml:space="preserve" transform="matrix(1 0 -0 1 72 467.2676)" font-size="12" font-family="TimesNewRomanPSMT"><tspan y="0" x="52.875"> </tspan></text>
</g>
</g>
<g id="Layer-1" data-name="P">
<text fill="#0e101a" xml:space="preserve" transform="matrix(1 0 -0 1 108 496.7578)" font-size="12" font-family="TimesNewRomanPSMT"><tspan y="0" x="0 7.3296 13.329599 18.655201 21.655201 25.651202 30.976803 35.6472 40.9728 46.2984 50.2944 55.62 61.62 66.945598 70.9416 73.9416 79.2672 85.2672 91.2672 97.2672 103.2672 108.5928 111.92639 117.25199 123.25199 126.25199 131.57759 134.57759 140.57759 146.57759 151.9032 157.9032 161.2368 164.5704 167.904 173.22962 176.56322 179.89682 185.89682 191.22243 194.22243 199.54804 205.54804 211.54804 214.54804 220.54804 226.54804 231.87364 235.20725 238.54085 241.87445 247.20006 250.53366 253.86727 259.86726 265.19285 268.19285 273.51844 279.51844 284.84403 288.1776 294.1776 298.84803 302.1816 306.85203 309.85203 315.85203 321.85203 324.85203 330.85203 334.1856 338.85603 342.1896 346.1856 349.5192 355.5192 361.5192 364.85279 368.18638 374.18638 380.18638 383.18638 388.51197 394.51197 397.51197 403.51197 409.51197 412.84556 416.17915 422.17915 427.50474">The researcher conducted a quantitative and qualitative analysis by distributing an online </tspan></text>
<text fill="#0e101a" xml:space="preserve" transform="matrix(1 0 -0 1 72 526.248)" font-size="12" font-family="TimesNewRomanPSMT"><tspan y="0" x="0 4.6704 10.670401 14.666401 20.6664 25.992003 31.213204 34.213205 37.213205 46.546804 51.872404 57.872404 63.198 66.198 72.198 75.53159 80.85719 83.85719 92.5236 98.5236 104.5236 110.5236 113.85719 119.18279 122.18279 128.8572 134.8572 138.8532 148.1868 152.8572 155.8572 158.8572 162.1908 168.1908 171.1908 177.1908 181.1868 184.5204 190.5204 195.84601 199.17961 204.50522 207.50522 213.50522 216.83882 222.83882 228.83882 231.83882 236.50922 241.83483 247.83483 253.83483 259.83485 263.16844 266.16844 270.83885 274.17243 280.17243 286.17243 291.49803 297.49803 300.8316 305.502 308.502 313.17243 316.506 322.506 328.506 334.506 337.8396 343.8396 349.8396 352.8396 358.1652 363.49079 367.4868 373.4868 378.1572 382.8276 385.8276 391.8276 397.1532 401.1492 404.4828 410.4828 416.4828 421.1532 424.1532 429.4788 432.81239 436.14598 439.47956 444.80516 449.47557 452.47557 455.80915 461.80915">survey, made via Google Forms, to private high school students studying across various cities in </tspan></text>
<text fill="#0e101a" xml:space="preserve" transform="matrix(1 0 -0 1 72 555.7383)" font-size="12" font-family="TimesNewRomanPSMT"><tspan y="0" x="0 3.996 9.996 15.996 19.329602 24.655203 27.655203 30.655203 33.988805 39.988805 45.314405 48.648008 54.648008 60.648008 63.98161 69.98161 75.98161 78.98161 87.64802 92.97362 98.97362 102.96962 108.29522 114.29522 120.29522 126.29522 129.29523 132.29523 142.96562 148.96562 158.29923 164.29923 169.62483 172.95844 175.95844 178.95844 185.63283 190.95844 194.29204 197.62564 202.95125 206.28485 211.61046 214.61046 217.61046 226.27686 231.60247 235.59847 238.93207 244.25768 249.58329 252.91689 256.2505 262.2505 268.2505 271.2505 274.2505 280.9249 284.25849 287.59208 290.92567 296.92567 302.92567 306.92167 310.25526 313.25526 316.25526 326.92567 332.92567 338.92567 346.81208 349.81208 352.81208 358.13768 364.13768 370.13768 373.13768 377.13368 383.13368 389.13368 395.13368 399.12968 404.45527 407.45527 410.23808 417.56767 423.56767 428.89326 431.89326 436.56367 442.56367 446.55967 452.55967 457.88526 463.88526">India, including Dehradun, Mumbai, Patiala, Darjeeling, Siliguri, Mhow, and Indore. The survey </tspan></text>
<text fill="#0e101a" xml:space="preserve" transform="matrix(1 0 -0 1 72 585.2285)" font-size="12" font-family="TimesNewRomanPSMT"><tspan y="0" x="0 8.666401 13.992002 18.662402 21.662402 30.996003 36.3216 42.3216 47.6472 50.6472 55.9728 61.9728 67.2984 70.631999 73.96559 79.29119 85.29119 88.62479 93.950389 96.950389 100.28398 106.28398 109.28398 113.954387 117.28798 123.28798 129.28798 134.61359 140.61359 143.94719 148.61759 151.61759 155.61359 159.60959 165.60959 174.94319 177.94319 188.61359 193.9392 199.9392 202.9392 208.9392 214.9392 217.9392 220.9392 226.9392 232.9392 238.9392 244.9392 247.9392 250.9392 254.2728 260.2728 263.2728 267.9432 273.9432 279.9432 285.2688 288.2688 294.2688 297.2688 300.2688 306.2688 312.2688 318.2688 324.2688 327.2688 329.60639 338.2728 341.60639 344.93998 350.93998 356.93998 362.93998 368.93998 374.93998 377.93998 381.27357 387.27357 392.59916 395.59916 398.93275 404.25834 408.92875 412.26234 415.26234 421.26234 426.58793 429.9215 435.2471 438.2471 442.2431 448.2431 452.2391">was made available to students from May 31, 2020, to June 9, 2020. Although the last date for </tspan></text>
<text fill="#0e101a" xml:space="preserve" transform="matrix(1 0 -0 1 72 614.7188)" font-size="12" font-family="TimesNewRomanPSMT"><tspan y="0" x="0 3.3336006 9.333601 14.659202 17.659203 23.659203 28.984805 32.318407 35.652006 41.652006 47.652006 56.318407 59.652006 65.65201 70.97761 73.97761 81.981609 90.64801 99.314418 103.31042 111.97682 115.972827 121.972827 127.972827 130.97283 134.30643 140.30643 145.63204 151.63204 157.63204 163.63204 172.29843 178.29843 181.29843 189.96483 195.29044 199.96083 202.96083 213.63123 218.95684 224.95684 227.95684 233.95684 239.95684 242.95684 245.95684 251.95684 257.95686 263.95686 269.95686 272.95686 275.95686 280.62727 285.95286 291.95286 297.95286 303.95286 307.28645 311.95686 314.95686 320.28245 323.61604 326.94963 329.94963 335.2752 340.6008 344.5968 350.5968 355.2672 359.93763 362.93763 366.93363 372.93363 378.93363 382.2672 387.5928 390.5928 399.25923 404.5848 408.5808 413.9064 416.9064 421.5768 427.5768 433.5768 436.9104 439.9104 445.9104 451.9104 460.5768 466.5768">the nationwide COVID-19 lockdown was May 31, 2020, schools all across India were shut down </tspan></text>
<text fill="#0e101a" xml:space="preserve" transform="matrix(1 0 -0 1 72 644.209)" font-size="12" font-family="TimesNewRomanPSMT"><tspan y="0" x="0 3.3336006 9.333601 13.329601 19.329602 25.329602 31.329602 37.3296 43.3296 49.3296 52.663206 55.663206 58.996809 64.99681 70.32241 73.32241 79.32241 84.64801 87.981609 93.307209 97.97761 100.97761 104.97361 110.97361 114.96961 117.96961 121.30321 127.30321 132.62882 135.62882 140.29921 146.29921 150.29521 156.29521 161.62082 166.84203 169.84203 172.84203 178.16764 184.16764 190.16764 193.16764 196.50124 202.50124 207.82685 210.82685 216.82685 222.82685 228.15245 232.82285 236.15645 239.49005 245.49005 251.49005 256.16047 259.16047 267.82688 273.15248 277.14848 282.47407 285.47407 291.47407 295.47007 298.80366 308.13725 313.46284 317.45884 320.79243 324.126 330.126 333.126 339.126 344.4516 349.122 354.4476 360.4476 363.4476 369.4476 375.4476 378.4476 381.7812 387.7812 393.10679 396.10679 400.7772 404.11079 410.11079 416.11079 421.43638 427.43638 430.76997 435.44038 437.60279">throughout the dates for the survey, and the questions were primarily based on the students' </tspan></text>
<text fill="#0e101a" xml:space="preserve" transform="matrix(1 0 -0 1 72 673.6992)" font-size="12" font-family="TimesNewRomanPSMT"><tspan y="0" x="0 3.3336006 9.333601 14.659202 20.659203 26.659203 32.659204 41.325605 47.325605 50.325605 55.651205 61.651205 67.6512 72.9768 76.9728 80.3064 85.631999 91.631999 96.957599 102.283199 105.283199 108.61679 114.61679 117.61679 123.61679 128.9424 134.9424 140.268 144.264 149.58962 152.92322 155.92322 158.92322 165.59761 170.92322 174.91922 184.25283 187.58643 192.25682 196.92722 200.26082 206.26082 212.26082 215.26082 223.92722 229.25283 233.92322 236.92322 242.92322 246.91922 252.24483 258.2448 261.5784 266.904 272.904 275.904 279.9 283.896 289.896 299.22959 302.22959 307.55519 310.55519 315.2256 320.55119 326.55119 332.55119 338.55119 341.88478 344.88478 348.21836 354.21836 357.21836 361.21437 367.21437 373.21437 379.21437 383.21037 388.53596 391.53596 394.86955 400.86955 403.86955 408.53996 413.86555 419.86555 425.86555 428.86555 432.19914 438.19914 443.52473">lockdown experience in general. Permission was granted from a school in Indore to send the </tspan></text>
<text fill="#0e101a" xml:space="preserve" transform="matrix(1 0 -0 1 72 703.18948)" font-size="12" font-family="TimesNewRomanPSMT"><tspan y="0" x="0 4.6704 10.670401 14.666401 20.6664 25.992003 31.992003 34.992006 38.325605 44.325605 47.325605 52.651205 55.984807 59.31841 62.31841 67.87321 73.87321 77.2068 83.2068 86.2068 91.5324 97.5324 103.5324 106.5324 112.5324 118.5324 121.866 127.866 131.862 137.862 141.858 147.18361 153.18361 158.50922 161.50922 166.17961 169.51322 175.51322 181.51322 186.83882 192.83882 196.17243 200.84282 203.84282 207.83882 213.16443 219.16443 225.16443 229.16043 235.16043 241.16043 244.49404 253.82764 259.15324 262.48683 267.8124 271.146 277.146 280.146 286.146 292.146 298.146 301.146 305.8164 309.15 315.15 321.15 326.4756 332.4756 335.80918 340.47959 343.47959 346.81318 352.81318 355.81318 359.14677 365.14677 368.48036 373.80595 377.13954 381.13554 384.13554 390.13554 393.46913 398.7947 401.7947 407.1203 413.1203 422.4539 431.78749 437.78749 443.78749">survey to all 11th and 12th-grade students (approximately 600 students in total) via common </tspan></text>
</g>
</g>
</g>
</svg>
