<?xml version="1.0" encoding="UTF-8" standalone="no"?>
<!DOCTYPE svg PUBLIC "-//W3C//DTD SVG 1.1//EN" "http://www.w3.org/Graphics/SVG/1.1/DTD/svg11.dtd">
<svg xmlns="http://www.w3.org/2000/svg" xmlns:xlink="http://www.w3.org/1999/xlink" version="1.1" width="612pt" height="792pt" viewBox="0 0 612 792">
<g enable-background="new">
<clipPath id="cp18">
<path transform="matrix(1,0,0,-1,0,792)" d="M 0 0 L 612 0 L 612 792 L 0 792 Z "/>
</clipPath>
<g clip-path="url(#cp18)">
<path transform="matrix(1,0,0,-1,0,792)" d="M 0 792 L 612 792 L 612 0 L 0 0 Z " fill="#ffffff"/>
<g id="Layer-1" data-name="P">
</g>
<clipPath id="cp19">
<path transform="matrix(1,0,0,-1,0,792)" d="M 68.67773 72 L 543.3222 72 L 543.3222 723.3223 L 68.67773 723.3223 Z "/>
</clipPath>
<g clip-path="url(#cp19)">
<text fill="#0e101a" xml:space="preserve" transform="matrix(1 0 -0 1 72 83.89447)" font-size="12" font-family="TimesNewRomanPSMT"><tspan y="0" x="0 3.996 9.996 15.996 19.329602 24.655203 30.655203 33.655206 38.325605 41.659208 47.659208 53.659208 58.984807 64.9848 68.3184 72.9888 75.9888 78.9888 82.322399 88.322399 94.322399 97.65599 102.98159 108.30719 111.640789 114.97438 120.97438 126.97438 129.97438 134.64478 137.97838 143.97838 149.97838 154.64878 157.64878 163.64878 167.64478 170.64478 176.64478 182.64478 188.64478 192.64078 195.64078 201.64078 206.96639 212.29199 215.6256 218.9592 224.9592 227.9592 233.9592 239.9592 245.2848 248.2848 251.61841 257.6184 260.6184 265.944 271.944 275.2776 279.2736 284.59919 293.93278 299.25837 302.25837 305.59196 310.91755 316.91755 322.24314 325.57673 330.24714 333.24714 339.24714 343.24314 346.24314 350.91355 354.24714 358.24314 363.56874 368.23915 372.90956 375.90956 381.23515 387.23515 393.23515 396.23515 401.56074 407.56074 413.56074 416.89433 422.2199 425.5535 431.5535 434.5535 437.8871 443.8871 446.8871 450.22068 456.22068 461.54627">Indian students, indicating signs of poor health due to extreme levels of stress and anxiety in the </tspan></text>
<text fill="#0e101a" xml:space="preserve" transform="matrix(1 0 -0 1 72 113.38483)" font-size="12" font-family="TimesNewRomanPSMT"><tspan y="0" x="0 5.3256008 11.325601 17.3256 22.651202 27.976803 31.310404 34.644006 40.644006 46.644006 51.969606 55.303205 58.303205 63.628805 69.6288 75.6288 78.962398 82.9584 88.9584 94.9584 104.29199 109.61759 115.61759 118.95119 121.95119 125.94719 133.95119 139.95119 145.2768 149.0556 155.0556 160.38121 166.38121 171.70682 174.70682 184.04042 186.82323 193.73163 197.06523 205.73163 211.05724 215.05324 218.38684 221.38684 224.38684 230.38684 236.38684 242.38684 248.38684 251.72045 254.72045 261.39488 266.72047 270.71647 274.05006 280.05006 286.05006 289.05006 294.37565 297.70924 300.70924 306.03483 309.3684 312.3684 315.3684 318.3684 324.3684 330.3684 336.3684 342.3684 346.3644">educational environment (Bhargava &#x0026; Tiwari, 2019; Parikh et al., 2019).</tspan></text>
<g id="Layer-2" data-name="Span">
<text fill="#0e101a" xml:space="preserve" transform="matrix(1 0 -0 1 72 113.38483)" font-size="12" font-family="TimesNewRomanPSMT"><tspan y="0" x="349.377"> </tspan></text>
</g>
</g>
<g id="Layer-1" data-name="P">
<text fill="#0e101a" xml:space="preserve" transform="matrix(1 0 -0 1 72 172.36518)" font-size="12" font-family="TimesNewRomanPS" font-weight="bold"><tspan y="0" x="0 8.666401 13.992002 18.662402 23.988003 29.988003 35.097604 40.423204 47.097604 50.097604 59.431203 66.105609 71.431209 76.10161 80.09761 83.431209 89.431209 96.10561 99.10561 105.10561 111.10561 115.101619 118.101619 126.76802 132.76802 139.44242 142.77602 149.45041 155.45041 158.45041 165.1248 169.1208 174.44641 180.44641 184.44242 189.76802 195.76802 199.10163 204.42723">Research Question #2: Coping Strategies</tspan></text>
<g id="Layer-2" data-name="Span">
<text fill="#0e101a" xml:space="preserve" transform="matrix(1 0 -0 1 72 172.36518)" font-size="12" font-family="TimesNewRomanPSMT"><tspan y="0" x="209.0977"> </tspan></text>
</g>
</g>
<g id="Layer-1" data-name="P">
<text fill="#0e101a" xml:space="preserve" transform="matrix(1 0 -0 1 108 201.85553)" font-size="12" font-family="TimesNewRomanPSMT"><tspan y="0" x="0 3.996 9.996 12.996 18.321602 24.321602 27.321602 32.6472 36.6432 41.9688 44.9688 50.9688 54.964799 57.964799 63.290399 69.2904 72.62399 76.619998 81.945598 91.27919 96.60479 99.60479 104.93039 110.93039 120.263988 126.263988 131.58959 134.92319 138.25679 141.5904 144.924 150.924 156.2496 162.2496 167.57521 172.2456 176.916 179.916 183.2496 189.2496 195.2496 201.2496 204.5832 210.5832 213.91681 219.91681 225.91681 228.91681 233.5872 238.91281 244.91281 250.23842 254.23442 259.56 262.56 267.8856 273.21119 278.53678 284.53678 289.86238 299.19596 302.52955 307.85514 310.85514 316.18074 322.18074 328.18074 331.5143 336.8399 340.1735 346.1735 349.1735 355.1735 361.1735 366.49909 369.49909 372.83268 378.83268 381.83268 387.83268 391.16627 397.16627 403.16627">In an era of extreme competitiveness involving severe academic anxiety due to high </tspan></text>
<text fill="#0e101a" xml:space="preserve" transform="matrix(1 0 -0 1 72 231.3457)" font-size="12" font-family="TimesNewRomanPSMT"><tspan y="0" x="0 6 11.325601 15.321601 20.647202 26.647202 29.980803 35.306406 38.640005 41.640005 46.965604 52.965604 58.965604 64.2912 69.6168 72.95039 78.27599 81.60959 84.943187 90.943187 96.943187 101.61359 104.61359 107.61359 112.939189 118.939189 124.264789 129.5904 134.26079 138.93119 142.26479 148.26479 153.5904 156.5904 162.5904 168.5904 177.924 183.2496 191.916 197.916 201.912 207.912 210.912 213.912 218.5824 224.5824 229.908 233.24161 238.56722 241.90082 247.22643 250.56003 253.56003 259.56004 264.88563 274.2192 279.5448 285.5448 291.5448 296.2152 299.2152 302.2152 306.88563 312.88563 318.2112 321.5448 326.8704 330.20399 333.20399 339.20399 342.53758 347.20799 352.53358 358.53358 364.53358 368.52958 374.52958 380.52958 385.85517 389.18876 392.18876 395.18876 400.51435 406.51435 412.51435 415.51435 421.51435 426.83995 432.16554 436.16154">parental expectations, excessive homework, societal demands, social disapproval, and peer </tspan></text>
<text fill="#0e101a" xml:space="preserve" transform="matrix(1 0 -0 1 72 260.83589)" font-size="12" font-family="TimesNewRomanPSMT"><tspan y="0" x="0 6 9.996 15.321601 19.992 24.6624 30.6624 34.658399 39.983999 42.983999 46.979997 57.650396 62.975996 66.30959 72.30959 77.63519 86.3016 89.3016 94.6272 97.96079 100.96079 106.28639 109.61999 112.61999 115.61999 118.61999 124.61999 130.62 136.62 142.62 145.62 148.62 153.9456 158.616 161.616 166.9416 170.2752 173.60881 178.93442 184.93442 187.93442 191.26802 197.26802 200.26802 204.93842 207.93842 210.93842 215.60881 220.93442 224.26802 230.26802 233.26802 242.60163 245.60163 256.27204 259.27204 262.27204 266.94245 272.26805 275.60163 281.60163 284.60163 287.60163 293.60163 299.60163 305.60163 311.60163 315.59764 318.59764 321.59764 326.26805 329.60163 335.60163 341.60163 346.92723 352.92723 356.2608 360.9312 363.9312 369.9312 375.2568 380.5824 386.5824 389.5824 394.908 397.908 402.5784 408.5784 413.904 417.23759 422.56318 425.89677 428.89677 433.56718 439.56718 445.56718 451.56718 457.56718 461.56318 464.89677">pressure (Mathew et al., 2015, as cited in J. Jain &#x0026; M. Jain, 2007), students need a social support </tspan></text>
<text fill="#0e101a" xml:space="preserve" transform="matrix(1 0 -0 1 72 290.3262)" font-size="12" font-family="TimesNewRomanPSMT"><tspan y="0" x="0 4.6704 10.670401 15.340801 18.674403 24.000004 33.333608 36.333608 39.66721 45.66721 48.66721 54.66721 60.66721 65.992809 69.98881 75.31441 81.31441 90.648 95.9736 98.9736 102.3072 108.3072 111.64079 116.311199 119.311199 124.636798 129.9624 135.28801 141.28801 146.61362 155.94722 159.28083 164.60643 167.60643 172.27683 175.61043 179.60643 184.93204 189.60243 194.27283 197.27283 200.27283 206.94722 212.94722 218.27283 221.60643 226.93204 230.26564 233.26564 237.93604 243.93604 249.93604 255.93604 261.93605 265.93205 269.26564 272.26564 281.5992 286.9248 292.9248 295.9248 299.2584 305.2584 310.58399 313.91758 319.91758 325.91758 331.24317 334.24317 339.56877 348.90235 354.90235 358.23594 361.56953 367.56953 373.56953 378.8951 382.2287 385.2287 390.5543 396.5543 402.5543 405.5543 409.5503 412.88389 418.88389 424.20948 430.20948 435.53507 438.86866 444.19425 447.52784 450.52784 455.85343 459.187 465.187">system to overcome this academic stress. Social support may include emotional and financial aid </tspan></text>
<text fill="#0e101a" xml:space="preserve" transform="matrix(1 0 -0 1 72 319.8164)" font-size="12" font-family="TimesNewRomanPSMT"><tspan y="0" x="0 3.996 7.992 13.992001 23.325602 26.325602 30.321602 35.6472 44.9808 48.314405 51.648008 56.869207 59.869207 62.869207 66.202808 71.528408 76.854007 82.1796 88.1796 93.5052 97.501209 102.17161 105.17161 108.17161 112.84201 118.84201 124.16761 127.501209 132.82682 136.16042 139.16042 148.49402 153.81963 159.81963 163.15323 168.47884 171.47884 174.47884 179.80445 185.80445 191.80445 194.80445 198.80045 202.79645 206.13005 211.45566 217.45566 223.45566 228.12606 231.12606 234.45966 240.45966 243.45966 246.79326 250.12686 259.46046 264.78605 269.45646 272.45646 278.45646 282.45246 285.45246 290.12287 293.45646 297.45246 302.77806 307.44847 312.11888 315.11888 319.11488 327.11888 333.11888 338.44447 342.22328 348.22328 353.54887 359.54887 364.87446 367.87446 377.20805 379.99085 386.89924 390.23283 398.89924 404.22483 408.22084 411.5544 414.5544 417.5544 423.5544 429.5544 435.5544 441.5544 445.5504 448.5504">from family, teachers, social media, and friends in times of stress (Bhargava &#x0026; Tiwari, 2019). </tspan></text>
<text fill="#0e101a" xml:space="preserve" transform="matrix(1 0 -0 1 72 349.3066)" font-size="12" font-family="TimesNewRomanPSMT"><tspan y="0" x="0 8.004001 14.004001 20.004002 23.337603 29.337603 35.3376 38.3376 43.008 46.341604 50.3376 55.6632 58.9968 64.322399 70.322399 73.65599 78.98159 83.65199 86.65199 91.97759 95.973598 101.299198 104.299198 108.2952 113.6208 118.2912 124.2912 130.2912 136.2912 140.9616 146.2872 150.9576 153.9576 157.2912 163.2912 166.2912 172.2912 176.9616 182.9616 188.2872 194.2872 200.2872 203.6208 209.6208 215.6208 218.9544 224.28002 229.60562 232.93923 235.93923 240.60962 243.94322 247.93923 253.26483 257.93525 262.60566 265.60566 268.93925 274.93925 277.93925 283.26484 289.26484 292.26484 297.59043 301.36924 305.36524 311.36524 315.36125 318.69483 321.69483 325.0284 331.0284 334.0284 343.362 348.6876 352.02119 358.02119 361.35478 366.68037 370.01396 376.01396 379.01396 388.34754 393.67314 399.67314 403.0067 408.3323 411.6659 414.6659 420.6659 425.9915 431.31709 434.65068 437.98426 443.98426 446.98426 452.30986 458.30986 464.30986">Coping strategies are responses to psychological stress in an effort to maintain mental health and </tspan></text>
<text fill="#0e101a" xml:space="preserve" transform="matrix(1 0 -0 1 72 378.7969)" font-size="12" font-family="TimesNewRomanPSMT"><tspan y="0" x="0 5.3256008 14.659201 20.6592 23.992802 27.326403 33.3264 39.3264 44.652 47.9856 50.9856 59.652 64.9776 68.311199 71.64479 75.64079 81.64079 86.96639 90.29999 96.29999 102.29999 105.29999 109.29599 114.1944 122.8608 130.8648 138.19441 146.19841 149.19841 157.8648 163.8648 169.19042 172.52402 175.52402 184.19042 187.52402 192.84963 198.84963 204.84963 210.84963 215.52002 218.85363 223.52402 226.52402 231.42241 234.42241 240.42241 243.42241 249.42241 252.42241 256.4184 259.4184 262.2012 269.5308 275.5308 280.85639 284.8524 290.17799 293.17799 298.50358 302.49958 307.82518 310.82518 314.15876 322.82518 328.82518 331.82518 337.82518 341.82118 347.82118 353.14677 359.14677 362.14677 367.47236 372.79795 376.13154 381.45713 387.45713 393.45713 397.45314 400.7867 406.1123 410.7827 413.7827 419.7827 423.77873 426.77873 432.1043 438.1043 444.1043 447.4379 453.4379 459.4379">emotional well-being ("UCLA Dual Diagnosis," n.d.). There are two broad categories of coping </tspan></text>
<text fill="#0e101a" xml:space="preserve" transform="matrix(1 0 -0 1 72 408.2871)" font-size="12" font-family="TimesNewRomanPSMT"><tspan y="0" x="0 4.6704 8.004001 12.000001 17.325602 20.659203 25.984805 31.984805 35.318407 40.644006 45.314405 48.648008 51.648008 56.973608 62.299207 65.632808 68.9664 74.9664 80.292 83.292 88.6176 94.6176 100.6176 103.6176 108.9432 114.9432 120.9432 124.276798 130.2768 135.6024 141.6024 144.936">strategies: active and avoidant.</tspan></text>
<g id="Layer-2" data-name="Span">
<text fill="#0e101a" xml:space="preserve" transform="matrix(1 0 -0 1 72 408.2871)" font-size="12" font-family="TimesNewRomanPSMT"><tspan y="0" x="147.9434"> </tspan></text>
</g>
</g>
<g id="Layer-1" data-name="P">
<text fill="#0e101a" xml:space="preserve" transform="matrix(1 0 -0 1 108 437.7773)" font-size="12" font-family="TimesNewRomanPSMT"><tspan y="0" x="0 8.666401 13.992002 17.325604 20.659205 26.659205 31.984807 34.984807 40.310407 46.310407 52.310407 55.64401 61.64401 67.64401 70.64401 75.314418 78.64801 82.64401 87.96961 91.30321 96.62881 102.62881 105.9624 111.288 115.958408 118.958408 122.95441 128.9544 134.28002 140.28002 144.95041 147.95041 153.95041 159.95041 162.95041 166.94641 172.27202 178.27202 184.27202 189.59763 192.93123 198.93123 204.93123 207.93123 212.60163 215.93523 219.93123 225.25684 229.92723 234.59763 237.59763 243.59763 249.59763 252.59763 258.59764 263.92323 267.2568 272.5824 277.908 281.24159 284.57518 290.57518 296.57518 299.57518 304.90077 310.90077 316.90077 319.90077 323.23435 328.55995 333.88554 339.88554 343.21913 346.5527 352.5527 358.5527 361.5527 364.8863 370.8863 376.21189 379.21189 383.8823 387.21589 391.21189 396.53749 401.2079 405.8783 411.8783 415.8743 420.5447">Active coping strategies focus on reducing stress by detecting and tackling the stressors </tspan></text>
<text fill="#0e101a" xml:space="preserve" transform="matrix(1 0 -0 1 72 467.2676)" font-size="12" font-family="TimesNewRomanPSMT"><tspan y="0" x="0 3.996 8.894401 17.5608 25.5648 32.8944 40.898405 43.898405 52.564805 58.564805 63.890405 67.224 70.224 78.8904 82.224 87.5496 93.5496 99.5496 105.5496 110.22 113.5536 118.224 121.224 126.122409 129.1224 135.1224 138.1224 144.1224 147.1224 151.11841 154.11841 156.90122 164.23082 170.23082 175.55643 178.55643 182.55243 187.87804 192.54843 197.87404 203.19965 207.19565 212.52126 218.52126 221.52126 226.19165 229.52526 235.52526 241.52526 247.52526 250.52526 255.85086 261.85087 267.85087 273.85087 279.85087 285.17646 288.51005 293.83564 299.83564 302.83564 308.83564 314.83564 317.83564 328.50605 333.83164 337.16523 343.16523 348.4908 357.15724 360.15724 365.48283 368.8164 371.8164 377.142 380.4756 383.4756 386.4756 390.4716 396.4716 402.4716 408.4716 414.4716 418.4676 421.4676 426.79319 431.4636 436.134 441.4596 445.4556 448.78919 453.4596">("UCLA Dual Diagnosis," n.d.). The research study conducted by Mathew et al. (2015) asserts </tspan></text>
<text fill="#0e101a" xml:space="preserve" transform="matrix(1 0 -0 1 72 496.7578)" font-size="12" font-family="TimesNewRomanPSMT"><tspan y="0" x="0 3.3336006 9.333601 14.659202 17.992802 20.992802 25.6632 28.996802 34.996805 40.996805 46.322404 52.322404 55.656003 60.3264 63.3264 66.659999 72.659999 75.659999 79.656 85.656 91.656 94.98959 100.31519 103.31519 112.64879 118.64879 123.31919 126.65279 129.65279 133.64879 137.64479 142.9704 148.9704 154.9704 160.296 166.296 169.62961 172.96321 178.96321 181.96321 187.96321 191.95922 197.28482 202.61043 205.94403 209.27764 214.60324 219.92885 222.92885 228.25446 233.58007 236.91367 240.24727 246.24727 251.57288 254.57288 259.89848 265.89848 271.89848 275.23207 281.23207 287.23207 290.23207 299.56565 304.89125 308.22483 314.22483 320.22483 326.22483 330.89524 333.89524 338.56565 344.56565 349.89125 355.89125 358.89125 364.21684 368.88725 371.88725 377.88725 383.88725 388.55766 391.89125 395.22483 398.5584 404.5584 409.884 412.884 416.88 422.2056 426.2016 430.1976 435.5232 444.85679 448.19038 454.19038 460.19038 463.19038">that students in India most frequently practice active coping methods such as positive reframing, </tspan></text>
<text fill="#0e101a" xml:space="preserve" transform="matrix(1 0 -0 1 72 526.248)" font-size="12" font-family="TimesNewRomanPSMT"><tspan y="0" x="0 6 9.3336 14.6592 20.659199 26.659199 29.9928 35.992799 41.992799 44.992799 47.992799 53.318399 59.318399 65.3184 68.3184 71.65199 77.65199 82.322399 85.65599 89.65199 95.65199 104.98559 110.31119 116.31119 119.64478 124.97038 128.30399 131.30399 135.97438 141.97438 147.97438 153.97438 159.97438 163.97039 167.30399 170.30399 174.29999 178.29599 184.29599 193.6296 196.6296 202.6296 207.9552 211.9512 217.27681 223.27681 226.61042 231.2808 234.2808 237.2808 240.61441 245.94002 251.26563 256.59123 262.59123 267.9168 271.9128 276.58323 279.58323 282.58323 287.9088 293.9088 299.9088 302.9088 308.9088 314.2344 319.56 323.556 328.2264 331.2264 334.2264 340.90083 346.2264 350.2224 353.556 359.556 365.556 368.556 373.8816 377.21519 380.21519 385.54078 388.87437 391.87437 394.87437 398.87037 404.87037 410.87037 416.87037 422.87037 426.86637 429.86637 435.19197 438.52555 443.85115 447.18473 456.5183">planning, and instrumental support from parents, teachers, and peers. Parikh et al. (2019) claim </tspan></text>
<text fill="#0e101a" xml:space="preserve" transform="matrix(1 0 -0 1 72 555.7383)" font-size="12" font-family="TimesNewRomanPSMT"><tspan y="0" x="0 3.3336006 9.333601 14.659202 17.992802 20.992802 25.6632 28.996802 34.996805 40.996805 46.322404 52.322404 55.656003 60.3264 63.3264 68.652 72.648 77.9736 80.9736 90.3072 96.3072 100.9776 104.311199 107.311199 110.64479 113.978389 119.978389 125.303989 128.63759 134.63759 137.63759 140.97119 146.97119 149.97119 154.64159 159.9672 165.2928 171.2928 174.2928 179.61841 185.61841 191.61841 194.95201 200.27762 205.60323 208.60323 213.92884 219.92884 225.92884 228.92884 232.26244 238.26244 242.93283 246.26644 250.26244 256.26246 265.59605 270.92164 276.92164 280.25523 285.5808 288.9144 291.9144 296.5848 302.5848 308.5848 314.5848 320.5848 324.5808 327.9144 330.9144 334.9104 338.9064 344.9064 354.24 357.24 363.24 368.56559 372.56159 377.88719 383.88719 387.22077 391.89118 394.89118 400.21678 406.21678 412.21678 415.21678 418.55036 423.87596 429.20155 434.52714 440.52714 445.85273 449.84873 454.51914">that students are most likely to seek advice and instrumental support from parents and teachers </tspan></text>
<text fill="#0e101a" xml:space="preserve" transform="matrix(1 0 -0 1 72 585.2285)" font-size="12" font-family="TimesNewRomanPSMT"><tspan y="0" x="0 6 12 15.996 19.329602 25.329602 31.329602 34.3296 39.6552 44.9808 50.3064 56.3064 61.632 70.9656 74.299198 79.624797 82.624797 88.624797 91.95839 95.73719 99.73319 103.06679 108.39239 114.39239 117.72598 121.05958 124.39317 129.71878 134.38918 137.38918 140.38918 145.71479 151.71479 157.71479 160.71479 164.04839 170.04839 173.04839 177.04439 182.37 187.6956 193.02121 196.35482 202.35482 207.68042 210.68042 216.00603 225.33963 231.33963 234.67324 238.00684 244.00684 250.00684 255.33245 258.66606 261.66606 266.33647 272.33647 278.33647 284.33647 290.33647 294.33247 297.66606 300.66606 304.66206 308.65806 314.65806 323.99165 326.99165 332.99165 338.31724 343.64283 347.63883 352.30924 355.30924 361.30924 367.30924 371.30525 374.63883 380.63883 386.63883 389.63883 392.9724 396.306 405.6396 410.96519 415.6356 418.6356 427.302 433.302 438.6276 444.6276">during academic difficulties, and to receive emotional support from peers during times when </tspan></text>
<text fill="#0e101a" xml:space="preserve" transform="matrix(1 0 -0 1 72 614.7188)" font-size="12" font-family="TimesNewRomanPSMT"><tspan y="0" x="0 5.3256008 11.325601 17.3256 20.6592 23.992802 28.6632 31.6632 36.9888 42.3144 47.64 52.3104 57.635999 60.635999 63.9696 69.969608 72.969608 78.969608 84.295207 87.295207 92.19361 98.19361 104.19361 109.51921 115.51921 119.51521 128.84882 132.18242 138.18242 144.18242 149.50803 155.50803 160.40642 163.40642 167.40242 172.72803 175.72803 181.72803 184.72803 187.72803 190.72803 194.72403 200.72403 210.05764 215.38324 221.38324 224.71685 228.05045 233.37606 236.37606 240.37206 245.69766 249.03127 254.35688 257.69047 261.02406 267.02406 273.02406 277.69447 283.69447 287.02806 293.02806 297.69847 300.69847 303.69847 308.36888 313.69447 319.69447 325.69447 331.02006 334.35365 337.35365 343.35365 348.67924 352.67524 358.00083 362.67124 367.34165 376.67524 382.00083 388.00083 391.3344 394.3344 397.3344 402.66 405.9936 411.31919 414.31919 418.3152 421.3152">adults cease to be "open-minded" (e.g., romantic relationships, sexual harassment, etc.). </tspan></text>
<text fill="#0e101a" xml:space="preserve" transform="matrix(1 0 -0 1 72 644.209)" font-size="12" font-family="TimesNewRomanPSMT"><tspan y="0" x="0 8.666401 14.666401 23.332802 28.658404 34.6584 39.984 43.5 46.5 49.5 52.8336 58.8336 61.8336 67.159198 73.159198 79.159198 82.49279 86.48879 91.81439 96.484798 99.81839 102.81839 106.151988 112.151988 115.151988 118.48558 124.48558 129.81119 132.81119 136.80719 142.1328 146.80319 152.80319 156.1368 159.4704 164.1408 167.1408 173.1408 179.1408 182.1408 192.81119 198.1368 201.4704 207.4704 212.796 221.4624 224.4624 229.78801 233.12162 236.12162 241.44722 244.78083 247.78083 250.78083 254.77683 260.77684 266.77684 272.77684 278.77684 282.77284 285.77284 288.77284 295.44725 300.77284 304.76884 308.10243 314.10243 320.10243 323.10243 328.428 331.7616 334.7616 340.0872 343.42079 346.42079 349.42079 353.41679 359.41679 365.41679 371.41679 377.41679 381.41279 384.41279 389.73838 393.07197 398.39756 401.73115 411.06474 414.06474 417.39833 423.39833 428.7239 432.0575 435.0575 440.3831 445.70869 449.04228 452.37586 458.37586 463.70146">However, in contrast to the results by Mathew et al. (2015), Parikh et al. (2019) claim that active </tspan></text>
<text fill="#0e101a" xml:space="preserve" transform="matrix(1 0 -0 1 72 673.6992)" font-size="12" font-family="TimesNewRomanPSMT"><tspan y="0" x="0 6 9.996 15.996 21.996 25.329602 30.655203 39.988805 43.984804 48.6552 54.6552 57.988805 63.988805 67.3224 73.3224 79.3224 82.3224 85.656 90.3264 93.3264 97.3224 102.648 105.9816 111.3072 114.64079 117.97439 123.97439 129.29999 132.63359 138.63359 141.63359 147.63359 153.63359 158.9592 164.9592 174.2928 183.6264 189.6264 195.6264 198.6264 204.6264 210.6264 215.95201 219.94802 225.27362 228.60723 231.94083 234.94083 240.26644 246.26644 252.26644 255.26644 261.26643 265.26243 268.596 277.9296 283.2552 287.2512 290.58479 293.91838 299.91838 302.91838 308.24397 314.24397 320.24397 324.23997 327.57356 333.57356 338.89915 344.89915 347.89915 351.23274 357.23274 360.23274 366.23274 369.5663 375.5663 380.8919 384.8879 387.8879 393.2135 399.2135 405.2135 408.5471 413.87269 418.5431 423.86869 429.19429 435.19429 438.52787 443.19828">problem-solving is relatively uncommon overall and primarily confined to older adolescents.</tspan></text>
<g id="Layer-2" data-name="Span">
<text fill="#0e101a" xml:space="preserve" transform="matrix(1 0 -0 1 72 673.6992)" font-size="12" font-family="TimesNewRomanPSMT"><tspan y="0" x="446.2148"> </tspan></text>
</g>
</g>
</g>
</g>
</svg>
