<?xml version="1.0" encoding="UTF-8" standalone="no"?>
<!DOCTYPE svg PUBLIC "-//W3C//DTD SVG 1.1//EN" "http://www.w3.org/Graphics/SVG/1.1/DTD/svg11.dtd">
<svg xmlns="http://www.w3.org/2000/svg" xmlns:xlink="http://www.w3.org/1999/xlink" version="1.1" width="612pt" height="792pt" viewBox="0 0 612 792">
<g enable-background="new">
<clipPath id="cp16">
<path transform="matrix(1,0,0,-1,0,792)" d="M 0 0 L 612 0 L 612 792 L 0 792 Z "/>
</clipPath>
<g clip-path="url(#cp16)">
<path transform="matrix(1,0,0,-1,0,792)" d="M 0 792 L 612 792 L 612 0 L 0 0 Z " fill="#ffffff"/>
<g id="Layer-1" data-name="P">
</g>
<clipPath id="cp17">
<path transform="matrix(1,0,0,-1,0,792)" d="M 68.67773 67.89258 L 543.3222 67.89258 L 543.3222 723.32229 L 68.67773 723.32229 Z "/>
</clipPath>
<g clip-path="url(#cp17)">
<text fill="#0e101a" xml:space="preserve" transform="matrix(1 0 -0 1 72 83.89447)" font-size="12" font-family="TimesNewRomanPSMT"><tspan y="0" x="0 6 11.325601 17.3256 21.3216 26.647202 31.3176 35.988 39.321599 45.321599 51.321599 54.321599 59.647199 63.643198 68.968799 71.968799 76.6392 82.6392 91.97279 97.29839 100.29839 106.29839 110.294399 113.294399 116.62799 122.62799 127.95359 130.95359 140.28719 145.6128 148.9464 154.9464 157.9464 161.9424 167.268 172.59362 177.264 183.264 189.264 193.9344 196.9344 201.6048 204.9384 210.9384 216.9384 222.264 228.264 231.59761 236.268 239.268 243.264 246.59761 251.268 257.268 260.268 263.6016 269.6016 274.9272 278.26078 282.25679 285.25679 288.59037 291.92396 297.92396 303.24955 307.91996 310.91996 319.58638 322.91996 326.25355 332.25355 338.25355 344.25355 347.58714 350.58714 355.91273 361.91273 367.91273 371.2463 377.2463 383.2463 386.2463 390.91673 394.2503 398.2463 403.5719 406.9055 412.23109 418.23109 421.56468 426.89027 431.56068 434.56068 437.89427 443.89427">depression are some of the main reasons students risk their lives without coping strategies to </tspan></text>
<text fill="#0e101a" xml:space="preserve" transform="matrix(1 0 -0 1 72 113.38483)" font-size="12" font-family="TimesNewRomanPSMT"><tspan y="0" x="0 3.996 7.329601 13.329601 19.329602 22.663203 25.663203 28.996804 34.996805 40.322404 43.322404 47.9928 51.326406 55.322404 60.648004 65.318408 69.98881 72.98881 76.98481 84.98881 90.98881 96.31441 100.09321 106.09321 111.41881 117.41881 122.74441 125.74441 135.07802 137.86083 144.76923 148.10283 156.76923 162.09484 166.09084 169.42444 172.42444 175.42444 181.42444 187.42444 193.42444 199.42444 203.42044">fight the stress (Bhargava &#x0026; Tiwari, 2019).</tspan></text>
<g id="Layer-2" data-name="Span">
<text fill="#0e101a" xml:space="preserve" transform="matrix(1 0 -0 1 72 113.38483)" font-size="12" font-family="TimesNewRomanPSMT"><tspan y="0" x="206.4258"> </tspan></text>
</g>
</g>
<g id="Layer-1" data-name="P">
<text fill="#0e101a" xml:space="preserve" transform="matrix(1 0 -0 1 72 172.36518)" font-size="12" font-family="TimesNewRomanPS" font-weight="bold" font-style="italic"><tspan y="0" x="0 8.666401 12.000001 18.6744 24.000002 28.670403 31.670403 38.344804 41.678403 46.3488 51.6744 56.3448 61.015199 67.0152 71.6856">Other Stressors</tspan></text>
<g id="Layer-2" data-name="Span">
<text fill="#0e101a" xml:space="preserve" transform="matrix(1 0 -0 1 72 172.36518)" font-size="12" font-family="TimesNewRomanPSMT"><tspan y="0" x="76.35352"> </tspan></text>
</g>
</g>
<g id="Layer-1" data-name="P">
<text fill="#0e101a" xml:space="preserve" transform="matrix(1 0 -0 1 108 201.85553)" font-size="12" font-family="TimesNewRomanPSMT"><tspan y="0" x="0 8.666401 12.000001 15.333601 21.333601 27.333601 33.333604 39.333604 45.333604 48.333604 53.004 58.3296 64.329608 70.329608 76.329608 79.6632 82.6632 87.3336 90.6672 94.6632 99.9888 104.6592 109.329608 112.329608 117.655208 123.655208 129.65522 132.65522 138.65522 143.98082 147.97682 153.30243 159.30243 162.63603 167.96164 171.29524 174.29524 180.29524 184.29125 189.61685 194.28725 198.95764 204.95764 208.95365 214.27925 217.27925 226.61286 231.93846 237.93846 243.26407 246.26407 252.26407 258.26408 261.26408 266.58967 269.58967 272.92326 278.24885 282.02766 288.02766 293.35325 296.35325 301.02366 307.02366 312.34925 316.34526 321.67085 324.67085 330.67085 334.66685 337.66685 341.00044 347.00044 352.32603 355.32603 360.6516 365.9772 371.3028 377.3028 382.6284 391.96199 395.29557 400.62117 403.62117 408.29158 411.62516 415.62117 420.94676 425.61717 430.28758">Although school stress and parental pressure make up a large share of the academic stress </tspan></text>
<text fill="#0e101a" xml:space="preserve" transform="matrix(1 0 -0 1 72 231.3457)" font-size="12" font-family="TimesNewRomanPSMT"><tspan y="0" x="0 5.3256008 11.325601 17.3256 22.651202 26.647202 29.980803 35.306406 41.306406 46.632005 51.957605 57.957605 60.957605 66.9576 72.9576 75.9576 81.9576 85.2912 91.2912 97.2912 100.2912 104.9616 110.2872 116.2872 122.2872 128.2872 131.6208 134.6208 139.2912 142.6248 148.6248 154.6248 159.95041 165.95041 169.28401 173.9544 176.9544 180.28801 186.28801 189.28801 193.28401 199.28401 205.28401 208.61762 213.94322 216.94322 219.94322 225.26883 228.26883 232.26483 237.59044 246.25684 249.25684 253.92723 257.26084 263.26084 269.26084 272.59443 277.92 282.59043 285.59043 291.59043 297.59043 302.26084 307.58644 311.58244 317.58244 322.90803 328.90803 331.90803 336.57844 339.91203 345.91203 351.91203 357.2376 363.2376 366.5712 371.2416 373.40403 376.40403 381.07444 384.40803 388.40403 393.7296 398.40003 403.07044 406.07044 412.07044 417.39604 420.7296 424.0632 429.3888 433.3848 439.3848 444.0552">experienced by high school students in India, a few studies observed students' stress patterns </tspan></text>
<text fill="#0e101a" xml:space="preserve" transform="matrix(1 0 -0 1 72 260.83589)" font-size="12" font-family="TimesNewRomanPSMT"><tspan y="0" x="0 6 11.325601 15.996001 21.321602 27.321602 30.321602 36.3216 42.3216 45.3216 51.3216 56.6472 60.6432 63.976804 69.97681 75.97681 80.64721 83.64721 88.31761 94.31761 99.64321 102.97681 108.30241 111.636 116.9616 120.2952 123.2952 128.6208 134.6208 140.6208 143.6208 149.6208 154.94641 164.28002 170.28002 176.28002 180.27602 185.60163 191.60163 197.60163 200.93523 206.26084 209.26084 215.26084 220.58644 224.58245 227.91605 233.24166 239.24166 242.57526 247.90087 252.57126 255.57126 258.57127 261.90486 267.90486 273.23045 276.56404 282.56404 288.56404 291.8976 297.8976 303.8976 306.8976 312.8976 318.2232 324.2232 330.2232 335.5488 339.0648 342.0648 345.0648 350.39039 356.39039 361.71598 364.71598 367.71598 372.38639 378.38639 383.71199 387.04557 393.04557 397.04158 402.36717 407.69276 413.69276 419.69276 425.69276 435.02635 438.35993 443.68553">based on various societal and demographic variables, including gender, age, socio-economic </tspan></text>
<text fill="#0e101a" xml:space="preserve" transform="matrix(1 0 -0 1 72 290.3262)" font-size="12" font-family="TimesNewRomanPSMT"><tspan y="0" x="0 4.6704 8.004001 13.3296 16.6632 22.6632 27.3336 30.3336 33.3336 38.6592 44.6592 50.6592 53.6592 57.655199 62.980798 72.31439 75.64799 78.98158 84.98158 87.98158 92.651988 95.98558 99.98158 105.98158 111.30718 114.64078 120.64078 124.63678 129.96239 132.96239 135.96239 144.62879 150.62879 159.96239 165.288 169.284 172.284 177.6096 183.6096 189.6096 192.39241 198.88442 204.21002 207.54363 216.21002 221.53563 225.53163 228.53163 232.52764 238.52764 244.52764 250.52764 256.52766 260.52366 263.52366 268.84925 274.84925 280.84925 283.84925 292.51567 297.84126 303.84126 306.84126 312.16685 315.50044 318.50044 323.82603 327.1596 330.1596 333.1596 337.1556 343.1556 349.1556 355.1556 361.1556 365.1516 368.1516 372.1476 377.4732 383.4732 389.4732 393.4692 396.8028 399.8028 405.8028 409.13639 415.13639 421.13639 426.46199 430.45799 433.45799 438.1284 441.46199 445.45799 450.78358 455.45399 460.1244">status, and family structure. Kumar and Talwar (2014) and Deb et al. (2015) report higher stress </tspan></text>
<text fill="#0e101a" xml:space="preserve" transform="matrix(1 0 -0 1 72 319.8164)" font-size="12" font-family="TimesNewRomanPSMT"><tspan y="0" x="0 5.3256008 14.659201 20.6592 26.6592 32.659204 35.659204 41.659204 44.9928 48.9888 52.3224 56.992799 59.992799 65.3184 71.3184 77.3184 80.3184 84.9888 88.322399 94.322399 100.322399 105.647998 111.647998 114.98159 119.65199 122.65199 125.98559 131.9856 134.9856 138.3192 144.3192 149.6448 152.6448 161.97841 165.31201 171.31201 177.31201 180.64562 185.97122 188.97122 194.97122 198.96723 201.96723 207.29283 213.29283 219.29283 222.62644 227.95204 232.62244 237.94805 243.27365 249.27365 254.59926 259.92485 262.92485 266.92085 272.92085 278.92085 282.91685 288.91685 294.91685 297.91685 303.91685 309.24244 314.56803 318.56404 323.23445 327.23045 330.23045 333.01325 340.34284 346.34284 351.66844 356.33885 361.66444 364.66444 368.66044 373.98603 378.65644 384.65644 387.99003 391.3236 395.99403 398.99403 404.3196 408.3156 413.6412 416.6412 421.9668 425.30039 429.9708 435.9708">among girls and students in the middle of adolescence (14-16 years). These results are also </tspan></text>
<text fill="#0e101a" xml:space="preserve" transform="matrix(1 0 -0 1 72 349.3066)" font-size="12" font-family="TimesNewRomanPSMT"><tspan y="0" x="0 6 12 16.670399 21.996 25.992 31.992 37.3176 43.3176 46.3176 49.651205 55.651205 58.651205 61.984807 67.9848 73.3104 76.3104 80.980808 84.3144 90.3144 96.3144 102.3144 105.3144 110.64 116.64 122.64 128.64 134.64 139.9656 143.29921 148.62482 154.62482 157.62482 163.62482 169.62482 172.62482 179.29921 184.62482 188.62082 191.95442 197.95442 203.95442 206.95442 212.28003 215.61363 218.61363 223.93924 227.27285 230.27285 233.27285 237.26885 243.26885 249.26885 255.26885 261.26887 265.26487 268.26487 271.26487 274.59846 280.59846 283.59846 292.26487 298.26487 301.59846 306.92405 312.92405 315.92405 321.92405 325.25764 329.25364 332.58723 337.25764 340.25764 344.25364 349.57923 352.9128 356.2464 359.2464 368.58 374.58 378.576 383.90159 386.90159 390.89759 396.22319 400.8936 404.22718 408.22319 411.55677 416.88236 420.21595 425.54154 431.54154 434.54154 437.87513 443.87513">observed in the study conducted by Parikh et al. (2019), in which girls felt more restricted in </tspan></text>
<text fill="#0e101a" xml:space="preserve" transform="matrix(1 0 -0 1 72 378.7969)" font-size="12" font-family="TimesNewRomanPSMT"><tspan y="0" x="0 6 11.325601 17.3256 23.3256 26.6592 29.992802 35.3184 38.652006 41.985609 47.985609 53.985609 56.985609 62.311208 68.3112 71.6448 77.6448 83.6448 89.6448 98.97839 104.97839 107.97839 116.6448 119.97839 123.31199 129.31198 132.64559 138.64559 141.64559 144.97919 150.97919 156.3048 159.3048 165.3048 171.3048 177.3048 181.97519 187.3008 193.3008 199.3008 202.6344 208.6344 211.6344 214.6344 220.6344 226.6344 232.6344 238.6344 244.6344 247.6344 250.968 256.96803 259.96803 265.96803 269.96403 275.2896 281.2896 286.6152 289.9488 295.27439 301.27439 304.60798 307.60798 312.27839 317.60398 323.60398 326.93757 331.60798 340.94157 343.94157 349.26716 355.26716 361.26716 364.26716 369.59275 375.59275 381.59275 386.91835 392.24394 395.5775 400.9031 404.2367 407.57029 413.57029 419.57029 424.2407 427.2407 433.2407 439.2407">negotiating autonomy within the household, bound to prevalent sexism and expectations by </tspan></text>
<text fill="#0e101a" xml:space="preserve" transform="matrix(1 0 -0 1 72 408.2871)" font-size="12" font-family="TimesNewRomanPSMT"><tspan y="0" x="0 6 11.325601 15.321601 20.647202 26.647202 29.980803 34.651205 37.651205 40.651205 45.976804 51.976804 57.976804 60.976804 66.97681 70.97281 76.97281 82.97281 88.29841 91.29841 94.632 100.632 103.632 107.628009 110.9616 115.632 121.632 126.30241 129.3024 135.3024 139.2984 142.2984 148.2984 154.2984 160.2984 163.632 166.9656 172.29122 175.29122 179.96161 185.28722 191.28722 197.28722 202.61283 205.94643 208.94643 214.94643 220.27204 224.26804 229.59365 234.26404 238.93444 248.26804 253.59365 259.59364 262.92723 265.92723 268.92723 275.60163 278.9352 282.9312 288.2568 292.92723 297.59764 300.59764 303.9312 308.60163 311.60163 316.92723 320.2608 324.9312 330.9312 333.9312 339.9312 345.9312 350.60163 355.92723 359.92323 365.92323 371.2488 377.2488 380.2488 385.5744 394.908 400.908 406.908 412.908 415.908 421.908 427.23359 432.55918 436.55519 441.2256 444.2256">parents, and prone to risks of public sexual harassment. Stress is also observed among peers, </tspan></text>
<text fill="#0e101a" xml:space="preserve" transform="matrix(1 0 -0 1 72 437.7773)" font-size="12" font-family="TimesNewRomanPSMT"><tspan y="0" x="0 8.666401 14.666401 19.992003 23.988003 29.313605 32.647207 38.647207 41.647207 47.647207 53.647207 59.647207 65.6472 71.6472 76.9728 80.9688 83.9688 89.2944 95.2944 101.2944 104.628 109.9536 114.624 119.9496 125.2752 131.2752 134.60881 139.2792 142.2792 147.60482 151.60082 156.92642 159.92642 169.26003 175.26003 179.25603 184.58164 187.58164 192.25203 198.25203 202.92243 208.24803 213.57364 219.57364 222.90724 226.24085 232.24085 235.57445 240.90006 243.90006 247.23366 253.23366 256.23365 262.23365 268.23365 271.56724 274.90083 280.90083 284.2344 290.2344 296.2344 299.2344 304.56 310.56 316.56 319.56 322.8936 328.21919 333.54478 338.21519 341.54878 347.54878 353.54878 356.54878 362.54878 368.54878 371.54878 374.88236 380.88236 386.20796 389.54154 393.53755 396.53755 401.20796 406.53355 412.53355 418.53355 424.53355 427.86714 430.86714 435.53755 440.86314 446.86314 450.19673 456.19673 460.19273 464.86314">wherein younger adolescents are more susceptible to bullying and teasing by their school seniors </tspan></text>
<text fill="#0e101a" xml:space="preserve" transform="matrix(1 0 -0 1 72 467.2676)" font-size="12" font-family="TimesNewRomanPSMT"><tspan y="0" x="0 3.996 10.670402 15.996001 19.992 23.325602 29.325602 35.3256 38.3256 43.6512 46.9848 49.9848 55.3104 58.644 61.644 64.644 67.644 73.644 79.644 85.644 91.644 95.64 98.64 101.4228 112.2684 115.602 118.93559 124.93559 127.93559 131.2692 137.2692 142.5948 145.5948 148.9284 154.9284 160.25402 164.25002 169.57563 174.90123 179.57163 182.90523 188.90523 194.90523 197.90523 201.90123 207.90123 211.23484 216.56044 219.56044 225.56044 229.55644 232.55644 237.22684 243.22684 248.55245 251.88605 257.21165 260.54524 263.54524 272.8788 278.2044 284.2044 287.538 292.8636 295.8636 298.8636 304.8636 310.18919 316.18919 321.51478 324.84837 328.18196 334.18196 339.50755 342.50755 348.50755 353.83314 362.49955 367.16996 370.16996 374.16596 379.49156 382.82514 388.15074 391.4843 396.8099 402.8099 405.8099 409.1435 415.1435 418.1435 422.8139 426.1475 432.1475 438.1475 443.47309 449.47309 452.80668 457.47709 460.47709">(Parikh et al., 2019). With the increasing role of social media, negative news related to students, </tspan></text>
<text fill="#0e101a" xml:space="preserve" transform="matrix(1 0 -0 1 72 496.7578)" font-size="12" font-family="TimesNewRomanPSMT"><tspan y="0" x="0 3.3336006 8.659201 13.984801 19.310402 25.310402 30.636004 34.632005 39.302404 42.302404 45.302404 49.9728 55.2984 61.2984 67.2984 73.2984 76.631999 81.3024 84.3024 87.3024 92.628 97.9536 101.9496 107.2752 112.6008 116.5968 121.267208 124.267208 127.267208 132.5928 138.5928 144.5928 147.5928 152.91841 158.91841 164.24402 173.57762 176.91123 182.91123 188.23683 191.57044 194.90404 200.90404 206.90404 209.90404 215.90404 221.90404 225.23764 228.57125 233.89685 237.23046 242.55606 247.22646 250.22646 256.22645 260.22245 263.22245 266.55604 272.55604 277.88163 280.88163 286.2072 292.2072 298.2072 303.5328 308.8584 312.192 315.52558 321.52558 327.52558 330.52558 335.19599 341.19599 345.8664 349.19999 354.52558 363.85917 366.85917 370.85517 376.85517 380.85118 384.18476 390.18476 395.51036 399.50636 402.50636 407.83195 413.83195 419.83195 424.50236 427.50236 433.50236 439.50236 442.50236 445.83595 451.83595">teachers, schools, careers, and examination policies of the education system further adds on to </tspan></text>
<text fill="#0e101a" xml:space="preserve" transform="matrix(1 0 -0 1 72 526.248)" font-size="12" font-family="TimesNewRomanPSMT"><tspan y="0" x="0 5.3256008 10.6512 15.9768 21.976799 27.3024 36.636 39.9696 45.2952 48.2952 54.2952 58.2912 63.6168 68.2872 72.9576 78.9576 82.953609 88.279209 91.279209 95.27521 103.279209 109.279209 114.604808 118.383609 124.383609 129.70922 135.70922 141.03482 144.03482 153.36843 156.15123 163.05963 166.39324 175.05963 180.38524 184.38124 187.71485 190.71485 193.71485 199.71485 205.71485 211.71485 217.71485 221.71085 224.71085">academic pressure (Bhargava &#x0026; Tiwari, 2019). </tspan></text>
<g id="Layer-2" data-name="Span">
<text fill="#0e101a" xml:space="preserve" transform="matrix(1 0 -0 1 72 526.248)" font-size="12" font-family="TimesNewRomanPSMT"><tspan y="0" x="227.7188"> </tspan></text>
</g>
</g>
<g id="Layer-1" data-name="P">
<text fill="#0e101a" xml:space="preserve" transform="matrix(1 0 -0 1 108 555.7383)" font-size="12" font-family="TimesNewRomanPSMT"><tspan y="0" x="0 8.666401 12.000001 15.333601 18.333601 21.667202 27.667202 32.9928 37.6632 42.9888 45.9888 49.9848 55.3104 60.635999 63.9696 69.969608 73.96561 78.63601 81.63601 87.63601 92.96161 98.96161 104.28721 107.28721 111.28321 116.60881 121.27921 127.27921 130.61283 133.94643 139.27204 145.27204 148.27204 151.60564 157.60564 160.60564 165.93125 168.93125 172.26485 178.26485 184.26485 187.59845 192.92406 195.92406 201.24967 207.24967 213.24967 216.58327 220.57927 226.57927 232.57927 241.91287 247.23848 253.23848 256.57209 259.57209 262.90568 268.90568 271.90568 277.23127 283.23127 288.55686 292.55287 298.55287 304.55287 309.87846 315.87846 318.87846 322.21205 325.54563 329.54164 334.86723 337.86723 341.86323 347.86323 351.85923 354.85923 359.52964 364.85523 370.85523 376.85523 382.85523 386.1888 390.1848 396.1848 402.1848 405.5184 411.5184 417.5184">All these factors have resulted in a toxic environment in everyday life for school-going </tspan></text>
<text fill="#0e101a" xml:space="preserve" transform="matrix(1 0 -0 1 72 585.2285)" font-size="12" font-family="TimesNewRomanPSMT"><tspan y="0" x="0 4.6704 8.004001 14.004001 20.004002 25.329604 31.329604 34.663206 39.333604 42.333604 45.333604 52.008005 57.333604 62.659204 66.655208 69.655208 75.655208 79.65121 82.65121 85.9848 91.3104 96.636 101.9616 107.9616 113.2872 117.2832 121.953609 124.953609 130.2792 136.2792 142.2792 145.2792 151.2792 156.60482 160.60082 165.92642 171.92642 175.26003 179.93042 182.93042 188.25603 194.25603 200.25603 203.25603 208.58164 211.58164 215.57764 220.90325 226.22885 229.56246 232.89606 238.89606 244.89606 247.89606 253.89606 257.89207 260.89207 265.56248 271.56248 275.34129 279.33729 285.33729 290.66288 295.98847 299.32206 302.65565 308.65565 314.65565 317.65565 323.65565 329.65565 334.98124 337.98124 341.31483 347.31483 350.31483 355.6404 361.6404 364.6404 367.974 373.974 379.2996 385.2996 388.63319 391.96678 395.30036 398.63395 404.63395 407.63395 410.96754 416.96754 419.96754 425.29313 431.29313 437.29313 441.28913 446.61473 451.28514 455.95555">students. Fear of teachers and parents and a feeling of suffocation due to an inability to express </tspan></text>
<text fill="#0e101a" xml:space="preserve" transform="matrix(1 0 -0 1 72 614.7188)" font-size="12" font-family="TimesNewRomanPSMT"><tspan y="0" x="0 5.3256008 14.659201 20.6592 23.992802 27.326403 33.3264 39.3264 44.652 47.9856 50.9856 55.656 58.989599 62.985597 68.311199 72.9816 77.652 80.652 86.652 90.648 93.9816 99.3072 105.3072 108.3072 112.3032 117.6288 122.2992 128.2992 131.6328 134.9664 139.6368 142.6368 145.9704 151.9704 154.9704 160.9704 166.296 172.296 176.292 181.61762 186.28801 190.9584 194.292 200.292 206.292 209.292 214.61762 220.61762 226.61762 229.61762 235.61762 238.95122 244.95122 250.27683 254.27283 257.27284 261.94325 265.27684 269.27284 274.59843 279.26884 283.93925 286.93925 290.93525 296.26084 301.58644 306.91203 310.2456 313.5792 319.5792 325.5792 330.2496 333.2496 337.2456 343.92 349.2456 353.2416 356.5752 362.5752 368.5752 371.5752 376.9008 380.23439 383.23439 388.55998 391.89356 394.89356 397.89356 400.89356 406.89356 412.89356 418.89356 424.89356 428.88957 431.88957">emotional stress often results in depression and other stress reactions (Parikh et al., 2019). </tspan></text>
<text fill="#0e101a" xml:space="preserve" transform="matrix(1 0 -0 1 72 644.209)" font-size="12" font-family="TimesNewRomanPSMT"><tspan y="0" x="0 6.674401 12.6744 18.6744 24.6744 30.000002 36 39 44.3256 50.3256 56.3256 59.3256 64.6512 70.6512 76.6512 79.984798 85.984798 90.6552 93.98879 99.98879 105.31439 108.31439 113.63999 119.63999 125.63999 130.96559 134.4816 137.4816 140.4816 145.8072 149.58602 155.58602 161.58602 170.91962 176.24523 182.24523 185.57883 190.24922 193.24922 198.57483 204.57483 210.57483 213.57483 217.57083 220.90444 226.90444 232.90444 236.23804 240.90843 243.90843 252.57483 255.90843 259.24205 265.24205 268.24205 274.24205 279.56764 283.56364 288.88923 294.88923 298.2228 302.89323 305.89323 308.89323 312.88923 318.2148 324.2148 329.5404 332.5404 335.5404 340.866 346.866 352.866 355.866 361.1916 364.1916 368.862 374.1876 380.1876 384.858 390.1836 393.1836 399.1836 403.1796 406.1796 409.51319 415.51319 421.51319 426.83879 430.17237 433.50596 439.50596 444.83155 449.50196 454.17237">Sudden and explosive anger, arguments and fights with parents, rage, and a sense of loneliness </tspan></text>
<text fill="#0e101a" xml:space="preserve" transform="matrix(1 0 -0 1 72 673.6992)" font-size="12" font-family="TimesNewRomanPSMT"><tspan y="0" x="0 3.996 9.996 13.992001 17.325602 23.325602 28.651204 32.6472 35.6472 39.6432 44.9688 49.6392 55.6392 58.972799 62.3064 65.3064 68.63999 74.63999 77.63999 82.96559 88.96559 94.96559 100.96559 104.29919 107.63278 110.96638 116.96638 122.29198 125.29198 130.61759 136.61759 142.61759 145.61759 151.61759 156.28798 162.28798 167.61359 173.61359 179.61359 182.94719 188.94719 194.94719 198.28079 203.6064 208.932 212.26561 215.26561 220.59122 226.59122 231.91683 237.91683 243.91683 249.24243 253.91283 256.91285 260.24644 266.24644 271.57203 274.9056 277.9056 283.9056 289.2312 295.2312 300.5568 303.89039 307.22398 313.22398 318.54957 321.88316 327.88316 330.88316 336.20875 339.98756 343.98356 349.30915 354.63475 357.96833 360.96833 365.63874 368.97233 374.2979 379.6235 385.6235 388.6235 391.6235 396.9491 402.9491 408.9491 414.2747 417.60829 420.94187 424.27546 429.60105 432.60105 435.60105 440.92665 446.92665 452.92665">further result in cognitive and psychological changes that negatively affect sleep, appetite, and </tspan></text>
<text fill="#0e101a" xml:space="preserve" transform="matrix(1 0 -0 1 72 703.18948)" font-size="12" font-family="TimesNewRomanPSMT"><tspan y="0" x="0 5.3256008 11.325601 17.3256 22.651202 27.976803 33.976804 37.310407 41.306406 46.632005 49.965604 53.299207 59.299207 65.29921 68.29921 71.29921 79.965618 85.291217 90.61681 96.61681 101.94241 107.26801 113.26801 118.59361 123.264019 126.264019 129.264 135.264 140.58962 146.58962 151.26001 156.58562 161.91123 164.91123 167.91123 171.90723 177.23284 183.23284 188.55844 192.07445 195.07445 198.07445 203.40006 209.40006 215.40006 218.40006 221.73366 227.73366 232.40406 237.07445 240.07445 246.07445 250.07045 253.07045 258.39604 264.39604 270.39604 275.06645 280.39204 283.72563 289.72563 295.72563 300.39604 306.39604 311.72163 316.39204 321.06245 324.06245 329.38804 333.38404 338.70964 341.70964 347.03523 353.03523 362.3688 371.7024 377.7024 383.7024 386.7024 390.6984 396.024 401.34959 406.67518 410.00877 413.34236 419.34236 425.34236 430.01277 433.01277 438.33836 447.67195 453.67195 459.67195 465.67195">concentration. Headaches, nausea, fever, and loss of consciousness are common reactions among </tspan></text>
</g>
</g>
</g>
</svg>
