<?xml version="1.0" encoding="UTF-8" standalone="no"?>
<!DOCTYPE svg PUBLIC "-//W3C//DTD SVG 1.1//EN" "http://www.w3.org/Graphics/SVG/1.1/DTD/svg11.dtd">
<svg xmlns="http://www.w3.org/2000/svg" xmlns:xlink="http://www.w3.org/1999/xlink" version="1.1" width="612pt" height="792pt" viewBox="0 0 612 792">
<g enable-background="new">
<clipPath id="cp8">
<path transform="matrix(1,0,0,-1,0,792)" d="M 0 0 L 612 0 L 612 792 L 0 792 Z "/>
</clipPath>
<g clip-path="url(#cp8)">
<path transform="matrix(1,0,0,-1,0,792)" d="M 0 792 L 612 792 L 612 0 L 0 0 Z " fill="#ffffff"/>
<g id="Layer-1" data-name="P">
</g>
<clipPath id="cp9">
<path transform="matrix(1,0,0,-1,0,792)" d="M 68.67773 67.89258 L 543.3222 67.89258 L 543.3222 723.32229 L 68.67773 723.32229 Z "/>
</clipPath>
<g clip-path="url(#cp9)">
<text fill="#0e101a" xml:space="preserve" transform="matrix(1 0 -0 1 72 83.89447)" font-size="12" font-family="TimesNewRomanPS" font-weight="bold"><tspan y="0" x="0 8.666401 13.992002 17.988 21.321602 27.996003 31.329604 35.325605 38.659208 44.659208 51.333608 54.333608 60.333608 64.329608 67.112407 74.0148 79.3404 84.666 94.662">Definition of Terms</tspan></text>
<g id="Layer-2" data-name="Span">
<text fill="#0e101a" xml:space="preserve" transform="matrix(1 0 -0 1 72 83.89447)" font-size="12" font-family="TimesNewRomanPSMT"><tspan y="0" x="99.33398"> </tspan></text>
</g>
</g>
<g id="Layer-1" data-name="P">
<text fill="#0e101a" xml:space="preserve" transform="matrix(1 0 -0 1 108 113.38483)" font-size="12" font-family="TimesNewRomanPSMT"><tspan y="0" x="0 6.674401 12.6744 16.6704 19.6704 23.004002 29.004002 34.3296 37.3296 43.3296 49.3296 53.3256 59.3256 65.3256 69.996 75.3216 79.992008 82.992008 88.992008 92.98801 95.98801 99.3216 105.3216 108.6552 113.3256 116.3256 120.3216 125.6472 130.3176 135.6432 140.96881 144.96482 150.29042 156.29042 159.29042 165.29042 170.61603 176.61603 181.94164 185.45764 188.45764 191.45764 194.79125 200.79125 206.11685 209.11685 214.44246 220.44246 223.77606 229.77606 235.77606 239.77207 242.77207 248.77207 254.09767 258.7681 261.7681 267.7681 271.7641 277.7641 283.7641 287.0977 293.0977 298.42329 304.42329 307.42329 310.75688 316.75688 322.08247 325.08247 329.07847 335.07847 338.41206 341.74565 347.74565 356.41206 359.74565 365.74565 371.74565 374.74565 380.74565 386.74565 392.07124 396.06724 401.39283 404.7264 408.06 414.06 420.06 425.3856 428.71919">For the purposes of this research paper, the author has provided the following operational </tspan></text>
<text fill="#0e101a" xml:space="preserve" transform="matrix(1 0 -0 1 72 142.875)" font-size="12" font-family="TimesNewRomanPSMT"><tspan y="0" x="0 6 11.325601 15.321601 18.655201 24.655201 27.988802 31.322403 34.656003 40.656003 46.656003 51.3264 54.3264 58.3224 64.3224 68.318408 71.318408 74.652 79.9776 83.9736 93.3072 97.9776 100.9776 104.311199 110.311199 115.636798 118.97039 121.97039 127.29599 133.29599 139.29599 144.6216 149.9472 153.9432 156.9432 160.27681 166.27681 169.27681 172.61042 178.61042 181.94402 186.61441 189.61441 193.61042 198.93602 203.60642 208.93202 214.25763 218.25363 223.57924 229.57924 232.57924 238.57924 243.90485 249.90485 255.23046 259.22645">definitions for terms that appear in this research paper:</tspan></text>
<g id="Layer-2" data-name="Span">
<text fill="#0e101a" xml:space="preserve" transform="matrix(1 0 -0 1 72 142.875)" font-size="12" font-family="TimesNewRomanPSMT"><tspan y="0" x="262.5703"> </tspan></text>
</g>
</g>
<g id="Layer-1" data-name="P">
<g id="Layer-2" data-name="P">
<g id="Layer-3" data-name="P">
<text xml:space="preserve" transform="matrix(1 0 -0 1 108 172.36518)" font-size="12" font-family="TimesNewRomanPSMT"><tspan y="0" x="0 6">1.</tspan></text>
</g>
<g id="Layer-3" data-name="P">
<text xml:space="preserve" transform="matrix(1 0 -0 1 120.65 172.36518)" font-size="12" font-family="TimesNewRomanPSMT"><tspan y="0" x="0 7.3296 13.329599 18.655201 21.988802 27.988802 33.314405 36.648008 39.98161 45.98161 51.98161 55.315214 58.09801 65.427608 71.427608 76.753208 79.753208 83.0868 88.4124 92.4084 101.742 104.742 109.6404 114.966 120.966 126.2916 129.62522 135.62522 140.95082 144.28443 147.61803 153.61803 159.61803 164.51642 167.51642 170.85002 175.52042 178.52042 184.52042 189.19081 194.51642 200.51642 203.51642 206.85002 212.85002 215.85002 220.74842 226.07402 232.07402 241.40763 247.40763 252.73323 256.72923 262.0548 265.0548 268.3884 274.3884 279.714 282.714 288.714 294.714 300.03959 303.37318 306.70677 310.04035 316.04035 319.04035 325.04035 329.03636 332.03636 336.70677 340.04035 346.04035 352.04035 357.36595 363.36595 366.69953">Evaluation: The term "evaluation" is used to "compare the quality of student </tspan></text>
<text xml:space="preserve" transform="matrix(1 0 -0 1 120.65 201.85553)" font-size="12" font-family="TimesNewRomanPSMT"><tspan y="0" x="0 6 11.325601 15.321601 19.3176 25.3176 29.3136 38.6472 43.9728 49.9728 55.2984 60.624 63.624 67.62 70.9536 73.9536 79.2792 82.2792 85.2792 88.2792 93.6048 96.6048 98.767208 104.767208 108.76321 114.76321 120.76321 126.76321 132.0888 135.42241 137.58481 141.58081 144.58081 150.58081 155.90642 160.57682 165.90242 171.90242 174.90242 180.90242 186.90242 189.90242 195.22803 198.22803 201.56163 207.56163 213.56163 219.56163 228.89524 234.22084 240.22084 243.55445 246.55445 250.55045 253.88405 256.88404 262.20964 265.20964 268.20964 271.20964 276.53523 279.53523 284.20564 289.53123 295.53123 299.52723 304.8528 307.8528 313.8528 317.84883 320.84883 326.84883 330.84483 336.1704 342.1704 347.496 351.492 356.3904 359.3904 363.3864 372.05284 377.37843 381.37443 386.7 392.7 398.7 404.0256 407.5416 410.5416">performance (i.e., a 'product') based on a judgment (i.e., a score or grade)" (Kerchner, </tspan></text>
<text xml:space="preserve" transform="matrix(1 0 -0 1 120.65 231.3457)" font-size="12" font-family="TimesNewRomanPSMT"><tspan y="0" x="0 6 12 18 24 27 30 36 39 42 48 54 60 63.996">2014, p. 183).</tspan></text>
<g id="Layer-4" data-name="Span">
<text xml:space="preserve" transform="matrix(1 0 -0 1 120.65 231.3457)" font-size="12" font-family="TimesNewRomanPSMT"><tspan y="0" x="66.99609"> </tspan></text>
</g>
</g>
</g>
<g id="Layer-2" data-name="P">
<g id="Layer-3" data-name="P">
<text xml:space="preserve" transform="matrix(1 0 -0 1 108 260.83589)" font-size="12" font-family="TimesNewRomanPSMT"><tspan y="0" x="0 6">2.</tspan></text>
</g>
<g id="Layer-3" data-name="P">
<text xml:space="preserve" transform="matrix(1 0 -0 1 120.65 260.83589)" font-size="12" font-family="TimesNewRomanPSMT"><tspan y="0" x="0 8.666401 13.336802 18.007203 23.332804 28.003205 32.673604 42.007207 47.332807 53.332807 56.66641 60.00001 62.78281 70.112407 76.112407 81.438 84.438 87.7716 93.0972 97.0932 106.426799 109.426799 114.3252 119.6508 124.321208 128.99161 134.31722 138.98761 143.658 152.99161 158.31722 164.31722 167.65082 172.54921 175.54921 180.4476 183.7812 188.4516 191.4516 197.4516 202.7772 207.4476 212.77321 218.77321 221.77321 227.77321 233.77321 236.77321 240.10681 245.43242 250.75803 254.75403 260.75404 264.08763 270.08763 276.08763 279.08763 285.08763 291.08763 296.4132 299.7468 304.4172 307.4172 310.7508 316.7508 322.0764 325.40998 328.40998 333.08039 336.41398 342.41398 348.41398 353.73957 359.73957 363.07316 367.74357 370.74357 376.06916 382.06916 388.06916">Assessment: The term "assessment" "is based on learning goals that students and </tspan></text>
<text xml:space="preserve" transform="matrix(1 0 -0 1 120.65 290.3262)" font-size="12" font-family="TimesNewRomanPSMT"><tspan y="0" x="0 3.3336006 8.659201 13.984801 19.310402 25.310402 30.636004 34.632005 39.302404 42.302404 46.9728 52.2984 55.632 58.632 61.965604 67.96561 73.96561 79.29121 82.6248 88.6248 93.9504 97.4664 100.4664 103.4664 107.4624 112.788 116.1216 122.1216 127.4472 131.44319 134.44319 137.7768 143.7768 149.1024 155.1024 158.1024 164.1024 170.1024 175.42801 178.76161 183.432 186.432 191.75762 196.42801 199.76161 205.08722 211.08722 214.42082 217.75443 222.42482 228.42482 233.75043 239.75043 242.75043 248.75043 254.75043 257.75044 263.07603 269.07603 272.07603 277.4016 283.4016 286.7352 292.0608 296.0568 302.0568 307.3824 310.71598 313.71598 319.04158 325.04158 330.36717 336.36717 341.69276 346.91395 349.91395 352.91395 356.24754 362.24754 366.91795 370.25154 373.5851 376.9187 382.9187 386.2523 389.58589 395.58589 401.58589 404.58589 407.58589 413.58589 417.58189">teachers set together, rather than goals established by an external agency, institution, or </tspan></text>
<text xml:space="preserve" transform="matrix(1 0 -0 1 120.65 319.8164)" font-size="12" font-family="TimesNewRomanPSMT"><tspan y="0" x="0 3.3336006 8.659201 13.984801 19.310402 25.310402 30.636004 34.632005 39.530405 42.530405 46.5264 55.192804 60.518404 64.514408 69.840007 75.840007 81.840007 87.1656 90.6816 93.6816 96.6816 102.6816 108.6816 114.6816 120.6816 123.6816 126.6816 132.68161 135.68161 138.68161 144.68161 150.68161 156.68161 160.67761 163.67761 166.67761 170.67362 174.00722 177.00722 180.34082 185.01122 188.01122 194.01122 200.01122 203.34482 206.34482 209.67842 215.67842 221.67842 227.67842 233.00403 242.33763 247.66324 253.66324 256.99684 262.32243 265.656 268.656 273.9816 279.9816 285.9816 288.9816 292.3152 296.9856 299.9856 303.9816 309.3072 313.3032 316.63679 321.96238 327.28797 330.62156 333.95515 339.95515 345.28074 348.28074 354.28074 358.27674 361.27674 364.61033 370.61033 375.9359">teacher" (Kerchner, 2014, p. 183). It is not judgemental and is reflective of the </tspan></text>
<text xml:space="preserve" transform="matrix(1 0 -0 1 120.65 349.3066)" font-size="12" font-family="TimesNewRomanPSMT"><tspan y="0" x="0 4.6704 8.004001 14.004001 20.004002 25.329604 31.329604 34.663206 36.825605 41.496004 44.496004 47.8296 53.8296 59.8296 63.163206 69.16321 72.4968 78.4968 84.4968 89.8224 93.156 96.156 102.156 106.152 112.152 118.152 122.148 127.4736 132.144 136.81439">student's individual progress.</tspan></text>
<g id="Layer-4" data-name="Span">
<text xml:space="preserve" transform="matrix(1 0 -0 1 120.65 349.3066)" font-size="12" font-family="TimesNewRomanPSMT"><tspan y="0" x="139.8164"> </tspan></text>
</g>
</g>
</g>
<g id="Layer-2" data-name="P">
<g id="Layer-3" data-name="P">
<text xml:space="preserve" transform="matrix(1 0 -0 1 108 378.7969)" font-size="12" font-family="TimesNewRomanPSMT"><tspan y="0" x="0 6">3.</tspan></text>
</g>
<g id="Layer-3" data-name="P">
<text xml:space="preserve" transform="matrix(1 0 -0 1 120.65 378.7969)" font-size="12" font-family="TimesNewRomanPSMT"><tspan y="0" x="0 6.674401 10.008 14.004001 19.329602 24.655203 33.988805 37.322408 39.660009 48.32641 52.996809 55.996809 61.996809 65.33041 71.33041 76.656009 82.656009 85.656009 88.9896 94.9896 97.9896 101.3232 107.3232 112.648799">Stream: As given in the </tspan></text>
<text xml:space="preserve" transform="matrix(1 0 -0 1 120.65 378.7969)" font-size="12" font-family="TimesNewRomanPS" font-style="italic"><tspan y="0" x="115.6523 123.656299 129.6563 138.3227 144.3227 148.99309 152.32669 158.32669 164.32669 169.6523 172.6523 181.3187 184.6523 189.9779 193.31151 196.64511 202.64511 208.64511 214.64511 219.3155">Cambridge Dictionary</tspan></text>
<text xml:space="preserve" transform="matrix(1 0 -0 1 120.65 378.7969)" font-size="12" font-family="TimesNewRomanPSMT"><tspan y="0" x="224.6426 227.6426 231.6386 237.6386 240.6386 246.6386 249.6386 253.6346 256.63459 259.63459 264.533 269.2034 272.537 276.533 281.85859 287.18418 296.51777 301.41618 304.41618 307.74977 312.42018 315.42018 321.42018 326.74577 330.74177 334.07536 340.07536 345.40095 351.40095 354.40095 359.72654 364.39695 367.39695 372.29536 377.62095 380.62095 386.62095 390.61695 396.61695 402.61695 408.61695"> (n.d.), "stream" is defined as "a group </tspan></text>
<text xml:space="preserve" transform="matrix(1 0 -0 1 120.65 408.2871)" font-size="12" font-family="TimesNewRomanPSMT"><tspan y="0" x="0 6 9.996 12.996 17.6664 22.992003 28.992003 34.992006 40.992006 44.325605 47.325605 51.996004 55.3296 61.3296 67.329608 72.655208 78.655208 81.9888 86.6592 89.6592 98.32561 101.6592 104.9928 110.9928 113.9928 118.6632 121.996799 131.3304 134.664 137.9976 143.32321 147.31922 150.31922 155.64482 161.64482 164.97843 168.31203 171.64563 174.97924 180.97924 183.97924 192.64563 198.64563 204.64563 207.64563 212.97124 216.96724 222.29285 225.29285 230.61846 236.61846 242.61846 246.61446 252.61446 258.61445 261.94804 271.28163 276.6072 279.9408 285.2664 288.59999 294.59999 297.59999 300.93357 306.93357 312.25917 315.25917 319.92958 325.25517 334.58876 339.91435 342.91435 348.23994 354.23994 359.56553 362.56553 367.8911 373.8911 379.8911 382.8911 388.2167 392.2127 397.5383">of school students with similar ability who are approximately the same age and are </tspan></text>
<text xml:space="preserve" transform="matrix(1 0 -0 1 120.65 437.7773)" font-size="12" font-family="TimesNewRomanPSMT"><tspan y="0" x="0 3.3336006 8.659201 14.659201 20.6592 26.6592 29.992802 32.9928 36.326406 42.326406 48.326406 53.652006 56.985609 62.985609 68.3112 71.644809 74.644809 79.54321 82.54321 86.539218 92.539218 95.539218 99.53522 105.53522 111.53522 114.86881 120.19441 123.19441 126.19441 130.8648 134.19841 140.19841 146.19841 151.52402 157.52402 160.85762 165.52802 168.52802 174.52802 179.85363 185.17923 191.17923 194.17923 197.51284 203.51284 206.51284 211.83844 217.83844 223.83844 229.83844 234.50884 239.83444 242.83444 246.16805 252.16805 257.49363 260.8272 264.8232 267.8232 273.1488 278.4744 283.8 289.8 295.12559 304.45918 307.79277 313.11836 316.11836 320.78877 324.12236 328.11836 333.44395 338.76954 348.10313 352.77354 355.77354 359.76954 364.43995 370.43995 375.76554 381.76554 384.76554 390.09114 394.76155">taught together." In India, students need to choose their academic streams (such as </tspan></text>
<text xml:space="preserve" transform="matrix(1 0 -0 1 120.65 467.2676)" font-size="12" font-family="TimesNewRomanPSMT"><tspan y="0" x="0 4.6704 9.996 13.3296 18.655201 24.655201 29.980803 35.306406 38.306406 41.306406 47.306406 53.306406 62.640005 67.9656 73.9656 77.299198 80.63279 83.966388 89.291988 93.96239 96.96239 99.96239 105.28799 111.28799 120.62158 129.95519 135.28079 139.2768 144.6024 149.92801 153.92401 156.92401 160.25762 166.25762 169.25762 175.25762 178.59122 184.59122 190.59122 195.91683 199.91283 202.91283 208.91283 212.90883 218.23444 224.23444 229.56005 234.23044">science, humanities, commerce) in higher grades.</tspan></text>
<g id="Layer-4" data-name="Span">
<text xml:space="preserve" transform="matrix(1 0 -0 1 120.65 467.2676)" font-size="12" font-family="TimesNewRomanPSMT"><tspan y="0" x="237.2402"> </tspan></text>
</g>
</g>
</g>
<g id="Layer-2" data-name="P">
<g id="Layer-3" data-name="P">
<text xml:space="preserve" transform="matrix(1 0 -0 1 108 496.7578)" font-size="12" font-family="TimesNewRomanPSMT"><tspan y="0" x="0 6">4.</tspan></text>
</g>
<g id="Layer-3" data-name="P">
<text xml:space="preserve" transform="matrix(1 0 -0 1 120.65 496.7578)" font-size="12" font-family="TimesNewRomanPSMT"><tspan y="0" x="0 6.9083998 12.9084 16.242 19.575602 22.909203 28.909203 34.909204 38.2428 40.580404 49.246805 53.917203 56.917203 62.917203 66.2508 72.2508 77.5764 83.5764 86.5764 89.909999 95.909999 98.909999 102.24359 108.24359 113.56919">Tuition: As given in the </tspan></text>
<text xml:space="preserve" transform="matrix(1 0 -0 1 120.65 496.7578)" font-size="12" font-family="TimesNewRomanPS" font-style="italic"><tspan y="0" x="116.5723 124.5763 130.5763 139.24269 145.24269 149.91309 153.24669 159.24669 165.24669 170.5723 173.5723 182.2387 185.5723 190.8979 194.2315 197.56511 203.56511 209.56511 215.56511 220.2355">Cambridge Dictionary</tspan></text>
<text xml:space="preserve" transform="matrix(1 0 -0 1 120.65 496.7578)" font-size="12" font-family="TimesNewRomanPSMT"><tspan y="0" x="225.5625 228.5625 232.5585 238.5585 241.5585 247.5585 250.5585 254.5545 257.5545 260.5545 265.4529 268.7865 274.7865 278.1201 281.45368 284.78727 290.78727 296.78727 301.68568 304.68568 308.01927 312.68968 315.68968 321.68968 327.01527 331.01127 334.34486 340.34486 345.67045 351.67045 354.67045 359.99604 364.66645 367.66645 372.56486 375.89845 381.89845 387.22404"> (n.d.), "tuition" is defined as "the </tspan></text>
<text xml:space="preserve" transform="matrix(1 0 -0 1 120.65 526.248)" font-size="12" font-family="TimesNewRomanPSMT"><tspan y="0" x="0 5.3256008 10.6512 13.9848 17.318402 23.318402 26.652003 29.985604 35.985605 38.985605 44.985605 48.9816 51.9816 55.315206 60.640806 65.9664 71.292 77.292 80.625598 86.625598 92.625598 95.625598 98.625598 103.951198 108.6216 114.6216 119.9472 125.2728 128.6064 133.932 137.26561 140.59922 146.59922 149.59922 152.93282 158.93282 161.93282 166.60321 175.93682 181.26242 184.59603 187.92963 190.92963 196.92963 200.92563 206.92563 212.92563 218.92563 223.59603 226.59603 232.59603 236.59203 239.59203 244.26242 247.59603 253.59603 259.596 264.9216 270.9216 274.2552 278.9256 281.9256 286.824 289.6068 296.9364 302.9364 308.262 311.262 314.59559 319.92118 323.91719 333.25077 336.25077 339.58436 344.25477 347.25477 353.25477 357.92518 363.25077 369.25077">activity of teaching, especially to small groups of students." The term is used </tspan></text>
<text xml:space="preserve" transform="matrix(1 0 -0 1 120.65 555.7383)" font-size="12" font-family="TimesNewRomanPSMT"><tspan y="0" x="0 5.3256008 11.325601 16.651202 19.984803 25.984803 30.655201 33.988805 39.988805 45.314405 48.648008 54.648008 57.648008 61.644006 67.644008 71.64001 74.64001 79.96561 85.96561 89.2992 93.295207 98.620807 101.620807 106.9464 110.28 115.6056 120.276 124.9464 130.272 134.9424 137.9424 143.268 149.268 155.268 160.59362 166.59362 171.91922 177.91922 180.91922 186.91922 192.91922 195.91922 200.58962 203.92322 209.92322 215.92322 221.24883 227.24883 230.58243 235.25283 238.25283 243.57843 247.57444 250.90804 256.2336 260.2296 263.2296 267.90003 273.22563 279.22563 285.22563 291.22563 294.5592 297.5592 300.8928 306.8928 312.21839 315.55198 318.55198 321.88557 327.21116 332.53675 337.86235 343.86235 346.86235 350.19593 356.19593 361.5215 364.5215 369.19194 374.51753 380.51753 386.51753 392.51753 395.8511">exclusively for extra classes engaged by students after school that teach the school </tspan></text>
<text xml:space="preserve" transform="matrix(1 0 -0 1 120.65 585.2285)" font-size="12" font-family="TimesNewRomanPSMT"><tspan y="0" x="0 5.3256008 11.325601 15.321601 19.3176 22.651202 27.976803 33.976804 37.310407 42.636007">curricula.</tspan></text>
<g id="Layer-4" data-name="Span">
<text xml:space="preserve" transform="matrix(1 0 -0 1 120.65 585.2285)" font-size="12" font-family="TimesNewRomanPSMT"><tspan y="0" x="45.63867"> </tspan></text>
</g>
</g>
</g>
<g id="Layer-2" data-name="P">
<g id="Layer-3" data-name="P">
<text xml:space="preserve" transform="matrix(1 0 -0 1 108 614.7188)" font-size="12" font-family="TimesNewRomanPSMT"><tspan y="0" x="0 6">5.</tspan></text>
</g>
<g id="Layer-3" data-name="P">
<text xml:space="preserve" transform="matrix(1 0 -0 1 120.65 614.7188)" font-size="12" font-family="TimesNewRomanPSMT"><tspan y="0" x="0 8.004001 14.004001 19.329602 24.655203 30.655203 33.988805 39.988805 45.988805 49.322408 51.660009 60.32641 64.99681 67.99681 73.99681 77.33041 83.33041 88.656009 94.656009 97.656009 100.9896 106.9896 109.9896 113.3232 119.3232 124.648799">Coaching: As given in the </tspan></text>
<text xml:space="preserve" transform="matrix(1 0 -0 1 120.65 614.7188)" font-size="12" font-family="TimesNewRomanPS" font-style="italic"><tspan y="0" x="127.6523 135.6563 141.6563 150.3227 156.3227 160.99309 164.32669 170.32669 176.32669 181.6523 184.6523 193.3187 196.6523 201.9779 205.31151 208.64511 214.64511 220.64511 226.64511 231.3155">Cambridge Dictionary</tspan></text>
<text xml:space="preserve" transform="matrix(1 0 -0 1 120.65 614.7188)" font-size="12" font-family="TimesNewRomanPSMT"><tspan y="0" x="236.6426 239.6426 243.6386 249.6386 252.6386 258.6386 261.6386 265.6346 268.6346 271.6346 276.53303 281.8586 287.8586 293.1842 298.5098 304.5098 307.84339 313.84339 319.84339 324.7418 327.7418 331.07539 335.7458 338.7458 344.7458 350.07139 354.06739 357.40098 363.40098 368.72657 374.72657 377.72657 383.05216 387.72257 390.72257 395.62098 398.95457 404.95457 410.28016"> (n.d.), "coaching" is defined as "the </tspan></text>
<text xml:space="preserve" transform="matrix(1 0 -0 1 120.65 644.209)" font-size="12" font-family="TimesNewRomanPSMT"><tspan y="0" x="0 5.3256008 10.6512 13.9848 16.9848 22.9848 26.9808 29.9808 35.9808 39.314405 45.314405 48.648008 54.648008 60.648008 63.648008 68.31841 74.31841 79.64401 84.96961 88.30321 93.62881 96.9624 99.9624 105.288 108.6216 113.9472 118.6176 123.288 128.6136 133.284 136.284 139.6176 145.6176 148.6176 153.288 159.288 165.288 169.284 172.6176 177.288 180.288 183.288 188.6136 191.6136 196.284 201.6096 207.6096 213.6096 219.6096 222.9432 225.9432 230.6136 236.6136 242.6136 245.9472 251.27281 256.5984 259.93199 262.93199 265.93199 271.93199 275.92799 278.92799 284.25358 287.25358 295.91999 301.91999 305.916 311.916 315.912 319.908 325.23359 328.56718 333.89277 337.22636 342.55195 348.55195 351.55195 356.87754 362.20314 365.5367 368.8703 374.8703 378.2039 381.53749 386.75868 389.75868">act of giving special classes in sports, a school subject, or a work-related activity, </tspan></text>
<text xml:space="preserve" transform="matrix(1 0 -0 1 120.65 673.6992)" font-size="12" font-family="TimesNewRomanPSMT"><tspan y="0" x="0 5.3256008 9.996001 15.996001 21.321602 26.647204 29.980805 35.306406 38.640005 41.973608 47.973608 50.973608 54.30721 60.30721 63.30721 69.307209 75.307209 80.632808 83.632808 89.632808 94.958408 98.95441 103.62481 109.62481 115.62481 118.62481 124.62481 128.6208 131.6208 136.94641 139.94641 144.6168 153.95041 159.27602 162.60962 165.94322 168.94322 174.94322 178.93923 184.93923 190.93923 196.93923 199.93923 204.83762 207.83762 216.50402 222.50402 227.82962 230.82962 234.16323 240.16323 243.16323 246.49683 252.49683 257.82243 260.82243 266.148 272.148 278.148 282.144 291.4776 297.4776 303.4776 308.148 311.148 317.148 323.148 332.4816 338.4816 343.8072 347.8032 350.8032 356.8032 360.7992 363.7992 368.4696 371.8032 377.8032 383.8032 389.12879 395.12879 398.46238 403.13279 406.13279 409.46638 415.46638">especially to one person or a small group." Due to the enormous number of students in </tspan></text>
<text xml:space="preserve" transform="matrix(1 0 -0 1 120.65 703.18948)" font-size="12" font-family="TimesNewRomanPSMT"><tspan y="0" x="0 3.996 9.996 15.996 19.329602 24.655203 27.655203 32.980806 36.314405 39.648008 44.973608 50.973608 56.973608 60.30721 66.307209 72.307209 75.307209 80.632808 86.632808 89.9664 93.9624 99.288 102.288 107.6136 110.9472 116.2728 120.9432 125.6136 130.93921 135.6096 138.6096 143.93521 147.93122 151.26482 156.59043 160.58643 163.58643 168.25682 173.58243 179.58243 185.58243 191.58243 194.91603 197.91603 201.24964 207.24964 210.24964 216.24964 220.24564 225.57125 231.57125 236.89685 240.89286 246.21846 249.55207 252.88567 258.88569 264.88569 267.88569 271.88169 277.88169 281.8777 284.8777 290.8777 296.8777 300.21128 306.21128 311.53688 315.53288 320.20329 323.53688 326.87046 332.87046 335.87046 341.19606 347.19606 350.52964 354.52565 359.85124 365.85124 371.17683 376.5024 379.5024 384.828 390.828 396.1536 405.48719 410.1576 413.1576">India attending extra classes after school in preparation for university entrance exams, </tspan></text>
</g>
</g>
</g>
</g>
</g>
</svg>
