<?xml version="1.0" encoding="UTF-8" standalone="no"?>
<!DOCTYPE svg PUBLIC "-//W3C//DTD SVG 1.1//EN" "http://www.w3.org/Graphics/SVG/1.1/DTD/svg11.dtd">
<svg xmlns="http://www.w3.org/2000/svg" xmlns:xlink="http://www.w3.org/1999/xlink" version="1.1" width="612pt" height="792pt" viewBox="0 0 612 792">
<g enable-background="new">
<clipPath id="cp4">
<path transform="matrix(1,0,0,-1,0,792)" d="M 0 0 L 612 0 L 612 792 L 0 792 Z "/>
</clipPath>
<g clip-path="url(#cp4)">
<path transform="matrix(1,0,0,-1,0,792)" d="M 0 792 L 612 792 L 612 0 L 0 0 Z " fill="#ffffff"/>
<g id="Layer-1" data-name="P">
</g>
<clipPath id="cp5">
<path transform="matrix(1,0,0,-1,0,792)" d="M 68.67773 67.89258 L 543.3222 67.89258 L 543.3222 723.32229 L 68.67773 723.32229 Z "/>
</clipPath>
<g clip-path="url(#cp5)">
<text fill="#0e101a" xml:space="preserve" transform="matrix(1 0 -0 1 108 83.89447)" font-size="12" font-family="TimesNewRomanPSMT"><tspan y="0" x="0 6.9083998 12.9084 16.242 19.575602 22.909203 28.909203 34.909204 37.909204 43.234804 46.5684 51.894 56.5644 61.2348 66.560398 71.2308 74.2308 80.2308 85.5564 91.5564 96.881999 99.881999 105.881999 111.207599 116.533199 122.533199 131.8668 137.19242 140.19242 145.51802 148.51802 153.84363 159.84363 169.17723 178.51084 184.51084 190.51084 193.51084 199.51084 205.51084 209.50684 214.17723 220.17723 223.51084 226.84444 229.84444 233.17804 239.17804 242.17804 246.17404 252.17404 258.17405 261.50764 266.83323 272.83323 275.83323 280.50364 283.83723 289.83723 295.83723 301.1628 307.1628 310.4964 315.1668 317.32923 320.32923 323.6628 326.9964 332.9964 338.322 342.9924 345.9924 351.9924 357.9924 363.318 366.318 369.65159 375.65159 378.65159 381.98518 387.98518 393.31077">Tuition classes have become a common pursuit in Indian students' lives due to the </tspan></text>
<text fill="#0e101a" xml:space="preserve" transform="matrix(1 0 -0 1 72 113.38483)" font-size="12" font-family="TimesNewRomanPSMT"><tspan y="0" x="0 5.3256008 11.325601 17.3256 21.3216 30.655201 36.6552 42.6552 47.3256 50.3256 55.6512 61.6512 65.6472 69.6432 72.9768 78.3024 84.3024 87.635997 93.635997 102.96959 105.96959 110.63999 113.97359 119.97359 125.97359 129.30719 134.6328 140.6328 143.6328 146.9664 152.9664 155.9664 161.9664 165.9624 171.28801 177.28801 182.61362 186.60962 191.93523 195.26883 198.60243 204.60243 210.60243 213.60243 217.59844 223.59844 227.59444 230.59444 233.92804 239.92804 245.25365 248.25365 253.57926 259.57926 268.91285 274.91285 280.23844 283.57203 286.9056 290.2392 293.57279 299.57279 304.89839 307.89839 313.22398 319.22398 325.22398 328.22398 333.54957 338.87516 342.87117 348.19676 353.52235 357.27836 361.27436 367.27436 372.59996 376.59596 379.92955 385.92955 389.26313 395.26313 401.26313">enormous curriculum studied in preparation for the competitive and career-defining </tspan></text>
<text fill="#0e101a" xml:space="preserve" transform="matrix(1 0 -0 1 72 142.875)" font-size="12" font-family="TimesNewRomanPSMT"><tspan y="0" x="0 5.3256008 11.325601 16.651202 25.984803 29.318404 35.318407 40.644006 43.977605 47.311208 53.311208 59.311208 63.981607 66.981609 70.97761 78.31321 83.63881 87.63481 96.96841 102.29401 105.29401 110.619609 113.9532 116.9532 122.2788 125.6124 128.6124 131.6124 134.6124 140.6124 146.6124 152.6124 158.6124 162.6084 165.6084 168.3912 175.72081 181.72081 187.04642 190.04642 194.71681 198.05042 204.05042 210.05042 216.05042 219.05042 224.37602 230.37602 236.37602 242.37602 248.37602 253.70163 257.03523 262.3608 268.3608 271.3608 277.3608 283.3608 286.3608 295.02723 300.3528 306.3528 309.3528 314.6784 318.012 321.012 326.3376 329.67118 332.67118 335.67118 339.66719 345.66719 351.66719 357.66719 363.66719 367.66319 370.66319 375.3336 381.3336 387.3336 396 400.6704 403.6704 407.004 413.004 418.3296 421.66319 424.66319 433.99678 439.99678 443.99278 449.31837">examinations (Verma et al., 2002). The study conducted by Deb et al. (2015) shows that more </tspan></text>
<text fill="#0e101a" xml:space="preserve" transform="matrix(1 0 -0 1 72 172.36518)" font-size="12" font-family="TimesNewRomanPSMT"><tspan y="0" x="0 3.3336006 9.333601 14.659202 20.659203 23.659203 29.659203 34.984804 38.3184 42.3144 45.3144 51.3144 55.3104 58.3104 64.310398 69.635997 73.631999 78.957599 84.957599 88.29119 92.96159 95.96159 101.28719 107.28719 113.28719 119.28719 122.62079 128.62079 131.95439 134.95439 138.288 144.288 148.284 153.6096 158.93521 161.93521 165.26882 171.26882 174.26882 178.26482 184.26482 190.26482 194.26082 197.26082 203.26082 207.25682 210.59043 216.59043 221.91603 225.24964 230.57524 233.57524 236.90885 242.90885 246.24245 252.24245 256.23844 260.90885 263.90885 267.90486 273.90486 277.90086 280.90086 284.23445 290.23445 295.56004 298.89363 302.88963 305.88963 311.2152 317.2152 320.5488 323.8824 329.8824 333.8784 339.20399 345.20399 348.20399 351.20399 359.8704 365.8704 368.8704 374.8704 380.19599 386.19599 390.8664 393.8664 402.5328 408.5328 413.8584 419.8584 422.8584 426.192 432.192 437.51759 441.51359 446.83918 449.83918 455.16477 459.16078 464.48637">than half of parents appoint three to four private tutors for their children. On days when there are </tspan></text>
<text fill="#0e101a" xml:space="preserve" transform="matrix(1 0 -0 1 72 201.85553)" font-size="12" font-family="TimesNewRomanPSMT"><tspan y="0" x="0 6 12 15 18.333601 24.333601 27.667202 31.000803 34.334405 40.334405 46.334405 49.334405 54.660005 57.993604 63.319204 67.98961 72.66001 77.98561 82.65601 85.65601 88.65601 91.98961 97.98961 103.31521 107.31121 112.63681 115.63681 120.96241 124.95841 130.28401 133.28401 138.60962 142.60562 145.93923 148.93923 154.93923 158.93523 161.93523 171.26883 177.26883 181.93923 185.27283 190.59844 193.59844 196.93204 202.25765 206.92804 211.59844 217.59844 223.59844 228.26883 231.26883 233.60643 242.27283 247.59844 252.92404 258.92405 262.92005 268.92005 272.25364 278.25364 284.25364 287.25364 290.58723 296.58723 299.58723 302.9208 308.9208 314.2464 317.2464 325.9128 331.2384 334.572 337.90559 343.90559 349.90559 355.23118 358.56477 361.56477 368.23918 373.56477 382.89836 388.89836 392.23194 397.55754 400.55754 407.23194 413.23194 417.22795 423.22795 428.55354 434.55354 437.55354 446.21995 449.99876 453.99476 457.32835 462.65394 467.97953">no tuition classes, there are art or music lessons. According to the National Sample Survey Office </tspan></text>
<text fill="#0e101a" xml:space="preserve" transform="matrix(1 0 -0 1 72 231.3457)" font-size="12" font-family="TimesNewRomanPSMT"><tspan y="0" x="0 3.996 12.662401 19.336802 26.011202 34.6776 38.6736 41.6736 45.669599 51.669599 57.669599 63.669599 69.6696 73.6656 76.6656 79.6656 85.6656 91.6656 101.661609 104.661609 110.661609 114.65761 117.65761 121.65361 127.65361 133.65361 136.98722 142.31282 148.31282 151.31282 155.98322 161.30883 167.30883 173.30883 179.30883 182.64243 185.64243 190.31282 193.64643 199.64643 205.64643 210.97203 216.97203 220.30564 224.97603 227.97603 231.30963 237.30963 240.30963 246.30963 252.30963 258.30964 264.30964 267.30964 275.97605 281.30165 285.29765 290.62324 293.62324 297.61924 302.94483 308.27043 313.596 316.9296 322.9296 326.26319 332.26319 338.26319 341.26319 347.26319 351.2592 354.59278 360.59278 365.91838 369.25196 374.57756 377.57756 382.90315 388.90315 394.22874 399.55433 405.55433 408.8879 414.8879 420.8879 423.8879 426.8879 434.8919 440.2175 444.8879 448.2215 454.2215 459.5471 464.2175">(NSSO) (2014), 26% of Indian school students in 2014 were receiving private coaching. Besides </tspan></text>
<text fill="#0e101a" xml:space="preserve" transform="matrix(1 0 -0 1 72 260.83589)" font-size="12" font-family="TimesNewRomanPSMT"><tspan y="0" x="0 3.3336006 9.333601 14.659202 19.329602 24.655203 27.655203 32.980806 38.980806 42.314405 46.310403 51.636 54.636 57.9696 63.9696 67.3032 73.3032 77.2992 80.6328 85.9584 89.29199 93.962398 96.962398 99.962398 104.6328 107.96639 113.96639 119.96639 125.29199 131.29199 134.6256 139.29599 142.29599 146.29199 151.6176 156.9432 162.26882 165.26882 170.59442 176.59442 181.92003 187.24564 191.91603 196.58643 199.92003 205.92003 211.24564 214.24564 220.24564 226.24564 235.57924 240.90485 249.57125 255.57125 259.56724 265.56724 268.56724 272.56324 276.55924 282.55924 291.89283 294.89283 299.56324 304.88883 310.88883 316.88883 322.88883 326.2224 329.2224 333.2184 340.55403 345.8796 349.8756 359.2092 364.5348 367.5348 372.86039 376.19398 379.19398 384.51957 387.85316 390.85316 393.85316 396.85316 402.85316 408.85316 414.85316 420.85316 424.84916 427.84916">these extra tutorials, students face excessive homework from school (Verma et al., 2002), </tspan></text>
<text fill="#0e101a" xml:space="preserve" transform="matrix(1 0 -0 1 72 290.3262)" font-size="12" font-family="TimesNewRomanPSMT"><tspan y="0" x="0 6 9.3336 18.667202 22.000803 28.000803 31.334404 36.004804 42.004804 45.338407 51.338407 57.338407 60.338407 63.67201 67.00561 76.3392 81.6648 84.6648 88.660808 94.660808 98.65681 101.65681 105.65281 110.97841 116.30401 120.30001 125.62561 130.95122 134.28482 137.61843 143.61843 149.61843 154.94403 158.27764 161.27764 166.60324 171.92885 175.26245 178.59606 184.59606 187.92966 191.26326 194.59687 199.92247 204.59287 207.59287 212.91847 218.91847 224.91847 227.91847 232.58887 238.58887 243.91448 247.24808 252.57369 255.90729 259.24089 264.56648 269.89207 273.22566 276.55924 282.55924 288.55924 291.55924 294.55924 298.55525 304.55525 308.55125 311.88484 317.88484 323.21043 327.20643 330.20643 335.532 341.532 347.532 350.8656 356.8656 362.8656 365.8656 369.1992 375.1992 378.1992 381.53279 387.53279 392.85838 395.85838 400.52879 403.86238 407.85838 413.18397 417.85438 422.52479">diminishing time for recreational activities and socialization, further adding to the stress.</tspan></text>
<g id="Layer-2" data-name="Span">
<text fill="#0e101a" xml:space="preserve" transform="matrix(1 0 -0 1 72 290.3262)" font-size="12" font-family="TimesNewRomanPSMT"><tspan y="0" x="425.543"> </tspan></text>
</g>
</g>
<g id="Layer-1" data-name="P">
<text fill="#0e101a" xml:space="preserve" transform="matrix(1 0 -0 1 108 319.8164)" font-size="12" font-family="TimesNewRomanPSMT"><tspan y="0" x="0 10.845601 14.179201 17.512803 23.512803 26.512803 31.838404 37.8384 40.8384 44.172 50.172 55.4976 59.4936 64.8192 70.1448 74.8152 80.1408 83.1408 86.474399 92.474399 95.474399 100.799999 106.125598 111.451198 117.451198 122.776798 132.1104 135.444 140.7696 143.7696 149.7696 153.76561 159.09122 163.76161 168.432 174.432 178.42801 183.75362 186.75362 189.75362 194.42401 197.75762 203.75762 209.75762 215.08322 221.08322 224.41683 229.08722 232.08722 238.08722 242.08322 245.41683 250.74243 256.74244 259.74244 264.41285 269.73844 275.06404 279.06004 282.39363 286.38963 289.7232 295.0488 300.3744 303.3744 306.70799 312.70799 318.03358 321.36717 325.36317 328.36317 334.36317 339.68876 345.01435 348.34794 351.68153 357.68153 360.68153 364.0151 370.0151 373.0151 382.3487 387.6743 391.00788 397.00788 400.34147 405.66706 409.00065 415.00065">With an increase in academic pressure, students often sacrifice their health to maintain </tspan></text>
<text fill="#0e101a" xml:space="preserve" transform="matrix(1 0 -0 1 72 349.3066)" font-size="12" font-family="TimesNewRomanPSMT"><tspan y="0" x="0 6 9.3336 15.3336 21.3336 24.3336 30.3336 34.329599 39.655199 45.655199 50.980798 55.651197 58.651197 64.6512 70.6512 73.6512 79.6512 84.9768 90.9768 94.310398 99.635997 104.96159 108.29519 111.628787 117.628787 123.628787 126.628787 135.96239 141.96239 145.95839 151.284 154.284 157.6176 160.9512 170.2848 175.61042 178.61042 181.94402 187.94402 190.94402 195.61441 198.94802 204.94802 210.94802 216.16922 219.16922 221.95203 229.28163 235.28163 238.61524 243.28563 246.28563 250.28163 255.60724 260.27766 265.60325 270.92884 274.92485 280.25044 286.25044 291.57603 295.57203 298.57203 303.8976 309.8976 315.8976 321.2232 325.2192 328.5528 333.8784 339.8784 345.20399 350.52958 356.52958 359.52958 368.86317 374.86317 378.19676 381.53034 384.86393 390.86393 394.1975 399.5231 402.5231 407.1935 413.1935 419.1935 425.1935 430.5191 436.5191">high grades by dedicating more time to study. This researcher experienced multiple sudden </tspan></text>
<text fill="#0e101a" xml:space="preserve" transform="matrix(1 0 -0 1 72 378.7969)" font-size="12" font-family="TimesNewRomanPSMT"><tspan y="0" x="0 3.996 9.3216 12.6552 18.655201 21.988802 25.322403 31.322403 37.322404 40.322404 45.648004 51.648004 54.9816 59.652 65.652 71.652 76.9776 81.648 84.648 93.31441 99.31441 102.648 105.9816 111.3072 114.3072 120.3072 124.3032 129.6288 135.6288 140.9544 144.95041 148.28401 154.28401 160.28401 163.28401 167.28002 173.28002 177.27602 180.27602 183.60962 189.60962 194.93523 197.93523 203.93523 209.93523 213.26883 219.26883 223.26483 229.26483 233.26084 238.58644 244.58644 249.91205 252.91205 258.91206 264.91206 270.23765 274.23365 280.23365 283.23365 288.55924 294.55924 299.88484 309.2184 313.88883 316.88883 325.55525 328.88883 332.2224 338.2224 341.2224 345.89283 349.2264 355.2264 361.2264 367.2264 370.2264 373.56 376.8936 386.22718 391.55278 394.55278 399.87837 405.87837 411.20396 416.52955 421.85514 427.85514 431.18873 437.18873 443.18873 446.18873 452.18873 458.18873">fainting episodes while preparing for the 10th-grade board exams with study time exceeding 15 </tspan></text>
<text fill="#0e101a" xml:space="preserve" transform="matrix(1 0 -0 1 72 408.2871)" font-size="12" font-family="TimesNewRomanPSMT"><tspan y="0" x="0 6 12 18 21.996 26.6664 29.6664 34.992 37.992 43.992 49.3176 54.5388 57.5388 60.321599 67.657199 72.982799 76.9788 80.31239 86.31239 92.31239 96.982799 99.982799 104.6532 107.98679 113.98679 119.98679 125.31239 131.3124 134.646 139.31639 142.31639 146.3124 151.638 156.96361 162.96361 166.95961 172.95961 178.28522 184.28522 187.28522 191.95561 197.95561 203.28122 209.28122 212.28122 216.95162 220.28522 224.28122 229.60683 234.27722 238.94762 241.94762 245.94362 251.26923 256.59483 261.9204 265.254 268.5876 274.5876 280.5876 285.258 288.258 291.59159 297.59159 300.59159 303.92518 309.92518 315.25077 318.25077 322.24678 327.57237 332.24278 337.56837 342.89396 346.88996 352.21556 358.21556 361.21556 366.54115 372.54115 378.54115 384.54115 390.54115 395.86674 399.20033 404.5259 410.5259 413.5259 419.5259 425.5259 428.5259 435.20033 440.5259 444.5219 447.8555 453.8555 459.8555">hours a day. Various students recorded such stress reactions in the research conducted by Parikh </tspan></text>
<text fill="#0e101a" xml:space="preserve" transform="matrix(1 0 -0 1 72 437.7773)" font-size="12" font-family="TimesNewRomanPSMT"><tspan y="0" x="0 5.3256008 8.659201 11.659201 16.984803 20.318404 23.318404 26.318404 30.314404 36.314405 42.314405 48.314405 54.314405 58.310403 61.310403 64.3104 72.97681 76.3104 79.644 85.644 88.644 94.644 100.644 105.9696 108.9696 113.64 116.973598 122.973598 128.9736 134.29921 140.29921 143.63282 146.63282 152.63282 157.95842 162.62882 167.95442 171.95043 175.28403 181.28403 184.61763 190.61763 196.61763 199.61763 202.95124 206.28484 209.28484 212.61844 218.61844 221.61844 227.61844 232.94405 235.94405 240.84244 244.17604 247.50965 253.50965 258.83525 261.83525 267.16084 270.16084 279.49443 282.828 288.828 294.828 297.828 303.1536 306.48719 309.82078 315.14637 320.47196 326.47196 331.37037 334.37037 338.36637 344.36637 347.36637 350.36637 356.36637 360.36238 363.36238 365.69996 374.36637 379.69197 385.01756 391.01756 395.01356 401.01356 404.34715 410.34715 416.34715 419.34715 422.68074 428.68074 431.68074 435.0143 441.0143 446.3399">et al. (2015), with one student describing it to be "like a mind attack" (p. 5). According to the </tspan></text>
<text fill="#0e101a" xml:space="preserve" transform="matrix(1 0 -0 1 72 467.2676)" font-size="12" font-family="TimesNewRomanPSMT"><tspan y="0" x="0 8.666401 13.992002 17.325604 20.659205 26.659205 32.659204 37.984804 41.3184 44.3184 52.322404 56.3184 59.652006 68.9856 74.3112 77.3112 85.3152 90.6408 95.9664 101.9664 105.9624 111.9624 116.632808 119.632808 127.6368 133.63681 137.63282 142.95842 148.28403 154.28403 157.28403 161.28003 169.94643 177.95043 185.95442 193.95842 197.95442 200.95442 204.95043 210.95043 216.95043 222.95043 228.95043 232.94643 235.94643 241.94643 245.94243 248.94243 252.93843 258.93843 264.93843 268.272 273.5976 276.5976 279.5976 282.93119 288.93119 294.25679 297.25679 302.58238 308.58238 314.58238 320.58238 323.91596 327.91197 333.91197 336.91197 345.57838 348.91197 352.24555 358.24555 363.57115 368.24156 372.91197 378.23756 384.23756 387.23756 393.23756 399.23756 405.23756 408.23756 414.23756 420.23756 426.23756 429.23756 433.90797 437.24156 443.24156 449.24156 454.56715 460.56715 463.90074">National Crime Records Bureau (NCRB) (2018) of India, the country witnessed 130,000 student </tspan></text>
<text fill="#0e101a" xml:space="preserve" transform="matrix(1 0 -0 1 72 496.7578)" font-size="12" font-family="TimesNewRomanPSMT"><tspan y="0" x="0 4.6704 10.670401 14.004001 19.329602 22.663203 28.663203 33.988805 38.659204 41.659204 44.9928 50.9928 53.9928 59.9928 65.9928 71.9928 77.9928 80.9928 83.7756 91.105197 97.105197 100.43879 105.10919 108.10919 117.44279 122.76839 128.094 134.094 138.76439 141.76439 144.76439 150.76439 156.76439 159.76439 165.09 171.09 176.4156 180.4116 185.73722 191.73722 197.06282 200.06282 203.06282 209.06282 214.38843 219.71404 223.71004 227.04364 233.04364 236.04364 239.37725 248.04364 253.36925 259.36927 262.70286 268.70286 272.69886 278.02445 281.35804 287.35804 293.35804 296.69163 299.69163 304.36204 307.69563 313.69563 319.69563 325.0212 331.0212 334.3548 339.0252 342.0252 347.3508 353.3508 362.6844 372.01799 375.35157 378.68516 382.01875 387.34434 393.34434 396.34434 401.01475 407.01475 410.34834 415.67393 419.0075 425.0075 430.3331 433.3331 438.6587 444.6587 449.98429 453.9803 459.9803">suicides in 2018. This means, on average, nearly twenty-eight students committed suicide every </tspan></text>
<text fill="#0e101a" xml:space="preserve" transform="matrix(1 0 -0 1 72 526.248)" font-size="12" font-family="TimesNewRomanPSMT"><tspan y="0" x="0 6 12 15 21 27 33 36.996 41.666399 44.666399 50.666399 56.666399 60.662397 63.996 69.996 75.996 78.996 84.996 90.996 96.996 102.996">24 hours during 2018.</tspan></text>
<g id="Layer-2" data-name="Span">
<text fill="#0e101a" xml:space="preserve" transform="matrix(1 0 -0 1 72 526.248)" font-size="12" font-family="TimesNewRomanPSMT"><tspan y="0" x="105.9961"> </tspan></text>
</g>
</g>
<g id="Layer-1" data-name="P">
<text fill="#0e101a" xml:space="preserve" transform="matrix(1 0 -0 1 108 555.7383)" font-size="12" font-family="TimesNewRomanPSMT"><tspan y="0" x="0 10.845601 14.179201 17.512803 23.512803 26.512803 29.846404 35.846406 41.172006 44.172006 50.172006 56.172006 60.842405 66.168 69.501598 72.501598 78.501598 82.4976 85.4976 88.83119 94.83119 100.15679 103.15679 111.16079 119.827198 128.49359 132.4896 141.15599 145.152 151.152 157.152 160.152 166.152 171.4776 177.4776 183.4776 188.8032 198.13681 201.47042 206.79602 209.79602 215.12163 221.12163 227.12163 230.12163 235.44724 238.44724 244.44724 249.77285 253.10645 256.44004 262.44004 268.44004 277.10646 280.44004 286.44004 291.76564 294.76564 298.0992 304.0992 309.4248 315.4248 321.4248 327.4248 336.09123 342.09123 345.09123 348.4248 353.7504 358.4208 361.7544 365.08799 371.08799 377.08799 380.08799 389.42158 395.42158 399.41758 404.74317 407.74317 411.07676 417.07676 422.40235 428.40235">With the onset of the COVID-19 pandemic and a nationwide lockdown lasting more than </tspan></text>
<text fill="#0e101a" xml:space="preserve" transform="matrix(1 0 -0 1 72 585.2285)" font-size="12" font-family="TimesNewRomanPSMT"><tspan y="0" x="0 3.3336006 12.000001 18 21 30.333601 36.333604 42.333604 45.667203 51.667203 56.3376 59.3376 62.3376 65.671199 71.671199 76.996799 79.996799 84.6672 90.6672 96.6672 100.00079 106.00079 112.00079 120.6672 126.6672 129.6672 135.6672 139.66321 142.66321 147.98882 151.32242 154.65602 157.65602 162.98163 168.98163 174.98163 180.30724 185.63285 188.96645 192.30005 198.30005 204.30005 209.62566 212.95926 215.95926 219.29286 225.29286 229.96326 233.29686 236.63047 239.96407 245.96407 249.29767 252.63127 258.6313 264.6313 269.3017 272.3017 278.3017 283.6273 288.2977 291.2977 294.6313 299.95689 303.95289 307.28648 310.28648 313.62007 319.62007 324.94566 327.94566 332.61607 335.94966 341.94966 347.94966 353.27525 359.27525 362.60884 365.60884 371.60884 377.60884 383.60884 389.60884 392.60884 398.60884 404.60884 409.93443 415.26 419.256 422.5896 427.9152 431.24879 437.24879 440.24879 446.24879 450.24479">two months, the shutdown of all educational institutions has left the student body uncertain of </tspan></text>
<text fill="#0e101a" xml:space="preserve" transform="matrix(1 0 -0 1 72 614.7188)" font-size="12" font-family="TimesNewRomanPSMT"><tspan y="0" x="0 3.996 9.996 13.3296 19.329602 23.325602 28.651204 31.651204 36.976804 42.976804 48.302404 54.302404 57.636007 62.306406 65.306407 68.0892 75.4188 81.4188 86.7444 89.7444 94.4148 97.7484 101.08199 107.08199 112.40759 115.74119 119.07478 125.07478 131.07479 134.07479 140.07479 145.40039 150.726 156.726 160.722 165.3924 168.3924 173.718 177.0516 180.0516 183.38521 189.38521 194.71082 197.71082 202.38121 207.70682 217.04042 222.36603 225.36603 228.69963 232.03324 241.36684 246.69245 249.69245 255.01805 259.68849 262.68849 268.68849 274.68849 278.02207 284.02207 289.34767 293.34367 298.01408 301.34767 304.68125 310.68125 313.68125 319.00685 325.00685 328.34043 332.33644 337.66203 343.66203 348.9876 354.3132 357.3132 360.6468 365.97239 370.6428 373.97639 378.6468 381.6468 386.97239 392.97239 398.97239 401.97239 405.96839 409.30198 415.30198 420.62757 423.96116 426.96116 431.63157 436.95716 442.95716 448.95716 454.95716 458.29075">future events. The situation occurs at the same time as university entrance tests and final school </tspan></text>
<text fill="#0e101a" xml:space="preserve" transform="matrix(1 0 -0 1 72 644.209)" font-size="12" font-family="TimesNewRomanPSMT"><tspan y="0" x="0 5.3256008 11.325601 16.651202 25.984803 29.318404 35.318407 40.644006 43.977605 47.311208 53.311208 59.311208 63.981607 66.981609 72.307209 75.6408 78.6408 81.974399 87.974399 93.299999 96.299999 101.625598 107.625598 113.625598 118.951198 122.28479 128.28479 132.95519 136.28879 142.28879 148.28879 151.28879 157.28879 161.28479 164.28479 167.6184 173.6184 178.944 181.944 187.2696 192.59522 197.92082 203.92082 209.24643 218.58003 221.91364 227.23925 230.23925 236.23925 241.56485 246.89046 250.22406 253.22406 256.00688 266.85249 270.18608 273.51966 279.51966 282.51966 285.85325 291.85325 295.18684 299.85725 302.85725 307.52766 312.85325 318.85325 323.52366 328.84925 331.84925 337.84925 341.84526 344.84526 350.84526 356.84526 362.17085 367.49644 371.49244 374.82603 380.1516 383.4852 389.4852 392.8188 398.03999 401.03999 404.03999 407.37358 413.37358 418.69917 421.69917 427.69917 433.69917 437.03276 443.03276 449.03276 454.35835">examinations at the conclusion of the academic year. With this sense of uncertainty, the unique </tspan></text>
<text fill="#0e101a" xml:space="preserve" transform="matrix(1 0 -0 1 72 673.6992)" font-size="12" font-family="TimesNewRomanPSMT"><tspan y="0" x="0 5.3256008 11.325601 17.3256 23.3256 26.6592 29.992802 33.326406 39.326406 45.326406 49.996805 52.996805 58.996805 62.9928 65.9928 69.32639 75.32639 80.65199 83.65199 91.65599 100.322399 108.9888 112.9848 121.65121 125.64721 131.64722 137.64722 140.64722 145.31761 148.65122 151.98482 157.98482 163.31043 166.64403 169.97763 175.97763 181.97763 184.97763 190.97763 196.30324 202.30324 207.62885 210.62885 213.96245 219.28806 223.28406 226.61766 229.61766 235.61766 241.61766 250.95127 256.27687 260.27287 266.27287 272.27287 276.94328 279.94328 285.94328 291.94328 297.26887 301.93928 305.27287 308.60646 314.60646 320.60646 325.27687 328.27687 334.27687 340.27687 345.60246 351.60246 356.27287 364.93928 370.26487 374.26087 379.58647 385.58647 388.58647 391.58647 396.91206 402.91206 408.91206 414.23765 419.56324 423.55924 429.55924 432.89283 438.89283 444.89283">conditions of the COVID-19 situation have left numerous questions unanswered, concerning </tspan></text>
<text fill="#0e101a" xml:space="preserve" transform="matrix(1 0 -0 1 72 703.18948)" font-size="12" font-family="TimesNewRomanPSMT"><tspan y="0" x="0 6 12 20.6664 23.6664 27.000002 33 38.3256 41.3256 44.6592 50.6592 55.9848 61.9848 67.9848 73.9848 82.65121 88.65121 91.65121 97.65121 102.97681 107.64721 110.64721 115.97281 119.75161 123.74761 129.07321 134.39882 137.73242 143.05803 149.05803 152.05803 157.38364 162.70925 168.03485 174.03485 179.36046 188.69406 192.02767 197.35327 200.35327 205.02367 208.35727 212.35327 217.67888 222.34928 227.01967 230.01967 235.34528 244.67888 250.67888 256.6789 262.6789 265.6789 270.3493 273.6829 279.6829 285.6829 291.00849 297.00849 300.34208 305.01249 308.01249 310.7953 318.12489 324.12489 327.45848 332.12889 335.12889 339.12489 344.45048 349.12089 354.44648 359.77207 363.76808 369.09367 375.09367 380.41926 384.41526 387.41526 393.41526 399.41526 405.41526 411.41526 414.74885 420.74885 426.07444 430.74485 434.07844 439.40403 444.7296 449.40003">how the lockdown has affected academic stress among students. This researcher hypothesizes </tspan></text>
</g>
</g>
</g>
</svg>
