<?xml version="1.0" encoding="UTF-8" standalone="no"?>
<!DOCTYPE svg PUBLIC "-//W3C//DTD SVG 1.1//EN" "http://www.w3.org/Graphics/SVG/1.1/DTD/svg11.dtd">
<svg xmlns="http://www.w3.org/2000/svg" xmlns:xlink="http://www.w3.org/1999/xlink" version="1.1" width="612pt" height="792pt" viewBox="0 0 612 792">
<g enable-background="new">
<clipPath id="cp139">
<path transform="matrix(1,0,0,-1,0,792)" d="M 0 0 L 612 0 L 612 792 L 0 792 Z "/>
</clipPath>
<g clip-path="url(#cp139)">
<path transform="matrix(1,0,0,-1,0,792)" d="M 0 792 L 612 792 L 612 0 L 0 0 Z " fill="#ffffff"/>
<g id="Layer-1" data-name="P">
</g>
<g id="Layer-1" data-name="P">
</g>
<clipPath id="cp140">
<path transform="matrix(1,0,0,-1,0,792)" d="M 68.67773 56.38794 L 543.3222 56.38794 L 543.3222 721.00009 L 68.67773 721.00009 Z "/>
</clipPath>
<g clip-path="url(#cp140)">
<text xml:space="preserve" transform="matrix(1 0 -0 1 72 341.282)" font-size="12" font-family="TimesNewRomanPS" font-weight="bold"><tspan y="0" x="0 6.9024007 12.902401 19.576802 22.910403 28.236004 31.236004">Table 6</tspan></text>
<g id="Layer-2" data-name="Span">
<text xml:space="preserve" transform="matrix(1 0 -0 1 72 341.282)" font-size="12" font-family="TimesNewRomanPS" font-weight="bold"><tspan y="0" x="37.23633"> </tspan></text>
</g>
</g>
<g id="Layer-1" data-name="P">
<text xml:space="preserve" transform="matrix(1 0 -0 1 72 370.7722)" font-size="12" font-family="TimesNewRomanPS" font-style="italic"><tspan y="0" x="0 6.674401 10.008 15.3336 20.6592 25.329602 28.663203 31.663203 37.6632 42.9888 48.9888 52.3224 57.648 60.430799 67.76039 73.76039 79.76039 83.09399 88.419589 93.08999 96.423587">Likert Scale Analysis</tspan></text>
<g id="Layer-2" data-name="Span">
<text xml:space="preserve" transform="matrix(1 0 -0 1 72 370.7722)" font-size="12" font-family="TimesNewRomanPSMT"><tspan y="0" x="101.0977"> </tspan></text>
</g>
</g>
<g id="Layer-1" data-name="P">
</g>
<g id="Layer-1" data-name="P">
<text xml:space="preserve" transform="matrix(1 0 -0 1 72 537.7527)" font-size="12" font-family="TimesNewRomanPS" font-style="italic"><tspan y="0" x="0 8.004001 14.004001 17.3376 22.663203 25.663203">Note. </tspan></text>
<text xml:space="preserve" transform="matrix(1 0 -0 1 72 537.7527)" font-size="12" font-family="TimesNewRomanPSMT"><tspan y="0" x="28.66406 35.99366 41.99366 47.31926 50.31926 56.31926 60.315259 66.31526 72.31526 75.64886 81.64886 84.98245 87.98245 95.31205 98.645648 104.645648 109.971248 113.96725 117.30084 120.30084 124.971248 130.29685 135.62245 138.95606 144.28166 147.28166 151.27767 156.60327 162.60327 166.59928 171.92488 176.59528 181.92089 187.92089 191.25449 196.5801 202.5801 205.5801 208.9137 214.9137 220.2393 223.2393 227.2353 233.2353 236.56891 239.90251 245.90251 254.56891 257.9025 263.9025 269.9025 272.9025 278.9025 284.2281 288.2241 291.55769 296.88328 302.88328 306.21687 311.54246 316.21287 319.54646 322.54646 327.44486 336.11128 341.43687 346.76246 350.75846 356.08406 361.40965 366.08006 371.40565 377.40565 380.40565 387.08006 390.41365 396.41365 402.41365 405.74723 409.74324 413.0768 418.4024 423.728 429.728 433.06159 436.39518 442.39518 447.29359 451.28959 457.28959 461.28559 464.28559">The 5-point Likert scale represented the following variables: "Decreased Significantly"(1), </tspan></text>
<text xml:space="preserve" transform="matrix(1 0 -0 1 72 567.2429)" font-size="12" font-family="TimesNewRomanPSMT"><tspan y="0" x="0 4.8984005 13.564801 18.890402 24.216004 28.212004 33.537607 38.863206 43.533605 48.859205 54.859205 57.859205 64.53361 67.8672 71.2008 77.2008 83.2008 86.53439 89.86799 95.86799 100.766399 104.7624 110.7624 114.7584 117.7584 120.7584 125.65681 134.3232 140.3232 143.3232 151.3272 157.3272 162.6528 168.6528 174.6528 179.97841 184.8768 188.8728 194.8728 198.8688 201.8688 204.8688 209.7672 213.7632 219.7632 225.0888 229.08481 234.41042 239.73603 244.40642 249.73203 255.73203 258.73204 265.40644 268.74003 272.0736 278.0736 284.0736 287.4072 290.74079 296.74079 301.6392 305.6352 311.6352 315.6312 318.6312 321.6312 326.9568 332.9568 338.9568 341.9568 346.8552 350.8512 356.8512 362.1768 366.1728 371.49839 376.82398 381.4944 386.81999 392.81999">"Decreased Slightly"(2), "No Change"(3), "Increased Slightly"(4), and "Increased </tspan></text>
<text xml:space="preserve" transform="matrix(1 0 -0 1 72 596.7332)" font-size="12" font-family="TimesNewRomanPSMT"><tspan y="0" x="0 6.674401 10.008 16.008 22.008 25.3416 29.3376 32.6712 37.9968 43.3224 49.3224 52.656003 55.989606 61.989606 66.88801 70.88401 76.88401 80.88001 83.88001 86.66281 93.99241 99.99241 105.31801 109.98841 115.31401 118.31401 124.31401 129.63962 132.97322 138.97322 144.29883 148.96923 151.96923 157.29483 161.29084 166.61644 169.61644 175.61644 181.61644 184.95005 187.95005 191.94605 197.27165 203.27165 207.26766 212.59326 217.26366 222.58927 228.58927 231.92287 237.24848 240.58208 243.91568 249.91568 255.24129 258.24128 264.24128 268.23728 271.23728 274.57087 280.57087 285.89646 288.89646 295.57087 298.90446 304.23005 310.23005 316.23005 321.55564 325.55165 331.55165 334.55165 343.21806 348.54365 354.54365 357.87724 363.20283 366.5364 369.87 375.87 381.87">Significantly"(5). These values are not representative of the Standard Deviation.</tspan></text>
<g id="Layer-2" data-name="Span">
<text xml:space="preserve" transform="matrix(1 0 -0 1 72 596.7332)" font-size="12" font-family="TimesNewRomanPS" font-style="italic"><tspan y="0" x="384.8848"> </tspan></text>
</g>
</g>
<g id="Layer-1" data-name="P">
<text fill="#0e101a" xml:space="preserve" transform="matrix(1 0 -0 1 72 655.7136)" font-size="12" font-family="TimesNewRomanPS" font-weight="bold" font-style="italic"><tspan y="0" x="0 8.666401 13.992002 19.317603 23.988003 29.988003 33.321607 36.65521 39.65521 46.32961 49.66321 54.33361 59.65921 64.32961">Overall Stress</tspan></text>
<g id="Layer-2" data-name="Span">
<text fill="#0e101a" xml:space="preserve" transform="matrix(1 0 -0 1 72 655.7136)" font-size="12" font-family="TimesNewRomanPSMT"><tspan y="0" x="69"> </tspan></text>
</g>
</g>
<g id="Layer-1" data-name="P">
<text fill="#0e101a" xml:space="preserve" transform="matrix(1 0 -0 1 108 685.2039)" font-size="12" font-family="TimesNewRomanPSMT"><tspan y="0" x="0 6 12 15 21 30.996 33.996004 37.992 43.992 49.992 53.988 56.988 62.988 66.984 69.984 73.3176 79.3176 84.643199 87.643199 91.6392 96.9648 101.6352 107.6352 113.6352 119.6352 125.6352 130.9608 136.9608 140.2944 144.9648 147.9648 153.2904 159.2904 165.2904 169.2864 174.61202 179.28241 183.9528 189.27841 195.27841 198.27841 201.61202 207.61202 212.93762 216.27123 219.27123 222.60483 228.60483 233.93044 236.93044 242.93044 248.93044 254.25605 258.25205 263.57765 266.91123 270.2448 273.2448 278.5704 283.896 289.2216 295.2216 300.54719 309.88078 313.21437 318.53996 321.53996 326.21037 329.54396 333.53996 338.86555 343.53596 348.20637 351.20637 354.53996 360.53996 365.86555 371.86555">37.3% (82) of the respondents expressed that the overall academic stress they </tspan></text>
<text fill="#0e101a" xml:space="preserve" transform="matrix(1 0 -0 1 72 714.6941)" font-size="12" font-family="TimesNewRomanPSMT"><tspan y="0" x="0 5.3256008 11.325601 17.3256 22.651202 26.647202 29.980803 35.306406 41.306406 46.632005 51.957605 57.957605 60.957605 66.9576 72.9576 76.953609 80.2872 86.2872 92.2872 95.2872 98.6208 104.6208 109.946399 112.946399 120.95039 129.61679 138.28319 142.27919 150.94559 154.94159 160.94159 166.94159 169.94159 173.27519 179.27519 184.6008 190.6008 196.6008 202.6008 211.2672 217.2672 220.2672 225.5928 229.37162 233.36762 238.69322 244.01883 247.35243 252.67804 258.67805 261.67805 265.01164 271.01164 276.33723 285.6708 288.6708 294.6708 299.9964 305.9964 311.322 314.65559 317.98918 323.98918 329.31477 332.64836 338.64836 341.64836 344.98194 350.98194 353.98194 357.31553 362.6411 366.63713 375.9707 380.6411 383.6411 389.6411 393.63713 396.63713 405.9707 411.2963 417.2963 420.62989 425.95549 429.28907 432.28907 438.28907 443.61466 448.94026 452.27384 455.60743 461.60743">experienced during the COVID-19 lockdown affected them negatively in terms of mental health </tspan></text>
</g>
<g id="Layer-1" data-name="P">
<g id="Layer-2" data-name="P">
</g>
<clipPath id="cp141">
<path transform="matrix(1,0,0,-1,0,792)" d="M 71 505.5 L 505 505.5 L 505 720.5 L 71 720.5 Z "/>
</clipPath>
<g clip-path="url(#cp141)">
<path transform="matrix(1,0,0,-1,0,792)" d="M 72 695.5 L 320.35 695.5 L 320.35 671.5 L 72 671.5 Z " fill="#ffffff"/>
<path transform="matrix(1,0,0,-1,0,792)" d="M 320.35 695.5 L 398.85 695.5 L 398.85 671.5 L 320.35 671.5 Z " fill="#ffffff"/>
<path transform="matrix(1,0,0,-1,0,792)" d="M 398.85 695.5 L 503 695.5 L 503 671.5 L 398.85 671.5 Z " fill="#ffffff"/>
<path transform="matrix(1,0,0,-1,0,792)" d="M 72 671.5 L 320.35 671.5 L 320.35 633.031 L 72 633.031 Z " fill="#ffffff"/>
<path transform="matrix(1,0,0,-1,0,792)" d="M 320.35 671.5 L 398.85 671.5 L 398.85 633.031 L 320.35 633.031 Z " fill="#ffffff"/>
<path transform="matrix(1,0,0,-1,0,792)" d="M 398.85 671.5 L 503 671.5 L 503 633.031 L 398.85 633.031 Z " fill="#ffffff"/>
<path transform="matrix(1,0,0,-1,0,792)" d="M 72 633.031 L 320.35 633.031 L 320.35 594.562 L 72 594.562 Z " fill="#ffffff"/>
<path transform="matrix(1,0,0,-1,0,792)" d="M 320.35 633.031 L 398.85 633.031 L 398.85 594.562 L 320.35 594.562 Z " fill="#ffffff"/>
<path transform="matrix(1,0,0,-1,0,792)" d="M 398.85 633.031 L 503 633.031 L 503 594.562 L 398.85 594.562 Z " fill="#ffffff"/>
<path transform="matrix(1,0,0,-1,0,792)" d="M 72 594.562 L 320.35 594.562 L 320.35 570.562 L 72 570.562 Z " fill="#ffffff"/>
<path transform="matrix(1,0,0,-1,0,792)" d="M 320.35 594.562 L 398.85 594.562 L 398.85 570.562 L 320.35 570.562 Z " fill="#ffffff"/>
<path transform="matrix(1,0,0,-1,0,792)" d="M 398.85 594.562 L 503 594.562 L 503 570.562 L 398.85 570.562 Z " fill="#ffffff"/>
<path transform="matrix(1,0,0,-1,0,792)" d="M 72 570.562 L 320.35 570.562 L 320.35 532.093 L 72 532.093 Z " fill="#ffffff"/>
<path transform="matrix(1,0,0,-1,0,792)" d="M 320.35 570.562 L 398.85 570.562 L 398.85 532.093 L 320.35 532.093 Z " fill="#ffffff"/>
<path transform="matrix(1,0,0,-1,0,792)" d="M 398.85 570.562 L 503 570.562 L 503 532.093 L 398.85 532.093 Z " fill="#ffffff"/>
<path transform="matrix(1,0,0,-1,0,792)" d="M 72 532.093 L 320.35 532.093 L 320.35 508.093 L 72 508.093 Z " fill="#ffffff"/>
<path transform="matrix(1,0,0,-1,0,792)" d="M 320.35 532.093 L 398.85 532.093 L 398.85 508.093 L 320.35 508.093 Z " fill="#ffffff"/>
<path transform="matrix(1,0,0,-1,0,792)" d="M 398.85 532.093 L 503 532.093 L 503 508.093 L 398.85 508.093 Z " fill="#ffffff"/>
<g id="Layer-3" data-name="P">
<g id="Layer-4" data-name="P">
<g id="Layer-5" data-name="P">
<g id="Layer-6" data-name="P">
</g>
<clipPath id="cp142">
<path transform="matrix(1,0,0,-1,0,792)" d="M 72 671.5 L 320.35 671.5 L 320.35 695.5 L 72 695.5 Z "/>
</clipPath>
<g clip-path="url(#cp142)">
<text fill="#010204" xml:space="preserve" transform="matrix(1 0 -0 1 79 113.265079)" font-size="12.5" font-family="TimesNewRomanPSMT"><tspan y="0" x="0 9.0275 15.2775 18.4025 23.2675 26.74 30.9025 36.45 41.315 46.179998 49.304998 53.467496 57.629995 63.879995 73.60249 76.72749 81.5925 87.14 93.39 99.64 105.89">No stress from school</tspan></text>
</g>
</g>
<g id="Layer-5" data-name="P">
<g id="Layer-6" data-name="P">
</g>
<clipPath id="cp143">
<path transform="matrix(1,0,0,-1,0,792)" d="M 320.35 671.5 L 398.85 671.5 L 398.85 695.5 L 320.35 695.5 Z "/>
</clipPath>
<g clip-path="url(#cp143)">
<text fill="#010204" xml:space="preserve" transform="matrix(1 0 -0 1 354.55 113.265079)" font-size="12.5" font-family="TimesNewRomanPSMT"><tspan y="0" x="0 6.25">63</tspan></text>
</g>
</g>
<g id="Layer-5" data-name="P">
<g id="Layer-6" data-name="P">
</g>
<clipPath id="cp144">
<path transform="matrix(1,0,0,-1,0,792)" d="M 398.85 671.5 L 503 671.5 L 503 695.5 L 398.85 695.5 Z "/>
</clipPath>
<g clip-path="url(#cp144)">
<text fill="#010204" xml:space="preserve" transform="matrix(1 0 -0 1 435.9812 113.265079)" font-size="12.5" font-family="TimesNewRomanPSMT"><tspan y="0" x="0 6.25 12.5 15.625 21.875">28.6%</tspan></text>
</g>
</g>
</g>
<g id="Layer-4" data-name="P">
<g id="Layer-5" data-name="P">
<g id="Layer-6" data-name="P">
</g>
<clipPath id="cp145">
<path transform="matrix(1,0,0,-1,0,792)" d="M 72 633.031 L 320.35 633.031 L 320.35 671.5 L 72 671.5 Z "/>
</clipPath>
<g clip-path="url(#cp145)">
<text fill="#010204" xml:space="preserve" transform="matrix(1 0 -0 1 79 136.26508)" font-size="12.5" font-family="TimesNewRomanPSMT"><tspan y="0" x="0 7.6349999 13.182501 18.730002 24.980002 28.105002 34.355005 38.5175 41.6425 47.8925 54.1425 57.615 63.865 69.4125 75.6625 81.21 86.7575 89.8825 93.354999 99.604999 102.729999 106.20249 115.92499 122.17499 126.33749 132.5875 138.8375 144.385 147.51 153.0575 159.3075 164.855 174.5775">Lack of guidance to improve exam </tspan></text>
<text fill="#010204" xml:space="preserve" transform="matrix(1 0 -0 1 79 152.26508)" font-size="12.5" font-family="TimesNewRomanPSMT"><tspan y="0" x="0 6.25 11.797502 15.960001 20.122502 26.372502 30.535002 40.257505 45.805006 52.055006 57.602506">performance</tspan></text>
</g>
</g>
<g id="Layer-5" data-name="P">
<g id="Layer-6" data-name="P">
</g>
<clipPath id="cp146">
<path transform="matrix(1,0,0,-1,0,792)" d="M 320.35 633.031 L 398.85 633.031 L 398.85 671.5 L 320.35 671.5 Z "/>
</clipPath>
<g clip-path="url(#cp146)">
<text fill="#010204" xml:space="preserve" transform="matrix(1 0 -0 1 354.55 144.26508)" font-size="12.5" font-family="TimesNewRomanPSMT"><tspan y="0" x="0 6.25">50</tspan></text>
</g>
</g>
<g id="Layer-5" data-name="P">
<g id="Layer-6" data-name="P">
</g>
<clipPath id="cp147">
<path transform="matrix(1,0,0,-1,0,792)" d="M 398.85 633.031 L 503 633.031 L 503 671.5 L 398.85 671.5 Z "/>
</clipPath>
<g clip-path="url(#cp147)">
<text fill="#010204" xml:space="preserve" transform="matrix(1 0 -0 1 435.9812 144.26508)" font-size="12.5" font-family="TimesNewRomanPSMT"><tspan y="0" x="0 6.25 12.5 15.625 21.875">22.7%</tspan></text>
</g>
</g>
</g>
<g id="Layer-4" data-name="P">
<g id="Layer-5" data-name="P">
<g id="Layer-6" data-name="P">
</g>
<clipPath id="cp148">
<path transform="matrix(1,0,0,-1,0,792)" d="M 72 594.562 L 320.35 594.562 L 320.35 633.031 L 72 633.031 Z "/>
</clipPath>
<g clip-path="url(#cp148)">
<text fill="#010204" xml:space="preserve" transform="matrix(1 0 -0 1 79 174.73407)" font-size="12.5" font-family="TimesNewRomanPSMT"><tspan y="0" x="0 7.6349999 13.885 19.4325 24.980002 29.845004 34.710004 38.182508 44.432508 49.980009 53.105009 58.652509 64.90251 69.06501 75.31501 78.787509 88.51 94.0575 100.3075 103.78 106.905 110.377498 116.627498 119.752498 125.299999 131.54999 135.02249 139.185 144.7325 148.895 154.4425 160.6925 164.85501 169.01752 172.49002 178.03752 184.28752 187.76003 193.30753 197.47003">Excessive enrolment in extra-curricular </tspan></text>
<text fill="#010204" xml:space="preserve" transform="matrix(1 0 -0 1 79 190.73407)" font-size="12.5" font-family="TimesNewRomanPSMT"><tspan y="0" x="0 5.5475008 11.095002 14.567503 18.040003 24.290003 27.762503 31.235003 34.707506 40.255006">activities</tspan></text>
</g>
</g>
<g id="Layer-5" data-name="P">
<g id="Layer-6" data-name="P">
</g>
<clipPath id="cp149">
<path transform="matrix(1,0,0,-1,0,792)" d="M 320.35 594.562 L 398.85 594.562 L 398.85 633.031 L 320.35 633.031 Z "/>
</clipPath>
<g clip-path="url(#cp149)">
<text fill="#010204" xml:space="preserve" transform="matrix(1 0 -0 1 354.55 182.73407)" font-size="12.5" font-family="TimesNewRomanPSMT"><tspan y="0" x="0 6.25">16</tspan></text>
</g>
</g>
<g id="Layer-5" data-name="P">
<g id="Layer-6" data-name="P">
</g>
<clipPath id="cp150">
<path transform="matrix(1,0,0,-1,0,792)" d="M 398.85 594.562 L 503 594.562 L 503 633.031 L 398.85 633.031 Z "/>
</clipPath>
<g clip-path="url(#cp150)">
<text fill="#010204" xml:space="preserve" transform="matrix(1 0 -0 1 439.1062 182.73407)" font-size="12.5" font-family="TimesNewRomanPSMT"><tspan y="0" x="0 6.25 9.375 15.625">7.3%</tspan></text>
</g>
</g>
</g>
<g id="Layer-4" data-name="P">
<g id="Layer-5" data-name="P">
<g id="Layer-6" data-name="P">
</g>
<clipPath id="cp151">
<path transform="matrix(1,0,0,-1,0,792)" d="M 72 570.562 L 320.35 570.562 L 320.35 594.562 L 72 594.562 Z "/>
</clipPath>
<g clip-path="url(#cp151)">
<text fill="#010204" xml:space="preserve" transform="matrix(1 0 -0 1 79 214.20313)" font-size="12.5" font-family="TimesNewRomanPSMT"><tspan y="0" x="0 9.0275 12.500001 17.365002 22.912503 29.162503 35.412504 39.575 45.825 52.075 57.6225 61.095006 64.22 70.47 74.6325 77.7575 81.92 88.17 97.892498 103.439998 109.689998 113.16249 116.63499 122.18249 125.30749 129.46999 135.01749 138.48999 144.03749 147.51 150.9825 157.2325 163.4825 168.3475 174.5975 178.07 184.32">Disapproval of romantic relationships</tspan></text>
</g>
</g>
<g id="Layer-5" data-name="P">
<g id="Layer-6" data-name="P">
</g>
<clipPath id="cp152">
<path transform="matrix(1,0,0,-1,0,792)" d="M 320.35 570.562 L 398.85 570.562 L 398.85 594.562 L 320.35 594.562 Z "/>
</clipPath>
<g clip-path="url(#cp152)">
<text fill="#010204" xml:space="preserve" transform="matrix(1 0 -0 1 354.7819 214.20313)" font-size="12.5" font-family="TimesNewRomanPSMT"><tspan y="0" x="0 5.78625">11</tspan></text>
</g>
</g>
<g id="Layer-5" data-name="P">
<g id="Layer-6" data-name="P">
</g>
<clipPath id="cp153">
<path transform="matrix(1,0,0,-1,0,792)" d="M 398.85 570.562 L 503 570.562 L 503 594.562 L 398.85 594.562 Z "/>
</clipPath>
<g clip-path="url(#cp153)">
<text fill="#010204" xml:space="preserve" transform="matrix(1 0 -0 1 443.7937 214.20313)" font-size="12.5" font-family="TimesNewRomanPSMT"><tspan y="0" x="0 6.25">5%</tspan></text>
</g>
</g>
</g>
<g id="Layer-4" data-name="P">
<g id="Layer-5" data-name="P">
<g id="Layer-6" data-name="P">
</g>
<clipPath id="cp154">
<path transform="matrix(1,0,0,-1,0,792)" d="M 72 532.093 L 320.35 532.093 L 320.35 570.562 L 72 570.562 Z "/>
</clipPath>
<g clip-path="url(#cp154)">
<text fill="#010204" xml:space="preserve" transform="matrix(1 0 -0 1 79 237.20313)" font-size="12.5" font-family="TimesNewRomanPSMT"><tspan y="0" x="0 6.952501 13.202501 19.452502 22.925002 27.790003 34.04 43.7625 49.31 55.56 59.032506 62.157506 66.32001 72.57001 76.732509 79.857509 86.107509 92.357509 98.607509 102.770008 105.895008 111.442508 117.692508 123.240009 132.96251 136.08751 142.33751 147.88501 152.04752 156.21002 162.46002 166.62253 176.34503 181.89253 188.14253 193.69004 199.23754 202.36254 208.61254 214.86254">Punishment for poor exam performance by </tspan></text>
<text fill="#010204" xml:space="preserve" transform="matrix(1 0 -0 1 79 253.20313)" font-size="12.5" font-family="TimesNewRomanPSMT"><tspan y="0" x="0 3.4725004 9.020001 14.567502 20.115002 26.365002 31.912503 36.075">teachers</tspan></text>
</g>
</g>
<g id="Layer-5" data-name="P">
<g id="Layer-6" data-name="P">
</g>
<clipPath id="cp155">
<path transform="matrix(1,0,0,-1,0,792)" d="M 320.35 532.093 L 398.85 532.093 L 398.85 570.562 L 320.35 570.562 Z "/>
</clipPath>
<g clip-path="url(#cp155)">
<text fill="#010204" xml:space="preserve" transform="matrix(1 0 -0 1 357.675 245.20313)" font-size="12.5" font-family="TimesNewRomanPSMT"><tspan y="0" x="0">7</tspan></text>
</g>
</g>
<g id="Layer-5" data-name="P">
<g id="Layer-6" data-name="P">
</g>
<clipPath id="cp156">
<path transform="matrix(1,0,0,-1,0,792)" d="M 398.85 532.093 L 503 532.093 L 503 570.562 L 398.85 570.562 Z "/>
</clipPath>
<g clip-path="url(#cp156)">
<text fill="#010204" xml:space="preserve" transform="matrix(1 0 -0 1 439.1062 245.20313)" font-size="12.5" font-family="TimesNewRomanPSMT"><tspan y="0" x="0 6.25 9.375 15.625">3.2%</tspan></text>
</g>
</g>
</g>
<g id="Layer-4" data-name="P">
<g id="Layer-5" data-name="P">
<g id="Layer-6" data-name="P">
</g>
<clipPath id="cp157">
<path transform="matrix(1,0,0,-1,0,792)" d="M 72 508.593 L 320.35 508.593 L 320.35 532.093 L 72 532.093 Z "/>
</clipPath>
<g clip-path="url(#cp157)">
<text fill="#010204" xml:space="preserve" transform="matrix(1 0 -0 1 79 276.67213)" font-size="12.5" font-family="TimesNewRomanPSMT"><tspan y="0" x="0 7.6349999 13.182501 18.730002 24.980002 28.105002 34.355005 38.5175 41.6425 46.5075 52.7575 59.0075 65.2575 71.5075 75.67 79.142498 82.267498 85.73999 91.98999 95.11499 101.36499 106.91249 112.45999 115.93249 119.05749 128.08499 131.5575 135.03 141.28 144.405 150.655 156.905 160.3775 163.85 170.1 173.57251 179.82251">Lack of support to deal with bullying</tspan></text>
</g>
</g>
<g id="Layer-5" data-name="P">
<g id="Layer-6" data-name="P">
</g>
<clipPath id="cp158">
<path transform="matrix(1,0,0,-1,0,792)" d="M 320.35 508.593 L 398.85 508.593 L 398.85 532.093 L 320.35 532.093 Z "/>
</clipPath>
<g clip-path="url(#cp158)">
<text fill="#010204" xml:space="preserve" transform="matrix(1 0 -0 1 357.675 276.67213)" font-size="12.5" font-family="TimesNewRomanPSMT"><tspan y="0" x="0">7</tspan></text>
</g>
</g>
<g id="Layer-5" data-name="P">
<g id="Layer-6" data-name="P">
</g>
<clipPath id="cp159">
<path transform="matrix(1,0,0,-1,0,792)" d="M 398.85 508.593 L 503 508.593 L 503 532.093 L 398.85 532.093 Z "/>
</clipPath>
<g clip-path="url(#cp159)">
<text fill="#010204" xml:space="preserve" transform="matrix(1 0 -0 1 439.1062 276.67213)" font-size="12.5" font-family="TimesNewRomanPSMT"><tspan y="0" x="0 6.25 9.375 15.625">3.2%</tspan></text>
</g>
</g>
</g>
</g>
<clipPath id="cp160">
<path transform="matrix(1,0,0,-1,0,792)" d="M 71 505.5 L 505 505.5 L 505 720.5 L 71 720.5 Z "/>
</clipPath>
<g clip-path="url(#cp160)">
<path transform="matrix(1,0,0,1,71,71.5)" stroke-width="1" stroke-linecap="butt" stroke-miterlimit="4" stroke-linejoin="miter" fill="none" stroke="#000000" d="M 1 212.407 L 432 212.407 "/>
</g>
</g>
<g id="Layer-2" data-name="P">
<path transform="matrix(1,0,0,-1,0,792)" d="M 72 719.5 L 320.35 719.5 L 320.35 695.5 L 72 695.5 Z " fill="#ffffff"/>
<path transform="matrix(1,0,0,-1,0,792)" d="M 320.35 719.5 L 398.85 719.5 L 398.85 695.5 L 320.35 695.5 Z " fill="#ffffff"/>
<path transform="matrix(1,0,0,-1,0,792)" d="M 398.85 719.5 L 503 719.5 L 503 695.5 L 398.85 695.5 Z " fill="#ffffff"/>
<g id="Layer-3" data-name="P">
<g id="Layer-4" data-name="P">
<g id="Layer-5" data-name="P">
<g id="Layer-6" data-name="P">
</g>
<clipPath id="cp161">
<path transform="matrix(1,0,0,-1,0,792)" d="M 72 696 L 320.35 696 L 320.35 719 L 72 719 Z "/>
</clipPath>
<g clip-path="url(#cp161)">
<text fill="#010204" xml:space="preserve" transform="matrix(1 0 -0 1 177.2365 88.765079)" font-size="12.5" font-family="TimesNewRomanPSMT"><tspan y="0" x="0 6.952501 10.425002 14.587502 20.135003 25.000002 29.865004 36.115007">Stressor</tspan></text>
</g>
</g>
<g id="Layer-5" data-name="P">
<g id="Layer-6" data-name="P">
</g>
<clipPath id="cp162">
<path transform="matrix(1,0,0,-1,0,792)" d="M 320.35 696 L 398.85 696 L 398.85 719 L 320.35 719 Z "/>
</clipPath>
<g clip-path="url(#cp162)">
<text fill="#010204" xml:space="preserve" transform="matrix(1 0 -0 1 334.4206 88.765079)" font-size="12.5" font-family="TimesNewRomanPSMT"><tspan y="0" x="0 6.952501 11.115001 16.6625 22.9125 29.1625 34.710004 40.960004 46.507505">Frequency</tspan></text>
</g>
</g>
<g id="Layer-5" data-name="P">
<g id="Layer-6" data-name="P">
</g>
<clipPath id="cp163">
<path transform="matrix(1,0,0,-1,0,792)" d="M 398.85 696 L 503 696 L 503 719 L 398.85 719 Z "/>
</clipPath>
<g clip-path="url(#cp163)">
<text fill="#010204" xml:space="preserve" transform="matrix(1 0 -0 1 433.3842 88.765079)" font-size="12.5" font-family="TimesNewRomanPSMT"><tspan y="0" x="0 6.952501 12.500002 16.662503 22.210003 27.757504 34.007505">Percent</tspan></text>
</g>
</g>
</g>
</g>
<clipPath id="cp164">
<path transform="matrix(1,0,0,-1,0,792)" d="M 71 505.5 L 505 505.5 L 505 720.5 L 71 720.5 Z "/>
</clipPath>
<g clip-path="url(#cp164)">
<path transform="matrix(1,0,0,1,71,71.5)" stroke-width="1" stroke-linecap="butt" stroke-miterlimit="4" stroke-linejoin="miter" fill="none" stroke="#000000" d="M 1 25 L 432 25 "/>
<path transform="matrix(1,0,0,1,71,71.5)" stroke-width="1" stroke-linecap="butt" stroke-miterlimit="4" stroke-linejoin="miter" fill="none" stroke="#000000" d="M 1 1 L 432 1 "/>
</g>
</g>
</g>
<g id="Layer-1" data-name="P">
</g>
<clipPath id="cp165">
<path transform="matrix(1,0,0,-1,0,792)" d="M 71 280.1321 L 504 280.1321 L 504 404.1321 L 71 404.1321 Z "/>
</clipPath>
<g clip-path="url(#cp165)">
<path transform="matrix(1,0,0,-1,0,792)" d="M 72 402.1321 L 375.65 402.1321 L 375.65 378.1321 L 72 378.1321 Z " fill="#ffffff"/>
<path transform="matrix(1,0,0,-1,0,792)" d="M 375.65 402.1321 L 503 402.1321 L 503 378.1321 L 375.65 378.1321 Z " fill="#ffffff"/>
<path transform="matrix(1,0,0,-1,0,792)" d="M 72 378.1321 L 375.65 378.1321 L 375.65 354.1321 L 72 354.1321 Z " fill="#ffffff"/>
<path transform="matrix(1,0,0,-1,0,792)" d="M 375.65 378.1321 L 503 378.1321 L 503 354.1321 L 375.65 354.1321 Z " fill="#ffffff"/>
<path transform="matrix(1,0,0,-1,0,792)" d="M 72 354.1321 L 375.65 354.1321 L 375.65 330.1321 L 72 330.1321 Z " fill="#ffffff"/>
<path transform="matrix(1,0,0,-1,0,792)" d="M 375.65 354.1321 L 503 354.1321 L 503 330.1321 L 375.65 330.1321 Z " fill="#ffffff"/>
<path transform="matrix(1,0,0,-1,0,792)" d="M 72 330.1321 L 375.65 330.1321 L 375.65 306.1321 L 72 306.1321 Z " fill="#ffffff"/>
<path transform="matrix(1,0,0,-1,0,792)" d="M 375.65 330.1321 L 503 330.1321 L 503 306.1321 L 375.65 306.1321 Z " fill="#ffffff"/>
<path transform="matrix(1,0,0,-1,0,792)" d="M 72 306.1321 L 375.65 306.1321 L 375.65 282.1321 L 72 282.1321 Z " fill="#ffffff"/>
<path transform="matrix(1,0,0,-1,0,792)" d="M 375.65 306.1321 L 503 306.1321 L 503 282.1321 L 375.65 282.1321 Z " fill="#ffffff"/>
<g id="Layer-2" data-name="P">
<g id="Layer-3" data-name="P">
<g id="Layer-4" data-name="P">
<g id="Layer-5" data-name="P">
</g>
<clipPath id="cp166">
<path transform="matrix(1,0,0,-1,0,792)" d="M 72 378.6321 L 375.65 378.6321 L 375.65 401.6321 L 72 401.6321 Z "/>
</clipPath>
<g clip-path="url(#cp166)">
<text fill="#010204" xml:space="preserve" transform="matrix(1 0 -0 1 203.5071 406.1331)" font-size="12.5" font-family="TimesNewRomanPSMT"><tspan y="0" x="0 11.115001 16.6625 22.210001 27.075003 33.325006 37.487504">Measure</tspan></text>
</g>
</g>
<g id="Layer-4" data-name="P">
<g id="Layer-5" data-name="P">
</g>
<clipPath id="cp167">
<path transform="matrix(1,0,0,-1,0,792)" d="M 375.65 378.6321 L 503 378.6321 L 503 401.6321 L 375.65 401.6321 Z "/>
</clipPath>
<g clip-path="url(#cp167)">
<text fill="#010204" xml:space="preserve" transform="matrix(1 0 -0 1 426.2946 406.1331)" font-size="12.5" font-family="TimesNewRomanPSMT"><tspan y="0" x="0 7.6412508 13.188752 16.661253 22.911253">Value</tspan></text>
</g>
</g>
</g>
</g>
<g id="Layer-2" data-name="P">
<g id="Layer-3" data-name="P">
<g id="Layer-4" data-name="P">
<g id="Layer-5" data-name="P">
</g>
<clipPath id="cp168">
<path transform="matrix(1,0,0,-1,0,792)" d="M 72 354.1321 L 375.65 354.1321 L 375.65 377.6321 L 72 377.6321 Z "/>
</clipPath>
<g clip-path="url(#cp168)">
<text fill="#010204" xml:space="preserve" transform="matrix(1 0 -0 1 79 431.1331)" font-size="12.5" font-family="TimesNewRomanPSMT"><tspan y="0" x="0 11.115001 16.667502 22.220002">Mean</tspan></text>
</g>
</g>
<g id="Layer-4" data-name="P">
<g id="Layer-5" data-name="P">
</g>
<clipPath id="cp169">
<path transform="matrix(1,0,0,-1,0,792)" d="M 375.65 354.1321 L 503 354.1321 L 503 377.6321 L 375.65 377.6321 Z "/>
</clipPath>
<g clip-path="url(#cp169)">
<text fill="#010204" xml:space="preserve" transform="matrix(1 0 -0 1 432.7125 431.1331)" font-size="12.5" font-family="TimesNewRomanPSMT"><tspan y="0" x="0 6.25 9.375">3.5</tspan></text>
</g>
</g>
</g>
<g id="Layer-3" data-name="P">
<g id="Layer-4" data-name="P">
<g id="Layer-5" data-name="P">
</g>
<clipPath id="cp170">
<path transform="matrix(1,0,0,-1,0,792)" d="M 72 330.1321 L 375.65 330.1321 L 375.65 354.1321 L 72 354.1321 Z "/>
</clipPath>
<g clip-path="url(#cp170)">
<text fill="#010204" xml:space="preserve" transform="matrix(1 0 -0 1 79 454.6331)" font-size="12.5" font-family="TimesNewRomanPSMT"><tspan y="0" x="0 11.115001 17.365002 23.615002">Mode</tspan></text>
</g>
</g>
<g id="Layer-4" data-name="P">
<g id="Layer-5" data-name="P">
</g>
<clipPath id="cp171">
<path transform="matrix(1,0,0,-1,0,792)" d="M 375.65 330.1321 L 503 330.1321 L 503 354.1321 L 375.65 354.1321 Z "/>
</clipPath>
<g clip-path="url(#cp171)">
<text fill="#010204" xml:space="preserve" transform="matrix(1 0 -0 1 437.4 454.6331)" font-size="12.5" font-family="TimesNewRomanPSMT"><tspan y="0" x="0">4</tspan></text>
</g>
</g>
</g>
<g id="Layer-3" data-name="P">
<g id="Layer-4" data-name="P">
<g id="Layer-5" data-name="P">
</g>
<clipPath id="cp172">
<path transform="matrix(1,0,0,-1,0,792)" d="M 72 306.1321 L 375.65 306.1321 L 375.65 330.1321 L 72 330.1321 Z "/>
</clipPath>
<g clip-path="url(#cp172)">
<text fill="#010204" xml:space="preserve" transform="matrix(1 0 -0 1 79 478.6331)" font-size="12.5" font-family="TimesNewRomanPSMT"><tspan y="0" x="0 11.115001 16.6625 22.9125 26.385 31.9325">Median</tspan></text>
</g>
</g>
<g id="Layer-4" data-name="P">
<g id="Layer-5" data-name="P">
</g>
<clipPath id="cp173">
<path transform="matrix(1,0,0,-1,0,792)" d="M 375.65 306.1321 L 503 306.1321 L 503 330.1321 L 375.65 330.1321 Z "/>
</clipPath>
<g clip-path="url(#cp173)">
<text fill="#010204" xml:space="preserve" transform="matrix(1 0 -0 1 437.4 478.6331)" font-size="12.5" font-family="TimesNewRomanPSMT"><tspan y="0" x="0">4</tspan></text>
</g>
</g>
</g>
<g id="Layer-3" data-name="P">
<g id="Layer-4" data-name="P">
<g id="Layer-5" data-name="P">
</g>
<clipPath id="cp174">
<path transform="matrix(1,0,0,-1,0,792)" d="M 72 282.6321 L 375.65 282.6321 L 375.65 306.1321 L 72 306.1321 Z "/>
</clipPath>
<g clip-path="url(#cp174)">
<text fill="#010204" xml:space="preserve" transform="matrix(1 0 -0 1 79 502.6331)" font-size="12.5" font-family="TimesNewRomanPSMT"><tspan y="0" x="0 6.952501 10.425002 15.972503 22.222504 28.472504 34.020006 38.182504 44.432504 47.557504 56.585004 62.132505 68.38251 71.855 77.402507 80.875 84.347499 90.597499">Standard Deviation</tspan></text>
</g>
</g>
<g id="Layer-4" data-name="P">
<g id="Layer-5" data-name="P">
</g>
<clipPath id="cp175">
<path transform="matrix(1,0,0,-1,0,792)" d="M 375.65 282.6321 L 503 282.6321 L 503 306.1321 L 375.65 306.1321 Z "/>
</clipPath>
<g clip-path="url(#cp175)">
<text fill="#010204" xml:space="preserve" transform="matrix(1 0 -0 1 437.4 502.6331)" font-size="12.5" font-family="TimesNewRomanPSMT"><tspan y="0" x="0">1</tspan></text>
</g>
</g>
</g>
</g>
<clipPath id="cp176">
<path transform="matrix(1,0,0,-1,0,792)" d="M 71 280.1321 L 504 280.1321 L 504 404.1321 L 71 404.1321 Z "/>
</clipPath>
<g clip-path="url(#cp176)">
<path transform="matrix(1,0,0,1,71,387.8679)" stroke-width="1" stroke-linecap="butt" stroke-miterlimit="4" stroke-linejoin="miter" fill="none" stroke="#000000" d="M 1 26 L 432 26 "/>
<path transform="matrix(1,0,0,1,71,387.8679)" stroke-width="1" stroke-linecap="butt" stroke-miterlimit="4" stroke-linejoin="miter" fill="none" stroke="#000000" d="M 1 2 L 432 2 "/>
<path transform="matrix(1,0,0,1,71,387.8679)" stroke-width="1" stroke-linecap="butt" stroke-miterlimit="4" stroke-linejoin="miter" fill="none" stroke="#000000" d="M 1 122 L 432 122 "/>
</g>
</g>
</g>
</g>
</svg>
