<?xml version="1.0" encoding="UTF-8" standalone="no"?>
<!DOCTYPE svg PUBLIC "-//W3C//DTD SVG 1.1//EN" "http://www.w3.org/Graphics/SVG/1.1/DTD/svg11.dtd">
<svg xmlns="http://www.w3.org/2000/svg" xmlns:xlink="http://www.w3.org/1999/xlink" version="1.1" width="612pt" height="792pt" viewBox="0 0 612 792">
<g enable-background="new">
<clipPath id="cp126">
<path transform="matrix(1,0,0,-1,0,792)" d="M 0 0 L 612 0 L 612 792 L 0 792 Z "/>
</clipPath>
<g clip-path="url(#cp126)">
<path transform="matrix(1,0,0,-1,0,792)" d="M 0 792 L 612 792 L 612 0 L 0 0 Z " fill="#ffffff"/>
<g id="Layer-1" data-name="P">
</g>
<clipPath id="cp127">
<path transform="matrix(1,0,0,-1,0,792)" d="M 68.67773 69.69531 L 543.3222 69.69531 L 543.3222 723.3223 L 68.67773 723.3223 Z "/>
</clipPath>
<g clip-path="url(#cp127)">
<text fill="#0e101a" xml:space="preserve" transform="matrix(1 0 -0 1 72 83.89447)" font-size="12" font-family="TimesNewRomanPSMT"><tspan y="0" x="0 5.3256008 11.325601 16.651202 21.976803 26.647202 31.3176 34.651205 40.651205 45.976804 48.976804 54.302404 60.302404 64.2984 70.2984 73.631999 82.96559 88.29119 94.29119 97.62479 100.62479 103.95838 109.95838 112.95838 118.28398 124.28398 127.61758 131.61357 136.93918 140.93518 146.26079 152.26079 156.25679 160.25279 163.5864 168.912 174.912 178.2456 183.57122 187.56722 190.56722 195.89282 201.21843 204.55204 207.88564 213.88564 217.21924 220.55284 223.88645 229.21205 233.88245 236.88245 242.20806 246.87845 249.87845 255.20406 258.20405 262.87446 268.87446 274.87446 278.87046 284.19606 289.52165 292.52165 298.52165 302.51765 305.51765 310.18806 313.52165 317.51765 322.84324 327.51365 332.18406 335.18406 338.18406 341.51765 347.51765 351.51365 356.83924 362.16484 365.16484 369.83525 373.16883 379.16883 385.16883 390.49443 396.49443 399.828 404.4984 407.4984 412.824 416.1576 420.828 426.828">excessive enrolment in extra-curricular activities as a source of stress, three students also </tspan></text>
<text fill="#0e101a" xml:space="preserve" transform="matrix(1 0 -0 1 72 113.38483)" font-size="12" font-family="TimesNewRomanPSMT"><tspan y="0" x="0 9.3336 14.6592 20.659199 23.9928 27.3264 33.3264 39.3264 44.652 50.652 53.652 58.3224 61.656003 65.652 70.9776 75.648 80.318408 83.318408 89.318408 95.318408 100.644008 103.644008 106.9776 112.9776 115.9776 121.3032 124.3032 127.636798 132.9624 138.28801 144.28801 147.28801 153.28801 157.28401 160.28401 166.28401 171.60962 175.60562 178.93923 182.27283 187.59844 190.93204 196.93204 202.25765 205.59125 208.92485 214.92485 220.92485 223.92485 227.25846 233.25846 236.25846 241.58406 247.58406 250.91767 254.91367 260.23927 264.23527 269.56086 275.56086 279.55686 283.55287 286.88645 292.21205 298.21205 301.54563 306.87123 310.86723 313.86723 319.1928 324.5184 327.852 331.18559 337.18559 340.51918 343.85276 347.18635 352.51194 357.18235 360.18235 362.96516 370.29475 376.29475 381.62034 384.62034 388.61634 393.94194 398.61235 403.93794 409.26353 413.25953 418.5851 424.5851 429.9107 433.9067">mentioned stress due to a lack of participation in extra-curricular activities. The researcher </tspan></text>
<text fill="#0e101a" xml:space="preserve" transform="matrix(1 0 -0 1 72 142.875)" font-size="12" font-family="TimesNewRomanPSMT"><tspan y="0" x="0 4.6704 10.670401 15.996001 21.321602 27.321602 30.655203 35.980806 39.314405 44.640005 49.310403 52.310403 55.644 61.644 66.9696 70.30319 73.30319 76.63679 82.63679 85.97038 90.640789 93.640789 102.97438 108.29998 114.29998 117.29998 123.29998 128.62558 131.62558 137.62558 143.62558 148.95119 151.95119 155.28479 161.28479 164.28479 167.6184 173.6184 178.944 181.944 185.2776 190.60321 195.92882 201.92882 204.92882 210.92882 214.92482 217.92482 223.92482 229.92482 233.25843 239.25843 245.25843 251.25843 255.25443 258.25444 262.92485 268.92485 274.92485 278.92085 282.25444 286.92485 289.92485 295.92485 299.92085 302.92085 308.92085 314.92085 318.91685 324.24244 330.24244 336.24244 345.57603 348.57603 354.57603 360.57603 365.9016 368.9016 372.2352 378.2352 381.2352 384.5688 390.5688 395.89439 401.21998 404.55357 407.88716 413.88716 417.22074 420.55433 426.55433 429.55433 438.22074 444.22074 447.55433 450.8879 456.2135">speculates that this may be due to the lack of outdoor sports or boredom due to inactivity while </tspan></text>
<text fill="#0e101a" xml:space="preserve" transform="matrix(1 0 -0 1 72 172.36518)" font-size="12" font-family="TimesNewRomanPSMT"><tspan y="0" x="0 6 11.325601 14.659201 20.6592 26.6592 29.6592 34.3296 37.663206 43.663206 48.988805 54.988805 57.988805 63.314405 66.648 69.648 75.648 81.648 90.9816 96.3072 99.3072 102.3072 108.981609 112.3152 118.3152 124.3152 129.64081 135.64081 138.97441 143.6448 146.6448 151.97042 155.30402 159.97441 165.97441 168.97441 174.30002 180.30002 186.30002 191.62563 195.62163 198.95523 204.28084 210.28084 215.60645 220.93206 226.93206 229.93206 235.25766 241.25766 247.25766 252.58327 258.58326 263.25367 266.58726 269.92085 275.92085 281.92085 284.92085 290.92085 296.92085 302.24644 305.24644 308.58003 314.58003 317.58003 322.9056 328.9056 334.9056 338.2392 341.57279 347.57279 353.57279 359.57279 365.57279 370.2432 373.2432 379.2432 385.2432 388.57679 391.91038 397.91038 403.23597 406.23597 411.56156 414.89515 420.22074 424.89115 429.56156 434.88716 439.55757 442.55757 447.88316 453.88316 459.88316">being stuck at home. Students also experienced exhaustion due to continuous online classes and </tspan></text>
<text fill="#0e101a" xml:space="preserve" transform="matrix(1 0 -0 1 72 201.85553)" font-size="12" font-family="TimesNewRomanPSMT"><tspan y="0" x="0 3.3336006 9.333601 14.659202 18.655201 23.980803 29.306405 33.976804 39.302404 45.302404 48.302404 53.628004 59.628004 64.9536 67.9536 72.624 75.957599 79.9536 85.2792 88.61279 94.61279 97.61279 103.61279 109.61279 114.93839 117.93839 121.27199 127.27199 130.27199 136.27199 140.26799 146.26799 149.6016 155.6016 161.6016 167.6016 172.9272 178.9272 181.9272 186.5976 191.9232 195.9192 201.24481 206.57042 212.57042 215.57042 218.90402 222.23763 231.57123 236.89684 239.89684 242.67964 250.00925 256.00926 261.33485 267.33485 270.33485 274.33085 279.65644 285.65644 291.65644 295.65245 298.98603 304.3116 310.3116 313.3116 318.6372 324.6372 327.6372 330.9708 336.9708 342.2964 348.2964 351.62998 354.96357 358.29716 361.63075 367.63075 370.63075 373.96434 379.96434 382.96434 386.2979 391.6235 396.9491 400.9451 406.9451 409.9451 415.9451 419.2787 424.60429 427.60429 433.60429 439.60429 442.93788 446.27146 452.27146 457.59706">increased eye strain due to prolonged screen time. They reported an inability to learn via online </tspan></text>
<text fill="#0e101a" xml:space="preserve" transform="matrix(1 0 -0 1 72 231.3457)" font-size="12" font-family="TimesNewRomanPSMT"><tspan y="0" x="0 5.3256008 8.659201 13.984801 18.655201 23.3256 28.651202 33.3216 36.3216 42.3216 48.3216 53.6472 56.6472 59.9808 65.980808 68.980808 74.306407 77.306407 80.64 83.973598 87.9696 93.2952 97.9656 103.9656 113.299198 118.624797 121.624797 126.2952 131.6208 137.6208 142.94641 148.94641 154.94641 158.28002 163.60562 166.60562 169.60562 172.93923 176.27283 185.60643 188.94004 192.27364 197.59925 203.59925 206.59925 209.93285 215.93285 219.26645 224.59206 228.58806 233.91367 239.23928 242.57288 245.90648 251.90648 257.9065 260.9065 266.9065 272.2321 275.56568 284.2321 289.55769 294.88328 300.88328 303.88328 307.21687 312.54246 317.86805 323.19364 329.19364 334.51924 338.51524 343.18565 346.18565 351.51124 357.51124 363.51124 366.51124 371.18165 374.51524 380.51524 386.51524 391.84083 397.84083 401.1744 405.84483 408.84483 411.84483 417.1704 423.1704 429.1704">classes due to a tiresome schedule, limited interaction between teachers and students, and </tspan></text>
<text fill="#0e101a" xml:space="preserve" transform="matrix(1 0 -0 1 72 260.83589)" font-size="12" font-family="TimesNewRomanPSMT"><tspan y="0" x="0 6 12 16.670399 21.996 25.329602 28.663203 33.333604 37.3296 42.6552 47.9808 51.314405 57.314405 61.310403 67.3104 70.3104 74.306407 80.306407 83.64 88.9656 93.636 96.636 100.632 106.632 110.628009 113.628009 116.9616 122.9616 128.2872 131.2872 137.2872 140.6208 144.6168 147.95041 153.95041 159.27602 162.60962 165.60962 170.93523 174.26883 179.59444 184.26483 188.93523 192.93123 198.93123 204.93123 214.26483 217.26483 220.26483 226.93923 230.27283 236.27283 242.27283 247.59844 253.59844 256.93205 261.60246 264.60246 273.26887 278.59446 282.59046 287.91606 290.91606 296.91606 302.24165 305.57524 311.57524 314.57524 318.57124 323.89683 328.56724 334.56724 340.56724 346.56724 351.23765 354.57124 360.57124 363.90483 369.2304 372.2304 376.2264 382.2264 386.2224 389.2224 395.2224 401.2224 407.2224 411.2184 414.2184 420.2184 425.544 428.8776 437.544 443.544 447.54 453.54">unsatisfactory rules for the virtual classroom. Students were held responsible for poor network </tspan></text>
<text fill="#0e101a" xml:space="preserve" transform="matrix(1 0 -0 1 72 290.3262)" font-size="12" font-family="TimesNewRomanPSMT"><tspan y="0" x="0 5.3256008 11.325601 17.3256 23.3256 28.651202 33.976804 37.310407 40.64401 46.64401 49.97761 53.311216 59.311216 62.311216 67.63681 73.63681 79.63681 82.63681 86.63281 91.95841 101.29201 107.29201 113.29201 118.61761 124.61761 127.61761 131.6136 135.6096 141.6096 150.9432 153.9432 157.27681 163.27681 168.60242 171.60242 176.92803 180.26163 185.58724 190.25763 194.92803 197.92803 201.26163 205.25763 208.25763 211.59123 217.59123 222.91684 226.25045 230.24645 233.24645 239.24645 242.58005 248.58005 253.90566 259.90565 262.90565 271.57206 276.89765 281.56806 284.56806 289.23847 294.56407 299.88966 305.88966 308.88966 313.56007 322.22648 325.56007 328.89366 334.21925 340.21925 345.54484 351.54484 354.54484 360.54484 364.32365 368.31965 371.31965 374.10246 381.43205 387.43205 392.75764 398.75764 401.75764 407.08323 413.08323 419.08323 423.07923 428.40483 433.07524 437.74565 443.07124 449.07124">connectivity and removed from the class if their video was seen switched off. They expressed </tspan></text>
<text fill="#0e101a" xml:space="preserve" transform="matrix(1 0 -0 1 72 319.8164)" font-size="12" font-family="TimesNewRomanPSMT"><tspan y="0" x="0 5.3256008 11.325601 17.3256 22.651202 27.976803 31.972804 37.9728 42.6432 45.6432 51.6432 57.6432 62.9688 66.9648 69.9648 73.29839 79.29839 84.62399 87.62399 93.62399 98.94959 103.619998 106.95359 109.95359 113.287189 119.287189 124.612789 130.6128 133.6128 139.6128 143.6088 146.6088 149.9424 155.9424 161.268 164.268 168.9384 174.9384 178.272 181.6056 186.93122 192.93122 198.93122 203.60161 206.60161 209.93521 215.93521 218.93521 224.93521 230.26082 233.26082 238.58643 244.58643 250.58643 255.91204 259.90803 265.2336 271.2336 274.2336 277.5672 283.5672 286.5672 291.8928 294.8928 299.5632 305.5632 311.5632 315.5592 318.8928 324.21839 328.2144 331.2144 335.8848 341.8848 347.2104 353.2104 356.2104 362.2104 366.2064 369.2064 372.53999 375.87358 385.20716 390.53276 393.53276 396.31556 403.64515 409.64515 414.97074 417.97074 421.30433 427.30433 432.6299 438.6299 441.9635 445.2971 448.63069 451.96427 457.96427">concerns over the vast load of the syllabus to be covered in a shorter span of time. The inability </tspan></text>
<text fill="#0e101a" xml:space="preserve" transform="matrix(1 0 -0 1 72 349.3066)" font-size="12" font-family="TimesNewRomanPSMT"><tspan y="0" x="0 3.3336006 9.333601 12.333601 18.333601 22.329602 27.655203 32.325605 38.325605 41.325605 46.651205 52.651205 58.651205 63.976804 69.3024 75.3024 78.635997 83.3064 86.3064 92.3064 98.3064 103.631999 106.631999 109.96559 115.96559 118.96559 122.29919 125.63278 134.96639 138.29999 141.63359 146.9592 152.9592 155.9592 159.2928 165.2928 168.6264 173.95201 177.94802 183.27362 188.59923 191.93283 195.26644 201.26644 207.26644 210.26644 218.93283 222.26644 225.60004 231.60004 234.60004 237.93364 243.25925 248.58486 253.91046 259.91047 265.23606 269.23207 273.90248 276.90248 282.22807 288.22807 294.22807 297.22807 303.22807 308.55366 311.88725 320.55366 326.55366 330.54966 336.54966 339.54966 344.87525 350.87525 356.87525 362.87525 368.20085 373.52644 376.86003 380.1936 386.1936 389.5272 392.86079 398.86079 401.86079 405.19438 409.86479 414.5352 420.5352 425.86079 430.5312 433.5312 436.86479 441.5352 444.5352 449.2056 454.5312 459.85679 465.85679">to grasp concepts due to limited interaction with teachers and network connectivity issues is seen </tspan></text>
<text fill="#0e101a" xml:space="preserve" transform="matrix(1 0 -0 1 72 378.7969)" font-size="12" font-family="TimesNewRomanPSMT"><tspan y="0" x="0 9.3336 15.3336 19.3296 24.655201 27.655201 33.6552 36.988805 42.988805 46.322408 52.322408 55.65601 61.65601 64.656009 69.981609 74.65201 77.65201 82.97761 85.97761 90.64801 93.981609 99.981609 105.981609 111.307209 117.307209 120.6408 123.6408 132.30719 136.30319 142.30319 145.6368 150.9624 153.9624 156.9624 161.8608 165.8568 168.0192 177.3528 180.3528 186.3528 192.3528 195.6864 198.6864 204.01201 210.01201 213.34561 218.67122 221.67122 225.00482 231.00482 234.00482 239.33043 245.33043 251.33043 256.656 259.656 268.32243 271.656 274.9896 280.9896 283.9896 287.32319 293.32319 298.64878 301.64878 307.64878 310.98237 316.98237 322.30796 326.30397 329.30397 333.97438 337.30796 343.30796 349.30796 354.63356 360.63356 363.96714 368.63755 371.63755 377.63755 382.96315 388.28874 393.61433 399.61433 404.28474 409.61033 412.61033 416.60633 418.76875 428.10234 431.10234 436.42793 439.42793 444.09834 447.43193 453.43193 462.09834">more vividly as a student wrote, "I'm not able to cope with the other students because I'm a slow </tspan></text>
<text fill="#0e101a" xml:space="preserve" transform="matrix(1 0 -0 1 72 408.2871)" font-size="12" font-family="TimesNewRomanPSMT"><tspan y="0" x="0 6 9.996 15.321601 21.321602 27.321602 32.6472 35.9808 38.9808 41.9808 45.9768 48.9768 54.9768 60.3024 65.628 71.628 74.628 77.96159 81.29519 90.628787 95.954387 98.954387 102.28798 108.28798 111.28798 117.28798 123.28798 129.28798 134.61359 138.60959 143.27999 146.61359 151.9392 157.9392 163.9392 166.9392 170.2728 176.2728 179.6064 185.6064 191.6064 196.2768 199.2768 202.2768 207.6024 213.6024 219.6024 222.6024 225.936 231.936 236.6064 239.94 242.94 248.94 254.26561 259.5912 264.91679 270.91679 275.5872 280.91279 283.91279 289.91279 293.90879 296.90879 300.24238 306.24238 309.57597 314.24638 317.24638 320.24638 324.24238 327.24238 330.57597 335.90156 341.90156 344.90156 350.90156 356.22715 362.22715 365.56074 371.56074 377.56074 380.56074 383.56074 388.88633 394.88633 400.88633 403.88633 407.2199 413.2199 416.5535 421.2239 424.2239 432.89033 438.89033 442.88633 446.88233 450.2159 455.5415 460.2119">grabber. I need time to understand things, and just because of this, I lag behind, and this worries </tspan></text>
<text fill="#0e101a" xml:space="preserve" transform="matrix(1 0 -0 1 72 437.7773)" font-size="12" font-family="TimesNewRomanPSMT"><tspan y="0" x="0 9.3336 14.6592 17.659199 22.9848 25.9848 29.318402 35.3184 38.652006 43.550405 46.550405 50.546403 57.220804 62.546403 66.542407 69.876 73.209598 78.535198 81.86879 87.86879 93.19439 99.19439 102.527988 105.527988 111.527988 117.527988 123.527988 127.52399 130.52399 133.52399 140.19838 146.19838 150.19438 153.52799 159.52799 164.85359 168.8496 178.1832 184.1832 188.1792 193.5048 196.5048 199.5048 204.1752 210.1752 219.5088 224.83441 227.83441 233.83441 237.83042 240.83042 244.16402 250.16402 255.48963 258.48963 263.16004 266.49363 272.49363 278.49363 283.8192 289.8192 293.1528 297.8232 300.8232 309.48963 314.81523 318.81123 324.1368 327.1368 333.1368 339.1368 344.4624 350.4624 353.796 359.12159 362.12159 365.45518 371.45518 374.45518 379.78077 385.78077 391.78077 395.11436 400.43995 405.76554 409.09913 412.09913 415.4327 421.4327 426.7583 429.7583 433.0919 438.41749 443.74308 449.06867 455.06867 460.39427 464.39027">me a lot" (Participant 217). Furthermore, some of the students were unable to contact the teacher </tspan></text>
<text fill="#0e101a" xml:space="preserve" transform="matrix(1 0 -0 1 72 467.2676)" font-size="12" font-family="TimesNewRomanPSMT"><tspan y="0" x="0 6 11.325601 15.321601 19.992 25.992 31.992 37.3176 40.651205 43.984807 49.984807 52.984807 56.31841 62.31841 65.318408 71.318408 74.652 79.3224 84.648 90.648 95.318408 99.98881 102.98881 108.98881 114.98881 120.98881 126.98881 130.32242 134.99282 137.99282 143.31842 149.31842 155.31842 158.31842 164.31842 170.31842 175.64403 179.64003 182.97364 188.29924 192.96964 195.96964 198.96964 207.63603 213.63603 216.63603 219.96964 225.96964 231.29524 234.29524 240.29524 243.62885 249.62885 254.95446 258.95045 261.95045 267.95045 273.27604 279.27604 285.27604 288.27604 291.27604 296.60163 299.60163 303.59764 308.92323 317.58964 320.58964 325.26005 328.59364 334.59364 340.59364 345.91923 351.91923 355.2528 359.92323 362.92323 368.2488 371.5824 376.2528 382.2528 385.2528 391.2528 397.2528 401.92323 407.2488 411.2448 417.2448 422.5704 428.5704">personally to discuss doubts and queries. On the other hand, a few students also observed </tspan></text>
<text fill="#0e101a" xml:space="preserve" transform="matrix(1 0 -0 1 72 496.7578)" font-size="12" font-family="TimesNewRomanPSMT"><tspan y="0" x="0 3.3336006 9.333601 14.659202 18.655201 23.980803 29.306405 33.976804 39.302404 45.302404 48.302404 53.628004 59.628004 65.628009 70.953609 76.279209 82.279209 85.6128 89.6088 94.9344 98.268 101.60159 107.60159 113.60159 116.60159 119.93519 125.93519 128.93518 132.26879 138.26879 143.59439 146.928 150.924 153.924 158.59439 161.928 167.928 173.928 177.2616 182.5872 187.2576 190.5912 193.5912 196.9248 202.9248 208.25041 214.25041 217.25041 222.57602 228.57602 234.57602 238.57202 243.89763 248.56803 253.23842 258.564 264.564 267.564 272.8896 275.8896 281.8896 287.21519 290.54878 293.88236 299.20796 303.20396 306.20396 312.20396 318.20396 324.20396 329.52955 333.52555 338.19596 341.52955 346.85514 352.85514 358.85514 362.18873 368.18873 374.18873 377.18873 383.18873 388.5143 393.8399 399.1655 405.1655 409.8359 415.1615 418.1615 421.4951 427.4951 432.82069 438.82069">increased concentration in their studies; they expressed a better understanding because they </tspan></text>
<text fill="#0e101a" xml:space="preserve" transform="matrix(1 0 -0 1 72 526.248)" font-size="12" font-family="TimesNewRomanPSMT"><tspan y="0" x="0 4.6704 8.004001 14.004001 20.004002 23.337603 28.663205 34.663206 37.663206 41.659204 47.659204 51.6552 54.6552 59.9808 62.9808 66.3144 72.3144 78.3144 84.3144 89.64 93.636 96.636 102.636 107.9616 111.9576 115.2912 121.2912 127.2912 130.2912 133.6248 139.6248 144.95041 150.95041 153.95041 159.95041 165.27602 169.27202 175.27202 179.26802 184.59363 187.59363 190.92723 196.92723 202.25284 205.25284 213.25684 221.92324 230.58963 234.58563 243.25203 247.24803 253.24803 259.24806 262.24806 265.58164 271.58164 276.90724 282.90724 288.90724 294.90724 303.57365 309.57365">studied for a longer period than before the COVID-19 lockdown.</tspan></text>
<g id="Layer-2" data-name="Span">
<text fill="#0e101a" xml:space="preserve" transform="matrix(1 0 -0 1 72 526.248)" font-size="12" font-family="TimesNewRomanPSMT"><tspan y="0" x="312.5801"> </tspan></text>
</g>
</g>
<g id="Layer-1" data-name="P">
<text xml:space="preserve" transform="matrix(1 0 -0 1 72 585.2285)" font-size="12" font-family="TimesNewRomanPS" font-weight="bold"><tspan y="0" x="0 6.9024007 12.902401 19.576802 22.910403 28.236004 31.236004">Table 5</tspan></text>
<g id="Layer-2" data-name="Span">
<text xml:space="preserve" transform="matrix(1 0 -0 1 72 585.2285)" font-size="12" font-family="TimesNewRomanPS" font-weight="bold"><tspan y="0" x="37.23633"> </tspan></text>
</g>
</g>
<g id="Layer-1" data-name="P">
<text xml:space="preserve" transform="matrix(1 0 -0 1 72 614.7188)" font-size="12" font-family="TimesNewRomanPS" font-style="italic"><tspan y="0" x="0 6 9.3336 13.5588 18.884402 23.554802 28.2252 31.2252 34.558805 38.784006 44.784006 53.450407 56.450407 62.450407 67.776 73.776 79.776 85.776">Stress from School</tspan></text>
<g id="Layer-2" data-name="Span">
<text xml:space="preserve" transform="matrix(1 0 -0 1 72 614.7188)" font-size="12" font-family="TimesNewRomanPSMT"><tspan y="0" x="89.10938"> </tspan></text>
</g>
</g>
<g id="Layer-1" data-name="P">
</g>
<clipPath id="cp128">
<path transform="matrix(1,0,0,-1,0,792)" d="M 71 85.18555 L 505 85.18555 L 505 160.18555 L 71 160.18555 Z "/>
</clipPath>
<g clip-path="url(#cp128)">
<path transform="matrix(1,0,0,-1,0,792)" d="M 72 158.1855 L 320.35 158.1855 L 320.35 134.1855 L 72 134.1855 Z " fill="#ffffff"/>
<path transform="matrix(1,0,0,-1,0,792)" d="M 320.35 158.1855 L 398.85 158.1855 L 398.85 134.1855 L 320.35 134.1855 Z " fill="#ffffff"/>
<path transform="matrix(1,0,0,-1,0,792)" d="M 398.85 158.1855 L 503 158.1855 L 503 134.1855 L 398.85 134.1855 Z " fill="#ffffff"/>
<path transform="matrix(1,0,0,-1,0,792)" d="M 72 134.1855 L 320.35 134.1855 L 320.35 110.1855 L 72 110.1855 Z " fill="#ffffff"/>
<path transform="matrix(1,0,0,-1,0,792)" d="M 320.35 134.1855 L 398.85 134.1855 L 398.85 110.1855 L 320.35 110.1855 Z " fill="#ffffff"/>
<path transform="matrix(1,0,0,-1,0,792)" d="M 398.85 134.1855 L 503 134.1855 L 503 110.1855 L 398.85 110.1855 Z " fill="#ffffff"/>
<path transform="matrix(1,0,0,-1,0,792)" d="M 72 110.1855 L 320.35 110.1855 L 320.35 86.18555 L 72 86.18555 Z " fill="#ffffff"/>
<path transform="matrix(1,0,0,-1,0,792)" d="M 320.35 110.1855 L 398.85 110.1855 L 398.85 86.18555 L 320.35 86.18555 Z " fill="#ffffff"/>
<path transform="matrix(1,0,0,-1,0,792)" d="M 398.85 110.1855 L 503 110.1855 L 503 86.18555 L 398.85 86.18555 Z " fill="#ffffff"/>
<g id="Layer-2" data-name="P">
<g id="Layer-3" data-name="P">
<g id="Layer-4" data-name="P">
<g id="Layer-5" data-name="P">
</g>
<clipPath id="cp129">
<path transform="matrix(1,0,0,-1,0,792)" d="M 72 134.6855 L 320.35 134.6855 L 320.35 157.6855 L 72 157.6855 Z "/>
</clipPath>
<g clip-path="url(#cp129)">
<text fill="#010204" xml:space="preserve" transform="matrix(1 0 -0 1 177.2365 650.0796)" font-size="12.5" font-family="TimesNewRomanPSMT"><tspan y="0" x="0 6.952501 10.425002 14.587502 20.135003 25.000002 29.865004 36.115007">Stressor</tspan></text>
</g>
</g>
<g id="Layer-4" data-name="P">
<g id="Layer-5" data-name="P">
</g>
<clipPath id="cp130">
<path transform="matrix(1,0,0,-1,0,792)" d="M 320.35 134.6855 L 398.85 134.6855 L 398.85 157.6855 L 320.35 157.6855 Z "/>
</clipPath>
<g clip-path="url(#cp130)">
<text fill="#010204" xml:space="preserve" transform="matrix(1 0 -0 1 334.4206 650.0796)" font-size="12.5" font-family="TimesNewRomanPSMT"><tspan y="0" x="0 6.952501 11.115001 16.6625 22.9125 29.1625 34.710004 40.960004 46.507505">Frequency</tspan></text>
</g>
</g>
<g id="Layer-4" data-name="P">
<g id="Layer-5" data-name="P">
</g>
<clipPath id="cp131">
<path transform="matrix(1,0,0,-1,0,792)" d="M 398.85 134.6855 L 503 134.6855 L 503 157.6855 L 398.85 157.6855 Z "/>
</clipPath>
<g clip-path="url(#cp131)">
<text fill="#010204" xml:space="preserve" transform="matrix(1 0 -0 1 433.3842 650.0796)" font-size="12.5" font-family="TimesNewRomanPSMT"><tspan y="0" x="0 6.952501 12.500002 16.662503 22.210003 27.757504 34.007505">Percent</tspan></text>
</g>
</g>
</g>
</g>
<g id="Layer-2" data-name="P">
<g id="Layer-3" data-name="P">
<g id="Layer-4" data-name="P">
<g id="Layer-5" data-name="P">
</g>
<clipPath id="cp132">
<path transform="matrix(1,0,0,-1,0,792)" d="M 72 110.1855 L 320.35 110.1855 L 320.35 133.6855 L 72 133.6855 Z "/>
</clipPath>
<g clip-path="url(#cp132)">
<text fill="#010204" xml:space="preserve" transform="matrix(1 0 -0 1 79 675.0796)" font-size="12.5" font-family="TimesNewRomanPSMT"><tspan y="0" x="0 7.6349999 13.885 19.4325 24.980002 29.845004 34.710004 38.182508 44.432508 49.980009 53.105009 59.355009 65.60501 75.32751 80.87501 89.90251 96.15251 100.31501">Excessive homework</tspan></text>
</g>
</g>
<g id="Layer-4" data-name="P">
<g id="Layer-5" data-name="P">
</g>
<clipPath id="cp133">
<path transform="matrix(1,0,0,-1,0,792)" d="M 320.35 110.1855 L 398.85 110.1855 L 398.85 133.6855 L 320.35 133.6855 Z "/>
</clipPath>
<g clip-path="url(#cp133)">
<text fill="#010204" xml:space="preserve" transform="matrix(1 0 -0 1 351.425 675.0796)" font-size="12.5" font-family="TimesNewRomanPSMT"><tspan y="0" x="0 6.25 12.5">106</tspan></text>
</g>
</g>
<g id="Layer-4" data-name="P">
<g id="Layer-5" data-name="P">
</g>
<clipPath id="cp134">
<path transform="matrix(1,0,0,-1,0,792)" d="M 398.85 110.1855 L 503 110.1855 L 503 133.6855 L 398.85 133.6855 Z "/>
</clipPath>
<g clip-path="url(#cp134)">
<text fill="#010204" xml:space="preserve" transform="matrix(1 0 -0 1 435.9812 675.0796)" font-size="12.5" font-family="TimesNewRomanPSMT"><tspan y="0" x="0 6.25 12.5 15.625 21.875">48.2%</tspan></text>
</g>
</g>
</g>
<g id="Layer-3" data-name="P">
<g id="Layer-4" data-name="P">
<g id="Layer-5" data-name="P">
</g>
<clipPath id="cp135">
<path transform="matrix(1,0,0,-1,0,792)" d="M 72 86.18555 L 320.35 86.18555 L 320.35 110.18555 L 72 110.18555 Z "/>
</clipPath>
<g clip-path="url(#cp135)">
<text fill="#010204" xml:space="preserve" transform="matrix(1 0 -0 1 79 698.5796)" font-size="12.5" font-family="TimesNewRomanPSMT"><tspan y="0" x="0 6.952501 12.500002 18.047503 22.210003 25.682503 28.807503 37.835004 44.085004 49.632505 55.180006 59.342504 62.815008 68.3625 71.835 78.085 81.557498 87.807498 90.932498 97.182498 101.34499 104.46999 110.017498 115.564998 121.112499 127.362499 132.90999 142.63249 146.105 151.6525 154.7775 158.94 165.19 168.6625 174.9125 179.07501">Fear/ Uncertainty of academic future</tspan></text>
</g>
</g>
<g id="Layer-4" data-name="P">
<g id="Layer-5" data-name="P">
</g>
<clipPath id="cp136">
<path transform="matrix(1,0,0,-1,0,792)" d="M 320.35 86.18555 L 398.85 86.18555 L 398.85 110.18555 L 320.35 110.18555 Z "/>
</clipPath>
<g clip-path="url(#cp136)">
<text fill="#010204" xml:space="preserve" transform="matrix(1 0 -0 1 354.55 698.5796)" font-size="12.5" font-family="TimesNewRomanPSMT"><tspan y="0" x="0 6.25">76</tspan></text>
</g>
</g>
<g id="Layer-4" data-name="P">
<g id="Layer-5" data-name="P">
</g>
<clipPath id="cp137">
<path transform="matrix(1,0,0,-1,0,792)" d="M 398.85 86.18555 L 503 86.18555 L 503 110.18555 L 398.85 110.18555 Z "/>
</clipPath>
<g clip-path="url(#cp137)">
<text fill="#010204" xml:space="preserve" transform="matrix(1 0 -0 1 435.9812 698.5796)" font-size="12.5" font-family="TimesNewRomanPSMT"><tspan y="0" x="0 6.25 12.5 15.625 21.875">34.5%</tspan></text>
</g>
</g>
</g>
</g>
<clipPath id="cp138">
<path transform="matrix(1,0,0,-1,0,792)" d="M 71 85.18555 L 505 85.18555 L 505 160.18555 L 71 160.18555 Z "/>
</clipPath>
<g clip-path="url(#cp138)">
<path transform="matrix(1,0,0,1,71,631.8145)" stroke-width="1" stroke-linecap="butt" stroke-miterlimit="4" stroke-linejoin="miter" fill="none" stroke="#000000" d="M 1 26 L 432 26 "/>
<path transform="matrix(1,0,0,1,71,631.8145)" stroke-width="1" stroke-linecap="butt" stroke-miterlimit="4" stroke-linejoin="miter" fill="none" stroke="#000000" d="M 1 2 L 432 2 "/>
</g>
</g>
</g>
</g>
</svg>
