<?xml version="1.0" encoding="UTF-8" standalone="no"?>
<!DOCTYPE svg PUBLIC "-//W3C//DTD SVG 1.1//EN" "http://www.w3.org/Graphics/SVG/1.1/DTD/svg11.dtd">
<svg xmlns="http://www.w3.org/2000/svg" xmlns:xlink="http://www.w3.org/1999/xlink" version="1.1" width="612pt" height="792pt" viewBox="0 0 612 792">
<g enable-background="new">
<clipPath id="cp24">
<path transform="matrix(1,0,0,-1,0,792)" d="M 0 0 L 612 0 L 612 792 L 0 792 Z "/>
</clipPath>
<g clip-path="url(#cp24)">
<path transform="matrix(1,0,0,-1,0,792)" d="M 0 792 L 612 792 L 612 0 L 0 0 Z " fill="#ffffff"/>
<g id="Layer-1" data-name="P">
</g>
<clipPath id="cp25">
<path transform="matrix(1,0,0,-1,0,792)" d="M 68.67773 67.89258 L 543.3222 67.89258 L 543.3222 723.32229 L 68.67773 723.32229 Z "/>
</clipPath>
<g clip-path="url(#cp25)">
<text fill="#0e101a" xml:space="preserve" transform="matrix(1 0 -0 1 72 83.89447)" font-size="12" font-family="TimesNewRomanPSMT"><tspan y="0" x="0 4.6704 9.996 15.996 21.996 27.996 31.329602 34.1124 45.438 51.438 56.7636 60.097204 64.76761 73.43401 79.43401 85.43401 88.43401 94.43401 98.430019 104.430019 110.430019 116.430019 121.10042 124.10042 129.42603 135.42603 141.42603 144.42603 148.42203 153.74764 159.74764 165.74764 171.74764 181.08124 184.41484 190.41484 193.41484 198.08524 203.41085 206.74445 212.07006 217.39566 220.72927 226.05487 232.05487 235.05487 241.05487 244.38848 250.38848 253.38848 258.71406 264.71406 270.71406 273.71406 279.71406 285.71406 289.04765 295.04765 299.04365 305.04365 309.03965 314.36524 320.36524 325.69084 328.69084 333.36125 336.69483 342.69483 348.69483 354.02043 360.02043 363.354 368.0244 371.0244 375.02043 380.346 386.346 392.346 396.342 402.342 408.342 411.6756 421.0092 426.33479 429.66838 434.99397 438.32756 444.32756 447.32756 453.32756 459.32756">school WhatsApp groups and randomly selected 9th and 10th-grade students (approximately 25 </tspan></text>
<text fill="#0e101a" xml:space="preserve" transform="matrix(1 0 -0 1 72 113.38483)" font-size="12" font-family="TimesNewRomanPSMT"><tspan y="0" x="0 4.6704 8.004001 14.004001 20.004002 25.329604 31.329604 34.663206 39.333604 42.333604 45.667203 51.667203 54.667203 58.000806 64.00081 67.334407 72.66 75.9936 79.9896 82.9896 88.9896 92.3232 97.648799 100.648799 106.648799 111.974399 115.9704 120.6408 126.6408 132.64081 137.96642 141.30002 144.30002 153.63362 158.95923 163.62963 168.30002 173.62563 179.62563 182.95923 188.95923 194.95923 197.95923 203.95923 209.95923 212.95923 217.62963 223.62963 228.95523 232.28884 237.61444 240.94805 243.94805 253.28165 258.60725 264.60725 267.94084 273.26643">students in total) via personal messaging on social media.</tspan></text>
<g id="Layer-2" data-name="Span">
<text fill="#0e101a" xml:space="preserve" transform="matrix(1 0 -0 1 72 113.38483)" font-size="12" font-family="TimesNewRomanPSMT"><tspan y="0" x="276.2754"> </tspan></text>
</g>
</g>
<g id="Layer-1" data-name="P">
<text fill="#0e101a" xml:space="preserve" transform="matrix(1 0 -0 1 108 142.875)" font-size="12" font-family="TimesNewRomanPSMT"><tspan y="0" x="0 7.3296 13.329599 18.655201 21.655201 26.3256 32.3256 36.321599 42.321599 47.647199 53.647199 56.647199 65.3136 70.6392 75.3096 78.3096 84.3096 87.643199 93.643199 96.97679 102.97679 108.30239 114.30239 117.30239 120.63599 126.63599 129.96959 135.96959 138.96959 142.30319 148.30319 153.6288 156.6288 160.6248 166.6248 169.9584 173.292 179.292 187.9584 191.292 197.292 203.292 206.292 210.28801 216.28801 222.28801 226.28401 229.28401 233.9544 239.28002 244.60562 247.93923 251.27283 257.27284 263.27284 267.94325">The survey was divided into the following four sections:</tspan></text>
<g id="Layer-2" data-name="Span">
<text fill="#0e101a" xml:space="preserve" transform="matrix(1 0 -0 1 108 142.875)" font-size="12" font-family="TimesNewRomanPSMT"><tspan y="0" x="271.2832"> </tspan></text>
</g>
</g>
<g id="Layer-1" data-name="P">
<g id="Layer-2" data-name="P">
<g id="Layer-3" data-name="P">
<text xml:space="preserve" transform="matrix(1 0 -0 1 108 172.36518)" font-size="12" font-family="TimesNewRomanPSMT"><tspan y="0" x="0 6">1.</tspan></text>
</g>
<g id="Layer-3" data-name="P">
<text xml:space="preserve" transform="matrix(1 0 -0 1 120.65 172.36518)" font-size="12" font-family="TimesNewRomanPSMT"><tspan y="0" x="0 6.674401 12.000001 15.996001 20.6664 26.6664 32.6664 37.992 41.325605 44.325605 48.3216 54.3216 58.3176 64.3176 68.3136 77.647197 82.97279 86.30639 89.639987 95.639987 101.639987 104.97358 107.75638 115.085979 121.085979 124.41957 129.08997 132.08997 136.76036 142.08597 147.41158 150.74518 154.07878 160.07878 166.07878 169.07878 173.07479 178.40039 184.40039 190.40039 193.734 197.73 203.0556 209.0556 212.0556 218.0556 223.38121 227.37722 232.0476 238.0476 244.0476 249.37322 252.70682 255.70682 261.70683 267.0324 270.366 275.6916 279.02519 282.35877 287.02919 290.02919 296.02919 300.02519 303.02519 306.35877 312.35877 317.68437 320.68437 325.35478 328.68836 334.68836 340.68836 346.01396 352.01396 355.34754 360.01795 363.01795 366.01795 370.68836 376.68836 382.01396 388.01396 391.01396 396.33955 401.00996">Personal Information: This section required personal details of the students, such as </tspan></text>
<text xml:space="preserve" transform="matrix(1 0 -0 1 120.65 201.85553)" font-size="12" font-family="TimesNewRomanPSMT"><tspan y="0" x="0 4.6704 9.996 15.996 21.996 27.996 31.329602 34.3296 40.3296 45.6552 54.988805 60.314405 63.314405 66.31441 71.64001 74.9736 80.2992 84.969608 89.64001 92.64001 95.64001 101.64001 106.96561 112.96561 118.96561 124.29121 127.8072 130.80719 133.80719 139.1328 144.4584 149.78401 155.78401 161.10962 170.44322 173.77683 179.10243 182.10243 188.10243 192.09844 197.42404 203.42404 208.74965 211.74965 214.74965 220.07526 226.07526 232.07526 235.07526 240.40087 246.40087 250.39687 256.39686 262.39686 267.72245 273.72245 277.05604 281.05204 287.05204 291.72245 294.72245 300.04804 306.04804 312.04804 317.37364 320.37364 324.36964 328.36564 333.69123 339.69123 342.69123 348.0168 354.0168 360.0168 365.3424 368.3424 371.3424 377.3424 382.668 386.0016 389.33518 395.33518 404.0016">school name, class, gender, academic grade, and coronavirus zone (red zone, yellow </tspan></text>
<text xml:space="preserve" transform="matrix(1 0 -0 1 120.65 231.3457)" font-size="12" font-family="TimesNewRomanPSMT"><tspan y="0" x="0 5.3256008 11.325601 17.3256 22.651202 25.651202 28.651202 34.6512 38.647199 41.647199 47.647199 51.643198 56.968797 62.294397 68.294399 71.294399 76.619998 82.619998 88.619998 93.945598 97.9416 100.9416 103.9416 107.27519 113.27519 116.27519 122.27519 126.271198 132.2712 137.5968 141.5928 144.5928 147.9264 153.9264 156.9264 162.25202 168.25202 173.57762 176.91123 182.91123 188.23683 193.56244 196.56244 201.88805 207.88805 213.88805 216.88805 222.88805 228.21366 231.54726 234.88086 240.20647 244.20247 250.20247 254.87287 257.87287 261.20646 267.20646 272.53205 275.86564 278.86564 288.19923 291.5328 297.5328 303.5328 306.8664 309.8664 315.8664 321.192 324.192 329.51759 334.188 338.8584 344.8584 350.184 353.51759 358.84318 362.17677 367.50236 373.50236 376.50236 385.16877 388.50236 391.83595 397.83595 400.83595 404.16954 410.16954 415.49513">zone, or green zone), in order to analyze any patterns that might be associated with the </tspan></text>
<text xml:space="preserve" transform="matrix(1 0 -0 1 120.65 260.83589)" font-size="12" font-family="TimesNewRomanPSMT"><tspan y="0" x="0 6 11.325601 20.659203 26.659203 32.659204 36.6552 41.9808 47.9808 53.9808 57.314405 62.640005 67.31041 70.31041 76.31041 80.30641 83.30641 86.64001 92.64001 97.96561 100.96561 104.96161 110.28721 114.95761 120.95761 126.95761 132.95761 138.95761 144.28322 150.28322 153.61682 158.28722">demographics of the respondents.</tspan></text>
<g id="Layer-4" data-name="Span">
<text xml:space="preserve" transform="matrix(1 0 -0 1 120.65 260.83589)" font-size="12" font-family="TimesNewRomanPSMT"><tspan y="0" x="161.291"> </tspan></text>
</g>
</g>
</g>
<g id="Layer-2" data-name="P">
<g id="Layer-3" data-name="P">
<text xml:space="preserve" transform="matrix(1 0 -0 1 108 290.3262)" font-size="12" font-family="TimesNewRomanPSMT"><tspan y="0" x="0 6">2.</tspan></text>
</g>
<g id="Layer-3" data-name="P">
<text xml:space="preserve" transform="matrix(1 0 -0 1 120.65 290.3262)" font-size="12" font-family="TimesNewRomanPSMT"><tspan y="0" x="0 8.666401 13.992002 19.317603 25.317603 30.643204 39.976804 43.310407 48.636007 51.636007 58.310407 61.64401 65.64001 70.96561 75.63601 80.30641 83.64001 86.422809 93.7524 99.7524 103.086 107.7564 110.7564 115.4268 120.7524 126.078 129.4116 132.74521 138.74521 144.74521 147.74521 156.4116 161.73722 166.40761 169.40761 173.40361 179.40361 183.39962 186.73322 192.73322 198.05883 202.05483 205.05483 209.72522 215.72522 221.72522 227.72522 231.05883 237.05883 240.39243 246.39243 251.71804 257.71803 260.71803 264.0516 270.0516 273.3852 279.3852 282.3852 286.3812 292.3812 298.3812 302.3772 305.3772 311.3772 316.7028 320.6988 324.03239 328.7028 331.7028 335.03639 341.03639 344.03639 349.36198 355.36198 360.68757 364.02116 370.02116 375.34675 378.68034 384.00593">Academic Stress: This section was further subdivided into four parts to evaluate </tspan></text>
<text xml:space="preserve" transform="matrix(1 0 -0 1 120.65 319.8164)" font-size="12" font-family="TimesNewRomanPSMT"><tspan y="0" x="0 5.3256008 10.6512 15.9768 21.976799 27.3024 36.636 39.9696 45.2952 48.2952 52.9656 56.2992 60.295198 65.6208 70.2912 74.9616 77.9616 83.2872 87.2832 90.6168 95.2872 98.6208 104.6208 110.6208 113.6208 117.6168 121.6128 127.6128 136.94641 139.94641 145.94641 149.28002 153.05883 157.05483 162.38043 166.37644 171.70204 177.70204 181.03565 184.03565 188.70604 194.70604 200.70604 204.70204 210.02765 215.35326 220.02365 223.02365 226.35726 232.35726 235.35726 240.68286 243.68286 248.35326 251.68686 257.68687 263.68687 269.01246 275.01246 278.34605 280.50846 285.17887 288.17887 293.50447 298.83006 304.83006 308.16365 314.16365 320.16365 323.49723 328.8228 334.1484 337.482 340.482 345.8076 351.8076 357.8076 361.14118 365.13719 371.13719 377.13719 386.47077 391.79637 397.79637 401.12995 404.12995">academic stress arising from different sources in a student's ecological environment. </tspan></text>
<text xml:space="preserve" transform="matrix(1 0 -0 1 120.65 349.3066)" font-size="12" font-family="TimesNewRomanPSMT"><tspan y="0" x="0 7.3296 13.329599 16.6632 21.3336 24.3336 27.6672 33.6672 38.992799 42.326398 48.326398 54.326398 59.651998 65.65199 68.65199 72.647998 77.973598 81.9696 84.9696 91.644008 94.9776 98.9736 104.2992 108.969608 113.64001 116.64001 120.63601 124.63201 130.63202 139.96562 142.96562 146.96163 152.28723 161.62084 164.95444 168.28804 173.50925 176.50925 179.50925 183.50525 189.50525 193.50125 196.50125 203.17565 206.50925 210.50525 215.83086 220.50125 225.17165 228.17165 232.16765 236.16365 242.16365 251.49726 254.49726 260.49726 265.82286 271.14845 275.14445 279.81486 282.81486 285.81486 289.81086 295.13645 299.13246 302.13246 308.80686 312.14045 316.13645 321.46205 326.13246 330.80287 333.80287 337.79887 341.79487 347.79487 357.12846 360.12846 364.79887 370.12446 376.12446 382.12446 388.12446 391.45805 394.45805 397.45805 402.78364 408.78364 414.78364">This included (a) Stress from family, (b) Stress from peers, (c) Stress from school, and </tspan></text>
<text xml:space="preserve" transform="matrix(1 0 -0 1 120.65 378.7969)" font-size="12" font-family="TimesNewRomanPSMT"><tspan y="0" x="0 3.996 9.996 13.992001 16.992 25.658402 31.658402 36.984 40.98 46.3056 49.639204 52.972806 55.972806 61.298406 67.2984 72.624 75.957599 81.957599 86.628 89.96159 94.631999 97.631999 100.631999 107.306407 112.632 116.628009 119.9616 124.632 127.632 131.628 136.95362 140.94962 143.94962 146.94962 150.94562 156.94562 160.94162 163.94162 166.94162 172.26723 178.26723 184.26723 187.26723 191.26323 196.58884 200.58484 203.58484 208.91045 214.23606 219.56166 225.56166 228.56166 234.56166 240.56166 245.23206 250.55767 256.55769 259.55769 262.89128 268.89128 272.88728 278.21287 283.53846 286.53846 292.53846 298.53846 303.86405 308.53446 311.86805 315.20164 321.20164 327.20164 331.87205 334.87205 338.20564 344.20564 349.53123 352.8648 355.8648 361.1904 364.524 373.85758 379.18318 385.18318 388.18318 391.51676 397.51676">(d) Overall analysis. Parts (a), (b), and (c) each posed three questions that aimed to </tspan></text>
<text xml:space="preserve" transform="matrix(1 0 -0 1 120.65 408.2871)" font-size="12" font-family="TimesNewRomanPSMT"><tspan y="0" x="0 5.3256008 11.325601 16.651202 19.984803 25.984803 31.310404 36.636007 39.636007 42.96961 48.96961 54.295209 57.295209 66.62881 71.95441 77.95441 83.95441 87.288 90.6216 96.6216 102.6216 107.9472 110.9472 116.9472 120.9432 123.9432 127.276798 133.2768 138.6024 141.6024 146.92801 150.70682 154.70282 160.02843 165.35404 168.68764 171.68764 177.68764 181.68364 184.68364 188.01725 194.01725 199.34285 202.34285 208.34285 211.67646 217.67646 223.00206 229.00206 232.00206 236.67246 240.00606 244.00206 249.32767 253.99806 258.6685 264.6685 268.00209 271.00209 273.78489 281.11448 287.11448 292.44007 295.44007 299.43608 302.76966 306.76567 311.43608 314.76966 317.76966 323.76966 329.76966 335.09526 339.76567 343.09925 346.43284 352.43284 358.43284 361.43284 367.43284 371.42884 377.42884 383.42884 386.76243 392.76243 398.088 404.088">analyze the magnitude of the effect of the given stressor. The first question provided </tspan></text>
<text xml:space="preserve" transform="matrix(1 0 -0 1 120.65 437.7773)" font-size="12" font-family="TimesNewRomanPSMT"><tspan y="0" x="0 9.3336 15.3336 18.667202 22.000803 25.334404 31.334404 34.668004 39.993604 42.993604 48.319204 54.319204 59.644804 64.9704 70.9704 76.9704 82.9704 88.9704 94.296 98.9664 101.9664 107.9664 111.9624 117.288 121.958408 127.284008 133.284 136.6176 139.9512 145.9512 151.9512 154.9512 160.27681 166.27681 171.60242 180.93602 186.93602 190.26963 195.59523 200.26563 203.26563 209.26563 213.26163 216.26163 222.26163 228.26163 236.92803 239.92803 243.26163 249.26163 254.58724 257.58723 262.25764 265.59123 269.58723 274.9128 279.58323 284.25364 290.25364 294.24964 297.24964 306.58323 311.9088 317.9088 320.9088 326.9088 332.2344 335.2344 340.56 344.3388 348.3348 353.6604 358.986 362.31959 365.65318 371.65318 377.65318 380.65318 383.98677 389.98677 395.31236">multiple checkboxes presenting examples of how the stressor may be affecting the </tspan></text>
<text xml:space="preserve" transform="matrix(1 0 -0 1 120.65 467.2676)" font-size="12" font-family="TimesNewRomanPSMT"><tspan y="0" x="0 4.6704 8.004001 14.004001 20.004002 25.329604 31.329604 34.663206 37.663206 40.446004 47.775606 53.775606 59.101205 63.771604 69.0972 72.0972 77.4228 83.4228 88.7484 98.08199 104.08199 107.41559 112.74119 117.41159 120.41159 129.07799 134.4036 138.3996 143.7252 146.7252 152.7252 156.7212 162.7212 168.7212 172.05481 178.05481 183.38042 189.38042 192.38042 198.38042 203.70603 208.37642 213.70203 219.70203 222.70203 228.70203 234.70203 237.70203 241.69803 247.02364 251.69403 257.01963 262.3452 266.34123 271.6668 277.6668 280.6668 285.9924 291.9924 297.9924 303.9924 309.9924 315.318 318.65159 323.97718 329.97718 332.97718 338.97718 344.97718 347.97718 356.6436 361.96919 367.96919 370.96919 376.29478 379.62837 382.62837 387.95396 391.28755 394.28755">student. These examples were provided based on research conducted by Deb et al. </tspan></text>
<text xml:space="preserve" transform="matrix(1 0 -0 1 120.65 496.7578)" font-size="12" font-family="TimesNewRomanPSMT"><tspan y="0" x="0 3.996 9.996 15.996 21.996 27.996 31.992 34.992 37.992 44.6664 49.992 53.988 57.321599 63.321599 69.321598 72.321598 77.647197 80.98079 83.98079 89.30639 92.639987 95.639987 98.639987 102.63599 108.63599 114.63599 120.63599 126.63599 130.63199 133.63199 136.63199 141.9576 147.9576 153.9576 156.9576 160.2912 166.2912 171.6168 174.6168 179.94242 185.94242 189.27602 195.27602 201.27602 205.27202 207.43442 212.10482 215.10482 221.10482 226.43042 230.42642 235.09682 241.09682 247.09682 252.42243 255.75603 258.75605 264.08164 270.08164 276.08164 281.40724 285.40324 288.73683 294.0624 300.0624 305.388 310.7136 315.384 318.384 320.7216 329.388 335.388 338.388 344.388 350.388 355.7136 361.7136 365.7096 371.0352 377.0352 383.0352 388.36079 394.36079">(2015), Parikh et al. (2019), and the author's personal experiences. An open-ended </tspan></text>
<text xml:space="preserve" transform="matrix(1 0 -0 1 120.65 526.248)" font-size="12" font-family="TimesNewRomanPSMT"><tspan y="0" x="0 5.3256008 11.325601 15.996001 24.662402 29.988003 33.984 36.984 45.650403 50.976 55.6464 58.6464 61.98 67.979999 73.305599 76.63919 82.63919 88.63919 93.96479 99.96479 102.96479 106.96079 112.96079 116.956798 119.956798 123.9528 129.2784 133.94879 139.94879 145.94879 151.94879 156.61919 161.9448 166.61519 169.61519 175.61519 181.61519 184.94879 187.94879 191.2824 197.2824 202.608 205.9416 211.9416 217.9416 223.26721 229.26721 232.26721 235.60082 241.60082 244.60082 247.93442 253.93442 259.26 262.26 267.5856 273.5856 279.5856 282.9192 288.24479 293.57038 298.24079 301.24079 304.0236 311.35319 317.35319 322.67878 325.67878 330.34919 335.67478 341.00038 347.00038 353.00038 359.00038 362.00038 368.00038 374.00038 379.32597 383.99638 387.32997 390.66355 396.66355 402.66355">answer was included for responses not included in the choices. The second question </tspan></text>
<text xml:space="preserve" transform="matrix(1 0 -0 1 120.65 555.7383)" font-size="12" font-family="TimesNewRomanPSMT"><tspan y="0" x="0 6 12 16.670399 21.996 27.996 30.996 36.3216 42.3216 45.3216 51.3216 55.3176 61.3176 64.6512 70.6512 75.9768 79.310398 82.310398 88.310398 93.635997 97.631999 100.96559 106.29119 112.29119 115.62479 120.950389 123.950389 127.28398 133.28398 139.28398 144.60959 149.27999 152.61359 155.94719 161.94719 167.2728 170.6064 173.94 179.94 185.94 188.94 194.94 200.94 209.6064 212.6064 215.94 221.94 227.26561 230.26561 233.59922 239.59922 244.92482 250.92482 256.9248 262.9248 271.59123 277.59123 280.59123 286.59123 291.9168 296.58723 299.58723 304.9128 308.69163 312.68763 318.0132 323.3388 326.6724 331.998 337.998 340.998 344.33158 350.33158 355.65718 358.65718 363.32759 366.66117 370.65718 375.98277 380.65318 385.32359 391.32359 395.31959 398.31959 403.64518 408.31559">posed an ordinal variable investigating how the lockdown has affected the stressor as </tspan></text>
<text xml:space="preserve" transform="matrix(1 0 -0 1 120.65 585.2285)" font-size="12" font-family="TimesNewRomanPSMT"><tspan y="0" x="0 5.3256008 11.325601 20.659203 26.659203 31.984805 35.980806 41.306406 47.306406 50.306406 53.640005 59.640005 62.640005 68.64 72.636 77.9616 81.9576 85.2912 91.2912 96.6168 102.6168 108.6168 114.6168 123.2832 129.2832 132.2832 137.60881 143.60881 149.60881 155.60881 158.94242 162.27602 165.60962 171.60962 177.60962 182.28002 185.28002 188.06282 195.39243 201.39243 206.71804 209.71804 213.05164 219.05164 222.38524 226.38124 232.38124 235.38124 241.38124 247.38124 252.70685 257.37727 260.71086 264.04444 270.04444 276.04444 279.04444 285.04444 289.04045 295.04045 301.04045 304.37403 310.37403 315.69963 321.69963 324.69963 330.0252 333.0252 339.0252 342.3588 347.6844 353.6844 359.6844 363.01799 369.01799 378.35157 384.35157 390.35157 395.02198">compared to pre-lockdown conditions. The third question provided a dichotomous </tspan></text>
<text xml:space="preserve" transform="matrix(1 0 -0 1 120.65 614.7188)" font-size="12" font-family="TimesNewRomanPSMT"><tspan y="0" x="0 6 11.325601 15.321601 18.655201 23.980803 29.980803 33.314405 38.640005 41.640005 44.973608 50.973608 56.973608 62.973608 66.307209 70.30321 73.6368 79.6368 85.6368 88.6368 97.30321 103.30321 108.62881 111.9624 117.9624 123.288 127.284008 130.284 133.6176 139.6176 144.9432 147.9432 152.6136 155.9472 159.9432 165.26882 169.93921 174.6096 180.6096 184.6056 187.6056 192.93122 196.71002 200.70603 206.03163 211.35724 214.69084 220.01645 226.01645 229.01645 232.35005 238.35005 243.67566 246.67566 250.67166 255.99727 260.6677 266.6677 272.6677 278.6677 284.6677 289.9933 295.9933 299.32688 302.32688 308.32688 313.65248 319.65248 324.97807 328.31166 331.64524 337.64524 342.97084 346.3044 352.3044 355.3044 358.638 364.638 367.638 370.9716 376.29719 380.29319 389.62678 394.29719 397.29719 403.29719 407.29319">variable inquiring whether the stressor affected the respondent negatively in terms of </tspan></text>
<text xml:space="preserve" transform="matrix(1 0 -0 1 120.65 644.209)" font-size="12" font-family="TimesNewRomanPSMT"><tspan y="0" x="0 9.3336 14.6592 20.659199 23.9928 29.318402 32.652006 35.652006 41.652006 46.977605 52.303205 55.636808 58.97041 64.97041 67.97041 73.29601 79.29601 85.29601 88.29601 96.96242 102.28802 105.62161 108.95521 112.95121 118.95121 124.27681 127.610408 133.61042 139.61042 142.61042 145.39322 152.72283 158.72283 164.04843 167.04843 170.38204 175.70764 180.37804 183.71164 186.71164 192.71164 198.03725 202.03325 205.36685 208.36685 211.36685 215.36286 221.36286 225.35886 228.35886 237.02526 243.02526 248.35086 252.34687 257.67247 261.00605 264.33964 267.33964 272.66523 278.66523 283.9908 287.3244 293.3244 297.9948 301.3284 305.9988 308.9988 311.9988 315.3324 321.3324 327.3324 333.3324 336.666 340.662 345.98759 351.98759 354.98759 360.31318 366.31318 372.31318 378.31318 381.64677 384.64677 390.64677 393.98036 399.98036 405.30595 409.30195">mental health and well-being. The last part, (d) Overall analysis, inquired about other </tspan></text>
<text xml:space="preserve" transform="matrix(1 0 -0 1 120.65 673.6992)" font-size="12" font-family="TimesNewRomanPSMT"><tspan y="0" x="0 6 12 21.333601 26.659203 32.659204 35.9928 39.326406 45.326406 51.326406 56.652006 62.652006 65.65201 70.32241 73.656009 77.65201 82.97761 87.64801 92.31841 98.31841 102.314418 106.98482 109.98482 113.31841 119.31841 124.64401 127.97761 130.9776 140.3112 145.63681 151.63681 154.63681 159.96242 163.74123 167.73723 173.06284 178.38845 181.72205 184.72205 188.05565 194.05565 199.38126 202.38126 206.37726 211.70287 216.37326 222.37326 228.37326 234.37326 240.37326 245.69887 251.69887 255.03247 259.70289 262.70289 268.02848 274.02848 280.02848 283.02848 289.02848 295.02848 303.6949 306.6949 310.02848 316.02848 321.35408 324.35408 330.35408 336.35408 341.67967 345.67567 351.00126 354.33485 357.66844 360.66844 365.33885 368.67243 372.66844 377.99403 382.66444 387.33485 390.33485 396.33485 401.66044 406.33085">unmentioned stressors that may affect the respondents and how the overall stress has </tspan></text>
<text xml:space="preserve" transform="matrix(1 0 -0 1 120.65 703.18948)" font-size="12" font-family="TimesNewRomanPSMT"><tspan y="0" x="0 5.3256008 11.325601 16.651202 22.651202 28.651202 33.976804 39.976804 42.976804 48.302404 54.302404 63.636007 69.636 74.9616 78.9576 84.2832 90.2832 93.2832 96.6168 102.6168 105.6168 111.6168 115.6128 120.9384 124.9344 128.268 134.268 139.59362 145.59362 151.59362 157.59362 166.26001 172.26001 175.26001 180.58562 186.58562 192.58562 198.58562 201.91922 205.25283 208.58643 214.58643 220.58643 225.25682">changed compared to pre-lockdown conditions.</tspan></text>
<g id="Layer-4" data-name="Span">
<text xml:space="preserve" transform="matrix(1 0 -0 1 120.65 703.18948)" font-size="12" font-family="TimesNewRomanPSMT"><tspan y="0" x="228.2637"> </tspan></text>
</g>
</g>
</g>
</g>
</g>
</g>
</svg>
