<svg xmlns="http://www.w3.org/2000/svg" xmlns:xlink="http://www.w3.org/1999/xlink" width="1370.831" height="643.479" viewBox="0 0 1370.831 643.479"><defs><style>.a,.d,.e,.f,.m{fill:none;}.b,.c{fill:#fff;}.b{stroke:#707070;}.d,.e,.f,.m{stroke:#000;stroke-width:15px;}.d,.e,.m{stroke-linejoin:round;}.d,.e{stroke-miterlimit:10;}.e,.f,.m{stroke-linecap:round;}.g{clip-path:url(#a);}.h{font-size:35px;font-family:Charter-BoldItalic, Charter;font-weight:700;font-style:italic;}.i{letter-spacing:-0.068em;}.j{letter-spacing:-0.069em;}.k{clip-path:url(#b);}.l{font-size:52px;font-family:Charter-Black, Charter;font-weight:800;}.n{stroke:none;}</style><clipPath id="a"><rect class="a" width="370.553" height="457.019"/></clipPath><clipPath id="b"><rect class="a" width="193.434" height="70.075"/></clipPath></defs><g transform="translate(-407.437 -495.834)"><g transform="translate(130.212 106.257)"><g class="b" transform="translate(295 441)"><rect class="n" width="1322" height="572"/><rect class="a" x="0.5" y="0.5" width="1321" height="571"/></g><path class="c" d="M21,0,42,578H0Z" transform="translate(1591 421)"/><path class="c" d="M21,0,42,496H0Z" transform="translate(804 410) rotate(90)"/><path class="c" d="M21,0,42,496H0Z" transform="translate(1039 421) rotate(90)"/><path class="c" d="M21,0,42,496H0Z" transform="translate(1121 445) rotate(-90)"/><path class="c" d="M21,0,42,660H0Z" transform="translate(942 459) rotate(-90)"/><path class="c" d="M24,0,48,660H0Z" transform="translate(893 463) rotate(-90)"/></g><rect class="d" width="0.5" height="577.186" transform="translate(1093.047 542.4)"/><rect class="e" width="0.5" height="596.292" transform="matrix(0.999, -0.035, 0.035, 0.999, 1746.849, 503.774)"/><g transform="translate(417.825 461.723)"><rect class="d" width="0.5" height="597.221" transform="translate(0 68.514)"/></g><path class="f" d="M0,0H.5V587.029H0Z" transform="translate(431.561 526.571)"/><path class="f" d="M0,0H.5V587.029H0Z" transform="translate(431.561 526.571)"/><rect class="e" width="0.5" height="8.767" transform="translate(443.912 1109.871) rotate(115)"/><rect class="e" width="0.5" height="305.923" transform="matrix(0.999, 0.035, -0.035, 0.999, 430.032, 522.757)"/><g transform="matrix(0.999, -0.035, 0.035, 0.999, 1251.073, 596.76)"><g class="g" transform="translate(0 0)"><text class="h" transform="translate(30.553 322.844)"><tspan class="i" x="0" y="0">t</tspan><tspan class="j" y="0">o</tspan><tspan class="i" y="0" xml:space="preserve"> m</tspan><tspan class="j" y="0">y</tspan><tspan class="i" y="0" xml:space="preserve"> d</tspan><tspan class="j" y="0">o</tspan><tspan class="i" y="0">g, </tspan><tspan class="j" y="0">w</tspan><tspan class="i" y="0">h</tspan><tspan class="j" y="0">o</tspan><tspan class="i" y="0" xml:space="preserve"> didn</tspan><tspan class="j" y="0">’</tspan><tspan class="i" y="0">t</tspan><tspan y="0"> </tspan></text><text class="h" transform="translate(30.553 369.004)"><tspan class="i" x="0" y="0">ha</tspan><tspan class="j" y="0">ve</tspan><tspan class="i" y="0" xml:space="preserve"> th</tspan><tspan class="j" y="0">e</tspan><tspan class="i" y="0" xml:space="preserve"> gift </tspan><tspan class="j" y="0">o</tspan><tspan class="i" y="0">f </tspan><tspan class="j" y="0">wo</tspan><tspan class="i" y="0">rds,</tspan><tspan y="0"> </tspan></text><text class="h" transform="translate(30.553 415.164)"><tspan class="j" x="0" y="0">b</tspan><tspan class="i" y="0">ut sp</tspan><tspan class="j" y="0">oke</tspan><tspan class="i" y="0" xml:space="preserve"> th</tspan><tspan class="j" y="0">e</tspan><tspan class="i" y="0">m an</tspan><tspan class="j" y="0">y</tspan><tspan class="i" y="0">wa</tspan><tspan y="0">y</tspan></text></g></g><g transform="translate(158.998 110.588)"><g transform="matrix(0.999, 0.035, -0.035, 0.999, 359.282, 445.384)"><g class="k"><text class="l" transform="translate(0 51)"><tspan class="j" x="0" y="0">I</tspan><tspan class="i" y="0">nd</tspan><tspan class="j" y="0">e</tspan><tspan y="0">x</tspan></text></g></g></g><line class="f" x2="649.052" y2="29" transform="translate(443.712 512.757)"/><path class="m" d="M0,0,643.4,14.154h0L1310.4,0" transform="translate(447.103 1110.5)"/><path class="m" d="M0,0,667.214,8.872,1333.547,0" transform="translate(419.355 1115.251)"/><path class="f" d="M0,0H1325.435" transform="translate(417.825 1129.049)"/><line class="f" y1="38" x2="653.165" transform="translate(1093.547 503.757)"/><line class="f" y1="28" x2="23" transform="translate(1744.712 1100.757)"/><path class="m" d="M0,17.03H0L25.887,0" transform="translate(417.825 512.757)"/></g></svg>