<svg xmlns="http://www.w3.org/2000/svg" width="267.503" height="65.247" viewBox="0 0 267.503 65.247"><path d="M263.744,61.109a1.2,1.2,0,0,0,1.21-1.269c0-.9-.543-1.33-1.657-1.33h-1.8v4.712h.677V61.168h.832l.019.025,1.291,2.029h.724l-1.389-2.1Zm-.783-.472h-.785V59.044h.995c.514,0,1.1.084,1.1.757,0,.774-.593.836-1.314.836M0,9.587H9.993v36.4h18.5v9.222H0ZM32.911,24.276h9.6V55.192h-9.6Zm4.8-15.37a5.569,5.569,0,1,1-5.57,5.569,5.569,5.569,0,0,1,5.57-5.569m44.958.674h9.6V36.845l10.88-12.583h11.77l-12.6,14.313,12.335,16.63H102.588L92.4,39.923h-.126V55.2h-9.6Zm-34.835,14.7h9.219V28.5h.131a10.085,10.085,0,0,1,9.09-4.994c9.735,0,11.527,6.405,11.527,14.726V55.19H68.2V40.159c0-3.588-.066-8.2-5-8.2-4.99,0-5.76,3.907-5.76,7.939V55.186h-9.6Z"/><path d="M135.136,36.138a5.756,5.756,0,0,0-5.894-5.89,6.406,6.406,0,0,0-6.784,5.89Zm8.132,13.7a16.909,16.909,0,0,1-13.128,6.151c-9.6,0-17.286-6.408-17.286-16.331S120.539,23.33,130.14,23.33c8.973,0,14.6,6.4,14.6,16.328v3.01H122.458a7.171,7.171,0,0,0,7.235,6.019,8.193,8.193,0,0,0,6.851-3.778ZM164.75,31.749c-4.8,0-7.68,3.2-7.68,7.875s2.879,7.878,7.68,7.878,7.687-3.2,7.687-7.878-2.881-7.875-7.687-7.875m16.525,23.437h-8.838v-4.1h-.131a12.071,12.071,0,0,1-9.544,4.868c-9.224,0-15.3-6.657-15.3-16.071,0-8.646,5.377-16.585,14.216-16.585,3.973,0,7.684,1.087,9.861,4.1h.126V9.577h9.609Zm64.809.018h-9.6V40.17c0-3.585-.064-8.2-4.993-8.2-5,0-5.765,3.906-5.765,7.939V55.2h-9.6V24.287h9.216v4.225h.129a10.1,10.1,0,0,1,9.093-4.994c9.73,0,11.524,6.4,11.524,14.726Zm-40.79-35.143a5.571,5.571,0,1,1,5.57-5.571,5.571,5.571,0,0,1-5.57,5.571m4.8,35.143h-9.61V24.287h9.61ZM250.87,0H195.66a4.728,4.728,0,0,0-4.781,4.67V60.113a4.731,4.731,0,0,0,4.781,4.675h55.21a4.741,4.741,0,0,0,4.8-4.675V4.67A4.738,4.738,0,0,0,250.87,0m12.173,56.411a4.418,4.418,0,1,0,.085,0h-.085m0,8.33a3.874,3.874,0,1,1,3.809-3.938v.065a3.791,3.791,0,0,1-3.708,3.871h-.1"/></svg>