<svg xmlns="http://www.w3.org/2000/svg" xmlns:xlink="http://www.w3.org/1999/xlink" width="1508.202" height="139.316" viewBox="0 0 1508.202 139.316"><defs><clipPath id="a"><rect width="94.723" height="132.182" fill="none"/></clipPath><clipPath id="b"><rect width="127.925" height="126.153" fill="none"/></clipPath></defs><g transform="translate(-201.798 -62.009)"><g transform="translate(1615.277 62.009)"><g clip-path="url(#a)"><path d="M34.352,120.448a1.742,1.742,0,0,0-.025.35c0-.041.01-.083.014-.124,0-.075.008-.15.011-.226" transform="translate(-12.469 -30.025)"/><path d="M112.972,76.939l0,0c.03.028.043.041.032.037.051.05.123.111.2.171-.078-.07-.155-.14-.231-.21" transform="translate(-41.038 -19.179)"/><path d="M97.046,62.324c-.029-.017-.064-.036-.106-.057l.051.031.055.026" transform="translate(-35.214 -15.522)"/><path d="M36.115,145.8a4.354,4.354,0,0,0,.074.674c-.026-.2-.048-.4-.065-.6,0-.025-.006-.047-.009-.071" transform="translate(-13.119 -36.344)"/><path d="M99.1,63.242a.653.653,0,0,0-.1-.041l.034.018.062.023" transform="translate(-35.965 -15.755)"/><path d="M65.006,77.93l-.013.011-.167.162a2.657,2.657,0,0,0,.252-.236l-.073.063" transform="translate(-23.548 -19.411)"/><path d="M55.275,90.7l-.007.014.029-.043-.022.029" transform="translate(-20.076 -22.603)"/><path d="M99.857,145.987l-.02-.015c.1.094.134.131.02.015" transform="translate(-36.266 -36.388)"/><path d="M103.236,148.5l-.6-.545c.2.178.4.363.6.545" transform="translate(-37.284 -36.883)"/><path d="M103.7,148.793c-.039-.035-.076-.071-.116-.106l0,0Z" transform="translate(-37.625 -37.064)"/><path d="M107.548,150.726a1.417,1.417,0,0,0,.413.187l-.413-.187" transform="translate(-39.068 -37.573)"/><path d="M106.328,92.557a25.615,25.615,0,0,0-1.063-2.981,27.708,27.708,0,0,0-1.1-3.557c-.568-1.108-1.233-2.146-1.784-3.267-.974-1.854-1.706-5.891-5.232-8.521-.2-.141-.394-.273-.586-.419a43.937,43.937,0,0,0-3.41-3.554,8.4,8.4,0,0,0-2.113-1.083c-.127-.066-.253-.134-.379-.2.048.033.1.068.157.1-.079-.038-.168-.085-.277-.145a.391.391,0,0,1-.038-.043c-.054-.03-.108-.057-.162-.087a13.992,13.992,0,0,0-1.964-.853,13.708,13.708,0,0,0-2.485-1.405c-2.158-.9-2.593-.607-3.58-1.044-.149-.086-.3-.169-.452-.247-.019-.014-.064-.041-.166-.1-1.864-1.409-4.111-1.533-6.166-2.34.057.029.12.066.172.1-.077-.044-.156-.082-.235-.122l-.075-.027a.183.183,0,0,1,.042.01q-.212-.106-.429-.2a6.152,6.152,0,0,1-.541-.334c-.078-.047-.161-.075-.241-.114.086.05.1.065-.055-.026-.085-.039-.166-.088-.253-.119a1.82,1.82,0,0,1,.2.089l-.062-.038a3.354,3.354,0,0,0-2.788-.386,6.062,6.062,0,0,1-1.22.289,11.428,11.428,0,0,0-2.269-.46,32.285,32.285,0,0,0-5.235.953,14.874,14.874,0,0,0-3.551,1.439c-1.517.735-3.213,1.043-4.57,2.18a23.851,23.851,0,0,0-1.708,1.674c-1.659,1.36-3.575,2.271-4.985,4.031a13.028,13.028,0,0,0-1.3,1.96c-.162.318-.55.966-.775,1.342-.027.035-.052.073-.078.108-1.331,1.866-3.149,3.233-4.152,5.418-.748,1.586-1.359,3.263-1.971,4.931,0-.016.012-.038.015-.049q-.12.3-.239.594C38.363,88,37.327,89.832,36.6,91.862a33.146,33.146,0,0,0-1.733,7.051,24.525,24.525,0,0,0-.469,4.948c-.013.34-.021.527-.023.609-.034.282-.066.562-.09.843-.01.144-.015.289-.018.433.016-.116.037-.238.057-.346-.026.191-.047.381-.067.573,0,.054,0,.11-.008.164a.245.245,0,0,1-.007-.041c-.242,2.38-.105,4.8-.11,7.193.022.213.049.426.074.64.041.522.108,1.04.166,1.56,0,.023.007.038.011.059.032.429.072.857.137,1.28,0,.014,0,.027,0,.041a13.688,13.688,0,0,0,.161,1.64c.024.243.046.486.074.728a2.857,2.857,0,0,0,.041.518c.018.529.2,1.837.307,2.465.121,1.171.017.519.275,2.557l0-.029c0,.034.008.067.011.1.025.191.051.4.082.639a.123.123,0,0,1-.017-.037,13.591,13.591,0,0,0,.888,3.339c.114.35.066.187-.02-.077a39.109,39.109,0,0,0,1.706,4.02c1.52,2.6,1.195,3.655,3.879,7.315.108.1.21.2.305.285l.007.007a29.776,29.776,0,0,0,2.414,1.957l.013.012c1.235,1.146,2.223,2.607,3.5,3.689,1.754,1.456,3.966,1.551,6.037,1.5a6.489,6.489,0,0,0,5.07-2.373c.557-.52,1.089-1.074,1.607-1.646l-.214.185a13.324,13.324,0,0,0,2.183-2.752,27.343,27.343,0,0,0,1.951-3.573,18.807,18.807,0,0,0,.7-2.155c.459-1.2.367-.9,1.049-2.82.01-.02.053-.134.153-.4a4.043,4.043,0,0,1,.446-.833c.264-.407.552-.86.741-1.161.092-.131.183-.263.279-.39a23.683,23.683,0,0,0,2.2-3.859c.046-.075.07-.116.081-.136.1-.152.2-.3.3-.456l.005,0-.269.411a4,4,0,0,1,.507-.631l.157-.146.224-.215c-.112.107-.427.4-.6.55.284-.247.552-.517.825-.78.166-.126.339-.24.5-.371.256-.161.5-.345.757-.507a2.44,2.44,0,0,1,.243-.081c.163-.025.325-.056.487-.086.125.085.25.174.38.248.661.484,1.361.9,2.01,1.4l-.125-.122a17.059,17.059,0,0,0,1.5,1.233l.087.071.045.052c.283.283.583.544.881.8.137.125.274.249.418.361a11.754,11.754,0,0,0,2.107,1.169c-.085-.047-.165-.094-.232-.134a8.8,8.8,0,0,0,3.259,1.035l-.942-.149a21.628,21.628,0,0,0,7.21.18,3.318,3.318,0,0,0-.488.079,16.057,16.057,0,0,0,1.929-.229,5.425,5.425,0,0,0,2.611-1.037l.091-.083c.472-.417.952-.824,1.4-1.271a7,7,0,0,1,.872-.531,12.352,12.352,0,0,0,4-3.028c.932-1.328,1.634-2.843,2.478-4.243,2.319-3.765,2.254-3.671,3.219-6.828a45.074,45.074,0,0,0,.817-11.035,33.628,33.628,0,0,0-.765-8.647m-7.1,18.216c-.036.1-.074.2-.113.313l0-.006c-1.064,2.156-2.457,4.075-3.552,6.215-.077.12-.147.246-.217.372l-.1.109c-.366.282-.769.5-1.141.768l-.083.055a9.635,9.635,0,0,0-2.5,1.586c-.1.088-.195.181-.292.272-.008.008-.017.014-.025.023l.018-.017c-.085.08-.168.162-.251.245-.124.107-.249.211-.371.321-.045.011-.09.018-.134.026l-.1.011a9.181,9.181,0,0,0-1.09.121c-1.467.051-2.948.075-4.416-.014-.008,0-.015,0-.023-.005l-.114-.019a1.043,1.043,0,0,1-.159-.033c-.753-.258-1.668-.63-.627-.126-.22-.11-.443-.213-.665-.319a7.655,7.655,0,0,1-.935-.6,11.813,11.813,0,0,0-1.588-1.385,6.719,6.719,0,0,0-.607-.468,11.411,11.411,0,0,0-1.827-1.366,9.846,9.846,0,0,0-3.365-1.81,5.781,5.781,0,0,0-2.94.092c-.015.005-.015.007-.025.011a4.455,4.455,0,0,0-1.616.482,11.67,11.67,0,0,0-3.657,2.656c-.019.023-.023.029-.032.04a6.082,6.082,0,0,0-.576.527l-.036.033.036-.032a10.161,10.161,0,0,0-1.219,1.622,31.446,31.446,0,0,0-1.817,3.287c-.655.891-1.242,1.846-1.833,2.8-.1.154-.2.3-.3.459a26.294,26.294,0,0,0-1.432,3.65q.179-.5.358-1c-.2.4-.56,1.4-.753,1.959-1.009,2.55-.031,1.038-1.608,3.707-.177.312-.36.619-.543.928a17.77,17.77,0,0,1-2.476,2.715c-.059.053-.119.1-.18.152-.683.011-1.366.015-2.047-.029l-.158-.048a28.228,28.228,0,0,0-5.287-5.058c-.333-.58-.648-1.176-.93-1.791-.087-.249-.229-.462-.334-.7a14.882,14.882,0,0,0-1.019-2.287,30.492,30.492,0,0,1-1.857-4.162c-.047-.185-.09-.372-.14-.557-.049-.2-.1-.405-.142-.611-.025-.227-.044-.456-.075-.682q-.05-.573-.118-1.145a23.851,23.851,0,0,0-.29-2.44c-.011-.065-.02-.131-.031-.2-.028-.327-.059-.652-.1-.978q-.061-.7-.145-1.4a16.4,16.4,0,0,0-.169-1.768c-.045-.583-.1-1.165-.2-1.739-.008-.074-.013-.146-.022-.221,0-.043-.01-.085-.015-.127.025.125.035.137,0-.11,0-2.008-.034-4.019.024-6.025a15.267,15.267,0,0,0,.14-1.68v-.011c.1-.969.116-1.944.146-2.92.017-.125.036-.25.051-.375-.005.125,0,.14.008-.074l.01-.089A37.6,37.6,0,0,1,43.025,95.3a17.062,17.062,0,0,0,.734-1.8c-.034.127-.033.149.04-.084a39.637,39.637,0,0,0,1.907-4.633c.309-.956.251-.777.921-2.847.133-.433.261-.869.4-1.3.132-.318.35-.823.555-1.2-.2.307-.394.563-.042.054.016-.023.033-.045.049-.068a2.57,2.57,0,0,1,.213-.336c-.047.083-.118.2-.191.306a30.655,30.655,0,0,0,3.07-4.677c.469-.922.784-1.947,1.3-2.832a7.066,7.066,0,0,1,1.01-1.215c.227-.215.45-.435.673-.655-.147.118-.18.11.167-.162.055-.055.111-.107.166-.161-.026.031-.053.059-.081.089,2.2-1.869,2.117-2.707,3.568-4.217.209-.141.953-.7,1.237-.836,1.339-.806,2.5-1.952,3.795-2.826.734-.435,1.444-.816,2.094-1.149.029,0,.055,0,.084.01a14.618,14.618,0,0,1,2.905.245,26.065,26.065,0,0,0,4.256.384c.055.011.11.02.165.032.022.005.042.017.064.023a11.106,11.106,0,0,0,2.9,2.192,26.184,26.184,0,0,0,2.429,1.218l.029.014a10.592,10.592,0,0,1,.988.643c.007,0,.013.011.02.017v0a14.713,14.713,0,0,0,2.078,1.676c2.327,1.179,1.822.625,3.282,1.537.331.224.518.362.547.376-.015-.014-.022-.025-.033-.037l-.031-.029.029.027c-.008-.01-.022-.023-.027-.031.1.092.206.187.308.282l-.05-.041c.07.063.139.13.209.191l.013.008a6.19,6.19,0,0,0,1.1.872,6.976,6.976,0,0,0,.783.441c-.032-.01-.031-.009.012.006l.209.1c.508.284.97.67,1.472.972.378.225.769.423,1.13.679.415.468.548.712.171.135l.02.017a19.691,19.691,0,0,0,3.373,4.036c.2.177.408.338.616.5.073.08.14.167.206.256.16.26.314.524.45.8.262.623.575,1.217.827,1.846A22.052,22.052,0,0,0,96.977,88.3c.324.633.72,1.219,1.021,1.867.167.589.3,1.191.472,1.779,1.155,3.33.991,2.149,1.492,5.459.072,1.078.027,2.164.042,3.245-.022,1.957.05,3.92-.047,5.875-.025.215-.048.431-.069.645-.07.475-.132.951-.229,1.42a14.683,14.683,0,0,1-.431,2.18" transform="translate(-12.387 -15.324)"/><path d="M122.674,71.344c.052.029.106.056.158.085-.117-.079-.191-.128-.158-.085" transform="translate(-44.559 -17.781)"/><path d="M92.6,145.466h0" transform="translate(-33.638 -36.253)"/><path d="M76.14,170.671l-.013.014c.076-.066.105-.09.013-.014" transform="translate(-27.654 -42.533)"/><path d="M22.012,82.785a13.046,13.046,0,0,0-1.919-4.258c-.076-.12-.212-.33-.357-.551l.026.041a32.442,32.442,0,0,0-2.8-3.579c-.6-.72-1.287-1.327-1.9-2.025a9.845,9.845,0,0,0-1.514-1.665,12.628,12.628,0,0,0-4.709-2.519l-.024-.009c-1.037-.613-2.1-1.3-3.3-.991-2.075.343-3.975,1.4-4.479,3.135a17.956,17.956,0,0,0-.318,2.591,20.428,20.428,0,0,1-.153,2.3,8.53,8.53,0,0,0-.548,3.379A29.976,29.976,0,0,0,2.5,87.121c.586,1.224,1.265,2.375,1.941,3.531.406.7.7,1.477,1.14,2.149l.137.215a9.2,9.2,0,0,0,3.742,3.561,13.789,13.789,0,0,0,2.053,1.238c.108.056.215.11.324.159.007,0,.013.007.005,0a4.4,4.4,0,0,0,1.513.4,8.533,8.533,0,0,0,6.026-1.17,7.1,7.1,0,0,0,2.987-4.64c.62-3.385,1.154-5.01-.359-9.777M7.026,86.646a27,27,0,0,1-4.451-6.355l-.042-.077a7.327,7.327,0,0,1-.314-1.07,5.325,5.325,0,0,1-.03-2.6,5.645,5.645,0,0,1,.423-1.726,8.1,8.1,0,0,0,.378-1.263c.116-.428.287-.783.441-1.43.039-.087.078-.175.12-.261l.028-.025a3.652,3.652,0,0,1,2.12-.236l.053.039a15.7,15.7,0,0,0,1.236,1.117c2.272,1.495.9.294,2.707,2.021l.413.376c-.035-.029-.027-.016.078.09l.164.208c.722,1.259,1.571,2.4,2.4,3.56a28.582,28.582,0,0,1,2.746,4.648c.259.947.523,1.892.733,2.858q.135.546.238,1.1c0,.336-.012.671-.037,1.005q-.049.407-.082.814c-.052.35-.148.993-.249,1.471-.139.08-.282.155-.418.242l-.011.006-.179.079-.246.122c-.113.047-.227.093-.342.135-.479.032-.959.079-1.438.068a9.361,9.361,0,0,1-1.033-.379,19.13,19.13,0,0,0-2.094-.884c-.238-.158-.486-.352-.629-.463-.038-.04-.079-.078-.117-.118-.933-.933-1.624-2.144-2.562-3.076" transform="translate(0 -16.739)"/><path d="M30.829,81.423c-.1-.162-.232-.36-.292-.441.089.132.192.288.292.441" transform="translate(-11.093 -20.187)"/><path d="M42.73,39.93c-.238-1.767-.792-2.989-1.113-4.975-.1-.494-.158-.785-.18-.878a10.752,10.752,0,0,0-.624-2.938c-.264-.864-.7-1.762-1.571-3.857a20.148,20.148,0,0,0-3.563-5.161c-1.037-1.167-1.765-2.712-2.974-3.653a8.781,8.781,0,0,0-6.309-1.407,6.876,6.876,0,0,0-5.545,3.552,15.366,15.366,0,0,0-2.2,5.265,11.017,11.017,0,0,0-.171,1.854l.074-.655c-.027.219-.048.439-.072.659,0,.029-.008.059-.015.11a11.2,11.2,0,0,0-.092,2.2,4,4,0,0,1,.046-.422,12.039,12.039,0,0,0,.4,4.69,3.739,3.739,0,0,0,.628,1.764c.074.275.155.558.252.86a18.025,18.025,0,0,0,.986,4.363c1.271,2.788,1.419,3.174,2.281,5.455.041.121.095.273.15.424.092.276.277.809.381,1.075a14.063,14.063,0,0,0,1.735,3.395,31.541,31.541,0,0,0,1.807,2.867c1.739,2.073,3.172,4.829,5.751,5.5a6.843,6.843,0,0,0,5.153-.8c2.546-1.411,3.036-3.847,3.452-4.982A30.532,30.532,0,0,0,42.831,46.9a56.323,56.323,0,0,0-.1-6.973M31.2,50.321c-.143-.14-.317-.3-.465-.433a10.964,10.964,0,0,1-.787-.922c-1.151-1.449-1.587-1.787-1.771-2.1a23.97,23.97,0,0,1-1.52-2.579c-.443-.724-.842-1.483-1.307-2.187l-.093-.155c-1.075-1.814-1.337-1.593-2.435-3.811-.271-.513-.345-1.1-.877-2.384-.013-.026-.027-.052-.04-.078a4.163,4.163,0,0,0-.032-2.3,8.224,8.224,0,0,1,.281-2.908,19.08,19.08,0,0,1,.559-2.758c.038-.136.083-.27.126-.4.006-.017.01-.025.018-.043a10.38,10.38,0,0,1,.456-.96c.106-.143.209-.286.308-.435.033-.04.115-.143.276-.344a8.521,8.521,0,0,1,1.038-1.345c.139-.1.321-.227.5-.332h0c.129-.059.259-.113.39-.161a2.381,2.381,0,0,1,.4.018c.532.047,1.066.085,1.6.141a3.776,3.776,0,0,1,.5.173c.072.044.143.089.218.126l.108.054c.127.067.254.134.378.208q.755,1.32,1.585,2.578c-.017-.027-.034-.054-.043-.071.03.053.065.1.1.152l.027.043-.02-.031c.5.829,1.082,1.569,1.644,2.333,1.327,2.428.593,1.441,1.491,3.476.117.288.148.357.134.312.076.206.158.408.238.611.011.031.02.063.031.094-.039-.1-.05-.116.009.05.353,1.4.038.847.74,4.059.146,1.173.6,2.242.819,3.389,0,1.642,0,3.284.024,4.925,0,.371,0,.742-.018,1.112a33.46,33.46,0,0,1-1,5.136l-.087.059c-.194.077-.454.176-.692.245-.036,0-.071,0-.106,0l-.106-.03c-.1-.071-.2-.146-.3-.222s-.172-.164-.26-.242c-.232-.269-1.656-1.708-2.034-2.061" transform="translate(-6.663 -4.227)"/><path d="M37.662,30.4c-.018-.027-.035-.055-.053-.082l.061.094-.008-.012" transform="translate(-13.662 -7.557)"/><path d="M88.47,31.218c-.013.121-.029.239-.042.361-.08.7-.011.106.042-.361" transform="translate(-32.109 -7.782)"/><path d="M88.525,31.114v0c0,.026-.006.054-.009.082,0-.026.006-.052.009-.077" transform="translate(-32.154 -7.755)"/><path d="M85.877,9.766a14.909,14.909,0,0,0-1.492-3.2,22.536,22.536,0,0,0-2.358-3.3c-.255-.4-.52-.8-.8-1.181A6.314,6.314,0,0,0,75.966.023a17.122,17.122,0,0,0-4,.917A5.831,5.831,0,0,0,68.6,4.994c-.226,1.14-.588,1.027-1.756,3.369a20.492,20.492,0,0,0-.919,3.1c-.077.2,0,.013.066-.174a7.362,7.362,0,0,0-.432,1.573c-.042.3-.075.544-.1.748a10.356,10.356,0,0,0-.332,1.931c-.011.041-.021.079-.032.121a46.629,46.629,0,0,0-1.14,8.823,35.554,35.554,0,0,0,.526,4.1c0,.123.009.246.023.368a15.531,15.531,0,0,0,1.561,6.083,17.352,17.352,0,0,0,2.043,3.29c.077.09.146.188.216.284.117.176.252.367.374.513a8.721,8.721,0,0,0,1.743,1.553,8.5,8.5,0,0,0,4.229,1.067,7.005,7.005,0,0,0,5.526-1.7c1.657-1.227,2.385-3.413,3.413-5.27A29.343,29.343,0,0,0,86.64,23.923c.048-.417.087-.833.1-1.254.034-1.538.825-8.33-.86-12.9m-6.025,9.089c-.025,1.725-.06,1.065-.252,4.5.011-.1.021-.186.028-.248-.006.049-.01.1-.016.146s-.008.071-.012.106v.017c-.03.254-.055.508-.083.763,0-.026-.005.008-.021.146a46.686,46.686,0,0,1-1.119,4.606c-.583,1.412-1.259,2.766-1.829,4.188a6.726,6.726,0,0,1-.281.646c-.059.068-.112.14-.174.2-.087.062-.212.149-.355.242-.118.047-.237.087-.357.125a16.214,16.214,0,0,1-2.407.05l-.064-.027a2.716,2.716,0,0,1-.3-.212c-.034-.031-.071-.059-.106-.087a20.731,20.731,0,0,1-1.914-2.179l-.136-.189-.013-.02c-.1-.182-.212-.361-.323-.538a8.248,8.248,0,0,1-.628-1.2c-.028-.092-.059-.182-.086-.274-.45-1.746-.939-3.471-1.5-5.177-.184-.789-.334-2.947-.509-5.3-.02-.5-.018-.989-.012-1.484a1.973,1.973,0,0,0,.937-1.521c.6-1.887.175-1.341,1.009-2.917A22.617,22.617,0,0,1,70.4,10.963a17.629,17.629,0,0,0,2.171-2.748c.239-.392.411-.829.623-1.237l.08-.034.048-.012a22.306,22.306,0,0,1,2.656-.159c.052,0,.1.012.156.017.163.042.323.095.483.152l.081.051a12.469,12.469,0,0,0,.9,1.523l.039.06a15.356,15.356,0,0,1,1.487,2.7c.094.215.179.435.263.657.037.1.073.206.11.308-.252-.708.188.563.316,1.341.162,1.751.032,3.518.036,5.278" transform="translate(-23.23 0)"/><path d="M98.357,12.932c.007.019.013.039.02.058.021.059.043.117.064.176-.027-.077-.056-.158-.083-.234" transform="translate(-35.729 -3.224)"/><path d="M98.516,13.32c-.009-.026-.018-.051-.028-.077.1.286.18.5.028.077" transform="translate(-35.776 -3.301)"/><path d="M98.3,12.833c-.01-.026-.017-.054-.027-.08-.14-.39-.07-.193.027.08" transform="translate(-35.668 -3.124)"/><path d="M114.437,15.363c.046-.069.092-.14.141-.208-.063.092-.106.155-.141.208" transform="translate(-41.57 -3.778)"/><path d="M129.038,22.608c-.046-.444-.1-.88-.124-1.059a17.963,17.963,0,0,0-1.1-4.844c-.006-.017-.013-.035-.02-.052-.136-.422-.461-1.385-.609-1.779a8.069,8.069,0,0,0-1.626-2.543c-2.348-2.351-5.578-2.719-8.524-2.208-2.681.407-2.822,1.638-3.821,2.3a6.88,6.88,0,0,0-1.163,1.291c-.222.369-.418.629-.228.342a5.34,5.34,0,0,0-.87,1.839,20.862,20.862,0,0,0-.616,3.38c-.071.173-.144.365-.223.6.218-.61-.2.489-.257.718a4.233,4.233,0,0,0-.085.7c-.3,1.01-.707,2.347-.645,2.087a36.767,36.767,0,0,0-1.889,11.252,21.012,21.012,0,0,0,.314,2.881,17.125,17.125,0,0,0,1.075,3.389l.074.188c.076.211.152.421.234.63a12.464,12.464,0,0,0,1.211,3.357,8.4,8.4,0,0,0,2.18,2.4c.181.161.039.029-.133-.128a6.746,6.746,0,0,0,1.644,1.082c.146.073.35.173.569.276a8.772,8.772,0,0,0,2.1.276c1.786-.276,2.036-.192,4.765-2.013a9.563,9.563,0,0,0,2.932-4.1c.068-.136.135-.273.206-.408a23.344,23.344,0,0,0,3.642-8.688,48.112,48.112,0,0,0,.888-7.165,21.75,21.75,0,0,0,.108-4m-7.3,6.86a51.985,51.985,0,0,1-1.446,5.544c-.162.378-.332.752-.493,1.131-.469,1.1-.613.554-1.751,3.32-.113.3-.216.6-.35.885-.121.155-.255.3-.387.437-.35.27-.716.508-1.079.751l-.152.065c-.042.008-.081.025-.123.036-.071.005-.143,0-.215.007-.081-.029-.164-.057-.245-.09l-.071-.046a8.145,8.145,0,0,1-.773-.522l-.072-.1a5.432,5.432,0,0,1-.444-.872,28.171,28.171,0,0,0-1.842-3.6l-.023-.051c.036.1.062.178.074.217.055.145.116.308.135.376-.045-.124-.09-.247-.134-.372.014.047,0,.012-.062-.164.015.041.033.089.053.143-.027-.078-.055-.155-.083-.233h0c-.011-.03-.02-.056-.032-.092-.025-.069-.05-.139-.075-.207.013.033.025.065.038.1-.053-.158-.107-.308-.155-.434a18.437,18.437,0,0,1-.478-1.9,38.1,38.1,0,0,1-.265-5.345,10.251,10.251,0,0,1,0-1.967c-.006.031-.012.082-.018.137.12-1.462.242-2.475.372-4.005a2.967,2.967,0,0,0,.7-.908c.828-1.9,1.061-3.516,1.9-4.6.12-.122.242-.242.363-.363.107-.081.217-.158.325-.236.593-.375,1.2-.721,1.785-1.105.032-.01.065-.017.1-.026h.027a10.222,10.222,0,0,1,3.051.492c.087.034.176.058.265.086a9.742,9.742,0,0,1,1.262.837,1.866,1.866,0,0,1,.227.27l.066.1v0c-.032-.05-.025-.026.036.125.07.233.122.474.171.715.693,3.164.59,2.524.641,4.292a11.162,11.162,0,0,1-.017,1.6c-.012.079-.027.173-.045.291-.486,3.469-.183,1.644-.762,5.293" transform="translate(-38.953 -2.473)"/><path d="M115.043,44.909c0,.011.005.016.009.026l.034.094.016.034c-.025-.071-.055-.153-.087-.236.009.029.019.056.028.083" transform="translate(-41.78 -11.174)"/><path d="M115.266,45.429v0l-.006-.017Z" transform="translate(-41.868 -11.319)"/></g></g><g transform="translate(201.798 75.171)"><g clip-path="url(#b)"><g clip-path="url(#b)"><path d="M57.937,0h6.385c1.318.163,2.633.365,3.955.46.325.024.673-.3,1.011-.46h2.128a32.961,32.961,0,0,0,3.6.815c1.674.2,3.369.2,5.054.3a17.263,17.263,0,0,0,3.628.2,13.205,13.205,0,0,1,9.082,1.733c3.247,1.9,6.506,3.794,9.866,5.465a29.865,29.865,0,0,1,11.419,9.737q2.3,3.29,4.591,6.594c.343.5.592.5,1.147.2,1.806-.987,3.673-1.856,5.529-2.747a1.559,1.559,0,0,1,2.333,1.446c.038,2.069.009,4.139.019,6.21a1.606,1.606,0,0,1-1.5,1.685,1.475,1.475,0,0,1-1.808-1.3c-.219-1-.407-2-.631-3.113a17.341,17.341,0,0,1-1.954.987c-.732.263-.661.624-.352,1.189,3.051,5.581,4.274,11.727,5.038,17.976.457,3.738.639,7.513.91,11.274a24.16,24.16,0,0,1-.675,9.261,22.974,22.974,0,0,0-1.058,5.473,46.12,46.12,0,0,1-3.553,14.79c-2.065,5.01-5.248,9.323-8.245,13.711-2.038,2.985-4.766,5.477-7.225,8.15a42.069,42.069,0,0,1-22.719,12.8c-5.192,1.109-10.469,1.857-15.739,2.5a78.152,78.152,0,0,1-18.86.122c-3.019-.366-5.821-1.705-8.912-1.833a15.066,15.066,0,0,1-4.492-1.409,41.467,41.467,0,0,1-4.262-1.924,2.864,2.864,0,0,1-.94-1.244,4.258,4.258,0,0,1-.241-1.136l-.208.358a9.27,9.27,0,0,1-2.343-.741,33.441,33.441,0,0,1-3.29-2.567c-2.019-1.671-4.135-3.243-5.993-5.089a45.306,45.306,0,0,1-3.946-4.975c-.415-.55-.219-.959.46-1.148a5.187,5.187,0,0,0,.942-.48l.1-.593c-1.968.913-2.052-1.155-3.357-1.857.05.751.082,1.246.143,2.15a14.433,14.433,0,0,1-1.2-1.18c-.638-.823-1.223-1.69-1.849-2.522-2.085-2.773-3.707-5.737-3.717-9.384,0-.276-.018-.663-.184-.81-1.415-1.246-1.339-3.129-1.957-4.71-.1-.25-.181-.635-.36-.7-1.273-.467-1.428-1.578-1.64-2.718a24.9,24.9,0,0,0-.691-2.411,2.511,2.511,0,0,0,.086-1.565c-.229-.843-.645-1.641-.8-2.493-.289-1.586-.447-3.2-.66-4.8V63.092a2.685,2.685,0,0,0,.2-.569C.8,57.17,2.4,52.082,3.987,46.984c.682-2.193,1.141-4.461,1.867-6.636A14.231,14.231,0,0,1,7.447,37.7c1.935-3.189,3.629-6.569,5.851-9.527,3.46-4.605,7.172-9.026,10.993-13.321A41.049,41.049,0,0,1,30.285,9.8a43.87,43.87,0,0,1,19.3-8.348Q53.76.724,57.937,0m10.49,31.042c.212-.38.416-.68.557-1.008A16.234,16.234,0,0,1,74.574,23,17.84,17.84,0,0,1,88.841,19.87,17.285,17.285,0,0,1,96,23.164a18.077,18.077,0,0,1,6.507,9.723c.268.962.763.964,1.368.654,1.694-.867,3.334-1.845,5.029-2.709.612-.312.77-.628.4-1.208-1.764-2.764-3.413-5.617-5.335-8.259a48.274,48.274,0,0,0-4.338-4.624,17.01,17.01,0,0,0-6.378-4.449c-1.849-.683-3.694-1.375-5.547-2.045A11.4,11.4,0,0,0,84.476,9.2,32.56,32.56,0,0,1,79.39,8.6c-2.9-.554-5.853-.775-8.781-1.164-3.083-.409-6.163-1.2-9.245-1.21a45.678,45.678,0,0,0-22.278,5.445c-4.093,2.226-8.326,4.257-11.53,7.871-2.217,2.5-4.6,4.874-6.591,7.556-2.118,2.854-3.768,6.072-5.785,9.013A51.717,51.717,0,0,0,8.335,51.862a30.023,30.023,0,0,0-.541,13.231c.735,4.329,2.134,8.535,3.01,12.845.839,4.122,2.751,7.716,4.634,11.357,2.206,4.265,5.293,7.825,8.406,11.373a64.008,64.008,0,0,0,10.163,9.579,30.223,30.223,0,0,0,10.074,5.179c3.544.934,7.014,2.546,10.6,2.846a89.621,89.621,0,0,0,15.9-.188c4.677-.444,9.28-1.723,13.917-2.631a22.509,22.509,0,0,0,13.639-8.7c3.224-4.129,6.309-8.376,9.379-12.629,4.4-6.1,6.536-13.148,7.841-20.5.473-2.664.681-5.382.927-8.083a29.043,29.043,0,0,0,.266-5.924c-.511-4.338-1.159-8.674-2.061-12.941-.842-3.983-2.083-7.875-3.151-11.807-.136-.5-.317-1-.964-.654-2.273,1.217-4.542,2.443-6.791,3.706a1.325,1.325,0,0,0-.488.823c-.181.859-.279,1.737-.425,2.6a16.909,16.909,0,0,1-4.372,8.707c-2.482,2.729-5.474,4.957-9.031,5.32-3.9.4-7.894.568-11.772-1.235A16.734,16.734,0,0,1,68.1,42.821a48.066,48.066,0,0,1-.894-5.862c-.3-1.989-1.733-2.7-3.37-3.271a2.822,2.822,0,0,0-3.076.863c-1.189,1.085-1.383,2.533-1.611,4.012a33.077,33.077,0,0,1-.958,5.18c-2.038,6.267-6.6,9.784-12.5,11.739-3.2-.147-6.463.616-9.581-.508a19.261,19.261,0,0,1-5.37-2.541A18.431,18.431,0,0,1,25.2,30.267c2.956-6.817,8.406-10.246,15.61-10.759a17.432,17.432,0,0,1,6.93,1.049,14.329,14.329,0,0,1,6.046,3.868,46.133,46.133,0,0,1,4.248,6.1c.4.624.537.692,1.23.363,3-1.422,6.043-1.917,9.166.152M55.581,37.918c-.217-1.389-.374-2.792-.662-4.166a11.094,11.094,0,0,0-3.313-5.846c-1.6-1.5-2.884-3.323-5.433-3.748-4.552-.759-8.8-.73-12.667,2.223a14.531,14.531,0,0,0-5.462,8.742,13.093,13.093,0,0,0,.452,6.84c2.657,7.891,9.716,11.414,17.041,9.548C51.222,50.061,55.7,44.18,55.581,37.918M85.588,51.953c7.027.3,13.323-5.932,13.658-13.535.324-7.34-5.268-14.847-13.751-14.823A14.075,14.075,0,0,0,71.747,36.618c-.629,9.092,6.368,15.5,13.841,15.335"/><path d="M0,69.669c.213,1.6.371,3.212.66,4.8.155.852.572,1.65.8,2.493a2.518,2.518,0,0,1-.086,1.565,25.034,25.034,0,0,1,.691,2.411c.213,1.14.368,2.251,1.64,2.718.179.065.262.451.36.7.618,1.582.542,3.464,1.957,4.71.166.146.183.533.184.81.011,3.647,1.632,6.61,3.717,9.384.626.833,1.211,1.7,1.849,2.522a14.433,14.433,0,0,0,1.2,1.18c-.06-.9-.093-1.4-.143-2.15,1.305.7,1.389,2.77,3.357,1.857l-.1.593a5.141,5.141,0,0,1-.942.48c-.679.189-.875.6-.46,1.148a45.356,45.356,0,0,0,3.946,4.976c1.858,1.846,3.974,3.418,5.993,5.089a33.632,33.632,0,0,0,3.29,2.567,9.288,9.288,0,0,0,2.343.741l.208-.358a4.3,4.3,0,0,0,.241,1.136,2.864,2.864,0,0,0,.94,1.244,41.408,41.408,0,0,0,4.262,1.924,15.05,15.05,0,0,0,4.493,1.409c3.091.128,5.892,1.467,8.912,1.833a78.148,78.148,0,0,0,18.86-.122c5.27-.638,10.548-1.386,15.739-2.5a42.072,42.072,0,0,0,22.719-12.8c2.459-2.673,5.187-5.165,7.225-8.15,3-4.388,6.179-8.7,8.245-13.711a46.132,46.132,0,0,0,3.553-14.79,23,23,0,0,1,1.058-5.473,24.15,24.15,0,0,0,.675-9.261c-.271-3.761-.452-7.536-.91-11.274-.764-6.249-1.988-12.394-5.039-17.976-.308-.564-.38-.926.352-1.188a17.431,17.431,0,0,0,1.954-.987c.224,1.112.412,2.116.631,3.113a1.475,1.475,0,0,0,1.808,1.3,1.606,1.606,0,0,0,1.5-1.685c-.01-2.07.019-4.14-.019-6.21a1.559,1.559,0,0,0-2.334-1.446c-1.855.89-3.723,1.759-5.529,2.747-.555.3-.8.3-1.147-.2q-2.281-3.308-4.591-6.594a29.861,29.861,0,0,0-11.419-9.737c-3.36-1.671-6.619-3.566-9.866-5.465A13.207,13.207,0,0,0,83.695,1.31a17.288,17.288,0,0,1-3.627-.2c-1.685-.1-3.381-.1-5.054-.3A32.995,32.995,0,0,1,71.416,0h56.509V126.153H0V69.669" fill="#fff"/><path d="M57.937,0q-4.176.728-8.353,1.456A43.87,43.87,0,0,0,30.285,9.8a41.021,41.021,0,0,0-5.994,5.047c-3.821,4.295-7.533,8.715-10.993,13.32-2.223,2.958-3.916,6.338-5.851,9.527a14.231,14.231,0,0,0-1.592,2.649c-.725,2.175-1.185,4.443-1.867,6.636C2.4,52.082.8,57.17.2,62.523a2.676,2.676,0,0,1-.2.569V0Z" fill="#fff"/><path d="M140.725,0c-.337.163-.686.484-1.011.46-1.322-.1-2.638-.3-3.955-.46Z" transform="translate(-71.437)" fill="#fff"/><path d="M76.542,37.569c-3.123-2.069-6.17-1.574-9.167-.151-.693.329-.831.261-1.23-.363a46.207,46.207,0,0,0-4.247-6.1,14.326,14.326,0,0,0-6.047-3.868,17.413,17.413,0,0,0-6.93-1.048c-7.2.513-12.654,3.942-15.61,10.759a18.43,18.43,0,0,0,5.543,22.166,19.277,19.277,0,0,0,5.37,2.54c3.119,1.124,6.383.361,9.581.508,5.9-1.955,10.458-5.472,12.5-11.738a33.148,33.148,0,0,0,.958-5.18c.228-1.479.423-2.927,1.611-4.012a2.823,2.823,0,0,1,3.076-.863c1.636.57,3.072,1.283,3.37,3.272a47.971,47.971,0,0,0,.894,5.862,16.735,16.735,0,0,0,9.393,11.323c3.878,1.8,7.868,1.633,11.772,1.235,3.557-.364,6.549-2.592,9.031-5.321a16.914,16.914,0,0,0,4.372-8.706c.145-.868.243-1.746.424-2.605a1.33,1.33,0,0,1,.488-.823c2.249-1.263,4.518-2.488,6.791-3.706.646-.346.828.154.964.654,1.067,3.931,2.309,7.825,3.15,11.807.9,4.267,1.55,8.6,2.061,12.942a29.013,29.013,0,0,1-.267,5.924c-.245,2.7-.454,5.418-.927,8.082-1.3,7.352-3.44,14.4-7.841,20.5-3.07,4.252-6.155,8.5-9.379,12.628a22.509,22.509,0,0,1-13.639,8.7c-4.636.909-9.239,2.188-13.917,2.631a89.665,89.665,0,0,1-15.9.189c-3.582-.3-7.053-1.912-10.6-2.846a30.234,30.234,0,0,1-10.075-5.179A63.987,63.987,0,0,1,31.959,107.2c-3.113-3.548-6.2-7.108-8.406-11.373-1.883-3.642-3.8-7.235-4.634-11.358-.877-4.31-2.275-8.515-3.01-12.845a30.029,30.029,0,0,1,.542-13.23A51.722,51.722,0,0,1,23.3,42.636c2.017-2.941,3.667-6.159,5.785-9.014,1.99-2.682,4.374-5.053,6.591-7.555,3.2-3.614,7.437-5.645,11.53-7.871A45.677,45.677,0,0,1,69.48,12.751c3.083.008,6.161.8,9.245,1.21,2.928.388,5.884.61,8.781,1.164a32.56,32.56,0,0,0,5.085.607,11.418,11.418,0,0,1,3.233,1.044c1.853.67,3.7,1.362,5.547,2.045a17.011,17.011,0,0,1,6.379,4.449,48.207,48.207,0,0,1,4.338,4.624c1.922,2.642,3.571,5.495,5.335,8.259.37.579.211.9-.4,1.207-1.695.864-3.336,1.842-5.029,2.709-.605.31-1.1.308-1.368-.654a18.074,18.074,0,0,0-6.507-9.723A17.276,17.276,0,0,0,96.956,26.4a17.844,17.844,0,0,0-14.267,3.127,16.229,16.229,0,0,0-5.59,7.037c-.142.327-.345.627-.557,1.007M72.548,63.02c0-.094,0-.189,0-.283-1.536,0-3.072.016-4.608,0-4.568-.055-9.137-.2-13.7-.162-3.973.036-7.952.177-11.912.493a14.5,14.5,0,0,0-4.1,1.378,1.051,1.051,0,0,0-.636,1.571c.576,1.022.049,1.677-.627,2.305a6.991,6.991,0,0,0-1.353,7.143c1.3,2.857,2.649,5.7,3.75,8.645A22.549,22.549,0,0,0,48.87,95.671c3.769,2.329,7.643,4.492,11.567,6.534a27.829,27.829,0,0,0,7.429,3.015,30.105,30.105,0,0,0,8.674.1c6.921-.749,13.7-2.142,19.642-6.249a16.96,16.96,0,0,1,1.735-1.032c6.84-3.6,11.506-8.962,13.157-16.893,1.027-4.933,1.907-9.776-1.615-14.128a3.26,3.26,0,0,1-.441-.715c-.787-1.776-2.193-2.349-4-2.429-5.426-.238-10.847-.678-16.274-.826-5.394-.146-10.794-.032-16.191-.032" transform="translate(-8.115 -6.528)" fill="#fff"/><path d="M86.437,62.824c.12,6.263-4.359,12.143-10.043,13.591-7.326,1.867-14.385-1.657-17.041-9.548a13.1,13.1,0,0,1-.452-6.84,14.532,14.532,0,0,1,5.462-8.742c3.872-2.952,8.115-2.982,12.667-2.222,2.549.425,3.834,2.243,5.433,3.748a11.1,11.1,0,0,1,3.313,5.846c.288,1.374.445,2.776.662,4.166" transform="translate(-30.856 -24.906)" fill="#fff"/><path d="M165.228,76.707c-7.473.164-14.47-6.243-13.841-15.335a14.075,14.075,0,0,1,13.748-13.023c8.483-.024,14.075,7.483,13.751,14.823-.335,7.6-6.63,13.839-13.658,13.535" transform="translate(-79.64 -24.754)" fill="#fff"/><path d="M94.461,115.279c5.4,0,10.8-.114,16.191.032,5.428.147,10.848.588,16.274.826,1.81.08,3.216.653,4,2.429a3.261,3.261,0,0,0,.441.715c3.522,4.352,2.642,9.194,1.615,14.128-1.651,7.931-6.317,13.289-13.157,16.893a16.871,16.871,0,0,0-1.735,1.032c-5.94,4.107-12.721,5.5-19.642,6.249a30.1,30.1,0,0,1-8.674-.1,27.86,27.86,0,0,1-7.429-3.014c-3.924-2.041-7.8-4.2-11.567-6.534a22.553,22.553,0,0,1-9.512-11.563c-1.1-2.941-2.448-5.789-3.75-8.646a6.99,6.99,0,0,1,1.353-7.143c.677-.629,1.2-1.283.627-2.306a1.051,1.051,0,0,1,.636-1.57,14.5,14.5,0,0,1,4.1-1.378c3.96-.317,7.939-.457,11.912-.494,4.567-.042,9.136.107,13.7.163,1.536.019,3.072,0,4.608,0,0,.094,0,.188,0,.283M63.608,121.1l-.319.283a20,20,0,0,0,.9,3.076c1.966,4.19,4.012,8.341,6.039,12.5.653,1.34,1.357,1.431,2.3.293a16.494,16.494,0,0,1,4.985-3.988c4.43-2.381,9.227-3.135,14.13-3.4,5.162-.275,10.077,1.054,14.923,2.637,3.139,1.025,6.258,2.161,9.286,3.489,2.473,1.084,2.482,1.228,4.219-.96.149-.188.281-.391.425-.584,2.228-3,2.6-6.622,3.159-10.161.2-1.258-.813-1.923-2.152-1.824-1.994.148-4,.187-6,.225-1.293.024-2.592-.1-3.883-.048-5.7.244-11.418.933-17.1.693-6.3-.266-12.582-.428-18.879-.423-3.182,0-6.385.015-9.472-1.028-.846-.286-1.708-.525-2.562-.786m35.027,15.638A23.927,23.927,0,0,0,87.2,138.36c-3.221,1.359-6.247,3.213-9.346,4.876-.276.148-.68.564-.63.728a1.542,1.542,0,0,0,.742.794c1.855.963,3.7,1.952,5.609,2.8,2.428,1.079,4.9,2.041,7.648,1.466,3.082-.644,6.182-1.193,9.262-1.847,4.193-.891,7.853-3.031,11.419-5.349.977-.636.943-1.148-.144-1.547-1.585-.58-3.218-1.034-4.852-1.461-3.229-.843-6.473-1.631-8.274-2.082" transform="translate(-30.027 -58.788)"/><path d="M70.521,127.679c.855.261,1.716.5,2.563.785,3.086,1.044,6.289,1.031,9.471,1.029,6.3-.005,12.584.156,18.88.422,5.68.24,11.4-.449,17.1-.693,1.292-.055,2.589.072,3.883.048,2-.038,4-.078,6-.225,1.34-.1,2.352.566,2.152,1.824-.562,3.539-.931,7.163-3.159,10.161-.144.193-.276.4-.425.584-1.736,2.188-1.746,2.045-4.218.96-3.028-1.328-6.147-2.464-9.286-3.489-4.846-1.583-9.761-2.912-14.923-2.637-4.9.262-9.7,1.016-14.13,3.4a16.5,16.5,0,0,0-4.985,3.988c-.945,1.138-1.649,1.047-2.3-.292-2.027-4.16-4.072-8.311-6.039-12.5a20,20,0,0,1-.9-3.076l.319-.283" transform="translate(-36.941 -65.369)" fill="#fff"/><path d="M121.021,159.641c1.8.451,5.045,1.239,8.274,2.082,1.633.427,3.266.88,4.852,1.461,1.087.4,1.121.911.144,1.547-3.566,2.319-7.226,4.459-11.419,5.349-3.08.654-6.18,1.2-9.262,1.847-2.752.575-5.22-.387-7.648-1.466-1.906-.846-3.753-1.835-5.609-2.8a1.542,1.542,0,0,1-.742-.794c-.05-.164.354-.579.63-.728,3.1-1.663,6.124-3.517,9.346-4.876a23.927,23.927,0,0,1,11.434-1.624" transform="translate(-52.414 -81.693)" fill="#fff"/></g></g><rect width="127.925" height="126.153" fill="none"/></g></g></svg>